<svg width="663" height="391" viewBox="0 0 663 391" fill="none" xmlns="http://www.w3.org/2000/svg">
<path d="M9.16619 275.562V290.107H7.40483V277.409H7.3196L3.76847 279.767V277.977L7.40483 275.562H9.16619Z" fill="#838D9F" style="fill:#838D9F;fill:color(display-p3 0.5137 0.5529 0.6235);fill-opacity:1;"/>
<path d="M127.781 375.197V373.919L132.582 368.663C133.146 368.048 133.61 367.513 133.974 367.058C134.339 366.599 134.609 366.168 134.784 365.765C134.964 365.358 135.054 364.932 135.054 364.487C135.054 363.976 134.931 363.533 134.684 363.159C134.443 362.785 134.112 362.496 133.69 362.292C133.269 362.089 132.795 361.987 132.27 361.987C131.711 361.987 131.223 362.103 130.807 362.335C130.395 362.562 130.075 362.882 129.848 363.294C129.625 363.706 129.514 364.189 129.514 364.743H127.838C127.838 363.89 128.034 363.142 128.427 362.498C128.82 361.854 129.355 361.353 130.032 360.993C130.714 360.633 131.479 360.453 132.327 360.453C133.179 360.453 133.934 360.633 134.592 360.993C135.25 361.353 135.766 361.838 136.14 362.449C136.515 363.059 136.702 363.739 136.702 364.487C136.702 365.022 136.604 365.545 136.41 366.057C136.221 366.563 135.89 367.129 135.416 367.754C134.947 368.374 134.296 369.132 133.463 370.027L130.196 373.521V373.635H136.957V375.197H127.781ZM144.635 375.396C143.565 375.396 142.653 375.105 141.9 374.523C141.148 373.935 140.572 373.086 140.175 371.973C139.777 370.855 139.578 369.506 139.578 367.925C139.578 366.353 139.777 365.01 140.175 363.898C140.577 362.78 141.155 361.928 141.907 361.341C142.665 360.749 143.574 360.453 144.635 360.453C145.695 360.453 146.602 360.749 147.355 361.341C148.113 361.928 148.69 362.78 149.088 363.898C149.49 365.01 149.692 366.353 149.692 367.925C149.692 369.506 149.493 370.855 149.095 371.973C148.697 373.086 148.122 373.935 147.369 374.523C146.616 375.105 145.705 375.396 144.635 375.396ZM144.635 373.834C145.695 373.834 146.519 373.322 147.106 372.3C147.693 371.277 147.987 369.818 147.987 367.925C147.987 366.665 147.852 365.593 147.582 364.707C147.317 363.822 146.934 363.147 146.432 362.683C145.934 362.219 145.336 361.987 144.635 361.987C143.584 361.987 142.762 362.506 142.17 363.542C141.578 364.575 141.282 366.035 141.282 367.925C141.282 369.184 141.415 370.254 141.68 371.135C141.945 372.015 142.327 372.685 142.824 373.145C143.326 373.604 143.929 373.834 144.635 373.834Z" fill="#838D9F" style="fill:#838D9F;fill:color(display-p3 0.5137 0.5529 0.6235);fill-opacity:1;"/>
<path d="M256.54 372.214V370.765L262.932 360.652H263.983V362.896H263.273L258.443 370.538V370.652H267.051V372.214H256.54ZM263.386 375.197V371.774V371.099V360.652H265.062V375.197H263.386ZM274.457 375.396C273.387 375.396 272.475 375.105 271.723 374.523C270.97 373.935 270.395 373.086 269.997 371.973C269.599 370.855 269.4 369.506 269.4 367.925C269.4 366.353 269.599 365.01 269.997 363.898C270.399 362.78 270.977 361.928 271.73 361.341C272.487 360.749 273.396 360.453 274.457 360.453C275.518 360.453 276.424 360.749 277.177 361.341C277.935 361.928 278.512 362.78 278.91 363.898C279.313 365.01 279.514 366.353 279.514 367.925C279.514 369.506 279.315 370.855 278.917 371.973C278.52 373.086 277.944 373.935 277.191 374.523C276.439 375.105 275.527 375.396 274.457 375.396ZM274.457 373.834C275.518 373.834 276.342 373.322 276.929 372.3C277.516 371.277 277.809 369.818 277.809 367.925C277.809 366.665 277.674 365.593 277.404 364.707C277.139 363.822 276.756 363.147 276.254 362.683C275.757 362.219 275.158 361.987 274.457 361.987C273.406 361.987 272.584 362.506 271.993 363.542C271.401 364.575 271.105 366.035 271.105 367.925C271.105 369.184 271.237 370.254 271.502 371.135C271.768 372.015 272.149 372.685 272.646 373.145C273.148 373.604 273.752 373.834 274.457 373.834Z" fill="#838D9F" style="fill:#838D9F;fill:color(display-p3 0.5137 0.5529 0.6235);fill-opacity:1;"/>
<path d="M11.8418 363.838C10.7717 363.838 9.86026 363.546 9.10742 362.964C8.35458 362.377 7.7793 361.527 7.38157 360.414C6.98384 359.297 6.78498 357.947 6.78498 356.366C6.78498 354.794 6.98384 353.452 7.38157 352.339C7.78403 351.222 8.36168 350.369 9.11452 349.782C9.8721 349.19 10.7812 348.894 11.8418 348.894C12.9024 348.894 13.8091 349.19 14.562 349.782C15.3195 350.369 15.8972 351.222 16.2949 352.339C16.6974 353.452 16.8986 354.794 16.8986 356.366C16.8986 357.947 16.6998 359.297 16.302 360.414C15.9043 361.527 15.329 362.377 14.5762 362.964C13.8233 363.546 12.9119 363.838 11.8418 363.838ZM11.8418 362.275C12.9024 362.275 13.7263 361.764 14.3134 360.741C14.9005 359.718 15.1941 358.26 15.1941 356.366C15.1941 355.106 15.0591 354.034 14.7892 353.149C14.5241 352.263 14.1406 351.588 13.6387 351.124C13.1415 350.66 12.5426 350.428 11.8418 350.428C10.7907 350.428 9.96916 350.947 9.37731 351.984C8.78545 353.016 8.48952 354.477 8.48952 356.366C8.48952 357.625 8.6221 358.695 8.88725 359.576C9.1524 360.457 9.53356 361.127 10.0307 361.586C10.5326 362.045 11.1363 362.275 11.8418 362.275Z" fill="#838D9F" style="fill:#838D9F;fill:color(display-p3 0.5137 0.5529 0.6235);fill-opacity:1;"/>
<path d="M388.596 375.396C387.999 375.387 387.403 375.273 386.806 375.055C386.21 374.837 385.665 374.47 385.173 373.954C384.68 373.434 384.285 372.73 383.987 371.845C383.688 370.955 383.539 369.837 383.539 368.493C383.539 367.205 383.66 366.064 383.901 365.069C384.143 364.07 384.493 363.23 384.952 362.548C385.412 361.862 385.966 361.341 386.614 360.986C387.268 360.631 388.004 360.453 388.823 360.453C389.638 360.453 390.362 360.616 390.996 360.943C391.636 361.265 392.156 361.715 392.559 362.292C392.961 362.87 393.222 363.535 393.34 364.288H391.607C391.446 363.635 391.134 363.093 390.67 362.662C390.206 362.231 389.59 362.015 388.823 362.015C387.696 362.015 386.808 362.506 386.16 363.486C385.516 364.466 385.192 365.841 385.187 367.612H385.3C385.566 367.21 385.88 366.866 386.245 366.582C386.614 366.293 387.022 366.071 387.467 365.915C387.912 365.758 388.383 365.68 388.88 365.68C389.713 365.68 390.476 365.889 391.167 366.305C391.858 366.717 392.412 367.288 392.829 368.017C393.245 368.741 393.454 369.572 393.454 370.51C393.454 371.409 393.253 372.233 392.85 372.981C392.448 373.725 391.882 374.317 391.153 374.757C390.428 375.193 389.576 375.406 388.596 375.396ZM388.596 373.834C389.192 373.834 389.728 373.684 390.201 373.386C390.679 373.088 391.056 372.688 391.33 372.186C391.61 371.684 391.749 371.125 391.749 370.51C391.749 369.908 391.614 369.362 391.344 368.869C391.079 368.372 390.712 367.977 390.244 367.683C389.78 367.39 389.249 367.243 388.653 367.243C388.203 367.243 387.784 367.333 387.396 367.513C387.007 367.688 386.666 367.929 386.373 368.237C386.084 368.545 385.857 368.898 385.691 369.295C385.525 369.688 385.442 370.103 385.442 370.538C385.442 371.116 385.577 371.656 385.847 372.157C386.122 372.659 386.496 373.064 386.969 373.372C387.448 373.68 387.99 373.834 388.596 373.834ZM400.991 375.396C399.921 375.396 399.01 375.105 398.257 374.523C397.504 373.935 396.929 373.086 396.531 371.973C396.133 370.855 395.934 369.506 395.934 367.925C395.934 366.353 396.133 365.01 396.531 363.898C396.933 362.78 397.511 361.928 398.264 361.341C399.021 360.749 399.931 360.453 400.991 360.453C402.052 360.453 402.958 360.749 403.711 361.341C404.469 361.928 405.047 362.78 405.444 363.898C405.847 365.01 406.048 366.353 406.048 367.925C406.048 369.506 405.849 370.855 405.451 371.973C405.054 373.086 404.478 373.935 403.725 374.523C402.973 375.105 402.061 375.396 400.991 375.396ZM400.991 373.834C402.052 373.834 402.876 373.322 403.463 372.3C404.05 371.277 404.343 369.818 404.343 367.925C404.343 366.665 404.208 365.593 403.939 364.707C403.673 363.822 403.29 363.147 402.788 362.683C402.291 362.219 401.692 361.987 400.991 361.987C399.94 361.987 399.118 362.506 398.527 363.542C397.935 364.575 397.639 366.035 397.639 367.925C397.639 369.184 397.771 370.254 398.037 371.135C398.302 372.015 398.683 372.685 399.18 373.145C399.682 373.604 400.286 373.834 400.991 373.834Z" fill="#838D9F" style="fill:#838D9F;fill:color(display-p3 0.5137 0.5529 0.6235);fill-opacity:1;"/>
<path d="M516.664 375.396C515.688 375.396 514.827 375.223 514.078 374.878C513.335 374.527 512.755 374.047 512.338 373.436C511.922 372.82 511.716 372.12 511.721 371.334C511.716 370.718 511.837 370.15 512.083 369.629C512.329 369.104 512.665 368.666 513.091 368.315C513.522 367.96 514.003 367.735 514.533 367.64V367.555C513.837 367.375 513.283 366.985 512.871 366.383C512.459 365.777 512.256 365.088 512.26 364.317C512.256 363.578 512.443 362.917 512.821 362.335C513.2 361.753 513.721 361.293 514.384 360.957C515.051 360.621 515.811 360.453 516.664 360.453C517.507 360.453 518.259 360.621 518.922 360.957C519.585 361.293 520.106 361.753 520.485 362.335C520.868 362.917 521.062 363.578 521.067 364.317C521.062 365.088 520.852 365.777 520.435 366.383C520.023 366.985 519.476 367.375 518.794 367.555V367.64C519.32 367.735 519.793 367.96 520.215 368.315C520.636 368.666 520.972 369.104 521.223 369.629C521.474 370.15 521.602 370.718 521.607 371.334C521.602 372.12 521.389 372.82 520.968 373.436C520.551 374.047 519.971 374.527 519.228 374.878C518.489 375.223 517.634 375.396 516.664 375.396ZM516.664 373.834C517.322 373.834 517.89 373.727 518.368 373.514C518.846 373.301 519.216 373 519.476 372.612C519.737 372.224 519.869 371.769 519.874 371.248C519.869 370.699 519.727 370.214 519.448 369.792C519.168 369.371 518.787 369.04 518.304 368.798C517.826 368.557 517.279 368.436 516.664 368.436C516.043 368.436 515.489 368.557 515.002 368.798C514.519 369.04 514.138 369.371 513.858 369.792C513.584 370.214 513.449 370.699 513.453 371.248C513.449 371.769 513.574 372.224 513.83 372.612C514.09 373 514.462 373.301 514.945 373.514C515.428 373.727 516.001 373.834 516.664 373.834ZM516.664 366.93C517.185 366.93 517.646 366.826 518.049 366.618C518.456 366.409 518.775 366.118 519.007 365.744C519.239 365.37 519.358 364.932 519.363 364.43C519.358 363.938 519.242 363.509 519.015 363.145C518.787 362.775 518.472 362.491 518.07 362.292C517.667 362.089 517.199 361.987 516.664 361.987C516.119 361.987 515.643 362.089 515.236 362.292C514.829 362.491 514.514 362.775 514.292 363.145C514.069 363.509 513.96 363.938 513.965 364.43C513.96 364.932 514.071 365.37 514.299 365.744C514.531 366.118 514.85 366.409 515.257 366.618C515.665 366.826 516.133 366.93 516.664 366.93ZM529.073 375.396C528.003 375.396 527.092 375.105 526.339 374.523C525.586 373.935 525.011 373.086 524.613 371.973C524.215 370.855 524.016 369.506 524.016 367.925C524.016 366.353 524.215 365.01 524.613 363.898C525.015 362.78 525.593 361.928 526.346 361.341C527.103 360.749 528.013 360.453 529.073 360.453C530.134 360.453 531.04 360.749 531.793 361.341C532.551 361.928 533.129 362.78 533.526 363.898C533.929 365.01 534.13 366.353 534.13 367.925C534.13 369.506 533.931 370.855 533.533 371.973C533.136 373.086 532.56 373.935 531.808 374.523C531.055 375.105 530.143 375.396 529.073 375.396ZM529.073 373.834C530.134 373.834 530.958 373.322 531.545 372.3C532.132 371.277 532.425 369.818 532.425 367.925C532.425 366.665 532.29 365.593 532.021 364.707C531.755 363.822 531.372 363.147 530.87 362.683C530.373 362.219 529.774 361.987 529.073 361.987C528.022 361.987 527.201 362.506 526.609 363.542C526.017 364.575 525.721 366.035 525.721 367.925C525.721 369.184 525.853 370.254 526.119 371.135C526.384 372.015 526.765 372.685 527.262 373.145C527.764 373.604 528.368 373.834 529.073 373.834Z" fill="#838D9F" style="fill:#838D9F;fill:color(display-p3 0.5137 0.5529 0.6235);fill-opacity:1;"/>
<path d="M631.503 364.373V378.918H629.742V366.219H629.656L626.105 368.577V366.787L629.742 364.373H631.503ZM640.431 379.117C639.36 379.117 638.449 378.826 637.696 378.243C636.943 377.656 636.368 376.806 635.97 375.694C635.573 374.576 635.374 373.227 635.374 371.645C635.374 370.073 635.573 368.731 635.97 367.618C636.373 366.501 636.95 365.649 637.703 365.061C638.461 364.47 639.37 364.174 640.431 364.174C641.491 364.174 642.398 364.47 643.151 365.061C643.908 365.649 644.486 366.501 644.884 367.618C645.286 368.731 645.487 370.073 645.487 371.645C645.487 373.227 645.289 374.576 644.891 375.694C644.493 376.806 643.918 377.656 643.165 378.243C642.412 378.826 641.501 379.117 640.431 379.117ZM640.431 377.554C641.491 377.554 642.315 377.043 642.902 376.02C643.489 374.998 643.783 373.539 643.783 371.645C643.783 370.386 643.648 369.313 643.378 368.428C643.113 367.542 642.729 366.868 642.227 366.404C641.73 365.94 641.131 365.708 640.431 365.708C639.379 365.708 638.558 366.226 637.966 367.263C637.374 368.295 637.078 369.756 637.078 371.645C637.078 372.905 637.211 373.975 637.476 374.855C637.741 375.736 638.122 376.406 638.619 376.865C639.121 377.325 639.725 377.554 640.431 377.554ZM652.931 379.117C651.86 379.117 650.949 378.826 650.196 378.243C649.443 377.656 648.868 376.806 648.47 375.694C648.073 374.576 647.874 373.227 647.874 371.645C647.874 370.073 648.073 368.731 648.47 367.618C648.873 366.501 649.45 365.649 650.203 365.061C650.961 364.47 651.87 364.174 652.931 364.174C653.991 364.174 654.898 364.47 655.651 365.061C656.408 365.649 656.986 366.501 657.384 367.618C657.786 368.731 657.987 370.073 657.987 371.645C657.987 373.227 657.789 374.576 657.391 375.694C656.993 376.806 656.418 377.656 655.665 378.243C654.912 378.826 654.001 379.117 652.931 379.117ZM652.931 377.554C653.991 377.554 654.815 377.043 655.402 376.02C655.989 374.998 656.283 373.539 656.283 371.645C656.283 370.386 656.148 369.313 655.878 368.428C655.613 367.542 655.229 366.868 654.727 366.404C654.23 365.94 653.631 365.708 652.931 365.708C651.879 365.708 651.058 366.226 650.466 367.263C649.874 368.295 649.578 369.756 649.578 371.645C649.578 372.905 649.711 373.975 649.976 374.855C650.241 375.736 650.622 376.406 651.119 376.865C651.621 377.325 652.225 377.554 652.931 377.554Z" fill="#838D9F" style="fill:#838D9F;fill:color(display-p3 0.5137 0.5529 0.6235);fill-opacity:1;"/>
<path d="M1.88849 216.568V215.29L6.68963 210.034C7.25308 209.419 7.71709 208.884 8.08168 208.429C8.44626 207.97 8.71615 207.539 8.89134 207.137C9.07126 206.729 9.16122 206.303 9.16122 205.858C9.16122 205.347 9.03812 204.904 8.7919 204.53C8.55043 204.156 8.21899 203.867 7.79759 203.664C7.37618 203.46 6.9027 203.358 6.37713 203.358C5.81842 203.358 5.33073 203.474 4.91406 203.706C4.50213 203.933 4.18253 204.253 3.95526 204.665C3.73272 205.077 3.62145 205.56 3.62145 206.114H1.94531C1.94531 205.262 2.14181 204.513 2.5348 203.869C2.92779 203.226 3.46283 202.724 4.13991 202.364C4.82173 202.004 5.58641 201.824 6.43395 201.824C7.28622 201.824 8.04143 202.004 8.69957 202.364C9.35772 202.724 9.87382 203.209 10.2479 203.82C10.6219 204.431 10.8089 205.11 10.8089 205.858C10.8089 206.393 10.7119 206.916 10.5178 207.428C10.3284 207.934 9.99692 208.5 9.52344 209.125C9.05469 209.745 8.40365 210.503 7.57031 211.398L4.30327 214.892V215.006H11.0646V216.568H1.88849Z" fill="#838D9F" style="fill:#838D9F;fill:color(display-p3 0.5137 0.5529 0.6235);fill-opacity:1;"/>
<path d="M6.80327 148.183C5.86577 148.183 5.03007 148.022 4.29616 147.7C3.567 147.378 2.98698 146.931 2.55611 146.358C2.12997 145.78 1.89796 145.11 1.86009 144.348H3.64986C3.68774 144.817 3.84872 145.222 4.13281 145.562C4.4169 145.899 4.78859 146.159 5.24787 146.344C5.70715 146.528 6.21615 146.621 6.77486 146.621C7.39986 146.621 7.95384 146.512 8.43679 146.294C8.91974 146.076 9.29853 145.773 9.57315 145.385C9.84777 144.997 9.98509 144.547 9.98509 144.036C9.98509 143.5 9.85251 143.029 9.58736 142.622C9.32221 142.21 8.93395 141.888 8.42259 141.656C7.91122 141.424 7.28622 141.308 6.54759 141.308H5.38281V139.746H6.54759C7.12524 139.746 7.63187 139.642 8.06747 139.433C8.50781 139.225 8.85109 138.931 9.0973 138.553C9.34825 138.174 9.47372 137.729 9.47372 137.217C9.47372 136.725 9.36482 136.296 9.14702 135.932C8.92921 135.567 8.62145 135.283 8.22372 135.08C7.83073 134.876 7.36671 134.774 6.83168 134.774C6.32978 134.774 5.8563 134.866 5.41122 135.051C4.97088 135.231 4.61103 135.494 4.33168 135.839C4.05232 136.18 3.90081 136.592 3.87713 137.075H2.17259C2.20099 136.313 2.43063 135.645 2.86151 135.072C3.29238 134.495 3.85582 134.045 4.55185 133.723C5.2526 133.401 6.02202 133.24 6.86009 133.24C7.75971 133.24 8.53149 133.422 9.17543 133.787C9.81937 134.147 10.3142 134.623 10.6598 135.214C11.0054 135.806 11.1783 136.446 11.1783 137.132C11.1783 137.951 10.9628 138.65 10.532 139.227C10.1058 139.805 9.52581 140.205 8.7919 140.428V140.541C9.71046 140.693 10.4278 141.083 10.9439 141.713C11.46 142.338 11.718 143.112 11.718 144.036C11.718 144.826 11.5026 145.536 11.0717 146.166C10.6456 146.791 10.0632 147.284 9.32457 147.643C8.58594 148.003 7.7455 148.183 6.80327 148.183Z" fill="#838D9F" style="fill:#838D9F;fill:color(display-p3 0.5137 0.5529 0.6235);fill-opacity:1;"/>
<path d="M1.54759 77.3725V75.9237L7.93963 65.81H8.99077V68.0543H8.28054L3.45099 75.6964V75.81H12.0589V77.3725H1.54759ZM8.39418 80.3555V76.9322V76.2575V65.81H10.0703V80.3555H8.39418Z" fill="#838D9F" style="fill:#838D9F;fill:color(display-p3 0.5137 0.5529 0.6235);fill-opacity:1;"/>
<path d="M6.43395 19.3082C5.60062 19.3082 4.85014 19.1425 4.18253 18.8111C3.51491 18.4796 2.97988 18.0251 2.57741 17.4474C2.17495 16.8698 1.95478 16.2116 1.9169 15.473H3.62145C3.68774 16.1312 3.98603 16.6757 4.51634 17.1065C5.05137 17.5327 5.69058 17.7457 6.43395 17.7457C7.03054 17.7457 7.56084 17.6061 8.02486 17.3267C8.49361 17.0473 8.86056 16.6638 9.12571 16.1761C9.3956 15.6837 9.53054 15.1274 9.53054 14.5071C9.53054 13.8726 9.39086 13.3068 9.11151 12.8097C8.83688 12.3078 8.4581 11.9124 7.97514 11.6236C7.49219 11.3348 6.94058 11.188 6.32031 11.1832C5.87524 11.1785 5.41832 11.2472 4.94957 11.3892C4.48082 11.5265 4.09493 11.7041 3.7919 11.9219L2.14418 11.723L3.02486 4.56392H10.5817V6.12642H4.50213L3.99077 10.4162H4.07599C4.37429 10.1795 4.74834 9.98295 5.19815 9.8267C5.64796 9.67045 6.11671 9.59233 6.6044 9.59233C7.49455 9.59233 8.28764 9.8054 8.98366 10.2315C9.68442 10.6529 10.2337 11.2306 10.6314 11.9645C11.0339 12.6984 11.2351 13.5365 11.2351 14.4787C11.2351 15.4067 11.0268 16.2353 10.6101 16.9645C10.1982 17.6889 9.62997 18.2618 8.90554 18.6832C8.18111 19.0999 7.35724 19.3082 6.43395 19.3082Z" fill="#838D9F" style="fill:#838D9F;fill:color(display-p3 0.5137 0.5529 0.6235);fill-opacity:1;"/>
<mask id="mask0_92_771" style="mask-type:luminance" maskUnits="userSpaceOnUse" x="25" y="12" width="621" height="334">
<path fill-rule="evenodd" clip-rule="evenodd" d="M25.3203 12.6875H645.707V345.298H25.3203V12.6875Z" fill="white" style="fill:white;fill-opacity:1;"/>
</mask>
<g mask="url(#mask0_92_771)">
</g>
</svg>
