<svg width="479" height="245" viewBox="0 0 479 245" fill="none" xmlns="http://www.w3.org/2000/svg">
<path d="M0 239.404C5.55082e-06 175.91 25.2229 115.017 70.1199 70.1199C115.017 25.2229 175.91 -7.57158e-07 239.404 0L239.404 23.9404C182.26 23.9404 127.456 46.641 87.0483 87.0483C46.641 127.456 23.9404 182.26 23.9404 239.404L0 239.404Z" fill="#52C376" style="fill:#52C376;fill:color(display-p3 0.3216 0.7647 0.4627);fill-opacity:1;"/>
<path d="M239.404 0C270.843 3.74907e-07 301.974 6.19238 331.02 18.2236C360.066 30.2548 386.458 47.8892 408.689 70.1199C430.919 92.3507 448.554 118.742 460.585 147.788C472.616 176.834 478.809 207.965 478.809 239.404L455.186 239.404C455.186 211.068 449.604 183.008 438.76 156.828C427.916 130.649 412.022 106.861 391.985 86.8239C371.948 66.7867 348.16 50.8924 321.98 40.0484C295.8 29.2043 267.741 23.623 239.404 23.623L239.404 0Z" fill="#E26767" style="fill:#E26767;fill:color(display-p3 0.8863 0.4039 0.4039);fill-opacity:1;"/>
</svg>
