<svg width="308" height="309" viewBox="0 0 308 309" fill="none" xmlns="http://www.w3.org/2000/svg">
<path d="M183.861 0.0700845C190.552 0.0649096 199.318 -0.376939 205.617 1.02419C213.835 3.99866 220.136 10.9929 220.328 19.8738C220.81 42.1629 220.174 64.6882 220.498 86.9675C234.767 86.6681 249.685 86.8649 264 86.8582L277.83 86.8552C286.332 86.8565 293.794 86.3183 300.387 92.7459C303.489 95.7706 304.822 98.2923 306.222 102.284V102.285C307.447 108.695 307.014 121.041 307.012 128.149L306.967 168.946L307.01 188.397C307.015 194.486 307.394 200.651 305.944 206.547C303.217 213.685 297.297 219.865 289.597 220.748C281.869 221.634 272.787 221.254 264.965 221.253L220.505 221.252C219.853 243.213 220.97 265.515 220.375 287.5C220.222 293.147 217.832 298.427 213.709 302.295C211.496 304.369 208.866 305.94 205.998 306.909L205.421 307.095C198.585 308.583 184.278 308.06 176.771 308.055L133.668 308.038C125.586 307.972 109.956 308.636 102.343 307.258L101.631 307.118L101.034 306.906C94.8551 304.603 88.524 298.819 87.4063 292.423C86.0903 284.885 86.6162 274.556 86.6182 266.818L86.583 221.208C64.5029 221.492 41.836 221.269 19.7363 221.016C10.8943 220.915 3.94531 214.303 0.981449 206.123C0.898026 204.481 0.116538 202.018 0.095707 199.678C0.0324083 192.559 0.0499329 185.408 0.0498086 178.292L0.0527383 136.971L0.0419961 119.523C0.0332577 113.246 -0.309447 107.681 1.12207 101.534C5.9696 89.3405 14.4748 86.4901 26.5352 86.8591C31.2546 87.0036 36.5341 86.8603 41.3164 86.8621L86.6719 86.8416C86.2799 74.3269 86.8384 60.9223 86.6201 48.2947C86.7696 38.7919 86.3316 29.2154 86.8203 19.7254C87.297 10.4769 93.0873 4.27734 101.258 1.04567C108.076 -0.358531 117.64 0.0685672 124.866 0.0681314L156.404 0.0739908L183.861 0.0700845Z" fill="#95BD6D" style="fill:#95BD6D;fill:color(display-p3 0.5843 0.7412 0.4275);fill-opacity:1;"/>
<path d="M109.125 58.9217C112.434 41.0891 129.388 30.1831 147.102 34.1102C154.804 35.8177 157.567 38.6424 161.777 44.9198C163.058 44.9625 164.608 46.8825 165.494 47.8465C169.955 52.6985 174.322 57.6551 178.745 62.5438L204.84 91.3241C212.474 99.7664 223.094 110.703 229.959 119.361C224.996 119.267 220.032 119.223 215.069 119.227C212.985 119.222 209.036 119.117 207.097 119.335C211.417 119.639 217.557 119.501 221.979 119.524L248.806 119.653C250.694 119.663 259.713 119.502 260.948 119.967L261.495 119.914L295.776 157.189C298.533 160.168 302.425 164.191 305.273 167.301C305.268 167.306 305.573 168.764 305.614 168.945L305.656 188.397C305.661 194.486 306.04 200.651 304.59 206.547C301.863 213.685 295.943 219.865 288.243 220.748C280.516 221.634 271.433 221.254 263.611 221.253L219.151 221.251C218.499 243.212 219.616 265.515 219.021 287.5C218.868 293.147 216.478 298.427 212.355 302.295C209.994 304.507 207.16 306.147 204.068 307.095L204.067 307.096C197.23 308.583 182.924 308.061 175.418 308.056L132.314 308.038C132.034 307.973 131.69 307.895 131.282 307.803C128.237 304.73 125.344 301.49 122.392 298.323C118.518 294.171 114.681 289.967 110.755 285.865C106.425 281.338 102.272 276.635 97.9094 272.142C98.7329 272.055 99.9189 272.015 100.609 271.65L100.151 271.34C100.997 270.585 112.163 269.13 115.028 268.118C119.562 266.513 120.277 265.223 123.99 263.283C131.703 259.253 141.353 257.61 149.958 257.27L149.928 247.84C146.823 245.275 141.237 238.583 138.358 235.264C138.311 234.911 138.273 234.611 138.24 234.365C137.973 234.036 136.377 232.775 135.94 232.389C131.411 228.39 127.499 222.856 128.542 216.505C128.776 215.079 129.152 212.521 130.097 211.449C130.334 210.444 131.035 208.873 131.971 208.375C129.322 205.806 128.22 203.992 126.065 201.003C125.828 201.094 125.51 201.228 125.262 201.038C121.104 197.845 117.503 193.458 113.881 189.712C107.762 183.382 101.749 176.988 95.7083 170.601L67.343 140.836C64.4219 137.752 49.6845 122.945 48.2073 120.158L48.2161 119.876C49.0437 119.396 138.569 119.314 148.065 119.254L146.327 118.863C143.504 115.054 126.526 99.0058 126.241 96.3328C125.758 95.7265 123.251 93.8945 122.469 93.2606C111.674 84.5093 106.525 72.9399 109.125 58.9217ZM209.141 308.052V308.051C209.541 308.073 209.953 308.092 210.37 308.106H210.369C209.952 308.092 209.541 308.074 209.141 308.052ZM305.663 308.06L241.046 308.093L220.013 308.096V308.095L241.046 308.093L305.663 308.059V308.06Z" fill="#779A59" style="fill:#779A59;fill:color(display-p3 0.4667 0.6039 0.3490);fill-opacity:1;"/>
<path d="M148.065 119.253C157.532 119.276 169.07 118.906 178.262 119.347C181.985 122.721 183.77 125.717 184.025 130.856C184.414 138.695 181.317 146.007 176.07 151.742C171.687 156.532 167.424 158.487 161.41 160.419C161.9 173.533 161.325 187.073 161.68 200.225C157.432 200.6 154.227 201.012 149.967 200.608L149.917 163.567C130.14 163.537 110.756 156.562 96.5935 142.469C94.3045 140.191 90.139 134.876 87.9085 133.281C80.0258 127.644 68.2275 124.772 58.8005 122.506C55.2553 121.653 51.5765 121.135 48.2073 120.157L48.216 119.875C49.0323 119.395 138.568 119.313 148.065 119.253Z" fill="#FEFEFE" style="fill:#FEFEFE;fill:color(display-p3 0.9961 0.9961 0.9961);fill-opacity:1;"/>
<path d="M126.242 96.3324C125.758 95.7261 123.251 93.8936 122.469 93.2599C111.674 84.5086 106.525 72.9401 109.125 58.9219C112.434 41.0886 129.388 30.1829 147.103 34.1104C154.805 35.8179 157.567 38.6416 161.777 44.9191C163.947 49.3334 164.939 52.1256 165.889 57.0161C176.006 62.5266 172.45 65.9159 169.842 75.6209C168.512 80.5701 166.001 89.2346 159.53 81.5414C153.59 74.4804 143.257 61.7739 158.586 58.1949C156.793 52.7169 154.794 48.3669 149.312 45.5119C144.737 43.1294 138.172 43.0436 133.297 44.6789C128.638 46.2446 124.809 49.6269 122.681 54.0574C120.062 59.4464 120.026 66.3341 122.061 71.9486C127.324 86.4701 145.005 91.5506 158.532 94.7269C169.47 97.2841 182.322 98.1574 191.877 104.452C196.374 107.414 201.164 114.87 202.852 119.908C210.81 143.65 194.126 165.594 172.495 173.37C170.025 174.249 167.496 174.948 164.925 175.463C164.919 171.131 164.999 166.48 164.891 162.176C167.995 161.127 170.363 160.177 173.083 158.263C183.408 150.996 189.527 136.983 185.548 124.635C183.911 119.556 179.48 116.449 174.87 114.275C160.321 107.466 139.378 105.553 126.242 96.3324Z" fill="#FEFEFE" style="fill:#FEFEFE;fill:color(display-p3 0.9961 0.9961 0.9961);fill-opacity:1;"/>
<path d="M126.065 201.002C119.297 187.071 123.349 174.112 137.459 167.256C140.501 165.79 143.719 164.719 147.034 164.071C147.218 168.295 146.946 174.199 147.365 178.035C139.522 180.916 133.639 186.206 136.981 195.23C138.088 198.258 140.369 200.712 143.307 202.039C149.874 205.022 160.551 203.827 167.296 201.559C170.185 200.588 174.714 197.332 173.296 193.654C171.829 190.116 167.636 189.005 164.207 188.979C164.203 185.918 164.135 182.619 164.211 179.578C171.575 178.528 181.289 177.971 187.543 182.64C194.189 187.603 193.737 195.303 188.848 201.504C182.419 209.659 171.587 213.969 161.533 215.446C152.091 216.552 141.325 215.688 133.56 209.673C133.015 209.259 132.485 208.826 131.971 208.374C129.322 205.805 128.22 203.992 126.065 201.002Z" fill="#FEFEFE" style="fill:#FEFEFE;fill:color(display-p3 0.9961 0.9961 0.9961);fill-opacity:1;"/>
<path d="M149.919 242.769C154.08 243.507 157.337 243.897 161.561 244.342L161.573 257.43C169.417 258.072 177.425 259.54 184.561 263.207C187.738 264.842 189.948 266.807 193.838 268.115C197.341 269.292 203.423 269.545 206.817 270.885C206.857 270.937 206.897 270.987 206.937 271.04C205.363 271.695 193.241 271.47 190.595 271.485L129.986 271.555L110.314 271.477C107.894 271.482 102.935 271.377 100.609 271.65L100.151 271.34C100.995 270.585 112.165 269.13 115.028 268.117C119.563 266.512 120.277 265.222 123.991 263.282C131.704 259.252 141.353 257.61 149.958 257.27L149.928 247.84L149.919 242.769Z" fill="#FEFEFE" style="fill:#FEFEFE;fill:color(display-p3 0.9961 0.9961 0.9961);fill-opacity:1;"/>
<path d="M203.144 150.061C203.301 149.783 203.452 149.502 203.598 149.218C207.799 141.028 208.885 129.492 206.056 120.918C205.834 120.247 205.906 119.948 206.185 119.42L207.097 119.334C211.417 119.638 217.557 119.501 221.979 119.524L248.806 119.653C250.693 119.663 259.713 119.501 260.948 119.966C257.951 120.988 254.053 121.534 250.803 122.323C240.908 124.726 229.07 127.304 220.774 133.369C218.6 134.958 215.655 138.757 213.696 140.846C210.218 144.553 207.242 147.113 203.144 150.061Z" fill="#FEFEFE" style="fill:#FEFEFE;fill:color(display-p3 0.9961 0.9961 0.9961);fill-opacity:1;"/>
<path d="M138.24 234.365C137.973 234.036 136.377 232.775 135.94 232.389C131.411 228.39 127.499 222.855 128.542 216.504C128.776 215.078 129.151 212.52 130.097 211.448C134.349 214.588 136.746 216.305 142.305 216.341C139.954 227.767 146.277 232.456 156.872 234.534C165.307 236.189 176.668 235.587 182.721 242.845C183.666 243.965 184.009 245.575 183.219 246.87C181.484 247.657 179.886 245.012 178.517 244.172C174.959 241.99 170.261 241.846 166.153 241.631C155.38 241.067 147.432 240.893 138.24 234.365Z" fill="#FEFEFE" style="fill:#FEFEFE;fill:color(display-p3 0.9961 0.9961 0.9961);fill-opacity:1;"/>
<path d="M157.188 219.196C158.585 219.087 160.182 219.057 161.598 218.997C161.616 223.47 161.592 227.944 161.526 232.417C159.302 232.157 157.509 231.836 155.306 231.409C153.388 230.879 151.8 230.238 149.95 229.517C149.902 226.145 149.944 222.664 149.943 219.284C152.444 219.311 154.695 219.329 157.188 219.196Z" fill="#FEFEFE" style="fill:#FEFEFE;fill:color(display-p3 0.9961 0.9961 0.9961);fill-opacity:1;"/>
<path d="M146.819 187.272C147.437 188.119 147.311 195.403 147.362 197.172C145.07 199.828 144.184 200.385 141.082 198.25C139.939 196.873 139.554 195.986 138.767 194.408C140.625 192.459 144.747 188.989 146.819 187.272Z" fill="#FEFEFE" style="fill:#FEFEFE;fill:color(display-p3 0.9961 0.9961 0.9961);fill-opacity:1;"/>
</svg>
