<svg width="29" height="557" viewBox="0 0 29 557" fill="none" xmlns="http://www.w3.org/2000/svg">
<path fill-rule="evenodd" clip-rule="evenodd" d="M21.5078 0.580078H27.5461V547.503H21.5078V0.580078Z" fill="#F6F7F8" style="fill:#F6F7F8;fill:color(display-p3 0.9647 0.9686 0.9725);fill-opacity:1;"/>
<path d="M3.72753 260.139V268.632H2.95222V260.914H2.88173L0.908203 262.359V261.478L2.74077 260.139H3.72753ZM8.4594 268.738C7.87204 268.738 7.35517 268.573 6.90877 268.244C6.48587 267.892 6.15695 267.399 5.92201 266.764C5.71056 266.107 5.60483 265.319 5.60483 264.403C5.60483 263.487 5.72231 262.712 5.95725 262.077C6.19219 261.419 6.52112 260.914 6.94401 260.562C7.36691 260.209 7.87204 260.033 8.4594 260.033C9.07026 260.033 9.58713 260.209 10.01 260.562C10.4329 260.914 10.7501 261.419 10.9616 262.077C11.1965 262.712 11.314 263.487 11.314 264.403C11.314 265.319 11.1965 266.107 10.9616 266.764C10.7501 267.399 10.4329 267.892 10.01 268.244C9.58713 268.573 9.07026 268.738 8.4594 268.738ZM8.4594 268.033C8.9058 268.033 9.28171 267.892 9.58713 267.61C9.89256 267.305 10.1275 266.882 10.292 266.341C10.4564 265.801 10.5387 265.155 10.5387 264.403C10.5387 263.628 10.4564 262.97 10.292 262.43C10.1275 261.889 9.89256 261.478 9.58713 261.196C9.28171 260.891 8.9058 260.738 8.4594 260.738C8.0365 260.738 7.66059 260.891 7.33167 261.196C7.02624 261.478 6.7913 261.889 6.62684 262.43C6.46238 262.97 6.38015 263.628 6.38015 264.403C6.38015 265.155 6.46238 265.801 6.62684 266.341C6.7913 266.882 7.02624 267.305 7.33167 267.61C7.66059 267.892 8.0365 268.033 8.4594 268.033ZM15.5236 260.139V268.632H14.7482V260.914H14.6778L12.7042 262.359V261.478L14.5368 260.139H15.5236Z" fill="#8E9198" style="fill:#8E9198;fill:color(display-p3 0.5569 0.5686 0.5961);fill-opacity:1;"/>
<path d="M11.5479 556.383C10.9606 556.383 10.4437 556.219 9.9973 555.89C9.5744 555.538 9.24548 555.044 9.01053 554.41C8.79908 553.752 8.69336 552.965 8.69336 552.049C8.69336 551.132 8.81083 550.357 9.04578 549.723C9.28072 549.065 9.60964 548.56 10.0325 548.207C10.4554 547.855 10.9606 547.679 11.5479 547.679C12.1588 547.679 12.6757 547.855 13.0986 548.207C13.5215 548.56 13.8386 549.065 14.0501 549.723C14.285 550.357 14.4025 551.132 14.4025 552.049C14.4025 552.965 14.285 553.752 14.0501 554.41C13.8386 555.044 13.5215 555.538 13.0986 555.89C12.6757 556.219 12.1588 556.383 11.5479 556.383ZM11.5479 555.679C11.9943 555.679 12.3702 555.538 12.6757 555.256C12.9811 554.95 13.216 554.527 13.3805 553.987C13.545 553.447 13.6272 552.8 13.6272 552.049C13.6272 551.273 13.545 550.616 13.3805 550.075C13.216 549.535 12.9811 549.124 12.6757 548.842C12.3702 548.536 11.9943 548.384 11.5479 548.384C11.125 548.384 10.7491 548.536 10.4202 548.842C10.1148 549.124 9.87983 549.535 9.71537 550.075C9.5509 550.616 9.46867 551.273 9.46867 552.049C9.46867 552.8 9.5509 553.447 9.71537 553.987C9.87983 554.527 10.1148 554.95 10.4202 555.256C10.7491 555.538 11.125 555.679 11.5479 555.679Z" fill="#8E9198" style="fill:#8E9198;fill:color(display-p3 0.5569 0.5686 0.5961);fill-opacity:1;"/>
<path fill-rule="evenodd" clip-rule="evenodd" d="M20.5078 265.051H28.5078V553.75H20.5078V265.051Z" fill="#DFE2E6" style="fill:#DFE2E6;fill:color(display-p3 0.8745 0.8863 0.9020);fill-opacity:1;"/>
</svg>
