<svg width="68" height="581" viewBox="0 0 68 581" fill="none" xmlns="http://www.w3.org/2000/svg">
<path fill-rule="evenodd" clip-rule="evenodd" d="M53.5078 14.5801H59.5461V561.503H53.5078V14.5801Z" fill="#F6F7F8" style="fill:#F6F7F8;fill:color(display-p3 0.9647 0.9686 0.9725);fill-opacity:1;"/>
<path d="M35.7275 274.139V282.632H34.9522V274.914H34.8817L32.9082 276.359V275.478L34.7408 274.139H35.7275ZM40.4594 282.738C39.872 282.738 39.3552 282.573 38.9088 282.244C38.4859 281.892 38.157 281.399 37.922 280.764C37.7106 280.107 37.6048 279.319 37.6048 278.403C37.6048 277.487 37.7223 276.712 37.9572 276.077C38.1922 275.419 38.5211 274.914 38.944 274.562C39.3669 274.209 39.872 274.033 40.4594 274.033C41.0703 274.033 41.5871 274.209 42.01 274.562C42.4329 274.914 42.7501 275.419 42.9616 276.077C43.1965 276.712 43.314 277.487 43.314 278.403C43.314 279.319 43.1965 280.107 42.9616 280.764C42.7501 281.399 42.4329 281.892 42.01 282.244C41.5871 282.573 41.0703 282.738 40.4594 282.738ZM40.4594 282.033C40.9058 282.033 41.2817 281.892 41.5871 281.61C41.8926 281.305 42.1275 280.882 42.292 280.341C42.4564 279.801 42.5387 279.155 42.5387 278.403C42.5387 277.628 42.4564 276.97 42.292 276.43C42.1275 275.889 41.8926 275.478 41.5871 275.196C41.2817 274.891 40.9058 274.738 40.4594 274.738C40.0365 274.738 39.6606 274.891 39.3317 275.196C39.0262 275.478 38.7913 275.889 38.6268 276.43C38.4624 276.97 38.3801 277.628 38.3801 278.403C38.3801 279.155 38.4624 279.801 38.6268 280.341C38.7913 280.882 39.0262 281.305 39.3317 281.61C39.6606 281.892 40.0365 282.033 40.4594 282.033ZM47.5236 274.139V282.632H46.7482V274.914H46.6778L44.7042 276.359V275.478L46.5368 274.139H47.5236Z" fill="#8E9198" style="fill:#8E9198;fill:color(display-p3 0.5569 0.5686 0.5961);fill-opacity:1;"/>
<path d="M43.5479 570.383C42.9606 570.383 42.4437 570.219 41.9973 569.89C41.5744 569.538 41.2455 569.044 41.0105 568.41C40.7991 567.752 40.6934 566.965 40.6934 566.049C40.6934 565.132 40.8108 564.357 41.0458 563.723C41.2807 563.065 41.6096 562.56 42.0325 562.207C42.4554 561.855 42.9606 561.679 43.5479 561.679C44.1588 561.679 44.6757 561.855 45.0986 562.207C45.5215 562.56 45.8386 563.065 46.0501 563.723C46.285 564.357 46.4025 565.132 46.4025 566.049C46.4025 566.965 46.285 567.752 46.0501 568.41C45.8386 569.044 45.5215 569.538 45.0986 569.89C44.6757 570.219 44.1588 570.383 43.5479 570.383ZM43.5479 569.679C43.9943 569.679 44.3702 569.538 44.6757 569.256C44.9811 568.95 45.216 568.527 45.3805 567.987C45.545 567.447 45.6272 566.8 45.6272 566.049C45.6272 565.273 45.545 564.616 45.3805 564.075C45.216 563.535 44.9811 563.124 44.6757 562.842C44.3702 562.536 43.9943 562.384 43.5479 562.384C43.125 562.384 42.7491 562.536 42.4202 562.842C42.1148 563.124 41.8798 563.535 41.7154 564.075C41.5509 564.616 41.4687 565.273 41.4687 566.049C41.4687 566.8 41.5509 567.447 41.7154 567.987C41.8798 568.527 42.1148 568.95 42.4202 569.256C42.7491 569.538 43.125 569.679 43.5479 569.679Z" fill="#8E9198" style="fill:#8E9198;fill:color(display-p3 0.5569 0.5686 0.5961);fill-opacity:1;"/>
<path fill-rule="evenodd" clip-rule="evenodd" d="M52.5078 279.051H60.5078V567.75H52.5078V279.051Z" fill="#DFE2E6" style="fill:#DFE2E6;fill:color(display-p3 0.8745 0.8863 0.9020);fill-opacity:1;"/>
</svg>
