<svg width="55" height="583" viewBox="0 0 55 583" fill="none" xmlns="http://www.w3.org/2000/svg">
<rect opacity="0.2" width="54.5668" height="582.62" fill="white" style="fill:white;fill-opacity:1;"/>
<path fill-rule="evenodd" clip-rule="evenodd" d="M38.5668 14.7097H44.6051V567.312H38.5668V14.7097Z" fill="#F6F7F8" style="fill:#F6F7F8;fill:color(display-p3 0.9647 0.9686 0.9725);fill-opacity:1;"/>
<path d="M20.7866 289.74V298.233H20.0112V290.515H19.9408L17.9672 291.96V291.079L19.7998 289.74H20.7866ZM25.5184 298.339C24.9311 298.339 24.4142 298.175 23.9678 297.846C23.5449 297.493 23.216 297 22.981 296.366C22.7696 295.708 22.6639 294.921 22.6639 294.004C22.6639 293.088 22.7813 292.313 23.0163 291.678C23.2512 291.021 23.5801 290.515 24.003 290.163C24.4259 289.811 24.9311 289.634 25.5184 289.634C26.1293 289.634 26.6462 289.811 27.0691 290.163C27.492 290.515 27.8091 291.021 28.0206 291.678C28.2555 292.313 28.373 293.088 28.373 294.004C28.373 294.921 28.2555 295.708 28.0206 296.366C27.8091 297 27.492 297.493 27.0691 297.846C26.6462 298.175 26.1293 298.339 25.5184 298.339ZM25.5184 297.634C25.9648 297.634 26.3407 297.493 26.6462 297.211C26.9516 296.906 27.1865 296.483 27.351 295.943C27.5154 295.402 27.5977 294.756 27.5977 294.004C27.5977 293.229 27.5154 292.571 27.351 292.031C27.1865 291.49 26.9516 291.079 26.6462 290.797C26.3407 290.492 25.9648 290.339 25.5184 290.339C25.0955 290.339 24.7196 290.492 24.3907 290.797C24.0853 291.079 23.8503 291.49 23.6859 292.031C23.5214 292.571 23.4392 293.229 23.4392 294.004C23.4392 294.756 23.5214 295.402 23.6859 295.943C23.8503 296.483 24.0853 296.906 24.3907 297.211C24.7196 297.493 25.0955 297.634 25.5184 297.634ZM32.5826 289.74V298.233H31.8073V290.515H31.7368L29.7632 291.96V291.079L31.5958 289.74H32.5826Z" fill="#8E9198" style="fill:#8E9198;fill:color(display-p3 0.5569 0.5686 0.5961);fill-opacity:1;"/>
<path d="M28.6069 569.638C28.0196 569.638 27.5027 569.473 27.0563 569.144C26.6334 568.792 26.3045 568.298 26.0696 567.664C25.8581 567.006 25.7524 566.219 25.7524 565.303C25.7524 564.387 25.8699 563.611 26.1048 562.977C26.3397 562.319 26.6687 561.814 27.0916 561.461C27.5145 561.109 28.0196 560.933 28.6069 560.933C29.2178 560.933 29.7347 561.109 30.1576 561.461C30.5805 561.814 30.8977 562.319 31.1091 562.977C31.344 563.611 31.4615 564.387 31.4615 565.303C31.4615 566.219 31.344 567.006 31.1091 567.664C30.8977 568.298 30.5805 568.792 30.1576 569.144C29.7347 569.473 29.2178 569.638 28.6069 569.638ZM28.6069 568.933C29.0533 568.933 29.4293 568.792 29.7347 568.51C30.0401 568.204 30.2751 567.781 30.4395 567.241C30.604 566.701 30.6862 566.055 30.6862 565.303C30.6862 564.528 30.604 563.87 30.4395 563.329C30.2751 562.789 30.0401 562.378 29.7347 562.096C29.4293 561.79 29.0533 561.638 28.6069 561.638C28.1841 561.638 27.8081 561.79 27.4792 562.096C27.1738 562.378 26.9388 562.789 26.7744 563.329C26.6099 563.87 26.5277 564.528 26.5277 565.303C26.5277 566.055 26.6099 566.701 26.7744 567.241C26.9388 567.781 27.1738 568.204 27.4792 568.51C27.8081 568.792 28.1841 568.933 28.6069 568.933Z" fill="#8E9198" style="fill:#8E9198;fill:color(display-p3 0.5569 0.5686 0.5961);fill-opacity:1;"/>
<path fill-rule="evenodd" clip-rule="evenodd" d="M37.5668 293.987H45.5668V565.285H37.5668V293.987Z" fill="#DFE2E6" style="fill:#DFE2E6;fill:color(display-p3 0.8745 0.8863 0.9020);fill-opacity:1;"/>
</svg>
