<svg width="55" height="583" viewBox="0 0 55 583" fill="none" xmlns="http://www.w3.org/2000/svg">
<rect opacity="0.2" width="54.5668" height="582.62" fill="white" style="fill:white;fill-opacity:1;"/>
<path fill-rule="evenodd" clip-rule="evenodd" d="M38.5668 14.7097H44.6051V567.312H38.5668V14.7097Z" fill="#F6F7F8" style="fill:#F6F7F8;fill:color(display-p3 0.9647 0.9686 0.9725);fill-opacity:1;"/>
<path d="M20.7866 279.948V288.441H20.0112V280.724H19.9408L17.9672 282.168V281.287L19.7998 279.948H20.7866ZM25.5184 288.547C24.9311 288.547 24.4142 288.383 23.9678 288.054C23.5449 287.701 23.216 287.208 22.981 286.574C22.7696 285.916 22.6639 285.129 22.6639 284.212C22.6639 283.296 22.7813 282.521 23.0163 281.887C23.2512 281.229 23.5801 280.724 24.003 280.371C24.4259 280.019 24.9311 279.843 25.5184 279.843C26.1293 279.843 26.6462 280.019 27.0691 280.371C27.492 280.724 27.8091 281.229 28.0206 281.887C28.2555 282.521 28.373 283.296 28.373 284.212C28.373 285.129 28.2555 285.916 28.0206 286.574C27.8091 287.208 27.492 287.701 27.0691 288.054C26.6462 288.383 26.1293 288.547 25.5184 288.547ZM25.5184 287.842C25.9648 287.842 26.3407 287.701 26.6462 287.419C26.9516 287.114 27.1865 286.691 27.351 286.151C27.5154 285.61 27.5977 284.964 27.5977 284.212C27.5977 283.437 27.5154 282.779 27.351 282.239C27.1865 281.699 26.9516 281.287 26.6462 281.006C26.3407 280.7 25.9648 280.547 25.5184 280.547C25.0955 280.547 24.7196 280.7 24.3907 281.006C24.0853 281.287 23.8503 281.699 23.6859 282.239C23.5214 282.779 23.4392 283.437 23.4392 284.212C23.4392 284.964 23.5214 285.61 23.6859 286.151C23.8503 286.691 24.0853 287.114 24.3907 287.419C24.7196 287.701 25.0955 287.842 25.5184 287.842ZM32.5826 279.948V288.441H31.8073V280.724H31.7368L29.7632 282.168V281.287L31.5958 279.948H32.5826Z" fill="#8E9198" style="fill:#8E9198;fill:color(display-p3 0.5569 0.5686 0.5961);fill-opacity:1;"/>
<path d="M28.6069 572.262C28.0196 572.262 27.5027 572.098 27.0563 571.769C26.6334 571.416 26.3045 570.923 26.0696 570.289C25.8581 569.631 25.7524 568.844 25.7524 567.928C25.7524 567.011 25.8699 566.236 26.1048 565.602C26.3397 564.944 26.6687 564.439 27.0916 564.086C27.5145 563.734 28.0196 563.558 28.6069 563.558C29.2178 563.558 29.7347 563.734 30.1576 564.086C30.5805 564.439 30.8977 564.944 31.1091 565.602C31.344 566.236 31.4615 567.011 31.4615 567.928C31.4615 568.844 31.344 569.631 31.1091 570.289C30.8977 570.923 30.5805 571.416 30.1576 571.769C29.7347 572.098 29.2178 572.262 28.6069 572.262ZM28.6069 571.557C29.0533 571.557 29.4293 571.416 29.7347 571.134C30.0401 570.829 30.2751 570.406 30.4395 569.866C30.604 569.325 30.6862 568.679 30.6862 567.928C30.6862 567.152 30.604 566.494 30.4395 565.954C30.2751 565.414 30.0401 565.002 29.7347 564.721C29.4293 564.415 29.0533 564.262 28.6069 564.262C28.1841 564.262 27.8081 564.415 27.4792 564.721C27.1738 565.002 26.9388 565.414 26.7744 565.954C26.6099 566.494 26.5277 567.152 26.5277 567.928C26.5277 568.679 26.6099 569.325 26.7744 569.866C26.9388 570.406 27.1738 570.829 27.4792 571.134C27.8081 571.416 28.1841 571.557 28.6069 571.557Z" fill="#8E9198" style="fill:#8E9198;fill:color(display-p3 0.5569 0.5686 0.5961);fill-opacity:1;"/>
<path fill-rule="evenodd" clip-rule="evenodd" d="M37.5668 284.86H45.5668V567.91H37.5668V284.86Z" fill="#DFE2E6" style="fill:#DFE2E6;fill:color(display-p3 0.8745 0.8863 0.9020);fill-opacity:1;"/>
</svg>
