<svg width="29" height="554" viewBox="0 0 29 554" fill="none" xmlns="http://www.w3.org/2000/svg">
<path fill-rule="evenodd" clip-rule="evenodd" d="M21.7871 0.5625H27.8253V553.737H21.7871V0.5625Z" fill="#F6F7F8" style="fill:#F6F7F8;fill:color(display-p3 0.9647 0.9686 0.9725);fill-opacity:1;"/>
<path d="M-0.00585938 171.62V171.021L2.77823 167.92C3.13064 167.521 3.41258 167.18 3.62402 166.898C3.83547 166.616 3.98819 166.358 4.08217 166.123C4.19964 165.864 4.25837 165.606 4.25837 165.347C4.25837 165.019 4.17614 164.737 4.01168 164.502C3.87072 164.243 3.67101 164.055 3.41258 163.938C3.15414 163.797 2.86046 163.726 2.53154 163.726C2.20261 163.726 1.90893 163.809 1.6505 163.973C1.39206 164.114 1.19235 164.314 1.05139 164.572C0.910422 164.831 0.839939 165.124 0.839939 165.453H0.0646238C0.0646238 164.983 0.170349 164.572 0.381798 164.22C0.593248 163.844 0.886928 163.55 1.26284 163.339C1.63875 163.127 2.07339 163.021 2.56678 163.021C3.03666 163.021 3.45956 163.127 3.83547 163.339C4.21138 163.527 4.50506 163.797 4.71651 164.149C4.92796 164.502 5.03369 164.889 5.03369 165.312C5.03369 165.641 4.97495 165.947 4.85748 166.228C4.7635 166.51 4.57555 166.839 4.29361 167.215C4.03518 167.568 3.67101 168.002 3.20113 168.519L1.12187 170.845V170.88H5.28038V171.62H-0.00585938ZM9.79688 171.726C9.20952 171.726 8.69264 171.562 8.24625 171.233C7.82335 170.88 7.49443 170.387 7.25948 169.753C7.04803 169.095 6.94231 168.308 6.94231 167.391C6.94231 166.475 7.05978 165.7 7.29473 165.065C7.52967 164.408 7.85859 163.903 8.28149 163.55C8.70439 163.198 9.20952 163.021 9.79688 163.021C10.4077 163.021 10.9246 163.198 11.3475 163.55C11.7704 163.903 12.0876 164.408 12.299 165.065C12.534 165.7 12.6514 166.475 12.6514 167.391C12.6514 168.308 12.534 169.095 12.299 169.753C12.0876 170.387 11.7704 170.88 11.3475 171.233C10.9246 171.562 10.4077 171.726 9.79688 171.726ZM9.79688 171.021C10.2433 171.021 10.6192 170.88 10.9246 170.598C11.23 170.293 11.465 169.87 11.6294 169.33C11.7939 168.789 11.8761 168.143 11.8761 167.391C11.8761 166.616 11.7939 165.958 11.6294 165.418C11.465 164.878 11.23 164.466 10.9246 164.184C10.6192 163.879 10.2433 163.726 9.79688 163.726C9.37398 163.726 8.99807 163.879 8.66915 164.184C8.36372 164.466 8.12878 164.878 7.96432 165.418C7.79986 165.958 7.71762 166.616 7.71762 167.391C7.71762 168.143 7.79986 168.789 7.96432 169.33C8.12878 169.87 8.36372 170.293 8.66915 170.598C8.99807 170.88 9.37398 171.021 9.79688 171.021Z" fill="#8E9198" style="fill:#8E9198;fill:color(display-p3 0.5569 0.5686 0.5961);fill-opacity:1;"/>
<path d="M5.06542 352.032V360.525H4.29011V352.807H4.21962L2.24609 354.252V353.371L4.07866 352.032H5.06542ZM9.79716 360.63C9.2098 360.63 8.69292 360.466 8.24653 360.137C7.82363 359.785 7.4947 359.291 7.25976 358.657C7.04831 357.999 6.94259 357.212 6.94259 356.296C6.94259 355.379 7.06006 354.604 7.295 353.97C7.52995 353.312 7.85887 352.807 8.28177 352.454C8.70467 352.102 9.2098 351.926 9.79716 351.926C10.408 351.926 10.9249 352.102 11.3478 352.454C11.7707 352.807 12.0879 353.312 12.2993 353.97C12.5343 354.604 12.6517 355.379 12.6517 356.296C12.6517 357.212 12.5343 357.999 12.2993 358.657C12.0879 359.291 11.7707 359.785 11.3478 360.137C10.9249 360.466 10.408 360.63 9.79716 360.63ZM9.79716 359.926C10.2435 359.926 10.6195 359.785 10.9249 359.503C11.2303 359.197 11.4653 358.774 11.6297 358.234C11.7942 357.694 11.8764 357.048 11.8764 356.296C11.8764 355.52 11.7942 354.863 11.6297 354.322C11.4653 353.782 11.2303 353.371 10.9249 353.089C10.6195 352.783 10.2435 352.631 9.79716 352.631C9.37426 352.631 8.99835 352.783 8.66942 353.089C8.364 353.371 8.12905 353.782 7.96459 354.322C7.80013 354.863 7.7179 355.52 7.7179 356.296C7.7179 357.048 7.80013 357.694 7.96459 358.234C8.12905 358.774 8.364 359.197 8.66942 359.503C8.99835 359.785 9.37426 359.926 9.79716 359.926Z" fill="#8E9198" style="fill:#8E9198;fill:color(display-p3 0.5569 0.5686 0.5961);fill-opacity:1;"/>
<path fill-rule="evenodd" clip-rule="evenodd" d="M20.7871 168.814H28.7871V361.257H20.7871V168.814Z" fill="#DFE2E6" style="fill:#DFE2E6;fill:color(display-p3 0.8745 0.8863 0.9020);fill-opacity:1;"/>
</svg>
