<svg width="44" height="563" viewBox="0 0 44 563" fill="none" xmlns="http://www.w3.org/2000/svg">
<path fill-rule="evenodd" clip-rule="evenodd" d="M36.6602 9.58008H42.6984V562.754H36.6602V9.58008Z" fill="#F6F7F8" style="fill:#F6F7F8;fill:color(display-p3 0.9647 0.9686 0.9725);fill-opacity:1;"/>
<path d="M3.52831 9.23202C2.98794 9.23202 2.50631 9.13804 2.08341 8.95008C1.66051 8.73863 1.31984 8.4567 1.0614 8.10429C0.826456 7.75187 0.708984 7.35247 0.708984 6.90607C0.708984 6.55366 0.779468 6.22473 0.920434 5.91931C1.08489 5.61388 1.29634 5.35544 1.55478 5.14399C1.81322 4.93254 2.09515 4.79158 2.40058 4.72109V4.68585C1.97768 4.56838 1.63701 4.33344 1.37857 3.98102C1.14363 3.60511 1.02616 3.19396 1.02616 2.74756C1.02616 2.32466 1.13188 1.94875 1.34333 1.61983C1.55478 1.26742 1.84846 0.997232 2.22437 0.809276C2.62378 0.621321 3.05842 0.527344 3.52831 0.527344C3.9982 0.527344 4.4211 0.621321 4.79701 0.809276C5.19641 0.997232 5.50184 1.26742 5.71329 1.61983C5.92474 1.94875 6.03046 2.32466 6.03046 2.74756C6.03046 3.19396 5.90125 3.60511 5.64281 3.98102C5.40786 4.33344 5.07894 4.56838 4.65604 4.68585V4.72109C4.98496 4.79158 5.2669 4.93254 5.50184 5.14399C5.76028 5.35544 5.95998 5.61388 6.10095 5.91931C6.26541 6.22473 6.34764 6.55366 6.34764 6.90607C6.34764 7.35247 6.21842 7.75187 5.95998 8.10429C5.72504 8.4567 5.39612 8.73863 4.97322 8.95008C4.55032 9.13804 4.06868 9.23202 3.52831 9.23202ZM3.52831 8.52719C3.92772 8.52719 4.28013 8.4567 4.58556 8.31574C4.89099 8.17477 5.12593 7.97507 5.29039 7.71663C5.45485 7.45819 5.53708 7.17626 5.53708 6.87083C5.53708 6.51841 5.4431 6.21299 5.25515 5.95455C5.09069 5.69611 4.85575 5.48466 4.55032 5.3202C4.24489 5.15574 3.90422 5.07351 3.52831 5.07351C3.1524 5.07351 2.81173 5.15574 2.50631 5.3202C2.20088 5.48466 1.95419 5.69611 1.76623 5.95455C1.60177 6.21299 1.51954 6.51841 1.51954 6.87083C1.51954 7.17626 1.60177 7.45819 1.76623 7.71663C1.93069 7.97507 2.16564 8.17477 2.47106 8.31574C2.77649 8.4567 3.12891 8.52719 3.52831 8.52719ZM3.52831 4.40392C3.85723 4.40392 4.15091 4.33344 4.40935 4.19247C4.66779 4.0515 4.86749 3.86355 5.00846 3.6286C5.17292 3.39366 5.25515 3.11173 5.25515 2.78281C5.25515 2.47738 5.18467 2.20719 5.0437 1.97225C4.90273 1.73731 4.69128 1.5611 4.40935 1.44363C4.15091 1.30266 3.85723 1.23218 3.52831 1.23218C3.19939 1.23218 2.90571 1.30266 2.64727 1.44363C2.38883 1.5611 2.17738 1.73731 2.01292 1.97225C1.87196 2.20719 1.80147 2.47738 1.80147 2.78281C1.80147 3.11173 1.87196 3.39366 2.01292 3.6286C2.17738 3.86355 2.38883 4.0515 2.64727 4.19247C2.90571 4.33344 3.19939 4.40392 3.52831 4.40392ZM10.3775 9.23202C9.90761 9.23202 9.48471 9.13804 9.1088 8.95008C8.73289 8.76213 8.42747 8.50369 8.19252 8.17477C7.98107 7.82235 7.87535 7.42295 7.87535 6.97656H8.65066C8.67416 7.28198 8.75639 7.55217 8.89735 7.78711C9.06182 8.02206 9.27326 8.21001 9.5317 8.35098C9.79014 8.46845 10.0721 8.52719 10.3775 8.52719C10.7534 8.52719 11.0823 8.44495 11.3643 8.28049C11.6697 8.09254 11.9046 7.84585 12.0691 7.54042C12.2336 7.2115 12.3158 6.84734 12.3158 6.44793C12.3158 6.04853 12.2218 5.69611 12.0339 5.39068C11.8694 5.06176 11.6345 4.81507 11.329 4.65061C11.0471 4.46265 10.7182 4.36868 10.3423 4.36868C10.0603 4.36868 9.77839 4.41567 9.49646 4.50964C9.23802 4.60362 9.01483 4.73284 8.82687 4.8973L8.01631 4.79158L8.5097 0.633069H12.7387V1.37314H9.21453L8.86211 4.19247H8.9326C9.09706 4.02801 9.32025 3.89879 9.60219 3.80481C9.88412 3.68734 10.1778 3.6286 10.4832 3.6286C10.8591 3.6286 11.1998 3.69909 11.5052 3.84005C11.8342 3.98102 12.1161 4.18072 12.351 4.43916C12.586 4.6741 12.7739 4.96778 12.9149 5.3202C13.0559 5.64912 13.1263 6.02503 13.1263 6.44793C13.1263 6.9883 13.0089 7.46994 12.7739 7.89284C12.539 8.31574 12.2101 8.64466 11.7872 8.8796C11.3878 9.11455 10.9179 9.23202 10.3775 9.23202ZM15.2039 9.19678C15.016 9.19678 14.8633 9.13804 14.7458 9.02057C14.6283 8.9031 14.5696 8.75038 14.5696 8.56243C14.5696 8.39797 14.6283 8.257 14.7458 8.13953C14.8633 8.02206 15.016 7.96332 15.2039 7.96332C15.3684 7.96332 15.5094 8.02206 15.6268 8.13953C15.7443 8.257 15.8031 8.39797 15.8031 8.56243C15.8031 8.75038 15.7443 8.9031 15.6268 9.02057C15.5094 9.13804 15.3684 9.19678 15.2039 9.19678ZM17.7913 9.12629V8.52719L20.5754 5.42593C20.9278 5.02652 21.2097 4.68585 21.4212 4.40392C21.6326 4.12199 21.7854 3.86355 21.8793 3.6286C21.9968 3.37017 22.0555 3.11173 22.0555 2.85329C22.0555 2.52437 21.9733 2.24243 21.8089 2.00749C21.6679 1.74905 21.4682 1.5611 21.2097 1.44363C20.9513 1.30266 20.6576 1.23218 20.3287 1.23218C19.9998 1.23218 19.7061 1.31441 19.4477 1.47887C19.1892 1.61983 18.9895 1.81954 18.8486 2.07797C18.7076 2.33641 18.6371 2.63009 18.6371 2.95901H17.8618C17.8618 2.48913 17.9675 2.07797 18.179 1.72556C18.3904 1.34965 18.6841 1.05597 19.06 0.844518C19.4359 0.633069 19.8706 0.527344 20.364 0.527344C20.8338 0.527344 21.2567 0.633069 21.6326 0.844518C22.0086 1.03247 22.3022 1.30266 22.5137 1.65507C22.7251 2.00749 22.8309 2.39515 22.8309 2.81805C22.8309 3.14697 22.7721 3.4524 22.6547 3.73433C22.5607 4.01626 22.3727 4.34518 22.0908 4.72109C21.8323 5.07351 21.4682 5.50816 20.9983 6.02503L18.919 8.35098V8.38622H23.0776V9.12629H17.7913ZM27.5941 9.23202C27.0067 9.23202 26.4898 9.06756 26.0434 8.73863C25.6205 8.38622 25.2916 7.89284 25.0567 7.25849C24.8452 6.60064 24.7395 5.81358 24.7395 4.8973C24.7395 3.98102 24.857 3.2057 25.0919 2.57136C25.3268 1.91351 25.6558 1.40838 26.0787 1.05597C26.5016 0.703552 27.0067 0.527344 27.5941 0.527344C28.2049 0.527344 28.7218 0.703552 29.1447 1.05597C29.5676 1.40838 29.8848 1.91351 30.0962 2.57136C30.3311 3.2057 30.4486 3.98102 30.4486 4.8973C30.4486 5.81358 30.3311 6.60064 30.0962 7.25849C29.8848 7.89284 29.5676 8.38622 29.1447 8.73863C28.7218 9.06756 28.2049 9.23202 27.5941 9.23202ZM27.5941 8.52719C28.0404 8.52719 28.4164 8.38622 28.7218 8.10429C29.0272 7.79886 29.2622 7.37596 29.4266 6.83559C29.5911 6.29522 29.6733 5.64912 29.6733 4.8973C29.6733 4.12199 29.5911 3.46414 29.4266 2.92377C29.2622 2.3834 29.0272 1.97225 28.7218 1.69032C28.4164 1.38489 28.0404 1.23218 27.5941 1.23218C27.1712 1.23218 26.7952 1.38489 26.4663 1.69032C26.1609 1.97225 25.9259 2.3834 25.7615 2.92377C25.597 3.46414 25.5148 4.12199 25.5148 4.8973C25.5148 5.64912 25.597 6.29522 25.7615 6.83559C25.9259 7.37596 26.1609 7.79886 26.4663 8.10429C26.7952 8.38622 27.1712 8.52719 27.5941 8.52719Z" fill="#8E9198" style="fill:#8E9198;fill:color(display-p3 0.5569 0.5686 0.5961);fill-opacity:1;"/>
<path d="M11.2802 547.305C10.7398 547.305 10.2582 547.211 9.83527 547.023C9.43587 546.835 9.1187 546.577 8.88375 546.248C8.64881 545.896 8.51959 545.496 8.49609 545.05H9.30665C9.33014 545.355 9.42412 545.625 9.58858 545.86C9.77654 546.095 10.0115 546.283 10.2934 546.424C10.5753 546.542 10.9043 546.6 11.2802 546.6C11.6561 546.6 11.985 546.53 12.2669 546.389C12.5724 546.248 12.8073 546.048 12.9718 545.79C13.1597 545.531 13.2537 545.238 13.2537 544.909C13.2537 544.58 13.1597 544.286 12.9718 544.028C12.8073 543.769 12.5606 543.57 12.2317 543.429C11.9263 543.288 11.5504 543.217 11.104 543.217H10.5753V542.477H11.104C11.4564 542.477 11.7736 542.418 12.0555 542.301C12.3374 542.16 12.5606 541.972 12.7251 541.737C12.8895 541.479 12.9718 541.197 12.9718 540.891C12.9718 540.586 12.9013 540.316 12.7603 540.081C12.6194 539.822 12.4197 539.634 12.1612 539.517C11.9028 539.376 11.6091 539.305 11.2802 539.305C10.9513 539.305 10.6458 539.376 10.3639 539.517C10.1055 539.634 9.89401 539.811 9.72955 540.045C9.56509 540.257 9.48286 540.527 9.48286 540.856H8.6723C8.6958 540.41 8.82502 540.022 9.05996 539.693C9.2949 539.341 9.60033 539.07 9.97624 538.883C10.3756 538.695 10.8103 538.601 11.2802 538.601C11.7971 538.601 12.2317 538.706 12.5841 538.918C12.96 539.106 13.242 539.376 13.4299 539.728C13.6414 540.057 13.7471 540.433 13.7471 540.856C13.7471 541.326 13.6179 541.737 13.3594 542.09C13.101 542.418 12.7486 542.653 12.3022 542.794V542.865C12.6546 542.912 12.96 543.041 13.2185 543.252C13.4769 543.44 13.6766 543.675 13.8176 543.957C13.9585 544.239 14.029 544.568 14.029 544.944C14.029 545.39 13.9116 545.79 13.6766 546.142C13.4417 546.495 13.1127 546.777 12.6898 546.988C12.2904 547.2 11.8206 547.305 11.2802 547.305ZM16.1836 547.27C15.9956 547.27 15.8429 547.211 15.7254 547.094C15.608 546.976 15.5492 546.824 15.5492 546.636C15.5492 546.471 15.608 546.33 15.7254 546.213C15.8429 546.095 15.9956 546.037 16.1836 546.037C16.348 546.037 16.489 546.095 16.6065 546.213C16.724 546.33 16.7827 546.471 16.7827 546.636C16.7827 546.824 16.724 546.976 16.6065 547.094C16.489 547.211 16.348 547.27 16.1836 547.27ZM18.8524 547.2L22.7289 539.482V539.446H18.2533V538.706H23.5747V539.482L19.6982 547.2H18.8524ZM27.5939 547.305C27.0065 547.305 26.4896 547.141 26.0432 546.812C25.6203 546.459 25.2914 545.966 25.0565 545.332C24.845 544.674 24.7393 543.887 24.7393 542.971C24.7393 542.054 24.8568 541.279 25.0917 540.645C25.3267 539.987 25.6556 539.482 26.0785 539.129C26.5014 538.777 27.0065 538.601 27.5939 538.601C28.2047 538.601 28.7216 538.777 29.1445 539.129C29.5674 539.482 29.8846 539.987 30.096 540.645C30.331 541.279 30.4484 542.054 30.4484 542.971C30.4484 543.887 30.331 544.674 30.096 545.332C29.8846 545.966 29.5674 546.459 29.1445 546.812C28.7216 547.141 28.2047 547.305 27.5939 547.305ZM27.5939 546.6C28.0403 546.6 28.4162 546.459 28.7216 546.178C29.027 545.872 29.262 545.449 29.4264 544.909C29.5909 544.368 29.6731 543.722 29.6731 542.971C29.6731 542.195 29.5909 541.537 29.4264 540.997C29.262 540.457 29.027 540.045 28.7216 539.764C28.4162 539.458 28.0403 539.305 27.5939 539.305C27.171 539.305 26.7951 539.458 26.4661 539.764C26.1607 540.045 25.9258 540.457 25.7613 540.997C25.5968 541.537 25.5146 542.195 25.5146 542.971C25.5146 543.722 25.5968 544.368 25.7613 544.909C25.9258 545.449 26.1607 545.872 26.4661 546.178C26.7951 546.459 27.171 546.6 27.5939 546.6Z" fill="#8E9198" style="fill:#8E9198;fill:color(display-p3 0.5569 0.5686 0.5961);fill-opacity:1;"/>
<path fill-rule="evenodd" clip-rule="evenodd" d="M35.6602 9.38086H43.6602V538.686H35.6602V9.38086Z" fill="#DFE2E6" style="fill:#DFE2E6;fill:color(display-p3 0.8745 0.8863 0.9020);fill-opacity:1;"/>
</svg>
