<svg width="55" height="583" viewBox="0 0 55 583" fill="none" xmlns="http://www.w3.org/2000/svg">
<rect opacity="0.2" width="54.5668" height="582.62" fill="white" style="fill:white;fill-opacity:1;"/>
<path fill-rule="evenodd" clip-rule="evenodd" d="M38.561 14.7097H44.5993V567.91H38.561V14.7097Z" fill="#F6F7F8" style="fill:#F6F7F8;fill:color(display-p3 0.9647 0.9686 0.9725);fill-opacity:1;"/>
<path d="M5.42913 31.0095C4.88876 31.0095 4.40712 30.9155 3.98422 30.7275C3.56133 30.5161 3.22066 30.2342 2.96222 29.8817C2.72727 29.5293 2.6098 29.1299 2.6098 28.6835C2.6098 28.3311 2.68029 28.0022 2.82125 27.6968C2.98571 27.3913 3.19716 27.1329 3.4556 26.9214C3.71404 26.71 3.99597 26.569 4.3014 26.4985V26.4633C3.8785 26.3458 3.53783 26.1109 3.27939 25.7585C3.04445 25.3826 2.92698 24.9714 2.92698 24.525C2.92698 24.1021 3.0327 23.7262 3.24415 23.3973C3.4556 23.0449 3.74928 22.7747 4.12519 22.5867C4.5246 22.3988 4.95924 22.3048 5.42913 22.3048C5.89902 22.3048 6.32192 22.3988 6.69783 22.5867C7.09723 22.7747 7.40266 23.0449 7.61411 23.3973C7.82556 23.7262 7.93128 24.1021 7.93128 24.525C7.93128 24.9714 7.80206 25.3826 7.54363 25.7585C7.30868 26.1109 6.97976 26.3458 6.55686 26.4633V26.4985C6.88578 26.569 7.16771 26.71 7.40266 26.9214C7.6611 27.1329 7.8608 27.3913 8.00177 27.6968C8.16623 28.0022 8.24846 28.3311 8.24846 28.6835C8.24846 29.1299 8.11924 29.5293 7.8608 29.8817C7.62586 30.2342 7.29693 30.5161 6.87403 30.7275C6.45114 30.9155 5.9695 31.0095 5.42913 31.0095ZM5.42913 30.3046C5.82853 30.3046 6.18095 30.2342 6.48638 30.0932C6.7918 29.9522 7.02675 29.7525 7.19121 29.4941C7.35567 29.2356 7.4379 28.9537 7.4379 28.6483C7.4379 28.2959 7.34392 27.9904 7.15597 27.732C6.99151 27.4736 6.75656 27.2621 6.45114 27.0977C6.14571 26.9332 5.80504 26.851 5.42913 26.851C5.05322 26.851 4.71255 26.9332 4.40712 27.0977C4.1017 27.2621 3.85501 27.4736 3.66705 27.732C3.50259 27.9904 3.42036 28.2959 3.42036 28.6483C3.42036 28.9537 3.50259 29.2356 3.66705 29.4941C3.83151 29.7525 4.06645 29.9522 4.37188 30.0932C4.67731 30.2342 5.02972 30.3046 5.42913 30.3046ZM5.42913 26.1814C5.75805 26.1814 6.05173 26.1109 6.31017 25.9699C6.56861 25.829 6.76831 25.641 6.90928 25.4061C7.07374 25.1711 7.15597 24.8892 7.15597 24.5603C7.15597 24.2548 7.08548 23.9846 6.94452 23.7497C6.80355 23.5148 6.5921 23.3386 6.31017 23.2211C6.05173 23.0801 5.75805 23.0096 5.42913 23.0096C5.10021 23.0096 4.80653 23.0801 4.54809 23.2211C4.28965 23.3386 4.0782 23.5148 3.91374 23.7497C3.77277 23.9846 3.70229 24.2548 3.70229 24.5603C3.70229 24.8892 3.77277 25.1711 3.91374 25.4061C4.0782 25.641 4.28965 25.829 4.54809 25.9699C4.80653 26.1109 5.10021 26.1814 5.42913 26.1814ZM12.2783 31.0095C11.8084 31.0095 11.3855 30.9155 11.0096 30.7275C10.6337 30.5396 10.3283 30.2811 10.0933 29.9522C9.88189 29.5998 9.77617 29.2004 9.77617 28.754H10.5515C10.575 29.0594 10.6572 29.3296 10.7982 29.5646C10.9626 29.7995 11.1741 29.9875 11.4325 30.1284C11.691 30.2459 11.9729 30.3046 12.2783 30.3046C12.6542 30.3046 12.9832 30.2224 13.2651 30.0579C13.5705 29.87 13.8055 29.6233 13.9699 29.3179C14.1344 28.989 14.2166 28.6248 14.2166 28.2254C14.2166 27.826 14.1226 27.4736 13.9347 27.1681C13.7702 26.8392 13.5353 26.5925 13.2298 26.4281C12.9479 26.2401 12.619 26.1461 12.2431 26.1461C11.9611 26.1461 11.6792 26.1931 11.3973 26.2871C11.1388 26.3811 10.9156 26.5103 10.7277 26.6748L9.91713 26.569L10.4105 22.4105H14.6395V23.1506H11.1153L10.7629 25.9699H10.8334C10.9979 25.8055 11.2211 25.6762 11.503 25.5823C11.7849 25.4648 12.0786 25.4061 12.384 25.4061C12.76 25.4061 13.1006 25.4765 13.4061 25.6175C13.735 25.7585 14.0169 25.9582 14.2518 26.2166C14.4868 26.4516 14.6747 26.7452 14.8157 27.0977C14.9567 27.4266 15.0272 27.8025 15.0272 28.2254C15.0272 28.7658 14.9097 29.2474 14.6747 29.6703C14.4398 30.0932 14.1109 30.4221 13.688 30.6571C13.2886 30.892 12.8187 31.0095 12.2783 31.0095ZM17.1048 30.9742C16.9168 30.9742 16.7641 30.9155 16.6466 30.798C16.5292 30.6805 16.4704 30.5278 16.4704 30.3399C16.4704 30.1754 16.5292 30.0345 16.6466 29.917C16.7641 29.7995 16.9168 29.7408 17.1048 29.7408C17.2692 29.7408 17.4102 29.7995 17.5277 29.917C17.6451 30.0345 17.7039 30.1754 17.7039 30.3399C17.7039 30.5278 17.6451 30.6805 17.5277 30.798C17.4102 30.9155 17.2692 30.9742 17.1048 30.9742ZM19.6921 30.9037V30.3046L22.4762 27.2034C22.8286 26.804 23.1106 26.4633 23.322 26.1814C23.5335 25.8994 23.6862 25.641 23.7802 25.4061C23.8976 25.1476 23.9564 24.8892 23.9564 24.6307C23.9564 24.3018 23.8741 24.0199 23.7097 23.7849C23.5687 23.5265 23.369 23.3386 23.1106 23.2211C22.8521 23.0801 22.5584 23.0096 22.2295 23.0096C21.9006 23.0096 21.6069 23.0919 21.3485 23.2563C21.09 23.3973 20.8903 23.597 20.7494 23.8554C20.6084 24.1139 20.5379 24.4075 20.5379 24.7365H19.7626C19.7626 24.2666 19.8683 23.8554 20.0798 23.503C20.2912 23.1271 20.5849 22.8334 20.9608 22.622C21.3367 22.4105 21.7714 22.3048 22.2648 22.3048C22.7347 22.3048 23.1576 22.4105 23.5335 22.622C23.9094 22.8099 24.2031 23.0801 24.4145 23.4325C24.626 23.7849 24.7317 24.1726 24.7317 24.5955C24.7317 24.9244 24.6729 25.2299 24.5555 25.5118C24.4615 25.7937 24.2735 26.1226 23.9916 26.4985C23.7332 26.851 23.369 27.2856 22.8991 27.8025L20.8199 30.1284V30.1637H24.9784V30.9037H19.6921ZM29.4949 31.0095C28.9075 31.0095 28.3906 30.845 27.9442 30.5161C27.5213 30.1637 27.1924 29.6703 26.9575 29.0359C26.746 28.3781 26.6403 27.591 26.6403 26.6748C26.6403 25.7585 26.7578 24.9832 26.9927 24.3488C27.2277 23.691 27.5566 23.1858 27.9795 22.8334C28.4024 22.481 28.9075 22.3048 29.4949 22.3048C30.1057 22.3048 30.6226 22.481 31.0455 22.8334C31.4684 23.1858 31.7856 23.691 31.997 24.3488C32.232 24.9832 32.3494 25.7585 32.3494 26.6748C32.3494 27.591 32.232 28.3781 31.997 29.0359C31.7856 29.6703 31.4684 30.1637 31.0455 30.5161C30.6226 30.845 30.1057 31.0095 29.4949 31.0095ZM29.4949 30.3046C29.9413 30.3046 30.3172 30.1637 30.6226 29.8817C30.928 29.5763 31.163 29.1534 31.3274 28.613C31.4919 28.0727 31.5741 27.4266 31.5741 26.6748C31.5741 25.8994 31.4919 25.2416 31.3274 24.7012C31.163 24.1609 30.928 23.7497 30.6226 23.4678C30.3172 23.1623 29.9413 23.0096 29.4949 23.0096C29.072 23.0096 28.6961 23.1623 28.3671 23.4678C28.0617 23.7497 27.8268 24.1609 27.6623 24.7012C27.4978 25.2416 27.4156 25.8994 27.4156 26.6748C27.4156 27.4266 27.4978 28.0727 27.6623 28.613C27.8268 29.1534 28.0617 29.5763 28.3671 29.8817C28.6961 30.1637 29.072 30.3046 29.4949 30.3046Z" fill="#8E9198" style="fill:#8E9198;fill:color(display-p3 0.5569 0.5686 0.5961);fill-opacity:1;"/>
<path d="M13.181 560.315C12.6406 560.315 12.159 560.221 11.7361 560.033C11.3367 559.845 11.0195 559.587 10.7846 559.258C10.5496 558.905 10.4204 558.506 10.3969 558.059H11.2075C11.231 558.365 11.3249 558.635 11.4894 558.87C11.6774 559.105 11.9123 559.293 12.1942 559.434C12.4762 559.551 12.8051 559.61 13.181 559.61C13.5569 559.61 13.8858 559.54 14.1678 559.399C14.4732 559.258 14.7081 559.058 14.8726 558.799C15.0605 558.541 15.1545 558.247 15.1545 557.918C15.1545 557.589 15.0605 557.296 14.8726 557.037C14.7081 556.779 14.4614 556.579 14.1325 556.438C13.8271 556.297 13.4512 556.227 13.0048 556.227H12.4762V555.487H13.0048C13.3572 555.487 13.6744 555.428 13.9563 555.311C14.2382 555.17 14.4614 554.982 14.6259 554.747C14.7904 554.488 14.8726 554.206 14.8726 553.901C14.8726 553.595 14.8021 553.325 14.6611 553.09C14.5202 552.832 14.3205 552.644 14.062 552.526C13.8036 552.385 13.5099 552.315 13.181 552.315C12.8521 552.315 12.5466 552.385 12.2647 552.526C12.0063 552.644 11.7948 552.82 11.6304 553.055C11.4659 553.267 11.3837 553.537 11.3837 553.866H10.5731C10.5966 553.419 10.7258 553.032 10.9608 552.703C11.1957 552.35 11.5011 552.08 11.8771 551.892C12.2765 551.704 12.7111 551.61 13.181 551.61C13.6979 551.61 14.1325 551.716 14.4849 551.927C14.8608 552.115 15.1428 552.385 15.3307 552.738C15.5422 553.067 15.6479 553.443 15.6479 553.866C15.6479 554.336 15.5187 554.747 15.2603 555.099C15.0018 555.428 14.6494 555.663 14.203 555.804V555.874C14.5554 555.921 14.8608 556.051 15.1193 556.262C15.3777 556.45 15.5774 556.685 15.7184 556.967C15.8594 557.249 15.9298 557.578 15.9298 557.954C15.9298 558.4 15.8124 558.799 15.5774 559.152C15.3425 559.504 15.0136 559.786 14.5907 559.998C14.1913 560.209 13.7214 560.315 13.181 560.315ZM18.0844 560.28C17.8964 560.28 17.7437 560.221 17.6263 560.103C17.5088 559.986 17.45 559.833 17.45 559.645C17.45 559.481 17.5088 559.34 17.6263 559.222C17.7437 559.105 17.8964 559.046 18.0844 559.046C18.2489 559.046 18.3898 559.105 18.5073 559.222C18.6248 559.34 18.6835 559.481 18.6835 559.645C18.6835 559.833 18.6248 559.986 18.5073 560.103C18.3898 560.221 18.2489 560.28 18.0844 560.28ZM20.7532 560.209L24.6298 552.491V552.456H20.1541V551.716H25.4756V552.491L21.599 560.209H20.7532ZM29.4947 560.315C28.9073 560.315 28.3905 560.15 27.9441 559.821C27.5212 559.469 27.1922 558.976 26.9573 558.341C26.7458 557.683 26.6401 556.896 26.6401 555.98C26.6401 555.064 26.7576 554.289 26.9925 553.654C27.2275 552.996 27.5564 552.491 27.9793 552.139C28.4022 551.786 28.9073 551.61 29.4947 551.61C30.1055 551.61 30.6224 551.786 31.0453 552.139C31.4682 552.491 31.7854 552.996 31.9968 553.654C32.2318 554.289 32.3493 555.064 32.3493 555.98C32.3493 556.896 32.2318 557.683 31.9968 558.341C31.7854 558.976 31.4682 559.469 31.0453 559.821C30.6224 560.15 30.1055 560.315 29.4947 560.315ZM29.4947 559.61C29.9411 559.61 30.317 559.469 30.6224 559.187C30.9278 558.882 31.1628 558.459 31.3273 557.918C31.4917 557.378 31.5739 556.732 31.5739 555.98C31.5739 555.205 31.4917 554.547 31.3273 554.007C31.1628 553.466 30.9278 553.055 30.6224 552.773C30.317 552.468 29.9411 552.315 29.4947 552.315C29.0718 552.315 28.6959 552.468 28.367 552.773C28.0615 553.055 27.8266 553.466 27.6621 554.007C27.4977 554.547 27.4154 555.205 27.4154 555.98C27.4154 556.732 27.4977 557.378 27.6621 557.918C27.8266 558.459 28.0615 558.882 28.367 559.187C28.6959 559.469 29.0718 559.61 29.4947 559.61Z" fill="#8E9198" style="fill:#8E9198;fill:color(display-p3 0.5569 0.5686 0.5961);fill-opacity:1;"/>
<path fill-rule="evenodd" clip-rule="evenodd" d="M37.561 26.6571H45.561V555.962H37.561V26.6571Z" fill="#DFE2E6" style="fill:#DFE2E6;fill:color(display-p3 0.8745 0.8863 0.9020);fill-opacity:1;"/>
</svg>
