<svg width="67" height="581" viewBox="0 0 67 581" fill="none" xmlns="http://www.w3.org/2000/svg">
<path fill-rule="evenodd" clip-rule="evenodd" d="M54.7871 14.5625H60.8253V567.737H54.7871V14.5625Z" fill="#F6F7F8" style="fill:#F6F7F8;fill:color(display-p3 0.9647 0.9686 0.9725);fill-opacity:1;"/>
<path d="M32.9941 185.62V185.021L35.7782 181.92C36.1306 181.521 36.4126 181.18 36.624 180.898C36.8355 180.616 36.9882 180.358 37.0822 180.123C37.1996 179.864 37.2584 179.606 37.2584 179.347C37.2584 179.019 37.1761 178.737 37.0117 178.502C36.8707 178.243 36.671 178.055 36.4126 177.938C36.1541 177.797 35.8605 177.726 35.5315 177.726C35.2026 177.726 34.9089 177.809 34.6505 177.973C34.3921 178.114 34.1924 178.314 34.0514 178.572C33.9104 178.831 33.8399 179.124 33.8399 179.453H33.0646C33.0646 178.983 33.1703 178.572 33.3818 178.22C33.5932 177.844 33.8869 177.55 34.2628 177.339C34.6387 177.127 35.0734 177.021 35.5668 177.021C36.0367 177.021 36.4596 177.127 36.8355 177.339C37.2114 177.527 37.5051 177.797 37.7165 178.149C37.928 178.502 38.0337 178.889 38.0337 179.312C38.0337 179.641 37.975 179.947 37.8575 180.228C37.7635 180.51 37.5755 180.839 37.2936 181.215C37.0352 181.568 36.671 182.002 36.2011 182.519L34.1219 184.845V184.88H38.2804V185.62H32.9941ZM42.7969 185.726C42.2095 185.726 41.6926 185.562 41.2462 185.233C40.8233 184.88 40.4944 184.387 40.2595 183.753C40.048 183.095 39.9423 182.308 39.9423 181.391C39.9423 180.475 40.0598 179.7 40.2947 179.065C40.5297 178.408 40.8586 177.903 41.2815 177.55C41.7044 177.198 42.2095 177.021 42.7969 177.021C43.4077 177.021 43.9246 177.198 44.3475 177.55C44.7704 177.903 45.0876 178.408 45.299 179.065C45.534 179.7 45.6514 180.475 45.6514 181.391C45.6514 182.308 45.534 183.095 45.299 183.753C45.0876 184.387 44.7704 184.88 44.3475 185.233C43.9246 185.562 43.4077 185.726 42.7969 185.726ZM42.7969 185.021C43.2433 185.021 43.6192 184.88 43.9246 184.598C44.23 184.293 44.465 183.87 44.6294 183.33C44.7939 182.789 44.8761 182.143 44.8761 181.391C44.8761 180.616 44.7939 179.958 44.6294 179.418C44.465 178.878 44.23 178.466 43.9246 178.184C43.6192 177.879 43.2433 177.726 42.7969 177.726C42.374 177.726 41.9981 177.879 41.6691 178.184C41.3637 178.466 41.1288 178.878 40.9643 179.418C40.7999 179.958 40.7176 180.616 40.7176 181.391C40.7176 182.143 40.7999 182.789 40.9643 183.33C41.1288 183.87 41.3637 184.293 41.6691 184.598C41.9981 184.88 42.374 185.021 42.7969 185.021Z" fill="#8E9198" style="fill:#8E9198;fill:color(display-p3 0.5569 0.5686 0.5961);fill-opacity:1;"/>
<path d="M38.0654 366.032V374.525H37.2901V366.807H37.2196L35.2461 368.252V367.371L37.0787 366.032H38.0654ZM42.7972 374.63C42.2098 374.63 41.6929 374.466 41.2465 374.137C40.8236 373.785 40.4947 373.291 40.2598 372.657C40.0483 371.999 39.9426 371.212 39.9426 370.296C39.9426 369.379 40.0601 368.604 40.295 367.97C40.5299 367.312 40.8589 366.807 41.2818 366.454C41.7047 366.102 42.2098 365.926 42.7972 365.926C43.408 365.926 43.9249 366.102 44.3478 366.454C44.7707 366.807 45.0879 367.312 45.2993 367.97C45.5343 368.604 45.6517 369.379 45.6517 370.296C45.6517 371.212 45.5343 371.999 45.2993 372.657C45.0879 373.291 44.7707 373.785 44.3478 374.137C43.9249 374.466 43.408 374.63 42.7972 374.63ZM42.7972 373.926C43.2435 373.926 43.6195 373.785 43.9249 373.503C44.2303 373.197 44.4653 372.774 44.6297 372.234C44.7942 371.694 44.8764 371.048 44.8764 370.296C44.8764 369.52 44.7942 368.863 44.6297 368.322C44.4653 367.782 44.2303 367.371 43.9249 367.089C43.6195 366.783 43.2435 366.631 42.7972 366.631C42.3743 366.631 41.9983 366.783 41.6694 367.089C41.364 367.371 41.1291 367.782 40.9646 368.322C40.8001 368.863 40.7179 369.52 40.7179 370.296C40.7179 371.048 40.8001 371.694 40.9646 372.234C41.1291 372.774 41.364 373.197 41.6694 373.503C41.9983 373.785 42.3743 373.926 42.7972 373.926Z" fill="#8E9198" style="fill:#8E9198;fill:color(display-p3 0.5569 0.5686 0.5961);fill-opacity:1;"/>
<path fill-rule="evenodd" clip-rule="evenodd" d="M53.7871 182.814H61.7871V375.257H53.7871V182.814Z" fill="#DFE2E6" style="fill:#DFE2E6;fill:color(display-p3 0.8745 0.8863 0.9020);fill-opacity:1;"/>
</svg>
