<svg width="68" height="581" viewBox="0 0 68 581" fill="none" xmlns="http://www.w3.org/2000/svg">
<path fill-rule="evenodd" clip-rule="evenodd" d="M55.3477 14.5801H61.3859V567.683H55.3477V14.5801Z" fill="#F6F7F8" style="fill:#F6F7F8;fill:color(display-p3 0.9647 0.9686 0.9725);fill-opacity:1;"/>
<path d="M23.542 154.74V163.234H22.7667V155.516H22.6962L20.7227 156.961V156.08L22.5552 154.74H23.542ZM27.9566 163.339C27.4867 163.339 27.0638 163.245 26.6879 163.058C26.312 162.87 26.0066 162.611 25.7716 162.282C25.5602 161.93 25.4545 161.53 25.4545 161.084H26.2298C26.2533 161.389 26.3355 161.66 26.4765 161.895C26.6409 162.129 26.8524 162.317 27.1108 162.458C27.3693 162.576 27.6512 162.635 27.9566 162.635C28.3325 162.635 28.6614 162.552 28.9434 162.388C29.2488 162.2 29.4837 161.953 29.6482 161.648C29.8127 161.319 29.8949 160.955 29.8949 160.555C29.8949 160.156 29.8009 159.804 29.613 159.498C29.4485 159.169 29.2136 158.922 28.9081 158.758C28.6262 158.57 28.2973 158.476 27.9214 158.476C27.6394 158.476 27.3575 158.523 27.0756 158.617C26.8171 158.711 26.5939 158.84 26.406 159.005L25.5954 158.899L26.0888 154.74H30.3178V155.481H26.7936L26.4412 158.3H26.5117C26.6762 158.135 26.8994 158.006 27.1813 157.912C27.4632 157.795 27.7569 157.736 28.0623 157.736C28.4382 157.736 28.7789 157.807 29.0843 157.947C29.4133 158.088 29.6952 158.288 29.9301 158.547C30.1651 158.782 30.353 159.075 30.494 159.428C30.635 159.757 30.7055 160.132 30.7055 160.555C30.7055 161.096 30.588 161.577 30.353 162C30.1181 162.423 29.7892 162.752 29.3663 162.987C28.9669 163.222 28.497 163.339 27.9566 163.339ZM32.7831 163.304C32.5951 163.304 32.4424 163.245 32.3249 163.128C32.2074 163.011 32.1487 162.858 32.1487 162.67C32.1487 162.505 32.2074 162.364 32.3249 162.247C32.4424 162.129 32.5951 162.071 32.7831 162.071C32.9475 162.071 33.0885 162.129 33.206 162.247C33.3234 162.364 33.3822 162.505 33.3822 162.67C33.3822 162.858 33.3234 163.011 33.206 163.128C33.0885 163.245 32.9475 163.304 32.7831 163.304ZM35.4519 163.234L39.3284 155.516V155.481H34.8527V154.74H40.1742V155.516L36.2977 163.234H35.4519ZM44.1934 163.339C43.606 163.339 43.0891 163.175 42.6427 162.846C42.2198 162.494 41.8909 162 41.656 161.366C41.4445 160.708 41.3388 159.921 41.3388 159.005C41.3388 158.088 41.4563 157.313 41.6912 156.679C41.9261 156.021 42.2551 155.516 42.678 155.163C43.1009 154.811 43.606 154.635 44.1934 154.635C44.8042 154.635 45.3211 154.811 45.744 155.163C46.1669 155.516 46.4841 156.021 46.6955 156.679C46.9304 157.313 47.0479 158.088 47.0479 159.005C47.0479 159.921 46.9304 160.708 46.6955 161.366C46.4841 162 46.1669 162.494 45.744 162.846C45.3211 163.175 44.8042 163.339 44.1934 163.339ZM44.1934 162.635C44.6397 162.635 45.0157 162.494 45.3211 162.212C45.6265 161.906 45.8615 161.483 46.0259 160.943C46.1904 160.403 46.2726 159.757 46.2726 159.005C46.2726 158.229 46.1904 157.572 46.0259 157.031C45.8615 156.491 45.6265 156.08 45.3211 155.798C45.0157 155.492 44.6397 155.34 44.1934 155.34C43.7705 155.34 43.3945 155.492 43.0656 155.798C42.7602 156.08 42.5252 156.491 42.3608 157.031C42.1963 157.572 42.1141 158.229 42.1141 159.005C42.1141 159.757 42.1963 160.403 42.3608 160.943C42.5252 161.483 42.7602 161.906 43.0656 162.212C43.3945 162.494 43.7705 162.635 44.1934 162.635Z" fill="#8E9198" style="fill:#8E9198;fill:color(display-p3 0.5569 0.5686 0.5961);fill-opacity:1;"/>
<path d="M27.4853 404.563C27.1329 404.563 26.7923 404.493 26.4633 404.352C26.1344 404.211 25.829 403.987 25.5471 403.682C25.2886 403.377 25.0772 402.965 24.9127 402.449C24.7482 401.932 24.666 401.309 24.666 400.581C24.666 399.876 24.7248 399.242 24.8422 398.678C24.9832 398.09 25.1711 397.597 25.4061 397.198C25.641 396.775 25.9465 396.446 26.3224 396.211C26.6983 395.976 27.1329 395.858 27.6263 395.858C28.0727 395.858 28.4721 395.952 28.8245 396.14C29.1769 396.328 29.4589 396.598 29.6703 396.951C29.9053 397.28 30.0462 397.667 30.0932 398.114H29.3179C29.2239 397.667 29.036 397.303 28.754 397.021C28.4721 396.716 28.0962 396.563 27.6263 396.563C27.1564 396.563 26.757 396.716 26.4281 397.021C26.0992 397.303 25.8525 397.726 25.688 398.29C25.5236 398.83 25.4413 399.488 25.4413 400.264H25.5118C25.6293 400.005 25.7937 399.794 26.0052 399.629C26.2401 399.441 26.4868 399.3 26.7453 399.206C27.0272 399.089 27.3209 399.03 27.6263 399.03C28.0962 399.03 28.5191 399.148 28.895 399.383C29.2944 399.618 29.6116 399.946 29.8465 400.369C30.0815 400.792 30.1989 401.262 30.1989 401.779C30.1989 402.296 30.0815 402.766 29.8465 403.189C29.6351 403.612 29.3179 403.952 28.895 404.211C28.4956 404.446 28.0257 404.563 27.4853 404.563ZM27.4853 403.858C27.8613 403.858 28.1902 403.764 28.4721 403.576C28.754 403.388 28.9772 403.142 29.1417 402.836C29.3297 402.507 29.4236 402.155 29.4236 401.779C29.4236 401.403 29.3297 401.062 29.1417 400.757C28.9772 400.452 28.754 400.205 28.4721 400.017C28.1902 399.829 27.8613 399.735 27.4853 399.735C27.2034 399.735 26.945 399.794 26.71 399.911C26.4751 400.029 26.2636 400.193 26.0757 400.405C25.9112 400.593 25.782 400.816 25.688 401.074C25.594 401.309 25.5588 401.556 25.5823 401.814C25.6058 402.214 25.6998 402.566 25.8642 402.871C26.0522 403.177 26.2871 403.424 26.5691 403.612C26.851 403.776 27.1564 403.858 27.4853 403.858ZM32.2064 404.528C32.0185 404.528 31.8657 404.469 31.7483 404.352C31.6308 404.234 31.5721 404.081 31.5721 403.893C31.5721 403.729 31.6308 403.588 31.7483 403.471C31.8657 403.353 32.0185 403.294 32.2064 403.294C32.3709 403.294 32.5118 403.353 32.6293 403.471C32.7468 403.588 32.8055 403.729 32.8055 403.893C32.8055 404.081 32.7468 404.234 32.6293 404.352C32.5118 404.469 32.3709 404.528 32.2064 404.528ZM37.0883 404.563C36.5479 404.563 36.0663 404.469 35.6434 404.281C35.244 404.093 34.9268 403.835 34.6918 403.506C34.4569 403.153 34.3277 402.754 34.3042 402.308H35.1147C35.1382 402.613 35.2322 402.883 35.3967 403.118C35.5846 403.353 35.8196 403.541 36.1015 403.682C36.3834 403.8 36.7124 403.858 37.0883 403.858C37.4642 403.858 37.7931 403.788 38.075 403.647C38.3805 403.506 38.6154 403.306 38.7799 403.048C38.9678 402.789 39.0618 402.496 39.0618 402.167C39.0618 401.838 38.9678 401.544 38.7799 401.286C38.6154 401.027 38.3687 400.827 38.0398 400.686C37.7344 400.546 37.3584 400.475 36.9121 400.475H36.3834V399.735H36.9121C37.2645 399.735 37.5816 399.676 37.8636 399.559C38.1455 399.418 38.3687 399.23 38.5332 398.995C38.6976 398.736 38.7799 398.455 38.7799 398.149C38.7799 397.844 38.7094 397.573 38.5684 397.339C38.4274 397.08 38.2277 396.892 37.9693 396.775C37.7109 396.634 37.4172 396.563 37.0883 396.563C36.7593 396.563 36.4539 396.634 36.172 396.775C35.9135 396.892 35.7021 397.068 35.5376 397.303C35.3732 397.515 35.2909 397.785 35.2909 398.114H34.4804C34.5039 397.667 34.6331 397.28 34.868 396.951C35.103 396.598 35.4084 396.328 35.7843 396.14C36.1837 395.952 36.6184 395.858 37.0883 395.858C37.6051 395.858 38.0398 395.964 38.3922 396.176C38.7681 396.364 39.05 396.634 39.238 396.986C39.4495 397.315 39.5552 397.691 39.5552 398.114C39.5552 398.584 39.426 398.995 39.1675 399.347C38.9091 399.676 38.5567 399.911 38.1103 400.052V400.123C38.4627 400.17 38.7681 400.299 39.0266 400.51C39.285 400.698 39.4847 400.933 39.6257 401.215C39.7666 401.497 39.8371 401.826 39.8371 402.202C39.8371 402.648 39.7196 403.048 39.4847 403.4C39.2497 403.753 38.9208 404.034 38.4979 404.246C38.0985 404.457 37.6286 404.563 37.0883 404.563ZM44.192 404.563C43.6046 404.563 43.0878 404.399 42.6414 404.07C42.2185 403.717 41.8895 403.224 41.6546 402.59C41.4431 401.932 41.3374 401.145 41.3374 400.228C41.3374 399.312 41.4549 398.537 41.6898 397.902C41.9248 397.245 42.2537 396.739 42.6766 396.387C43.0995 396.035 43.6046 395.858 44.192 395.858C44.8028 395.858 45.3197 396.035 45.7426 396.387C46.1655 396.739 46.4827 397.245 46.6941 397.902C46.9291 398.537 47.0466 399.312 47.0466 400.228C47.0466 401.145 46.9291 401.932 46.6941 402.59C46.4827 403.224 46.1655 403.717 45.7426 404.07C45.3197 404.399 44.8028 404.563 44.192 404.563ZM44.192 403.858C44.6384 403.858 45.0143 403.717 45.3197 403.435C45.6251 403.13 45.8601 402.707 46.0246 402.167C46.189 401.626 46.2712 400.98 46.2712 400.228C46.2712 399.453 46.189 398.795 46.0246 398.255C45.8601 397.714 45.6251 397.303 45.3197 397.021C45.0143 396.716 44.6384 396.563 44.192 396.563C43.7691 396.563 43.3932 396.716 43.0643 397.021C42.7588 397.303 42.5239 397.714 42.3594 398.255C42.195 398.795 42.1127 399.453 42.1127 400.228C42.1127 400.98 42.195 401.626 42.3594 402.167C42.5239 402.707 42.7588 403.13 43.0643 403.435C43.3932 403.717 43.7691 403.858 44.192 403.858Z" fill="#8E9198" style="fill:#8E9198;fill:color(display-p3 0.5569 0.5686 0.5961);fill-opacity:1;"/>
<path fill-rule="evenodd" clip-rule="evenodd" d="M54.3477 155.695H62.3477V402.411H54.3477V155.695Z" fill="#DFE2E6" style="fill:#DFE2E6;fill:color(display-p3 0.8745 0.8863 0.9020);fill-opacity:1;"/>
</svg>
