<svg width="68" height="581" viewBox="0 0 68 581" fill="none" xmlns="http://www.w3.org/2000/svg">
<path fill-rule="evenodd" clip-rule="evenodd" d="M53.6602 14.5801H59.6984V567.754H53.6602V14.5801Z" fill="#F6F7F8" style="fill:#F6F7F8;fill:color(display-p3 0.9647 0.9686 0.9725);fill-opacity:1;"/>
<path d="M20.5283 14.232C19.9879 14.232 19.5063 14.138 19.0834 13.9501C18.6605 13.7386 18.3198 13.4567 18.0614 13.1043C17.8265 12.7519 17.709 12.3525 17.709 11.9061C17.709 11.5537 17.7795 11.2247 17.9204 10.9193C18.0849 10.6139 18.2963 10.3554 18.5548 10.144C18.8132 9.93254 19.0952 9.79158 19.4006 9.72109V9.68585C18.9777 9.56838 18.637 9.33344 18.3786 8.98102C18.1436 8.60511 18.0262 8.19396 18.0262 7.74756C18.0262 7.32466 18.1319 6.94875 18.3433 6.61983C18.5548 6.26742 18.8485 5.99723 19.2244 5.80928C19.6238 5.62132 20.0584 5.52734 20.5283 5.52734C20.9982 5.52734 21.4211 5.62132 21.797 5.80928C22.1964 5.99723 22.5018 6.26742 22.7133 6.61983C22.9247 6.94875 23.0305 7.32466 23.0305 7.74756C23.0305 8.19396 22.9012 8.60511 22.6428 8.98102C22.4079 9.33344 22.0789 9.56838 21.656 9.68585V9.72109C21.985 9.79158 22.2669 9.93254 22.5018 10.144C22.7603 10.3554 22.96 10.6139 23.1009 10.9193C23.2654 11.2247 23.3476 11.5537 23.3476 11.9061C23.3476 12.3525 23.2184 12.7519 22.96 13.1043C22.725 13.4567 22.3961 13.7386 21.9732 13.9501C21.5503 14.138 21.0687 14.232 20.5283 14.232ZM20.5283 13.5272C20.9277 13.5272 21.2801 13.4567 21.5856 13.3157C21.891 13.1748 22.1259 12.9751 22.2904 12.7166C22.4549 12.4582 22.5371 12.1763 22.5371 11.8708C22.5371 11.5184 22.4431 11.213 22.2551 10.9545C22.0907 10.6961 21.8557 10.4847 21.5503 10.3202C21.2449 10.1557 20.9042 10.0735 20.5283 10.0735C20.1524 10.0735 19.8117 10.1557 19.5063 10.3202C19.2009 10.4847 18.9542 10.6961 18.7662 10.9545C18.6018 11.213 18.5195 11.5184 18.5195 11.8708C18.5195 12.1763 18.6018 12.4582 18.7662 12.7166C18.9307 12.9751 19.1656 13.1748 19.4711 13.3157C19.7765 13.4567 20.1289 13.5272 20.5283 13.5272ZM20.5283 9.40392C20.8572 9.40392 21.1509 9.33344 21.4094 9.19247C21.6678 9.0515 21.8675 8.86355 22.0085 8.6286C22.1729 8.39366 22.2551 8.11173 22.2551 7.78281C22.2551 7.47738 22.1847 7.20719 22.0437 6.97225C21.9027 6.73731 21.6913 6.5611 21.4094 6.44363C21.1509 6.30266 20.8572 6.23218 20.5283 6.23218C20.1994 6.23218 19.9057 6.30266 19.6473 6.44363C19.3888 6.5611 19.1774 6.73731 19.0129 6.97225C18.872 7.20719 18.8015 7.47738 18.8015 7.78281C18.8015 8.11173 18.872 8.39366 19.0129 8.6286C19.1774 8.86355 19.3888 9.0515 19.6473 9.19247C19.9057 9.33344 20.1994 9.40392 20.5283 9.40392ZM27.3775 14.232C26.9076 14.232 26.4847 14.138 26.1088 13.9501C25.7329 13.7621 25.4275 13.5037 25.1925 13.1748C24.9811 12.8224 24.8753 12.4229 24.8753 11.9766H25.6507C25.6742 12.282 25.7564 12.5522 25.8974 12.7871C26.0618 13.0221 26.2733 13.21 26.5317 13.351C26.7901 13.4684 27.0721 13.5272 27.3775 13.5272C27.7534 13.5272 28.0823 13.445 28.3643 13.2805C28.6697 13.0925 28.9046 12.8458 29.0691 12.5404C29.2336 12.2115 29.3158 11.8473 29.3158 11.4479C29.3158 11.0485 29.2218 10.6961 29.0339 10.3907C28.8694 10.0618 28.6345 9.81507 28.329 9.65061C28.0471 9.46265 27.7182 9.36868 27.3423 9.36868C27.0603 9.36868 26.7784 9.41567 26.4965 9.50964C26.238 9.60362 26.0148 9.73284 25.8269 9.8973L25.0163 9.79158L25.5097 5.63307H29.7387V6.37314H26.2145L25.8621 9.19247H25.9326C26.0971 9.02801 26.3203 8.89879 26.6022 8.80481C26.8841 8.68734 27.1778 8.6286 27.4832 8.6286C27.8591 8.6286 28.1998 8.69909 28.5052 8.84005C28.8342 8.98102 29.1161 9.18072 29.351 9.43916C29.586 9.6741 29.7739 9.96778 29.9149 10.3202C30.0559 10.6491 30.1263 11.025 30.1263 11.4479C30.1263 11.9883 30.0089 12.4699 29.7739 12.8928C29.539 13.3157 29.2101 13.6447 28.7872 13.8796C28.3878 14.1145 27.9179 14.232 27.3775 14.232ZM32.2039 14.1968C32.016 14.1968 31.8633 14.138 31.7458 14.0206C31.6283 13.9031 31.5696 13.7504 31.5696 13.5624C31.5696 13.398 31.6283 13.257 31.7458 13.1395C31.8633 13.0221 32.016 12.9633 32.2039 12.9633C32.3684 12.9633 32.5094 13.0221 32.6268 13.1395C32.7443 13.257 32.8031 13.398 32.8031 13.5624C32.8031 13.7504 32.7443 13.9031 32.6268 14.0206C32.5094 14.138 32.3684 14.1968 32.2039 14.1968ZM34.7913 14.1263V13.5272L37.5754 10.4259C37.9278 10.0265 38.2097 9.68585 38.4212 9.40392C38.6326 9.12199 38.7854 8.86355 38.8793 8.6286C38.9968 8.37017 39.0555 8.11173 39.0555 7.85329C39.0555 7.52437 38.9733 7.24243 38.8089 7.00749C38.6679 6.74905 38.4682 6.5611 38.2097 6.44363C37.9513 6.30266 37.6576 6.23218 37.3287 6.23218C36.9998 6.23218 36.7061 6.31441 36.4477 6.47887C36.1892 6.61983 35.9895 6.81954 35.8486 7.07797C35.7076 7.33641 35.6371 7.63009 35.6371 7.95901H34.8618C34.8618 7.48913 34.9675 7.07797 35.179 6.72556C35.3904 6.34965 35.6841 6.05597 36.06 5.84452C36.4359 5.63307 36.8706 5.52734 37.364 5.52734C37.8338 5.52734 38.2567 5.63307 38.6326 5.84452C39.0086 6.03247 39.3022 6.30266 39.5137 6.65507C39.7251 7.00749 39.8309 7.39515 39.8309 7.81805C39.8309 8.14697 39.7721 8.4524 39.6547 8.73433C39.5607 9.01626 39.3727 9.34518 39.0908 9.72109C38.8323 10.0735 38.4682 10.5082 37.9983 11.025L35.919 13.351V13.3862H40.0776V14.1263H34.7913ZM44.5941 14.232C44.0067 14.232 43.4898 14.0676 43.0434 13.7386C42.6205 13.3862 42.2916 12.8928 42.0567 12.2585C41.8452 11.6006 41.7395 10.8136 41.7395 9.8973C41.7395 8.98102 41.857 8.2057 42.0919 7.57136C42.3268 6.91351 42.6558 6.40838 43.0787 6.05597C43.5016 5.70355 44.0067 5.52734 44.5941 5.52734C45.2049 5.52734 45.7218 5.70355 46.1447 6.05597C46.5676 6.40838 46.8848 6.91351 47.0962 7.57136C47.3311 8.2057 47.4486 8.98102 47.4486 9.8973C47.4486 10.8136 47.3311 11.6006 47.0962 12.2585C46.8848 12.8928 46.5676 13.3862 46.1447 13.7386C45.7218 14.0676 45.2049 14.232 44.5941 14.232ZM44.5941 13.5272C45.0404 13.5272 45.4164 13.3862 45.7218 13.1043C46.0272 12.7989 46.2622 12.376 46.4266 11.8356C46.5911 11.2952 46.6733 10.6491 46.6733 9.8973C46.6733 9.12199 46.5911 8.46414 46.4266 7.92377C46.2622 7.3834 46.0272 6.97225 45.7218 6.69032C45.4164 6.38489 45.0404 6.23218 44.5941 6.23218C44.1712 6.23218 43.7952 6.38489 43.4663 6.69032C43.1609 6.97225 42.9259 7.3834 42.7615 7.92377C42.597 8.46414 42.5148 9.12199 42.5148 9.8973C42.5148 10.6491 42.597 11.2952 42.7615 11.8356C42.9259 12.376 43.1609 12.7989 43.4663 13.1043C43.7952 13.3862 44.1712 13.5272 44.5941 13.5272Z" fill="#8E9198" style="fill:#8E9198;fill:color(display-p3 0.5569 0.5686 0.5961);fill-opacity:1;"/>
<path d="M28.2802 552.305C27.7398 552.305 27.2582 552.211 26.8353 552.023C26.4359 551.835 26.1187 551.577 25.8838 551.248C25.6488 550.896 25.5196 550.496 25.4961 550.05H26.3067C26.3301 550.355 26.4241 550.625 26.5886 550.86C26.7765 551.095 27.0115 551.283 27.2934 551.424C27.5753 551.542 27.9043 551.6 28.2802 551.6C28.6561 551.6 28.985 551.53 29.2669 551.389C29.5724 551.248 29.8073 551.048 29.9718 550.79C30.1597 550.531 30.2537 550.238 30.2537 549.909C30.2537 549.58 30.1597 549.286 29.9718 549.028C29.8073 548.769 29.5606 548.57 29.2317 548.429C28.9263 548.288 28.5504 548.217 28.104 548.217H27.5753V547.477H28.104C28.4564 547.477 28.7736 547.418 29.0555 547.301C29.3374 547.16 29.5606 546.972 29.7251 546.737C29.8895 546.479 29.9718 546.197 29.9718 545.891C29.9718 545.586 29.9013 545.316 29.7603 545.081C29.6194 544.822 29.4197 544.634 29.1612 544.517C28.9028 544.376 28.6091 544.305 28.2802 544.305C27.9513 544.305 27.6458 544.376 27.3639 544.517C27.1055 544.634 26.894 544.811 26.7295 545.045C26.5651 545.257 26.4829 545.527 26.4829 545.856H25.6723C25.6958 545.41 25.825 545.022 26.06 544.693C26.2949 544.341 26.6003 544.07 26.9762 543.883C27.3756 543.695 27.8103 543.601 28.2802 543.601C28.7971 543.601 29.2317 543.706 29.5841 543.918C29.96 544.106 30.242 544.376 30.4299 544.728C30.6414 545.057 30.7471 545.433 30.7471 545.856C30.7471 546.326 30.6179 546.737 30.3594 547.09C30.101 547.418 29.7486 547.653 29.3022 547.794V547.865C29.6546 547.912 29.96 548.041 30.2185 548.252C30.4769 548.44 30.6766 548.675 30.8176 548.957C30.9585 549.239 31.029 549.568 31.029 549.944C31.029 550.39 30.9116 550.79 30.6766 551.142C30.4417 551.495 30.1127 551.777 29.6898 551.988C29.2904 552.2 28.8206 552.305 28.2802 552.305ZM33.1836 552.27C32.9956 552.27 32.8429 552.211 32.7254 552.094C32.608 551.976 32.5492 551.824 32.5492 551.636C32.5492 551.471 32.608 551.33 32.7254 551.213C32.8429 551.095 32.9956 551.037 33.1836 551.037C33.348 551.037 33.489 551.095 33.6065 551.213C33.724 551.33 33.7827 551.471 33.7827 551.636C33.7827 551.824 33.724 551.976 33.6065 552.094C33.489 552.211 33.348 552.27 33.1836 552.27ZM35.8524 552.2L39.7289 544.482V544.446H35.2533V543.706H40.5747V544.482L36.6982 552.2H35.8524ZM44.5939 552.305C44.0065 552.305 43.4896 552.141 43.0432 551.812C42.6203 551.459 42.2914 550.966 42.0565 550.332C41.845 549.674 41.7393 548.887 41.7393 547.971C41.7393 547.054 41.8568 546.279 42.0917 545.645C42.3267 544.987 42.6556 544.482 43.0785 544.129C43.5014 543.777 44.0065 543.601 44.5939 543.601C45.2047 543.601 45.7216 543.777 46.1445 544.129C46.5674 544.482 46.8846 544.987 47.096 545.645C47.331 546.279 47.4484 547.054 47.4484 547.971C47.4484 548.887 47.331 549.674 47.096 550.332C46.8846 550.966 46.5674 551.459 46.1445 551.812C45.7216 552.141 45.2047 552.305 44.5939 552.305ZM44.5939 551.6C45.0403 551.6 45.4162 551.459 45.7216 551.178C46.027 550.872 46.262 550.449 46.4264 549.909C46.5909 549.368 46.6731 548.722 46.6731 547.971C46.6731 547.195 46.5909 546.537 46.4264 545.997C46.262 545.457 46.027 545.045 45.7216 544.764C45.4162 544.458 45.0403 544.305 44.5939 544.305C44.171 544.305 43.7951 544.458 43.4661 544.764C43.1607 545.045 42.9258 545.457 42.7613 545.997C42.5968 546.537 42.5146 547.195 42.5146 547.971C42.5146 548.722 42.5968 549.368 42.7613 549.909C42.9258 550.449 43.1607 550.872 43.4661 551.178C43.7951 551.459 44.171 551.6 44.5939 551.6Z" fill="#8E9198" style="fill:#8E9198;fill:color(display-p3 0.5569 0.5686 0.5961);fill-opacity:1;"/>
<path fill-rule="evenodd" clip-rule="evenodd" d="M52.6602 14.3809H60.6602V543.686H52.6602V14.3809Z" fill="#DFE2E6" style="fill:#DFE2E6;fill:color(display-p3 0.8745 0.8863 0.9020);fill-opacity:1;"/>
</svg>
