<svg width="55" height="583" viewBox="0 0 55 583" fill="none" xmlns="http://www.w3.org/2000/svg">
<rect opacity="0.2" width="54.5668" height="582.62" fill="white" style="fill:white;fill-opacity:1;"/>
<path fill-rule="evenodd" clip-rule="evenodd" d="M38.5961 14.7097H44.575V567.91H38.5961V14.7097Z" fill="#F6F7F8" style="fill:#F6F7F8;fill:color(display-p3 0.9647 0.9686 0.9725);fill-opacity:1;"/>
<path d="M16.7739 211.107V210.507L19.558 207.406C19.9104 207.007 20.1923 206.666 20.4038 206.384C20.6152 206.102 20.7679 205.844 20.8619 205.609C20.9794 205.35 21.0381 205.092 21.0381 204.833C21.0381 204.505 20.9559 204.223 20.7914 203.988C20.6505 203.729 20.4508 203.541 20.1923 203.424C19.9339 203.283 19.6402 203.212 19.3113 203.212C18.9824 203.212 18.6887 203.295 18.4302 203.459C18.1718 203.6 17.9721 203.8 17.8311 204.058C17.6902 204.317 17.6197 204.61 17.6197 204.939H16.8444C16.8444 204.469 16.9501 204.058 17.1615 203.706C17.373 203.33 17.6667 203.036 18.0426 202.825C18.4185 202.613 18.8531 202.508 19.3465 202.508C19.8164 202.508 20.2393 202.613 20.6152 202.825C20.9911 203.013 21.2848 203.283 21.4963 203.635C21.7077 203.988 21.8134 204.375 21.8134 204.798C21.8134 205.127 21.7547 205.433 21.6372 205.715C21.5432 205.996 21.3553 206.325 21.0734 206.701C20.8149 207.054 20.4508 207.488 19.9809 208.005L17.9016 210.331V210.366H22.0601V211.107H16.7739ZM26.5766 211.212C25.9893 211.212 25.4724 211.048 25.026 210.719C24.6031 210.366 24.2742 209.873 24.0392 209.239C23.8278 208.581 23.722 207.794 23.722 206.878C23.722 205.961 23.8395 205.186 24.0745 204.552C24.3094 203.894 24.6383 203.389 25.0612 203.036C25.4841 202.684 25.9893 202.508 26.5766 202.508C27.1875 202.508 27.7043 202.684 28.1272 203.036C28.5501 203.389 28.8673 203.894 29.0788 204.552C29.3137 205.186 29.4312 205.961 29.4312 206.878C29.4312 207.794 29.3137 208.581 29.0788 209.239C28.8673 209.873 28.5501 210.366 28.1272 210.719C27.7043 211.048 27.1875 211.212 26.5766 211.212ZM26.5766 210.507C27.023 210.507 27.3989 210.366 27.7043 210.084C28.0098 209.779 28.2447 209.356 28.4092 208.816C28.5736 208.275 28.6559 207.629 28.6559 206.878C28.6559 206.102 28.5736 205.444 28.4092 204.904C28.2447 204.364 28.0098 203.952 27.7043 203.671C27.3989 203.365 27.023 203.212 26.5766 203.212C26.1537 203.212 25.7778 203.365 25.4489 203.671C25.1435 203.952 24.9085 204.364 24.7441 204.904C24.5796 205.444 24.4974 206.102 24.4974 206.878C24.4974 207.629 24.5796 208.275 24.7441 208.816C24.9085 209.356 25.1435 209.779 25.4489 210.084C25.7778 210.366 26.1537 210.507 26.5766 210.507Z" fill="#8E9198" style="fill:#8E9198;fill:color(display-p3 0.5569 0.5686 0.5961);fill-opacity:1;"/>
<path d="M21.8452 383.284V391.778H21.0698V384.06H20.9994L19.0258 385.505V384.624L20.8584 383.284H21.8452ZM26.5769 391.883C25.9895 391.883 25.4727 391.719 25.0263 391.39C24.6034 391.038 24.2744 390.544 24.0395 389.91C23.8281 389.252 23.7223 388.465 23.7223 387.549C23.7223 386.632 23.8398 385.857 24.0747 385.223C24.3097 384.565 24.6386 384.06 25.0615 383.707C25.4844 383.355 25.9895 383.179 26.5769 383.179C27.1877 383.179 27.7046 383.355 28.1275 383.707C28.5504 384.06 28.8676 384.565 29.079 385.223C29.314 385.857 29.4315 386.632 29.4315 387.549C29.4315 388.465 29.314 389.252 29.079 389.91C28.8676 390.544 28.5504 391.038 28.1275 391.39C27.7046 391.719 27.1877 391.883 26.5769 391.883ZM26.5769 391.179C27.0233 391.179 27.3992 391.038 27.7046 390.756C28.0101 390.45 28.245 390.027 28.4095 389.487C28.5739 388.947 28.6561 388.3 28.6561 387.549C28.6561 386.773 28.5739 386.115 28.4095 385.575C28.245 385.035 28.0101 384.624 27.7046 384.342C27.3992 384.036 27.0233 383.884 26.5769 383.884C26.154 383.884 25.7781 384.036 25.4492 384.342C25.1437 384.624 24.9088 385.035 24.7443 385.575C24.5799 386.115 24.4976 386.773 24.4976 387.549C24.4976 388.3 24.5799 388.947 24.7443 389.487C24.9088 390.027 25.1437 390.45 25.4492 390.756C25.7781 391.038 26.154 391.179 26.5769 391.179Z" fill="#8E9198" style="fill:#8E9198;fill:color(display-p3 0.5569 0.5686 0.5961);fill-opacity:1;"/>
<path fill-rule="evenodd" clip-rule="evenodd" d="M37.5668 206.86H45.5668V387.531H37.5668V206.86Z" fill="#DFE2E6" style="fill:#DFE2E6;fill:color(display-p3 0.8745 0.8863 0.9020);fill-opacity:1;"/>
</svg>
