<svg width="55" height="583" viewBox="0 0 55 583" fill="none" xmlns="http://www.w3.org/2000/svg">
<rect opacity="0.2" width="54.5668" height="582.62" fill="white" style="fill:white;fill-opacity:1;"/>
<path fill-rule="evenodd" clip-rule="evenodd" d="M38.5668 14.7097H44.6051V567.91H38.5668V14.7097Z" fill="#F6F7F8" style="fill:#F6F7F8;fill:color(display-p3 0.9647 0.9686 0.9725);fill-opacity:1;"/>
<path d="M6.76118 163.705V172.199H5.98586V164.481H5.91538L3.94185 165.926V165.045L5.77441 163.705H6.76118ZM11.1758 172.304C10.7059 172.304 10.283 172.21 9.90711 172.022C9.5312 171.834 9.22577 171.576 8.99083 171.247C8.77938 170.895 8.67365 170.495 8.67365 170.049H9.44897C9.47246 170.354 9.55469 170.625 9.69566 170.859C9.86012 171.094 10.0716 171.282 10.33 171.423C10.5884 171.541 10.8704 171.6 11.1758 171.6C11.5517 171.6 11.8806 171.517 12.1626 171.353C12.468 171.165 12.7029 170.918 12.8674 170.613C13.0319 170.284 13.1141 169.92 13.1141 169.52C13.1141 169.121 13.0201 168.768 12.8322 168.463C12.6677 168.134 12.4328 167.887 12.1273 167.723C11.8454 167.535 11.5165 167.441 11.1406 167.441C10.8586 167.441 10.5767 167.488 10.2948 167.582C10.0363 167.676 9.81313 167.805 9.62518 167.97L8.81462 167.864L9.308 163.705H13.537V164.445H10.0128L9.66042 167.265H9.7309C9.89536 167.1 10.1186 166.971 10.4005 166.877C10.6824 166.76 10.9761 166.701 11.2815 166.701C11.6574 166.701 11.9981 166.771 12.3035 166.912C12.6325 167.053 12.9144 167.253 13.1493 167.512C13.3843 167.746 13.5722 168.04 13.7132 168.393C13.8542 168.721 13.9246 169.097 13.9246 169.52C13.9246 170.061 13.8072 170.542 13.5722 170.965C13.3373 171.388 13.0084 171.717 12.5855 171.952C12.1861 172.187 11.7162 172.304 11.1758 172.304ZM16.0023 172.269C15.8143 172.269 15.6616 172.21 15.5441 172.093C15.4266 171.975 15.3679 171.823 15.3679 171.635C15.3679 171.47 15.4266 171.329 15.5441 171.212C15.6616 171.094 15.8143 171.036 16.0023 171.036C16.1667 171.036 16.3077 171.094 16.4252 171.212C16.5426 171.329 16.6014 171.47 16.6014 171.635C16.6014 171.823 16.5426 171.975 16.4252 172.093C16.3077 172.21 16.1667 172.269 16.0023 172.269ZM18.671 172.199L22.5476 164.481V164.445H18.0719V163.705H23.3934V164.481L19.5168 172.199H18.671ZM27.4125 172.304C26.8252 172.304 26.3083 172.14 25.8619 171.811C25.439 171.459 25.1101 170.965 24.8751 170.331C24.6637 169.673 24.558 168.886 24.558 167.97C24.558 167.053 24.6754 166.278 24.9104 165.644C25.1453 164.986 25.4743 164.481 25.8972 164.128C26.3201 163.776 26.8252 163.6 27.4125 163.6C28.0234 163.6 28.5403 163.776 28.9632 164.128C29.3861 164.481 29.7032 164.986 29.9147 165.644C30.1496 166.278 30.2671 167.053 30.2671 167.97C30.2671 168.886 30.1496 169.673 29.9147 170.331C29.7032 170.965 29.3861 171.459 28.9632 171.811C28.5403 172.14 28.0234 172.304 27.4125 172.304ZM27.4125 171.6C27.8589 171.6 28.2348 171.459 28.5403 171.177C28.8457 170.871 29.0806 170.448 29.2451 169.908C29.4096 169.368 29.4918 168.721 29.4918 167.97C29.4918 167.194 29.4096 166.536 29.2451 165.996C29.0806 165.456 28.8457 165.045 28.5403 164.763C28.2348 164.457 27.8589 164.305 27.4125 164.305C26.9896 164.305 26.6137 164.457 26.2848 164.763C25.9794 165.045 25.7444 165.456 25.58 165.996C25.4155 166.536 25.3333 167.194 25.3333 167.97C25.3333 168.721 25.4155 169.368 25.58 169.908C25.7444 170.448 25.9794 170.871 26.2848 171.177C26.6137 171.459 26.9896 171.6 27.4125 171.6Z" fill="#8E9198" style="fill:#8E9198;fill:color(display-p3 0.5569 0.5686 0.5961);fill-opacity:1;"/>
<path d="M10.7045 419.02C10.3521 419.02 10.0115 418.949 9.68253 418.809C9.35361 418.668 9.04818 418.444 8.76625 418.139C8.50781 417.833 8.29636 417.422 8.1319 416.905C7.96744 416.389 7.88521 415.766 7.88521 415.038C7.88521 414.333 7.94394 413.698 8.06142 413.135C8.20238 412.547 8.39034 412.054 8.62528 411.654C8.86023 411.232 9.16565 410.903 9.54156 410.668C9.91747 410.433 10.3521 410.315 10.8455 410.315C11.2919 410.315 11.6913 410.409 12.0437 410.597C12.3961 410.785 12.6781 411.055 12.8895 411.408C13.1245 411.737 13.2654 412.124 13.3124 412.571H12.5371C12.4431 412.124 12.2552 411.76 11.9732 411.478C11.6913 411.173 11.3154 411.02 10.8455 411.02C10.3756 411.02 9.97621 411.173 9.64729 411.478C9.31837 411.76 9.07168 412.183 8.90721 412.747C8.74275 413.287 8.66052 413.945 8.66052 414.72H8.73101C8.84848 414.462 9.01294 414.251 9.22439 414.086C9.45933 413.898 9.70602 413.757 9.96446 413.663C10.2464 413.546 10.5401 413.487 10.8455 413.487C11.3154 413.487 11.7383 413.604 12.1142 413.839C12.5136 414.074 12.8308 414.403 13.0657 414.826C13.3007 415.249 13.4181 415.719 13.4181 416.236C13.4181 416.753 13.3007 417.223 13.0657 417.646C12.8543 418.068 12.5371 418.409 12.1142 418.668C11.7148 418.902 11.2449 419.02 10.7045 419.02ZM10.7045 418.315C11.0804 418.315 11.4094 418.221 11.6913 418.033C11.9732 417.845 12.1964 417.599 12.3609 417.293C12.5488 416.964 12.6428 416.612 12.6428 416.236C12.6428 415.86 12.5488 415.519 12.3609 415.214C12.1964 414.908 11.9732 414.662 11.6913 414.474C11.4094 414.286 11.0804 414.192 10.7045 414.192C10.4226 414.192 10.1642 414.251 9.92922 414.368C9.69428 414.486 9.48283 414.65 9.29487 414.861C9.13041 415.049 9.00119 415.273 8.90721 415.531C8.81324 415.766 8.778 416.013 8.80149 416.271C8.82498 416.671 8.91896 417.023 9.08342 417.328C9.27138 417.634 9.50632 417.88 9.78825 418.068C10.0702 418.233 10.3756 418.315 10.7045 418.315ZM15.4256 418.985C15.2376 418.985 15.0849 418.926 14.9675 418.809C14.85 418.691 14.7913 418.538 14.7913 418.35C14.7913 418.186 14.85 418.045 14.9675 417.927C15.0849 417.81 15.2376 417.751 15.4256 417.751C15.5901 417.751 15.731 417.81 15.8485 417.927C15.966 418.045 16.0247 418.186 16.0247 418.35C16.0247 418.538 15.966 418.691 15.8485 418.809C15.731 418.926 15.5901 418.985 15.4256 418.985ZM20.3075 419.02C19.7671 419.02 19.2855 418.926 18.8626 418.738C18.4631 418.55 18.146 418.292 17.911 417.963C17.6761 417.61 17.5469 417.211 17.5234 416.764H18.3339C18.3574 417.07 18.4514 417.34 18.6159 417.575C18.8038 417.81 19.0388 417.998 19.3207 418.139C19.6026 418.256 19.9315 418.315 20.3075 418.315C20.6834 418.315 21.0123 418.245 21.2942 418.104C21.5996 417.963 21.8346 417.763 21.9991 417.505C22.187 417.246 22.281 416.952 22.281 416.624C22.281 416.295 22.187 416.001 21.9991 415.742C21.8346 415.484 21.5879 415.284 21.259 415.143C20.9536 415.002 20.5776 414.932 20.1312 414.932H19.6026V414.192H20.1312C20.4837 414.192 20.8008 414.133 21.0828 414.016C21.3647 413.875 21.5879 413.687 21.7524 413.452C21.9168 413.193 21.9991 412.911 21.9991 412.606C21.9991 412.301 21.9286 412.03 21.7876 411.795C21.6466 411.537 21.4469 411.349 21.1885 411.232C20.9301 411.091 20.6364 411.02 20.3075 411.02C19.9785 411.02 19.6731 411.091 19.3912 411.232C19.1327 411.349 18.9213 411.525 18.7568 411.76C18.5924 411.972 18.5101 412.242 18.5101 412.571H17.6996C17.7231 412.124 17.8523 411.737 18.0872 411.408C18.3222 411.055 18.6276 410.785 19.0035 410.597C19.4029 410.409 19.8376 410.315 20.3075 410.315C20.8243 410.315 21.259 410.421 21.6114 410.632C21.9873 410.82 22.2692 411.091 22.4572 411.443C22.6686 411.772 22.7744 412.148 22.7744 412.571C22.7744 413.041 22.6451 413.452 22.3867 413.804C22.1283 414.133 21.7759 414.368 21.3295 414.509V414.58C21.6819 414.626 21.9873 414.756 22.2457 414.967C22.5042 415.155 22.7039 415.39 22.8449 415.672C22.9858 415.954 23.0563 416.283 23.0563 416.659C23.0563 417.105 22.9388 417.505 22.7039 417.857C22.4689 418.209 22.14 418.491 21.7171 418.703C21.3177 418.914 20.8478 419.02 20.3075 419.02ZM27.4112 419.02C26.8238 419.02 26.3069 418.855 25.8606 418.527C25.4377 418.174 25.1087 417.681 24.8738 417.046C24.6623 416.389 24.5566 415.602 24.5566 414.685C24.5566 413.769 24.6741 412.994 24.909 412.359C25.144 411.701 25.4729 411.196 25.8958 410.844C26.3187 410.491 26.8238 410.315 27.4112 410.315C28.022 410.315 28.5389 410.491 28.9618 410.844C29.3847 411.196 29.7019 411.701 29.9133 412.359C30.1483 412.994 30.2658 413.769 30.2658 414.685C30.2658 415.602 30.1483 416.389 29.9133 417.046C29.7019 417.681 29.3847 418.174 28.9618 418.527C28.5389 418.855 28.022 419.02 27.4112 419.02ZM27.4112 418.315C27.8576 418.315 28.2335 418.174 28.5389 417.892C28.8443 417.587 29.0793 417.164 29.2437 416.624C29.4082 416.083 29.4904 415.437 29.4904 414.685C29.4904 413.91 29.4082 413.252 29.2437 412.712C29.0793 412.171 28.8443 411.76 28.5389 411.478C28.2335 411.173 27.8576 411.02 27.4112 411.02C26.9883 411.02 26.6124 411.173 26.2835 411.478C25.978 411.76 25.7431 412.171 25.5786 412.712C25.4142 413.252 25.3319 413.91 25.3319 414.685C25.3319 415.437 25.4142 416.083 25.5786 416.624C25.7431 417.164 25.978 417.587 26.2835 417.892C26.6124 418.174 26.9883 418.315 27.4112 418.315Z" fill="#8E9198" style="fill:#8E9198;fill:color(display-p3 0.5569 0.5686 0.5961);fill-opacity:1;"/>
<path fill-rule="evenodd" clip-rule="evenodd" d="M37.5668 167.952H45.5668V414.668H37.5668V167.952Z" fill="#DFE2E6" style="fill:#DFE2E6;fill:color(display-p3 0.8745 0.8863 0.9020);fill-opacity:1;"/>
</svg>
