<svg width="55" height="583" viewBox="0 0 55 583" fill="none" xmlns="http://www.w3.org/2000/svg">
<rect opacity="0.2" width="54.5668" height="582.62" fill="white" style="fill:white;fill-opacity:1;"/>
<path fill-rule="evenodd" clip-rule="evenodd" d="M38.5668 14.7097H44.6051V567.91H38.5668V14.7097Z" fill="#F6F7F8" style="fill:#F6F7F8;fill:color(display-p3 0.9647 0.9686 0.9725);fill-opacity:1;"/>
<path d="M6.76118 178.707V187.201H5.98586V179.483H5.91538L3.94185 180.928V180.047L5.77441 178.707H6.76118ZM11.1758 187.306C10.7059 187.306 10.283 187.212 9.90711 187.024C9.5312 186.837 9.22577 186.578 8.99083 186.249C8.77938 185.897 8.67365 185.497 8.67365 185.051H9.44897C9.47246 185.356 9.55469 185.627 9.69566 185.861C9.86012 186.096 10.0716 186.284 10.33 186.425C10.5884 186.543 10.8704 186.602 11.1758 186.602C11.5517 186.602 11.8806 186.519 12.1626 186.355C12.468 186.167 12.7029 185.92 12.8674 185.615C13.0319 185.286 13.1141 184.922 13.1141 184.522C13.1141 184.123 13.0201 183.77 12.8322 183.465C12.6677 183.136 12.4328 182.889 12.1273 182.725C11.8454 182.537 11.5165 182.443 11.1406 182.443C10.8586 182.443 10.5767 182.49 10.2948 182.584C10.0363 182.678 9.81313 182.807 9.62518 182.972L8.81462 182.866L9.308 178.707H13.537V179.448H10.0128L9.66042 182.267H9.7309C9.89536 182.102 10.1186 181.973 10.4005 181.879C10.6824 181.762 10.9761 181.703 11.2815 181.703C11.6574 181.703 11.9981 181.773 12.3035 181.914C12.6325 182.055 12.9144 182.255 13.1493 182.514C13.3843 182.748 13.5722 183.042 13.7132 183.395C13.8542 183.723 13.9246 184.099 13.9246 184.522C13.9246 185.063 13.8072 185.544 13.5722 185.967C13.3373 186.39 13.0084 186.719 12.5855 186.954C12.1861 187.189 11.7162 187.306 11.1758 187.306ZM16.0023 187.271C15.8143 187.271 15.6616 187.212 15.5441 187.095C15.4266 186.977 15.3679 186.825 15.3679 186.637C15.3679 186.472 15.4266 186.331 15.5441 186.214C15.6616 186.096 15.8143 186.038 16.0023 186.038C16.1667 186.038 16.3077 186.096 16.4252 186.214C16.5426 186.331 16.6014 186.472 16.6014 186.637C16.6014 186.825 16.5426 186.977 16.4252 187.095C16.3077 187.212 16.1667 187.271 16.0023 187.271ZM18.671 187.201L22.5476 179.483V179.448H18.0719V178.707H23.3934V179.483L19.5168 187.201H18.671ZM27.4125 187.306C26.8252 187.306 26.3083 187.142 25.8619 186.813C25.439 186.461 25.1101 185.967 24.8751 185.333C24.6637 184.675 24.558 183.888 24.558 182.972C24.558 182.055 24.6754 181.28 24.9104 180.646C25.1453 179.988 25.4743 179.483 25.8972 179.13C26.3201 178.778 26.8252 178.602 27.4125 178.602C28.0234 178.602 28.5403 178.778 28.9632 179.13C29.3861 179.483 29.7032 179.988 29.9147 180.646C30.1496 181.28 30.2671 182.055 30.2671 182.972C30.2671 183.888 30.1496 184.675 29.9147 185.333C29.7032 185.967 29.3861 186.461 28.9632 186.813C28.5403 187.142 28.0234 187.306 27.4125 187.306ZM27.4125 186.602C27.8589 186.602 28.2348 186.461 28.5403 186.179C28.8457 185.873 29.0806 185.45 29.2451 184.91C29.4096 184.37 29.4918 183.723 29.4918 182.972C29.4918 182.196 29.4096 181.539 29.2451 180.998C29.0806 180.458 28.8457 180.047 28.5403 179.765C28.2348 179.459 27.8589 179.307 27.4125 179.307C26.9896 179.307 26.6137 179.459 26.2848 179.765C25.9794 180.047 25.7444 180.458 25.58 180.998C25.4155 181.539 25.3333 182.196 25.3333 182.972C25.3333 183.723 25.4155 184.37 25.58 184.91C25.7444 185.45 25.9794 185.873 26.2848 186.179C26.6137 186.461 26.9896 186.602 27.4125 186.602Z" fill="#8E9198" style="fill:#8E9198;fill:color(display-p3 0.5569 0.5686 0.5961);fill-opacity:1;"/>
<path d="M10.7045 418.601C10.3521 418.601 10.0115 418.531 9.68253 418.39C9.35361 418.249 9.04818 418.026 8.76625 417.72C8.50781 417.415 8.29636 417.004 8.1319 416.487C7.96744 415.97 7.88521 415.347 7.88521 414.619C7.88521 413.914 7.94394 413.28 8.06142 412.716C8.20238 412.129 8.39034 411.635 8.62528 411.236C8.86023 410.813 9.16565 410.484 9.54156 410.249C9.91747 410.014 10.3521 409.897 10.8455 409.897C11.2919 409.897 11.6913 409.991 12.0437 410.179C12.3961 410.367 12.6781 410.637 12.8895 410.989C13.1245 411.318 13.2654 411.706 13.3124 412.152H12.5371C12.4431 411.706 12.2552 411.342 11.9732 411.06C11.6913 410.754 11.3154 410.602 10.8455 410.602C10.3756 410.602 9.97621 410.754 9.64729 411.06C9.31837 411.342 9.07168 411.765 8.90721 412.328C8.74275 412.869 8.66052 413.527 8.66052 414.302H8.73101C8.84848 414.043 9.01294 413.832 9.22439 413.668C9.45933 413.48 9.70602 413.339 9.96446 413.245C10.2464 413.127 10.5401 413.068 10.8455 413.068C11.3154 413.068 11.7383 413.186 12.1142 413.421C12.5136 413.656 12.8308 413.985 13.0657 414.408C13.3007 414.831 13.4181 415.3 13.4181 415.817C13.4181 416.334 13.3007 416.804 13.0657 417.227C12.8543 417.65 12.5371 417.991 12.1142 418.249C11.7148 418.484 11.2449 418.601 10.7045 418.601ZM10.7045 417.897C11.0804 417.897 11.4094 417.803 11.6913 417.615C11.9732 417.427 12.1964 417.18 12.3609 416.875C12.5488 416.546 12.6428 416.193 12.6428 415.817C12.6428 415.441 12.5488 415.101 12.3609 414.795C12.1964 414.49 11.9732 414.243 11.6913 414.055C11.4094 413.867 11.0804 413.773 10.7045 413.773C10.4226 413.773 10.1642 413.832 9.92922 413.95C9.69428 414.067 9.48283 414.231 9.29487 414.443C9.13041 414.631 9.00119 414.854 8.90721 415.112C8.81324 415.347 8.778 415.594 8.80149 415.853C8.82498 416.252 8.91896 416.604 9.08342 416.91C9.27138 417.215 9.50632 417.462 9.78825 417.65C10.0702 417.814 10.3756 417.897 10.7045 417.897ZM15.4256 418.566C15.2376 418.566 15.0849 418.507 14.9675 418.39C14.85 418.272 14.7913 418.12 14.7913 417.932C14.7913 417.767 14.85 417.626 14.9675 417.509C15.0849 417.391 15.2376 417.333 15.4256 417.333C15.5901 417.333 15.731 417.391 15.8485 417.509C15.966 417.626 16.0247 417.767 16.0247 417.932C16.0247 418.12 15.966 418.272 15.8485 418.39C15.731 418.507 15.5901 418.566 15.4256 418.566ZM20.3075 418.601C19.7671 418.601 19.2855 418.507 18.8626 418.319C18.4631 418.132 18.146 417.873 17.911 417.544C17.6761 417.192 17.5469 416.792 17.5234 416.346H18.3339C18.3574 416.651 18.4514 416.922 18.6159 417.156C18.8038 417.391 19.0388 417.579 19.3207 417.72C19.6026 417.838 19.9315 417.897 20.3075 417.897C20.6834 417.897 21.0123 417.826 21.2942 417.685C21.5996 417.544 21.8346 417.344 21.9991 417.086C22.187 416.828 22.281 416.534 22.281 416.205C22.281 415.876 22.187 415.582 21.9991 415.324C21.8346 415.065 21.5879 414.866 21.259 414.725C20.9536 414.584 20.5776 414.513 20.1312 414.513H19.6026V413.773H20.1312C20.4837 413.773 20.8008 413.715 21.0828 413.597C21.3647 413.456 21.5879 413.268 21.7524 413.033C21.9168 412.775 21.9991 412.493 21.9991 412.187C21.9991 411.882 21.9286 411.612 21.7876 411.377C21.6466 411.118 21.4469 410.93 21.1885 410.813C20.9301 410.672 20.6364 410.602 20.3075 410.602C19.9785 410.602 19.6731 410.672 19.3912 410.813C19.1327 410.93 18.9213 411.107 18.7568 411.342C18.5924 411.553 18.5101 411.823 18.5101 412.152H17.6996C17.7231 411.706 17.8523 411.318 18.0872 410.989C18.3222 410.637 18.6276 410.367 19.0035 410.179C19.4029 409.991 19.8376 409.897 20.3075 409.897C20.8243 409.897 21.259 410.002 21.6114 410.214C21.9873 410.402 22.2692 410.672 22.4572 411.024C22.6686 411.353 22.7744 411.729 22.7744 412.152C22.7744 412.622 22.6451 413.033 22.3867 413.386C22.1283 413.715 21.7759 413.95 21.3295 414.09V414.161C21.6819 414.208 21.9873 414.337 22.2457 414.549C22.5042 414.737 22.7039 414.972 22.8449 415.253C22.9858 415.535 23.0563 415.864 23.0563 416.24C23.0563 416.687 22.9388 417.086 22.7039 417.438C22.4689 417.791 22.14 418.073 21.7171 418.284C21.3177 418.496 20.8478 418.601 20.3075 418.601ZM27.4112 418.601C26.8238 418.601 26.3069 418.437 25.8606 418.108C25.4377 417.756 25.1087 417.262 24.8738 416.628C24.6623 415.97 24.5566 415.183 24.5566 414.267C24.5566 413.35 24.6741 412.575 24.909 411.941C25.144 411.283 25.4729 410.778 25.8958 410.425C26.3187 410.073 26.8238 409.897 27.4112 409.897C28.022 409.897 28.5389 410.073 28.9618 410.425C29.3847 410.778 29.7019 411.283 29.9133 411.941C30.1483 412.575 30.2658 413.35 30.2658 414.267C30.2658 415.183 30.1483 415.97 29.9133 416.628C29.7019 417.262 29.3847 417.756 28.9618 418.108C28.5389 418.437 28.022 418.601 27.4112 418.601ZM27.4112 417.897C27.8576 417.897 28.2335 417.756 28.5389 417.474C28.8443 417.168 29.0793 416.745 29.2437 416.205C29.4082 415.665 29.4904 415.019 29.4904 414.267C29.4904 413.491 29.4082 412.834 29.2437 412.293C29.0793 411.753 28.8443 411.342 28.5389 411.06C28.2335 410.754 27.8576 410.602 27.4112 410.602C26.9883 410.602 26.6124 410.754 26.2835 411.06C25.978 411.342 25.7431 411.753 25.5786 412.293C25.4142 412.834 25.3319 413.491 25.3319 414.267C25.3319 415.019 25.4142 415.665 25.5786 416.205C25.7431 416.745 25.978 417.168 26.2835 417.474C26.6124 417.756 26.9883 417.897 27.4112 417.897Z" fill="#8E9198" style="fill:#8E9198;fill:color(display-p3 0.5569 0.5686 0.5961);fill-opacity:1;"/>
<path fill-rule="evenodd" clip-rule="evenodd" d="M37.5668 182.954H45.5668V414.249H37.5668V182.954Z" fill="#DFE2E6" style="fill:#DFE2E6;fill:color(display-p3 0.8745 0.8863 0.9020);fill-opacity:1;"/>
</svg>
