<svg width="42" height="554" viewBox="0 0 42 554" fill="none" xmlns="http://www.w3.org/2000/svg">
<path fill-rule="evenodd" clip-rule="evenodd" d="M35.0039 0.580078H41.0421V553.683H35.0039V0.580078Z" fill="#F6F7F8" style="fill:#F6F7F8;fill:color(display-p3 0.9647 0.9686 0.9725);fill-opacity:1;"/>
<path d="M3.19823 140.74V149.234H2.42292V141.516H2.35244L0.378906 142.961V142.08L2.21147 140.74H3.19823ZM7.61286 149.339C7.14297 149.339 6.72008 149.245 6.34417 149.058C5.96825 148.87 5.66283 148.611 5.42788 148.282C5.21643 147.93 5.11071 147.53 5.11071 147.084H5.88602C5.90952 147.389 5.99175 147.66 6.13272 147.895C6.29718 148.129 6.50863 148.317 6.76706 148.458C7.0255 148.576 7.30744 148.635 7.61286 148.635C7.98877 148.635 8.31769 148.552 8.59963 148.388C8.90505 148.2 9.14 147.953 9.30446 147.648C9.46892 147.319 9.55115 146.955 9.55115 146.555C9.55115 146.156 9.45717 145.804 9.26922 145.498C9.10476 145.169 8.86981 144.922 8.56439 144.758C8.28245 144.57 7.95353 144.476 7.57762 144.476C7.29569 144.476 7.01376 144.523 6.73182 144.617C6.47338 144.711 6.25019 144.84 6.06223 145.005L5.25168 144.899L5.74506 140.74H9.97405V141.481H6.44989L6.09747 144.3H6.16796C6.33242 144.135 6.55561 144.006 6.83755 143.912C7.11948 143.795 7.41316 143.736 7.71859 143.736C8.0945 143.736 8.43517 143.807 8.74059 143.947C9.06952 144.088 9.35145 144.288 9.58639 144.547C9.82134 144.782 10.0093 145.075 10.1503 145.428C10.2912 145.757 10.3617 146.132 10.3617 146.555C10.3617 147.096 10.2442 147.577 10.0093 148C9.77435 148.423 9.44543 148.752 9.02253 148.987C8.62312 149.222 8.15323 149.339 7.61286 149.339ZM12.4393 149.304C12.2514 149.304 12.0986 149.245 11.9812 149.128C11.8637 149.011 11.805 148.858 11.805 148.67C11.805 148.505 11.8637 148.364 11.9812 148.247C12.0986 148.129 12.2514 148.071 12.4393 148.071C12.6038 148.071 12.7447 148.129 12.8622 148.247C12.9797 148.364 13.0384 148.505 13.0384 148.67C13.0384 148.858 12.9797 149.011 12.8622 149.128C12.7447 149.245 12.6038 149.304 12.4393 149.304ZM15.1081 149.234L18.9847 141.516V141.481H14.509V140.74H19.8305V141.516L15.9539 149.234H15.1081ZM23.8496 149.339C23.2622 149.339 22.7454 149.175 22.299 148.846C21.8761 148.494 21.5471 148 21.3122 147.366C21.1008 146.708 20.995 145.921 20.995 145.005C20.995 144.088 21.1125 143.313 21.3474 142.679C21.5824 142.021 21.9113 141.516 22.3342 141.163C22.7571 140.811 23.2622 140.635 23.8496 140.635C24.4605 140.635 24.9773 140.811 25.4002 141.163C25.8231 141.516 26.1403 142.021 26.3518 142.679C26.5867 143.313 26.7042 144.088 26.7042 145.005C26.7042 145.921 26.5867 146.708 26.3518 147.366C26.1403 148 25.8231 148.494 25.4002 148.846C24.9773 149.175 24.4605 149.339 23.8496 149.339ZM23.8496 148.635C24.296 148.635 24.6719 148.494 24.9773 148.212C25.2828 147.906 25.5177 147.483 25.6822 146.943C25.8466 146.403 25.9289 145.757 25.9289 145.005C25.9289 144.229 25.8466 143.572 25.6822 143.031C25.5177 142.491 25.2828 142.08 24.9773 141.798C24.6719 141.492 24.296 141.34 23.8496 141.34C23.4267 141.34 23.0508 141.492 22.7219 141.798C22.4164 142.08 22.1815 142.491 22.017 143.031C21.8526 143.572 21.7703 144.229 21.7703 145.005C21.7703 145.757 21.8526 146.403 22.017 146.943C22.1815 147.483 22.4164 147.906 22.7219 148.212C23.0508 148.494 23.4267 148.635 23.8496 148.635Z" fill="#8E9198" style="fill:#8E9198;fill:color(display-p3 0.5569 0.5686 0.5961);fill-opacity:1;"/>
<path d="M7.14159 390.563C6.78918 390.563 6.44851 390.493 6.11959 390.352C5.79067 390.211 5.48524 389.987 5.20331 389.682C4.94487 389.377 4.73342 388.965 4.56896 388.449C4.4045 387.932 4.32227 387.309 4.32227 386.581C4.32227 385.876 4.381 385.242 4.49847 384.678C4.63944 384.09 4.8274 383.597 5.06234 383.198C5.29728 382.775 5.60271 382.446 5.97862 382.211C6.35453 381.976 6.78918 381.858 7.28256 381.858C7.72895 381.858 8.12836 381.952 8.48077 382.14C8.83319 382.328 9.11512 382.598 9.32657 382.951C9.56152 383.28 9.70248 383.667 9.74947 384.114H8.97416C8.88018 383.667 8.69222 383.303 8.41029 383.021C8.12836 382.716 7.75245 382.563 7.28256 382.563C6.81267 382.563 6.41327 382.716 6.08435 383.021C5.75542 383.303 5.50873 383.726 5.34427 384.29C5.17981 384.83 5.09758 385.488 5.09758 386.264H5.16806C5.28554 386.005 5.45 385.794 5.66145 385.629C5.89639 385.441 6.14308 385.3 6.40152 385.206C6.68345 385.089 6.97713 385.03 7.28256 385.03C7.75245 385.03 8.17535 385.148 8.55126 385.383C8.95066 385.618 9.26784 385.946 9.50278 386.369C9.73772 386.792 9.8552 387.262 9.8552 387.779C9.8552 388.296 9.73772 388.766 9.50278 389.189C9.29133 389.612 8.97416 389.952 8.55126 390.211C8.15185 390.446 7.68196 390.563 7.14159 390.563ZM7.14159 389.858C7.5175 389.858 7.84642 389.764 8.12836 389.576C8.41029 389.388 8.63349 389.142 8.79795 388.836C8.9859 388.507 9.07988 388.155 9.07988 387.779C9.07988 387.403 8.9859 387.062 8.79795 386.757C8.63349 386.452 8.41029 386.205 8.12836 386.017C7.84642 385.829 7.5175 385.735 7.14159 385.735C6.85966 385.735 6.60122 385.794 6.36628 385.911C6.13133 386.029 5.91988 386.193 5.73193 386.405C5.56747 386.593 5.43825 386.816 5.34427 387.074C5.25029 387.309 5.21505 387.556 5.23855 387.814C5.26204 388.214 5.35602 388.566 5.52048 388.871C5.70843 389.177 5.94338 389.424 6.22531 389.612C6.50724 389.776 6.81267 389.858 7.14159 389.858ZM11.8627 390.528C11.6747 390.528 11.522 390.469 11.4045 390.352C11.287 390.234 11.2283 390.081 11.2283 389.893C11.2283 389.729 11.287 389.588 11.4045 389.471C11.522 389.353 11.6747 389.294 11.8627 389.294C12.0271 389.294 12.1681 389.353 12.2856 389.471C12.403 389.588 12.4618 389.729 12.4618 389.893C12.4618 390.081 12.403 390.234 12.2856 390.352C12.1681 390.469 12.0271 390.528 11.8627 390.528ZM16.7445 390.563C16.2041 390.563 15.7225 390.469 15.2996 390.281C14.9002 390.093 14.583 389.835 14.3481 389.506C14.1131 389.153 13.9839 388.754 13.9604 388.308H14.771C14.7945 388.613 14.8885 388.883 15.0529 389.118C15.2409 389.353 15.4758 389.541 15.7577 389.682C16.0397 389.8 16.3686 389.858 16.7445 389.858C17.1204 389.858 17.4493 389.788 17.7313 389.647C18.0367 389.506 18.2716 389.306 18.4361 389.048C18.6241 388.789 18.718 388.496 18.718 388.167C18.718 387.838 18.6241 387.544 18.4361 387.286C18.2716 387.027 18.025 386.827 17.696 386.686C17.3906 386.546 17.0147 386.475 16.5683 386.475H16.0397V385.735H16.5683C16.9207 385.735 17.2379 385.676 17.5198 385.559C17.8018 385.418 18.025 385.23 18.1894 384.995C18.3539 384.736 18.4361 384.455 18.4361 384.149C18.4361 383.844 18.3656 383.573 18.2247 383.339C18.0837 383.08 17.884 382.892 17.6256 382.775C17.3671 382.634 17.0734 382.563 16.7445 382.563C16.4156 382.563 16.1102 382.634 15.8282 382.775C15.5698 382.892 15.3583 383.068 15.1939 383.303C15.0294 383.515 14.9472 383.785 14.9472 384.114H14.1366C14.1601 383.667 14.2893 383.28 14.5243 382.951C14.7592 382.598 15.0647 382.328 15.4406 382.14C15.84 381.952 16.2746 381.858 16.7445 381.858C17.2614 381.858 17.696 381.964 18.0485 382.176C18.4244 382.364 18.7063 382.634 18.8943 382.986C19.1057 383.315 19.2114 383.691 19.2114 384.114C19.2114 384.584 19.0822 384.995 18.8238 385.347C18.5653 385.676 18.2129 385.911 17.7665 386.052V386.123C18.1189 386.17 18.4244 386.299 18.6828 386.51C18.9412 386.698 19.1409 386.933 19.2819 387.215C19.4229 387.497 19.4934 387.826 19.4934 388.202C19.4934 388.648 19.3759 389.048 19.1409 389.4C18.906 389.753 18.5771 390.034 18.1542 390.246C17.7548 390.457 17.2849 390.563 16.7445 390.563ZM23.8482 390.563C23.2609 390.563 22.744 390.399 22.2976 390.07C21.8747 389.717 21.5458 389.224 21.3108 388.59C21.0994 387.932 20.9937 387.145 20.9937 386.228C20.9937 385.312 21.1111 384.537 21.3461 383.902C21.581 383.245 21.91 382.739 22.3329 382.387C22.7558 382.035 23.2609 381.858 23.8482 381.858C24.4591 381.858 24.976 382.035 25.3989 382.387C25.8218 382.739 26.1389 383.245 26.3504 383.902C26.5853 384.537 26.7028 385.312 26.7028 386.228C26.7028 387.145 26.5853 387.932 26.3504 388.59C26.1389 389.224 25.8218 389.717 25.3989 390.07C24.976 390.399 24.4591 390.563 23.8482 390.563ZM23.8482 389.858C24.2946 389.858 24.6705 389.717 24.976 389.435C25.2814 389.13 25.5163 388.707 25.6808 388.167C25.8453 387.626 25.9275 386.98 25.9275 386.228C25.9275 385.453 25.8453 384.795 25.6808 384.255C25.5163 383.714 25.2814 383.303 24.976 383.021C24.6705 382.716 24.2946 382.563 23.8482 382.563C23.4253 382.563 23.0494 382.716 22.7205 383.021C22.4151 383.303 22.1801 383.714 22.0157 384.255C21.8512 384.795 21.769 385.453 21.769 386.228C21.769 386.98 21.8512 387.626 22.0157 388.167C22.1801 388.707 22.4151 389.13 22.7205 389.435C23.0494 389.717 23.4253 389.858 23.8482 389.858Z" fill="#8E9198" style="fill:#8E9198;fill:color(display-p3 0.5569 0.5686 0.5961);fill-opacity:1;"/>
<path fill-rule="evenodd" clip-rule="evenodd" d="M35.0039 141.695H41.0421V388.411H35.0039V141.695Z" fill="#DFE2E6" style="fill:#DFE2E6;fill:color(display-p3 0.8745 0.8863 0.9020);fill-opacity:1;"/>
</svg>
