<svg width="126" height="779" viewBox="0 0 126 779" fill="none" xmlns="http://www.w3.org/2000/svg">
<path d="M118.284 0.493164V778.677" stroke="#F6F7F8" style="stroke:#F6F7F8;stroke:color(display-p3 0.9647 0.9686 0.9725);stroke-opacity:1;" stroke-width="7.42862" stroke-miterlimit="10" stroke-linejoin="round"/>
<path fill-rule="evenodd" clip-rule="evenodd" d="M125.352 391.269V723.736H112.367V391.269H125.352Z" fill="#DFE2E6" style="fill:#DFE2E6;fill:color(display-p3 0.8745 0.8863 0.9020);fill-opacity:1;"/>
<path d="M57.2752 394.141V408.116H55.9588V395.401H55.8748L52.626 397.81V396.353L55.6228 394.141H57.2752ZM64.5284 408.312C63.7442 408.312 63.0441 408.154 62.4279 407.836C61.8117 407.519 61.3169 407.08 60.9435 406.52C60.5888 405.96 60.402 405.316 60.3834 404.587H61.6717C61.709 405.091 61.8491 405.53 62.0918 405.904C62.3532 406.277 62.6893 406.576 63.1001 406.8C63.5295 407.005 64.0056 407.108 64.5284 407.108C65.1633 407.108 65.7141 406.968 66.1809 406.688C66.6663 406.389 67.0398 405.978 67.3012 405.456C67.5812 404.933 67.7213 404.354 67.7213 403.719C67.7213 403.028 67.5719 402.431 67.2732 401.927C66.9931 401.404 66.601 401.002 66.0969 400.722C65.6114 400.424 65.0699 400.274 64.4724 400.274C63.987 400.274 63.5202 400.358 63.0721 400.526C62.6426 400.676 62.2785 400.872 61.9798 401.114L60.6634 400.946L61.4756 394.141H68.4495V395.317H62.5959L62.0358 399.994H62.1198C62.4186 399.714 62.792 399.49 63.2401 399.322C63.6882 399.154 64.1643 399.07 64.6685 399.07C65.2846 399.07 65.8541 399.191 66.3769 399.434C66.9184 399.658 67.3852 399.975 67.7773 400.386C68.1694 400.797 68.4775 401.282 68.7015 401.843C68.9256 402.403 69.0376 403.019 69.0376 403.691C69.0376 404.569 68.8416 405.362 68.4495 406.072C68.0574 406.763 67.5252 407.313 66.853 407.724C66.1809 408.116 65.406 408.312 64.5284 408.312ZM72.4594 408.228C72.1793 408.228 71.9366 408.135 71.7312 407.948C71.5445 407.743 71.4511 407.5 71.4511 407.22C71.4511 406.94 71.5445 406.707 71.7312 406.52C71.9366 406.314 72.1793 406.212 72.4594 406.212C72.7394 406.212 72.9728 406.314 73.1596 406.52C73.3649 406.707 73.4676 406.94 73.4676 407.22C73.4676 407.5 73.3649 407.743 73.1596 407.948C72.9728 408.135 72.7394 408.228 72.4594 408.228ZM76.8815 408.116L83.2112 395.429V395.317H75.9013V394.141H84.6395V395.401L78.2819 408.116H76.8815Z" fill="#8E9198" style="fill:#8E9198;fill:color(display-p3 0.5569 0.5686 0.5961);fill-opacity:1;"/>
<path d="M64.0672 719.389C63.4884 719.389 62.9189 719.277 62.3587 719.053C61.7986 718.81 61.2945 718.437 60.8463 717.933C60.4169 717.41 60.0715 716.729 59.8101 715.888C59.5487 715.048 59.418 714.012 59.418 712.78C59.418 711.641 59.5113 710.604 59.698 709.671C59.9034 708.718 60.2115 707.897 60.6223 707.206C61.0331 706.515 61.5372 705.983 62.1347 705.61C62.7508 705.218 63.4604 705.021 64.2632 705.021C65.0101 705.021 65.6729 705.18 66.2517 705.498C66.8492 705.815 67.3254 706.254 67.6801 706.814C68.0349 707.355 68.2589 707.99 68.3523 708.718H67.064C66.9333 708.009 66.6252 707.421 66.1397 706.954C65.6729 706.469 65.0474 706.226 64.2632 706.226C63.4977 706.226 62.8442 706.469 62.3027 706.954C61.7799 707.421 61.3785 708.102 61.0984 708.999C60.8183 709.895 60.6783 710.996 60.6783 712.303H60.7623C60.9864 711.874 61.2758 711.51 61.6305 711.211C61.9853 710.912 62.3867 710.679 62.8349 710.511C63.283 710.343 63.7591 710.259 64.2632 710.259C65.0474 710.259 65.757 710.455 66.3918 710.847C67.0453 711.239 67.5588 711.781 67.9322 712.471C68.3243 713.144 68.5203 713.918 68.5203 714.796C68.5203 715.636 68.3336 716.402 67.9602 717.093C67.6054 717.783 67.092 718.344 66.4198 718.773C65.7476 719.184 64.9634 719.389 64.0672 719.389ZM64.0672 718.185C64.6647 718.185 65.1968 718.036 65.6636 717.737C66.1491 717.419 66.5318 717.009 66.8119 716.504C67.092 715.982 67.232 715.412 67.232 714.796C67.232 714.161 67.092 713.592 66.8119 713.088C66.5318 712.583 66.1491 712.182 65.6636 711.883C65.1968 711.585 64.6647 711.435 64.0672 711.435C63.6004 711.435 63.1709 711.529 62.7788 711.715C62.3867 711.902 62.0413 712.154 61.7426 712.471C61.4625 712.789 61.2478 713.153 61.0984 713.564C60.949 713.974 60.893 714.413 60.9304 714.88C60.9677 715.515 61.1264 716.084 61.4065 716.588C61.7052 717.074 62.0787 717.466 62.5268 717.765C62.9936 718.045 63.507 718.185 64.0672 718.185ZM71.8128 719.305C71.5327 719.305 71.29 719.212 71.0846 719.025C70.8979 718.82 70.8045 718.577 70.8045 718.297C70.8045 718.017 70.8979 717.783 71.0846 717.597C71.29 717.391 71.5327 717.289 71.8128 717.289C72.0929 717.289 72.3263 717.391 72.513 717.597C72.7184 717.783 72.8211 718.017 72.8211 718.297C72.8211 718.577 72.7184 718.82 72.513 719.025C72.3263 719.212 72.0929 719.305 71.8128 719.305ZM79.856 719.389C78.9784 719.389 78.1942 719.231 77.5034 718.913C76.8312 718.596 76.2991 718.166 75.907 717.625C75.5149 717.065 75.3095 716.411 75.2908 715.664H76.6352C76.6538 716.187 76.8032 716.635 77.0833 717.009C77.382 717.382 77.7648 717.671 78.2316 717.877C78.717 718.082 79.2492 718.185 79.828 718.185C80.4815 718.185 81.051 718.073 81.5364 717.849C82.0219 717.606 82.4047 717.279 82.6847 716.869C82.9648 716.439 83.1049 715.963 83.1049 715.44C83.1049 714.88 82.9555 714.385 82.6567 713.956C82.3767 713.526 81.9659 713.2 81.4244 712.976C80.9016 712.733 80.2761 712.611 79.5479 712.611H78.7357V711.435H79.5479C80.1454 711.435 80.6776 711.332 81.1443 711.127C81.6111 710.903 81.9752 710.595 82.2366 710.203C82.498 709.792 82.6287 709.325 82.6287 708.802C82.6287 708.28 82.5167 707.832 82.2926 707.458C82.0686 707.066 81.7418 706.758 81.3124 706.534C80.9016 706.31 80.4162 706.198 79.856 706.198C79.3332 706.198 78.8477 706.3 78.3996 706.506C77.9515 706.711 77.5874 707.001 77.3073 707.374C77.0459 707.748 76.9059 708.196 76.8872 708.718H75.5989C75.6176 707.99 75.8136 707.355 76.1871 706.814C76.5792 706.254 77.0926 705.815 77.7275 705.498C78.381 705.18 79.0998 705.021 79.884 705.021C80.7056 705.021 81.4151 705.19 82.0126 705.526C82.6287 705.862 83.1049 706.31 83.4409 706.87C83.777 707.43 83.9451 708.046 83.9451 708.718C83.9451 709.521 83.721 710.203 83.2729 710.763C82.8435 711.323 82.2646 711.715 81.5364 711.939V712.023C82.1339 712.135 82.6474 712.35 83.0768 712.667C83.5063 712.985 83.833 713.386 84.0571 713.872C84.2998 714.339 84.4212 714.861 84.4212 715.44C84.4212 716.206 84.2251 716.887 83.833 717.485C83.4409 718.064 82.8995 718.53 82.2086 718.885C81.5178 719.221 80.7336 719.389 79.856 719.389Z" fill="#8E9198" style="fill:#8E9198;fill:color(display-p3 0.5569 0.5686 0.5961);fill-opacity:1;"/>
</svg>
