<svg width="55" height="583" viewBox="0 0 55 583" fill="none" xmlns="http://www.w3.org/2000/svg">
<rect opacity="0.2" width="54.5668" height="582.62" fill="white" style="fill:white;fill-opacity:1;"/>
<path fill-rule="evenodd" clip-rule="evenodd" d="M38.5961 14.7097H44.575V567.91H38.5961V14.7097Z" fill="#F6F7F8" style="fill:#F6F7F8;fill:color(display-p3 0.9647 0.9686 0.9725);fill-opacity:1;"/>
<path d="M16.7739 199.335V198.736L19.558 195.635C19.9104 195.235 20.1923 194.895 20.4038 194.613C20.6152 194.331 20.7679 194.072 20.8619 193.838C20.9794 193.579 21.0381 193.321 21.0381 193.062C21.0381 192.733 20.9559 192.451 20.7914 192.216C20.6505 191.958 20.4508 191.77 20.1923 191.653C19.9339 191.512 19.6402 191.441 19.3113 191.441C18.9824 191.441 18.6887 191.523 18.4302 191.688C18.1718 191.829 17.9721 192.028 17.8311 192.287C17.6902 192.545 17.6197 192.839 17.6197 193.168H16.8444C16.8444 192.698 16.9501 192.287 17.1615 191.934C17.373 191.559 17.6667 191.265 18.0426 191.053C18.4185 190.842 18.8531 190.736 19.3465 190.736C19.8164 190.736 20.2393 190.842 20.6152 191.053C20.9911 191.241 21.2848 191.512 21.4963 191.864C21.7077 192.216 21.8134 192.604 21.8134 193.027C21.8134 193.356 21.7547 193.661 21.6372 193.943C21.5432 194.225 21.3553 194.554 21.0734 194.93C20.8149 195.282 20.4508 195.717 19.9809 196.234L17.9016 198.56V198.595H22.0601V199.335H16.7739ZM26.5766 199.441C25.9893 199.441 25.4724 199.276 25.026 198.948C24.6031 198.595 24.2742 198.102 24.0392 197.467C23.8278 196.81 23.722 196.023 23.722 195.106C23.722 194.19 23.8395 193.415 24.0745 192.78C24.3094 192.122 24.6383 191.617 25.0612 191.265C25.4841 190.912 25.9893 190.736 26.5766 190.736C27.1875 190.736 27.7043 190.912 28.1272 191.265C28.5501 191.617 28.8673 192.122 29.0788 192.78C29.3137 193.415 29.4312 194.19 29.4312 195.106C29.4312 196.023 29.3137 196.81 29.0788 197.467C28.8673 198.102 28.5501 198.595 28.1272 198.948C27.7043 199.276 27.1875 199.441 26.5766 199.441ZM26.5766 198.736C27.023 198.736 27.3989 198.595 27.7043 198.313C28.0098 198.008 28.2447 197.585 28.4092 197.045C28.5736 196.504 28.6559 195.858 28.6559 195.106C28.6559 194.331 28.5736 193.673 28.4092 193.133C28.2447 192.592 28.0098 192.181 27.7043 191.899C27.3989 191.594 27.023 191.441 26.5766 191.441C26.1537 191.441 25.7778 191.594 25.4489 191.899C25.1435 192.181 24.9085 192.592 24.7441 193.133C24.5796 193.673 24.4974 194.331 24.4974 195.106C24.4974 195.858 24.5796 196.504 24.7441 197.045C24.9085 197.585 25.1435 198.008 25.4489 198.313C25.7778 198.595 26.1537 198.736 26.5766 198.736Z" fill="#8E9198" style="fill:#8E9198;fill:color(display-p3 0.5569 0.5686 0.5961);fill-opacity:1;"/>
<path d="M21.8452 383.284V391.778H21.0698V384.06H20.9994L19.0258 385.505V384.624L20.8584 383.284H21.8452ZM26.5769 391.883C25.9895 391.883 25.4727 391.719 25.0263 391.39C24.6034 391.038 24.2744 390.544 24.0395 389.91C23.8281 389.252 23.7223 388.465 23.7223 387.549C23.7223 386.632 23.8398 385.857 24.0747 385.223C24.3097 384.565 24.6386 384.06 25.0615 383.707C25.4844 383.355 25.9895 383.179 26.5769 383.179C27.1877 383.179 27.7046 383.355 28.1275 383.707C28.5504 384.06 28.8676 384.565 29.079 385.223C29.314 385.857 29.4315 386.632 29.4315 387.549C29.4315 388.465 29.314 389.252 29.079 389.91C28.8676 390.544 28.5504 391.038 28.1275 391.39C27.7046 391.719 27.1877 391.883 26.5769 391.883ZM26.5769 391.179C27.0233 391.179 27.3992 391.038 27.7046 390.756C28.0101 390.45 28.245 390.027 28.4095 389.487C28.5739 388.947 28.6561 388.3 28.6561 387.549C28.6561 386.773 28.5739 386.115 28.4095 385.575C28.245 385.035 28.0101 384.624 27.7046 384.342C27.3992 384.036 27.0233 383.884 26.5769 383.884C26.154 383.884 25.7781 384.036 25.4492 384.342C25.1437 384.624 24.9088 385.035 24.7443 385.575C24.5799 386.115 24.4976 386.773 24.4976 387.549C24.4976 388.3 24.5799 388.947 24.7443 389.487C24.9088 390.027 25.1437 390.45 25.4492 390.756C25.7781 391.038 26.154 391.179 26.5769 391.179Z" fill="#8E9198" style="fill:#8E9198;fill:color(display-p3 0.5569 0.5686 0.5961);fill-opacity:1;"/>
<path fill-rule="evenodd" clip-rule="evenodd" d="M37.5668 195.089H45.5668V387.531H37.5668V195.089Z" fill="#DFE2E6" style="fill:#DFE2E6;fill:color(display-p3 0.8745 0.8863 0.9020);fill-opacity:1;"/>
</svg>
