<svg width="450" height="230" viewBox="0 0 450 230" fill="none" xmlns="http://www.w3.org/2000/svg">
<rect width="449.453" height="211.454" fill="black" style="fill:black;fill-opacity:1;"/>
<path d="M91.4637 172.166C64.3597 172.166 43.0637 152.982 43.0637 124.294V93.3182C43.0637 64.6302 64.3597 45.4462 91.4637 45.4462C102.552 45.4462 112.056 48.6142 119.272 53.5422V73.6062C112.232 66.3902 102.728 62.3422 91.9917 62.3422C73.6877 62.3422 61.0157 74.6622 61.0157 93.1422V124.47C61.0157 142.95 73.6877 155.27 91.9917 155.27C102.728 155.27 112.232 151.222 119.272 144.006V164.07C112.056 168.998 102.552 172.166 91.4637 172.166ZM170.001 172.166C145.185 172.166 125.825 154.214 125.825 127.462V89.6222C125.825 63.3982 145.185 45.4462 170.001 45.4462C194.465 45.4462 213.825 63.3982 213.825 89.6222V127.462C213.825 154.214 194.465 172.166 170.001 172.166ZM143.777 129.398C143.777 144.886 154.865 155.27 170.001 155.27C184.785 155.27 195.873 144.886 195.873 129.398V88.2142C195.873 72.7262 184.785 62.3422 170.001 62.3422C154.865 62.3422 143.777 72.7262 143.777 88.2142V129.398ZM286.518 170.406L246.39 109.51V170.406H228.438V47.2062H266.806C292.678 47.2062 306.934 64.1022 306.934 84.5182V84.8702C306.934 102.646 295.142 117.958 273.67 120.598L306.758 170.406H286.518ZM246.39 105.286H266.63C279.654 105.286 288.454 96.8382 288.454 84.6942V84.3422C288.454 72.3742 279.654 63.5742 266.63 63.5742H246.39V105.286ZM320.481 170.406V47.2062H387.185V63.5742H338.433V101.238H384.369V117.782H338.433V154.038H387.185V170.406H320.481Z" fill="white" style="fill:white;fill-opacity:1;"/>
</svg>
