<svg width="55" height="583" viewBox="0 0 55 583" fill="none" xmlns="http://www.w3.org/2000/svg">
<rect opacity="0.2" width="54.5668" height="582.62" fill="white" style="fill:white;fill-opacity:1;"/>
<path fill-rule="evenodd" clip-rule="evenodd" d="M38.561 14.7097H44.5993V567.91H38.561V14.7097Z" fill="#F6F7F8" style="fill:#F6F7F8;fill:color(display-p3 0.9647 0.9686 0.9725);fill-opacity:1;"/>
<path d="M5.42913 50.0098C4.88876 50.0098 4.40712 49.9158 3.98422 49.7279C3.56133 49.5164 3.22066 49.2345 2.96222 48.8821C2.72727 48.5296 2.6098 48.1302 2.6098 47.6838C2.6098 47.3314 2.68029 47.0025 2.82125 46.6971C2.98571 46.3917 3.19716 46.1332 3.4556 45.9218C3.71404 45.7103 3.99597 45.5694 4.3014 45.4989V45.4636C3.8785 45.3462 3.53783 45.1112 3.27939 44.7588C3.04445 44.3829 2.92698 43.9717 2.92698 43.5253C2.92698 43.1024 3.0327 42.7265 3.24415 42.3976C3.4556 42.0452 3.74928 41.775 4.12519 41.5871C4.5246 41.3991 4.95924 41.3051 5.42913 41.3051C5.89902 41.3051 6.32192 41.3991 6.69783 41.5871C7.09723 41.775 7.40266 42.0452 7.61411 42.3976C7.82556 42.7265 7.93128 43.1024 7.93128 43.5253C7.93128 43.9717 7.80206 44.3829 7.54363 44.7588C7.30868 45.1112 6.97976 45.3462 6.55686 45.4636V45.4989C6.88578 45.5694 7.16771 45.7103 7.40266 45.9218C7.6611 46.1332 7.8608 46.3917 8.00177 46.6971C8.16623 47.0025 8.24846 47.3314 8.24846 47.6838C8.24846 48.1302 8.11924 48.5296 7.8608 48.8821C7.62586 49.2345 7.29693 49.5164 6.87403 49.7279C6.45114 49.9158 5.9695 50.0098 5.42913 50.0098ZM5.42913 49.305C5.82853 49.305 6.18095 49.2345 6.48638 49.0935C6.7918 48.9525 7.02675 48.7528 7.19121 48.4944C7.35567 48.236 7.4379 47.954 7.4379 47.6486C7.4379 47.2962 7.34392 46.9908 7.15597 46.7323C6.99151 46.4739 6.75656 46.2624 6.45114 46.098C6.14571 45.9335 5.80504 45.8513 5.42913 45.8513C5.05322 45.8513 4.71255 45.9335 4.40712 46.098C4.1017 46.2624 3.85501 46.4739 3.66705 46.7323C3.50259 46.9908 3.42036 47.2962 3.42036 47.6486C3.42036 47.954 3.50259 48.236 3.66705 48.4944C3.83151 48.7528 4.06645 48.9525 4.37188 49.0935C4.67731 49.2345 5.02972 49.305 5.42913 49.305ZM5.42913 45.1817C5.75805 45.1817 6.05173 45.1112 6.31017 44.9702C6.56861 44.8293 6.76831 44.6413 6.90928 44.4064C7.07374 44.1714 7.15597 43.8895 7.15597 43.5606C7.15597 43.2552 7.08548 42.985 6.94452 42.75C6.80355 42.5151 6.5921 42.3389 6.31017 42.2214C6.05173 42.0804 5.75805 42.01 5.42913 42.01C5.10021 42.01 4.80653 42.0804 4.54809 42.2214C4.28965 42.3389 4.0782 42.5151 3.91374 42.75C3.77277 42.985 3.70229 43.2552 3.70229 43.5606C3.70229 43.8895 3.77277 44.1714 3.91374 44.4064C4.0782 44.6413 4.28965 44.8293 4.54809 44.9702C4.80653 45.1112 5.10021 45.1817 5.42913 45.1817ZM12.2783 50.0098C11.8084 50.0098 11.3855 49.9158 11.0096 49.7279C10.6337 49.5399 10.3283 49.2815 10.0933 48.9525C9.88189 48.6001 9.77617 48.2007 9.77617 47.7543H10.5515C10.575 48.0598 10.6572 48.3299 10.7982 48.5649C10.9626 48.7998 11.1741 48.9878 11.4325 49.1288C11.691 49.2462 11.9729 49.305 12.2783 49.305C12.6542 49.305 12.9832 49.2227 13.2651 49.0583C13.5705 48.8703 13.8055 48.6236 13.9699 48.3182C14.1344 47.9893 14.2166 47.6251 14.2166 47.2257C14.2166 46.8263 14.1226 46.4739 13.9347 46.1685C13.7702 45.8395 13.5353 45.5928 13.2298 45.4284C12.9479 45.2404 12.619 45.1465 12.2431 45.1465C11.9611 45.1465 11.6792 45.1934 11.3973 45.2874C11.1388 45.3814 10.9156 45.5106 10.7277 45.6751L9.91713 45.5694L10.4105 41.4108H14.6395V42.1509H11.1153L10.7629 44.9702H10.8334C10.9979 44.8058 11.2211 44.6766 11.503 44.5826C11.7849 44.4651 12.0786 44.4064 12.384 44.4064C12.76 44.4064 13.1006 44.4769 13.4061 44.6178C13.735 44.7588 14.0169 44.9585 14.2518 45.2169C14.4868 45.4519 14.6747 45.7456 14.8157 46.098C14.9567 46.4269 15.0272 46.8028 15.0272 47.2257C15.0272 47.7661 14.9097 48.2477 14.6747 48.6706C14.4398 49.0935 14.1109 49.4224 13.688 49.6574C13.2886 49.8923 12.8187 50.0098 12.2783 50.0098ZM17.1048 49.9746C16.9168 49.9746 16.7641 49.9158 16.6466 49.7983C16.5292 49.6809 16.4704 49.5282 16.4704 49.3402C16.4704 49.1757 16.5292 49.0348 16.6466 48.9173C16.7641 48.7998 16.9168 48.7411 17.1048 48.7411C17.2692 48.7411 17.4102 48.7998 17.5277 48.9173C17.6451 49.0348 17.7039 49.1757 17.7039 49.3402C17.7039 49.5282 17.6451 49.6809 17.5277 49.7983C17.4102 49.9158 17.2692 49.9746 17.1048 49.9746ZM19.6921 49.9041V49.305L22.4762 46.2037C22.8286 45.8043 23.1106 45.4636 23.322 45.1817C23.5335 44.8998 23.6862 44.6413 23.7802 44.4064C23.8976 44.1479 23.9564 43.8895 23.9564 43.6311C23.9564 43.3021 23.8741 43.0202 23.7097 42.7853C23.5687 42.5268 23.369 42.3389 23.1106 42.2214C22.8521 42.0804 22.5584 42.01 22.2295 42.01C21.9006 42.01 21.6069 42.0922 21.3485 42.2566C21.09 42.3976 20.8903 42.5973 20.7494 42.8557C20.6084 43.1142 20.5379 43.4079 20.5379 43.7368H19.7626C19.7626 43.2669 19.8683 42.8557 20.0798 42.5033C20.2912 42.1274 20.5849 41.8337 20.9608 41.6223C21.3367 41.4108 21.7714 41.3051 22.2648 41.3051C22.7347 41.3051 23.1576 41.4108 23.5335 41.6223C23.9094 41.8102 24.2031 42.0804 24.4145 42.4328C24.626 42.7853 24.7317 43.1729 24.7317 43.5958C24.7317 43.9247 24.6729 44.2302 24.5555 44.5121C24.4615 44.794 24.2735 45.123 23.9916 45.4989C23.7332 45.8513 23.369 46.2859 22.8991 46.8028L20.8199 49.1288V49.164H24.9784V49.9041H19.6921ZM29.4949 50.0098C28.9075 50.0098 28.3906 49.8453 27.9442 49.5164C27.5213 49.164 27.1924 48.6706 26.9575 48.0363C26.746 47.3784 26.6403 46.5914 26.6403 45.6751C26.6403 44.7588 26.7578 43.9835 26.9927 43.3491C27.2277 42.6913 27.5566 42.1862 27.9795 41.8337C28.4024 41.4813 28.9075 41.3051 29.4949 41.3051C30.1057 41.3051 30.6226 41.4813 31.0455 41.8337C31.4684 42.1862 31.7856 42.6913 31.997 43.3491C32.232 43.9835 32.3494 44.7588 32.3494 45.6751C32.3494 46.5914 32.232 47.3784 31.997 48.0363C31.7856 48.6706 31.4684 49.164 31.0455 49.5164C30.6226 49.8453 30.1057 50.0098 29.4949 50.0098ZM29.4949 49.305C29.9413 49.305 30.3172 49.164 30.6226 48.8821C30.928 48.5766 31.163 48.1537 31.3274 47.6134C31.4919 47.073 31.5741 46.4269 31.5741 45.6751C31.5741 44.8998 31.4919 44.2419 31.3274 43.7015C31.163 43.1612 30.928 42.75 30.6226 42.4681C30.3172 42.1627 29.9413 42.01 29.4949 42.01C29.072 42.01 28.6961 42.1627 28.3671 42.4681C28.0617 42.75 27.8268 43.1612 27.6623 43.7015C27.4978 44.2419 27.4156 44.8998 27.4156 45.6751C27.4156 46.4269 27.4978 47.073 27.6623 47.6134C27.8268 48.1537 28.0617 48.5766 28.3671 48.8821C28.6961 49.164 29.072 49.305 29.4949 49.305Z" fill="#8E9198" style="fill:#8E9198;fill:color(display-p3 0.5569 0.5686 0.5961);fill-opacity:1;"/>
<path d="M13.181 546.654C12.6406 546.654 12.159 546.56 11.7361 546.372C11.3367 546.184 11.0195 545.925 10.7846 545.596C10.5496 545.244 10.4204 544.844 10.3969 544.398H11.2075C11.231 544.703 11.3249 544.974 11.4894 545.209C11.6774 545.444 11.9123 545.632 12.1942 545.772C12.4762 545.89 12.8051 545.949 13.181 545.949C13.5569 545.949 13.8858 545.878 14.1678 545.737C14.4732 545.596 14.7081 545.397 14.8726 545.138C15.0605 544.88 15.1545 544.586 15.1545 544.257C15.1545 543.928 15.0605 543.634 14.8726 543.376C14.7081 543.118 14.4614 542.918 14.1325 542.777C13.8271 542.636 13.4512 542.566 13.0048 542.566H12.4762V541.825H13.0048C13.3572 541.825 13.6744 541.767 13.9563 541.649C14.2382 541.508 14.4614 541.32 14.6259 541.085C14.7904 540.827 14.8726 540.545 14.8726 540.24C14.8726 539.934 14.8021 539.664 14.6611 539.429C14.5202 539.171 14.3205 538.983 14.062 538.865C13.8036 538.724 13.5099 538.654 13.181 538.654C12.8521 538.654 12.5466 538.724 12.2647 538.865C12.0063 538.983 11.7948 539.159 11.6304 539.394C11.4659 539.605 11.3837 539.875 11.3837 540.204H10.5731C10.5966 539.758 10.7258 539.37 10.9608 539.041C11.1957 538.689 11.5011 538.419 11.8771 538.231C12.2765 538.043 12.7111 537.949 13.181 537.949C13.6979 537.949 14.1325 538.055 14.4849 538.266C14.8608 538.454 15.1428 538.724 15.3307 539.077C15.5422 539.406 15.6479 539.781 15.6479 540.204C15.6479 540.674 15.5187 541.085 15.2603 541.438C15.0018 541.767 14.6494 542.002 14.203 542.143V542.213C14.5554 542.26 14.8608 542.389 15.1193 542.601C15.3777 542.789 15.5774 543.024 15.7184 543.306C15.8594 543.588 15.9298 543.916 15.9298 544.292C15.9298 544.739 15.8124 545.138 15.5774 545.491C15.3425 545.843 15.0136 546.125 14.5907 546.336C14.1913 546.548 13.7214 546.654 13.181 546.654ZM18.0844 546.618C17.8964 546.618 17.7437 546.56 17.6263 546.442C17.5088 546.325 17.45 546.172 17.45 545.984C17.45 545.819 17.5088 545.679 17.6263 545.561C17.7437 545.444 17.8964 545.385 18.0844 545.385C18.2489 545.385 18.3898 545.444 18.5073 545.561C18.6248 545.679 18.6835 545.819 18.6835 545.984C18.6835 546.172 18.6248 546.325 18.5073 546.442C18.3898 546.56 18.2489 546.618 18.0844 546.618ZM20.7532 546.548L24.6298 538.83V538.795H20.1541V538.055H25.4756V538.83L21.599 546.548H20.7532ZM29.4947 546.654C28.9073 546.654 28.3905 546.489 27.9441 546.16C27.5212 545.808 27.1922 545.314 26.9573 544.68C26.7458 544.022 26.6401 543.235 26.6401 542.319C26.6401 541.403 26.7576 540.627 26.9925 539.993C27.2275 539.335 27.5564 538.83 27.9793 538.477C28.4022 538.125 28.9073 537.949 29.4947 537.949C30.1055 537.949 30.6224 538.125 31.0453 538.477C31.4682 538.83 31.7854 539.335 31.9968 539.993C32.2318 540.627 32.3493 541.403 32.3493 542.319C32.3493 543.235 32.2318 544.022 31.9968 544.68C31.7854 545.314 31.4682 545.808 31.0453 546.16C30.6224 546.489 30.1055 546.654 29.4947 546.654ZM29.4947 545.949C29.9411 545.949 30.317 545.808 30.6224 545.526C30.9278 545.22 31.1628 544.797 31.3273 544.257C31.4917 543.717 31.5739 543.071 31.5739 542.319C31.5739 541.543 31.4917 540.886 31.3273 540.345C31.1628 539.805 30.9278 539.394 30.6224 539.112C30.317 538.806 29.9411 538.654 29.4947 538.654C29.0718 538.654 28.6959 538.806 28.367 539.112C28.0615 539.394 27.8266 539.805 27.6621 540.345C27.4977 540.886 27.4154 541.543 27.4154 542.319C27.4154 543.071 27.4977 543.717 27.6621 544.257C27.8266 544.797 28.0615 545.22 28.367 545.526C28.6959 545.808 29.0718 545.949 29.4947 545.949Z" fill="#8E9198" style="fill:#8E9198;fill:color(display-p3 0.5569 0.5686 0.5961);fill-opacity:1;"/>
<path fill-rule="evenodd" clip-rule="evenodd" d="M37.561 45.6575H45.561V542.301H37.561V45.6575Z" fill="#DFE2E6" style="fill:#DFE2E6;fill:color(display-p3 0.8745 0.8863 0.9020);fill-opacity:1;"/>
</svg>
