<svg width="43" height="554" viewBox="0 0 43 554" fill="none" xmlns="http://www.w3.org/2000/svg">
<path fill-rule="evenodd" clip-rule="evenodd" d="M35.3477 0.580078H41.3859V553.683H35.3477V0.580078Z" fill="#F6F7F8" style="fill:#F6F7F8;fill:color(display-p3 0.9647 0.9686 0.9725);fill-opacity:1;"/>
<path d="M3.54198 140.74V149.234H2.76667V141.516H2.69619L0.722656 142.961V142.08L2.55522 140.74H3.54198ZM7.95661 149.339C7.48672 149.339 7.06383 149.245 6.68792 149.058C6.312 148.87 6.00658 148.611 5.77163 148.282C5.56018 147.93 5.45446 147.53 5.45446 147.084H6.22977C6.25327 147.389 6.3355 147.66 6.47647 147.895C6.64093 148.129 6.85238 148.317 7.11081 148.458C7.36925 148.576 7.65119 148.635 7.95661 148.635C8.33252 148.635 8.66144 148.552 8.94338 148.388C9.2488 148.2 9.48375 147.953 9.64821 147.648C9.81267 147.319 9.8949 146.955 9.8949 146.555C9.8949 146.156 9.80092 145.804 9.61297 145.498C9.44851 145.169 9.21356 144.922 8.90814 144.758C8.6262 144.57 8.29728 144.476 7.92137 144.476C7.63944 144.476 7.35751 144.523 7.07557 144.617C6.81713 144.711 6.59394 144.84 6.40598 145.005L5.59543 144.899L6.08881 140.74H10.3178V141.481H6.79364L6.44122 144.3H6.51171C6.67617 144.135 6.89936 144.006 7.1813 143.912C7.46323 143.795 7.75691 143.736 8.06234 143.736C8.43825 143.736 8.77892 143.807 9.08434 143.947C9.41327 144.088 9.6952 144.288 9.93014 144.547C10.1651 144.782 10.353 145.075 10.494 145.428C10.635 145.757 10.7055 146.132 10.7055 146.555C10.7055 147.096 10.588 147.577 10.353 148C10.1181 148.423 9.78918 148.752 9.36628 148.987C8.96687 149.222 8.49698 149.339 7.95661 149.339ZM12.7831 149.304C12.5951 149.304 12.4424 149.245 12.3249 149.128C12.2074 149.011 12.1487 148.858 12.1487 148.67C12.1487 148.505 12.2074 148.364 12.3249 148.247C12.4424 148.129 12.5951 148.071 12.7831 148.071C12.9475 148.071 13.0885 148.129 13.206 148.247C13.3234 148.364 13.3822 148.505 13.3822 148.67C13.3822 148.858 13.3234 149.011 13.206 149.128C13.0885 149.245 12.9475 149.304 12.7831 149.304ZM15.4519 149.234L19.3284 141.516V141.481H14.8527V140.74H20.1742V141.516L16.2977 149.234H15.4519ZM24.1934 149.339C23.606 149.339 23.0891 149.175 22.6427 148.846C22.2198 148.494 21.8909 148 21.656 147.366C21.4445 146.708 21.3388 145.921 21.3388 145.005C21.3388 144.088 21.4563 143.313 21.6912 142.679C21.9261 142.021 22.2551 141.516 22.678 141.163C23.1009 140.811 23.606 140.635 24.1934 140.635C24.8042 140.635 25.3211 140.811 25.744 141.163C26.1669 141.516 26.4841 142.021 26.6955 142.679C26.9304 143.313 27.0479 144.088 27.0479 145.005C27.0479 145.921 26.9304 146.708 26.6955 147.366C26.4841 148 26.1669 148.494 25.744 148.846C25.3211 149.175 24.8042 149.339 24.1934 149.339ZM24.1934 148.635C24.6397 148.635 25.0157 148.494 25.3211 148.212C25.6265 147.906 25.8615 147.483 26.0259 146.943C26.1904 146.403 26.2726 145.757 26.2726 145.005C26.2726 144.229 26.1904 143.572 26.0259 143.031C25.8615 142.491 25.6265 142.08 25.3211 141.798C25.0157 141.492 24.6397 141.34 24.1934 141.34C23.7705 141.34 23.3945 141.492 23.0656 141.798C22.7602 142.08 22.5252 142.491 22.3608 143.031C22.1963 143.572 22.1141 144.229 22.1141 145.005C22.1141 145.757 22.1963 146.403 22.3608 146.943C22.5252 147.483 22.7602 147.906 23.0656 148.212C23.3945 148.494 23.7705 148.635 24.1934 148.635Z" fill="#8E9198" style="fill:#8E9198;fill:color(display-p3 0.5569 0.5686 0.5961);fill-opacity:1;"/>
<path d="M7.48534 390.563C7.13293 390.563 6.79226 390.493 6.46334 390.352C6.13442 390.211 5.82899 389.987 5.54706 389.682C5.28862 389.377 5.07717 388.965 4.91271 388.449C4.74825 387.932 4.66602 387.309 4.66602 386.581C4.66602 385.876 4.72475 385.242 4.84222 384.678C4.98319 384.09 5.17115 383.597 5.40609 383.198C5.64103 382.775 5.94646 382.446 6.32237 382.211C6.69828 381.976 7.13293 381.858 7.62631 381.858C8.0727 381.858 8.47211 381.952 8.82452 382.14C9.17694 382.328 9.45887 382.598 9.67032 382.951C9.90527 383.28 10.0462 383.667 10.0932 384.114H9.31791C9.22393 383.667 9.03597 383.303 8.75404 383.021C8.47211 382.716 8.0962 382.563 7.62631 382.563C7.15642 382.563 6.75702 382.716 6.4281 383.021C6.09917 383.303 5.85248 383.726 5.68802 384.29C5.52356 384.83 5.44133 385.488 5.44133 386.264H5.51181C5.62929 386.005 5.79375 385.794 6.0052 385.629C6.24014 385.441 6.48683 385.3 6.74527 385.206C7.0272 385.089 7.32088 385.03 7.62631 385.03C8.0962 385.03 8.5191 385.148 8.89501 385.383C9.29441 385.618 9.61159 385.946 9.84653 386.369C10.0815 386.792 10.1989 387.262 10.1989 387.779C10.1989 388.296 10.0815 388.766 9.84653 389.189C9.63508 389.612 9.31791 389.952 8.89501 390.211C8.4956 390.446 8.02571 390.563 7.48534 390.563ZM7.48534 389.858C7.86125 389.858 8.19017 389.764 8.47211 389.576C8.75404 389.388 8.97724 389.142 9.1417 388.836C9.32965 388.507 9.42363 388.155 9.42363 387.779C9.42363 387.403 9.32965 387.062 9.1417 386.757C8.97724 386.452 8.75404 386.205 8.47211 386.017C8.19017 385.829 7.86125 385.735 7.48534 385.735C7.20341 385.735 6.94497 385.794 6.71003 385.911C6.47508 386.029 6.26363 386.193 6.07568 386.405C5.91122 386.593 5.782 386.816 5.68802 387.074C5.59404 387.309 5.5588 387.556 5.5823 387.814C5.60579 388.214 5.69977 388.566 5.86423 388.871C6.05218 389.177 6.28713 389.424 6.56906 389.612C6.85099 389.776 7.15642 389.858 7.48534 389.858ZM12.2064 390.528C12.0185 390.528 11.8657 390.469 11.7483 390.352C11.6308 390.234 11.5721 390.081 11.5721 389.893C11.5721 389.729 11.6308 389.588 11.7483 389.471C11.8657 389.353 12.0185 389.294 12.2064 389.294C12.3709 389.294 12.5118 389.353 12.6293 389.471C12.7468 389.588 12.8055 389.729 12.8055 389.893C12.8055 390.081 12.7468 390.234 12.6293 390.352C12.5118 390.469 12.3709 390.528 12.2064 390.528ZM17.0883 390.563C16.5479 390.563 16.0663 390.469 15.6434 390.281C15.244 390.093 14.9268 389.835 14.6918 389.506C14.4569 389.153 14.3277 388.754 14.3042 388.308H15.1147C15.1382 388.613 15.2322 388.883 15.3967 389.118C15.5846 389.353 15.8196 389.541 16.1015 389.682C16.3834 389.8 16.7124 389.858 17.0883 389.858C17.4642 389.858 17.7931 389.788 18.075 389.647C18.3805 389.506 18.6154 389.306 18.7799 389.048C18.9678 388.789 19.0618 388.496 19.0618 388.167C19.0618 387.838 18.9678 387.544 18.7799 387.286C18.6154 387.027 18.3687 386.827 18.0398 386.686C17.7344 386.546 17.3584 386.475 16.9121 386.475H16.3834V385.735H16.9121C17.2645 385.735 17.5816 385.676 17.8636 385.559C18.1455 385.418 18.3687 385.23 18.5332 384.995C18.6976 384.736 18.7799 384.455 18.7799 384.149C18.7799 383.844 18.7094 383.573 18.5684 383.339C18.4274 383.08 18.2277 382.892 17.9693 382.775C17.7109 382.634 17.4172 382.563 17.0883 382.563C16.7593 382.563 16.4539 382.634 16.172 382.775C15.9135 382.892 15.7021 383.068 15.5376 383.303C15.3732 383.515 15.2909 383.785 15.2909 384.114H14.4804C14.5039 383.667 14.6331 383.28 14.868 382.951C15.103 382.598 15.4084 382.328 15.7843 382.14C16.1837 381.952 16.6184 381.858 17.0883 381.858C17.6051 381.858 18.0398 381.964 18.3922 382.176C18.7681 382.364 19.05 382.634 19.238 382.986C19.4495 383.315 19.5552 383.691 19.5552 384.114C19.5552 384.584 19.426 384.995 19.1675 385.347C18.9091 385.676 18.5567 385.911 18.1103 386.052V386.123C18.4627 386.17 18.7681 386.299 19.0266 386.51C19.285 386.698 19.4847 386.933 19.6257 387.215C19.7666 387.497 19.8371 387.826 19.8371 388.202C19.8371 388.648 19.7196 389.048 19.4847 389.4C19.2497 389.753 18.9208 390.034 18.4979 390.246C18.0985 390.457 17.6286 390.563 17.0883 390.563ZM24.192 390.563C23.6046 390.563 23.0878 390.399 22.6414 390.07C22.2185 389.717 21.8895 389.224 21.6546 388.59C21.4431 387.932 21.3374 387.145 21.3374 386.228C21.3374 385.312 21.4549 384.537 21.6898 383.902C21.9248 383.245 22.2537 382.739 22.6766 382.387C23.0995 382.035 23.6046 381.858 24.192 381.858C24.8028 381.858 25.3197 382.035 25.7426 382.387C26.1655 382.739 26.4827 383.245 26.6941 383.902C26.9291 384.537 27.0466 385.312 27.0466 386.228C27.0466 387.145 26.9291 387.932 26.6941 388.59C26.4827 389.224 26.1655 389.717 25.7426 390.07C25.3197 390.399 24.8028 390.563 24.192 390.563ZM24.192 389.858C24.6384 389.858 25.0143 389.717 25.3197 389.435C25.6251 389.13 25.8601 388.707 26.0246 388.167C26.189 387.626 26.2712 386.98 26.2712 386.228C26.2712 385.453 26.189 384.795 26.0246 384.255C25.8601 383.714 25.6251 383.303 25.3197 383.021C25.0143 382.716 24.6384 382.563 24.192 382.563C23.7691 382.563 23.3932 382.716 23.0643 383.021C22.7588 383.303 22.5239 383.714 22.3594 384.255C22.195 384.795 22.1127 385.453 22.1127 386.228C22.1127 386.98 22.195 387.626 22.3594 388.167C22.5239 388.707 22.7588 389.13 23.0643 389.435C23.3932 389.717 23.7691 389.858 24.192 389.858Z" fill="#8E9198" style="fill:#8E9198;fill:color(display-p3 0.5569 0.5686 0.5961);fill-opacity:1;"/>
<path fill-rule="evenodd" clip-rule="evenodd" d="M34.3477 141.695H42.3477V388.411H34.3477V141.695Z" fill="#DFE2E6" style="fill:#DFE2E6;fill:color(display-p3 0.8745 0.8863 0.9020);fill-opacity:1;"/>
</svg>
