<svg width="55" height="583" viewBox="0 0 55 583" fill="none" xmlns="http://www.w3.org/2000/svg">
<rect opacity="0.2" width="54.5668" height="582.62" fill="white" style="fill:white;fill-opacity:1;"/>
<path fill-rule="evenodd" clip-rule="evenodd" d="M38.5668 14.7097H44.605V567.91H38.5668V14.7097Z" fill="#F6F7F8" style="fill:#F6F7F8;fill:color(display-p3 0.9647 0.9686 0.9725);fill-opacity:1;"/>
<path d="M10.0386 27.5996C9.45123 27.5996 8.93435 27.4352 8.48796 27.1062C8.06506 26.7538 7.73614 26.2604 7.5012 25.6261C7.28975 24.9682 7.18402 24.1812 7.18402 23.2649C7.18402 22.3486 7.30149 21.5733 7.53644 20.939C7.77138 20.2811 8.1003 19.776 8.5232 19.4236C8.9461 19.0712 9.45123 18.8949 10.0386 18.8949C10.6494 18.8949 11.1663 19.0712 11.5892 19.4236C12.0121 19.776 12.3293 20.2811 12.5407 20.939C12.7757 21.5733 12.8932 22.3486 12.8932 23.2649C12.8932 24.1812 12.7757 24.9682 12.5407 25.6261C12.3293 26.2604 12.0121 26.7538 11.5892 27.1062C11.1663 27.4352 10.6494 27.5996 10.0386 27.5996ZM10.0386 26.8948C10.485 26.8948 10.8609 26.7538 11.1663 26.4719C11.4717 26.1665 11.7067 25.7436 11.8712 25.2032C12.0356 24.6628 12.1178 24.0167 12.1178 23.2649C12.1178 22.4896 12.0356 21.8317 11.8712 21.2914C11.7067 20.751 11.4717 20.3399 11.1663 20.0579C10.8609 19.7525 10.485 19.5998 10.0386 19.5998C9.61569 19.5998 9.23978 19.7525 8.91086 20.0579C8.60543 20.3399 8.37049 20.751 8.20603 21.2914C8.04157 21.8317 7.95934 22.4896 7.95934 23.2649C7.95934 24.0167 8.04157 24.6628 8.20603 25.2032C8.37049 25.7436 8.60543 26.1665 8.91086 26.4719C9.23978 26.7538 9.61569 26.8948 10.0386 26.8948ZM15.0092 27.5644C14.8212 27.5644 14.6685 27.5056 14.551 27.3882C14.4336 27.2707 14.3748 27.118 14.3748 26.93C14.3748 26.7656 14.4336 26.6246 14.551 26.5071C14.6685 26.3897 14.8212 26.3309 15.0092 26.3309C15.1736 26.3309 15.3146 26.3897 15.4321 26.5071C15.5495 26.6246 15.6083 26.7656 15.6083 26.93C15.6083 27.118 15.5495 27.2707 15.4321 27.3882C15.3146 27.5056 15.1736 27.5644 15.0092 27.5644ZM19.7573 27.5996C19.2874 27.5996 18.8645 27.5056 18.4886 27.3177C18.1127 27.1297 17.8073 26.8713 17.5723 26.5424C17.3609 26.19 17.2551 25.7906 17.2551 25.3442H18.0304C18.0539 25.6496 18.1362 25.9198 18.2771 26.1547C18.4416 26.3897 18.653 26.5776 18.9115 26.7186C19.1699 26.8361 19.4519 26.8948 19.7573 26.8948C20.1332 26.8948 20.4621 26.8126 20.744 26.6481C21.0495 26.4601 21.2844 26.2135 21.4489 25.908C21.6133 25.5791 21.6956 25.2149 21.6956 24.8155C21.6956 24.4161 21.6016 24.0637 21.4136 23.7583C21.2492 23.4294 21.0142 23.1827 20.7088 23.0182C20.4269 22.8303 20.098 22.7363 19.722 22.7363C19.4401 22.7363 19.1582 22.7833 18.8762 22.8772C18.6178 22.9712 18.3946 23.1004 18.2067 23.2649L17.3961 23.1592L17.8895 19.0007H22.1185V19.7407H18.5943L18.2419 22.5601H18.3124C18.4768 22.3956 18.7 22.2664 18.982 22.1724C19.2639 22.0549 19.5576 21.9962 19.863 21.9962C20.2389 21.9962 20.5796 22.0667 20.885 22.2077C21.2139 22.3486 21.4959 22.5483 21.7308 22.8068C21.9658 23.0417 22.1537 23.3354 22.2947 23.6878C22.4356 24.0167 22.5061 24.3926 22.5061 24.8155C22.5061 25.3559 22.3887 25.8375 22.1537 26.2604C21.9188 26.6833 21.5898 27.0123 21.1669 27.2472C20.7675 27.4821 20.2977 27.5996 19.7573 27.5996ZM23.9808 25.6613V25.027L27.7516 19.0007H28.245V20.0932H27.8926L24.8971 24.886V24.9565H29.8309V25.6613H23.9808ZM27.9278 27.4939V25.4851V25.168V19.0007H28.7384V27.4939H27.9278Z" fill="#8E9198" style="fill:#8E9198;fill:color(display-p3 0.5569 0.5686 0.5961);fill-opacity:1;"/>
<path d="M9.89797 563.725C9.31061 563.725 8.79373 563.56 8.34733 563.231C7.92444 562.879 7.59551 562.386 7.36057 561.751C7.14912 561.093 7.0434 560.306 7.0434 559.39C7.0434 558.474 7.16087 557.698 7.39581 557.064C7.63076 556.406 7.95968 555.901 8.38258 555.549C8.80548 555.196 9.31061 555.02 9.89797 555.02C10.5088 555.02 11.0257 555.196 11.4486 555.549C11.8715 555.901 12.1887 556.406 12.4001 557.064C12.6351 557.698 12.7525 558.474 12.7525 559.39C12.7525 560.306 12.6351 561.093 12.4001 561.751C12.1887 562.386 11.8715 562.879 11.4486 563.231C11.0257 563.56 10.5088 563.725 9.89797 563.725ZM9.89797 563.02C10.3444 563.02 10.7203 562.879 11.0257 562.597C11.3311 562.292 11.5661 561.869 11.7305 561.328C11.895 560.788 11.9772 560.142 11.9772 559.39C11.9772 558.615 11.895 557.957 11.7305 557.416C11.5661 556.876 11.3311 556.465 11.0257 556.183C10.7203 555.878 10.3444 555.725 9.89797 555.725C9.47507 555.725 9.09916 555.878 8.77023 556.183C8.46481 556.465 8.22986 556.876 8.0654 557.416C7.90094 557.957 7.81871 558.615 7.81871 559.39C7.81871 560.142 7.90094 560.788 8.0654 561.328C8.22986 561.869 8.46481 562.292 8.77023 562.597C9.09916 562.879 9.47507 563.02 9.89797 563.02ZM14.8685 563.689C14.6806 563.689 14.5279 563.631 14.4104 563.513C14.2929 563.396 14.2342 563.243 14.2342 563.055C14.2342 562.891 14.2929 562.75 14.4104 562.632C14.5279 562.515 14.6806 562.456 14.8685 562.456C15.033 562.456 15.174 562.515 15.2914 562.632C15.4089 562.75 15.4677 562.891 15.4677 563.055C15.4677 563.243 15.4089 563.396 15.2914 563.513C15.174 563.631 15.033 563.689 14.8685 563.689ZM19.8028 563.725C19.2154 563.725 18.6985 563.56 18.2521 563.231C17.8293 562.879 17.5003 562.386 17.2654 561.751C17.0539 561.093 16.9482 560.306 16.9482 559.39C16.9482 558.474 17.0657 557.698 17.3006 557.064C17.5356 556.406 17.8645 555.901 18.2874 555.549C18.7103 555.196 19.2154 555.02 19.8028 555.02C20.4136 555.02 20.9305 555.196 21.3534 555.549C21.7763 555.901 22.0935 556.406 22.3049 557.064C22.5399 557.698 22.6573 558.474 22.6573 559.39C22.6573 560.306 22.5399 561.093 22.3049 561.751C22.0935 562.386 21.7763 562.879 21.3534 563.231C20.9305 563.56 20.4136 563.725 19.8028 563.725ZM19.8028 563.02C20.2492 563.02 20.6251 562.879 20.9305 562.597C21.2359 562.292 21.4709 561.869 21.6353 561.328C21.7998 560.788 21.882 560.142 21.882 559.39C21.882 558.615 21.7998 557.957 21.6353 557.416C21.4709 556.876 21.2359 556.465 20.9305 556.183C20.6251 555.878 20.2492 555.725 19.8028 555.725C19.3799 555.725 19.004 555.878 18.675 556.183C18.3696 556.465 18.1347 556.876 17.9702 557.416C17.8058 557.957 17.7235 558.615 17.7235 559.39C17.7235 560.142 17.8058 560.788 17.9702 561.328C18.1347 561.869 18.3696 562.292 18.675 562.597C19.004 562.879 19.3799 563.02 19.8028 563.02ZM24.3649 563.619V563.02L27.149 559.919C27.5014 559.519 27.7833 559.179 27.9948 558.897C28.2062 558.615 28.359 558.356 28.4529 558.121C28.5704 557.863 28.6291 557.604 28.6291 557.346C28.6291 557.017 28.5469 556.735 28.3825 556.5C28.2415 556.242 28.0418 556.054 27.7833 555.936C27.5249 555.795 27.2312 555.725 26.9023 555.725C26.5734 555.725 26.2797 555.807 26.0213 555.972C25.7628 556.113 25.5631 556.312 25.4222 556.571C25.2812 556.829 25.2107 557.123 25.2107 557.452H24.4354C24.4354 556.982 24.5411 556.571 24.7526 556.218C24.964 555.842 25.2577 555.549 25.6336 555.337C26.0095 555.126 26.4442 555.02 26.9376 555.02C27.4074 555.02 27.8303 555.126 28.2062 555.337C28.5822 555.525 28.8758 555.795 29.0873 556.148C29.2987 556.5 29.4045 556.888 29.4045 557.311C29.4045 557.64 29.3457 557.945 29.2283 558.227C29.1343 558.509 28.9463 558.838 28.6644 559.214C28.406 559.566 28.0418 560.001 27.5719 560.518L25.4926 562.844V562.879H29.6512V563.619H24.3649Z" fill="#8E9198" style="fill:#8E9198;fill:color(display-p3 0.5569 0.5686 0.5961);fill-opacity:1;"/>
<path fill-rule="evenodd" clip-rule="evenodd" d="M37.5668 23.2473H45.5668V559.372H37.5668V23.2473Z" fill="#DFE2E6" style="fill:#DFE2E6;fill:color(display-p3 0.8745 0.8863 0.9020);fill-opacity:1;"/>
</svg>
