<svg width="68" height="581" viewBox="0 0 68 581" fill="none" xmlns="http://www.w3.org/2000/svg">
<path fill-rule="evenodd" clip-rule="evenodd" d="M54.4434 14.5801H60.4815V561.503H54.4434V14.5801Z" fill="#F6F7F8" style="fill:#F6F7F8;fill:color(display-p3 0.9647 0.9686 0.9725);fill-opacity:1;"/>
<path d="M25.9151 18.2281C25.3278 18.2281 24.8109 18.0637 24.3645 17.7347C23.9416 17.3823 23.6127 16.8889 23.3777 16.2546C23.1663 15.5967 23.0605 14.8097 23.0605 13.8934C23.0605 12.9771 23.178 12.2018 23.413 11.5674C23.6479 10.9096 23.9768 10.4045 24.3997 10.0521C24.8226 9.69965 25.3278 9.52344 25.9151 9.52344C26.526 9.52344 27.0428 9.69965 27.4657 10.0521C27.8886 10.4045 28.2058 10.9096 28.4173 11.5674C28.6522 12.2018 28.7697 12.9771 28.7697 13.8934C28.7697 14.8097 28.6522 15.5967 28.4173 16.2546C28.2058 16.8889 27.8886 17.3823 27.4657 17.7347C27.0428 18.0637 26.526 18.2281 25.9151 18.2281ZM25.9151 17.5233C26.3615 17.5233 26.7374 17.3823 27.0428 17.1004C27.3483 16.795 27.5832 16.3721 27.7477 15.8317C27.9121 15.2913 27.9944 14.6452 27.9944 13.8934C27.9944 13.1181 27.9121 12.4602 27.7477 11.9199C27.5832 11.3795 27.3483 10.9683 27.0428 10.6864C26.7374 10.381 26.3615 10.2283 25.9151 10.2283C25.4922 10.2283 25.1163 10.381 24.7874 10.6864C24.482 10.9683 24.247 11.3795 24.0826 11.9199C23.9181 12.4602 23.8359 13.1181 23.8359 13.8934C23.8359 14.6452 23.9181 15.2913 24.0826 15.8317C24.247 16.3721 24.482 16.795 24.7874 17.1004C25.1163 17.3823 25.4922 17.5233 25.9151 17.5233ZM30.8857 18.1929C30.6977 18.1929 30.545 18.1341 30.4276 18.0167C30.3101 17.8992 30.2513 17.7465 30.2513 17.5585C30.2513 17.3941 30.3101 17.2531 30.4276 17.1356C30.545 17.0181 30.6977 16.9594 30.8857 16.9594C31.0502 16.9594 31.1911 17.0181 31.3086 17.1356C31.4261 17.2531 31.4848 17.3941 31.4848 17.5585C31.4848 17.7465 31.4261 17.8992 31.3086 18.0167C31.1911 18.1341 31.0502 18.1929 30.8857 18.1929ZM35.6338 18.2281C35.1639 18.2281 34.741 18.1341 34.3651 17.9462C33.9892 17.7582 33.6838 17.4998 33.4488 17.1709C33.2374 16.8184 33.1317 16.419 33.1317 15.9726H33.907C33.9305 16.2781 34.0127 16.5483 34.1537 16.7832C34.3181 17.0181 34.5296 17.2061 34.788 17.3471C35.0465 17.4645 35.3284 17.5233 35.6338 17.5233C36.0097 17.5233 36.3386 17.441 36.6206 17.2766C36.926 17.0886 37.1609 16.8419 37.3254 16.5365C37.4899 16.2076 37.5721 15.8434 37.5721 15.444C37.5721 15.0446 37.4781 14.6922 37.2902 14.3868C37.1257 14.0579 36.8908 13.8112 36.5853 13.6467C36.3034 13.4587 35.9745 13.3648 35.5986 13.3648C35.3166 13.3648 35.0347 13.4118 34.7528 13.5057C34.4943 13.5997 34.2711 13.7289 34.0832 13.8934L33.2726 13.7877L33.766 9.62916H37.995V10.3692H34.4708L34.1184 13.1886H34.1889C34.3534 13.0241 34.5766 12.8949 34.8585 12.8009C35.1404 12.6834 35.4341 12.6247 35.7395 12.6247C36.1154 12.6247 36.4561 12.6952 36.7615 12.8361C37.0905 12.9771 37.3724 13.1768 37.6073 13.4353C37.8423 13.6702 38.0302 13.9639 38.1712 14.3163C38.3122 14.6452 38.3827 15.0211 38.3827 15.444C38.3827 15.9844 38.2652 16.466 38.0302 16.8889C37.7953 17.3118 37.4664 17.6408 37.0435 17.8757C36.6441 18.1106 36.1742 18.2281 35.6338 18.2281ZM39.8573 16.2898V15.6555L43.6281 9.62916H44.1215V10.7217H43.7691L40.7736 15.5145V15.585H45.7074V16.2898H39.8573ZM43.8044 18.1224V16.1136V15.7964V9.62916H44.6149V18.1224H43.8044Z" fill="#8E9198" style="fill:#8E9198;fill:color(display-p3 0.5569 0.5686 0.5961);fill-opacity:1;"/>
<path d="M25.7745 548.847C25.1871 548.847 24.6703 548.683 24.2239 548.354C23.801 548.001 23.472 547.508 23.2371 546.874C23.0256 546.216 22.9199 545.429 22.9199 544.513C22.9199 543.596 23.0374 542.821 23.2723 542.187C23.5073 541.529 23.8362 541.024 24.2591 540.671C24.682 540.319 25.1871 540.143 25.7745 540.143C26.3853 540.143 26.9022 540.319 27.3251 540.671C27.748 541.024 28.0652 541.529 28.2766 542.187C28.5116 542.821 28.6291 543.596 28.6291 544.513C28.6291 545.429 28.5116 546.216 28.2766 546.874C28.0652 547.508 27.748 548.001 27.3251 548.354C26.9022 548.683 26.3853 548.847 25.7745 548.847ZM25.7745 548.142C26.2209 548.142 26.5968 548.001 26.9022 547.72C27.2076 547.414 27.4426 546.991 27.6071 546.451C27.7715 545.91 27.8537 545.264 27.8537 544.513C27.8537 543.737 27.7715 543.079 27.6071 542.539C27.4426 541.999 27.2076 541.587 26.9022 541.306C26.5968 541 26.2209 540.847 25.7745 540.847C25.3516 540.847 24.9757 541 24.6468 541.306C24.3413 541.587 24.1064 541.999 23.9419 542.539C23.7775 543.079 23.6952 543.737 23.6952 544.513C23.6952 545.264 23.7775 545.91 23.9419 546.451C24.1064 546.991 24.3413 547.414 24.6468 547.72C24.9757 548.001 25.3516 548.142 25.7745 548.142ZM30.7451 548.812C30.5571 548.812 30.4044 548.753 30.2869 548.636C30.1695 548.518 30.1107 548.366 30.1107 548.178C30.1107 548.013 30.1695 547.872 30.2869 547.755C30.4044 547.637 30.5571 547.579 30.7451 547.579C30.9095 547.579 31.0505 547.637 31.168 547.755C31.2854 547.872 31.3442 548.013 31.3442 548.178C31.3442 548.366 31.2854 548.518 31.168 548.636C31.0505 548.753 30.9095 548.812 30.7451 548.812ZM35.6793 548.847C35.0919 548.847 34.5751 548.683 34.1287 548.354C33.7058 548.001 33.3769 547.508 33.1419 546.874C32.9305 546.216 32.8247 545.429 32.8247 544.513C32.8247 543.596 32.9422 542.821 33.1772 542.187C33.4121 541.529 33.741 541.024 34.1639 540.671C34.5868 540.319 35.0919 540.143 35.6793 540.143C36.2902 540.143 36.807 540.319 37.2299 540.671C37.6528 541.024 37.97 541.529 38.1815 542.187C38.4164 542.821 38.5339 543.596 38.5339 544.513C38.5339 545.429 38.4164 546.216 38.1815 546.874C37.97 547.508 37.6528 548.001 37.2299 548.354C36.807 548.683 36.2902 548.847 35.6793 548.847ZM35.6793 548.142C36.1257 548.142 36.5016 548.001 36.807 547.72C37.1125 547.414 37.3474 546.991 37.5119 546.451C37.6763 545.91 37.7586 545.264 37.7586 544.513C37.7586 543.737 37.6763 543.079 37.5119 542.539C37.3474 541.999 37.1125 541.587 36.807 541.306C36.5016 541 36.1257 540.847 35.6793 540.847C35.2564 540.847 34.8805 541 34.5516 541.306C34.2461 541.587 34.0112 541.999 33.8467 542.539C33.6823 543.079 33.6001 543.737 33.6001 544.513C33.6001 545.264 33.6823 545.91 33.8467 546.451C34.0112 546.991 34.2461 547.414 34.5516 547.72C34.8805 548.001 35.2564 548.142 35.6793 548.142ZM40.2414 548.742V548.142L43.0255 545.041C43.3779 544.642 43.6599 544.301 43.8713 544.019C44.0828 543.737 44.2355 543.479 44.3295 543.244C44.4469 542.985 44.5057 542.727 44.5057 542.469C44.5057 542.14 44.4234 541.858 44.259 541.623C44.118 541.364 43.9183 541.176 43.6599 541.059C43.4014 540.918 43.1078 540.847 42.7788 540.847C42.4499 540.847 42.1562 540.93 41.8978 541.094C41.6394 541.235 41.4397 541.435 41.2987 541.693C41.1577 541.952 41.0872 542.245 41.0872 542.574H40.3119C40.3119 542.104 40.4176 541.693 40.6291 541.341C40.8405 540.965 41.1342 540.671 41.5101 540.46C41.886 540.248 42.3207 540.143 42.8141 540.143C43.284 540.143 43.7069 540.248 44.0828 540.46C44.4587 540.648 44.7524 540.918 44.9638 541.27C45.1753 541.623 45.281 542.01 45.281 542.433C45.281 542.762 45.2223 543.068 45.1048 543.35C45.0108 543.631 44.8228 543.96 44.5409 544.336C44.2825 544.689 43.9183 545.123 43.4484 545.64L41.3692 547.966V548.001H45.5277V548.742H40.2414Z" fill="#8E9198" style="fill:#8E9198;fill:color(display-p3 0.5569 0.5686 0.5961);fill-opacity:1;"/>
<path fill-rule="evenodd" clip-rule="evenodd" d="M53.4434 10.9727H61.4434V547.098H53.4434V10.9727Z" fill="#DFE2E6" style="fill:#DFE2E6;fill:color(display-p3 0.8745 0.8863 0.9020);fill-opacity:1;"/>
</svg>
