<svg width="55" height="583" viewBox="0 0 55 583" fill="none" xmlns="http://www.w3.org/2000/svg">
<rect opacity="0.2" width="54.5668" height="582.62" fill="white" style="fill:white;fill-opacity:1;"/>
<path fill-rule="evenodd" clip-rule="evenodd" d="M38.561 14.7097H44.5992V567.91H38.561V14.7097Z" fill="#F6F7F8" style="fill:#F6F7F8;fill:color(display-p3 0.9647 0.9686 0.9725);fill-opacity:1;"/>
<path d="M11.7728 25.2596C11.2324 25.2596 10.7508 25.1656 10.3279 24.9777C9.92848 24.7897 9.61131 24.5313 9.37637 24.2024C9.14142 23.85 9.0122 23.4506 8.98871 23.0042H9.79927C9.82276 23.3096 9.91674 23.5798 10.0812 23.8147C10.2692 24.0497 10.5041 24.2376 10.786 24.3786C11.068 24.4961 11.3969 24.5548 11.7728 24.5548C12.1487 24.5548 12.4776 24.4843 12.7596 24.3433C13.065 24.2024 13.2999 24.0027 13.4644 23.7442C13.6523 23.4858 13.7463 23.1921 13.7463 22.8632C13.7463 22.5343 13.6523 22.2406 13.4644 21.9822C13.2999 21.7237 13.0532 21.524 12.7243 21.383C12.4189 21.2421 12.043 21.1716 11.5966 21.1716H11.068V20.4315H11.5966C11.949 20.4315 12.2662 20.3728 12.5481 20.2553C12.83 20.1144 13.0532 19.9264 13.2177 19.6915C13.3822 19.433 13.4644 19.1511 13.4644 18.8457C13.4644 18.5402 13.3939 18.27 13.2529 18.0351C13.112 17.7767 12.9123 17.5887 12.6538 17.4712C12.3954 17.3303 12.1017 17.2598 11.7728 17.2598C11.4439 17.2598 11.1384 17.3303 10.8565 17.4712C10.5981 17.5887 10.3866 17.7649 10.2222 17.9999C10.0577 18.2113 9.97547 18.4815 9.97547 18.8104H9.16492C9.18841 18.364 9.31763 17.9764 9.55257 17.6474C9.78752 17.295 10.0929 17.0248 10.4689 16.8369C10.8683 16.6489 11.3029 16.555 11.7728 16.555C12.2897 16.555 12.7243 16.6607 13.0767 16.8721C13.4526 17.0601 13.7346 17.3303 13.9225 17.6827C14.134 18.0116 14.2397 18.3875 14.2397 18.8104C14.2397 19.2803 14.1105 19.6915 13.852 20.0439C13.5936 20.3728 13.2412 20.6077 12.7948 20.7487V20.8192C13.1472 20.8662 13.4526 20.9954 13.7111 21.2068C13.9695 21.3948 14.1692 21.6297 14.3102 21.9117C14.4512 22.1936 14.5216 22.5225 14.5216 22.8984C14.5216 23.3448 14.4042 23.7442 14.1692 24.0967C13.9343 24.4491 13.6054 24.731 13.1825 24.9424C12.7831 25.1539 12.3132 25.2596 11.7728 25.2596ZM16.6762 25.2244C16.4882 25.2244 16.3355 25.1656 16.2181 25.0482C16.1006 24.9307 16.0418 24.778 16.0418 24.59C16.0418 24.4256 16.1006 24.2846 16.2181 24.1671C16.3355 24.0497 16.4882 23.9909 16.6762 23.9909C16.8407 23.9909 16.9816 24.0497 17.0991 24.1671C17.2166 24.2846 17.2753 24.4256 17.2753 24.59C17.2753 24.778 17.2166 24.9307 17.0991 25.0482C16.9816 25.1656 16.8407 25.2244 16.6762 25.2244ZM20.7572 16.6607V25.1539H19.9819V17.436H19.9114L17.9379 18.8809V17.9999L19.7704 16.6607H20.7572ZM25.489 25.2596C24.9016 25.2596 24.3848 25.0952 23.9384 24.7662C23.5155 24.4138 23.1866 23.9204 22.9516 23.2861C22.7402 22.6283 22.6344 21.8412 22.6344 20.9249C22.6344 20.0086 22.7519 19.2333 22.9868 18.599C23.2218 17.9411 23.5507 17.436 23.9736 17.0836C24.3965 16.7312 24.9016 16.555 25.489 16.555C26.0999 16.555 26.6167 16.7312 27.0396 17.0836C27.4625 17.436 27.7797 17.9411 27.9912 18.599C28.2261 19.2333 28.3436 20.0086 28.3436 20.9249C28.3436 21.8412 28.2261 22.6283 27.9912 23.2861C27.7797 23.9204 27.4625 24.4138 27.0396 24.7662C26.6167 25.0952 26.0999 25.2596 25.489 25.2596ZM25.489 24.5548C25.9354 24.5548 26.3113 24.4138 26.6167 24.1319C26.9222 23.8265 27.1571 23.4036 27.3216 22.8632C27.486 22.3228 27.5683 21.6767 27.5683 20.9249C27.5683 20.1496 27.486 19.4918 27.3216 18.9514C27.1571 18.411 26.9222 17.9999 26.6167 17.7179C26.3113 17.4125 25.9354 17.2598 25.489 17.2598C25.0661 17.2598 24.6902 17.4125 24.3613 17.7179C24.0558 17.9999 23.8209 18.411 23.6564 18.9514C23.492 19.4918 23.4097 20.1496 23.4097 20.9249C23.4097 21.6767 23.492 22.3228 23.6564 22.8632C23.8209 23.4036 24.0558 23.8265 24.3613 24.1319C24.6902 24.4138 25.0661 24.5548 25.489 24.5548Z" fill="#8E9198" style="fill:#8E9198;fill:color(display-p3 0.5569 0.5686 0.5961);fill-opacity:1;"/>
<path d="M11.7105 566.065C11.1231 566.065 10.6062 565.9 10.1598 565.571C9.73694 565.219 9.40801 564.725 9.17307 564.091C8.96162 563.433 8.8559 562.646 8.8559 561.73C8.8559 560.814 8.97337 560.038 9.20831 559.404C9.44326 558.746 9.77218 558.241 10.1951 557.889C10.618 557.536 11.1231 557.36 11.7105 557.36C12.3213 557.36 12.8382 557.536 13.2611 557.889C13.684 558.241 14.0012 558.746 14.2126 559.404C14.4476 560.038 14.565 560.814 14.565 561.73C14.565 562.646 14.4476 563.433 14.2126 564.091C14.0012 564.725 13.684 565.219 13.2611 565.571C12.8382 565.9 12.3213 566.065 11.7105 566.065ZM11.7105 565.36C12.1569 565.36 12.5328 565.219 12.8382 564.937C13.1436 564.632 13.3786 564.209 13.543 563.668C13.7075 563.128 13.7897 562.482 13.7897 561.73C13.7897 560.955 13.7075 560.297 13.543 559.756C13.3786 559.216 13.1436 558.805 12.8382 558.523C12.5328 558.218 12.1569 558.065 11.7105 558.065C11.2876 558.065 10.9117 558.218 10.5827 558.523C10.2773 558.805 10.0424 559.216 9.8779 559.756C9.71344 560.297 9.63121 560.955 9.63121 561.73C9.63121 562.482 9.71344 563.128 9.8779 563.668C10.0424 564.209 10.2773 564.632 10.5827 564.937C10.9117 565.219 11.2876 565.36 11.7105 565.36ZM16.6811 566.029C16.4932 566.029 16.3404 565.971 16.223 565.853C16.1055 565.736 16.0468 565.583 16.0468 565.395C16.0468 565.231 16.1055 565.09 16.223 564.972C16.3404 564.855 16.4932 564.796 16.6811 564.796C16.8456 564.796 16.9865 564.855 17.104 564.972C17.2215 565.09 17.2802 565.231 17.2802 565.395C17.2802 565.583 17.2215 565.736 17.104 565.853C16.9865 565.971 16.8456 566.029 16.6811 566.029ZM20.7622 557.466V565.959H19.9869V558.241H19.9164L17.9429 559.686V558.805L19.7754 557.466H20.7622ZM25.4939 566.065C24.9066 566.065 24.3897 565.9 23.9433 565.571C23.5204 565.219 23.1915 564.725 22.9565 564.091C22.7451 563.433 22.6394 562.646 22.6394 561.73C22.6394 560.814 22.7568 560.038 22.9918 559.404C23.2267 558.746 23.5556 558.241 23.9785 557.889C24.4014 557.536 24.9066 557.36 25.4939 557.36C26.1048 557.36 26.6217 557.536 27.0446 557.889C27.4674 558.241 27.7846 558.746 27.9961 559.404C28.231 560.038 28.3485 560.814 28.3485 561.73C28.3485 562.646 28.231 563.433 27.9961 564.091C27.7846 564.725 27.4674 565.219 27.0446 565.571C26.6217 565.9 26.1048 566.065 25.4939 566.065ZM25.4939 565.36C25.9403 565.36 26.3162 565.219 26.6217 564.937C26.9271 564.632 27.162 564.209 27.3265 563.668C27.4909 563.128 27.5732 562.482 27.5732 561.73C27.5732 560.955 27.4909 560.297 27.3265 559.756C27.162 559.216 26.9271 558.805 26.6217 558.523C26.3162 558.218 25.9403 558.065 25.4939 558.065C25.071 558.065 24.6951 558.218 24.3662 558.523C24.0608 558.805 23.8258 559.216 23.6614 559.756C23.4969 560.297 23.4147 560.955 23.4147 561.73C23.4147 562.482 23.4969 563.128 23.6614 563.668C23.8258 564.209 24.0608 564.632 24.3662 564.937C24.6951 565.219 25.071 565.36 25.4939 565.36Z" fill="#8E9198" style="fill:#8E9198;fill:color(display-p3 0.5569 0.5686 0.5961);fill-opacity:1;"/>
<path fill-rule="evenodd" clip-rule="evenodd" d="M37.561 20.9073H45.561V561.712H37.561V20.9073Z" fill="#DFE2E6" style="fill:#DFE2E6;fill:color(display-p3 0.8745 0.8863 0.9020);fill-opacity:1;"/>
</svg>
