<svg width="40" height="553" viewBox="0 0 40 553" fill="none" xmlns="http://www.w3.org/2000/svg">
<path fill-rule="evenodd" clip-rule="evenodd" d="M32.4434 5.58008H38.4815V552.503H32.4434V5.58008Z" fill="#F6F7F8" style="fill:#F6F7F8;fill:color(display-p3 0.9647 0.9686 0.9725);fill-opacity:1;"/>
<path d="M3.91512 9.22811C3.32776 9.22811 2.81088 9.06365 2.36449 8.73473C1.94159 8.38231 1.61267 7.88893 1.37772 7.25458C1.16627 6.59674 1.06055 5.80968 1.06055 4.89339C1.06055 3.97711 1.17802 3.2018 1.41296 2.56745C1.64791 1.90961 1.97683 1.40448 2.39973 1.05206C2.82263 0.699645 3.32776 0.523438 3.91512 0.523438C4.52597 0.523438 5.04285 0.699645 5.46575 1.05206C5.88865 1.40448 6.20582 1.90961 6.41727 2.56745C6.65221 3.2018 6.76968 3.97711 6.76968 4.89339C6.76968 5.80968 6.65221 6.59674 6.41727 7.25458C6.20582 7.88893 5.88865 8.38231 5.46575 8.73473C5.04285 9.06365 4.52597 9.22811 3.91512 9.22811ZM3.91512 8.52328C4.36151 8.52328 4.73742 8.38231 5.04285 8.10038C5.34827 7.79495 5.58322 7.37205 5.74768 6.83168C5.91214 6.29131 5.99437 5.64522 5.99437 4.89339C5.99437 4.11808 5.91214 3.46024 5.74768 2.91987C5.58322 2.37949 5.34827 1.96834 5.04285 1.68641C4.73742 1.38098 4.36151 1.22827 3.91512 1.22827C3.49222 1.22827 3.11631 1.38098 2.78738 1.68641C2.48196 1.96834 2.24701 2.37949 2.08255 2.91987C1.91809 3.46024 1.83586 4.11808 1.83586 4.89339C1.83586 5.64522 1.91809 6.29131 2.08255 6.83168C2.24701 7.37205 2.48196 7.79495 2.78738 8.10038C3.11631 8.38231 3.49222 8.52328 3.91512 8.52328ZM8.88569 9.19287C8.69774 9.19287 8.54503 9.13413 8.42755 9.01666C8.31008 8.89919 8.25135 8.74648 8.25135 8.55852C8.25135 8.39406 8.31008 8.25309 8.42755 8.13562C8.54503 8.01815 8.69774 7.95941 8.88569 7.95941C9.05016 7.95941 9.19112 8.01815 9.30859 8.13562C9.42607 8.25309 9.4848 8.39406 9.4848 8.55852C9.4848 8.74648 9.42607 8.89919 9.30859 9.01666C9.19112 9.13413 9.05016 9.19287 8.88569 9.19287ZM13.6338 9.22811C13.1639 9.22811 12.741 9.13413 12.3651 8.94618C11.9892 8.75822 11.6838 8.49978 11.4488 8.17086C11.2374 7.81845 11.1317 7.41904 11.1317 6.97265H11.907C11.9305 7.27808 12.0127 7.54826 12.1537 7.78321C12.3181 8.01815 12.5296 8.2061 12.788 8.34707C13.0465 8.46454 13.3284 8.52328 13.6338 8.52328C14.0097 8.52328 14.3386 8.44105 14.6206 8.27659C14.926 8.08863 15.1609 7.84194 15.3254 7.53651C15.4899 7.20759 15.5721 6.84343 15.5721 6.44403C15.5721 6.04462 15.4781 5.6922 15.2902 5.38678C15.1257 5.05786 14.8908 4.81116 14.5853 4.6467C14.3034 4.45875 13.9745 4.36477 13.5986 4.36477C13.3166 4.36477 13.0347 4.41176 12.7528 4.50574C12.4943 4.59972 12.2711 4.72893 12.0832 4.89339L11.2726 4.78767L11.766 0.629162H15.995V1.36924H12.4708L12.1184 4.18856H12.1889C12.3534 4.0241 12.5766 3.89488 12.8585 3.80091C13.1404 3.68343 13.4341 3.6247 13.7395 3.6247C14.1154 3.6247 14.4561 3.69518 14.7615 3.83615C15.0905 3.97711 15.3724 4.17682 15.6073 4.43525C15.8423 4.6702 16.0302 4.96388 16.1712 5.31629C16.3122 5.64522 16.3827 6.02113 16.3827 6.44403C16.3827 6.9844 16.2652 7.46603 16.0302 7.88893C15.7953 8.31183 15.4664 8.64075 15.0435 8.87569C14.6441 9.11064 14.1742 9.22811 13.6338 9.22811ZM17.8573 7.28982V6.65547L21.6281 0.629162H22.1215V1.72165H21.7691L18.7736 6.51451V6.58499H23.7074V7.28982H17.8573ZM21.8044 9.12239V7.11362V6.79644V0.629162H22.6149V9.12239H21.8044Z" fill="#8E9198" style="fill:#8E9198;fill:color(display-p3 0.5569 0.5686 0.5961);fill-opacity:1;"/>
<path d="M3.77449 539.847C3.18713 539.847 2.67025 539.683 2.22386 539.354C1.80096 539.001 1.47204 538.508 1.2371 537.874C1.02565 537.216 0.919922 536.429 0.919922 535.513C0.919922 534.596 1.03739 533.821 1.27234 533.187C1.50728 532.529 1.8362 532.024 2.2591 531.671C2.682 531.319 3.18713 531.143 3.77449 531.143C4.38535 531.143 4.90222 531.319 5.32512 531.671C5.74802 532.024 6.06519 532.529 6.27664 533.187C6.51159 533.821 6.62906 534.596 6.62906 535.513C6.62906 536.429 6.51159 537.216 6.27664 537.874C6.06519 538.508 5.74802 539.001 5.32512 539.354C4.90222 539.683 4.38535 539.847 3.77449 539.847ZM3.77449 539.142C4.22088 539.142 4.59679 539.001 4.90222 538.72C5.20765 538.414 5.44259 537.991 5.60705 537.451C5.77151 536.91 5.85374 536.264 5.85374 535.513C5.85374 534.737 5.77151 534.079 5.60705 533.539C5.44259 532.999 5.20765 532.587 4.90222 532.306C4.59679 532 4.22088 531.847 3.77449 531.847C3.35159 531.847 2.97568 532 2.64676 532.306C2.34133 532.587 2.10639 532.999 1.94193 533.539C1.77747 534.079 1.69524 534.737 1.69524 535.513C1.69524 536.264 1.77747 536.91 1.94193 537.451C2.10639 537.991 2.34133 538.414 2.64676 538.72C2.97568 539.001 3.35159 539.142 3.77449 539.142ZM8.74507 539.812C8.55711 539.812 8.4044 539.753 8.28693 539.636C8.16946 539.518 8.11072 539.366 8.11072 539.178C8.11072 539.013 8.16946 538.872 8.28693 538.755C8.4044 538.637 8.55711 538.579 8.74507 538.579C8.90953 538.579 9.0505 538.637 9.16797 538.755C9.28544 538.872 9.34418 539.013 9.34418 539.178C9.34418 539.366 9.28544 539.518 9.16797 539.636C9.0505 539.753 8.90953 539.812 8.74507 539.812ZM13.6793 539.847C13.0919 539.847 12.5751 539.683 12.1287 539.354C11.7058 539.001 11.3769 538.508 11.1419 537.874C10.9305 537.216 10.8247 536.429 10.8247 535.513C10.8247 534.596 10.9422 533.821 11.1772 533.187C11.4121 532.529 11.741 532.024 12.1639 531.671C12.5868 531.319 13.0919 531.143 13.6793 531.143C14.2902 531.143 14.807 531.319 15.2299 531.671C15.6528 532.024 15.97 532.529 16.1815 533.187C16.4164 533.821 16.5339 534.596 16.5339 535.513C16.5339 536.429 16.4164 537.216 16.1815 537.874C15.97 538.508 15.6528 539.001 15.2299 539.354C14.807 539.683 14.2902 539.847 13.6793 539.847ZM13.6793 539.142C14.1257 539.142 14.5016 539.001 14.807 538.72C15.1125 538.414 15.3474 537.991 15.5119 537.451C15.6763 536.91 15.7586 536.264 15.7586 535.513C15.7586 534.737 15.6763 534.079 15.5119 533.539C15.3474 532.999 15.1125 532.587 14.807 532.306C14.5016 532 14.1257 531.847 13.6793 531.847C13.2564 531.847 12.8805 532 12.5516 532.306C12.2461 532.587 12.0112 532.999 11.8467 533.539C11.6823 534.079 11.6001 534.737 11.6001 535.513C11.6001 536.264 11.6823 536.91 11.8467 537.451C12.0112 537.991 12.2461 538.414 12.5516 538.72C12.8805 539.001 13.2564 539.142 13.6793 539.142ZM18.2414 539.742V539.142L21.0255 536.041C21.3779 535.642 21.6599 535.301 21.8713 535.019C22.0828 534.737 22.2355 534.479 22.3295 534.244C22.4469 533.985 22.5057 533.727 22.5057 533.469C22.5057 533.14 22.4234 532.858 22.259 532.623C22.118 532.364 21.9183 532.176 21.6599 532.059C21.4014 531.918 21.1078 531.847 20.7788 531.847C20.4499 531.847 20.1562 531.93 19.8978 532.094C19.6394 532.235 19.4397 532.435 19.2987 532.693C19.1577 532.952 19.0872 533.245 19.0872 533.574H18.3119C18.3119 533.104 18.4176 532.693 18.6291 532.341C18.8405 531.965 19.1342 531.671 19.5101 531.46C19.886 531.248 20.3207 531.143 20.8141 531.143C21.284 531.143 21.7069 531.248 22.0828 531.46C22.4587 531.648 22.7524 531.918 22.9638 532.27C23.1753 532.623 23.281 533.01 23.281 533.433C23.281 533.762 23.2223 534.068 23.1048 534.35C23.0108 534.631 22.8228 534.96 22.5409 535.336C22.2825 535.689 21.9183 536.123 21.4484 536.64L19.3692 538.966V539.001H23.5277V539.742H18.2414Z" fill="#8E9198" style="fill:#8E9198;fill:color(display-p3 0.5569 0.5686 0.5961);fill-opacity:1;"/>
<path fill-rule="evenodd" clip-rule="evenodd" d="M31.4434 1.97266H39.4434V538.098H31.4434V1.97266Z" fill="#DFE2E6" style="fill:#DFE2E6;fill:color(display-p3 0.8745 0.8863 0.9020);fill-opacity:1;"/>
</svg>
