<svg width="38" height="562" viewBox="0 0 38 562" fill="none" xmlns="http://www.w3.org/2000/svg">
<path fill-rule="evenodd" clip-rule="evenodd" d="M30.2207 8.5625H36.2589V561.737H30.2207V8.5625Z" fill="#F6F7F8" style="fill:#F6F7F8;fill:color(display-p3 0.9647 0.9686 0.9725);fill-opacity:1;"/>
<path d="M3.43252 9.0953C2.89215 9.0953 2.41052 9.00132 1.98762 8.81337C1.58821 8.62541 1.27104 8.36697 1.0361 8.03805C0.801151 7.68563 0.671932 7.28623 0.648438 6.83984H1.45899C1.48249 7.14526 1.57647 7.41545 1.74093 7.65039C1.92888 7.88534 2.16383 8.07329 2.44576 8.21426C2.72769 8.33173 3.05661 8.39047 3.43252 8.39047C3.80843 8.39047 4.13736 8.31998 4.41929 8.17902C4.72472 8.03805 4.95966 7.83835 5.12412 7.57991C5.31207 7.32147 5.40605 7.02779 5.40605 6.69887C5.40605 6.36995 5.31207 6.07627 5.12412 5.81783C4.95966 5.55939 4.71297 5.35969 4.38405 5.21872C4.07862 5.07776 3.70271 5.00727 3.25632 5.00727H2.72769V4.2672H3.25632C3.60873 4.2672 3.92591 4.20846 4.20784 4.09099C4.48977 3.95003 4.71297 3.76207 4.87743 3.52713C5.04189 3.26869 5.12412 2.98676 5.12412 2.68133C5.12412 2.3759 5.05364 2.10572 4.91267 1.87077C4.7717 1.61233 4.572 1.42438 4.31356 1.30691C4.05512 1.16594 3.76144 1.09546 3.43252 1.09546C3.1036 1.09546 2.79817 1.16594 2.51624 1.30691C2.2578 1.42438 2.04635 1.60059 1.88189 1.83553C1.71743 2.04698 1.6352 2.31717 1.6352 2.64609H0.824645C0.84814 2.19969 0.977359 1.81204 1.2123 1.48311C1.44725 1.1307 1.75267 0.860513 2.12858 0.672558C2.52799 0.484603 2.96264 0.390625 3.43252 0.390625C3.9494 0.390625 4.38405 0.49635 4.73646 0.707799C5.11237 0.895755 5.39431 1.16594 5.58226 1.51836C5.79371 1.84728 5.89943 2.22319 5.89943 2.64609C5.89943 3.11597 5.77022 3.52713 5.51178 3.87954C5.25334 4.20846 4.90092 4.44341 4.45453 4.58437V4.65486C4.80695 4.70185 5.11237 4.83107 5.37081 5.04252C5.62925 5.23047 5.82895 5.46541 5.96992 5.74735C6.11088 6.02928 6.18137 6.3582 6.18137 6.73411C6.18137 7.18051 6.0639 7.57991 5.82895 7.93233C5.59401 8.28474 5.26509 8.56667 4.84219 8.77812C4.44278 8.98957 3.97289 9.0953 3.43252 9.0953ZM8.33592 9.06006C8.14797 9.06006 7.99525 9.00132 7.87778 8.88385C7.76031 8.76638 7.70157 8.61366 7.70157 8.42571C7.70157 8.26125 7.76031 8.12028 7.87778 8.00281C7.99525 7.88534 8.14797 7.8266 8.33592 7.8266C8.50038 7.8266 8.64135 7.88534 8.75882 8.00281C8.87629 8.12028 8.93503 8.26125 8.93503 8.42571C8.93503 8.61366 8.87629 8.76638 8.75882 8.88385C8.64135 9.00132 8.50038 9.06006 8.33592 9.06006ZM12.4169 0.49635V8.98957H11.6416V1.27166H11.5711L9.5976 2.71657V1.83553L11.4302 0.49635H12.4169ZM17.1487 9.0953C16.5614 9.0953 16.0445 8.93084 15.5981 8.60192C15.1752 8.2495 14.8463 7.75612 14.6113 7.12177C14.3999 6.46393 14.2942 5.67686 14.2942 4.76058C14.2942 3.8443 14.4116 3.06899 14.6466 2.43464C14.8815 1.77679 15.2104 1.27166 15.6333 0.919249C16.0562 0.566833 16.5614 0.390625 17.1487 0.390625C17.7596 0.390625 18.2765 0.566833 18.6994 0.919249C19.1223 1.27166 19.4394 1.77679 19.6509 2.43464C19.8858 3.06899 20.0033 3.8443 20.0033 4.76058C20.0033 5.67686 19.8858 6.46393 19.6509 7.12177C19.4394 7.75612 19.1223 8.2495 18.6994 8.60192C18.2765 8.93084 17.7596 9.0953 17.1487 9.0953ZM17.1487 8.39047C17.5951 8.39047 17.971 8.2495 18.2765 7.96757C18.5819 7.66214 18.8168 7.23924 18.9813 6.69887C19.1458 6.1585 19.228 5.5124 19.228 4.76058C19.228 3.98527 19.1458 3.32742 18.9813 2.78705C18.8168 2.24668 18.5819 1.83553 18.2765 1.5536C17.971 1.24817 17.5951 1.09546 17.1487 1.09546C16.7258 1.09546 16.3499 1.24817 16.021 1.5536C15.7156 1.83553 15.4806 2.24668 15.3162 2.78705C15.1517 3.32742 15.0695 3.98527 15.0695 4.76058C15.0695 5.5124 15.1517 6.1585 15.3162 6.69887C15.4806 7.23924 15.7156 7.66214 16.021 7.96757C16.3499 8.2495 16.7258 8.39047 17.1487 8.39047Z" fill="#8E9198" style="fill:#8E9198;fill:color(display-p3 0.5569 0.5686 0.5961);fill-opacity:1;"/>
<path d="M3.37019 547.253C2.78283 547.253 2.26596 547.088 1.81956 546.759C1.39666 546.407 1.06774 545.913 0.832799 545.279C0.62135 544.621 0.515625 543.834 0.515625 542.918C0.515625 542.002 0.633097 541.226 0.868041 540.592C1.10298 539.934 1.43191 539.429 1.85481 539.076C2.2777 538.724 2.78283 538.548 3.37019 538.548C3.98105 538.548 4.49792 538.724 4.92082 539.076C5.34372 539.429 5.6609 539.934 5.87235 540.592C6.10729 541.226 6.22476 542.002 6.22476 542.918C6.22476 543.834 6.10729 544.621 5.87235 545.279C5.6609 545.913 5.34372 546.407 4.92082 546.759C4.49792 547.088 3.98105 547.253 3.37019 547.253ZM3.37019 546.548C3.81659 546.548 4.1925 546.407 4.49792 546.125C4.80335 545.819 5.0383 545.396 5.20276 544.856C5.36722 544.316 5.44945 543.67 5.44945 542.918C5.44945 542.142 5.36722 541.485 5.20276 540.944C5.0383 540.404 4.80335 539.993 4.49792 539.711C4.1925 539.405 3.81659 539.253 3.37019 539.253C2.94729 539.253 2.57138 539.405 2.24246 539.711C1.93704 539.993 1.70209 540.404 1.53763 540.944C1.37317 541.485 1.29094 542.142 1.29094 542.918C1.29094 543.67 1.37317 544.316 1.53763 544.856C1.70209 545.396 1.93704 545.819 2.24246 546.125C2.57138 546.407 2.94729 546.548 3.37019 546.548ZM8.34084 547.217C8.15289 547.217 8.00017 547.159 7.8827 547.041C7.76523 546.924 7.70649 546.771 7.70649 546.583C7.70649 546.418 7.76523 546.278 7.8827 546.16C8.00017 546.043 8.15289 545.984 8.34084 545.984C8.5053 545.984 8.64627 546.043 8.76374 546.16C8.88121 546.278 8.93995 546.418 8.93995 546.583C8.93995 546.771 8.88121 546.924 8.76374 547.041C8.64627 547.159 8.5053 547.217 8.34084 547.217ZM12.4219 538.654V547.147H11.6466V539.429H11.5761L9.60259 540.874V539.993L11.4351 538.654H12.4219ZM17.1536 547.253C16.5663 547.253 16.0494 547.088 15.603 546.759C15.1801 546.407 14.8512 545.913 14.6163 545.279C14.4048 544.621 14.2991 543.834 14.2991 542.918C14.2991 542.002 14.4166 541.226 14.6515 540.592C14.8864 539.934 15.2154 539.429 15.6383 539.076C16.0612 538.724 16.5663 538.548 17.1536 538.548C17.7645 538.548 18.2814 538.724 18.7043 539.076C19.1272 539.429 19.4444 539.934 19.6558 540.592C19.8907 541.226 20.0082 542.002 20.0082 542.918C20.0082 543.834 19.8907 544.621 19.6558 545.279C19.4444 545.913 19.1272 546.407 18.7043 546.759C18.2814 547.088 17.7645 547.253 17.1536 547.253ZM17.1536 546.548C17.6 546.548 17.976 546.407 18.2814 546.125C18.5868 545.819 18.8218 545.396 18.9862 544.856C19.1507 544.316 19.2329 543.67 19.2329 542.918C19.2329 542.142 19.1507 541.485 18.9862 540.944C18.8218 540.404 18.5868 539.993 18.2814 539.711C17.976 539.405 17.6 539.253 17.1536 539.253C16.7307 539.253 16.3548 539.405 16.0259 539.711C15.7205 539.993 15.4855 540.404 15.3211 540.944C15.1566 541.485 15.0744 542.142 15.0744 542.918C15.0744 543.67 15.1566 544.316 15.3211 544.856C15.4855 545.396 15.7205 545.819 16.0259 546.125C16.3548 546.407 16.7307 546.548 17.1536 546.548Z" fill="#8E9198" style="fill:#8E9198;fill:color(display-p3 0.5569 0.5686 0.5961);fill-opacity:1;"/>
<path fill-rule="evenodd" clip-rule="evenodd" d="M29.2207 2.39453H37.2207V543.705H29.2207V2.39453Z" fill="#DFE2E6" style="fill:#DFE2E6;fill:color(display-p3 0.8745 0.8863 0.9020);fill-opacity:1;"/>
</svg>
