<svg width="55" height="583" viewBox="0 0 55 583" fill="none" xmlns="http://www.w3.org/2000/svg">
<rect opacity="0.2" width="54.5668" height="582.62" fill="white" style="fill:white;fill-opacity:1;"/>
<path fill-rule="evenodd" clip-rule="evenodd" d="M38.561 14.7097H44.5992V567.91H38.561V14.7097Z" fill="#F6F7F8" style="fill:#F6F7F8;fill:color(display-p3 0.9647 0.9686 0.9725);fill-opacity:1;"/>
<path d="M11.7728 44.7449C11.2324 44.7449 10.7508 44.6509 10.3279 44.4629C9.92848 44.275 9.61131 44.0165 9.37637 43.6876C9.14142 43.3352 9.0122 42.9358 8.98871 42.4894H9.79927C9.82276 42.7948 9.91674 43.065 10.0812 43.3C10.2692 43.5349 10.5041 43.7229 10.786 43.8638C11.068 43.9813 11.3969 44.04 11.7728 44.04C12.1487 44.04 12.4776 43.9695 12.7596 43.8286C13.065 43.6876 13.2999 43.4879 13.4644 43.2295C13.6523 42.971 13.7463 42.6774 13.7463 42.3484C13.7463 42.0195 13.6523 41.7258 13.4644 41.4674C13.2999 41.209 13.0532 41.0093 12.7243 40.8683C12.4189 40.7273 12.043 40.6568 11.5966 40.6568H11.068V39.9168H11.5966C11.949 39.9168 12.2662 39.858 12.5481 39.7406C12.83 39.5996 13.0532 39.4116 13.2177 39.1767C13.3822 38.9183 13.4644 38.6363 13.4644 38.3309C13.4644 38.0255 13.3939 37.7553 13.2529 37.5203C13.112 37.2619 12.9123 37.0739 12.6538 36.9565C12.3954 36.8155 12.1017 36.745 11.7728 36.745C11.4439 36.745 11.1384 36.8155 10.8565 36.9565C10.5981 37.0739 10.3866 37.2501 10.2222 37.4851C10.0577 37.6965 9.97547 37.9667 9.97547 38.2956H9.16492C9.18841 37.8493 9.31763 37.4616 9.55257 37.1327C9.78752 36.7803 10.0929 36.5101 10.4689 36.3221C10.8683 36.1342 11.3029 36.0402 11.7728 36.0402C12.2897 36.0402 12.7243 36.1459 13.0767 36.3574C13.4526 36.5453 13.7346 36.8155 13.9225 37.1679C14.134 37.4968 14.2397 37.8728 14.2397 38.2956C14.2397 38.7655 14.1105 39.1767 13.852 39.5291C13.5936 39.858 13.2412 40.093 12.7948 40.2339V40.3044C13.1472 40.3514 13.4526 40.4806 13.7111 40.6921C13.9695 40.88 14.1692 41.115 14.3102 41.3969C14.4512 41.6788 14.5216 42.0078 14.5216 42.3837C14.5216 42.8301 14.4042 43.2295 14.1692 43.5819C13.9343 43.9343 13.6054 44.2162 13.1825 44.4277C12.7831 44.6391 12.3132 44.7449 11.7728 44.7449ZM16.6762 44.7096C16.4882 44.7096 16.3355 44.6509 16.2181 44.5334C16.1006 44.4159 16.0418 44.2632 16.0418 44.0753C16.0418 43.9108 16.1006 43.7698 16.2181 43.6524C16.3355 43.5349 16.4882 43.4762 16.6762 43.4762C16.8407 43.4762 16.9816 43.5349 17.0991 43.6524C17.2166 43.7698 17.2753 43.9108 17.2753 44.0753C17.2753 44.2632 17.2166 44.4159 17.0991 44.5334C16.9816 44.6509 16.8407 44.7096 16.6762 44.7096ZM20.7572 36.1459V44.6391H19.9819V36.9212H19.9114L17.9379 38.3661V37.4851L19.7704 36.1459H20.7572ZM25.489 44.7449C24.9016 44.7449 24.3848 44.5804 23.9384 44.2515C23.5155 43.8991 23.1866 43.4057 22.9516 42.7713C22.7402 42.1135 22.6344 41.3264 22.6344 40.4101C22.6344 39.4939 22.7519 38.7185 22.9868 38.0842C23.2218 37.4264 23.5507 36.9212 23.9736 36.5688C24.3965 36.2164 24.9016 36.0402 25.489 36.0402C26.0999 36.0402 26.6167 36.2164 27.0396 36.5688C27.4625 36.9212 27.7797 37.4264 27.9912 38.0842C28.2261 38.7185 28.3436 39.4939 28.3436 40.4101C28.3436 41.3264 28.2261 42.1135 27.9912 42.7713C27.7797 43.4057 27.4625 43.8991 27.0396 44.2515C26.6167 44.5804 26.0999 44.7449 25.489 44.7449ZM25.489 44.04C25.9354 44.04 26.3113 43.8991 26.6167 43.6171C26.9222 43.3117 27.1571 42.8888 27.3216 42.3484C27.486 41.8081 27.5683 41.162 27.5683 40.4101C27.5683 39.6348 27.486 38.977 27.3216 38.4366C27.1571 37.8962 26.9222 37.4851 26.6167 37.2032C26.3113 36.8977 25.9354 36.745 25.489 36.745C25.0661 36.745 24.6902 36.8977 24.3613 37.2032C24.0558 37.4851 23.8209 37.8962 23.6564 38.4366C23.492 38.977 23.4097 39.6348 23.4097 40.4101C23.4097 41.162 23.492 41.8081 23.6564 42.3484C23.8209 42.8888 24.0558 43.3117 24.3613 43.6171C24.6902 43.8991 25.0661 44.04 25.489 44.04Z" fill="#8E9198" style="fill:#8E9198;fill:color(display-p3 0.5569 0.5686 0.5961);fill-opacity:1;"/>
<path d="M11.7105 552.048C11.1231 552.048 10.6062 551.883 10.1598 551.554C9.73694 551.202 9.40801 550.709 9.17307 550.074C8.96162 549.416 8.8559 548.629 8.8559 547.713C8.8559 546.797 8.97337 546.022 9.20831 545.387C9.44326 544.729 9.77218 544.224 10.1951 543.872C10.618 543.519 11.1231 543.343 11.7105 543.343C12.3213 543.343 12.8382 543.519 13.2611 543.872C13.684 544.224 14.0012 544.729 14.2126 545.387C14.4476 546.022 14.565 546.797 14.565 547.713C14.565 548.629 14.4476 549.416 14.2126 550.074C14.0012 550.709 13.684 551.202 13.2611 551.554C12.8382 551.883 12.3213 552.048 11.7105 552.048ZM11.7105 551.343C12.1569 551.343 12.5328 551.202 12.8382 550.92C13.1436 550.615 13.3786 550.192 13.543 549.651C13.7075 549.111 13.7897 548.465 13.7897 547.713C13.7897 546.938 13.7075 546.28 13.543 545.74C13.3786 545.199 13.1436 544.788 12.8382 544.506C12.5328 544.201 12.1569 544.048 11.7105 544.048C11.2876 544.048 10.9117 544.201 10.5827 544.506C10.2773 544.788 10.0424 545.199 9.8779 545.74C9.71344 546.28 9.63121 546.938 9.63121 547.713C9.63121 548.465 9.71344 549.111 9.8779 549.651C10.0424 550.192 10.2773 550.615 10.5827 550.92C10.9117 551.202 11.2876 551.343 11.7105 551.343ZM16.6811 552.013C16.4932 552.013 16.3404 551.954 16.223 551.836C16.1055 551.719 16.0468 551.566 16.0468 551.378C16.0468 551.214 16.1055 551.073 16.223 550.955C16.3404 550.838 16.4932 550.779 16.6811 550.779C16.8456 550.779 16.9865 550.838 17.104 550.955C17.2215 551.073 17.2802 551.214 17.2802 551.378C17.2802 551.566 17.2215 551.719 17.104 551.836C16.9865 551.954 16.8456 552.013 16.6811 552.013ZM20.7622 543.449V551.942H19.9869V544.224H19.9164L17.9429 545.669V544.788L19.7754 543.449H20.7622ZM25.4939 552.048C24.9066 552.048 24.3897 551.883 23.9433 551.554C23.5204 551.202 23.1915 550.709 22.9565 550.074C22.7451 549.416 22.6394 548.629 22.6394 547.713C22.6394 546.797 22.7568 546.022 22.9918 545.387C23.2267 544.729 23.5556 544.224 23.9785 543.872C24.4014 543.519 24.9066 543.343 25.4939 543.343C26.1048 543.343 26.6217 543.519 27.0446 543.872C27.4674 544.224 27.7846 544.729 27.9961 545.387C28.231 546.022 28.3485 546.797 28.3485 547.713C28.3485 548.629 28.231 549.416 27.9961 550.074C27.7846 550.709 27.4674 551.202 27.0446 551.554C26.6217 551.883 26.1048 552.048 25.4939 552.048ZM25.4939 551.343C25.9403 551.343 26.3162 551.202 26.6217 550.92C26.9271 550.615 27.162 550.192 27.3265 549.651C27.4909 549.111 27.5732 548.465 27.5732 547.713C27.5732 546.938 27.4909 546.28 27.3265 545.74C27.162 545.199 26.9271 544.788 26.6217 544.506C26.3162 544.201 25.9403 544.048 25.4939 544.048C25.071 544.048 24.6951 544.201 24.3662 544.506C24.0608 544.788 23.8258 545.199 23.6614 545.74C23.4969 546.28 23.4147 546.938 23.4147 547.713C23.4147 548.465 23.4969 549.111 23.6614 549.651C23.8258 550.192 24.0608 550.615 24.3662 550.92C24.6951 551.202 25.071 551.343 25.4939 551.343Z" fill="#8E9198" style="fill:#8E9198;fill:color(display-p3 0.5569 0.5686 0.5961);fill-opacity:1;"/>
<path fill-rule="evenodd" clip-rule="evenodd" d="M37.8087 40.3925H45.3132V547.696H37.8087V40.3925Z" fill="#DFE2E6" style="fill:#DFE2E6;fill:color(display-p3 0.8745 0.8863 0.9020);fill-opacity:1;"/>
</svg>
