<svg width="55" height="583" viewBox="0 0 55 583" fill="none" xmlns="http://www.w3.org/2000/svg">
<rect opacity="0.2" width="54.5668" height="582.62" fill="white" style="fill:white;fill-opacity:1;"/>
<path fill-rule="evenodd" clip-rule="evenodd" d="M38.5668 14.7097H44.605V567.91H38.5668V14.7097Z" fill="#F6F7F8" style="fill:#F6F7F8;fill:color(display-p3 0.9647 0.9686 0.9725);fill-opacity:1;"/>
<path d="M10.0386 47.0621C9.45123 47.0621 8.93435 46.8977 8.48796 46.5687C8.06506 46.2163 7.73614 45.7229 7.5012 45.0886C7.28975 44.4307 7.18402 43.6437 7.18402 42.7274C7.18402 41.8111 7.30149 41.0358 7.53644 40.4015C7.77138 39.7436 8.1003 39.2385 8.5232 38.8861C8.9461 38.5337 9.45123 38.3574 10.0386 38.3574C10.6494 38.3574 11.1663 38.5337 11.5892 38.8861C12.0121 39.2385 12.3293 39.7436 12.5407 40.4015C12.7757 41.0358 12.8932 41.8111 12.8932 42.7274C12.8932 43.6437 12.7757 44.4307 12.5407 45.0886C12.3293 45.7229 12.0121 46.2163 11.5892 46.5687C11.1663 46.8977 10.6494 47.0621 10.0386 47.0621ZM10.0386 46.3573C10.485 46.3573 10.8609 46.2163 11.1663 45.9344C11.4717 45.629 11.7067 45.2061 11.8712 44.6657C12.0356 44.1253 12.1178 43.4792 12.1178 42.7274C12.1178 41.9521 12.0356 41.2942 11.8712 40.7539C11.7067 40.2135 11.4717 39.8024 11.1663 39.5204C10.8609 39.215 10.485 39.0623 10.0386 39.0623C9.61569 39.0623 9.23978 39.215 8.91086 39.5204C8.60543 39.8024 8.37049 40.2135 8.20603 40.7539C8.04157 41.2942 7.95934 41.9521 7.95934 42.7274C7.95934 43.4792 8.04157 44.1253 8.20603 44.6657C8.37049 45.2061 8.60543 45.629 8.91086 45.9344C9.23978 46.2163 9.61569 46.3573 10.0386 46.3573ZM15.0092 47.0269C14.8212 47.0269 14.6685 46.9681 14.551 46.8507C14.4336 46.7332 14.3748 46.5805 14.3748 46.3925C14.3748 46.2281 14.4336 46.0871 14.551 45.9696C14.6685 45.8522 14.8212 45.7934 15.0092 45.7934C15.1736 45.7934 15.3146 45.8522 15.4321 45.9696C15.5495 46.0871 15.6083 46.2281 15.6083 46.3925C15.6083 46.5805 15.5495 46.7332 15.4321 46.8507C15.3146 46.9681 15.1736 47.0269 15.0092 47.0269ZM19.7573 47.0621C19.2874 47.0621 18.8645 46.9681 18.4886 46.7802C18.1127 46.5922 17.8073 46.3338 17.5723 46.0049C17.3609 45.6525 17.2551 45.2531 17.2551 44.8067H18.0304C18.0539 45.1121 18.1362 45.3823 18.2771 45.6172C18.4416 45.8522 18.653 46.0401 18.9115 46.1811C19.1699 46.2986 19.4519 46.3573 19.7573 46.3573C20.1332 46.3573 20.4621 46.2751 20.744 46.1106C21.0495 45.9226 21.2844 45.676 21.4489 45.3705C21.6133 45.0416 21.6956 44.6774 21.6956 44.278C21.6956 43.8786 21.6016 43.5262 21.4136 43.2208C21.2492 42.8919 21.0142 42.6452 20.7088 42.4807C20.4269 42.2928 20.098 42.1988 19.722 42.1988C19.4401 42.1988 19.1582 42.2458 18.8762 42.3397C18.6178 42.4337 18.3946 42.5629 18.2067 42.7274L17.3961 42.6217L17.8895 38.4632H22.1185V39.2032H18.5943L18.2419 42.0226H18.3124C18.4768 41.8581 18.7 41.7289 18.982 41.6349C19.2639 41.5174 19.5576 41.4587 19.863 41.4587C20.2389 41.4587 20.5796 41.5292 20.885 41.6702C21.2139 41.8111 21.4959 42.0108 21.7308 42.2693C21.9658 42.5042 22.1537 42.7979 22.2947 43.1503C22.4356 43.4792 22.5061 43.8551 22.5061 44.278C22.5061 44.8184 22.3887 45.3 22.1537 45.7229C21.9188 46.1458 21.5898 46.4748 21.1669 46.7097C20.7675 46.9446 20.2977 47.0621 19.7573 47.0621ZM23.9808 45.1238V44.4895L27.7516 38.4632H28.245V39.5557H27.8926L24.8971 44.3485V44.419H29.8309V45.1238H23.9808ZM27.9278 46.9564V44.9476V44.6305V38.4632H28.7384V46.9564H27.9278Z" fill="#8E9198" style="fill:#8E9198;fill:color(display-p3 0.5569 0.5686 0.5961);fill-opacity:1;"/>
<path d="M9.89797 549.663C9.31061 549.663 8.79373 549.499 8.34733 549.17C7.92444 548.818 7.59551 548.324 7.36057 547.69C7.14912 547.032 7.0434 546.245 7.0434 545.329C7.0434 544.412 7.16087 543.637 7.39581 543.003C7.63076 542.345 7.95968 541.84 8.38258 541.487C8.80548 541.135 9.31061 540.959 9.89797 540.959C10.5088 540.959 11.0257 541.135 11.4486 541.487C11.8715 541.84 12.1887 542.345 12.4001 543.003C12.6351 543.637 12.7525 544.412 12.7525 545.329C12.7525 546.245 12.6351 547.032 12.4001 547.69C12.1887 548.324 11.8715 548.818 11.4486 549.17C11.0257 549.499 10.5088 549.663 9.89797 549.663ZM9.89797 548.959C10.3444 548.959 10.7203 548.818 11.0257 548.536C11.3311 548.23 11.5661 547.807 11.7305 547.267C11.895 546.727 11.9772 546.081 11.9772 545.329C11.9772 544.553 11.895 543.896 11.7305 543.355C11.5661 542.815 11.3311 542.404 11.0257 542.122C10.7203 541.816 10.3444 541.664 9.89797 541.664C9.47507 541.664 9.09916 541.816 8.77023 542.122C8.46481 542.404 8.22986 542.815 8.0654 543.355C7.90094 543.896 7.81871 544.553 7.81871 545.329C7.81871 546.081 7.90094 546.727 8.0654 547.267C8.22986 547.807 8.46481 548.23 8.77023 548.536C9.09916 548.818 9.47507 548.959 9.89797 548.959ZM14.8685 549.628C14.6806 549.628 14.5279 549.569 14.4104 549.452C14.2929 549.335 14.2342 549.182 14.2342 548.994C14.2342 548.829 14.2929 548.688 14.4104 548.571C14.5279 548.454 14.6806 548.395 14.8685 548.395C15.033 548.395 15.174 548.454 15.2914 548.571C15.4089 548.688 15.4677 548.829 15.4677 548.994C15.4677 549.182 15.4089 549.335 15.2914 549.452C15.174 549.569 15.033 549.628 14.8685 549.628ZM19.8028 549.663C19.2154 549.663 18.6985 549.499 18.2521 549.17C17.8293 548.818 17.5003 548.324 17.2654 547.69C17.0539 547.032 16.9482 546.245 16.9482 545.329C16.9482 544.412 17.0657 543.637 17.3006 543.003C17.5356 542.345 17.8645 541.84 18.2874 541.487C18.7103 541.135 19.2154 540.959 19.8028 540.959C20.4136 540.959 20.9305 541.135 21.3534 541.487C21.7763 541.84 22.0935 542.345 22.3049 543.003C22.5399 543.637 22.6573 544.412 22.6573 545.329C22.6573 546.245 22.5399 547.032 22.3049 547.69C22.0935 548.324 21.7763 548.818 21.3534 549.17C20.9305 549.499 20.4136 549.663 19.8028 549.663ZM19.8028 548.959C20.2492 548.959 20.6251 548.818 20.9305 548.536C21.2359 548.23 21.4709 547.807 21.6353 547.267C21.7998 546.727 21.882 546.081 21.882 545.329C21.882 544.553 21.7998 543.896 21.6353 543.355C21.4709 542.815 21.2359 542.404 20.9305 542.122C20.6251 541.816 20.2492 541.664 19.8028 541.664C19.3799 541.664 19.004 541.816 18.675 542.122C18.3696 542.404 18.1347 542.815 17.9702 543.355C17.8058 543.896 17.7235 544.553 17.7235 545.329C17.7235 546.081 17.8058 546.727 17.9702 547.267C18.1347 547.807 18.3696 548.23 18.675 548.536C19.004 548.818 19.3799 548.959 19.8028 548.959ZM24.3649 549.558V548.959L27.149 545.857C27.5014 545.458 27.7833 545.117 27.9948 544.835C28.2062 544.553 28.359 544.295 28.4529 544.06C28.5704 543.802 28.6291 543.543 28.6291 543.285C28.6291 542.956 28.5469 542.674 28.3825 542.439C28.2415 542.181 28.0418 541.993 27.7833 541.875C27.5249 541.734 27.2312 541.664 26.9023 541.664C26.5734 541.664 26.2797 541.746 26.0213 541.91C25.7628 542.051 25.5631 542.251 25.4222 542.509C25.2812 542.768 25.2107 543.062 25.2107 543.39H24.4354C24.4354 542.921 24.5411 542.509 24.7526 542.157C24.964 541.781 25.2577 541.487 25.6336 541.276C26.0095 541.065 26.4442 540.959 26.9376 540.959C27.4074 540.959 27.8303 541.065 28.2062 541.276C28.5822 541.464 28.8758 541.734 29.0873 542.087C29.2987 542.439 29.4045 542.827 29.4045 543.25C29.4045 543.578 29.3457 543.884 29.2283 544.166C29.1343 544.448 28.9463 544.777 28.6644 545.153C28.406 545.505 28.0418 545.94 27.5719 546.456L25.4926 548.782V548.818H29.6512V549.558H24.3649Z" fill="#8E9198" style="fill:#8E9198;fill:color(display-p3 0.5569 0.5686 0.5961);fill-opacity:1;"/>
<path fill-rule="evenodd" clip-rule="evenodd" d="M37.5668 42.7098H45.5668V545.311H37.5668V42.7098Z" fill="#DFE2E6" style="fill:#DFE2E6;fill:color(display-p3 0.8745 0.8863 0.9020);fill-opacity:1;"/>
</svg>
