<svg width="68" height="581" viewBox="0 0 68 581" fill="none" xmlns="http://www.w3.org/2000/svg">
<path fill-rule="evenodd" clip-rule="evenodd" d="M55.2207 14.5625H61.2589V567.737H55.2207V14.5625Z" fill="#F6F7F8" style="fill:#F6F7F8;fill:color(display-p3 0.9647 0.9686 0.9725);fill-opacity:1;"/>
<path d="M28.4325 15.0953C27.8922 15.0953 27.4105 15.0013 26.9876 14.8134C26.5882 14.6254 26.271 14.367 26.0361 14.0381C25.8012 13.6856 25.6719 13.2862 25.6484 12.8398H26.459C26.4825 13.1453 26.5765 13.4154 26.7409 13.6504C26.9289 13.8853 27.1638 14.0733 27.4458 14.2143C27.7277 14.3317 28.0566 14.3905 28.4325 14.3905C28.8084 14.3905 29.1374 14.32 29.4193 14.179C29.7247 14.0381 29.9597 13.8383 30.1241 13.5799C30.3121 13.3215 30.4061 13.0278 30.4061 12.6989C30.4061 12.3699 30.3121 12.0763 30.1241 11.8178C29.9597 11.5594 29.713 11.3597 29.384 11.2187C29.0786 11.0778 28.7027 11.0073 28.2563 11.0073H27.7277V10.2672H28.2563C28.6087 10.2672 28.9259 10.2085 29.2078 10.091C29.4898 9.95003 29.713 9.76207 29.8774 9.52713C30.0419 9.26869 30.1241 8.98676 30.1241 8.68133C30.1241 8.3759 30.0536 8.10572 29.9127 7.87077C29.7717 7.61233 29.572 7.42438 29.3136 7.30691C29.0551 7.16594 28.7614 7.09546 28.4325 7.09546C28.1036 7.09546 27.7982 7.16594 27.5162 7.30691C27.2578 7.42438 27.0464 7.60059 26.8819 7.83553C26.7174 8.04698 26.6352 8.31717 26.6352 8.64609H25.8246C25.8481 8.19969 25.9774 7.81204 26.2123 7.48311C26.4472 7.1307 26.7527 6.86051 27.1286 6.67256C27.528 6.4846 27.9626 6.39062 28.4325 6.39062C28.9494 6.39062 29.384 6.49635 29.7365 6.7078C30.1124 6.89575 30.3943 7.16594 30.5823 7.51836C30.7937 7.84728 30.8994 8.22319 30.8994 8.64609C30.8994 9.11597 30.7702 9.52713 30.5118 9.87954C30.2533 10.2085 29.9009 10.4434 29.4545 10.5844V10.6549C29.8069 10.7018 30.1124 10.8311 30.3708 11.0425C30.6292 11.2305 30.829 11.4654 30.9699 11.7473C31.1109 12.0293 31.1814 12.3582 31.1814 12.7341C31.1814 13.1805 31.0639 13.5799 30.829 13.9323C30.594 14.2847 30.2651 14.5667 29.8422 14.7781C29.4428 14.9896 28.9729 15.0953 28.4325 15.0953ZM33.3359 15.0601C33.148 15.0601 32.9953 15.0013 32.8778 14.8838C32.7603 14.7664 32.7016 14.6137 32.7016 14.4257C32.7016 14.2612 32.7603 14.1203 32.8778 14.0028C32.9953 13.8853 33.148 13.8266 33.3359 13.8266C33.5004 13.8266 33.6414 13.8853 33.7588 14.0028C33.8763 14.1203 33.935 14.2612 33.935 14.4257C33.935 14.6137 33.8763 14.7664 33.7588 14.8838C33.6414 15.0013 33.5004 15.0601 33.3359 15.0601ZM37.4169 6.49635V14.9896H36.6416V7.27166H36.5711L34.5976 8.71657V7.83553L36.4302 6.49635H37.4169ZM42.1487 15.0953C41.5614 15.0953 41.0445 14.9308 40.5981 14.6019C40.1752 14.2495 39.8463 13.7561 39.6113 13.1218C39.3999 12.4639 39.2942 11.6769 39.2942 10.7606C39.2942 9.8443 39.4116 9.06899 39.6466 8.43464C39.8815 7.77679 40.2104 7.27166 40.6333 6.91925C41.0562 6.56683 41.5614 6.39062 42.1487 6.39062C42.7596 6.39062 43.2765 6.56683 43.6994 6.91925C44.1223 7.27166 44.4394 7.77679 44.6509 8.43464C44.8858 9.06899 45.0033 9.8443 45.0033 10.7606C45.0033 11.6769 44.8858 12.4639 44.6509 13.1218C44.4394 13.7561 44.1223 14.2495 43.6994 14.6019C43.2765 14.9308 42.7596 15.0953 42.1487 15.0953ZM42.1487 14.3905C42.5951 14.3905 42.971 14.2495 43.2765 13.9676C43.5819 13.6621 43.8168 13.2392 43.9813 12.6989C44.1458 12.1585 44.228 11.5124 44.228 10.7606C44.228 9.98527 44.1458 9.32742 43.9813 8.78705C43.8168 8.24668 43.5819 7.83553 43.2765 7.5536C42.971 7.24817 42.5951 7.09546 42.1487 7.09546C41.7258 7.09546 41.3499 7.24817 41.021 7.5536C40.7156 7.83553 40.4806 8.24668 40.3162 8.78705C40.1517 9.32742 40.0695 9.98527 40.0695 10.7606C40.0695 11.5124 40.1517 12.1585 40.3162 12.6989C40.4806 13.2392 40.7156 13.6621 41.021 13.9676C41.3499 14.2495 41.7258 14.3905 42.1487 14.3905Z" fill="#8E9198" style="fill:#8E9198;fill:color(display-p3 0.5569 0.5686 0.5961);fill-opacity:1;"/>
<path d="M28.3702 553.253C27.7828 553.253 27.266 553.088 26.8196 552.759C26.3967 552.407 26.0677 551.913 25.8328 551.279C25.6213 550.621 25.5156 549.834 25.5156 548.918C25.5156 548.002 25.6331 547.226 25.868 546.592C26.103 545.934 26.4319 545.429 26.8548 545.076C27.2777 544.724 27.7828 544.548 28.3702 544.548C28.981 544.548 29.4979 544.724 29.9208 545.076C30.3437 545.429 30.6609 545.934 30.8723 546.592C31.1073 547.226 31.2248 548.002 31.2248 548.918C31.2248 549.834 31.1073 550.621 30.8723 551.279C30.6609 551.913 30.3437 552.407 29.9208 552.759C29.4979 553.088 28.981 553.253 28.3702 553.253ZM28.3702 552.548C28.8166 552.548 29.1925 552.407 29.4979 552.125C29.8034 551.819 30.0383 551.396 30.2028 550.856C30.3672 550.316 30.4494 549.67 30.4494 548.918C30.4494 548.142 30.3672 547.485 30.2028 546.944C30.0383 546.404 29.8034 545.993 29.4979 545.711C29.1925 545.405 28.8166 545.253 28.3702 545.253C27.9473 545.253 27.5714 545.405 27.2425 545.711C26.937 545.993 26.7021 546.404 26.5376 546.944C26.3732 547.485 26.2909 548.142 26.2909 548.918C26.2909 549.67 26.3732 550.316 26.5376 550.856C26.7021 551.396 26.937 551.819 27.2425 552.125C27.5714 552.407 27.9473 552.548 28.3702 552.548ZM33.3408 553.217C33.1529 553.217 33.0002 553.159 32.8827 553.041C32.7652 552.924 32.7065 552.771 32.7065 552.583C32.7065 552.418 32.7652 552.278 32.8827 552.16C33.0002 552.043 33.1529 551.984 33.3408 551.984C33.5053 551.984 33.6463 552.043 33.7637 552.16C33.8812 552.278 33.9399 552.418 33.9399 552.583C33.9399 552.771 33.8812 552.924 33.7637 553.041C33.6463 553.159 33.5053 553.217 33.3408 553.217ZM37.4219 544.654V553.147H36.6466V545.429H36.5761L34.6026 546.874V545.993L36.4351 544.654H37.4219ZM42.1536 553.253C41.5663 553.253 41.0494 553.088 40.603 552.759C40.1801 552.407 39.8512 551.913 39.6163 551.279C39.4048 550.621 39.2991 549.834 39.2991 548.918C39.2991 548.002 39.4166 547.226 39.6515 546.592C39.8864 545.934 40.2154 545.429 40.6383 545.076C41.0612 544.724 41.5663 544.548 42.1536 544.548C42.7645 544.548 43.2814 544.724 43.7043 545.076C44.1272 545.429 44.4444 545.934 44.6558 546.592C44.8907 547.226 45.0082 548.002 45.0082 548.918C45.0082 549.834 44.8907 550.621 44.6558 551.279C44.4444 551.913 44.1272 552.407 43.7043 552.759C43.2814 553.088 42.7645 553.253 42.1536 553.253ZM42.1536 552.548C42.6 552.548 42.976 552.407 43.2814 552.125C43.5868 551.819 43.8218 551.396 43.9862 550.856C44.1507 550.316 44.2329 549.67 44.2329 548.918C44.2329 548.142 44.1507 547.485 43.9862 546.944C43.8218 546.404 43.5868 545.993 43.2814 545.711C42.976 545.405 42.6 545.253 42.1536 545.253C41.7307 545.253 41.3548 545.405 41.0259 545.711C40.7205 545.993 40.4855 546.404 40.3211 546.944C40.1566 547.485 40.0744 548.142 40.0744 548.918C40.0744 549.67 40.1566 550.316 40.3211 550.856C40.4855 551.396 40.7205 551.819 41.0259 552.125C41.3548 552.407 41.7307 552.548 42.1536 552.548Z" fill="#8E9198" style="fill:#8E9198;fill:color(display-p3 0.5569 0.5686 0.5961);fill-opacity:1;"/>
<path fill-rule="evenodd" clip-rule="evenodd" d="M54.2207 8.39453H62.2207V549.705H54.2207V8.39453Z" fill="#DFE2E6" style="fill:#DFE2E6;fill:color(display-p3 0.8745 0.8863 0.9020);fill-opacity:1;"/>
</svg>
