<svg width="38" height="548" viewBox="0 0 38 548" fill="none" xmlns="http://www.w3.org/2000/svg">
<path fill-rule="evenodd" clip-rule="evenodd" d="M30.0449 0.580078H36.0832V547.503H30.0449V0.580078Z" fill="#F6F7F8" style="fill:#F6F7F8;fill:color(display-p3 0.9647 0.9686 0.9725);fill-opacity:1;"/>
<path d="M2.88717 112.9C2.41729 112.9 2.00613 112.806 1.65372 112.618C1.3013 112.43 1.00762 112.172 0.772679 111.843C0.56123 111.49 0.43201 111.091 0.385022 110.645H1.19558C1.26606 111.091 1.44227 111.467 1.7242 111.772C2.00613 112.054 2.39379 112.195 2.88717 112.195C3.33357 112.195 3.72123 112.054 4.05015 111.772C4.37907 111.467 4.62576 111.044 4.79022 110.504C4.95468 109.94 5.03691 109.27 5.03691 108.495H5.00167C4.8607 108.73 4.6845 108.941 4.47305 109.129C4.2616 109.317 4.01491 109.47 3.73297 109.587C3.47453 109.681 3.1926 109.728 2.88717 109.728C2.41729 109.728 1.98264 109.611 1.58324 109.376C1.18383 109.141 0.866657 108.812 0.631713 108.389C0.396769 107.966 0.279297 107.496 0.279297 106.979C0.279297 106.463 0.385022 105.993 0.596471 105.57C0.831415 105.147 1.14859 104.818 1.54799 104.583C1.97089 104.325 2.45253 104.195 2.9929 104.195C3.34532 104.195 3.68598 104.266 4.01491 104.407C4.36732 104.548 4.67275 104.771 4.93119 105.076C5.21312 105.382 5.42457 105.793 5.56554 106.31C5.73 106.827 5.81223 107.449 5.81223 108.178C5.81223 108.882 5.75349 109.529 5.63602 110.116C5.51855 110.68 5.33059 111.173 5.07215 111.596C4.83721 112.019 4.53178 112.348 4.15587 112.583C3.80346 112.794 3.38056 112.9 2.88717 112.9ZM2.9929 109.023C3.27483 109.023 3.53327 108.965 3.76821 108.847C4.00316 108.73 4.20286 108.577 4.36732 108.389C4.55528 108.178 4.69624 107.954 4.79022 107.719C4.8842 107.461 4.91944 107.191 4.89595 106.909C4.87245 106.533 4.76673 106.192 4.57877 105.887C4.41431 105.581 4.19111 105.347 3.90918 105.182C3.65074 104.994 3.34532 104.9 2.9929 104.9C2.61699 104.9 2.28807 104.994 2.00613 105.182C1.7242 105.37 1.50101 105.617 1.33654 105.922C1.17208 106.228 1.08985 106.58 1.08985 106.979C1.08985 107.355 1.17208 107.696 1.33654 108.001C1.50101 108.307 1.7242 108.554 2.00613 108.741C2.28807 108.929 2.61699 109.023 2.9929 109.023ZM7.91654 112.865C7.72858 112.865 7.57587 112.806 7.45839 112.689C7.34092 112.571 7.28219 112.418 7.28219 112.23C7.28219 112.066 7.34092 111.925 7.45839 111.807C7.57587 111.69 7.72858 111.631 7.91654 111.631C8.081 111.631 8.22196 111.69 8.33943 111.807C8.45691 111.925 8.51564 112.066 8.51564 112.23C8.51564 112.418 8.45691 112.571 8.33943 112.689C8.22196 112.806 8.081 112.865 7.91654 112.865ZM12.8205 112.9C12.3506 112.9 11.9394 112.806 11.587 112.618C11.2346 112.43 10.9409 112.172 10.706 111.843C10.4945 111.49 10.3653 111.091 10.3183 110.645H11.1289C11.1994 111.091 11.3756 111.467 11.6575 111.772C11.9394 112.054 12.3271 112.195 12.8205 112.195C13.2669 112.195 13.6545 112.054 13.9835 111.772C14.3124 111.467 14.5591 111.044 14.7235 110.504C14.888 109.94 14.9702 109.27 14.9702 108.495H14.935C14.794 108.73 14.6178 108.941 14.4064 109.129C14.1949 109.317 13.9482 109.47 13.6663 109.587C13.4078 109.681 13.1259 109.728 12.8205 109.728C12.3506 109.728 11.916 109.611 11.5165 109.376C11.1171 109.141 10.8 108.812 10.565 108.389C10.3301 107.966 10.2126 107.496 10.2126 106.979C10.2126 106.463 10.3183 105.993 10.5298 105.57C10.7647 105.147 11.0819 104.818 11.4813 104.583C11.9042 104.325 12.3858 104.195 12.9262 104.195C13.2786 104.195 13.6193 104.266 13.9482 104.407C14.3006 104.548 14.6061 104.771 14.8645 105.076C15.1464 105.382 15.3579 105.793 15.4988 106.31C15.6633 106.827 15.7455 107.449 15.7455 108.178C15.7455 108.882 15.6868 109.529 15.5693 110.116C15.4519 110.68 15.2639 111.173 15.0055 111.596C14.7705 112.019 14.4651 112.348 14.0892 112.583C13.7368 112.794 13.3139 112.9 12.8205 112.9ZM12.9262 109.023C13.2081 109.023 13.4666 108.965 13.7015 108.847C13.9365 108.73 14.1362 108.577 14.3006 108.389C14.4886 108.178 14.6296 107.954 14.7235 107.719C14.8175 107.461 14.8528 107.191 14.8293 106.909C14.8058 106.533 14.7 106.192 14.5121 105.887C14.3476 105.581 14.1244 105.347 13.8425 105.182C13.5841 104.994 13.2786 104.9 12.9262 104.9C12.5503 104.9 12.2214 104.994 11.9394 105.182C11.6575 105.37 11.4343 105.617 11.2699 105.922C11.1054 106.228 11.0232 106.58 11.0232 106.979C11.0232 107.355 11.1054 107.696 11.2699 108.001C11.4343 108.307 11.6575 108.554 11.9394 108.741C12.2214 108.929 12.5503 109.023 12.9262 109.023ZM20.0844 112.9C19.497 112.9 18.9801 112.736 18.5338 112.407C18.1109 112.054 17.7819 111.561 17.547 110.926C17.3355 110.269 17.2298 109.482 17.2298 108.565C17.2298 107.649 17.3473 106.874 17.5822 106.239C17.8172 105.581 18.1461 105.076 18.569 104.724C18.9919 104.372 19.497 104.195 20.0844 104.195C20.6952 104.195 21.2121 104.372 21.635 104.724C22.0579 105.076 22.3751 105.581 22.5865 106.239C22.8215 106.874 22.939 107.649 22.939 108.565C22.939 109.482 22.8215 110.269 22.5865 110.926C22.3751 111.561 22.0579 112.054 21.635 112.407C21.2121 112.736 20.6952 112.9 20.0844 112.9ZM20.0844 112.195C20.5308 112.195 20.9067 112.054 21.2121 111.772C21.5175 111.467 21.7525 111.044 21.9169 110.504C22.0814 109.963 22.1636 109.317 22.1636 108.565C22.1636 107.79 22.0814 107.132 21.9169 106.592C21.7525 106.051 21.5175 105.64 21.2121 105.358C20.9067 105.053 20.5308 104.9 20.0844 104.9C19.6615 104.9 19.2856 105.053 18.9567 105.358C18.6512 105.64 18.4163 106.051 18.2518 106.592C18.0874 107.132 18.0051 107.79 18.0051 108.565C18.0051 109.317 18.0874 109.963 18.2518 110.504C18.4163 111.044 18.6512 111.467 18.9567 111.772C19.2856 112.054 19.6615 112.195 20.0844 112.195Z" fill="#8E9198" style="fill:#8E9198;fill:color(display-p3 0.5569 0.5686 0.5961);fill-opacity:1;"/>
<path d="M0.0546875 425.898V425.299L2.83877 422.197C3.19119 421.798 3.47312 421.457 3.68457 421.175C3.89602 420.893 4.04873 420.635 4.14271 420.4C4.26018 420.142 4.31892 419.883 4.31892 419.625C4.31892 419.296 4.23669 419.014 4.07223 418.779C3.93126 418.521 3.73156 418.333 3.47312 418.215C3.21468 418.074 2.921 418.004 2.59208 418.004C2.26316 418.004 1.96948 418.086 1.71104 418.25C1.4526 418.391 1.2529 418.591 1.11194 418.849C0.970969 419.108 0.900486 419.402 0.900486 419.73H0.125171C0.125171 419.261 0.230895 418.849 0.442345 418.497C0.653795 418.121 0.947475 417.827 1.32338 417.616C1.6993 417.405 2.13394 417.299 2.62732 417.299C3.09721 417.299 3.52011 417.405 3.89602 417.616C4.27193 417.804 4.56561 418.074 4.77706 418.427C4.98851 418.779 5.09424 419.167 5.09424 419.59C5.09424 419.918 5.0355 420.224 4.91803 420.506C4.82405 420.788 4.63609 421.117 4.35416 421.493C4.09572 421.845 3.73156 422.28 3.26167 422.797L1.18242 425.122V425.158H5.34093V425.898H0.0546875ZM7.91921 425.968C7.73125 425.968 7.57854 425.91 7.46107 425.792C7.34359 425.675 7.28486 425.522 7.28486 425.334C7.28486 425.169 7.34359 425.028 7.46107 424.911C7.57854 424.794 7.73125 424.735 7.91921 424.735C8.08367 424.735 8.22463 424.794 8.34211 424.911C8.45958 425.028 8.51831 425.169 8.51831 425.334C8.51831 425.522 8.45958 425.675 8.34211 425.792C8.22463 425.91 8.08367 425.968 7.91921 425.968ZM12.8232 426.004C12.3533 426.004 11.9421 425.91 11.5897 425.722C11.2373 425.534 10.9436 425.275 10.7087 424.946C10.4972 424.594 10.368 424.194 10.321 423.748H11.1316C11.202 424.194 11.3783 424.57 11.6602 424.876C11.9421 425.158 12.3298 425.299 12.8232 425.299C13.2696 425.299 13.6572 425.158 13.9861 424.876C14.3151 424.57 14.5617 424.147 14.7262 423.607C14.8907 423.043 14.9729 422.374 14.9729 421.598H14.9377C14.7967 421.833 14.6205 422.045 14.409 422.233C14.1976 422.421 13.9509 422.573 13.669 422.691C13.4105 422.785 13.1286 422.832 12.8232 422.832C12.3533 422.832 11.9186 422.714 11.5192 422.479C11.1198 422.244 10.8026 421.915 10.5677 421.493C10.3328 421.07 10.2153 420.6 10.2153 420.083C10.2153 419.566 10.321 419.096 10.5325 418.673C10.7674 418.25 11.0846 417.921 11.484 417.686C11.9069 417.428 12.3885 417.299 12.9289 417.299C13.2813 417.299 13.622 417.369 13.9509 417.51C14.3033 417.651 14.6087 417.874 14.8672 418.18C15.1491 418.485 15.3606 418.896 15.5015 419.413C15.666 419.93 15.7482 420.553 15.7482 421.281C15.7482 421.986 15.6895 422.632 15.572 423.219C15.4545 423.783 15.2666 424.277 15.0081 424.7C14.7732 425.122 14.4678 425.451 14.0919 425.686C13.7394 425.898 13.3165 426.004 12.8232 426.004ZM12.9289 422.127C13.2108 422.127 13.4693 422.068 13.7042 421.951C13.9391 421.833 14.1388 421.681 14.3033 421.493C14.4913 421.281 14.6322 421.058 14.7262 420.823C14.8202 420.565 14.8554 420.294 14.8319 420.012C14.8084 419.637 14.7027 419.296 14.5148 418.99C14.3503 418.685 14.1271 418.45 13.8452 418.286C13.5867 418.098 13.2813 418.004 12.9289 418.004C12.553 418.004 12.224 418.098 11.9421 418.286C11.6602 418.474 11.437 418.72 11.2725 419.026C11.1081 419.331 11.0258 419.684 11.0258 420.083C11.0258 420.459 11.1081 420.799 11.2725 421.105C11.437 421.41 11.6602 421.657 11.9421 421.845C12.224 422.033 12.553 422.127 12.9289 422.127ZM20.0871 426.004C19.4997 426.004 18.9828 425.839 18.5364 425.51C18.1135 425.158 17.7846 424.664 17.5497 424.03C17.3382 423.372 17.2325 422.585 17.2325 421.669C17.2325 420.753 17.35 419.977 17.5849 419.343C17.8198 418.685 18.1488 418.18 18.5717 417.827C18.9946 417.475 19.4997 417.299 20.0871 417.299C20.6979 417.299 21.2148 417.475 21.6377 417.827C22.0606 418.18 22.3778 418.685 22.5892 419.343C22.8242 419.977 22.9416 420.753 22.9416 421.669C22.9416 422.585 22.8242 423.372 22.5892 424.03C22.3778 424.664 22.0606 425.158 21.6377 425.51C21.2148 425.839 20.6979 426.004 20.0871 426.004ZM20.0871 425.299C20.5334 425.299 20.9094 425.158 21.2148 424.876C21.5202 424.57 21.7552 424.147 21.9196 423.607C22.0841 423.067 22.1663 422.421 22.1663 421.669C22.1663 420.893 22.0841 420.236 21.9196 419.695C21.7552 419.155 21.5202 418.744 21.2148 418.462C20.9094 418.156 20.5334 418.004 20.0871 418.004C19.6642 418.004 19.2882 418.156 18.9593 418.462C18.6539 418.744 18.419 419.155 18.2545 419.695C18.09 420.236 18.0078 420.893 18.0078 421.669C18.0078 422.421 18.09 423.067 18.2545 423.607C18.419 424.147 18.6539 424.57 18.9593 424.876C19.2882 425.158 19.6642 425.299 20.0871 425.299Z" fill="#8E9198" style="fill:#8E9198;fill:color(display-p3 0.5569 0.5686 0.5961);fill-opacity:1;"/>
<path fill-rule="evenodd" clip-rule="evenodd" d="M29.0449 107.168H37.0449V422.933H29.0449V107.168Z" fill="#DFE2E6" style="fill:#DFE2E6;fill:color(display-p3 0.8745 0.8863 0.9020);fill-opacity:1;"/>
</svg>
