<svg width="55" height="583" viewBox="0 0 55 583" fill="none" xmlns="http://www.w3.org/2000/svg">
<rect opacity="0.2" width="54.5668" height="582.62" fill="white" style="fill:white;fill-opacity:1;"/>
<path fill-rule="evenodd" clip-rule="evenodd" d="M38.5668 14.7097H44.6051V567.91H38.5668V14.7097Z" fill="#F6F7F8" style="fill:#F6F7F8;fill:color(display-p3 0.9647 0.9686 0.9725);fill-opacity:1;"/>
<path d="M11.4091 146.262C10.9392 146.262 10.528 146.168 10.1756 145.98C9.82321 145.792 9.52953 145.533 9.29459 145.205C9.08314 144.852 8.95392 144.453 8.90693 144.006H9.71749C9.78797 144.453 9.96418 144.829 10.2461 145.134C10.528 145.416 10.9157 145.557 11.4091 145.557C11.8555 145.557 12.2431 145.416 12.5721 145.134C12.901 144.829 13.1477 144.406 13.3121 143.865C13.4766 143.302 13.5588 142.632 13.5588 141.857H13.5236C13.3826 142.092 13.2064 142.303 12.995 142.491C12.7835 142.679 12.5368 142.832 12.2549 142.949C11.9964 143.043 11.7145 143.09 11.4091 143.09C10.9392 143.09 10.5046 142.973 10.1051 142.738C9.70574 142.503 9.38857 142.174 9.15362 141.751C8.91868 141.328 8.80121 140.858 8.80121 140.341C8.80121 139.824 8.90693 139.354 9.11838 138.932C9.35333 138.509 9.6705 138.18 10.0699 137.945C10.4928 137.686 10.9744 137.557 11.5148 137.557C11.8672 137.557 12.2079 137.628 12.5368 137.769C12.8892 137.91 13.1947 138.133 13.4531 138.438C13.735 138.744 13.9465 139.155 14.0874 139.672C14.2519 140.189 14.3341 140.811 14.3341 141.539C14.3341 142.244 14.2754 142.89 14.1579 143.478C14.0405 144.042 13.8525 144.535 13.5941 144.958C13.3591 145.381 13.0537 145.71 12.6778 145.945C12.3254 146.156 11.9025 146.262 11.4091 146.262ZM11.5148 142.385C11.7967 142.385 12.0552 142.327 12.2901 142.209C12.5251 142.092 12.7248 141.939 12.8892 141.751C13.0772 141.539 13.2182 141.316 13.3121 141.081C13.4061 140.823 13.4414 140.553 13.4179 140.271C13.3944 139.895 13.2886 139.554 13.1007 139.249C12.9362 138.943 12.713 138.708 12.4311 138.544C12.1727 138.356 11.8672 138.262 11.5148 138.262C11.1389 138.262 10.81 138.356 10.528 138.544C10.2461 138.732 10.0229 138.979 9.85846 139.284C9.694 139.589 9.61177 139.942 9.61177 140.341C9.61177 140.717 9.694 141.058 9.85846 141.363C10.0229 141.669 10.2461 141.915 10.528 142.103C10.81 142.291 11.1389 142.385 11.5148 142.385ZM16.4384 146.227C16.2505 146.227 16.0978 146.168 15.9803 146.05C15.8628 145.933 15.8041 145.78 15.8041 145.592C15.8041 145.428 15.8628 145.287 15.9803 145.169C16.0978 145.052 16.2505 144.993 16.4384 144.993C16.6029 144.993 16.7439 145.052 16.8613 145.169C16.9788 145.287 17.0376 145.428 17.0376 145.592C17.0376 145.78 16.9788 145.933 16.8613 146.05C16.7439 146.168 16.6029 146.227 16.4384 146.227ZM21.3424 146.262C20.8725 146.262 20.4614 146.168 20.1089 145.98C19.7565 145.792 19.4628 145.533 19.2279 145.205C19.0165 144.852 18.8872 144.453 18.8402 144.006H19.6508C19.7213 144.453 19.8975 144.829 20.1794 145.134C20.4614 145.416 20.849 145.557 21.3424 145.557C21.7888 145.557 22.1764 145.416 22.5054 145.134C22.8343 144.829 23.081 144.406 23.2454 143.865C23.4099 143.302 23.4921 142.632 23.4921 141.857H23.4569C23.3159 142.092 23.1397 142.303 22.9283 142.491C22.7168 142.679 22.4701 142.832 22.1882 142.949C21.9298 143.043 21.6478 143.09 21.3424 143.09C20.8725 143.09 20.4379 142.973 20.0385 142.738C19.6391 142.503 19.3219 142.174 19.0869 141.751C18.852 141.328 18.7345 140.858 18.7345 140.341C18.7345 139.824 18.8402 139.354 19.0517 138.932C19.2866 138.509 19.6038 138.18 20.0032 137.945C20.4261 137.686 20.9078 137.557 21.4481 137.557C21.8005 137.557 22.1412 137.628 22.4701 137.769C22.8225 137.91 23.128 138.133 23.3864 138.438C23.6683 138.744 23.8798 139.155 24.0208 139.672C24.1852 140.189 24.2674 140.811 24.2674 141.539C24.2674 142.244 24.2087 142.89 24.0912 143.478C23.9738 144.042 23.7858 144.535 23.5274 144.958C23.2924 145.381 22.987 145.71 22.6111 145.945C22.2587 146.156 21.8358 146.262 21.3424 146.262ZM21.4481 142.385C21.7301 142.385 21.9885 142.327 22.2234 142.209C22.4584 142.092 22.6581 141.939 22.8225 141.751C23.0105 141.539 23.1515 141.316 23.2454 141.081C23.3394 140.823 23.3747 140.553 23.3512 140.271C23.3277 139.895 23.2219 139.554 23.034 139.249C22.8695 138.943 22.6463 138.708 22.3644 138.544C22.106 138.356 21.8005 138.262 21.4481 138.262C21.0722 138.262 20.7433 138.356 20.4614 138.544C20.1794 138.732 19.9562 138.979 19.7918 139.284C19.6273 139.589 19.5451 139.942 19.5451 140.341C19.5451 140.717 19.6273 141.058 19.7918 141.363C19.9562 141.669 20.1794 141.915 20.4614 142.103C20.7433 142.291 21.0722 142.385 21.4481 142.385ZM28.6063 146.262C28.0189 146.262 27.5021 146.097 27.0557 145.768C26.6328 145.416 26.3038 144.923 26.0689 144.288C25.8575 143.63 25.7517 142.843 25.7517 141.927C25.7517 141.011 25.8692 140.236 26.1041 139.601C26.3391 138.943 26.668 138.438 27.0909 138.086C27.5138 137.733 28.0189 137.557 28.6063 137.557C29.2171 137.557 29.734 137.733 30.1569 138.086C30.5798 138.438 30.897 138.943 31.1084 139.601C31.3434 140.236 31.4609 141.011 31.4609 141.927C31.4609 142.843 31.3434 143.63 31.1084 144.288C30.897 144.923 30.5798 145.416 30.1569 145.768C29.734 146.097 29.2171 146.262 28.6063 146.262ZM28.6063 145.557C29.0527 145.557 29.4286 145.416 29.734 145.134C30.0395 144.829 30.2744 144.406 30.4389 143.865C30.6033 143.325 30.6855 142.679 30.6855 141.927C30.6855 141.152 30.6033 140.494 30.4389 139.954C30.2744 139.413 30.0395 139.002 29.734 138.72C29.4286 138.415 29.0527 138.262 28.6063 138.262C28.1834 138.262 27.8075 138.415 27.4786 138.72C27.1731 139.002 26.9382 139.413 26.7737 139.954C26.6093 140.494 26.527 141.152 26.527 141.927C26.527 142.679 26.6093 143.325 26.7737 143.865C26.9382 144.406 27.1731 144.829 27.4786 145.134C27.8075 145.416 28.1834 145.557 28.6063 145.557Z" fill="#8E9198" style="fill:#8E9198;fill:color(display-p3 0.5569 0.5686 0.5961);fill-opacity:1;"/>
<path d="M8.5766 446.336V445.737L11.3607 442.636C11.7131 442.236 11.995 441.896 12.2065 441.614C12.4179 441.332 12.5706 441.073 12.6646 440.838C12.7821 440.58 12.8408 440.322 12.8408 440.063C12.8408 439.734 12.7586 439.452 12.5941 439.217C12.4532 438.959 12.2535 438.771 11.995 438.653C11.7366 438.512 11.4429 438.442 11.114 438.442C10.7851 438.442 10.4914 438.524 10.233 438.689C9.97452 438.83 9.77481 439.029 9.63385 439.288C9.49288 439.546 9.4224 439.84 9.4224 440.169H8.64708C8.64708 439.699 8.75281 439.288 8.96426 438.935C9.17571 438.559 9.46939 438.266 9.8453 438.054C10.2212 437.843 10.6559 437.737 11.1492 437.737C11.6191 437.737 12.042 437.843 12.4179 438.054C12.7938 438.242 13.0875 438.512 13.299 438.865C13.5104 439.217 13.6161 439.605 13.6161 440.028C13.6161 440.357 13.5574 440.662 13.4399 440.944C13.346 441.226 13.158 441.555 12.8761 441.931C12.6176 442.283 12.2535 442.718 11.7836 443.235L9.70433 445.561V445.596H13.8628V446.336H8.5766ZM16.4411 446.407C16.2532 446.407 16.1004 446.348 15.983 446.23C15.8655 446.113 15.8068 445.96 15.8068 445.772C15.8068 445.608 15.8655 445.467 15.983 445.349C16.1004 445.232 16.2532 445.173 16.4411 445.173C16.6056 445.173 16.7465 445.232 16.864 445.349C16.9815 445.467 17.0402 445.608 17.0402 445.772C17.0402 445.96 16.9815 446.113 16.864 446.23C16.7465 446.348 16.6056 446.407 16.4411 446.407ZM21.3451 446.442C20.8752 446.442 20.464 446.348 20.1116 446.16C19.7592 445.972 19.4655 445.713 19.2306 445.385C19.0191 445.032 18.8899 444.633 18.8429 444.186H19.6535C19.724 444.633 19.9002 445.009 20.1821 445.314C20.464 445.596 20.8517 445.737 21.3451 445.737C21.7915 445.737 22.1791 445.596 22.508 445.314C22.837 445.009 23.0837 444.586 23.2481 444.045C23.4126 443.482 23.4948 442.812 23.4948 442.037H23.4596C23.3186 442.272 23.1424 442.483 22.9309 442.671C22.7195 442.859 22.4728 443.012 22.1909 443.129C21.9324 443.223 21.6505 443.27 21.3451 443.27C20.8752 443.27 20.4405 443.153 20.0411 442.918C19.6417 442.683 19.3246 442.354 19.0896 441.931C18.8547 441.508 18.7372 441.038 18.7372 440.521C18.7372 440.004 18.8429 439.534 19.0544 439.112C19.2893 438.689 19.6065 438.36 20.0059 438.125C20.4288 437.866 20.9104 437.737 21.4508 437.737C21.8032 437.737 22.1439 437.808 22.4728 437.949C22.8252 438.09 23.1306 438.313 23.3891 438.618C23.671 438.924 23.8825 439.335 24.0234 439.852C24.1879 440.369 24.2701 440.991 24.2701 441.719C24.2701 442.424 24.2114 443.07 24.0939 443.658C23.9764 444.222 23.7885 444.715 23.53 445.138C23.2951 445.561 22.9897 445.89 22.6138 446.125C22.2614 446.336 21.8385 446.442 21.3451 446.442ZM21.4508 442.565C21.7327 442.565 21.9912 442.507 22.2261 442.389C22.4611 442.272 22.6608 442.119 22.8252 441.931C23.0132 441.719 23.1541 441.496 23.2481 441.261C23.3421 441.003 23.3773 440.733 23.3538 440.451C23.3303 440.075 23.2246 439.734 23.0367 439.429C22.8722 439.123 22.649 438.888 22.3671 438.724C22.1086 438.536 21.8032 438.442 21.4508 438.442C21.0749 438.442 20.746 438.536 20.464 438.724C20.1821 438.912 19.9589 439.159 19.7944 439.464C19.63 439.769 19.5477 440.122 19.5477 440.521C19.5477 440.897 19.63 441.238 19.7944 441.543C19.9589 441.849 20.1821 442.095 20.464 442.283C20.746 442.471 21.0749 442.565 21.4508 442.565ZM28.609 446.442C28.0216 446.442 27.5047 446.277 27.0583 445.948C26.6354 445.596 26.3065 445.103 26.0716 444.468C25.8601 443.81 25.7544 443.023 25.7544 442.107C25.7544 441.191 25.8719 440.416 26.1068 439.781C26.3418 439.123 26.6707 438.618 27.0936 438.266C27.5165 437.913 28.0216 437.737 28.609 437.737C29.2198 437.737 29.7367 437.913 30.1596 438.266C30.5825 438.618 30.8997 439.123 31.1111 439.781C31.3461 440.416 31.4635 441.191 31.4635 442.107C31.4635 443.023 31.3461 443.81 31.1111 444.468C30.8997 445.103 30.5825 445.596 30.1596 445.948C29.7367 446.277 29.2198 446.442 28.609 446.442ZM28.609 445.737C29.0554 445.737 29.4313 445.596 29.7367 445.314C30.0421 445.009 30.2771 444.586 30.4415 444.045C30.606 443.505 30.6882 442.859 30.6882 442.107C30.6882 441.332 30.606 440.674 30.4415 440.134C30.2771 439.593 30.0421 439.182 29.7367 438.9C29.4313 438.595 29.0554 438.442 28.609 438.442C28.1861 438.442 27.8102 438.595 27.4812 438.9C27.1758 439.182 26.9409 439.593 26.7764 440.134C26.6119 440.674 26.5297 441.332 26.5297 442.107C26.5297 442.859 26.6119 443.505 26.7764 444.045C26.9409 444.586 27.1758 445.009 27.4812 445.314C27.8102 445.596 28.1861 445.737 28.609 445.737Z" fill="#8E9198" style="fill:#8E9198;fill:color(display-p3 0.5569 0.5686 0.5961);fill-opacity:1;"/>
<path fill-rule="evenodd" clip-rule="evenodd" d="M37.5668 141.909H45.5668V442.089H37.5668V141.909Z" fill="#DFE2E6" style="fill:#DFE2E6;fill:color(display-p3 0.8745 0.8863 0.9020);fill-opacity:1;"/>
</svg>
