<svg width="55" height="583" viewBox="0 0 55 583" fill="none" xmlns="http://www.w3.org/2000/svg">
<rect opacity="0.2" width="54.5668" height="582.62" fill="white" style="fill:white;fill-opacity:1;"/>
<path fill-rule="evenodd" clip-rule="evenodd" d="M38.5668 14.7097H44.6051V567.91H38.5668V14.7097Z" fill="#F6F7F8" style="fill:#F6F7F8;fill:color(display-p3 0.9647 0.9686 0.9725);fill-opacity:1;"/>
<path d="M11.4091 137.78C10.9392 137.78 10.528 137.686 10.1756 137.498C9.82321 137.31 9.52953 137.051 9.29459 136.723C9.08314 136.37 8.95392 135.971 8.90693 135.524H9.71749C9.78797 135.971 9.96418 136.347 10.2461 136.652C10.528 136.934 10.9157 137.075 11.4091 137.075C11.8555 137.075 12.2431 136.934 12.5721 136.652C12.901 136.347 13.1477 135.924 13.3121 135.383C13.4766 134.819 13.5588 134.15 13.5588 133.375H13.5236C13.3826 133.61 13.2064 133.821 12.995 134.009C12.7835 134.197 12.5368 134.35 12.2549 134.467C11.9964 134.561 11.7145 134.608 11.4091 134.608C10.9392 134.608 10.5046 134.491 10.1051 134.256C9.70574 134.021 9.38857 133.692 9.15362 133.269C8.91868 132.846 8.80121 132.376 8.80121 131.859C8.80121 131.342 8.90693 130.872 9.11838 130.45C9.35333 130.027 9.6705 129.698 10.0699 129.463C10.4928 129.204 10.9744 129.075 11.5148 129.075C11.8672 129.075 12.2079 129.146 12.5368 129.287C12.8892 129.428 13.1947 129.651 13.4531 129.956C13.735 130.262 13.9465 130.673 14.0874 131.19C14.2519 131.706 14.3341 132.329 14.3341 133.057C14.3341 133.762 14.2754 134.408 14.1579 134.996C14.0405 135.56 13.8525 136.053 13.5941 136.476C13.3591 136.899 13.0537 137.228 12.6778 137.463C12.3254 137.674 11.9025 137.78 11.4091 137.78ZM11.5148 133.903C11.7967 133.903 12.0552 133.844 12.2901 133.727C12.5251 133.61 12.7248 133.457 12.8892 133.269C13.0772 133.057 13.2182 132.834 13.3121 132.599C13.4061 132.341 13.4414 132.071 13.4179 131.789C13.3944 131.413 13.2886 131.072 13.1007 130.767C12.9362 130.461 12.713 130.226 12.4311 130.062C12.1727 129.874 11.8672 129.78 11.5148 129.78C11.1389 129.78 10.81 129.874 10.528 130.062C10.2461 130.25 10.0229 130.497 9.85846 130.802C9.694 131.107 9.61177 131.46 9.61177 131.859C9.61177 132.235 9.694 132.576 9.85846 132.881C10.0229 133.187 10.2461 133.433 10.528 133.621C10.81 133.809 11.1389 133.903 11.5148 133.903ZM16.4384 137.745C16.2505 137.745 16.0978 137.686 15.9803 137.568C15.8628 137.451 15.8041 137.298 15.8041 137.11C15.8041 136.946 15.8628 136.805 15.9803 136.687C16.0978 136.57 16.2505 136.511 16.4384 136.511C16.6029 136.511 16.7439 136.57 16.8613 136.687C16.9788 136.805 17.0376 136.946 17.0376 137.11C17.0376 137.298 16.9788 137.451 16.8613 137.568C16.7439 137.686 16.6029 137.745 16.4384 137.745ZM21.3424 137.78C20.8725 137.78 20.4614 137.686 20.1089 137.498C19.7565 137.31 19.4628 137.051 19.2279 136.723C19.0165 136.37 18.8872 135.971 18.8402 135.524H19.6508C19.7213 135.971 19.8975 136.347 20.1794 136.652C20.4614 136.934 20.849 137.075 21.3424 137.075C21.7888 137.075 22.1764 136.934 22.5054 136.652C22.8343 136.347 23.081 135.924 23.2454 135.383C23.4099 134.819 23.4921 134.15 23.4921 133.375H23.4569C23.3159 133.61 23.1397 133.821 22.9283 134.009C22.7168 134.197 22.4701 134.35 22.1882 134.467C21.9298 134.561 21.6478 134.608 21.3424 134.608C20.8725 134.608 20.4379 134.491 20.0385 134.256C19.6391 134.021 19.3219 133.692 19.0869 133.269C18.852 132.846 18.7345 132.376 18.7345 131.859C18.7345 131.342 18.8402 130.872 19.0517 130.45C19.2866 130.027 19.6038 129.698 20.0032 129.463C20.4261 129.204 20.9078 129.075 21.4481 129.075C21.8005 129.075 22.1412 129.146 22.4701 129.287C22.8225 129.428 23.128 129.651 23.3864 129.956C23.6683 130.262 23.8798 130.673 24.0208 131.19C24.1852 131.706 24.2674 132.329 24.2674 133.057C24.2674 133.762 24.2087 134.408 24.0912 134.996C23.9738 135.56 23.7858 136.053 23.5274 136.476C23.2924 136.899 22.987 137.228 22.6111 137.463C22.2587 137.674 21.8358 137.78 21.3424 137.78ZM21.4481 133.903C21.7301 133.903 21.9885 133.844 22.2234 133.727C22.4584 133.61 22.6581 133.457 22.8225 133.269C23.0105 133.057 23.1515 132.834 23.2454 132.599C23.3394 132.341 23.3747 132.071 23.3512 131.789C23.3277 131.413 23.2219 131.072 23.034 130.767C22.8695 130.461 22.6463 130.226 22.3644 130.062C22.106 129.874 21.8005 129.78 21.4481 129.78C21.0722 129.78 20.7433 129.874 20.4614 130.062C20.1794 130.25 19.9562 130.497 19.7918 130.802C19.6273 131.107 19.5451 131.46 19.5451 131.859C19.5451 132.235 19.6273 132.576 19.7918 132.881C19.9562 133.187 20.1794 133.433 20.4614 133.621C20.7433 133.809 21.0722 133.903 21.4481 133.903ZM28.6063 137.78C28.0189 137.78 27.5021 137.615 27.0557 137.286C26.6328 136.934 26.3038 136.441 26.0689 135.806C25.8575 135.148 25.7517 134.361 25.7517 133.445C25.7517 132.529 25.8692 131.753 26.1041 131.119C26.3391 130.461 26.668 129.956 27.0909 129.604C27.5138 129.251 28.0189 129.075 28.6063 129.075C29.2171 129.075 29.734 129.251 30.1569 129.604C30.5798 129.956 30.897 130.461 31.1084 131.119C31.3434 131.753 31.4609 132.529 31.4609 133.445C31.4609 134.361 31.3434 135.148 31.1084 135.806C30.897 136.441 30.5798 136.934 30.1569 137.286C29.734 137.615 29.2171 137.78 28.6063 137.78ZM28.6063 137.075C29.0527 137.075 29.4286 136.934 29.734 136.652C30.0395 136.347 30.2744 135.924 30.4389 135.383C30.6033 134.843 30.6855 134.197 30.6855 133.445C30.6855 132.67 30.6033 132.012 30.4389 131.472C30.2744 130.931 30.0395 130.52 29.734 130.238C29.4286 129.933 29.0527 129.78 28.6063 129.78C28.1834 129.78 27.8075 129.933 27.4786 130.238C27.1731 130.52 26.9382 130.931 26.7737 131.472C26.6093 132.012 26.527 132.67 26.527 133.445C26.527 134.197 26.6093 134.843 26.7737 135.383C26.9382 135.924 27.1731 136.347 27.4786 136.652C27.8075 136.934 28.1834 137.075 28.6063 137.075Z" fill="#8E9198" style="fill:#8E9198;fill:color(display-p3 0.5569 0.5686 0.5961);fill-opacity:1;"/>
<path d="M8.5766 453.439V452.84L11.3607 449.738C11.7131 449.339 11.995 448.998 12.2065 448.716C12.4179 448.434 12.5706 448.176 12.6646 447.941C12.7821 447.683 12.8408 447.424 12.8408 447.166C12.8408 446.837 12.7586 446.555 12.5941 446.32C12.4532 446.062 12.2535 445.874 11.995 445.756C11.7366 445.615 11.4429 445.545 11.114 445.545C10.7851 445.545 10.4914 445.627 10.233 445.791C9.97452 445.932 9.77481 446.132 9.63385 446.39C9.49288 446.649 9.4224 446.943 9.4224 447.272H8.64708C8.64708 446.802 8.75281 446.39 8.96426 446.038C9.17571 445.662 9.46939 445.368 9.8453 445.157C10.2212 444.946 10.6559 444.84 11.1492 444.84C11.6191 444.84 12.042 444.946 12.4179 445.157C12.7938 445.345 13.0875 445.615 13.299 445.968C13.5104 446.32 13.6161 446.708 13.6161 447.131C13.6161 447.459 13.5574 447.765 13.4399 448.047C13.346 448.329 13.158 448.658 12.8761 449.034C12.6176 449.386 12.2535 449.821 11.7836 450.338L9.70433 452.663V452.699H13.8628V453.439H8.5766ZM16.4411 453.509C16.2532 453.509 16.1004 453.451 15.983 453.333C15.8655 453.216 15.8068 453.063 15.8068 452.875C15.8068 452.71 15.8655 452.569 15.983 452.452C16.1004 452.335 16.2532 452.276 16.4411 452.276C16.6056 452.276 16.7465 452.335 16.864 452.452C16.9815 452.569 17.0402 452.71 17.0402 452.875C17.0402 453.063 16.9815 453.216 16.864 453.333C16.7465 453.451 16.6056 453.509 16.4411 453.509ZM21.3451 453.545C20.8752 453.545 20.464 453.451 20.1116 453.263C19.7592 453.075 19.4655 452.816 19.2306 452.487C19.0191 452.135 18.8899 451.735 18.8429 451.289H19.6535C19.724 451.735 19.9002 452.111 20.1821 452.417C20.464 452.699 20.8517 452.84 21.3451 452.84C21.7915 452.84 22.1791 452.699 22.508 452.417C22.837 452.111 23.0837 451.688 23.2481 451.148C23.4126 450.584 23.4948 449.915 23.4948 449.139H23.4596C23.3186 449.374 23.1424 449.586 22.9309 449.774C22.7195 449.962 22.4728 450.114 22.1909 450.232C21.9324 450.326 21.6505 450.373 21.3451 450.373C20.8752 450.373 20.4405 450.255 20.0411 450.02C19.6417 449.785 19.3246 449.456 19.0896 449.034C18.8547 448.611 18.7372 448.141 18.7372 447.624C18.7372 447.107 18.8429 446.637 19.0544 446.214C19.2893 445.791 19.6065 445.462 20.0059 445.228C20.4288 444.969 20.9104 444.84 21.4508 444.84C21.8032 444.84 22.1439 444.91 22.4728 445.051C22.8252 445.192 23.1306 445.415 23.3891 445.721C23.671 446.026 23.8825 446.437 24.0234 446.954C24.1879 447.471 24.2701 448.094 24.2701 448.822C24.2701 449.527 24.2114 450.173 24.0939 450.76C23.9764 451.324 23.7885 451.818 23.53 452.241C23.2951 452.663 22.9897 452.992 22.6138 453.227C22.2614 453.439 21.8385 453.545 21.3451 453.545ZM21.4508 449.668C21.7327 449.668 21.9912 449.609 22.2261 449.492C22.4611 449.374 22.6608 449.222 22.8252 449.034C23.0132 448.822 23.1541 448.599 23.2481 448.364C23.3421 448.106 23.3773 447.835 23.3538 447.553C23.3303 447.178 23.2246 446.837 23.0367 446.531C22.8722 446.226 22.649 445.991 22.3671 445.827C22.1086 445.639 21.8032 445.545 21.4508 445.545C21.0749 445.545 20.746 445.639 20.464 445.827C20.1821 446.015 19.9589 446.261 19.7944 446.567C19.63 446.872 19.5477 447.225 19.5477 447.624C19.5477 448 19.63 448.341 19.7944 448.646C19.9589 448.951 20.1821 449.198 20.464 449.386C20.746 449.574 21.0749 449.668 21.4508 449.668ZM28.609 453.545C28.0216 453.545 27.5047 453.38 27.0583 453.051C26.6354 452.699 26.3065 452.205 26.0716 451.571C25.8601 450.913 25.7544 450.126 25.7544 449.21C25.7544 448.294 25.8719 447.518 26.1068 446.884C26.3418 446.226 26.6707 445.721 27.0936 445.368C27.5165 445.016 28.0216 444.84 28.609 444.84C29.2198 444.84 29.7367 445.016 30.1596 445.368C30.5825 445.721 30.8997 446.226 31.1111 446.884C31.3461 447.518 31.4635 448.294 31.4635 449.21C31.4635 450.126 31.3461 450.913 31.1111 451.571C30.8997 452.205 30.5825 452.699 30.1596 453.051C29.7367 453.38 29.2198 453.545 28.609 453.545ZM28.609 452.84C29.0554 452.84 29.4313 452.699 29.7367 452.417C30.0421 452.111 30.2771 451.688 30.4415 451.148C30.606 450.608 30.6882 449.962 30.6882 449.21C30.6882 448.434 30.606 447.777 30.4415 447.236C30.2771 446.696 30.0421 446.285 29.7367 446.003C29.4313 445.697 29.0554 445.545 28.609 445.545C28.1861 445.545 27.8102 445.697 27.4812 446.003C27.1758 446.285 26.9409 446.696 26.7764 447.236C26.6119 447.777 26.5297 448.434 26.5297 449.21C26.5297 449.962 26.6119 450.608 26.7764 451.148C26.9409 451.688 27.1758 452.111 27.4812 452.417C27.8102 452.699 28.1861 452.84 28.609 452.84Z" fill="#8E9198" style="fill:#8E9198;fill:color(display-p3 0.5569 0.5686 0.5961);fill-opacity:1;"/>
<path fill-rule="evenodd" clip-rule="evenodd" d="M37.5668 133.427H45.5668V449.192H37.5668V133.427Z" fill="#DFE2E6" style="fill:#DFE2E6;fill:color(display-p3 0.8745 0.8863 0.9020);fill-opacity:1;"/>
</svg>
