<svg width="68" height="581" viewBox="0 0 68 581" fill="none" xmlns="http://www.w3.org/2000/svg">
<path fill-rule="evenodd" clip-rule="evenodd" d="M55.0449 14.5801H61.0832V561.503H55.0449V14.5801Z" fill="#F6F7F8" style="fill:#F6F7F8;fill:color(display-p3 0.9647 0.9686 0.9725);fill-opacity:1;"/>
<path d="M27.8872 126.9C27.4173 126.9 27.0061 126.806 26.6537 126.618C26.3013 126.43 26.0076 126.172 25.7727 125.843C25.5612 125.49 25.432 125.091 25.385 124.645H26.1956C26.2661 125.091 26.4423 125.467 26.7242 125.772C27.0061 126.054 27.3938 126.195 27.8872 126.195C28.3336 126.195 28.7212 126.054 29.0501 125.772C29.3791 125.467 29.6258 125.044 29.7902 124.504C29.9547 123.94 30.0369 123.27 30.0369 122.495H30.0017C29.8607 122.73 29.6845 122.941 29.473 123.129C29.2616 123.317 29.0149 123.47 28.733 123.587C28.4745 123.681 28.1926 123.728 27.8872 123.728C27.4173 123.728 26.9826 123.611 26.5832 123.376C26.1838 123.141 25.8667 122.812 25.6317 122.389C25.3968 121.966 25.2793 121.496 25.2793 120.979C25.2793 120.463 25.385 119.993 25.5965 119.57C25.8314 119.147 26.1486 118.818 26.548 118.583C26.9709 118.325 27.4525 118.195 27.9929 118.195C28.3453 118.195 28.686 118.266 29.0149 118.407C29.3673 118.548 29.6727 118.771 29.9312 119.076C30.2131 119.382 30.4246 119.793 30.5655 120.31C30.73 120.827 30.8122 121.449 30.8122 122.178C30.8122 122.882 30.7535 123.529 30.636 124.116C30.5185 124.68 30.3306 125.173 30.0722 125.596C29.8372 126.019 29.5318 126.348 29.1559 126.583C28.8035 126.794 28.3806 126.9 27.8872 126.9ZM27.9929 123.023C28.2748 123.023 28.5333 122.965 28.7682 122.847C29.0032 122.73 29.2029 122.577 29.3673 122.389C29.5553 122.178 29.6962 121.954 29.7902 121.719C29.8842 121.461 29.9194 121.191 29.8959 120.909C29.8725 120.533 29.7667 120.192 29.5788 119.887C29.4143 119.581 29.1911 119.347 28.9092 119.182C28.6507 118.994 28.3453 118.9 27.9929 118.9C27.617 118.9 27.2881 118.994 27.0061 119.182C26.7242 119.37 26.501 119.617 26.3365 119.922C26.1721 120.228 26.0899 120.58 26.0899 120.979C26.0899 121.355 26.1721 121.696 26.3365 122.001C26.501 122.307 26.7242 122.554 27.0061 122.741C27.2881 122.929 27.617 123.023 27.9929 123.023ZM32.9165 126.865C32.7286 126.865 32.5759 126.806 32.4584 126.689C32.3409 126.571 32.2822 126.418 32.2822 126.23C32.2822 126.066 32.3409 125.925 32.4584 125.807C32.5759 125.69 32.7286 125.631 32.9165 125.631C33.081 125.631 33.222 125.69 33.3394 125.807C33.4569 125.925 33.5156 126.066 33.5156 126.23C33.5156 126.418 33.4569 126.571 33.3394 126.689C33.222 126.806 33.081 126.865 32.9165 126.865ZM37.8205 126.9C37.3506 126.9 36.9394 126.806 36.587 126.618C36.2346 126.43 35.9409 126.172 35.706 125.843C35.4945 125.49 35.3653 125.091 35.3183 124.645H36.1289C36.1994 125.091 36.3756 125.467 36.6575 125.772C36.9394 126.054 37.3271 126.195 37.8205 126.195C38.2669 126.195 38.6545 126.054 38.9835 125.772C39.3124 125.467 39.5591 125.044 39.7235 124.504C39.888 123.94 39.9702 123.27 39.9702 122.495H39.935C39.794 122.73 39.6178 122.941 39.4064 123.129C39.1949 123.317 38.9482 123.47 38.6663 123.587C38.4078 123.681 38.1259 123.728 37.8205 123.728C37.3506 123.728 36.916 123.611 36.5165 123.376C36.1171 123.141 35.8 122.812 35.565 122.389C35.3301 121.966 35.2126 121.496 35.2126 120.979C35.2126 120.463 35.3183 119.993 35.5298 119.57C35.7647 119.147 36.0819 118.818 36.4813 118.583C36.9042 118.325 37.3858 118.195 37.9262 118.195C38.2786 118.195 38.6193 118.266 38.9482 118.407C39.3006 118.548 39.6061 118.771 39.8645 119.076C40.1464 119.382 40.3579 119.793 40.4988 120.31C40.6633 120.827 40.7455 121.449 40.7455 122.178C40.7455 122.882 40.6868 123.529 40.5693 124.116C40.4519 124.68 40.2639 125.173 40.0055 125.596C39.7705 126.019 39.4651 126.348 39.0892 126.583C38.7368 126.794 38.3139 126.9 37.8205 126.9ZM37.9262 123.023C38.2081 123.023 38.4666 122.965 38.7015 122.847C38.9365 122.73 39.1362 122.577 39.3006 122.389C39.4886 122.178 39.6296 121.954 39.7235 121.719C39.8175 121.461 39.8528 121.191 39.8293 120.909C39.8058 120.533 39.7 120.192 39.5121 119.887C39.3476 119.581 39.1244 119.347 38.8425 119.182C38.5841 118.994 38.2786 118.9 37.9262 118.9C37.5503 118.9 37.2214 118.994 36.9394 119.182C36.6575 119.37 36.4343 119.617 36.2699 119.922C36.1054 120.228 36.0232 120.58 36.0232 120.979C36.0232 121.355 36.1054 121.696 36.2699 122.001C36.4343 122.307 36.6575 122.554 36.9394 122.741C37.2214 122.929 37.5503 123.023 37.9262 123.023ZM45.0844 126.9C44.497 126.9 43.9801 126.736 43.5338 126.407C43.1109 126.054 42.7819 125.561 42.547 124.926C42.3355 124.269 42.2298 123.482 42.2298 122.565C42.2298 121.649 42.3473 120.874 42.5822 120.239C42.8172 119.581 43.1461 119.076 43.569 118.724C43.9919 118.372 44.497 118.195 45.0844 118.195C45.6952 118.195 46.2121 118.372 46.635 118.724C47.0579 119.076 47.3751 119.581 47.5865 120.239C47.8215 120.874 47.939 121.649 47.939 122.565C47.939 123.482 47.8215 124.269 47.5865 124.926C47.3751 125.561 47.0579 126.054 46.635 126.407C46.2121 126.736 45.6952 126.9 45.0844 126.9ZM45.0844 126.195C45.5308 126.195 45.9067 126.054 46.2121 125.772C46.5175 125.467 46.7525 125.044 46.9169 124.504C47.0814 123.963 47.1636 123.317 47.1636 122.565C47.1636 121.79 47.0814 121.132 46.9169 120.592C46.7525 120.051 46.5175 119.64 46.2121 119.358C45.9067 119.053 45.5308 118.9 45.0844 118.9C44.6615 118.9 44.2856 119.053 43.9567 119.358C43.6512 119.64 43.4163 120.051 43.2518 120.592C43.0874 121.132 43.0051 121.79 43.0051 122.565C43.0051 123.317 43.0874 123.963 43.2518 124.504C43.4163 125.044 43.6512 125.467 43.9567 125.772C44.2856 126.054 44.6615 126.195 45.0844 126.195Z" fill="#8E9198" style="fill:#8E9198;fill:color(display-p3 0.5569 0.5686 0.5961);fill-opacity:1;"/>
<path d="M25.0547 439.898V439.299L27.8388 436.197C28.1912 435.798 28.4731 435.457 28.6846 435.175C28.896 434.893 29.0487 434.635 29.1427 434.4C29.2602 434.142 29.3189 433.883 29.3189 433.625C29.3189 433.296 29.2367 433.014 29.0722 432.779C28.9313 432.521 28.7316 432.333 28.4731 432.215C28.2147 432.074 27.921 432.004 27.5921 432.004C27.2632 432.004 26.9695 432.086 26.711 432.25C26.4526 432.391 26.2529 432.591 26.1119 432.849C25.971 433.108 25.9005 433.402 25.9005 433.73H25.1252C25.1252 433.261 25.2309 432.849 25.4423 432.497C25.6538 432.121 25.9475 431.827 26.3234 431.616C26.6993 431.405 27.1339 431.299 27.6273 431.299C28.0972 431.299 28.5201 431.405 28.896 431.616C29.2719 431.804 29.5656 432.074 29.7771 432.427C29.9885 432.779 30.0942 433.167 30.0942 433.59C30.0942 433.918 30.0355 434.224 29.918 434.506C29.824 434.788 29.6361 435.117 29.3542 435.493C29.0957 435.845 28.7316 436.28 28.2617 436.797L26.1824 439.122V439.158H30.3409V439.898H25.0547ZM32.9192 439.968C32.7313 439.968 32.5785 439.91 32.4611 439.792C32.3436 439.675 32.2849 439.522 32.2849 439.334C32.2849 439.169 32.3436 439.028 32.4611 438.911C32.5785 438.794 32.7313 438.735 32.9192 438.735C33.0837 438.735 33.2246 438.794 33.3421 438.911C33.4596 439.028 33.5183 439.169 33.5183 439.334C33.5183 439.522 33.4596 439.675 33.3421 439.792C33.2246 439.91 33.0837 439.968 32.9192 439.968ZM37.8232 440.004C37.3533 440.004 36.9421 439.91 36.5897 439.722C36.2373 439.534 35.9436 439.275 35.7087 438.946C35.4972 438.594 35.368 438.194 35.321 437.748H36.1316C36.202 438.194 36.3783 438.57 36.6602 438.876C36.9421 439.158 37.3298 439.299 37.8232 439.299C38.2696 439.299 38.6572 439.158 38.9861 438.876C39.3151 438.57 39.5617 438.147 39.7262 437.607C39.8907 437.043 39.9729 436.374 39.9729 435.598H39.9377C39.7967 435.833 39.6205 436.045 39.409 436.233C39.1976 436.421 38.9509 436.573 38.669 436.691C38.4105 436.785 38.1286 436.832 37.8232 436.832C37.3533 436.832 36.9186 436.714 36.5192 436.479C36.1198 436.244 35.8026 435.915 35.5677 435.493C35.3328 435.07 35.2153 434.6 35.2153 434.083C35.2153 433.566 35.321 433.096 35.5325 432.673C35.7674 432.25 36.0846 431.921 36.484 431.686C36.9069 431.428 37.3885 431.299 37.9289 431.299C38.2813 431.299 38.622 431.369 38.9509 431.51C39.3033 431.651 39.6087 431.874 39.8672 432.18C40.1491 432.485 40.3606 432.896 40.5015 433.413C40.666 433.93 40.7482 434.553 40.7482 435.281C40.7482 435.986 40.6895 436.632 40.572 437.219C40.4545 437.783 40.2666 438.277 40.0081 438.7C39.7732 439.122 39.4678 439.451 39.0919 439.686C38.7394 439.898 38.3165 440.004 37.8232 440.004ZM37.9289 436.127C38.2108 436.127 38.4693 436.068 38.7042 435.951C38.9391 435.833 39.1388 435.681 39.3033 435.493C39.4913 435.281 39.6322 435.058 39.7262 434.823C39.8202 434.565 39.8554 434.294 39.8319 434.012C39.8084 433.637 39.7027 433.296 39.5148 432.99C39.3503 432.685 39.1271 432.45 38.8452 432.286C38.5867 432.098 38.2813 432.004 37.9289 432.004C37.553 432.004 37.224 432.098 36.9421 432.286C36.6602 432.474 36.437 432.72 36.2725 433.026C36.1081 433.331 36.0258 433.684 36.0258 434.083C36.0258 434.459 36.1081 434.799 36.2725 435.105C36.437 435.41 36.6602 435.657 36.9421 435.845C37.224 436.033 37.553 436.127 37.9289 436.127ZM45.0871 440.004C44.4997 440.004 43.9828 439.839 43.5364 439.51C43.1135 439.158 42.7846 438.664 42.5497 438.03C42.3382 437.372 42.2325 436.585 42.2325 435.669C42.2325 434.753 42.35 433.977 42.5849 433.343C42.8198 432.685 43.1488 432.18 43.5717 431.827C43.9946 431.475 44.4997 431.299 45.0871 431.299C45.6979 431.299 46.2148 431.475 46.6377 431.827C47.0606 432.18 47.3778 432.685 47.5892 433.343C47.8242 433.977 47.9416 434.753 47.9416 435.669C47.9416 436.585 47.8242 437.372 47.5892 438.03C47.3778 438.664 47.0606 439.158 46.6377 439.51C46.2148 439.839 45.6979 440.004 45.0871 440.004ZM45.0871 439.299C45.5334 439.299 45.9094 439.158 46.2148 438.876C46.5202 438.57 46.7552 438.147 46.9196 437.607C47.0841 437.067 47.1663 436.421 47.1663 435.669C47.1663 434.893 47.0841 434.236 46.9196 433.695C46.7552 433.155 46.5202 432.744 46.2148 432.462C45.9094 432.156 45.5334 432.004 45.0871 432.004C44.6642 432.004 44.2882 432.156 43.9593 432.462C43.6539 432.744 43.419 433.155 43.2545 433.695C43.09 434.236 43.0078 434.893 43.0078 435.669C43.0078 436.421 43.09 437.067 43.2545 437.607C43.419 438.147 43.6539 438.57 43.9593 438.876C44.2882 439.158 44.6642 439.299 45.0871 439.299Z" fill="#8E9198" style="fill:#8E9198;fill:color(display-p3 0.5569 0.5686 0.5961);fill-opacity:1;"/>
<path fill-rule="evenodd" clip-rule="evenodd" d="M54.0449 121.168H62.0449V436.933H54.0449V121.168Z" fill="#DFE2E6" style="fill:#DFE2E6;fill:color(display-p3 0.8745 0.8863 0.9020);fill-opacity:1;"/>
</svg>
