<svg width="479" height="244" viewBox="0 0 479 244" fill="none" xmlns="http://www.w3.org/2000/svg">
<path d="M0 239.404C4.43516e-06 188.672 16.1163 139.251 46.0238 98.2717L65.3619 112.385C38.4451 149.266 23.9404 193.745 23.9404 239.404L0 239.404Z" fill="#52C376" style="fill:#52C376;fill:color(display-p3 0.3216 0.7647 0.4627);fill-opacity:1;"/>
<path d="M46.1784 98.0602C75.7802 57.5927 117.34 27.4404 164.996 11.8569L172.437 34.6117C129.547 48.6368 92.1426 75.7738 65.5009 112.195L46.1784 98.0602Z" fill="#A5D7B4" style="fill:#A5D7B4;fill:color(display-p3 0.6472 0.8413 0.7054);fill-opacity:1;"/>
<path d="M164.834 11.9098C213.008 -3.88103 264.951 -3.97163 313.18 11.6511L305.803 34.4264C262.397 20.366 215.648 20.4475 172.291 34.6593L164.834 11.9098Z" fill="#FDE8CB" style="fill:#FDE8CB;fill:color(display-p3 0.9922 0.9098 0.7961);fill-opacity:1;"/>
<path d="M312.999 11.5926C361.31 27.1995 403.409 57.7606 433.213 98.8607L413.832 112.915C387.008 75.925 349.12 48.42 305.64 34.3738L312.999 11.5926Z" fill="#FAB152" style="fill:#FAB152;fill:color(display-p3 0.9804 0.6941 0.3216);fill-opacity:1;"/>
<path d="M433.163 98.7909C462.84 139.685 478.818 188.922 478.809 239.45L454.868 239.446C454.877 193.97 440.497 149.657 413.787 112.852L433.163 98.7909Z" fill="#E26767" style="fill:#E26767;fill:color(display-p3 0.8863 0.4039 0.4039);fill-opacity:1;"/>
</svg>
