<svg width="913" height="171" viewBox="0 0 913 171" fill="none" xmlns="http://www.w3.org/2000/svg">
<path d="M23.2656 89.7549H885.27" stroke="#F6F7F8" style="stroke:#F6F7F8;stroke:color(display-p3 0.9647 0.9686 0.9725);stroke-opacity:1;" stroke-width="3.88732" stroke-miterlimit="10" stroke-linejoin="round"/>
<path fill-rule="evenodd" clip-rule="evenodd" d="M260.391 85.8682H647.163V93.6428H260.391V85.8682Z" fill="#DFE2E6" style="fill:#DFE2E6;fill:color(display-p3 0.8745 0.8863 0.9020);fill-opacity:1;"/>
<path d="M24.8164 42.7586V25.7819H28.2785V32.6455H35.6584V25.7819H39.1509V42.7586H35.6584V35.5306H28.2785V42.7586H24.8164ZM42.1195 42.7586V40.2379L48.1327 34.6195C48.6389 34.1133 49.064 33.6578 49.4082 33.2529C49.7727 32.8479 50.046 32.4531 50.2282 32.0684C50.4104 31.6635 50.5015 31.2383 50.5015 30.7929C50.5015 30.2868 50.3902 29.8515 50.1675 29.487C49.9448 29.1226 49.6309 28.8391 49.226 28.6367C48.8413 28.4342 48.3959 28.333 47.8898 28.333C47.3633 28.333 46.8977 28.4443 46.4927 28.667C46.1081 28.8695 45.8044 29.1732 45.5817 29.5781C45.3792 29.9628 45.278 30.4386 45.278 31.0055H41.9373C41.9373 29.892 42.1904 28.9302 42.6965 28.1204C43.2027 27.3105 43.9012 26.6829 44.792 26.2375C45.7031 25.792 46.7357 25.5693 47.8898 25.5693C49.1045 25.5693 50.1574 25.7819 51.0482 26.2071C51.939 26.6323 52.6274 27.2194 53.1133 27.9685C53.6195 28.7177 53.8726 29.5883 53.8726 30.5803C53.8726 31.208 53.7511 31.8356 53.5081 32.4632C53.2652 33.0706 52.8198 33.759 52.1719 34.5284C51.5442 35.2775 50.6534 36.1785 49.4993 37.2313L46.9483 39.7823V39.9038H54.1155V42.7586H42.1195Z" fill="#B88C63" style="fill:#B88C63;fill:color(display-p3 0.7216 0.5490 0.3882);fill-opacity:1;"/>
<path d="M256.961 130.445V129.261L262.549 123.035C263.237 122.245 263.794 121.567 264.219 121C264.665 120.433 264.989 119.907 265.191 119.421C265.414 118.935 265.525 118.419 265.525 117.872C265.525 117.224 265.373 116.667 265.07 116.202C264.766 115.716 264.351 115.341 263.824 115.078C263.318 114.815 262.741 114.683 262.093 114.683C261.405 114.683 260.798 114.835 260.271 115.139C259.765 115.422 259.37 115.817 259.087 116.323C258.803 116.829 258.662 117.417 258.662 118.085H257.082C257.082 117.153 257.305 116.323 257.751 115.594C258.196 114.865 258.793 114.299 259.542 113.894C260.291 113.468 261.152 113.256 262.124 113.256C263.075 113.256 263.926 113.458 264.675 113.863C265.424 114.268 266.011 114.815 266.436 115.503C266.861 116.192 267.074 116.981 267.074 117.872C267.074 118.479 266.963 119.077 266.74 119.664C266.517 120.231 266.143 120.879 265.616 121.608C265.09 122.336 264.341 123.227 263.369 124.28L259.239 128.896V128.987H267.59V130.445H256.961Z" fill="#8E9198" style="fill:#8E9198;fill:color(display-p3 0.5569 0.5686 0.5961);fill-opacity:1;"/>
<path d="M641.75 113.468V130.445H640.171V114.987H640.05L636.102 117.933V116.171L639.746 113.468H641.75ZM645.888 130.445V129.261L651.476 123.035C652.165 122.245 652.721 121.567 653.147 121C653.592 120.433 653.916 119.907 654.118 119.421C654.341 118.935 654.452 118.419 654.452 117.872C654.452 117.224 654.301 116.667 653.997 116.202C653.693 115.716 653.278 115.341 652.752 115.078C652.246 114.815 651.669 114.683 651.021 114.683C650.332 114.683 649.725 114.835 649.198 115.139C648.692 115.422 648.298 115.817 648.014 116.323C647.731 116.829 647.589 117.417 647.589 118.085H646.01C646.01 117.153 646.232 116.323 646.678 115.594C647.123 114.865 647.72 114.299 648.47 113.894C649.219 113.468 650.079 113.256 651.051 113.256C652.003 113.256 652.853 113.458 653.602 113.863C654.351 114.268 654.938 114.815 655.364 115.503C655.789 116.192 656.001 116.981 656.001 117.872C656.001 118.479 655.89 119.077 655.667 119.664C655.445 120.231 655.07 120.879 654.544 121.608C654.017 122.336 653.268 123.227 652.296 124.28L648.166 128.896V128.987H656.518V130.445H645.888Z" fill="#8E9198" style="fill:#8E9198;fill:color(display-p3 0.5569 0.5686 0.5961);fill-opacity:1;"/>
</svg>
