<svg width="912" height="171" viewBox="0 0 912 171" fill="none" xmlns="http://www.w3.org/2000/svg">
<path d="M22.5078 89.25H884.512" stroke="#F6F7F8" style="stroke:#F6F7F8;stroke:color(display-p3 0.9647 0.9686 0.9725);stroke-opacity:1;" stroke-width="3.88732" stroke-miterlimit="10" stroke-linejoin="round"/>
<path fill-rule="evenodd" clip-rule="evenodd" d="M148.504 85.3633H760.469V93.1379H148.504V85.3633Z" fill="#DFE2E6" style="fill:#DFE2E6;fill:color(display-p3 0.8745 0.8863 0.9020);fill-opacity:1;"/>
<path d="M24.0586 42.2537V25.277H27.5207V32.1406H34.9006V25.277H38.3931V42.2537H34.9006V35.0257H27.5207V42.2537H24.0586ZM41.3617 42.2537V39.733L47.3749 34.1146C47.8811 33.6084 48.3062 33.1529 48.6504 32.748C49.0149 32.343 49.2882 31.9482 49.4704 31.5636C49.6526 31.1586 49.7437 30.7335 49.7437 30.288C49.7437 29.7819 49.6324 29.3466 49.4097 28.9821C49.187 28.6177 48.8731 28.3343 48.4682 28.1318C48.0835 27.9293 47.6381 27.8281 47.1319 27.8281C46.6055 27.8281 46.1399 27.9394 45.7349 28.1622C45.3503 28.3646 45.0466 28.6683 44.8238 29.0732C44.6214 29.4579 44.5201 29.9337 44.5201 30.5006H41.1795C41.1795 29.3871 41.4326 28.4254 41.9387 27.6155C42.4449 26.8056 43.1434 26.178 44.0342 25.7326C44.9453 25.2872 45.9779 25.0645 47.1319 25.0645C48.3467 25.0645 49.3995 25.277 50.2904 25.7022C51.1812 26.1274 51.8696 26.7145 52.3555 27.4637C52.8617 28.2128 53.1148 29.0834 53.1148 30.0754C53.1148 30.7031 52.9933 31.3307 52.7503 31.9584C52.5074 32.5658 52.0619 33.2541 51.4141 34.0235C50.7864 34.7726 49.8956 35.6736 48.7415 36.7264L46.1905 39.2775V39.3989H53.3577V42.2537H41.3617Z" fill="#B88C63" style="fill:#B88C63;fill:color(display-p3 0.7216 0.5490 0.3882);fill-opacity:1;"/>
<path d="M143.188 129.94V128.756L148.776 122.53C149.464 121.74 150.021 121.062 150.446 120.495C150.891 119.928 151.215 119.402 151.418 118.916C151.64 118.43 151.752 117.914 151.752 117.367C151.752 116.719 151.6 116.163 151.296 115.697C150.993 115.211 150.577 114.836 150.051 114.573C149.545 114.31 148.968 114.178 148.32 114.178C147.632 114.178 147.024 114.33 146.498 114.634C145.992 114.917 145.597 115.312 145.313 115.818C145.03 116.324 144.888 116.912 144.888 117.58H143.309C143.309 116.648 143.532 115.818 143.977 115.089C144.423 114.361 145.02 113.794 145.769 113.389C146.518 112.964 147.379 112.751 148.35 112.751C149.302 112.751 150.152 112.953 150.901 113.358C151.651 113.763 152.238 114.31 152.663 114.998C153.088 115.687 153.301 116.476 153.301 117.367C153.301 117.975 153.189 118.572 152.967 119.159C152.744 119.726 152.369 120.374 151.843 121.103C151.316 121.832 150.567 122.722 149.595 123.775L145.465 128.391V128.482H153.817V129.94H143.188Z" fill="#8E9198" style="fill:#8E9198;fill:color(display-p3 0.5569 0.5686 0.5961);fill-opacity:1;"/>
<path d="M755.91 112.964V129.94H754.331V114.482H754.21L750.262 117.428V115.666L753.906 112.964H755.91ZM760.048 129.94V128.756L765.636 122.53C766.325 121.74 766.882 121.062 767.307 120.495C767.752 119.928 768.076 119.402 768.279 118.916C768.501 118.43 768.613 117.914 768.613 117.367C768.613 116.719 768.461 116.163 768.157 115.697C767.853 115.211 767.438 114.836 766.912 114.573C766.406 114.31 765.829 114.178 765.181 114.178C764.492 114.178 763.885 114.33 763.359 114.634C762.852 114.917 762.458 115.312 762.174 115.818C761.891 116.324 761.749 116.912 761.749 117.58H760.17C760.17 116.648 760.393 115.818 760.838 115.089C761.283 114.361 761.881 113.794 762.63 113.389C763.379 112.964 764.239 112.751 765.211 112.751C766.163 112.751 767.013 112.953 767.762 113.358C768.511 113.763 769.098 114.31 769.524 114.998C769.949 115.687 770.161 116.476 770.161 117.367C770.161 117.975 770.05 118.572 769.827 119.159C769.605 119.726 769.23 120.374 768.704 121.103C768.177 121.832 767.428 122.722 766.456 123.775L762.326 128.391V128.482H770.678V129.94H760.048Z" fill="#8E9198" style="fill:#8E9198;fill:color(display-p3 0.5569 0.5686 0.5961);fill-opacity:1;"/>
</svg>
