<svg width="912" height="171" viewBox="0 0 912 171" fill="none" xmlns="http://www.w3.org/2000/svg">
<path d="M22.5078 89.25H884.512" stroke="#F6F7F8" style="stroke:#F6F7F8;stroke:color(display-p3 0.9647 0.9686 0.9725);stroke-opacity:1;" stroke-width="3.88732" stroke-miterlimit="10" stroke-linejoin="round"/>
<path fill-rule="evenodd" clip-rule="evenodd" d="M148.504 85.3633H760.469V93.1379H148.504V85.3633Z" fill="#DFE2E6" style="fill:#DFE2E6;fill:color(display-p3 0.8745 0.8863 0.9020);fill-opacity:1;"/>
<path d="M24.0586 42.2537V25.277H27.5207V32.1406H34.9006V25.277H38.3931V42.2537H34.9006V35.0257H27.5207V42.2537H24.0586ZM41.3617 42.2537V39.733L47.3749 34.1146C47.8811 33.6084 48.3062 33.1529 48.6504 32.748C49.0149 32.343 49.2882 31.9482 49.4704 31.5636C49.6526 31.1586 49.7437 30.7335 49.7437 30.288C49.7437 29.7819 49.6324 29.3466 49.4097 28.9821C49.187 28.6177 48.8731 28.3343 48.4682 28.1318C48.0835 27.9293 47.6381 27.8281 47.1319 27.8281C46.6055 27.8281 46.1399 27.9394 45.7349 28.1622C45.3503 28.3646 45.0466 28.6683 44.8238 29.0732C44.6214 29.4579 44.5201 29.9337 44.5201 30.5006H41.1795C41.1795 29.3871 41.4326 28.4254 41.9387 27.6155C42.4449 26.8056 43.1434 26.178 44.0342 25.7326C44.9453 25.2872 45.9779 25.0645 47.1319 25.0645C48.3467 25.0645 49.3995 25.277 50.2904 25.7022C51.1812 26.1274 51.8696 26.7145 52.3555 27.4637C52.8617 28.2128 53.1148 29.0834 53.1148 30.0754C53.1148 30.7031 52.9933 31.3307 52.7503 31.9584C52.5074 32.5658 52.0619 33.2541 51.4141 34.0235C50.7864 34.7726 49.8956 35.6736 48.7415 36.7264L46.1905 39.2775V39.3989H53.3577V42.2537H41.3617Z" fill="#B88C63" style="fill:#B88C63;fill:color(display-p3 0.7216 0.5490 0.3882);fill-opacity:1;"/>
<path d="M256.203 129.94V128.756L261.791 122.53C262.48 121.74 263.036 121.062 263.461 120.495C263.907 119.928 264.231 119.402 264.433 118.916C264.656 118.43 264.767 117.914 264.767 117.367C264.767 116.719 264.616 116.163 264.312 115.697C264.008 115.211 263.593 114.836 263.067 114.573C262.561 114.31 261.983 114.178 261.336 114.178C260.647 114.178 260.04 114.33 259.513 114.634C259.007 114.917 258.612 115.312 258.329 115.818C258.046 116.324 257.904 116.912 257.904 117.58H256.325C256.325 116.648 256.547 115.818 256.993 115.089C257.438 114.361 258.035 113.794 258.785 113.389C259.534 112.964 260.394 112.751 261.366 112.751C262.318 112.751 263.168 112.953 263.917 113.358C264.666 113.763 265.253 114.31 265.678 114.998C266.104 115.687 266.316 116.476 266.316 117.367C266.316 117.975 266.205 118.572 265.982 119.159C265.759 119.726 265.385 120.374 264.858 121.103C264.332 121.832 263.583 122.722 262.611 123.775L258.481 128.391V128.482H266.833V129.94H256.203Z" fill="#8E9198" style="fill:#8E9198;fill:color(display-p3 0.5569 0.5686 0.5961);fill-opacity:1;"/>
<path d="M640.993 112.964V129.94H639.413V114.482H639.292L635.344 117.428V115.666L638.988 112.964H640.993ZM645.13 129.94V128.756L650.718 122.53C651.407 121.74 651.964 121.062 652.389 120.495C652.834 119.928 653.158 119.402 653.361 118.916C653.583 118.43 653.695 117.914 653.695 117.367C653.695 116.719 653.543 116.163 653.239 115.697C652.935 115.211 652.52 114.836 651.994 114.573C651.488 114.31 650.911 114.178 650.263 114.178C649.574 114.178 648.967 114.33 648.441 114.634C647.935 114.917 647.54 115.312 647.256 115.818C646.973 116.324 646.831 116.912 646.831 117.58H645.252C645.252 116.648 645.475 115.818 645.92 115.089C646.365 114.361 646.963 113.794 647.712 113.389C648.461 112.964 649.321 112.751 650.293 112.751C651.245 112.751 652.095 112.953 652.844 113.358C653.593 113.763 654.181 114.31 654.606 114.998C655.031 115.687 655.243 116.476 655.243 117.367C655.243 117.975 655.132 118.572 654.909 119.159C654.687 119.726 654.312 120.374 653.786 121.103C653.259 121.832 652.51 122.722 651.538 123.775L647.408 128.391V128.482H655.76V129.94H645.13Z" fill="#8E9198" style="fill:#8E9198;fill:color(display-p3 0.5569 0.5686 0.5961);fill-opacity:1;"/>
</svg>
