<svg width="912" height="171" viewBox="0 0 912 171" fill="none" xmlns="http://www.w3.org/2000/svg">
<path d="M22.5078 89.1035H884.512" stroke="#F6F7F8" style="stroke:#F6F7F8;stroke:color(display-p3 0.9647 0.9686 0.9725);stroke-opacity:1;" stroke-width="3.88732" stroke-miterlimit="10" stroke-linejoin="round"/>
<path fill-rule="evenodd" clip-rule="evenodd" d="M368.828 85.2676H540.227V93.0422H368.828V85.2676Z" fill="#DFE2E6" style="fill:#DFE2E6;fill:color(display-p3 0.8745 0.8863 0.9020);fill-opacity:1;"/>
<path d="M24.0586 42.1072V25.1306H27.5207V31.9941H34.9006V25.1306H38.3931V42.1072H34.9006V34.8792H27.5207V42.1072H24.0586ZM41.3617 42.1072V39.5865L47.3749 33.9681C47.8811 33.462 48.3062 33.0064 48.6504 32.6015C49.0149 32.1966 49.2882 31.8018 49.4704 31.4171C49.6526 31.0121 49.7437 30.587 49.7437 30.1415C49.7437 29.6354 49.6324 29.2001 49.4097 28.8357C49.187 28.4712 48.8731 28.1878 48.4682 27.9853C48.0835 27.7828 47.6381 27.6816 47.1319 27.6816C46.6055 27.6816 46.1399 27.793 45.7349 28.0157C45.3503 28.2181 45.0466 28.5218 44.8238 28.9268C44.6214 29.3114 44.5201 29.7872 44.5201 30.3541H41.1795C41.1795 29.2406 41.4326 28.2789 41.9387 27.469C42.4449 26.6592 43.1434 26.0315 44.0342 25.5861C44.9453 25.1407 45.9779 24.918 47.1319 24.918C48.3467 24.918 49.3995 25.1306 50.2904 25.5557C51.1812 25.9809 51.8696 26.5681 52.3555 27.3172C52.8617 28.0663 53.1148 28.9369 53.1148 29.929C53.1148 30.5566 52.9933 31.1842 52.7503 31.8119C52.5074 32.4193 52.0619 33.1077 51.4141 33.877C50.7864 34.6261 49.8956 35.5271 48.7415 36.5799L46.1905 39.131V39.2524H53.3577V42.1072H41.3617ZM62.3699 42.3501C61.0134 42.3501 59.829 42.1477 58.8167 41.7428C57.8246 41.3176 57.0451 40.7001 56.4782 39.8902C55.9113 39.0601 55.6177 38.0478 55.5975 36.8532H58.9685C59.0292 37.4201 59.2013 37.8959 59.4848 38.2806C59.7885 38.6653 60.1833 38.9487 60.6692 39.131C61.1754 39.3132 61.7321 39.4043 62.3395 39.4043C62.9672 39.4043 63.5037 39.3233 63.9491 39.1613C64.4148 38.9791 64.7792 38.726 65.0424 38.4021C65.3056 38.0782 65.4372 37.6935 65.4372 37.248C65.4372 36.8634 65.3158 36.5394 65.0728 36.2762C64.8501 36.013 64.516 35.7903 64.0706 35.6081C63.6454 35.4056 63.1292 35.2335 62.5218 35.0918L60.6388 34.6363C59.2013 34.2921 58.0777 33.7454 57.2678 32.9963C56.458 32.2472 56.053 31.2551 56.053 30.0201C56.053 28.9875 56.3264 28.0967 56.873 27.3475C57.4197 26.5782 58.1688 25.9809 59.1204 25.5557C60.0922 25.1306 61.1956 24.918 62.4306 24.918C63.6859 24.918 64.7792 25.1306 65.7106 25.5557C66.6419 25.9809 67.3708 26.5782 67.8972 27.3475C68.4236 28.0967 68.6969 28.9774 68.7172 29.9897H65.3461C65.2854 29.3013 64.9918 28.7749 64.4654 28.4105C63.9593 28.0258 63.2709 27.8335 62.4003 27.8335C61.8131 27.8335 61.307 27.9246 60.8818 28.1068C60.4769 28.2688 60.163 28.5016 59.9403 28.8053C59.7176 29.0887 59.6063 29.4228 59.6063 29.8075C59.6063 30.2124 59.7277 30.5566 59.9707 30.8401C60.2339 31.1235 60.568 31.3462 60.9729 31.5082C61.3981 31.6702 61.8536 31.8119 62.3395 31.9334L63.858 32.2978C64.5667 32.4598 65.2247 32.6825 65.8321 32.9659C66.4597 33.2291 67.0063 33.5632 67.472 33.9681C67.9377 34.3731 68.292 34.8488 68.535 35.3955C68.7982 35.9422 68.9298 36.5698 68.9298 37.2784C68.9298 38.311 68.6665 39.212 68.1401 39.9813C67.634 40.7304 66.8849 41.3176 65.8928 41.7428C64.921 42.1477 63.7467 42.3501 62.3699 42.3501Z" fill="#B88C63" style="fill:#B88C63;fill:color(display-p3 0.7216 0.5490 0.3882);fill-opacity:1;"/>
<path d="M198.803 139.644C197.609 139.644 196.586 139.3 195.736 138.612C194.886 137.903 194.228 136.901 193.762 135.605C193.316 134.309 193.094 132.75 193.094 130.928C193.094 129.106 193.316 127.547 193.762 126.251C194.228 124.935 194.886 123.933 195.736 123.244C196.586 122.556 197.609 122.212 198.803 122.212C199.998 122.212 201.02 122.556 201.871 123.244C202.741 123.933 203.399 124.935 203.845 126.251C204.29 127.547 204.513 129.106 204.513 130.928C204.513 132.75 204.29 134.309 203.845 135.605C203.399 136.901 202.751 137.903 201.901 138.612C201.051 139.3 200.018 139.644 198.803 139.644ZM198.803 138.186C199.694 138.186 200.443 137.903 201.051 137.336C201.658 136.749 202.124 135.919 202.448 134.846C202.792 133.752 202.964 132.446 202.964 130.928C202.964 129.389 202.792 128.083 202.448 127.01C202.124 125.917 201.658 125.087 201.051 124.52C200.443 123.933 199.694 123.639 198.803 123.639C197.933 123.639 197.184 123.933 196.556 124.52C195.948 125.087 195.483 125.917 195.159 127.01C194.835 128.083 194.673 129.389 194.673 130.928C194.673 132.446 194.835 133.752 195.159 134.846C195.483 135.919 195.948 136.749 196.556 137.336C197.184 137.903 197.933 138.186 198.803 138.186ZM208.7 139.553C208.376 139.553 208.093 139.432 207.85 139.189C207.607 138.946 207.485 138.652 207.485 138.308C207.485 137.964 207.607 137.67 207.85 137.427C208.093 137.184 208.376 137.063 208.7 137.063C209.044 137.063 209.338 137.184 209.581 137.427C209.824 137.67 209.945 137.964 209.945 138.308C209.945 138.652 209.824 138.946 209.581 139.189C209.338 139.432 209.044 139.553 208.7 139.553ZM216.911 122.425V139.401H215.332V123.943H215.21L211.262 126.889V125.127L214.907 122.425H216.911ZM221.049 139.401V138.217L226.637 131.991C227.325 131.201 227.882 130.523 228.307 129.956C228.753 129.389 229.077 128.863 229.279 128.377C229.502 127.891 229.613 127.375 229.613 126.828C229.613 126.18 229.461 125.623 229.158 125.158C228.854 124.672 228.439 124.297 227.913 124.034C227.406 123.771 226.829 123.639 226.181 123.639C225.493 123.639 224.886 123.791 224.359 124.095C223.853 124.378 223.458 124.773 223.175 125.279C222.891 125.785 222.75 126.373 222.75 127.041H221.17C221.17 126.109 221.393 125.279 221.839 124.55C222.284 123.822 222.881 123.255 223.63 122.85C224.38 122.425 225.24 122.212 226.212 122.212C227.163 122.212 228.014 122.414 228.763 122.819C229.512 123.224 230.099 123.771 230.524 124.459C230.95 125.148 231.162 125.937 231.162 126.828C231.162 127.435 231.051 128.033 230.828 128.62C230.605 129.187 230.231 129.835 229.704 130.564C229.178 131.292 228.429 132.183 227.457 133.236L223.327 137.852V137.943H231.678V139.401H221.049Z" fill="#8E9198" style="fill:#8E9198;fill:color(display-p3 0.5569 0.5686 0.5961);fill-opacity:1;"/>
<path d="M678.874 139.644C677.679 139.644 676.657 139.3 675.806 138.612C674.956 137.903 674.298 136.901 673.832 135.605C673.387 134.309 673.164 132.75 673.164 130.928C673.164 129.106 673.387 127.547 673.832 126.251C674.298 124.935 674.956 123.933 675.806 123.244C676.657 122.556 677.679 122.212 678.874 122.212C680.068 122.212 681.091 122.556 681.941 123.244C682.811 123.933 683.469 124.935 683.915 126.251C684.36 127.547 684.583 129.106 684.583 130.928C684.583 132.75 684.36 134.309 683.915 135.605C683.469 136.901 682.822 137.903 681.971 138.612C681.121 139.3 680.088 139.644 678.874 139.644ZM678.874 138.186C679.764 138.186 680.514 137.903 681.121 137.336C681.728 136.749 682.194 135.919 682.518 134.846C682.862 133.752 683.034 132.446 683.034 130.928C683.034 129.389 682.862 128.083 682.518 127.01C682.194 125.917 681.728 125.087 681.121 124.52C680.514 123.933 679.764 123.639 678.874 123.639C678.003 123.639 677.254 123.933 676.626 124.52C676.019 125.087 675.553 125.917 675.229 127.01C674.905 128.083 674.743 129.389 674.743 130.928C674.743 132.446 674.905 133.752 675.229 134.846C675.553 135.919 676.019 136.749 676.626 137.336C677.254 137.903 678.003 138.186 678.874 138.186ZM688.77 139.553C688.446 139.553 688.163 139.432 687.92 139.189C687.677 138.946 687.555 138.652 687.555 138.308C687.555 137.964 687.677 137.67 687.92 137.427C688.163 137.184 688.446 137.063 688.77 137.063C689.114 137.063 689.408 137.184 689.651 137.427C689.894 137.67 690.015 137.964 690.015 138.308C690.015 138.652 689.894 138.946 689.651 139.189C689.408 139.432 689.114 139.553 688.77 139.553ZM696.981 122.425V139.401H695.402V123.943H695.281L691.333 126.889V125.127L694.977 122.425H696.981ZM706.343 139.644C705.27 139.644 704.308 139.442 703.458 139.037C702.607 138.612 701.939 138.045 701.453 137.336C700.967 136.627 700.725 135.828 700.725 134.937C700.725 134.228 700.866 133.57 701.15 132.963C701.453 132.355 701.858 131.849 702.364 131.444C702.891 131.019 703.478 130.736 704.126 130.594V130.533C703.276 130.29 702.597 129.814 702.091 129.106C701.585 128.377 701.332 127.557 701.332 126.646C701.332 125.796 701.545 125.036 701.97 124.368C702.415 123.7 703.012 123.174 703.761 122.789C704.531 122.404 705.391 122.212 706.343 122.212C707.294 122.212 708.145 122.404 708.894 122.789C709.663 123.174 710.271 123.7 710.716 124.368C711.162 125.036 711.384 125.796 711.384 126.646C711.384 127.557 711.131 128.377 710.625 129.106C710.119 129.814 709.451 130.29 708.621 130.533V130.594C709.248 130.736 709.815 131.019 710.321 131.444C710.848 131.849 711.253 132.355 711.536 132.963C711.84 133.57 711.992 134.228 711.992 134.937C711.992 135.828 711.749 136.627 711.263 137.336C710.777 138.045 710.109 138.612 709.258 139.037C708.408 139.442 707.436 139.644 706.343 139.644ZM706.343 138.217C707.153 138.217 707.851 138.075 708.438 137.792C709.046 137.488 709.522 137.083 709.866 136.577C710.21 136.071 710.382 135.494 710.382 134.846C710.382 134.178 710.2 133.58 709.835 133.054C709.491 132.527 709.015 132.112 708.408 131.809C707.801 131.485 707.112 131.323 706.343 131.323C705.594 131.323 704.916 131.485 704.308 131.809C703.701 132.112 703.215 132.527 702.85 133.054C702.506 133.58 702.334 134.178 702.334 134.846C702.334 135.494 702.496 136.071 702.82 136.577C703.164 137.083 703.64 137.488 704.247 137.792C704.855 138.075 705.553 138.217 706.343 138.217ZM706.343 129.956C707.011 129.956 707.598 129.825 708.104 129.561C708.631 129.278 709.046 128.893 709.35 128.407C709.653 127.921 709.805 127.365 709.805 126.737C709.805 126.13 709.653 125.593 709.35 125.127C709.066 124.662 708.661 124.297 708.135 124.034C707.608 123.771 707.011 123.639 706.343 123.639C705.675 123.639 705.078 123.771 704.551 124.034C704.045 124.297 703.64 124.662 703.336 125.127C703.033 125.593 702.881 126.13 702.881 126.737C702.881 127.365 703.033 127.921 703.336 128.407C703.64 128.893 704.055 129.278 704.581 129.561C705.108 129.825 705.695 129.956 706.343 129.956Z" fill="#8E9198" style="fill:#8E9198;fill:color(display-p3 0.5569 0.5686 0.5961);fill-opacity:1;"/>
</svg>
