<svg width="913" height="172" viewBox="0 0 913 172" fill="none" xmlns="http://www.w3.org/2000/svg">
<path d="M23.2656 89.8672H885.27" stroke="#F6F7F8" style="stroke:#F6F7F8;stroke:color(display-p3 0.9647 0.9686 0.9725);stroke-opacity:1;" stroke-width="3.88732" stroke-miterlimit="10" stroke-linejoin="round"/>
<path fill-rule="evenodd" clip-rule="evenodd" d="M215.688 86.0312H691.899V93.8059H215.688V86.0312Z" fill="#DFE2E6" style="fill:#DFE2E6;fill:color(display-p3 0.8745 0.8863 0.9020);fill-opacity:1;"/>
<path d="M24.8164 42.8709V25.8942H28.2785V32.7578H35.6584V25.8942H39.1509V42.8709H35.6584V35.6429H28.2785V42.8709H24.8164ZM42.1195 42.8709V40.3502L48.1327 34.7318C48.6389 34.2256 49.064 33.7701 49.4082 33.3652C49.7727 32.9602 50.046 32.5654 50.2282 32.1807C50.4104 31.7758 50.5015 31.3506 50.5015 30.9052C50.5015 30.3991 50.3902 29.9638 50.1675 29.5993C49.9448 29.2349 49.6309 28.9514 49.226 28.749C48.8413 28.5465 48.3959 28.4453 47.8897 28.4453C47.3633 28.4453 46.8977 28.5566 46.4927 28.7793C46.1081 28.9818 45.8044 29.2855 45.5817 29.6904C45.3792 30.0751 45.278 30.5509 45.278 31.1178H41.9373C41.9373 30.0043 42.1904 29.0425 42.6965 28.2327C43.2027 27.4228 43.9012 26.7952 44.792 26.3498C45.7031 25.9044 46.7357 25.6816 47.8897 25.6816C49.1045 25.6816 50.1574 25.8942 51.0482 26.3194C51.939 26.7446 52.6274 27.3317 53.1133 28.0808C53.6195 28.83 53.8726 29.7006 53.8726 30.6926C53.8726 31.3203 53.7511 31.9479 53.5081 32.5756C53.2652 33.1829 52.8198 33.8713 52.1719 34.6407C51.5442 35.3898 50.6534 36.2908 49.4993 37.3436L46.9483 39.8946V40.0161H54.1155V42.8709H42.1195ZM63.1277 43.1138C61.7712 43.1138 60.5868 42.9114 59.5745 42.5064C58.5824 42.0813 57.8029 41.4637 57.236 40.6539C56.6691 39.8238 56.3755 38.8115 56.3553 37.6169H59.7263C59.7871 38.1838 59.9592 38.6596 60.2426 39.0443C60.5463 39.429 60.9411 39.7124 61.427 39.8946C61.9332 40.0769 62.49 40.168 63.0974 40.168C63.725 40.168 64.2615 40.087 64.7069 39.925C65.1726 39.7428 65.537 39.4897 65.8003 39.1658C66.0635 38.8418 66.1951 38.4571 66.1951 38.0117C66.1951 37.627 66.0736 37.3031 65.8306 37.0399C65.6079 36.7767 65.2738 36.554 64.8284 36.3718C64.4032 36.1693 63.887 35.9972 63.2796 35.8555L61.3967 35.3999C59.9592 35.0557 58.8355 34.5091 58.0256 33.76C57.2158 33.0109 56.8108 32.0188 56.8108 30.7837C56.8108 29.7512 57.0842 28.8603 57.6308 28.1112C58.1775 27.3418 58.9266 26.7446 59.8782 26.3194C60.85 25.8942 61.9534 25.6816 63.1885 25.6816C64.4437 25.6816 65.537 25.8942 66.4684 26.3194C67.3997 26.7446 68.1286 27.3418 68.655 28.1112C69.1814 28.8603 69.4547 29.7411 69.475 30.7534H66.1039C66.0432 30.065 65.7496 29.5386 65.2232 29.1742C64.7171 28.7895 64.0287 28.5971 63.1581 28.5971C62.5709 28.5971 62.0648 28.6882 61.6396 28.8705C61.2347 29.0324 60.9209 29.2653 60.6982 29.569C60.4754 29.8524 60.3641 30.1865 60.3641 30.5712C60.3641 30.9761 60.4856 31.3203 60.7285 31.6037C60.9917 31.8872 61.3258 32.1099 61.7307 32.2719C62.1559 32.4338 62.6114 32.5756 63.0974 32.697L64.6158 33.0615C65.3245 33.2234 65.9825 33.4461 66.5899 33.7296C67.2175 33.9928 67.7642 34.3269 68.2298 34.7318C68.6955 35.1367 69.0498 35.6125 69.2928 36.1592C69.556 36.7058 69.6876 37.3335 69.6876 38.0421C69.6876 39.0747 69.4244 39.9756 68.898 40.745C68.3918 41.4941 67.6427 42.0813 66.6506 42.5064C65.6788 42.9114 64.5045 43.1138 63.1277 43.1138Z" fill="#B88C63" style="fill:#B88C63;fill:color(display-p3 0.7216 0.5490 0.3882);fill-opacity:1;"/>
<path d="M199.561 140.408C198.367 140.408 197.344 140.064 196.494 139.375C195.643 138.667 194.985 137.664 194.52 136.369C194.074 135.073 193.852 133.514 193.852 131.692C193.852 129.869 194.074 128.311 194.52 127.015C194.985 125.699 195.643 124.697 196.494 124.008C197.344 123.32 198.367 122.976 199.561 122.976C200.756 122.976 201.778 123.32 202.628 124.008C203.499 124.697 204.157 125.699 204.602 127.015C205.048 128.311 205.271 129.869 205.271 131.692C205.271 133.514 205.048 135.073 204.602 136.369C204.157 137.664 203.509 138.667 202.659 139.375C201.808 140.064 200.776 140.408 199.561 140.408ZM199.561 138.95C200.452 138.95 201.201 138.667 201.808 138.1C202.416 137.513 202.881 136.682 203.205 135.609C203.55 134.516 203.722 133.21 203.722 131.692C203.722 130.153 203.55 128.847 203.205 127.774C202.881 126.681 202.416 125.851 201.808 125.284C201.201 124.697 200.452 124.403 199.561 124.403C198.69 124.403 197.941 124.697 197.314 125.284C196.706 125.851 196.241 126.681 195.917 127.774C195.593 128.847 195.431 130.153 195.431 131.692C195.431 133.21 195.593 134.516 195.917 135.609C196.241 136.682 196.706 137.513 197.314 138.1C197.941 138.667 198.69 138.95 199.561 138.95ZM209.458 140.317C209.134 140.317 208.85 140.195 208.607 139.952C208.364 139.709 208.243 139.416 208.243 139.072C208.243 138.727 208.364 138.434 208.607 138.191C208.85 137.948 209.134 137.826 209.458 137.826C209.802 137.826 210.096 137.948 210.338 138.191C210.581 138.434 210.703 138.727 210.703 139.072C210.703 139.416 210.581 139.709 210.338 139.952C210.096 140.195 209.802 140.317 209.458 140.317ZM217.669 123.188V140.165H216.09V124.707H215.968L212.02 127.653V125.891L215.665 123.188H217.669ZM221.807 140.165V138.98L227.395 132.755C228.083 131.965 228.64 131.287 229.065 130.72C229.511 130.153 229.835 129.627 230.037 129.141C230.26 128.655 230.371 128.138 230.371 127.592C230.371 126.944 230.219 126.387 229.916 125.921C229.612 125.436 229.197 125.061 228.67 124.798C228.164 124.535 227.587 124.403 226.939 124.403C226.251 124.403 225.644 124.555 225.117 124.859C224.611 125.142 224.216 125.537 223.933 126.043C223.649 126.549 223.508 127.136 223.508 127.804H221.928C221.928 126.873 222.151 126.043 222.596 125.314C223.042 124.585 223.639 124.018 224.388 123.613C225.137 123.188 225.998 122.976 226.97 122.976C227.921 122.976 228.772 123.178 229.521 123.583C230.27 123.988 230.857 124.535 231.282 125.223C231.707 125.911 231.92 126.701 231.92 127.592C231.92 128.199 231.809 128.796 231.586 129.384C231.363 129.95 230.989 130.598 230.462 131.327C229.936 132.056 229.187 132.947 228.215 134L224.085 138.616V138.707H232.436V140.165H221.807Z" fill="#8E9198" style="fill:#8E9198;fill:color(display-p3 0.5569 0.5686 0.5961);fill-opacity:1;"/>
<path d="M679.631 140.408C678.437 140.408 677.414 140.064 676.564 139.375C675.714 138.667 675.056 137.664 674.59 136.369C674.145 135.073 673.922 133.514 673.922 131.692C673.922 129.869 674.145 128.311 674.59 127.015C675.056 125.699 675.714 124.697 676.564 124.008C677.414 123.32 678.437 122.976 679.631 122.976C680.826 122.976 681.848 123.32 682.699 124.008C683.569 124.697 684.227 125.699 684.673 127.015C685.118 128.311 685.341 129.869 685.341 131.692C685.341 133.514 685.118 135.073 684.673 136.369C684.227 137.664 683.579 138.667 682.729 139.375C681.879 140.064 680.846 140.408 679.631 140.408ZM679.631 138.95C680.522 138.95 681.271 138.667 681.879 138.1C682.486 137.513 682.952 136.682 683.276 135.609C683.62 134.516 683.792 133.21 683.792 131.692C683.792 130.153 683.62 128.847 683.276 127.774C682.952 126.681 682.486 125.851 681.879 125.284C681.271 124.697 680.522 124.403 679.631 124.403C678.761 124.403 678.012 124.697 677.384 125.284C676.777 125.851 676.311 126.681 675.987 127.774C675.663 128.847 675.501 130.153 675.501 131.692C675.501 133.21 675.663 134.516 675.987 135.609C676.311 136.682 676.777 137.513 677.384 138.1C678.012 138.667 678.761 138.95 679.631 138.95ZM689.528 140.317C689.204 140.317 688.921 140.195 688.678 139.952C688.435 139.709 688.313 139.416 688.313 139.072C688.313 138.727 688.435 138.434 688.678 138.191C688.921 137.948 689.204 137.826 689.528 137.826C689.872 137.826 690.166 137.948 690.409 138.191C690.652 138.434 690.773 138.727 690.773 139.072C690.773 139.416 690.652 139.709 690.409 139.952C690.166 140.195 689.872 140.317 689.528 140.317ZM697.739 123.188V140.165H696.16V124.707H696.039L692.091 127.653V125.891L695.735 123.188H697.739ZM707.101 140.408C706.028 140.408 705.066 140.205 704.216 139.8C703.365 139.375 702.697 138.808 702.211 138.1C701.725 137.391 701.482 136.591 701.482 135.7C701.482 134.992 701.624 134.334 701.908 133.726C702.211 133.119 702.616 132.613 703.122 132.208C703.649 131.783 704.236 131.499 704.884 131.358V131.297C704.033 131.054 703.355 130.578 702.849 129.869C702.343 129.141 702.09 128.321 702.09 127.41C702.09 126.559 702.302 125.8 702.727 125.132C703.173 124.464 703.77 123.937 704.519 123.553C705.289 123.168 706.149 122.976 707.101 122.976C708.052 122.976 708.903 123.168 709.652 123.553C710.421 123.937 711.029 124.464 711.474 125.132C711.919 125.8 712.142 126.559 712.142 127.41C712.142 128.321 711.889 129.141 711.383 129.869C710.877 130.578 710.209 131.054 709.378 131.297V131.358C710.006 131.499 710.573 131.783 711.079 132.208C711.606 132.613 712.01 133.119 712.294 133.726C712.598 134.334 712.749 134.992 712.749 135.7C712.749 136.591 712.507 137.391 712.021 138.1C711.535 138.808 710.867 139.375 710.016 139.8C709.166 140.205 708.194 140.408 707.101 140.408ZM707.101 138.98C707.911 138.98 708.609 138.839 709.196 138.555C709.804 138.252 710.279 137.847 710.624 137.34C710.968 136.834 711.14 136.257 711.14 135.609C711.14 134.941 710.958 134.344 710.593 133.818C710.249 133.291 709.773 132.876 709.166 132.572C708.558 132.248 707.87 132.086 707.101 132.086C706.352 132.086 705.673 132.248 705.066 132.572C704.459 132.876 703.973 133.291 703.608 133.818C703.264 134.344 703.092 134.941 703.092 135.609C703.092 136.257 703.254 136.834 703.578 137.34C703.922 137.847 704.398 138.252 705.005 138.555C705.613 138.839 706.311 138.98 707.101 138.98ZM707.101 130.72C707.769 130.72 708.356 130.588 708.862 130.325C709.389 130.042 709.804 129.657 710.107 129.171C710.411 128.685 710.563 128.128 710.563 127.501C710.563 126.893 710.411 126.357 710.107 125.891C709.824 125.425 709.419 125.061 708.893 124.798C708.366 124.535 707.769 124.403 707.101 124.403C706.433 124.403 705.835 124.535 705.309 124.798C704.803 125.061 704.398 125.425 704.094 125.891C703.79 126.357 703.639 126.893 703.639 127.501C703.639 128.128 703.79 128.685 704.094 129.171C704.398 129.657 704.813 130.042 705.339 130.325C705.866 130.588 706.453 130.72 707.101 130.72Z" fill="#8E9198" style="fill:#8E9198;fill:color(display-p3 0.5569 0.5686 0.5961);fill-opacity:1;"/>
</svg>
