<svg width="912" height="171" viewBox="0 0 912 171" fill="none" xmlns="http://www.w3.org/2000/svg">
<path d="M22.5078 89.1035H884.512" stroke="#F6F7F8" style="stroke:#F6F7F8;stroke:color(display-p3 0.9647 0.9686 0.9725);stroke-opacity:1;" stroke-width="3.88732" stroke-miterlimit="10" stroke-linejoin="round"/>
<path fill-rule="evenodd" clip-rule="evenodd" d="M368.828 85.2676H540.227V93.0422H368.828V85.2676Z" fill="#DFE2E6" style="fill:#DFE2E6;fill:color(display-p3 0.8745 0.8863 0.9020);fill-opacity:1;"/>
<path d="M24.0586 42.1072V25.1306H27.5207V31.9941H34.9006V25.1306H38.3931V42.1072H34.9006V34.8792H27.5207V42.1072H24.0586ZM41.3617 42.1072V39.5865L47.3749 33.9681C47.8811 33.462 48.3062 33.0064 48.6504 32.6015C49.0149 32.1966 49.2882 31.8018 49.4704 31.4171C49.6526 31.0121 49.7437 30.587 49.7437 30.1415C49.7437 29.6354 49.6324 29.2001 49.4097 28.8357C49.187 28.4712 48.8731 28.1878 48.4682 27.9853C48.0835 27.7828 47.6381 27.6816 47.1319 27.6816C46.6055 27.6816 46.1399 27.793 45.7349 28.0157C45.3503 28.2181 45.0466 28.5218 44.8238 28.9268C44.6214 29.3114 44.5201 29.7872 44.5201 30.3541H41.1795C41.1795 29.2406 41.4326 28.2789 41.9387 27.469C42.4449 26.6592 43.1434 26.0315 44.0342 25.5861C44.9453 25.1407 45.9779 24.918 47.1319 24.918C48.3467 24.918 49.3995 25.1306 50.2904 25.5557C51.1812 25.9809 51.8696 26.5681 52.3555 27.3172C52.8617 28.0663 53.1148 28.9369 53.1148 29.929C53.1148 30.5566 52.9933 31.1842 52.7503 31.8119C52.5074 32.4193 52.0619 33.1077 51.4141 33.877C50.7864 34.6261 49.8956 35.5271 48.7415 36.5799L46.1905 39.131V39.2524H53.3577V42.1072H41.3617ZM62.3699 42.3501C61.0134 42.3501 59.829 42.1477 58.8167 41.7428C57.8246 41.3176 57.0451 40.7001 56.4782 39.8902C55.9113 39.0601 55.6177 38.0478 55.5975 36.8532H58.9685C59.0292 37.4201 59.2013 37.8959 59.4848 38.2806C59.7885 38.6653 60.1833 38.9487 60.6692 39.131C61.1754 39.3132 61.7321 39.4043 62.3395 39.4043C62.9672 39.4043 63.5037 39.3233 63.9491 39.1613C64.4148 38.9791 64.7792 38.726 65.0424 38.4021C65.3056 38.0782 65.4372 37.6935 65.4372 37.248C65.4372 36.8634 65.3158 36.5394 65.0728 36.2762C64.8501 36.013 64.516 35.7903 64.0706 35.6081C63.6454 35.4056 63.1292 35.2335 62.5218 35.0918L60.6388 34.6363C59.2013 34.2921 58.0777 33.7454 57.2678 32.9963C56.458 32.2472 56.053 31.2551 56.053 30.0201C56.053 28.9875 56.3264 28.0967 56.873 27.3475C57.4197 26.5782 58.1688 25.9809 59.1204 25.5557C60.0922 25.1306 61.1956 24.918 62.4306 24.918C63.6859 24.918 64.7792 25.1306 65.7106 25.5557C66.6419 25.9809 67.3708 26.5782 67.8972 27.3475C68.4236 28.0967 68.6969 28.9774 68.7172 29.9897H65.3461C65.2854 29.3013 64.9918 28.7749 64.4654 28.4105C63.9593 28.0258 63.2709 27.8335 62.4003 27.8335C61.8131 27.8335 61.307 27.9246 60.8818 28.1068C60.4769 28.2688 60.163 28.5016 59.9403 28.8053C59.7176 29.0887 59.6063 29.4228 59.6063 29.8075C59.6063 30.2124 59.7277 30.5566 59.9707 30.8401C60.2339 31.1235 60.568 31.3462 60.9729 31.5082C61.3981 31.6702 61.8536 31.8119 62.3395 31.9334L63.858 32.2978C64.5667 32.4598 65.2247 32.6825 65.8321 32.9659C66.4597 33.2291 67.0063 33.5632 67.472 33.9681C67.9377 34.3731 68.292 34.8488 68.535 35.3955C68.7982 35.9422 68.9298 36.5698 68.9298 37.2784C68.9298 38.311 68.6665 39.212 68.1401 39.9813C67.634 40.7304 66.8849 41.3176 65.8928 41.7428C64.921 42.1477 63.7467 42.3501 62.3699 42.3501Z" fill="#B88C63" style="fill:#B88C63;fill:color(display-p3 0.7216 0.5490 0.3882);fill-opacity:1;"/>
<path d="M355.245 139.644C354.05 139.644 353.028 139.3 352.177 138.612C351.327 137.903 350.669 136.901 350.203 135.605C349.758 134.309 349.535 132.75 349.535 130.928C349.535 129.106 349.758 127.547 350.203 126.251C350.669 124.935 351.327 123.933 352.177 123.244C353.028 122.556 354.05 122.212 355.245 122.212C356.439 122.212 357.462 122.556 358.312 123.244C359.183 123.933 359.841 124.935 360.286 126.251C360.731 127.547 360.954 129.106 360.954 130.928C360.954 132.75 360.731 134.309 360.286 135.605C359.841 136.901 359.193 137.903 358.342 138.612C357.492 139.3 356.459 139.644 355.245 139.644ZM355.245 138.186C356.135 138.186 356.885 137.903 357.492 137.336C358.099 136.749 358.565 135.919 358.889 134.846C359.233 133.752 359.405 132.446 359.405 130.928C359.405 129.389 359.233 128.083 358.889 127.01C358.565 125.917 358.099 125.087 357.492 124.52C356.885 123.933 356.135 123.639 355.245 123.639C354.374 123.639 353.625 123.933 352.997 124.52C352.39 125.087 351.924 125.917 351.6 127.01C351.276 128.083 351.114 129.389 351.114 130.928C351.114 132.446 351.276 133.752 351.6 134.846C351.924 135.919 352.39 136.749 352.997 137.336C353.625 137.903 354.374 138.186 355.245 138.186ZM365.141 139.553C364.817 139.553 364.534 139.432 364.291 139.189C364.048 138.946 363.927 138.652 363.927 138.308C363.927 137.964 364.048 137.67 364.291 137.427C364.534 137.184 364.817 137.063 365.141 137.063C365.486 137.063 365.779 137.184 366.022 137.427C366.265 137.67 366.387 137.964 366.387 138.308C366.387 138.652 366.265 138.946 366.022 139.189C365.779 139.432 365.486 139.553 365.141 139.553ZM373.353 122.425V139.401H371.773V123.943H371.652L367.704 126.889V125.127L371.348 122.425H373.353ZM377.49 139.401V138.217L383.078 131.991C383.767 131.201 384.324 130.523 384.749 129.956C385.194 129.389 385.518 128.863 385.721 128.377C385.943 127.891 386.055 127.375 386.055 126.828C386.055 126.18 385.903 125.623 385.599 125.158C385.295 124.672 384.88 124.297 384.354 124.034C383.848 123.771 383.271 123.639 382.623 123.639C381.935 123.639 381.327 123.791 380.801 124.095C380.295 124.378 379.9 124.773 379.616 125.279C379.333 125.785 379.191 126.373 379.191 127.041H377.612C377.612 126.109 377.835 125.279 378.28 124.55C378.725 123.822 379.323 123.255 380.072 122.85C380.821 122.425 381.681 122.212 382.653 122.212C383.605 122.212 384.455 122.414 385.204 122.819C385.953 123.224 386.541 123.771 386.966 124.459C387.391 125.148 387.604 125.937 387.604 126.828C387.604 127.435 387.492 128.033 387.269 128.62C387.047 129.187 386.672 129.835 386.146 130.564C385.619 131.292 384.87 132.183 383.898 133.236L379.768 137.852V137.943H388.12V139.401H377.49Z" fill="#8E9198" style="fill:#8E9198;fill:color(display-p3 0.5569 0.5686 0.5961);fill-opacity:1;"/>
<path d="M526.522 139.644C525.327 139.644 524.305 139.3 523.455 138.612C522.604 137.903 521.946 136.901 521.481 135.605C521.035 134.309 520.812 132.75 520.812 130.928C520.812 129.106 521.035 127.547 521.481 126.251C521.946 124.935 522.604 123.933 523.455 123.244C524.305 122.556 525.327 122.212 526.522 122.212C527.717 122.212 528.739 122.556 529.589 123.244C530.46 123.933 531.118 124.935 531.563 126.251C532.009 127.547 532.231 129.106 532.231 130.928C532.231 132.75 532.009 134.309 531.563 135.605C531.118 136.901 530.47 137.903 529.62 138.612C528.769 139.3 527.737 139.644 526.522 139.644ZM526.522 138.186C527.413 138.186 528.162 137.903 528.769 137.336C529.377 136.749 529.842 135.919 530.166 134.846C530.511 133.752 530.683 132.446 530.683 130.928C530.683 129.389 530.511 128.083 530.166 127.01C529.842 125.917 529.377 125.087 528.769 124.52C528.162 123.933 527.413 123.639 526.522 123.639C525.651 123.639 524.902 123.933 524.275 124.52C523.667 125.087 523.202 125.917 522.878 127.01C522.554 128.083 522.392 129.389 522.392 130.928C522.392 132.446 522.554 133.752 522.878 134.846C523.202 135.919 523.667 136.749 524.275 137.336C524.902 137.903 525.651 138.186 526.522 138.186ZM536.419 139.553C536.095 139.553 535.811 139.432 535.568 139.189C535.325 138.946 535.204 138.652 535.204 138.308C535.204 137.964 535.325 137.67 535.568 137.427C535.811 137.184 536.095 137.063 536.419 137.063C536.763 137.063 537.056 137.184 537.299 137.427C537.542 137.67 537.664 137.964 537.664 138.308C537.664 138.652 537.542 138.946 537.299 139.189C537.056 139.432 536.763 139.553 536.419 139.553ZM544.63 122.425V139.401H543.051V123.943H542.929L538.981 126.889V125.127L542.626 122.425H544.63ZM553.991 139.644C552.918 139.644 551.957 139.442 551.106 139.037C550.256 138.612 549.588 138.045 549.102 137.336C548.616 136.627 548.373 135.828 548.373 134.937C548.373 134.228 548.515 133.57 548.798 132.963C549.102 132.355 549.507 131.849 550.013 131.444C550.539 131.019 551.126 130.736 551.774 130.594V130.533C550.924 130.29 550.246 129.814 549.74 129.106C549.233 128.377 548.98 127.557 548.98 126.646C548.98 125.796 549.193 125.036 549.618 124.368C550.064 123.7 550.661 123.174 551.41 122.789C552.179 122.404 553.04 122.212 553.991 122.212C554.943 122.212 555.793 122.404 556.542 122.789C557.312 123.174 557.919 123.7 558.365 124.368C558.81 125.036 559.033 125.796 559.033 126.646C559.033 127.557 558.78 128.377 558.273 129.106C557.767 129.814 557.099 130.29 556.269 130.533V130.594C556.897 130.736 557.464 131.019 557.97 131.444C558.496 131.849 558.901 132.355 559.185 132.963C559.488 133.57 559.64 134.228 559.64 134.937C559.64 135.828 559.397 136.627 558.911 137.336C558.425 138.045 557.757 138.612 556.907 139.037C556.056 139.442 555.085 139.644 553.991 139.644ZM553.991 138.217C554.801 138.217 555.5 138.075 556.087 137.792C556.694 137.488 557.17 137.083 557.514 136.577C557.858 136.071 558.031 135.494 558.031 134.846C558.031 134.178 557.848 133.58 557.484 133.054C557.14 132.527 556.664 132.112 556.056 131.809C555.449 131.485 554.761 131.323 553.991 131.323C553.242 131.323 552.564 131.485 551.957 131.809C551.349 132.112 550.863 132.527 550.499 133.054C550.155 133.58 549.983 134.178 549.983 134.846C549.983 135.494 550.145 136.071 550.468 136.577C550.813 137.083 551.288 137.488 551.896 137.792C552.503 138.075 553.202 138.217 553.991 138.217ZM553.991 129.956C554.659 129.956 555.247 129.825 555.753 129.561C556.279 129.278 556.694 128.893 556.998 128.407C557.302 127.921 557.453 127.365 557.453 126.737C557.453 126.13 557.302 125.593 556.998 125.127C556.714 124.662 556.31 124.297 555.783 124.034C555.257 123.771 554.659 123.639 553.991 123.639C553.323 123.639 552.726 123.771 552.2 124.034C551.693 124.297 551.288 124.662 550.985 125.127C550.681 125.593 550.529 126.13 550.529 126.737C550.529 127.365 550.681 127.921 550.985 128.407C551.288 128.893 551.704 129.278 552.23 129.561C552.756 129.825 553.343 129.956 553.991 129.956Z" fill="#8E9198" style="fill:#8E9198;fill:color(display-p3 0.5569 0.5686 0.5961);fill-opacity:1;"/>
</svg>
