<svg width="643" height="368" viewBox="0 0 643 368" fill="none" xmlns="http://www.w3.org/2000/svg">
<path d="M45.2489 187.537H623.104V335.086H44.2461L45.2489 187.537Z" fill="#51BA73" style="fill:#51BA73;fill:color(display-p3 0.3176 0.7294 0.4510);fill-opacity:1;"/>
<path d="M44.1367 312.41V223.846L560.039 18.3809H623.104V129.335L44.1367 312.41Z" fill="#51BA73" style="fill:#51BA73;fill:color(display-p3 0.3176 0.7294 0.4510);fill-opacity:1;"/>
<path d="M43.9102 334.94L44.0613 277.665C44.0613 277.665 85.6617 268.88 296.537 202.223C507.411 135.566 623.261 86.9551 623.261 86.9551C623.261 130.186 622.771 147.121 622.771 190.932C415.694 247.617 208.377 289.642 43.9102 334.94Z" fill="#37A95D" style="fill:#37A95D;fill:color(display-p3 0.2157 0.6627 0.3647);fill-opacity:1;"/>
<path d="M44.1367 220.561V111.891L195.422 19.0859H525.625L44.1367 220.561Z" fill="#F88030" style="fill:#F88030;fill:color(display-p3 0.9712 0.5023 0.1868);fill-opacity:1;"/>
<path d="M44.1367 236.422V202.767L456.834 18.3809C566.116 18.3809 580.568 18.5212 606.564 18.5231C420.317 107.454 207.541 180.401 45.9677 235.794L44.1367 236.422Z" fill="#F89A30" style="fill:#F89A30;fill:color(display-p3 0.9712 0.6051 0.1868);fill-opacity:1;"/>
<path d="M44.1367 159.27V19.1291L335.892 19.0859C335.892 19.0859 261.274 56.2286 208.391 83.4536C155.508 110.679 44.1367 159.27 44.1367 159.27Z" fill="#D8702A" style="fill:#D8702A;fill:color(display-p3 0.8471 0.4392 0.1647);fill-opacity:1;"/>
<path d="M44.1367 52.1348H623.262" stroke="#C8C8C8" style="stroke:#C8C8C8;stroke:color(display-p3 0.7843 0.7843 0.7843);stroke-opacity:1;"/>
<path d="M44.1367 87.2793H623.262" stroke="#C8C8C8" style="stroke:#C8C8C8;stroke:color(display-p3 0.7843 0.7843 0.7843);stroke-opacity:1;"/>
<path d="M44.1367 122.424H623.262" stroke="#C8C8C8" style="stroke:#C8C8C8;stroke:color(display-p3 0.7843 0.7843 0.7843);stroke-opacity:1;"/>
<path d="M44.1367 157.568H623.262" stroke="#C8C8C8" style="stroke:#C8C8C8;stroke:color(display-p3 0.7843 0.7843 0.7843);stroke-opacity:1;"/>
<path d="M44.1367 192.713H623.262" stroke="#C8C8C8" style="stroke:#C8C8C8;stroke:color(display-p3 0.7843 0.7843 0.7843);stroke-opacity:1;"/>
<path d="M44.1367 227.857H623.262" stroke="#C8C8C8" style="stroke:#C8C8C8;stroke:color(display-p3 0.7843 0.7843 0.7843);stroke-opacity:1;"/>
<path d="M44.1367 263.002H623.262" stroke="#C8C8C8" style="stroke:#C8C8C8;stroke:color(display-p3 0.7843 0.7843 0.7843);stroke-opacity:1;"/>
<path d="M44.1367 298.146H623.262" stroke="#C8C8C8" style="stroke:#C8C8C8;stroke:color(display-p3 0.7843 0.7843 0.7843);stroke-opacity:1;"/>
<path d="M236.219 334.678L236.219 19.043" stroke="#C8C8C8" style="stroke:#C8C8C8;stroke:color(display-p3 0.7843 0.7843 0.7843);stroke-opacity:1;"/>
<path d="M428.805 334.678L428.805 19.043" stroke="#C8C8C8" style="stroke:#C8C8C8;stroke:color(display-p3 0.7843 0.7843 0.7843);stroke-opacity:1;"/>
<path d="M35.6096 352.162V366.707H33.8482V354.008H33.763L30.2118 356.366V354.576L33.8482 352.162H35.6096ZM44.3382 366.906C43.5049 366.906 42.7544 366.74 42.0868 366.409C41.4192 366.077 40.8842 365.623 40.4817 365.045C40.0792 364.467 39.8591 363.809 39.8212 363.071H41.5257C41.592 363.729 41.8903 364.273 42.4206 364.704C42.9557 365.13 43.5949 365.343 44.3382 365.343C44.9348 365.343 45.4651 365.204 45.9292 364.924C46.3979 364.645 46.7649 364.261 47.03 363.774C47.2999 363.281 47.4348 362.725 47.4348 362.105C47.4348 361.47 47.2952 360.904 47.0158 360.407C46.7412 359.905 46.3624 359.51 45.8794 359.221C45.3965 358.932 44.8449 358.786 44.2246 358.781C43.7795 358.776 43.3226 358.845 42.8539 358.987C42.3851 359.124 41.9992 359.302 41.6962 359.52L40.0485 359.321L40.9292 352.162H48.486V353.724H42.4064L41.8951 358.014H41.9803C42.2786 357.777 42.6526 357.581 43.1025 357.424C43.5523 357.268 44.021 357.19 44.5087 357.19C45.3989 357.19 46.1919 357.403 46.888 357.829C47.5887 358.251 48.138 358.828 48.5357 359.562C48.9382 360.296 49.1394 361.134 49.1394 362.076C49.1394 363.004 48.931 363.833 48.5144 364.562C48.1025 365.287 47.5343 365.859 46.8098 366.281C46.0854 366.698 45.2615 366.906 44.3382 366.906ZM56.7051 366.906C55.635 366.906 54.7235 366.615 53.9707 366.032C53.2179 365.445 52.6426 364.595 52.2449 363.483C51.8471 362.365 51.6483 361.016 51.6483 359.434C51.6483 357.862 51.8471 356.52 52.2449 355.407C52.6473 354.29 53.225 353.438 53.9778 352.85C54.7354 352.259 55.6445 351.963 56.7051 351.963C57.7657 351.963 58.6724 352.259 59.4252 352.85C60.1828 353.438 60.7605 354.29 61.1582 355.407C61.5607 356.52 61.7619 357.862 61.7619 359.434C61.7619 361.016 61.563 362.365 61.1653 363.483C60.7676 364.595 60.1923 365.445 59.4395 366.032C58.6866 366.615 57.7752 366.906 56.7051 366.906ZM56.7051 365.343C57.7657 365.343 58.5895 364.832 59.1767 363.809C59.7638 362.787 60.0574 361.328 60.0574 359.434C60.0574 358.175 59.9224 357.102 59.6525 356.217C59.3874 355.332 59.0038 354.657 58.502 354.193C58.0048 353.729 57.4058 353.497 56.7051 353.497C55.6539 353.497 54.8324 354.015 54.2406 355.052C53.6487 356.084 53.3528 357.545 53.3528 359.434C53.3528 360.694 53.4854 361.764 53.7505 362.645C54.0157 363.525 54.3968 364.195 54.894 364.654C55.3959 365.114 55.9996 365.343 56.7051 365.343Z" fill="#8F99A9" style="fill:#8F99A9;fill:color(display-p3 0.5608 0.6000 0.6627);fill-opacity:1;"/>
<path d="M226.199 352.162V366.707H224.438V354.008H224.353L220.802 356.366V354.576L224.438 352.162H226.199ZM230.837 366.707L237.343 353.838V353.724H229.843V352.162H239.161V353.809L232.684 366.707H230.837ZM246.24 366.906C245.17 366.906 244.259 366.615 243.506 366.032C242.753 365.445 242.178 364.595 241.78 363.483C241.382 362.365 241.183 361.016 241.183 359.434C241.183 357.862 241.382 356.52 241.78 355.407C242.182 354.29 242.76 353.438 243.513 352.85C244.271 352.259 245.18 351.963 246.24 351.963C247.301 351.963 248.208 352.259 248.96 352.85C249.718 353.438 250.296 354.29 250.693 355.407C251.096 356.52 251.297 357.862 251.297 359.434C251.297 361.016 251.098 362.365 250.7 363.483C250.303 364.595 249.727 365.445 248.975 366.032C248.222 366.615 247.31 366.906 246.24 366.906ZM246.24 365.343C247.301 365.343 248.125 364.832 248.712 363.809C249.299 362.787 249.593 361.328 249.593 359.434C249.593 358.175 249.458 357.102 249.188 356.217C248.923 355.332 248.539 354.657 248.037 354.193C247.54 353.729 246.941 353.497 246.24 353.497C245.189 353.497 244.368 354.015 243.776 355.052C243.184 356.084 242.888 357.545 242.888 359.434C242.888 360.694 243.021 361.764 243.286 362.645C243.551 363.525 243.932 364.195 244.429 364.654C244.931 365.114 245.535 365.343 246.24 365.343Z" fill="#8F99A9" style="fill:#8F99A9;fill:color(display-p3 0.5608 0.6000 0.6627);fill-opacity:1;"/>
<path d="M419.578 353.162V367.707H417.817V355.008H417.732L414.181 357.366V355.576L417.817 353.162H419.578ZM428.392 352.963C428.989 352.967 429.585 353.081 430.182 353.304C430.779 353.526 431.323 353.895 431.816 354.412C432.308 354.923 432.703 355.621 433.002 356.507C433.3 357.392 433.449 358.502 433.449 359.838C433.449 361.13 433.326 362.279 433.08 363.282C432.838 364.281 432.488 365.124 432.029 365.811C431.574 366.497 431.02 367.018 430.367 367.373C429.718 367.728 428.984 367.906 428.165 367.906C427.351 367.906 426.624 367.745 425.985 367.423C425.35 367.096 424.829 366.644 424.422 366.066C424.02 365.484 423.762 364.809 423.648 364.042H425.381C425.537 364.71 425.847 365.261 426.311 365.697C426.78 366.128 427.398 366.343 428.165 366.343C429.287 366.343 430.173 365.853 430.821 364.873C431.475 363.893 431.801 362.508 431.801 360.718H431.688C431.423 361.116 431.108 361.459 430.743 361.748C430.378 362.037 429.974 362.26 429.529 362.416C429.084 362.572 428.61 362.65 428.108 362.65C427.275 362.65 426.51 362.444 425.814 362.032C425.123 361.616 424.569 361.045 424.152 360.321C423.74 359.592 423.534 358.758 423.534 357.821C423.534 356.931 423.733 356.116 424.131 355.377C424.533 354.634 425.097 354.042 425.821 353.602C426.55 353.162 427.407 352.949 428.392 352.963ZM428.392 354.525C427.796 354.525 427.258 354.674 426.78 354.973C426.307 355.266 425.93 355.664 425.651 356.166C425.376 356.663 425.239 357.215 425.239 357.821C425.239 358.427 425.371 358.978 425.637 359.475C425.906 359.968 426.273 360.361 426.737 360.654C427.206 360.943 427.739 361.088 428.335 361.088C428.785 361.088 429.204 361 429.593 360.825C429.981 360.645 430.319 360.401 430.608 360.093C430.902 359.781 431.131 359.428 431.297 359.035C431.463 358.637 431.546 358.223 431.546 357.792C431.546 357.224 431.408 356.691 431.134 356.194C430.864 355.697 430.49 355.295 430.012 354.987C429.538 354.679 428.998 354.525 428.392 354.525ZM440.986 367.906C439.916 367.906 439.005 367.615 438.252 367.032C437.499 366.445 436.924 365.595 436.526 364.483C436.128 363.365 435.93 362.016 435.93 360.434C435.93 358.862 436.128 357.52 436.526 356.407C436.929 355.29 437.506 354.438 438.259 353.85C439.017 353.259 439.926 352.963 440.986 352.963C442.047 352.963 442.954 353.259 443.706 353.85C444.464 354.438 445.042 355.29 445.439 356.407C445.842 357.52 446.043 358.862 446.043 360.434C446.043 362.016 445.844 363.365 445.447 364.483C445.049 365.595 444.474 366.445 443.721 367.032C442.968 367.615 442.056 367.906 440.986 367.906ZM440.986 366.343C442.047 366.343 442.871 365.832 443.458 364.809C444.045 363.787 444.339 362.328 444.339 360.434C444.339 359.175 444.204 358.102 443.934 357.217C443.669 356.332 443.285 355.657 442.783 355.193C442.286 354.729 441.687 354.497 440.986 354.497C439.935 354.497 439.114 355.015 438.522 356.052C437.93 357.084 437.634 358.545 437.634 360.434C437.634 361.694 437.767 362.764 438.032 363.645C438.297 364.525 438.678 365.195 439.175 365.654C439.677 366.114 440.281 366.343 440.986 366.343Z" fill="#8F99A9" style="fill:#8F99A9;fill:color(display-p3 0.5608 0.6000 0.6627);fill-opacity:1;"/>
<path d="M607.713 366.707V365.429L612.514 360.173C613.077 359.557 613.541 359.022 613.906 358.568C614.27 358.109 614.54 357.678 614.716 357.275C614.895 356.868 614.985 356.442 614.985 355.997C614.985 355.485 614.862 355.043 614.616 354.669C614.375 354.295 614.043 354.006 613.622 353.802C613.2 353.599 612.727 353.497 612.201 353.497C611.643 353.497 611.155 353.613 610.738 353.845C610.326 354.072 610.007 354.392 609.779 354.804C609.557 355.216 609.446 355.699 609.446 356.252H607.77C607.77 355.4 607.966 354.652 608.359 354.008C608.752 353.364 609.287 352.862 609.964 352.502C610.646 352.143 611.411 351.963 612.258 351.963C613.11 351.963 613.866 352.143 614.524 352.502C615.182 352.862 615.698 353.348 616.072 353.958C616.446 354.569 616.633 355.249 616.633 355.997C616.633 356.532 616.536 357.055 616.342 357.566C616.153 358.073 615.821 358.639 615.348 359.264C614.879 359.884 614.228 360.642 613.395 361.537L610.127 365.031V365.145H616.889V366.707H607.713ZM624.936 352.162V366.707H623.174V354.008H623.089L619.538 356.366V354.576L623.174 352.162H624.936ZM633.863 366.906C632.793 366.906 631.882 366.615 631.129 366.032C630.376 365.445 629.801 364.595 629.403 363.483C629.005 362.365 628.806 361.016 628.806 359.434C628.806 357.862 629.005 356.52 629.403 355.407C629.806 354.29 630.383 353.438 631.136 352.85C631.894 352.259 632.803 351.963 633.863 351.963C634.924 351.963 635.831 352.259 636.583 352.85C637.341 353.438 637.919 354.29 638.316 355.407C638.719 356.52 638.92 357.862 638.92 359.434C638.92 361.016 638.721 362.365 638.324 363.483C637.926 364.595 637.35 365.445 636.598 366.032C635.845 366.615 634.933 366.906 633.863 366.906ZM633.863 365.343C634.924 365.343 635.748 364.832 636.335 363.809C636.922 362.787 637.216 361.328 637.216 359.434C637.216 358.175 637.081 357.102 636.811 356.217C636.546 355.332 636.162 354.657 635.66 354.193C635.163 353.729 634.564 353.497 633.863 353.497C632.812 353.497 631.991 354.015 631.399 355.052C630.807 356.084 630.511 357.545 630.511 359.434C630.511 360.694 630.644 361.764 630.909 362.645C631.174 363.525 631.555 364.195 632.052 364.654C632.554 365.114 633.158 365.343 633.863 365.343Z" fill="#8F99A9" style="fill:#8F99A9;fill:color(display-p3 0.5608 0.6000 0.6627);fill-opacity:1;"/>
<path d="M11.032 13.1072V23.2891H9.79901V14.3999H9.73935L7.25355 16.0504V14.7976L9.79901 13.1072H11.032ZM17.4006 23.4283C16.7443 23.4283 16.1593 23.3156 15.6456 23.0902C15.1352 22.8648 14.7292 22.5516 14.4276 22.1506C14.1293 21.7462 13.9669 21.2772 13.9403 20.7436H15.1932C15.2197 21.0717 15.3324 21.3551 15.5312 21.5938C15.7301 21.8291 15.9903 22.0114 16.3118 22.1406C16.6333 22.2699 16.9896 22.3345 17.3807 22.3345C17.8182 22.3345 18.206 22.2583 18.544 22.1058C18.8821 21.9534 19.1473 21.7412 19.3395 21.4695C19.5317 21.1977 19.6278 20.8828 19.6278 20.5249C19.6278 20.1503 19.535 19.8205 19.3494 19.5355C19.1638 19.2472 18.892 19.0218 18.5341 18.8594C18.1761 18.697 17.7386 18.6158 17.2216 18.6158H16.4062V17.522H17.2216C17.6259 17.522 17.9806 17.4491 18.2855 17.3033C18.5938 17.1574 18.834 16.9519 19.0064 16.6868C19.1821 16.4216 19.2699 16.1101 19.2699 15.7521C19.2699 15.4074 19.1937 15.1075 19.0412 14.8523C18.8887 14.5971 18.6733 14.3982 18.3949 14.2557C18.1198 14.1132 17.795 14.0419 17.4205 14.0419C17.0691 14.0419 16.7377 14.1065 16.4261 14.2358C16.1179 14.3617 15.866 14.5457 15.6705 14.7876C15.4749 15.0263 15.3688 15.3146 15.3523 15.6527H14.1591C14.179 15.1191 14.3397 14.6518 14.6413 14.2507C14.9429 13.8464 15.3374 13.5315 15.8246 13.3061C16.3151 13.0807 16.8537 12.968 17.4403 12.968C18.0701 12.968 18.6103 13.0956 19.0611 13.3509C19.5118 13.6027 19.8582 13.9358 20.1001 14.3501C20.3421 14.7644 20.4631 15.2119 20.4631 15.6925C20.4631 16.2659 20.3123 16.7547 20.0107 17.1591C19.7124 17.5634 19.3063 17.8435 18.7926 17.9993V18.0788C19.4356 18.1849 19.9377 18.4583 20.299 18.8991C20.6603 19.3366 20.8409 19.8786 20.8409 20.5249C20.8409 21.0784 20.6901 21.5755 20.3885 22.0163C20.0902 22.4538 19.6825 22.7985 19.1655 23.0504C18.6484 23.3023 18.0601 23.4283 17.4006 23.4283ZM26.1953 23.4283C25.4463 23.4283 24.8082 23.2244 24.2812 22.8168C23.7543 22.4058 23.3516 21.8108 23.0732 21.032C22.7947 20.2498 22.6555 19.3052 22.6555 18.1982C22.6555 17.0978 22.7947 16.1581 23.0732 15.3793C23.3549 14.5971 23.7592 14.0005 24.2862 13.5895C24.8165 13.1752 25.4529 12.968 26.1953 12.968C26.9377 12.968 27.5724 13.1752 28.0994 13.5895C28.6297 14.0005 29.0341 14.5971 29.3125 15.3793C29.5942 16.1581 29.7351 17.0978 29.7351 18.1982C29.7351 19.3052 29.5959 20.2498 29.3175 21.032C29.0391 21.8108 28.6364 22.4058 28.1094 22.8168C27.5824 23.2244 26.9444 23.4283 26.1953 23.4283ZM26.1953 22.3345C26.9377 22.3345 27.5144 21.9766 27.9254 21.2607C28.3364 20.5447 28.5419 19.5239 28.5419 18.1982C28.5419 17.3165 28.4474 16.5658 28.2585 15.946C28.0729 15.3262 27.8045 14.8539 27.4531 14.5291C27.1051 14.2043 26.6858 14.0419 26.1953 14.0419C25.4595 14.0419 24.8845 14.4048 24.4702 15.1307C24.0559 15.8532 23.8487 16.8757 23.8487 18.1982C23.8487 19.0798 23.9415 19.8288 24.1271 20.4453C24.3127 21.0618 24.5795 21.5308 24.9276 21.8523C25.2789 22.1738 25.7015 22.3345 26.1953 22.3345ZM11.4695 48.1072V58.2891H10.2365V49.3999H10.1768L7.69105 51.0504V49.7976L10.2365 48.1072H11.4695ZM14.3977 58.2891V57.3942L17.7585 53.7152C18.1529 53.2843 18.4777 52.9098 18.733 52.5916C18.9882 52.2701 19.1771 51.9685 19.2997 51.6868C19.4257 51.4018 19.4886 51.1035 19.4886 50.7919C19.4886 50.4339 19.4025 50.1241 19.2301 49.8622C19.0611 49.6004 18.8291 49.3982 18.5341 49.2557C18.2391 49.1132 17.9077 49.0419 17.5398 49.0419C17.1487 49.0419 16.8073 49.1231 16.5156 49.2855C16.2273 49.4446 16.0036 49.6683 15.8445 49.9567C15.6887 50.245 15.6108 50.5831 15.6108 50.9709H14.4375C14.4375 50.3743 14.575 49.8506 14.8501 49.3999C15.1252 48.9491 15.4998 48.5978 15.9737 48.3459C16.451 48.094 16.9863 47.968 17.5795 47.968C18.1761 47.968 18.7048 48.094 19.1655 48.3459C19.6262 48.5978 19.9875 48.9375 20.2493 49.3651C20.5111 49.7926 20.642 50.2682 20.642 50.7919C20.642 51.1664 20.5741 51.5327 20.4382 51.8906C20.3056 52.2453 20.0736 52.6413 19.7422 53.0788C19.4141 53.513 18.9583 54.0433 18.375 54.6697L16.0881 57.1158V57.1953H20.821V58.2891H14.3977ZM26.1953 58.4283C25.4463 58.4283 24.8082 58.2244 24.2812 57.8168C23.7543 57.4058 23.3516 56.8108 23.0732 56.032C22.7947 55.2498 22.6555 54.3052 22.6555 53.1982C22.6555 52.0978 22.7947 51.1581 23.0732 50.3793C23.3549 49.5971 23.7592 49.0005 24.2862 48.5895C24.8165 48.1752 25.4529 47.968 26.1953 47.968C26.9377 47.968 27.5724 48.1752 28.0994 48.5895C28.6297 49.0005 29.0341 49.5971 29.3125 50.3793C29.5942 51.1581 29.7351 52.0978 29.7351 53.1982C29.7351 54.3052 29.5959 55.2498 29.3175 56.032C29.0391 56.8108 28.6364 57.4058 28.1094 57.8168C27.5824 58.2244 26.9444 58.4283 26.1953 58.4283ZM26.1953 57.3345C26.9377 57.3345 27.5144 56.9766 27.9254 56.2607C28.3364 55.5447 28.5419 54.5239 28.5419 53.1982C28.5419 52.3165 28.4474 51.5658 28.2585 50.946C28.0729 50.3262 27.8045 49.8539 27.4531 49.5291C27.1051 49.2043 26.6858 49.0419 26.1953 49.0419C25.4595 49.0419 24.8845 49.4048 24.4702 50.1307C24.0559 50.8532 23.8487 51.8757 23.8487 53.1982C23.8487 54.0798 23.9415 54.8288 24.1271 55.4453C24.3127 56.0618 24.5795 56.5308 24.9276 56.8523C25.2789 57.1738 25.7015 57.3345 26.1953 57.3345ZM13.4382 83.1072V93.2891H12.2053V84.3999H12.1456L9.6598 86.0504V84.7976L12.2053 83.1072H13.4382ZM19.946 83.1072V93.2891H18.7131V84.3999H18.6534L16.1676 86.0504V84.7976L18.7131 83.1072H19.946ZM26.1953 93.4283C25.4463 93.4283 24.8082 93.2244 24.2812 92.8168C23.7543 92.4058 23.3516 91.8108 23.0732 91.032C22.7947 90.2498 22.6555 89.3052 22.6555 88.1982C22.6555 87.0978 22.7947 86.1581 23.0732 85.3793C23.3549 84.5971 23.7592 84.0005 24.2862 83.5895C24.8165 83.1752 25.4529 82.968 26.1953 82.968C26.9377 82.968 27.5724 83.1752 28.0994 83.5895C28.6297 84.0005 29.0341 84.5971 29.3125 85.3793C29.5942 86.1581 29.7351 87.0978 29.7351 88.1982C29.7351 89.3052 29.5959 90.2498 29.3175 91.032C29.0391 91.8108 28.6364 92.4058 28.1094 92.8168C27.5824 93.2244 26.9444 93.4283 26.1953 93.4283ZM26.1953 92.3345C26.9377 92.3345 27.5144 91.9766 27.9254 91.2607C28.3364 90.5447 28.5419 89.5239 28.5419 88.1982C28.5419 87.3165 28.4474 86.5658 28.2585 85.946C28.0729 85.3262 27.8045 84.8539 27.4531 84.5291C27.1051 84.2043 26.6858 84.0419 26.1953 84.0419C25.4595 84.0419 24.8845 84.4048 24.4702 85.1307C24.0559 85.8532 23.8487 86.8757 23.8487 88.1982C23.8487 89.0798 23.9415 89.8288 24.1271 90.4453C24.3127 91.0618 24.5795 91.5308 24.9276 91.8523C25.2789 92.1738 25.7015 92.3345 26.1953 92.3345ZM11.196 118.107V128.289H9.96307V119.4H9.90341L7.41761 121.05V119.798L9.96307 118.107H11.196ZM17.4453 128.428C16.6963 128.428 16.0582 128.224 15.5312 127.817C15.0043 127.406 14.6016 126.811 14.3232 126.032C14.0447 125.25 13.9055 124.305 13.9055 123.198C13.9055 122.098 14.0447 121.158 14.3232 120.379C14.6049 119.597 15.0092 119 15.5362 118.589C16.0665 118.175 16.7029 117.968 17.4453 117.968C18.1877 117.968 18.8224 118.175 19.3494 118.589C19.8797 119 20.2841 119.597 20.5625 120.379C20.8442 121.158 20.9851 122.098 20.9851 123.198C20.9851 124.305 20.8459 125.25 20.5675 126.032C20.2891 126.811 19.8864 127.406 19.3594 127.817C18.8324 128.224 18.1944 128.428 17.4453 128.428ZM17.4453 127.335C18.1877 127.335 18.7644 126.977 19.1754 126.261C19.5864 125.545 19.7919 124.524 19.7919 123.198C19.7919 122.317 19.6974 121.566 19.5085 120.946C19.3229 120.326 19.0545 119.854 18.7031 119.529C18.3551 119.204 17.9358 119.042 17.4453 119.042C16.7095 119.042 16.1345 119.405 15.7202 120.131C15.3059 120.853 15.0987 121.876 15.0987 123.198C15.0987 124.08 15.1915 124.829 15.3771 125.445C15.5627 126.062 15.8295 126.531 16.1776 126.852C16.5289 127.174 16.9515 127.335 17.4453 127.335ZM26.1953 128.428C25.4463 128.428 24.8082 128.224 24.2812 127.817C23.7543 127.406 23.3516 126.811 23.0732 126.032C22.7947 125.25 22.6555 124.305 22.6555 123.198C22.6555 122.098 22.7947 121.158 23.0732 120.379C23.3549 119.597 23.7592 119 24.2862 118.589C24.8165 118.175 25.4529 117.968 26.1953 117.968C26.9377 117.968 27.5724 118.175 28.0994 118.589C28.6297 119 29.0341 119.597 29.3125 120.379C29.5942 121.158 29.7351 122.098 29.7351 123.198C29.7351 124.305 29.5959 125.25 29.3175 126.032C29.0391 126.811 28.6364 127.406 28.1094 127.817C27.5824 128.224 26.9444 128.428 26.1953 128.428ZM26.1953 127.335C26.9377 127.335 27.5144 126.977 27.9254 126.261C28.3364 125.545 28.5419 124.524 28.5419 123.198C28.5419 122.317 28.4474 121.566 28.2585 120.946C28.0729 120.326 27.8045 119.854 27.4531 119.529C27.1051 119.204 26.6858 119.042 26.1953 119.042C25.4595 119.042 24.8845 119.405 24.4702 120.131C24.0559 120.853 23.8487 121.876 23.8487 123.198C23.8487 124.08 23.9415 124.829 24.1271 125.445C24.3127 126.062 24.5795 126.531 24.9276 126.852C25.2789 127.174 25.7015 127.335 26.1953 127.335ZM17.3794 152.968C17.7971 152.971 18.2147 153.051 18.6323 153.207C19.0499 153.362 19.431 153.621 19.7757 153.982C20.1204 154.34 20.3972 154.829 20.606 155.449C20.8148 156.069 20.9192 156.846 20.9192 157.781C20.9192 158.685 20.833 159.489 20.6607 160.192C20.4917 160.891 20.2464 161.481 19.9249 161.962C19.6067 162.442 19.2189 162.807 18.7615 163.055C18.3075 163.304 17.7937 163.428 17.2203 163.428C16.6503 163.428 16.1415 163.316 15.6941 163.09C15.2499 162.862 14.8854 162.545 14.6003 162.141C14.3186 161.733 14.138 161.261 14.0584 160.724H15.2715C15.3809 161.191 15.598 161.577 15.9228 161.882C16.2509 162.184 16.6834 162.335 17.2203 162.335C18.0059 162.335 18.6257 161.991 19.0797 161.305C19.5371 160.619 19.7658 159.65 19.7658 158.397H19.6863C19.5007 158.675 19.2802 158.916 19.025 159.118C18.7698 159.32 18.4864 159.476 18.1749 159.585C17.8633 159.695 17.5319 159.749 17.1806 159.749C16.5972 159.749 16.062 159.605 15.5748 159.317C15.0908 159.025 14.7031 158.626 14.4114 158.119C14.123 157.608 13.9789 157.025 13.9789 156.369C13.9789 155.746 14.1181 155.175 14.3965 154.658C14.6782 154.138 15.0726 153.724 15.5797 153.415C16.0901 153.107 16.69 152.958 17.3794 152.968ZM17.3794 154.062C16.9618 154.062 16.5856 154.166 16.2509 154.375C15.9194 154.58 15.656 154.859 15.4604 155.21C15.2682 155.558 15.1721 155.944 15.1721 156.369C15.1721 156.793 15.2649 157.179 15.4505 157.527C15.6394 157.872 15.8962 158.147 16.2211 158.352C16.5492 158.554 16.9221 158.656 17.3397 158.656C17.6545 158.656 17.9479 158.594 18.2196 158.472C18.4914 158.346 18.7284 158.175 18.9306 157.96C19.1361 157.741 19.2968 157.494 19.4128 157.219C19.5288 156.94 19.5868 156.65 19.5868 156.349C19.5868 155.951 19.4907 155.578 19.2985 155.23C19.1096 154.882 18.8477 154.6 18.513 154.385C18.1815 154.17 17.8037 154.062 17.3794 154.062ZM26.1953 163.428C25.4463 163.428 24.8082 163.224 24.2812 162.817C23.7543 162.406 23.3516 161.811 23.0732 161.032C22.7947 160.25 22.6555 159.305 22.6555 158.198C22.6555 157.098 22.7947 156.158 23.0732 155.379C23.3549 154.597 23.7592 154 24.2862 153.589C24.8165 153.175 25.4529 152.968 26.1953 152.968C26.9377 152.968 27.5724 153.175 28.0994 153.589C28.6297 154 29.0341 154.597 29.3125 155.379C29.5942 156.158 29.7351 157.098 29.7351 158.198C29.7351 159.305 29.5959 160.25 29.3175 161.032C29.0391 161.811 28.6364 162.406 28.1094 162.817C27.5824 163.224 26.9444 163.428 26.1953 163.428ZM26.1953 162.335C26.9377 162.335 27.5144 161.977 27.9254 161.261C28.3364 160.545 28.5419 159.524 28.5419 158.198C28.5419 157.317 28.4474 156.566 28.2585 155.946C28.0729 155.326 27.8045 154.854 27.4531 154.529C27.1051 154.204 26.6858 154.042 26.1953 154.042C25.4595 154.042 24.8845 154.405 24.4702 155.131C24.0559 155.853 23.8487 156.876 23.8487 158.198C23.8487 159.08 23.9415 159.829 24.1271 160.445C24.3127 161.062 24.5795 161.531 24.9276 161.852C25.2789 162.174 25.7015 162.335 26.1953 162.335ZM17.5087 198.428C16.8259 198.428 16.2227 198.307 15.699 198.065C15.1787 197.82 14.7727 197.484 14.481 197.056C14.1893 196.625 14.0452 196.135 14.0485 195.585C14.0452 195.154 14.1297 194.756 14.302 194.391C14.4744 194.023 14.7097 193.717 15.008 193.472C15.3096 193.223 15.646 193.066 16.0172 192.999V192.94C15.53 192.814 15.1422 192.54 14.8539 192.119C14.5655 191.695 14.423 191.213 14.4263 190.673C14.423 190.156 14.5539 189.693 14.8191 189.286C15.0842 188.878 15.4488 188.556 15.9128 188.321C16.3801 188.086 16.9121 187.968 17.5087 187.968C18.0987 187.968 18.6257 188.086 19.0897 188.321C19.5537 188.556 19.9183 188.878 20.1834 189.286C20.4519 189.693 20.5878 190.156 20.5911 190.673C20.5878 191.213 20.4403 191.695 20.1486 192.119C19.8603 192.54 19.4775 192.814 19.0002 192.94V192.999C19.3681 193.066 19.6995 193.223 19.9945 193.472C20.2895 193.717 20.5248 194.023 20.7005 194.391C20.8761 194.756 20.9656 195.154 20.9689 195.585C20.9656 196.135 20.8165 196.625 20.5215 197.056C20.2298 197.484 19.8238 197.82 19.3034 198.065C18.7864 198.307 18.1882 198.428 17.5087 198.428ZM17.5087 197.335C17.9694 197.335 18.3671 197.26 18.7019 197.111C19.0366 196.962 19.2952 196.751 19.4775 196.479C19.6597 196.208 19.7525 195.889 19.7559 195.525C19.7525 195.14 19.6531 194.801 19.4576 194.506C19.262 194.211 18.9952 193.979 18.6571 193.81C18.3224 193.641 17.9396 193.556 17.5087 193.556C17.0745 193.556 16.6867 193.641 16.3453 193.81C16.0073 193.979 15.7405 194.211 15.5449 194.506C15.3527 194.801 15.2582 195.14 15.2615 195.525C15.2582 195.889 15.3461 196.208 15.525 196.479C15.7073 196.751 15.9675 196.962 16.3056 197.111C16.6436 197.26 17.0447 197.335 17.5087 197.335ZM17.5087 192.502C17.8733 192.502 18.1964 192.429 18.4782 192.283C18.7632 192.138 18.9869 191.934 19.1493 191.672C19.3117 191.41 19.3946 191.103 19.3979 190.752C19.3946 190.407 19.3134 190.107 19.1543 189.852C18.9952 189.594 18.7748 189.395 18.4931 189.256C18.2114 189.113 17.8832 189.042 17.5087 189.042C17.1275 189.042 16.7944 189.113 16.5094 189.256C16.2244 189.395 16.004 189.594 15.8482 189.852C15.6924 190.107 15.6162 190.407 15.6195 190.752C15.6162 191.103 15.6941 191.41 15.8532 191.672C16.0156 191.934 16.2393 192.138 16.5243 192.283C16.8094 192.429 17.1375 192.502 17.5087 192.502ZM26.1953 198.428C25.4463 198.428 24.8082 198.224 24.2812 197.817C23.7543 197.406 23.3516 196.811 23.0732 196.032C22.7947 195.25 22.6555 194.305 22.6555 193.198C22.6555 192.098 22.7947 191.158 23.0732 190.379C23.3549 189.597 23.7592 189 24.2862 188.589C24.8165 188.175 25.4529 187.968 26.1953 187.968C26.9377 187.968 27.5724 188.175 28.0994 188.589C28.6297 189 29.0341 189.597 29.3125 190.379C29.5942 191.158 29.7351 192.098 29.7351 193.198C29.7351 194.305 29.5959 195.25 29.3175 196.032C29.0391 196.811 28.6364 197.406 28.1094 197.817C27.5824 198.224 26.9444 198.428 26.1953 198.428ZM26.1953 197.335C26.9377 197.335 27.5144 196.977 27.9254 196.261C28.3364 195.545 28.5419 194.524 28.5419 193.198C28.5419 192.317 28.4474 191.566 28.2585 190.946C28.0729 190.326 27.8045 189.854 27.4531 189.529C27.1051 189.204 26.6858 189.042 26.1953 189.042C25.4595 189.042 24.8845 189.405 24.4702 190.131C24.0559 190.853 23.8487 191.876 23.8487 193.198C23.8487 194.08 23.9415 194.829 24.1271 195.445C24.3127 196.062 24.5795 196.531 24.9276 196.852C25.2789 197.174 25.7015 197.335 26.1953 197.335ZM15.4132 233.289L19.9672 224.281V224.201H14.7172V223.107H21.2399V224.261L16.7058 233.289H15.4132ZM26.1953 233.428C25.4463 233.428 24.8082 233.224 24.2812 232.817C23.7543 232.406 23.3516 231.811 23.0732 231.032C22.7947 230.25 22.6555 229.305 22.6555 228.198C22.6555 227.098 22.7947 226.158 23.0732 225.379C23.3549 224.597 23.7592 224 24.2862 223.589C24.8165 223.175 25.4529 222.968 26.1953 222.968C26.9377 222.968 27.5724 223.175 28.0994 223.589C28.6297 224 29.0341 224.597 29.3125 225.379C29.5942 226.158 29.7351 227.098 29.7351 228.198C29.7351 229.305 29.5959 230.25 29.3175 231.032C29.0391 231.811 28.6364 232.406 28.1094 232.817C27.5824 233.224 26.9444 233.428 26.1953 233.428ZM26.1953 232.335C26.9377 232.335 27.5144 231.977 27.9254 231.261C28.3364 230.545 28.5419 229.524 28.5419 228.198C28.5419 227.317 28.4474 226.566 28.2585 225.946C28.0729 225.326 27.8045 224.854 27.4531 224.529C27.1051 224.204 26.6858 224.042 26.1953 224.042C25.4595 224.042 24.8845 224.405 24.4702 225.131C24.0559 225.853 23.8487 226.876 23.8487 228.198C23.8487 229.08 23.9415 229.829 24.1271 230.445C24.3127 231.062 24.5795 231.531 24.9276 231.852C25.2789 232.174 25.7015 232.335 26.1953 232.335ZM17.5186 268.428C17.101 268.422 16.6834 268.342 16.2658 268.19C15.8482 268.037 15.467 267.78 15.1223 267.419C14.7776 267.054 14.5009 266.562 14.2921 265.942C14.0833 265.319 13.9789 264.537 13.9789 263.596C13.9789 262.694 14.0634 261.896 14.2324 261.2C14.4015 260.5 14.6467 259.912 14.9682 259.435C15.2897 258.954 15.6775 258.589 16.1316 258.341C16.589 258.092 17.1043 257.968 17.6777 257.968C18.2478 257.968 18.7549 258.082 19.199 258.311C19.6465 258.536 20.0111 258.851 20.2928 259.256C20.5745 259.66 20.7568 260.126 20.8397 260.653H19.6266C19.5139 260.195 19.2952 259.816 18.9703 259.514C18.6455 259.213 18.2147 259.062 17.6777 259.062C16.8889 259.062 16.2675 259.405 15.8134 260.091C15.3626 260.777 15.1356 261.74 15.1323 262.979H15.2118C15.3974 262.698 15.6178 262.457 15.873 262.259C16.1316 262.056 16.4166 261.901 16.7282 261.791C17.0397 261.682 17.3695 261.627 17.7175 261.627C18.3008 261.627 18.8345 261.773 19.3184 262.065C19.8023 262.353 20.19 262.752 20.4817 263.263C20.7734 263.77 20.9192 264.352 20.9192 265.008C20.9192 265.638 20.7784 266.214 20.4966 266.738C20.2149 267.258 19.8188 267.673 19.3084 267.981C18.8013 268.286 18.2047 268.435 17.5186 268.428ZM17.5186 267.335C17.9363 267.335 18.3108 267.23 18.6422 267.021C18.977 266.812 19.2405 266.532 19.4327 266.181C19.6283 265.83 19.726 265.439 19.726 265.008C19.726 264.587 19.6316 264.204 19.4426 263.859C19.257 263.511 19.0002 263.235 18.6721 263.029C18.3472 262.824 17.976 262.721 17.5584 262.721C17.2435 262.721 16.9502 262.784 16.6784 262.91C16.4067 263.032 16.168 263.201 15.9625 263.417C15.7604 263.632 15.6013 263.879 15.4853 264.158C15.3693 264.433 15.3113 264.723 15.3113 265.028C15.3113 265.432 15.4057 265.81 15.5946 266.161C15.7869 266.513 16.0487 266.796 16.3801 267.011C16.7149 267.227 17.0944 267.335 17.5186 267.335ZM26.1953 268.428C25.4463 268.428 24.8082 268.224 24.2812 267.817C23.7543 267.406 23.3516 266.811 23.0732 266.032C22.7947 265.25 22.6555 264.305 22.6555 263.198C22.6555 262.098 22.7947 261.158 23.0732 260.379C23.3549 259.597 23.7592 259 24.2862 258.589C24.8165 258.175 25.4529 257.968 26.1953 257.968C26.9377 257.968 27.5724 258.175 28.0994 258.589C28.6297 259 29.0341 259.597 29.3125 260.379C29.5942 261.158 29.7351 262.098 29.7351 263.198C29.7351 264.305 29.5959 265.25 29.3175 266.032C29.0391 266.811 28.6364 267.406 28.1094 267.817C27.5824 268.224 26.9444 268.428 26.1953 268.428ZM26.1953 267.335C26.9377 267.335 27.5144 266.977 27.9254 266.261C28.3364 265.545 28.5419 264.524 28.5419 263.198C28.5419 262.317 28.4474 261.566 28.2585 260.946C28.0729 260.326 27.8045 259.854 27.4531 259.529C27.1051 259.204 26.6858 259.042 26.1953 259.042C25.4595 259.042 24.8845 259.405 24.4702 260.131C24.0559 260.853 23.8487 261.876 23.8487 263.198C23.8487 264.08 23.9415 264.829 24.1271 265.445C24.3127 266.062 24.5795 266.531 24.9276 266.852C25.2789 267.174 25.7015 267.335 26.1953 267.335ZM17.5385 303.428C16.9552 303.428 16.4299 303.312 15.9625 303.08C15.4952 302.848 15.1207 302.53 14.839 302.126C14.5572 301.721 14.4031 301.261 14.3766 300.744H15.5698C15.6162 301.204 15.825 301.585 16.1962 301.887C16.5707 302.185 17.0182 302.335 17.5385 302.335C17.9561 302.335 18.3274 302.237 18.6522 302.041C18.9803 301.846 19.2372 301.577 19.4228 301.236C19.6117 300.891 19.7061 300.502 19.7061 300.067C19.7061 299.623 19.6084 299.227 19.4128 298.879C19.2206 298.528 18.9554 298.251 18.6174 298.049C18.2793 297.847 17.8932 297.744 17.459 297.741C17.1474 297.737 16.8276 297.786 16.4995 297.885C16.1713 297.981 15.9012 298.105 15.6891 298.258L14.5357 298.119L15.1522 293.107H20.4419V294.201H16.1863L15.8283 297.204H15.888C16.0968 297.038 16.3586 296.901 16.6735 296.791C16.9883 296.682 17.3165 296.627 17.6578 296.627C18.281 296.627 18.8361 296.776 19.3233 297.075C19.8139 297.37 20.1983 297.774 20.4767 298.288C20.7585 298.801 20.8993 299.388 20.8993 300.048C20.8993 300.697 20.7535 301.277 20.4618 301.788C20.1735 302.295 19.7757 302.696 19.2686 302.991C18.7615 303.282 18.1848 303.428 17.5385 303.428ZM26.1953 303.428C25.4463 303.428 24.8082 303.224 24.2812 302.817C23.7543 302.406 23.3516 301.811 23.0732 301.032C22.7947 300.25 22.6555 299.305 22.6555 298.198C22.6555 297.098 22.7947 296.158 23.0732 295.379C23.3549 294.597 23.7592 294 24.2862 293.589C24.8165 293.175 25.4529 292.968 26.1953 292.968C26.9377 292.968 27.5724 293.175 28.0994 293.589C28.6297 294 29.0341 294.597 29.3125 295.379C29.5942 296.158 29.7351 297.098 29.7351 298.198C29.7351 299.305 29.5959 300.25 29.3175 301.032C29.0391 301.811 28.6364 302.406 28.1094 302.817C27.5824 303.224 26.9444 303.428 26.1953 303.428ZM26.1953 302.335C26.9377 302.335 27.5144 301.977 27.9254 301.261C28.3364 300.545 28.5419 299.524 28.5419 298.198C28.5419 297.317 28.4474 296.566 28.2585 295.946C28.0729 295.326 27.8045 294.854 27.4531 294.529C27.1051 294.204 26.6858 294.042 26.1953 294.042C25.4595 294.042 24.8845 294.405 24.4702 295.131C24.0559 295.853 23.8487 296.876 23.8487 298.198C23.8487 299.08 23.9415 299.829 24.1271 300.445C24.3127 301.062 24.5795 301.531 24.9276 301.852C25.2789 302.174 25.7015 302.335 26.1953 302.335ZM13.6532 336.201V335.187L18.1277 328.107H18.8635V329.678H18.3663L14.9856 335.028V335.107H21.0112V336.201H13.6532ZM18.4458 338.289V335.893V335.42V328.107H19.6191V338.289H18.4458ZM26.1953 338.428C25.4463 338.428 24.8082 338.224 24.2812 337.817C23.7543 337.406 23.3516 336.811 23.0732 336.032C22.7947 335.25 22.6555 334.305 22.6555 333.198C22.6555 332.098 22.7947 331.158 23.0732 330.379C23.3549 329.597 23.7592 329 24.2862 328.589C24.8165 328.175 25.4529 327.968 26.1953 327.968C26.9377 327.968 27.5724 328.175 28.0994 328.589C28.6297 329 29.0341 329.597 29.3125 330.379C29.5942 331.158 29.7351 332.098 29.7351 333.198C29.7351 334.305 29.5959 335.25 29.3175 336.032C29.0391 336.811 28.6364 337.406 28.1094 337.817C27.5824 338.224 26.9444 338.428 26.1953 338.428ZM26.1953 337.335C26.9377 337.335 27.5144 336.977 27.9254 336.261C28.3364 335.545 28.5419 334.524 28.5419 333.198C28.5419 332.317 28.4474 331.566 28.2585 330.946C28.0729 330.326 27.8045 329.854 27.4531 329.529C27.1051 329.204 26.6858 329.042 26.1953 329.042C25.4595 329.042 24.8845 329.405 24.4702 330.131C24.0559 330.853 23.8487 331.876 23.8487 333.198C23.8487 334.08 23.9415 334.829 24.1271 335.445C24.3127 336.062 24.5795 336.531 24.9276 336.852C25.2789 337.174 25.7015 337.335 26.1953 337.335Z" fill="#8F99A9" style="fill:#8F99A9;fill:color(display-p3 0.5608 0.6000 0.6627);fill-opacity:1;"/>
</svg>
