<?xml version="1.0" encoding="utf-8"?>
<!-- Generator: $$$/GeneralStr/196=Adobe Illustrator 27.6.0, SVG Export Plug-In . SVG Version: 6.00 Build 0)  -->
<svg version="1.1" id="Calque_1" xmlns="http://www.w3.org/2000/svg" xmlns:xlink="http://www.w3.org/1999/xlink" x="0px" y="0px"
	 viewBox="0 0 1514.1 899.7" style="enable-background:new 0 0 1514.1 899.7;" xml:space="preserve">
<style type="text/css">
	.st0{fill:#71C07D;}
	.st1{fill:#8DD49A;}
	.st2{fill:#F2C686;}
	.st3{fill:#EE8C53;}
	.st4{fill:none;stroke:#FFFFFF;stroke-miterlimit:10;}
</style>
<rect x="-6351.8" y="1348.1" width="10012.3" height="3163.9"/>
<path class="st0" d="M120.6,761.4v-95.1c0-0.9,0.6-1.6,1.4-1.8L1402.3,320c1.2-0.3,2.4,0.6,2.4,1.8v442.8c0,8.8-7.1,15.9-15.9,15.9
	H139.8C129.2,780.5,120.6,772,120.6,761.4z"/>
<polygon class="st1" points="120.6,664.8 1404.7,319.4 1404.7,210.3 120.6,637.5 "/>
<polygon class="st2" points="120.6,637.5 120.6,403.5 825.3,403.5 "/>
<path class="st3" d="M120.6,403.5V86.9c0-9.5,7.7-17.2,17.2-17.2h1249.7c9.5,0,17.2,7.7,17.2,17.2v123.4L825.3,403.5H120.6z"/>
<line class="st4" x1="377.6" y1="780.5" x2="377.6" y2="69.7"/>
<line class="st4" x1="1404.1" y1="210.3" x2="121.3" y2="210.3"/>
<line class="st4" x1="1404.1" y1="349.3" x2="121.3" y2="349.3"/>
<line class="st4" x1="1404.1" y1="488.3" x2="121.3" y2="488.3"/>
<line class="st4" x1="1404.1" y1="637.5" x2="121.3" y2="637.5"/>
<line class="st4" x1="634" y1="780.5" x2="634" y2="69.7"/>
<line class="st4" x1="891.4" y1="780.5" x2="891.4" y2="69.7"/>
<line class="st4" x1="1147.7" y1="780.5" x2="1147.7" y2="69.7"/>
<path class="st4" d="M1387.7,780.5h-1250c-9.4,0-17-7.6-17-17V86.7c0-9.4,7.6-17,17-17h1250c9.4,0,17,7.6,17,17v676.8
	C1404.7,772.9,1397.1,780.5,1387.7,780.5z"/>
<g>
	<g>
		<g>
			<path d="M107.4,845.4c-2,0-3.7-0.5-5.1-1.6s-2.5-2.7-3.2-4.7c-0.7-2.1-1.1-4.6-1.1-7.5c0-2.9,0.4-5.4,1.1-7.5
				c0.7-2.1,1.8-3.7,3.2-4.8s3.1-1.6,5.1-1.6c2,0,3.7,0.5,5.1,1.6c1.4,1.1,2.5,2.7,3.2,4.8c0.7,2.1,1.1,4.6,1.1,7.5
				c0,2.9-0.4,5.5-1.1,7.5c-0.7,2.1-1.8,3.7-3.2,4.7C111.1,844.8,109.4,845.4,107.4,845.4z M107.4,842.5c2,0,3.5-1,4.6-2.9
				c1.1-1.9,1.6-4.6,1.6-8.1c0-2.3-0.2-4.3-0.7-6c-0.5-1.6-1.2-2.9-2.1-3.8c-0.9-0.9-2-1.3-3.3-1.3c-2,0-3.5,1-4.6,2.9
				s-1.7,4.6-1.7,8.2c0,2.3,0.2,4.3,0.7,6c0.5,1.6,1.2,2.9,2.1,3.7C105,842,106.1,842.5,107.4,842.5z"/>
		</g>
	</g>
</g>
<g>
	<g>
		<g>
			<path d="M357.5,847.2v-2.4l8.9-9.8c1-1.1,1.9-2.1,2.6-3c0.7-0.9,1.2-1.7,1.5-2.4s0.5-1.5,0.5-2.4c0-1-0.2-1.8-0.7-2.5
				s-1.1-1.2-1.9-1.6c-0.8-0.4-1.7-0.6-2.6-0.6c-1,0-1.9,0.2-2.7,0.6c-0.8,0.4-1.4,1-1.8,1.8s-0.6,1.7-0.6,2.7h-3.1
				c0-1.6,0.4-3,1.1-4.2c0.7-1.2,1.7-2.1,3-2.8c1.3-0.7,2.7-1,4.3-1c1.6,0,3,0.3,4.2,1c1.2,0.7,2.2,1.6,2.9,2.7s1,2.4,1,3.8
				c0,1-0.2,2-0.5,2.9s-1,2-1.9,3.2c-0.9,1.2-2.1,2.6-3.6,4.2l-6.1,6.5v0.2h12.6v2.9H357.5z"/>
			<path d="M388.9,847.6c-2,0-3.7-0.5-5.1-1.6s-2.5-2.7-3.2-4.7c-0.7-2.1-1.1-4.6-1.1-7.5c0-2.9,0.4-5.4,1.1-7.5
				c0.7-2.1,1.8-3.7,3.2-4.8s3.1-1.6,5.1-1.6c2,0,3.7,0.5,5.1,1.6c1.4,1.1,2.5,2.7,3.2,4.8c0.7,2.1,1.1,4.6,1.1,7.5
				c0,2.9-0.4,5.5-1.1,7.5c-0.7,2.1-1.8,3.7-3.2,4.7C392.6,847,390.9,847.6,388.9,847.6z M388.9,844.7c2,0,3.5-1,4.6-2.9
				c1.1-1.9,1.6-4.6,1.6-8.1c0-2.3-0.2-4.3-0.7-6c-0.5-1.6-1.2-2.9-2.1-3.8c-0.9-0.9-2-1.3-3.3-1.3c-2,0-3.5,1-4.6,2.9
				s-1.7,4.6-1.7,8.2c0,2.3,0.2,4.3,0.7,6c0.5,1.6,1.2,2.9,2.1,3.7C386.5,844.3,387.6,844.7,388.9,844.7z"/>
		</g>
	</g>
</g>
<g>
	<g>
		<g>
			<path d="M77.8,618.2v27.1h-3.3v-23.6h-0.2l-6.6,4.4v-3.3l6.8-4.5H77.8z"/>
		</g>
	</g>
</g>
<g>
	<g>
		<g>
			<path d="M63,500.9v-2.4l8.9-9.8c1-1.1,1.9-2.1,2.6-3c0.7-0.9,1.2-1.7,1.5-2.4c0.3-0.8,0.5-1.5,0.5-2.4c0-1-0.2-1.8-0.7-2.5
				s-1.1-1.2-1.9-1.6s-1.7-0.6-2.6-0.6c-1,0-1.9,0.2-2.7,0.6c-0.8,0.4-1.4,1-1.8,1.8c-0.4,0.8-0.6,1.7-0.6,2.7h-3.1
				c0-1.6,0.4-3,1.1-4.2c0.7-1.2,1.7-2.1,3-2.8c1.3-0.7,2.7-1,4.3-1c1.6,0,3,0.3,4.2,1c1.2,0.7,2.2,1.6,2.9,2.7s1,2.4,1,3.8
				c0,1-0.2,2-0.5,2.9s-1,2-1.8,3.2c-0.9,1.2-2.1,2.6-3.6,4.2l-6.1,6.5v0.2h12.6v2.9H63z"/>
		</g>
	</g>
</g>
<g>
	<g>
		<g>
			<path d="M71,360.9c-1.7,0-3.3-0.3-4.7-0.9c-1.4-0.6-2.4-1.4-3.2-2.5s-1.2-2.3-1.3-3.7h3.3c0.1,0.9,0.4,1.6,0.9,2.3
				c0.5,0.6,1.2,1.1,2.1,1.5c0.9,0.3,1.8,0.5,2.8,0.5c1.2,0,2.2-0.2,3.1-0.6s1.6-1,2.1-1.7c0.5-0.7,0.8-1.6,0.8-2.5
				c0-1-0.2-1.9-0.7-2.6c-0.5-0.8-1.2-1.4-2.2-1.8c-1-0.4-2.1-0.6-3.5-0.6h-2.2v-2.9h2.2c1.1,0,2-0.2,2.8-0.6
				c0.8-0.4,1.5-0.9,1.9-1.6c0.5-0.7,0.7-1.5,0.7-2.5c0-0.9-0.2-1.7-0.6-2.4s-1-1.2-1.7-1.6s-1.6-0.6-2.6-0.6
				c-0.9,0-1.8,0.2-2.6,0.5c-0.8,0.3-1.5,0.8-2,1.5c-0.5,0.6-0.8,1.4-0.8,2.3h-3.2c0.1-1.4,0.5-2.7,1.3-3.7c0.8-1.1,1.9-1.9,3.2-2.5
				c1.3-0.6,2.7-0.9,4.3-0.9c1.7,0,3.1,0.3,4.3,1c1.2,0.7,2.1,1.6,2.8,2.7c0.6,1.1,1,2.3,1,3.6c0,1.5-0.4,2.8-1.2,3.9
				c-0.8,1.1-1.9,1.8-3.2,2.2v0.2c1.7,0.3,3,1,4,2.2c1,1.2,1.4,2.6,1.4,4.3c0,1.5-0.4,2.8-1.2,4c-0.8,1.2-1.9,2.1-3.3,2.8
				C74.3,360.6,72.8,360.9,71,360.9z"/>
		</g>
	</g>
</g>
<g>
	<g>
		<g>
			<path d="M61,219.1v-2.7l11.9-18.8h2v4.2h-1.3l-9,14.2v0.2h16v2.9H61z M73.8,224.6v-6.4V217v-19.4h3.1v27.1H73.8z"/>
		</g>
	</g>
</g>
<g>
	<g>
		<g>
			<path d="M71.4,87c-1.6,0-2.9-0.3-4.2-0.9c-1.2-0.6-2.2-1.5-3-2.5c-0.7-1.1-1.2-2.3-1.2-3.7h3.2c0.1,1.2,0.7,2.2,1.7,3
				c1,0.8,2.2,1.2,3.6,1.2c1.1,0,2.1-0.3,3-0.8c0.9-0.5,1.6-1.2,2-2.1s0.7-1.9,0.7-3.1c0-1.2-0.3-2.2-0.8-3.2
				c-0.5-0.9-1.2-1.7-2.1-2.2c-0.9-0.5-1.9-0.8-3.1-0.8c-0.8,0-1.7,0.1-2.5,0.4s-1.6,0.6-2.2,1l-3.1-0.4L65,59.6h14.1v2.9H67.8l-1,8
				H67c0.6-0.4,1.3-0.8,2.1-1.1c0.8-0.3,1.7-0.4,2.6-0.4c1.7,0,3.1,0.4,4.4,1.2c1.3,0.8,2.3,1.9,3.1,3.2s1.1,2.9,1.1,4.7
				c0,1.7-0.4,3.3-1.2,4.6c-0.8,1.4-1.8,2.4-3.2,3.2C74.6,86.6,73.1,87,71.4,87z"/>
		</g>
	</g>
</g>
<g>
	<g>
		<g>
			<path d="M612.6,841.7V839l11.9-18.8h2v4.2h-1.3l-9,14.2v0.2h16v2.9H612.6z M625.3,847.2v-6.4v-1.3v-19.4h3.1v27.1H625.3z"/>
			<path d="M645.9,847.6c-2,0-3.7-0.5-5.1-1.6c-1.4-1.1-2.5-2.7-3.2-4.7c-0.7-2.1-1.1-4.6-1.1-7.5c0-2.9,0.4-5.4,1.1-7.5
				c0.7-2.1,1.8-3.7,3.2-4.8c1.4-1.1,3.1-1.6,5.1-1.6s3.7,0.5,5.1,1.6c1.4,1.1,2.5,2.7,3.2,4.8c0.7,2.1,1.1,4.6,1.1,7.5
				c0,2.9-0.4,5.5-1.1,7.5c-0.7,2.1-1.8,3.7-3.2,4.7S647.9,847.6,645.9,847.6z M645.9,844.7c2,0,3.5-1,4.6-2.9
				c1.1-1.9,1.6-4.6,1.6-8.1c0-2.3-0.2-4.3-0.7-6c-0.5-1.6-1.2-2.9-2.1-3.8c-0.9-0.9-2-1.3-3.3-1.3c-2,0-3.5,1-4.6,2.9
				c-1.1,1.9-1.7,4.6-1.7,8.2c0,2.3,0.2,4.3,0.7,6c0.5,1.6,1.2,2.9,2.1,3.7S644.6,844.7,645.9,844.7z"/>
		</g>
	</g>
</g>
<g>
	<g>
		<g>
			<path d="M880,845.7c-1.1,0-2.2-0.2-3.3-0.6c-1.1-0.4-2.1-1.1-3-2.1c-0.9-1-1.7-2.3-2.2-3.9c-0.6-1.7-0.8-3.7-0.8-6.2
				c0-2.4,0.2-4.5,0.7-6.4s1.1-3.4,2-4.7c0.9-1.3,1.9-2.2,3.1-2.9c1.2-0.7,2.6-1,4.1-1c1.5,0,2.9,0.3,4,0.9s2.2,1.4,2.9,2.5
				c0.7,1.1,1.2,2.3,1.5,3.7h-3.2c-0.3-1.2-0.9-2.2-1.7-3s-2-1.2-3.4-1.2c-2.1,0-3.7,0.9-4.9,2.7c-1.2,1.8-1.8,4.4-1.8,7.7h0.2
				c0.5-0.7,1.1-1.4,1.8-1.9c0.7-0.5,1.4-0.9,2.3-1.2s1.7-0.4,2.6-0.4c1.6,0,3,0.4,4.3,1.2c1.3,0.8,2.3,1.8,3.1,3.2
				c0.8,1.4,1.2,2.9,1.2,4.6c0,1.7-0.4,3.2-1.1,4.6c-0.7,1.4-1.8,2.5-3.2,3.3C883.4,845.3,881.8,845.7,880,845.7z M880,842.7
				c1.1,0,2.1-0.3,3-0.8c0.9-0.6,1.6-1.3,2.1-2.2c0.5-0.9,0.8-2,0.8-3.1c0-1.1-0.2-2.1-0.7-3.1c-0.5-0.9-1.2-1.7-2-2.2
				c-0.9-0.5-1.9-0.8-3-0.8c-0.8,0-1.6,0.2-2.3,0.5c-0.7,0.3-1.4,0.8-1.9,1.4c-0.5,0.6-1,1.2-1.3,2s-0.5,1.5-0.5,2.3
				c0,1.1,0.3,2.1,0.8,3s1.2,1.7,2.1,2.3C877.8,842.5,878.9,842.7,880,842.7z"/>
			<path d="M903,845.7c-2,0-3.7-0.5-5.1-1.6c-1.4-1.1-2.5-2.7-3.2-4.7c-0.7-2.1-1.1-4.6-1.1-7.5c0-2.9,0.4-5.4,1.1-7.5
				c0.7-2.1,1.8-3.7,3.2-4.8s3.1-1.6,5.1-1.6c2,0,3.7,0.5,5.1,1.6c1.4,1.1,2.5,2.7,3.2,4.8c0.7,2.1,1.1,4.6,1.1,7.5
				c0,2.9-0.4,5.5-1.1,7.5c-0.7,2.1-1.8,3.7-3.2,4.7S905,845.7,903,845.7z M903,842.7c2,0,3.5-1,4.6-2.9c1.1-1.9,1.6-4.6,1.6-8.1
				c0-2.3-0.2-4.3-0.7-6s-1.2-2.9-2.1-3.8c-0.9-0.9-2-1.3-3.3-1.3c-2,0-3.5,1-4.6,2.9s-1.7,4.6-1.7,8.2c0,2.3,0.2,4.3,0.7,6
				c0.5,1.6,1.2,2.9,2.1,3.7C900.6,842.3,901.7,842.7,903,842.7z"/>
		</g>
	</g>
</g>
<g>
	<g>
		<g>
			<path d="M1136.2,845.2c-1.8,0-3.4-0.3-4.8-1c-1.4-0.6-2.5-1.5-3.2-2.7c-0.8-1.1-1.2-2.4-1.1-3.9c0-1.1,0.2-2.2,0.7-3.2
				s1.1-1.8,1.9-2.4s1.7-1.1,2.7-1.2v-0.2c-1.3-0.3-2.3-1.1-3.1-2.2s-1.1-2.4-1.1-3.8c0-1.4,0.3-2.6,1-3.7c0.7-1.1,1.7-1.9,2.9-2.6
				c1.2-0.6,2.6-0.9,4.2-0.9c1.6,0,3,0.3,4.2,0.9c1.2,0.6,2.2,1.5,2.9,2.6c0.7,1.1,1.1,2.3,1.1,3.7c0,1.4-0.4,2.7-1.2,3.8
				s-1.8,1.9-3.1,2.2v0.2c1,0.2,1.9,0.6,2.6,1.2c0.8,0.7,1.4,1.5,1.9,2.4c0.5,1,0.7,2,0.7,3.2c0,1.5-0.4,2.8-1.2,3.9
				c-0.8,1.1-1.9,2-3.2,2.7S1138,845.2,1136.2,845.2z M1136.2,842.3c1.2,0,2.3-0.2,3.2-0.6c0.9-0.4,1.6-1,2.1-1.7
				c0.5-0.7,0.7-1.6,0.7-2.5c0-1-0.3-1.9-0.8-2.7s-1.2-1.4-2.1-1.8c-0.9-0.4-1.9-0.7-3.1-0.7c-1.2,0-2.2,0.2-3.1,0.7
				s-1.6,1.1-2.1,1.8s-0.8,1.7-0.8,2.7c0,1,0.2,1.8,0.7,2.5c0.5,0.7,1.2,1.3,2.1,1.7S1135,842.3,1136.2,842.3z M1136.2,829.5
				c1,0,1.8-0.2,2.6-0.6c0.8-0.4,1.3-0.9,1.8-1.6c0.4-0.7,0.7-1.5,0.7-2.4c0-0.9-0.2-1.7-0.6-2.4s-1-1.2-1.8-1.6
				c-0.8-0.4-1.6-0.6-2.6-0.6c-1,0-1.9,0.2-2.7,0.6c-0.8,0.4-1.3,0.9-1.8,1.6s-0.6,1.5-0.6,2.4c0,0.9,0.2,1.7,0.6,2.4
				c0.4,0.7,1,1.2,1.8,1.6C1134.4,829.3,1135.2,829.5,1136.2,829.5z"/>
			<path d="M1159.3,845.2c-2,0-3.7-0.5-5.1-1.6c-1.4-1.1-2.5-2.7-3.2-4.7c-0.7-2.1-1.1-4.6-1.1-7.5c0-2.9,0.4-5.4,1.1-7.5
				c0.7-2.1,1.8-3.7,3.2-4.8s3.1-1.6,5.1-1.6c2,0,3.7,0.5,5.1,1.6c1.4,1.1,2.5,2.7,3.2,4.8c0.7,2.1,1.1,4.6,1.1,7.5
				c0,2.9-0.4,5.5-1.1,7.5c-0.7,2.1-1.8,3.7-3.2,4.7S1161.3,845.2,1159.3,845.2z M1159.3,842.3c2,0,3.5-1,4.6-2.9
				c1.1-1.9,1.6-4.6,1.6-8.1c0-2.3-0.2-4.3-0.7-6s-1.2-2.9-2.1-3.8c-0.9-0.9-2-1.3-3.3-1.3c-2,0-3.5,1-4.6,2.9s-1.7,4.6-1.7,8.2
				c0,2.3,0.2,4.3,0.7,6c0.5,1.6,1.2,2.9,2.1,3.7C1156.9,841.9,1158,842.3,1159.3,842.3z"/>
		</g>
	</g>
</g>
<g>
	<g>
		<g>
			<path d="M1384.4,817.9v27.1h-3.3v-23.6h-0.2l-6.6,4.4v-3.3l6.8-4.5H1384.4z"/>
			<path d="M1401,845.3c-2,0-3.7-0.5-5.1-1.6s-2.5-2.7-3.2-4.7c-0.7-2.1-1.1-4.6-1.1-7.5c0-2.9,0.4-5.4,1.1-7.5
				c0.7-2.1,1.8-3.7,3.2-4.8s3.1-1.6,5.1-1.6c2,0,3.7,0.5,5.1,1.6c1.4,1.1,2.5,2.7,3.2,4.8c0.7,2.1,1.1,4.6,1.1,7.5
				c0,2.9-0.4,5.5-1.1,7.5c-0.7,2.1-1.8,3.7-3.2,4.7C1404.7,844.8,1403,845.3,1401,845.3z M1401,842.4c2,0,3.5-1,4.6-2.9
				c1.1-1.9,1.6-4.6,1.6-8.1c0-2.3-0.2-4.3-0.7-6c-0.5-1.6-1.2-2.9-2.1-3.8c-0.9-0.9-2-1.3-3.3-1.3c-2,0-3.5,1-4.6,2.9
				s-1.7,4.6-1.7,8.2c0,2.3,0.2,4.3,0.7,6c0.5,1.6,1.2,2.9,2.1,3.7C1398.6,842,1399.7,842.4,1401,842.4z"/>
			<path d="M1424.3,845.3c-2,0-3.7-0.5-5.1-1.6s-2.5-2.7-3.2-4.7c-0.7-2.1-1.1-4.6-1.1-7.5c0-2.9,0.4-5.4,1.1-7.5
				c0.7-2.1,1.8-3.7,3.2-4.8c1.4-1.1,3.1-1.6,5.1-1.6c2,0,3.7,0.5,5.1,1.6s2.5,2.7,3.2,4.8c0.7,2.1,1.1,4.6,1.1,7.5
				c0,2.9-0.4,5.5-1.1,7.5c-0.7,2.1-1.8,3.7-3.2,4.7C1428,844.8,1426.3,845.3,1424.3,845.3z M1424.3,842.4c2,0,3.5-1,4.6-2.9
				c1.1-1.9,1.6-4.6,1.6-8.1c0-2.3-0.2-4.3-0.7-6s-1.2-2.9-2.1-3.8c-0.9-0.9-2-1.3-3.3-1.3c-2,0-3.5,1-4.6,2.9
				c-1.1,1.9-1.7,4.6-1.7,8.2c0,2.3,0.2,4.3,0.7,6s1.2,2.9,2.1,3.7S1423,842.4,1424.3,842.4z"/>
		</g>
	</g>
</g>
</svg>
