<?xml version="1.0" encoding="utf-8"?>
<!-- Generator: $$$/GeneralStr/196=Adobe Illustrator 27.6.0, SVG Export Plug-In . SVG Version: 6.00 Build 0)  -->
<svg version="1.1" id="Calque_1" xmlns="http://www.w3.org/2000/svg" xmlns:xlink="http://www.w3.org/1999/xlink" x="0px" y="0px"
	 viewBox="0 0 1514.1 899.7" style="enable-background:new 0 0 1514.1 899.7;" xml:space="preserve">
<style type="text/css">
	.st0{fill:#EC753A;}
	.st1{fill:#EE8C53;}
	.st2{fill:#EEB363;}
	.st3{fill:#ECC974;}
	.st4{fill:#71C07D;}
	.st5{fill:none;}
	.st6{fill:none;stroke:#FFFFFF;stroke-miterlimit:10;}
</style>
<rect x="-6351.8" y="1348.1" width="10012.3" height="3163.9"/>
<text transform="matrix(1 0 0 1 -6388.2832 10825.6221)" style="font-family:'MyriadPro-Regular'; font-size:12px;">Lorem ipsum</text>
<path class="st0" d="M788.7,78.5l-34.9,76.3l-3,6.5l-140.4,71.8l-40.2,20.5l-113,57.8l-150,76.7l-7.5,1.6l-133.2,28.8l-31.3-24.8
	V97.6c0-5,5.2-19.1,25.7-19.1H788.7z"/>
<path class="st1" d="M135.3,491.8V393c72.1-27,602.4-279.2,653.5-314.5c40.6,0,272.9-0.1,272.9-0.1L990,183.5L302,475.7L135.3,491.8
	z"/>
<path class="st2" d="M1409.1,83.9l-123.6,70.9l-136.7,78.3l-136.7,78.3l-10.3,5.9l-47.3,27.1l-146.4,45.3l-237.8,73.6l-15.2,4.7
	l-253,78.3l-128.4,39.8l-38.4-19.8v-73.9c9.7-4.3,28.8-12.8,55-24.4c42.9-19,104.9-46.6,176.4-78.3c54.6-24.3,114.8-51,176.2-78.3
	c9.1-4.1,18.3-8.1,27.5-12.2c49.9-22.2,100.2-44.6,148.5-66.1c63.4-28.3,123.6-55.2,175.4-78.3c42.5-19,79.3-35.6,107.6-48.4
	c35.1-15.9,57-26,60.3-27.9h324.8c3.1,0,6,0.3,8.9,0.8C1400.6,80.1,1405,81.7,1409.1,83.9z"/>
<path class="st3" d="M1434.6,99.6v129.6h0v0l-4.3,3.1l-109.1,78.3l-109,78.3l-54.5,39.2l-143.3,39.2l-12.5,3.4l-274.2,74.9
	l-157.3,43L441,624.1l-223.8,61.2l-81.9-30.9h0v-88.7c14-3.4,36.5-10.3,65.9-19.9c54.5-17.9,132.6-45.4,223.1-78.4
	c45.9-16.7,95.1-34.9,146-53.9c21.5-8,43.3-16.2,65.3-24.5c67.4-25.4,136.9-51.9,205.2-78.3c54.9-21.3,109.2-42.5,161-63
	c13-5.1,25.8-10.2,38.4-15.3c70.6-28.2,135.8-54.8,191.4-78.3c77.7-32.9,136.5-59.5,164.2-75.5c5.4,0,15.5,0.2,20.9,0.4
	C1419.3,79,1434.6,81.3,1434.6,99.6z"/>
<path class="st4" d="M1434.6,229.2L1434.6,229.2c0,78.2,0,233.5,0,233.5l-0.1,0c0,0,0,0,0,0l-12.2,4.6l-210.1,78.4l-210,78.3
	l-0.3,0.1l-155.9,58.2l-148.1,20.1l-127.5,17.3l-407.3,59l0,0c-1.4-0.6-5.5,0-7,0c-10.4,0-20.7-6.4-20.7-22.5l0-101.9
	c26-5.5,66.4-16,117.3-30.2c71.5-20,163.6-47.3,264.8-78.3c17.4-5.3,35-10.8,52.9-16.3c63.7-19.7,130.1-40.7,196.5-62
	c79.7-25.5,159.5-51.7,234.9-76.9c1.4-0.5,2.8-1,4.3-1.4c82.9-27.8,160.5-54.5,226.8-78.3c93.5-33.6,164.5-61.5,196.1-78.3
	C1431,231.3,1432.8,230.2,1434.6,229.2z"/>
<path class="st5" d="M1434.6,731.7v22c0,13.8-11.2,25-25,25h-22C1413.4,778.4,1434.2,757.5,1434.6,731.7z"/>
<path class="st3" d="M158.9,778.7c-1.4-0.6-7.9,0-12.4-2.3c47.5-11.2,170.3-41.1,309-74c36.2-8.6,74.2-17.6,113.4-27
	c69.1-16.5,141.9-33.9,214.9-51.4c73.5-17.6,147.2-35.4,217.3-52.4c36.8-8.9,72.5-17.6,106.8-26c141.4-34.5,257.3-63.5,310.6-78.4
	c6.2-1.7,11.5-3.2,15.9-4.6c0,0,0,0,0,0c0.1,0,0.1,0,0.1,0.1v293.4c0,23.3-20.7,22.4-25,22.4H180.1L158.9,778.7z"/>
<line class="st6" x1="570.3" y1="778.7" x2="570.3" y2="77.7"/>
<line class="st6" x1="1001.8" y1="778.7" x2="1001.8" y2="77.7"/>
<g>
	<line class="st6" x1="1433.9" y1="154" x2="135.3" y2="154"/>
	<line class="st6" x1="1433.9" y1="232.3" x2="135.3" y2="232.3"/>
	<line class="st6" x1="1433.9" y1="310.7" x2="135.3" y2="310.7"/>
	<line class="st6" x1="1433.9" y1="389" x2="135.3" y2="389"/>
	<line class="st6" x1="1433.9" y1="467.4" x2="135.3" y2="467.4"/>
	<line class="st6" x1="1433.9" y1="545.7" x2="135.3" y2="545.7"/>
	<line class="st6" x1="1433.9" y1="624.1" x2="135.3" y2="624.1"/>
	<line class="st6" x1="1433.9" y1="702.4" x2="135.3" y2="702.4"/>
</g>
<path class="st6" d="M1413.8,778.7H156c-11.4,0-20.7-9.3-20.7-20.7l0-658.8c0-11.4,9.3-20.7,20.7-20.7h1257.8
	c11.4,0,20.7,9.3,20.7,20.7V758C1434.6,769.5,1425.3,778.7,1413.8,778.7z"/>
<g>
	<g>
		<path d="M147.4,815.6v26.7h-3.2V819H144l-6.5,4.3v-3.3l6.7-4.4H147.4z"/>
		<path d="M163.4,842.7c-1.5,0-2.9-0.3-4.1-0.9c-1.2-0.6-2.2-1.4-2.9-2.5c-0.7-1.1-1.1-2.3-1.2-3.6h3.1c0.1,1.2,0.7,2.2,1.6,3
			c1,0.8,2.1,1.2,3.5,1.2c1.1,0,2.1-0.3,2.9-0.8c0.9-0.5,1.5-1.2,2-2.1c0.5-0.9,0.7-1.9,0.7-3.1c0-1.2-0.3-2.2-0.8-3.1
			c-0.5-0.9-1.2-1.6-2.1-2.2c-0.9-0.5-1.9-0.8-3-0.8c-0.8,0-1.7,0.1-2.5,0.4c-0.9,0.3-1.6,0.6-2.1,1l-3-0.4l1.6-13.1H171v2.9h-11.2
			l-0.9,7.9h0.2c0.5-0.4,1.2-0.8,2.1-1.1s1.7-0.4,2.6-0.4c1.6,0,3.1,0.4,4.4,1.2c1.3,0.8,2.3,1.8,3,3.2c0.7,1.3,1.1,2.9,1.1,4.6
			c0,1.7-0.4,3.2-1.1,4.6c-0.8,1.3-1.8,2.4-3.1,3.2C166.6,842.3,165.1,842.7,163.4,842.7z"/>
		<path d="M186.1,842.7c-2,0-3.6-0.5-5-1.6c-1.4-1.1-2.4-2.6-3.2-4.7c-0.7-2-1.1-4.5-1.1-7.4c0-2.9,0.4-5.3,1.1-7.4
			c0.7-2,1.8-3.6,3.2-4.7c1.4-1.1,3.1-1.6,5-1.6s3.6,0.5,5,1.6s2.4,2.6,3.2,4.7c0.7,2,1.1,4.5,1.1,7.4c0,2.9-0.4,5.4-1.1,7.4
			c-0.7,2-1.8,3.6-3.2,4.7C189.7,842.2,188.1,842.7,186.1,842.7z M186.1,839.8c1.9,0,3.5-0.9,4.5-2.8c1.1-1.9,1.6-4.6,1.6-8
			c0-2.3-0.2-4.3-0.7-5.9c-0.5-1.6-1.2-2.9-2.1-3.7c-0.9-0.9-2-1.3-3.3-1.3c-1.9,0-3.4,0.9-4.5,2.8s-1.6,4.6-1.6,8
			c0,2.3,0.2,4.3,0.7,5.9c0.5,1.6,1.2,2.8,2.1,3.7C183.7,839.4,184.8,839.8,186.1,839.8z"/>
	</g>
</g>
<g>
	<g>
		<path d="M47.3,295.5v26.7h-3.2v-23.3H44l-6.5,4.3V300l6.7-4.4H47.3z"/>
		<path d="M63.7,322.6c-2,0-3.6-0.5-5-1.6c-1.4-1.1-2.4-2.6-3.2-4.7c-0.7-2-1.1-4.5-1.1-7.4c0-2.9,0.4-5.3,1.1-7.4
			c0.7-2,1.8-3.6,3.2-4.7c1.4-1.1,3.1-1.6,5-1.6c1.9,0,3.6,0.5,5,1.6s2.4,2.6,3.2,4.7c0.7,2,1.1,4.5,1.1,7.4c0,2.9-0.4,5.4-1.1,7.4
			c-0.7,2-1.8,3.6-3.2,4.7C67.4,322,65.7,322.6,63.7,322.6z M63.7,319.7c1.9,0,3.5-0.9,4.5-2.8c1.1-1.9,1.6-4.6,1.6-8
			c0-2.3-0.2-4.3-0.7-5.9c-0.5-1.6-1.2-2.9-2.1-3.7s-2-1.3-3.3-1.3c-1.9,0-3.4,0.9-4.5,2.8c-1.1,1.9-1.6,4.6-1.6,8
			c0,2.3,0.2,4.3,0.7,5.9c0.5,1.6,1.2,2.8,2.1,3.7C61.3,319.3,62.4,319.7,63.7,319.7z"/>
		<path d="M86.7,322.6c-2,0-3.6-0.5-5-1.6c-1.4-1.1-2.4-2.6-3.2-4.7c-0.7-2-1.1-4.5-1.1-7.4c0-2.9,0.4-5.3,1.1-7.4
			c0.7-2,1.8-3.6,3.2-4.7c1.4-1.1,3.1-1.6,5-1.6c1.9,0,3.6,0.5,5,1.6c1.4,1.1,2.4,2.6,3.2,4.7c0.7,2,1.1,4.5,1.1,7.4
			c0,2.9-0.4,5.4-1.1,7.4c-0.7,2-1.8,3.6-3.2,4.7C90.3,322,88.6,322.6,86.7,322.6z M86.7,319.7c1.9,0,3.5-0.9,4.5-2.8
			c1.1-1.9,1.6-4.6,1.6-8c0-2.3-0.2-4.3-0.7-5.9c-0.5-1.6-1.2-2.9-2.1-3.7c-0.9-0.9-2-1.3-3.3-1.3c-1.9,0-3.4,0.9-4.5,2.8
			c-1.1,1.9-1.6,4.6-1.6,8c0,2.3,0.2,4.3,0.7,5.9c0.5,1.6,1.2,2.8,2.1,3.7C84.3,319.3,85.4,319.7,86.7,319.7z"/>
	</g>
</g>
<g>
	<g>
		<path d="M53.2,216.6v26.7H50v-23.3h-0.2l-6.5,4.3V221l6.7-4.4H53.2z"/>
		<path d="M70.3,216.6v26.7h-3.2v-23.3h-0.2l-6.5,4.3V221l6.7-4.4H70.3z"/>
		<path d="M86.7,243.6c-2,0-3.6-0.5-5-1.6c-1.4-1.1-2.4-2.6-3.2-4.7c-0.7-2-1.1-4.5-1.1-7.4c0-2.9,0.4-5.3,1.1-7.4
			c0.7-2,1.8-3.6,3.2-4.7c1.4-1.1,3.1-1.6,5-1.6c1.9,0,3.6,0.5,5,1.6c1.4,1.1,2.4,2.6,3.2,4.7c0.7,2,1.1,4.5,1.1,7.4
			c0,2.9-0.4,5.4-1.1,7.4c-0.7,2-1.8,3.6-3.2,4.7C90.3,243.1,88.6,243.6,86.7,243.6z M86.7,240.7c1.9,0,3.5-0.9,4.5-2.8
			c1.1-1.9,1.6-4.6,1.6-8c0-2.3-0.2-4.3-0.7-5.9c-0.5-1.6-1.2-2.9-2.1-3.7c-0.9-0.9-2-1.3-3.3-1.3c-1.9,0-3.4,0.9-4.5,2.8
			c-1.1,1.9-1.6,4.6-1.6,8c0,2.3,0.2,4.3,0.7,5.9c0.5,1.6,1.2,2.8,2.1,3.7C84.3,240.3,85.4,240.7,86.7,240.7z"/>
	</g>
</g>
<g>
	<g>
		<path d="M553.3,815.6v26.7h-3.2V819h-0.2l-6.5,4.3v-3.3l6.7-4.4H553.3z"/>
		<path d="M561.8,842.3l11.9-23.6v-0.2H560v-2.9h17.1v3l-11.9,23.7H561.8z"/>
		<path d="M590.6,842.7c-2,0-3.6-0.5-5-1.6c-1.4-1.1-2.4-2.6-3.2-4.7c-0.7-2-1.1-4.5-1.1-7.4c0-2.9,0.4-5.3,1.1-7.4
			c0.7-2,1.8-3.6,3.2-4.7s3.1-1.6,5-1.6c1.9,0,3.6,0.5,5,1.6c1.4,1.1,2.4,2.6,3.2,4.7c0.7,2,1.1,4.5,1.1,7.4c0,2.9-0.4,5.4-1.1,7.4
			c-0.7,2-1.8,3.6-3.2,4.7C594.2,842.2,592.6,842.7,590.6,842.7z M590.6,839.8c1.9,0,3.5-0.9,4.5-2.8c1.1-1.9,1.6-4.6,1.6-8
			c0-2.3-0.2-4.3-0.7-5.9c-0.5-1.6-1.2-2.9-2.1-3.7c-0.9-0.9-2-1.3-3.3-1.3c-1.9,0-3.4,0.9-4.5,2.8s-1.6,4.6-1.6,8
			c0,2.3,0.2,4.3,0.7,5.9c0.5,1.6,1.2,2.8,2.1,3.7C588.2,839.4,589.3,839.8,590.6,839.8z"/>
	</g>
</g>
<g>
	<g>
		<path d="M983.9,815.6v26.7h-3.2V819h-0.2l-6.5,4.3v-3.3l6.7-4.4H983.9z"/>
		<path d="M1000,815.3c1.1,0,2.2,0.2,3.3,0.6c1.1,0.4,2.1,1.1,3,2c0.9,0.9,1.6,2.2,2.2,3.9c0.5,1.6,0.8,3.7,0.8,6.1
			c0,2.4-0.2,4.5-0.7,6.3c-0.4,1.8-1.1,3.4-1.9,4.6s-1.9,2.2-3,2.9c-1.2,0.7-2.5,1-4,1c-1.5,0-2.8-0.3-4-0.9
			c-1.2-0.6-2.1-1.4-2.9-2.5c-0.7-1.1-1.2-2.3-1.4-3.7h3.2c0.3,1.2,0.9,2.2,1.7,3c0.9,0.8,2,1.2,3.4,1.2c2.1,0,3.7-0.9,4.9-2.7
			c1.2-1.8,1.8-4.3,1.8-7.6h-0.2c-0.5,0.7-1.1,1.4-1.7,1.9s-1.4,0.9-2.2,1.2s-1.7,0.4-2.6,0.4c-1.5,0-2.9-0.4-4.2-1.1
			s-2.3-1.8-3-3.1s-1.1-2.9-1.1-4.6c0-1.6,0.4-3.1,1.1-4.5c0.7-1.4,1.8-2.4,3.1-3.3S998.2,815.2,1000,815.3z M1000,818.1
			c-1.1,0-2.1,0.3-3,0.8s-1.6,1.3-2.1,2.2s-0.8,1.9-0.8,3c0,1.1,0.2,2.1,0.7,3c0.5,0.9,1.2,1.6,2,2.2s1.8,0.8,2.9,0.8
			c0.8,0,1.6-0.2,2.3-0.5c0.7-0.3,1.3-0.8,1.9-1.3c0.5-0.6,1-1.2,1.3-1.9s0.5-1.5,0.5-2.3c0-1-0.2-2-0.8-2.9
			c-0.5-0.9-1.2-1.7-2.1-2.2S1001.2,818.1,1000,818.1z"/>
		<path d="M1023.1,842.7c-2,0-3.6-0.5-5-1.6c-1.4-1.1-2.4-2.6-3.2-4.7c-0.7-2-1.1-4.5-1.1-7.4c0-2.9,0.4-5.3,1.1-7.4
			c0.7-2,1.8-3.6,3.2-4.7c1.4-1.1,3.1-1.6,5-1.6c1.9,0,3.6,0.5,5,1.6c1.4,1.1,2.4,2.6,3.2,4.7c0.7,2,1.1,4.5,1.1,7.4
			c0,2.9-0.4,5.4-1.1,7.4c-0.7,2-1.8,3.6-3.2,4.7C1026.8,842.2,1025.1,842.7,1023.1,842.7z M1023.1,839.8c1.9,0,3.5-0.9,4.5-2.8
			c1.1-1.9,1.6-4.6,1.6-8c0-2.3-0.2-4.3-0.7-5.9c-0.5-1.6-1.2-2.9-2.1-3.7c-0.9-0.9-2-1.3-3.3-1.3c-1.9,0-3.4,0.9-4.5,2.8
			c-1.1,1.9-1.6,4.6-1.6,8c0,2.3,0.2,4.3,0.7,5.9c0.5,1.6,1.2,2.8,2.1,3.7C1020.7,839.4,1021.8,839.8,1023.1,839.8z"/>
	</g>
</g>
<g>
	<g>
		<path d="M1402.1,842.3V840l8.8-9.6c1-1.1,1.9-2.1,2.6-3c0.7-0.8,1.2-1.6,1.5-2.4s0.5-1.5,0.5-2.3c0-0.9-0.2-1.8-0.7-2.4
			c-0.4-0.7-1.1-1.2-1.8-1.6s-1.6-0.6-2.6-0.6c-1,0-1.9,0.2-2.7,0.6c-0.8,0.4-1.3,1-1.8,1.8c-0.4,0.8-0.6,1.6-0.6,2.7h-3.1
			c0-1.6,0.4-2.9,1.1-4.1s1.7-2.1,3-2.8c1.2-0.7,2.6-1,4.2-1c1.6,0,2.9,0.3,4.2,1c1.2,0.7,2.2,1.6,2.8,2.7c0.7,1.1,1,2.4,1,3.7
			c0,1-0.2,1.9-0.5,2.9c-0.4,0.9-1,2-1.8,3.1c-0.9,1.1-2.1,2.5-3.6,4.2l-6,6.4v0.2h12.4v2.9H1402.1z"/>
		<path d="M1433.7,815.6v26.7h-3.2V819h-0.2l-6.5,4.3v-3.3l6.7-4.4H1433.7z"/>
		<path d="M1450.1,842.7c-2,0-3.6-0.5-5-1.6c-1.4-1.1-2.4-2.6-3.2-4.7c-0.7-2-1.1-4.5-1.1-7.4c0-2.9,0.4-5.3,1.1-7.4
			c0.7-2,1.8-3.6,3.2-4.7c1.4-1.1,3.1-1.6,5-1.6s3.6,0.5,5,1.6s2.4,2.6,3.2,4.7c0.7,2,1.1,4.5,1.1,7.4c0,2.9-0.4,5.4-1.1,7.4
			c-0.7,2-1.8,3.6-3.2,4.7C1453.7,842.2,1452,842.7,1450.1,842.7z M1450.1,839.8c1.9,0,3.5-0.9,4.5-2.8c1.1-1.9,1.6-4.6,1.6-8
			c0-2.3-0.2-4.3-0.7-5.9c-0.5-1.6-1.2-2.9-2.1-3.7s-2-1.3-3.3-1.3c-1.9,0-3.4,0.9-4.5,2.8c-1.1,1.9-1.6,4.6-1.6,8
			c0,2.3,0.2,4.3,0.7,5.9c0.5,1.6,1.2,2.8,2.1,3.7C1447.7,839.4,1448.8,839.8,1450.1,839.8z"/>
	</g>
</g>
<g>
	<g>
		<path d="M147.4,815.6v26.7h-3.2V819H144l-6.5,4.3v-3.3l6.7-4.4H147.4z"/>
		<path d="M163.4,842.7c-1.5,0-2.9-0.3-4.1-0.9c-1.2-0.6-2.2-1.4-2.9-2.5c-0.7-1.1-1.1-2.3-1.2-3.6h3.1c0.1,1.2,0.7,2.2,1.6,3
			c1,0.8,2.1,1.2,3.5,1.2c1.1,0,2.1-0.3,2.9-0.8c0.9-0.5,1.5-1.2,2-2.1c0.5-0.9,0.7-1.9,0.7-3.1c0-1.2-0.3-2.2-0.8-3.1
			c-0.5-0.9-1.2-1.6-2.1-2.2c-0.9-0.5-1.9-0.8-3-0.8c-0.8,0-1.7,0.1-2.5,0.4c-0.9,0.3-1.6,0.6-2.1,1l-3-0.4l1.6-13.1H171v2.9h-11.2
			l-0.9,7.9h0.2c0.5-0.4,1.2-0.8,2.1-1.1s1.7-0.4,2.6-0.4c1.6,0,3.1,0.4,4.4,1.2c1.3,0.8,2.3,1.8,3,3.2c0.7,1.3,1.1,2.9,1.1,4.6
			c0,1.7-0.4,3.2-1.1,4.6c-0.8,1.3-1.8,2.4-3.1,3.2C166.6,842.3,165.1,842.7,163.4,842.7z"/>
		<path d="M186.1,842.7c-2,0-3.6-0.5-5-1.6c-1.4-1.1-2.4-2.6-3.2-4.7c-0.7-2-1.1-4.5-1.1-7.4c0-2.9,0.4-5.3,1.1-7.4
			c0.7-2,1.8-3.6,3.2-4.7c1.4-1.1,3.1-1.6,5-1.6s3.6,0.5,5,1.6s2.4,2.6,3.2,4.7c0.7,2,1.1,4.5,1.1,7.4c0,2.9-0.4,5.4-1.1,7.4
			c-0.7,2-1.8,3.6-3.2,4.7C189.7,842.2,188.1,842.7,186.1,842.7z M186.1,839.8c1.9,0,3.5-0.9,4.5-2.8c1.1-1.9,1.6-4.6,1.6-8
			c0-2.3-0.2-4.3-0.7-5.9c-0.5-1.6-1.2-2.9-2.1-3.7c-0.9-0.9-2-1.3-3.3-1.3c-1.9,0-3.4,0.9-4.5,2.8s-1.6,4.6-1.6,8
			c0,2.3,0.2,4.3,0.7,5.9c0.5,1.6,1.2,2.8,2.1,3.7C183.7,839.4,184.8,839.8,186.1,839.8z"/>
	</g>
</g>
<g>
	<g>
		<path d="M53.8,790.6v-2.7l11.7-18.6h1.9v4.1h-1.3l-8.9,14v0.2H73v2.9H53.8z M66.3,796v-6.3v-1.2v-19.2h3.1V796H66.3z"/>
		<path d="M86.7,796.4c-2,0-3.6-0.5-5-1.6c-1.4-1.1-2.4-2.6-3.2-4.7c-0.7-2-1.1-4.5-1.1-7.4c0-2.9,0.4-5.3,1.1-7.4
			c0.7-2,1.8-3.6,3.2-4.7c1.4-1.1,3.1-1.6,5-1.6c1.9,0,3.6,0.5,5,1.6c1.4,1.1,2.4,2.6,3.2,4.7c0.7,2,1.1,4.5,1.1,7.4
			c0,2.9-0.4,5.4-1.1,7.4c-0.7,2-1.8,3.6-3.2,4.7C90.3,795.9,88.6,796.4,86.7,796.4z M86.7,793.5c1.9,0,3.5-0.9,4.5-2.8
			c1.1-1.9,1.6-4.6,1.6-8c0-2.3-0.2-4.3-0.7-5.9c-0.5-1.6-1.2-2.9-2.1-3.7c-0.9-0.9-2-1.3-3.3-1.3c-1.9,0-3.4,0.9-4.5,2.8
			c-1.1,1.9-1.6,4.6-1.6,8c0,2.3,0.2,4.3,0.7,5.9c0.5,1.6,1.2,2.8,2.1,3.7C84.3,793.1,85.4,793.5,86.7,793.5z"/>
	</g>
</g>
<g>
	<g>
		<path d="M64,717.4c-1.5,0-2.9-0.3-4.1-0.9s-2.2-1.4-2.9-2.5c-0.7-1.1-1.1-2.3-1.2-3.6h3.1c0.1,1.2,0.7,2.2,1.6,3
			c1,0.8,2.1,1.2,3.5,1.2c1.1,0,2.1-0.3,2.9-0.8c0.9-0.5,1.5-1.2,2-2.1c0.5-0.9,0.7-1.9,0.7-3.1c0-1.2-0.3-2.2-0.8-3.1
			c-0.5-0.9-1.2-1.6-2.1-2.2c-0.9-0.5-1.9-0.8-3-0.8c-0.8,0-1.7,0.1-2.5,0.4c-0.9,0.3-1.6,0.6-2.1,1l-3-0.4l1.6-13.1h13.9v2.9H60.4
			l-0.9,7.9h0.2c0.5-0.4,1.2-0.8,2.1-1.1c0.8-0.3,1.7-0.4,2.6-0.4c1.6,0,3.1,0.4,4.4,1.2s2.3,1.8,3,3.2c0.7,1.3,1.1,2.9,1.1,4.6
			c0,1.7-0.4,3.2-1.1,4.6c-0.8,1.3-1.8,2.4-3.1,3.2C67.2,717,65.7,717.4,64,717.4z"/>
		<path d="M86.7,717.4c-2,0-3.6-0.5-5-1.6c-1.4-1.1-2.4-2.6-3.2-4.7c-0.7-2-1.1-4.5-1.1-7.4c0-2.9,0.4-5.3,1.1-7.4
			c0.7-2,1.8-3.6,3.2-4.7c1.4-1.1,3.1-1.6,5-1.6c1.9,0,3.6,0.5,5,1.6c1.4,1.1,2.4,2.6,3.2,4.7c0.7,2,1.1,4.5,1.1,7.4
			c0,2.9-0.4,5.4-1.1,7.4c-0.7,2-1.8,3.6-3.2,4.7C90.3,716.9,88.6,717.4,86.7,717.4z M86.7,714.6c1.9,0,3.5-0.9,4.5-2.8
			c1.1-1.9,1.6-4.6,1.6-8c0-2.3-0.2-4.3-0.7-5.9c-0.5-1.6-1.2-2.9-2.1-3.7c-0.9-0.9-2-1.3-3.3-1.3c-1.9,0-3.4,0.9-4.5,2.8
			c-1.1,1.9-1.6,4.6-1.6,8c0,2.3,0.2,4.3,0.7,5.9c0.5,1.6,1.2,2.8,2.1,3.7C84.3,714.1,85.4,714.6,86.7,714.6z"/>
	</g>
</g>
<g>
	<g>
		<path d="M63.9,638.5c-1.1,0-2.2-0.2-3.3-0.6c-1.1-0.4-2.1-1.1-3-2c-0.9-1-1.6-2.2-2.2-3.9c-0.5-1.6-0.8-3.7-0.8-6.1
			c0-2.4,0.2-4.5,0.7-6.3c0.4-1.8,1.1-3.4,1.9-4.6c0.8-1.3,1.9-2.2,3.1-2.9c1.2-0.7,2.5-1,4-1c1.5,0,2.8,0.3,4,0.9
			c1.2,0.6,2.1,1.4,2.9,2.5c0.7,1.1,1.2,2.3,1.4,3.7h-3.2c-0.3-1.2-0.9-2.2-1.7-3s-2-1.2-3.4-1.2c-2.1,0-3.7,0.9-4.9,2.7
			c-1.2,1.8-1.8,4.3-1.8,7.6h0.2c0.5-0.7,1.1-1.4,1.7-1.9c0.7-0.5,1.4-0.9,2.2-1.2s1.7-0.4,2.6-0.4c1.5,0,2.9,0.4,4.2,1.1
			c1.3,0.8,2.3,1.8,3,3.1s1.1,2.9,1.1,4.6c0,1.7-0.4,3.2-1.1,4.5c-0.7,1.4-1.8,2.5-3.1,3.3C67.3,638.1,65.7,638.5,63.9,638.5z
			 M63.9,635.6c1.1,0,2.1-0.3,3-0.8s1.6-1.3,2.1-2.2c0.5-0.9,0.8-1.9,0.8-3.1c0-1.1-0.2-2.1-0.7-3c-0.5-0.9-1.2-1.6-2-2.2
			s-1.8-0.8-2.9-0.8c-0.8,0-1.6,0.2-2.3,0.5c-0.7,0.3-1.3,0.8-1.9,1.3c-0.5,0.6-1,1.2-1.3,1.9c-0.3,0.7-0.5,1.5-0.5,2.3
			c0,1.1,0.2,2.1,0.7,3c0.5,0.9,1.2,1.7,2.1,2.2C61.8,635.3,62.8,635.6,63.9,635.6z"/>
		<path d="M86.7,638.5c-2,0-3.6-0.5-5-1.6c-1.4-1.1-2.4-2.6-3.2-4.7c-0.7-2-1.1-4.5-1.1-7.4c0-2.9,0.4-5.3,1.1-7.4
			c0.7-2,1.8-3.6,3.2-4.7c1.4-1.1,3.1-1.6,5-1.6c1.9,0,3.6,0.5,5,1.6c1.4,1.1,2.4,2.6,3.2,4.7c0.7,2,1.1,4.5,1.1,7.4
			c0,2.9-0.4,5.4-1.1,7.4c-0.7,2-1.8,3.6-3.2,4.7C90.3,637.9,88.6,638.5,86.7,638.5z M86.7,635.6c1.9,0,3.5-0.9,4.5-2.8
			c1.1-1.9,1.6-4.6,1.6-8c0-2.3-0.2-4.3-0.7-5.9c-0.5-1.6-1.2-2.9-2.1-3.7c-0.9-0.9-2-1.3-3.3-1.3c-1.9,0-3.4,0.9-4.5,2.8
			c-1.1,1.9-1.6,4.6-1.6,8c0,2.3,0.2,4.3,0.7,5.9c0.5,1.6,1.2,2.8,2.1,3.7C84.3,635.2,85.4,635.6,86.7,635.6z"/>
	</g>
</g>
<g>
	<g>
		<path d="M57.8,559.1l11.9-23.6v-0.2H56v-2.9h17.1v3l-11.9,23.7H57.8z"/>
		<path d="M86.7,559.5c-2,0-3.6-0.5-5-1.6c-1.4-1.1-2.4-2.6-3.2-4.7c-0.7-2-1.1-4.5-1.1-7.4c0-2.9,0.4-5.3,1.1-7.4
			c0.7-2,1.8-3.6,3.2-4.7s3.1-1.6,5-1.6c1.9,0,3.6,0.5,5,1.6c1.4,1.1,2.4,2.6,3.2,4.7c0.7,2,1.1,4.5,1.1,7.4c0,2.9-0.4,5.4-1.1,7.4
			c-0.7,2-1.8,3.6-3.2,4.7C90.3,559,88.6,559.5,86.7,559.5z M86.7,556.6c1.9,0,3.5-0.9,4.5-2.8c1.1-1.9,1.6-4.6,1.6-8
			c0-2.3-0.2-4.3-0.7-5.9c-0.5-1.6-1.2-2.9-2.1-3.7c-0.9-0.9-2-1.3-3.3-1.3c-1.9,0-3.4,0.9-4.5,2.8s-1.6,4.6-1.6,8
			c0,2.3,0.2,4.3,0.7,5.9c0.5,1.6,1.2,2.8,2.1,3.7C84.3,556.2,85.4,556.6,86.7,556.6z"/>
	</g>
</g>
<g>
	<g>
		<path d="M63.9,480.5c-1.8,0-3.4-0.3-4.7-1c-1.4-0.6-2.4-1.5-3.2-2.6c-0.8-1.1-1.1-2.4-1.1-3.9c0-1.1,0.2-2.2,0.7-3.1
			c0.5-1,1.1-1.8,1.9-2.4s1.7-1.1,2.6-1.2v-0.2c-1.3-0.3-2.3-1-3-2.2s-1.1-2.4-1.1-3.8c0-1.4,0.3-2.6,1-3.6c0.7-1.1,1.7-1.9,2.9-2.5
			c1.2-0.6,2.6-0.9,4.2-0.9c1.5,0,2.9,0.3,4.1,0.9c1.2,0.6,2.2,1.5,2.9,2.5c0.7,1.1,1.1,2.3,1.1,3.6c0,1.4-0.4,2.7-1.2,3.8
			s-1.8,1.8-3,2.2v0.2c1,0.2,1.8,0.6,2.6,1.2s1.4,1.5,1.9,2.4c0.5,1,0.7,2,0.7,3.1c0,1.4-0.4,2.7-1.2,3.9c-0.8,1.1-1.8,2-3.2,2.6
			C67.2,480.2,65.7,480.5,63.9,480.5z M63.9,477.7c1.2,0,2.3-0.2,3.1-0.6c0.9-0.4,1.6-0.9,2-1.7s0.7-1.5,0.7-2.5
			c0-1-0.3-1.9-0.8-2.7c-0.5-0.8-1.2-1.4-2.1-1.8c-0.9-0.4-1.9-0.7-3-0.7c-1.1,0-2.2,0.2-3,0.7s-1.6,1.1-2.1,1.8
			c-0.5,0.8-0.8,1.7-0.8,2.7c0,1,0.2,1.8,0.7,2.5s1.2,1.3,2,1.7C61.6,477.5,62.7,477.7,63.9,477.7z M63.9,465c1,0,1.8-0.2,2.5-0.6
			s1.3-0.9,1.8-1.6c0.4-0.7,0.6-1.5,0.7-2.4c0-0.9-0.2-1.7-0.6-2.4c-0.4-0.7-1-1.2-1.7-1.6c-0.7-0.4-1.6-0.6-2.6-0.6
			c-1,0-1.9,0.2-2.6,0.6c-0.7,0.4-1.3,0.9-1.7,1.6c-0.4,0.7-0.6,1.5-0.6,2.4c0,0.9,0.2,1.7,0.6,2.4c0.4,0.7,1,1.2,1.8,1.6
			C62,464.8,62.9,465,63.9,465z"/>
		<path d="M86.7,480.5c-2,0-3.6-0.5-5-1.6c-1.4-1.1-2.4-2.6-3.2-4.7c-0.7-2-1.1-4.5-1.1-7.4c0-2.9,0.4-5.3,1.1-7.4
			c0.7-2,1.8-3.6,3.2-4.7c1.4-1.1,3.1-1.6,5-1.6s3.6,0.5,5,1.6s2.4,2.6,3.2,4.7c0.7,2,1.1,4.5,1.1,7.4c0,2.9-0.4,5.4-1.1,7.4
			c-0.7,2-1.8,3.6-3.2,4.7C90.3,480,88.6,480.5,86.7,480.5z M86.7,477.7c1.9,0,3.5-0.9,4.5-2.8c1.1-1.9,1.6-4.6,1.6-8
			c0-2.3-0.2-4.3-0.7-5.9c-0.5-1.6-1.2-2.9-2.1-3.7c-0.9-0.9-2-1.3-3.3-1.3c-1.9,0-3.4,0.9-4.5,2.8s-1.6,4.6-1.6,8
			c0,2.3,0.2,4.3,0.7,5.9c0.5,1.6,1.2,2.8,2.1,3.7C84.3,477.2,85.4,477.7,86.7,477.7z"/>
	</g>
</g>
<g>
	<g>
		<path d="M63.6,374.1c1.1,0,2.2,0.2,3.3,0.6c1.1,0.4,2.1,1.1,3,2c0.9,0.9,1.6,2.2,2.2,3.9c0.5,1.6,0.8,3.7,0.8,6.1
			c0,2.4-0.2,4.5-0.7,6.3c-0.4,1.8-1.1,3.4-1.9,4.6c-0.8,1.3-1.9,2.2-3,2.9c-1.2,0.7-2.5,1-4,1c-1.5,0-2.8-0.3-4-0.9
			s-2.1-1.4-2.9-2.5c-0.7-1.1-1.2-2.3-1.4-3.7H58c0.3,1.2,0.9,2.2,1.7,3c0.9,0.8,2,1.2,3.4,1.2c2.1,0,3.7-0.9,4.9-2.7
			c1.2-1.8,1.8-4.3,1.8-7.6h-0.2c-0.5,0.7-1.1,1.4-1.7,1.9c-0.7,0.5-1.4,0.9-2.2,1.2c-0.8,0.3-1.7,0.4-2.6,0.4
			c-1.5,0-2.9-0.4-4.2-1.1c-1.3-0.8-2.3-1.8-3-3.1c-0.8-1.3-1.1-2.9-1.1-4.6c0-1.6,0.4-3.1,1.1-4.5c0.7-1.4,1.8-2.4,3.1-3.3
			S61.8,374.1,63.6,374.1z M63.6,377c-1.1,0-2.1,0.3-3,0.8s-1.6,1.3-2.1,2.2c-0.5,0.9-0.8,1.9-0.8,3c0,1.1,0.2,2.1,0.7,3
			c0.5,0.9,1.2,1.6,2,2.2c0.9,0.5,1.8,0.8,2.9,0.8c0.8,0,1.6-0.2,2.3-0.5c0.7-0.3,1.3-0.8,1.9-1.3c0.5-0.6,1-1.2,1.3-1.9
			c0.3-0.7,0.5-1.5,0.5-2.3c0-1-0.2-2-0.8-2.9s-1.2-1.7-2.1-2.2S64.7,377,63.6,377z"/>
		<path d="M86.7,401.6c-2,0-3.6-0.5-5-1.6c-1.4-1.1-2.4-2.6-3.2-4.7c-0.7-2-1.1-4.5-1.1-7.4c0-2.9,0.4-5.3,1.1-7.4
			c0.7-2,1.8-3.6,3.2-4.7c1.4-1.1,3.1-1.6,5-1.6s3.6,0.5,5,1.6s2.4,2.6,3.2,4.7c0.7,2,1.1,4.5,1.1,7.4c0,2.9-0.4,5.4-1.1,7.4
			c-0.7,2-1.8,3.6-3.2,4.7C90.3,401,88.6,401.6,86.7,401.6z M86.7,398.7c1.9,0,3.5-0.9,4.5-2.8c1.1-1.9,1.6-4.6,1.6-8
			c0-2.3-0.2-4.3-0.7-5.9c-0.5-1.6-1.2-2.9-2.1-3.7c-0.9-0.9-2-1.3-3.3-1.3c-1.9,0-3.4,0.9-4.5,2.8s-1.6,4.6-1.6,8
			c0,2.3,0.2,4.3,0.7,5.9c0.5,1.6,1.2,2.8,2.1,3.7C84.3,398.3,85.4,398.7,86.7,398.7z"/>
	</g>
</g>
<g>
	<g>
		<path d="M48.1,137.6v26.7h-3.2V141h-0.2l-6.5,4.3V142l6.7-4.4H48.1z"/>
		<path d="M55.7,164.3v-2.3l8.8-9.6c1-1.1,1.9-2.1,2.6-3c0.7-0.8,1.2-1.6,1.5-2.4c0.3-0.7,0.5-1.5,0.5-2.3c0-0.9-0.2-1.8-0.7-2.4
			c-0.4-0.7-1.1-1.2-1.8-1.6c-0.8-0.4-1.6-0.6-2.6-0.6c-1,0-1.9,0.2-2.7,0.6c-0.8,0.4-1.3,1-1.8,1.8c-0.4,0.8-0.6,1.6-0.6,2.7h-3.1
			c0-1.6,0.4-2.9,1.1-4.1s1.7-2.1,3-2.8c1.2-0.7,2.6-1,4.2-1c1.6,0,3,0.3,4.2,1c1.2,0.7,2.2,1.6,2.8,2.7s1,2.4,1,3.7
			c0,1-0.2,1.9-0.5,2.9c-0.4,0.9-1,2-1.8,3.1c-0.9,1.1-2.1,2.5-3.6,4.2l-6,6.4v0.2h12.4v2.9H55.7z"/>
		<path d="M86.7,164.6c-2,0-3.6-0.5-5-1.6c-1.4-1.1-2.4-2.6-3.2-4.7c-0.7-2-1.1-4.5-1.1-7.4c0-2.9,0.4-5.3,1.1-7.4
			c0.7-2,1.8-3.6,3.2-4.7c1.4-1.1,3.1-1.6,5-1.6s3.6,0.5,5,1.6s2.4,2.6,3.2,4.7c0.7,2,1.1,4.5,1.1,7.4c0,2.9-0.4,5.4-1.1,7.4
			c-0.7,2-1.8,3.6-3.2,4.7C90.3,164.1,88.6,164.6,86.7,164.6z M86.7,161.8c1.9,0,3.5-0.9,4.5-2.8c1.1-1.9,1.6-4.6,1.6-8
			c0-2.3-0.2-4.3-0.7-5.9c-0.5-1.6-1.2-2.9-2.1-3.7s-2-1.3-3.3-1.3c-1.9,0-3.4,0.9-4.5,2.8c-1.1,1.9-1.6,4.6-1.6,8
			c0,2.3,0.2,4.3,0.7,5.9c0.5,1.6,1.2,2.8,2.1,3.7C84.3,161.4,85.4,161.8,86.7,161.8z"/>
	</g>
</g>
<g>
	<g>
		<path d="M46.9,67.6v26.7h-3.2V71h-0.2L37,75.3v-3.3l6.7-4.4H46.9z"/>
		<path d="M63.6,94.7c-1.7,0-3.3-0.3-4.6-0.9c-1.3-0.6-2.4-1.4-3.2-2.5c-0.8-1.1-1.2-2.3-1.3-3.7h3.3c0.1,0.9,0.4,1.6,0.9,2.2
			c0.5,0.6,1.2,1.1,2,1.4c0.8,0.3,1.8,0.5,2.8,0.5c1.1,0,2.2-0.2,3-0.6c0.9-0.4,1.6-1,2.1-1.7c0.5-0.7,0.8-1.5,0.8-2.5
			c0-1-0.2-1.8-0.7-2.6c-0.5-0.8-1.2-1.3-2.1-1.8c-0.9-0.4-2.1-0.6-3.4-0.6H61v-2.9h2.1c1.1,0,2-0.2,2.8-0.6
			c0.8-0.4,1.4-0.9,1.9-1.6c0.5-0.7,0.7-1.5,0.7-2.5c0-0.9-0.2-1.7-0.6-2.4c-0.4-0.7-1-1.2-1.7-1.6s-1.6-0.6-2.6-0.6
			c-0.9,0-1.8,0.2-2.6,0.5s-1.5,0.8-2,1.4c-0.5,0.6-0.8,1.4-0.8,2.3h-3.1c0.1-1.4,0.5-2.6,1.3-3.7s1.8-1.9,3.1-2.5s2.7-0.9,4.2-0.9
			c1.7,0,3.1,0.3,4.2,1c1.2,0.7,2.1,1.5,2.7,2.6s1,2.3,1,3.5c0,1.5-0.4,2.8-1.2,3.8c-0.8,1.1-1.9,1.8-3.2,2.2v0.2
			c1.7,0.3,3,1,3.9,2.1c0.9,1.2,1.4,2.6,1.4,4.3c0,1.5-0.4,2.8-1.2,3.9c-0.8,1.2-1.9,2.1-3.2,2.7S65.3,94.7,63.6,94.7z"/>
		<path d="M86.7,94.7c-2,0-3.6-0.5-5-1.6c-1.4-1.1-2.4-2.6-3.2-4.7c-0.7-2-1.1-4.5-1.1-7.4c0-2.9,0.4-5.3,1.1-7.4
			c0.7-2,1.8-3.6,3.2-4.7c1.4-1.1,3.1-1.6,5-1.6s3.6,0.5,5,1.6s2.4,2.6,3.2,4.7c0.7,2,1.1,4.5,1.1,7.4c0,2.9-0.4,5.4-1.1,7.4
			c-0.7,2-1.8,3.6-3.2,4.7C90.3,94.2,88.6,94.7,86.7,94.7z M86.7,91.8c1.9,0,3.5-0.9,4.5-2.8c1.1-1.9,1.6-4.6,1.6-8
			c0-2.3-0.2-4.3-0.7-5.9c-0.5-1.6-1.2-2.9-2.1-3.7c-0.9-0.9-2-1.3-3.3-1.3c-1.9,0-3.4,0.9-4.5,2.8s-1.6,4.6-1.6,8
			c0,2.3,0.2,4.3,0.7,5.9c0.5,1.6,1.2,2.8,2.1,3.7C84.3,91.4,85.4,91.8,86.7,91.8z"/>
	</g>
</g>
<g>
	<g>
		<path d="M553.3,815.6v26.7h-3.2V819h-0.2l-6.5,4.3v-3.3l6.7-4.4H553.3z"/>
		<path d="M561.8,842.3l11.9-23.6v-0.2H560v-2.9h17.1v3l-11.9,23.7H561.8z"/>
		<path d="M590.6,842.7c-2,0-3.6-0.5-5-1.6c-1.4-1.1-2.4-2.6-3.2-4.7c-0.7-2-1.1-4.5-1.1-7.4c0-2.9,0.4-5.3,1.1-7.4
			c0.7-2,1.8-3.6,3.2-4.7s3.1-1.6,5-1.6c1.9,0,3.6,0.5,5,1.6c1.4,1.1,2.4,2.6,3.2,4.7c0.7,2,1.1,4.5,1.1,7.4c0,2.9-0.4,5.4-1.1,7.4
			c-0.7,2-1.8,3.6-3.2,4.7C594.2,842.2,592.6,842.7,590.6,842.7z M590.6,839.8c1.9,0,3.5-0.9,4.5-2.8c1.1-1.9,1.6-4.6,1.6-8
			c0-2.3-0.2-4.3-0.7-5.9c-0.5-1.6-1.2-2.9-2.1-3.7c-0.9-0.9-2-1.3-3.3-1.3c-1.9,0-3.4,0.9-4.5,2.8s-1.6,4.6-1.6,8
			c0,2.3,0.2,4.3,0.7,5.9c0.5,1.6,1.2,2.8,2.1,3.7C588.2,839.4,589.3,839.8,590.6,839.8z"/>
	</g>
</g>
<g>
	<g>
		<path d="M983.9,815.6v26.7h-3.2V819h-0.2l-6.5,4.3v-3.3l6.7-4.4H983.9z"/>
		<path d="M1000,815.3c1.1,0,2.2,0.2,3.3,0.6c1.1,0.4,2.1,1.1,3,2c0.9,0.9,1.6,2.2,2.2,3.9c0.5,1.6,0.8,3.7,0.8,6.1
			c0,2.4-0.2,4.5-0.7,6.3c-0.4,1.8-1.1,3.4-1.9,4.6s-1.9,2.2-3,2.9c-1.2,0.7-2.5,1-4,1c-1.5,0-2.8-0.3-4-0.9
			c-1.2-0.6-2.1-1.4-2.9-2.5c-0.7-1.1-1.2-2.3-1.4-3.7h3.2c0.3,1.2,0.9,2.2,1.7,3c0.9,0.8,2,1.2,3.4,1.2c2.1,0,3.7-0.9,4.9-2.7
			c1.2-1.8,1.8-4.3,1.8-7.6h-0.2c-0.5,0.7-1.1,1.4-1.7,1.9s-1.4,0.9-2.2,1.2s-1.7,0.4-2.6,0.4c-1.5,0-2.9-0.4-4.2-1.1
			s-2.3-1.8-3-3.1s-1.1-2.9-1.1-4.6c0-1.6,0.4-3.1,1.1-4.5c0.7-1.4,1.8-2.4,3.1-3.3S998.2,815.2,1000,815.3z M1000,818.1
			c-1.1,0-2.1,0.3-3,0.8s-1.6,1.3-2.1,2.2s-0.8,1.9-0.8,3c0,1.1,0.2,2.1,0.7,3c0.5,0.9,1.2,1.6,2,2.2s1.8,0.8,2.9,0.8
			c0.8,0,1.6-0.2,2.3-0.5c0.7-0.3,1.3-0.8,1.9-1.3c0.5-0.6,1-1.2,1.3-1.9s0.5-1.5,0.5-2.3c0-1-0.2-2-0.8-2.9
			c-0.5-0.9-1.2-1.7-2.1-2.2S1001.2,818.1,1000,818.1z"/>
		<path d="M1023.1,842.7c-2,0-3.6-0.5-5-1.6c-1.4-1.1-2.4-2.6-3.2-4.7c-0.7-2-1.1-4.5-1.1-7.4c0-2.9,0.4-5.3,1.1-7.4
			c0.7-2,1.8-3.6,3.2-4.7c1.4-1.1,3.1-1.6,5-1.6c1.9,0,3.6,0.5,5,1.6c1.4,1.1,2.4,2.6,3.2,4.7c0.7,2,1.1,4.5,1.1,7.4
			c0,2.9-0.4,5.4-1.1,7.4c-0.7,2-1.8,3.6-3.2,4.7C1026.8,842.2,1025.1,842.7,1023.1,842.7z M1023.1,839.8c1.9,0,3.5-0.9,4.5-2.8
			c1.1-1.9,1.6-4.6,1.6-8c0-2.3-0.2-4.3-0.7-5.9c-0.5-1.6-1.2-2.9-2.1-3.7c-0.9-0.9-2-1.3-3.3-1.3c-1.9,0-3.4,0.9-4.5,2.8
			c-1.1,1.9-1.6,4.6-1.6,8c0,2.3,0.2,4.3,0.7,5.9c0.5,1.6,1.2,2.8,2.1,3.7C1020.7,839.4,1021.8,839.8,1023.1,839.8z"/>
	</g>
</g>
<g>
	<g>
		<path d="M1402.1,842.3V840l8.8-9.6c1-1.1,1.9-2.1,2.6-3c0.7-0.8,1.2-1.6,1.5-2.4s0.5-1.5,0.5-2.3c0-0.9-0.2-1.8-0.7-2.4
			c-0.4-0.7-1.1-1.2-1.8-1.6s-1.6-0.6-2.6-0.6c-1,0-1.9,0.2-2.7,0.6c-0.8,0.4-1.3,1-1.8,1.8c-0.4,0.8-0.6,1.6-0.6,2.7h-3.1
			c0-1.6,0.4-2.9,1.1-4.1s1.7-2.1,3-2.8c1.2-0.7,2.6-1,4.2-1c1.6,0,2.9,0.3,4.2,1c1.2,0.7,2.2,1.6,2.8,2.7c0.7,1.1,1,2.4,1,3.7
			c0,1-0.2,1.9-0.5,2.9c-0.4,0.9-1,2-1.8,3.1c-0.9,1.1-2.1,2.5-3.6,4.2l-6,6.4v0.2h12.4v2.9H1402.1z"/>
		<path d="M1433.7,815.6v26.7h-3.2V819h-0.2l-6.5,4.3v-3.3l6.7-4.4H1433.7z"/>
		<path d="M1450.1,842.7c-2,0-3.6-0.5-5-1.6c-1.4-1.1-2.4-2.6-3.2-4.7c-0.7-2-1.1-4.5-1.1-7.4c0-2.9,0.4-5.3,1.1-7.4
			c0.7-2,1.8-3.6,3.2-4.7c1.4-1.1,3.1-1.6,5-1.6s3.6,0.5,5,1.6s2.4,2.6,3.2,4.7c0.7,2,1.1,4.5,1.1,7.4c0,2.9-0.4,5.4-1.1,7.4
			c-0.7,2-1.8,3.6-3.2,4.7C1453.7,842.2,1452,842.7,1450.1,842.7z M1450.1,839.8c1.9,0,3.5-0.9,4.5-2.8c1.1-1.9,1.6-4.6,1.6-8
			c0-2.3-0.2-4.3-0.7-5.9c-0.5-1.6-1.2-2.9-2.1-3.7s-2-1.3-3.3-1.3c-1.9,0-3.4,0.9-4.5,2.8c-1.1,1.9-1.6,4.6-1.6,8
			c0,2.3,0.2,4.3,0.7,5.9c0.5,1.6,1.2,2.8,2.1,3.7C1447.7,839.4,1448.8,839.8,1450.1,839.8z"/>
	</g>
</g>
</svg>
