<svg width="134" height="40" viewBox="0 0 134 40" fill="none" xmlns="http://www.w3.org/2000/svg">
<rect x="0.441406" width="132.836" height="39.416" rx="19.708" fill="#F9F9F9" style="fill:#F9F9F9;fill:color(display-p3 0.9765 0.9765 0.9765);fill-opacity:1;"/>
<g opacity="0.2">
<rect x="0.40033" y="0.40033" width="132.032" height="38.6156" rx="19.3078" fill="white" style="fill:white;fill-opacity:1;"/>
<rect x="0.40033" y="0.40033" width="132.032" height="38.6156" rx="19.3078" stroke="black" style="stroke:black;stroke-opacity:1;" stroke-width="0.800661"/>
</g>
<path d="M24.7626 25.208V14.0719H26.1111V24.0117H31.2877V25.208H24.7626ZM32.8955 25.208V16.8559H34.1787V25.208H32.8955ZM33.548 15.4639C33.2978 15.4639 33.0821 15.3787 32.9009 15.2083C32.7233 15.0379 32.6345 14.8331 32.6345 14.5939C32.6345 14.3546 32.7233 14.1498 32.9009 13.9794C33.0821 13.809 33.2978 13.7238 33.548 13.7238C33.7981 13.7238 34.012 13.809 34.1896 13.9794C34.3708 14.1498 34.4615 14.3546 34.4615 14.5939C34.4615 14.8331 34.3708 15.0379 34.1896 15.2083C34.012 15.3787 33.7981 15.4639 33.548 15.4639ZM39.9422 16.8559V17.9434H35.4399V16.8559H39.9422ZM36.7884 25.208V15.7031C36.7884 15.2246 36.9008 14.8259 37.1255 14.5069C37.3503 14.1879 37.6421 13.9486 38.001 13.7891C38.3598 13.6296 38.7387 13.5498 39.1374 13.5498C39.4528 13.5498 39.7102 13.5752 39.9095 13.626C40.1089 13.6767 40.2575 13.7238 40.3554 13.7673L39.9857 14.8766C39.9204 14.8549 39.8298 14.8277 39.7138 14.7951C39.6014 14.7624 39.4528 14.7461 39.2679 14.7461C38.8438 14.7461 38.5375 14.8531 38.349 15.0669C38.1641 15.2808 38.0716 15.5944 38.0716 16.0076V25.208H36.7884ZM44.5923 25.382C43.7875 25.382 43.0933 25.2044 42.5097 24.8491C41.9297 24.4902 41.482 23.99 41.1666 23.3484C40.8548 22.7031 40.699 21.9527 40.699 21.0972C40.699 20.2417 40.8548 19.4877 41.1666 18.8352C41.482 18.179 41.9206 17.6679 42.4825 17.3018C43.048 16.932 43.7078 16.7471 44.4618 16.7471C44.8968 16.7471 45.3263 16.8196 45.7505 16.9646C46.1746 17.1096 46.5607 17.3453 46.9087 17.6715C47.2567 17.9942 47.534 18.4219 47.7406 18.9548C47.9473 19.4877 48.0506 20.1438 48.0506 20.9232V21.467H41.6125V20.3577H46.7456C46.7456 19.8864 46.6513 19.4659 46.4628 19.0962C46.2779 18.7264 46.0133 18.4346 45.6689 18.2207C45.3282 18.0068 44.9258 17.8999 44.4618 17.8999C43.9506 17.8999 43.5084 18.0268 43.135 18.2805C42.7652 18.5307 42.4807 18.8569 42.2813 19.2593C42.0819 19.6617 41.9822 20.0931 41.9822 20.5534V21.293C41.9822 21.9237 42.091 22.4584 42.3085 22.897C42.5296 23.332 42.8359 23.6637 43.2274 23.8921C43.6189 24.1169 44.0739 24.2292 44.5923 24.2292C44.9294 24.2292 45.2339 24.1821 45.5058 24.0879C45.7813 23.99 46.0187 23.845 46.2181 23.6529C46.4175 23.4571 46.5716 23.2142 46.6803 22.9242L47.9201 23.2722C47.7896 23.6927 47.5703 24.0625 47.2621 24.3815C46.954 24.6969 46.5734 24.9434 46.1202 25.121C45.6671 25.295 45.1578 25.382 44.5923 25.382ZM58.1338 14.0719H59.4823V22.0325C59.4823 22.743 59.3518 23.3465 59.0908 23.8432C58.8298 24.3398 58.4619 24.7168 57.987 24.9742C57.5121 25.2316 56.952 25.3603 56.3068 25.3603C55.6978 25.3603 55.1558 25.2497 54.6809 25.0286C54.2061 24.8038 53.8327 24.4848 53.5608 24.0716C53.2889 23.6583 53.153 23.1671 53.153 22.598H54.4797C54.4797 22.9134 54.5577 23.1889 54.7136 23.4245C54.8731 23.6565 55.0906 23.8377 55.3661 23.9682C55.6416 24.0987 55.9551 24.164 56.3068 24.164C56.6946 24.164 57.0245 24.0824 57.2964 23.9193C57.5683 23.7562 57.7749 23.5169 57.9163 23.2015C58.0613 22.8825 58.1338 22.4928 58.1338 22.0325V14.0719ZM65.0976 25.382C64.3436 25.382 63.682 25.2026 63.1129 24.8437C62.5474 24.4848 62.1051 23.9827 61.7861 23.3375C61.4707 22.6922 61.313 21.9382 61.313 21.0755C61.313 20.2054 61.4707 19.446 61.7861 18.7971C62.1051 18.1482 62.5474 17.6443 63.1129 17.2855C63.682 16.9266 64.3436 16.7471 65.0976 16.7471C65.8516 16.7471 66.5114 16.9266 67.0769 17.2855C67.646 17.6443 68.0883 18.1482 68.4036 18.7971C68.7226 19.446 68.8821 20.2054 68.8821 21.0755C68.8821 21.9382 68.7226 22.6922 68.4036 23.3375C68.0883 23.9827 67.646 24.4848 67.0769 24.8437C66.5114 25.2026 65.8516 25.382 65.0976 25.382ZM65.0976 24.2292C65.6703 24.2292 66.1416 24.0824 66.5114 23.7888C66.8811 23.4952 67.1548 23.1091 67.3324 22.6306C67.5101 22.1521 67.5989 21.6337 67.5989 21.0755C67.5989 20.5172 67.5101 19.997 67.3324 19.5149C67.1548 19.0327 66.8811 18.643 66.5114 18.3458C66.1416 18.0485 65.6703 17.8999 65.0976 17.8999C64.5248 17.8999 64.0536 18.0485 63.6838 18.3458C63.3141 18.643 63.0404 19.0327 62.8627 19.5149C62.6851 19.997 62.5963 20.5172 62.5963 21.0755C62.5963 21.6337 62.6851 22.1521 62.8627 22.6306C63.0404 23.1091 63.3141 23.4952 63.6838 23.7888C64.0536 24.0824 64.5248 24.2292 65.0976 24.2292ZM75.7984 21.7932V16.8559H77.0816V25.208H75.7984V23.7942H75.7114C75.5156 24.2184 75.2111 24.5791 74.7978 24.8763C74.3846 25.1699 73.8626 25.3168 73.2318 25.3168C72.7098 25.3168 72.2458 25.2026 71.8398 24.9742C71.4338 24.7422 71.1148 24.3942 70.8828 23.9302C70.6508 23.4625 70.5348 22.8735 70.5348 22.163V16.8559H71.8181V22.076C71.8181 22.685 71.9884 23.1707 72.3292 23.5332C72.6736 23.8957 73.1122 24.077 73.6451 24.077C73.9641 24.077 74.2885 23.9954 74.6184 23.8323C74.9519 23.6692 75.231 23.419 75.4558 23.0819C75.6842 22.7448 75.7984 22.3152 75.7984 21.7932ZM79.1258 25.208V16.8559H80.3655V18.1174H80.4525C80.6048 17.7042 80.8803 17.3688 81.279 17.1115C81.6778 16.8541 82.1273 16.7254 82.6276 16.7254C82.7218 16.7254 82.8396 16.7272 82.981 16.7308C83.1224 16.7345 83.2293 16.7399 83.3018 16.7471V18.0522C83.2583 18.0413 83.1586 18.025 83.0028 18.0032C82.8505 17.9778 82.6892 17.9652 82.5188 17.9652C82.1128 17.9652 81.7503 18.0503 81.4313 18.2207C81.1159 18.3875 80.8658 18.6195 80.6809 18.9167C80.4997 19.2104 80.409 19.5457 80.409 19.9227V25.208H79.1258ZM85.8 20.1837V25.208H84.5167V16.8559H85.7565V18.1609H85.8653C86.061 17.7368 86.3583 17.396 86.757 17.1386C87.1558 16.8776 87.6705 16.7471 88.3013 16.7471C88.8668 16.7471 89.3616 16.8631 89.7858 17.0951C90.2099 17.3235 90.5398 17.6715 90.7754 18.1392C91.011 18.6032 91.1288 19.1904 91.1288 19.9009V25.208H89.8456V19.9879C89.8456 19.3318 89.6752 18.8207 89.3344 18.4545C88.9937 18.0848 88.526 17.8999 87.9315 17.8999C87.5219 17.8999 87.1558 17.9887 86.8332 18.1663C86.5141 18.344 86.2622 18.6032 86.0773 18.9439C85.8925 19.2847 85.8 19.6979 85.8 20.1837ZM96.6693 25.382C95.8646 25.382 95.1704 25.2044 94.5867 24.8491C94.0067 24.4902 93.559 23.99 93.2437 23.3484C92.9319 22.7031 92.776 21.9527 92.776 21.0972C92.776 20.2417 92.9319 19.4877 93.2437 18.8352C93.559 18.179 93.9977 17.6679 94.5596 17.3018C95.1251 16.932 95.7848 16.7471 96.5388 16.7471C96.9738 16.7471 97.4034 16.8196 97.8275 16.9646C98.2517 17.1096 98.6377 17.3453 98.9857 17.6715C99.3338 17.9942 99.6111 18.4219 99.8177 18.9548C100.024 19.4877 100.128 20.1438 100.128 20.9232V21.467H93.6896V20.3577H98.8226C98.8226 19.8864 98.7284 19.4659 98.5399 19.0962C98.355 18.7264 98.0904 18.4346 97.746 18.2207C97.4052 18.0068 97.0028 17.8999 96.5388 17.8999C96.0277 17.8999 95.5855 18.0268 95.2121 18.2805C94.8423 18.5307 94.5577 18.8569 94.3584 19.2593C94.159 19.6617 94.0593 20.0931 94.0593 20.5534V21.293C94.0593 21.9237 94.1681 22.4584 94.3856 22.897C94.6067 23.332 94.913 23.6637 95.3045 23.8921C95.696 24.1169 96.151 24.2292 96.6693 24.2292C97.0065 24.2292 97.311 24.1821 97.5829 24.0879C97.8584 23.99 98.0958 23.845 98.2952 23.6529C98.4946 23.4571 98.6486 23.2142 98.7574 22.9242L99.9971 23.2722C99.8666 23.6927 99.6473 24.0625 99.3392 24.3815C99.0311 24.6969 98.6504 24.9434 98.1973 25.121C97.7442 25.295 97.2348 25.382 96.6693 25.382ZM102.346 28.3401C102.128 28.3401 101.934 28.3219 101.764 28.2857C101.594 28.253 101.476 28.2204 101.411 28.1878L101.737 27.0568C102.049 27.1365 102.324 27.1655 102.563 27.1438C102.803 27.122 103.015 27.0151 103.199 26.823C103.388 26.6345 103.56 26.3281 103.716 25.904L103.955 25.2515L100.867 16.8559H102.259L104.564 23.5115H104.651L106.957 16.8559H108.349L104.804 26.426C104.644 26.8574 104.447 27.2145 104.211 27.4972C103.975 27.7836 103.702 27.9957 103.39 28.1334C103.082 28.2712 102.734 28.3401 102.346 28.3401Z" fill="#8C8C8C" style="fill:#8C8C8C;fill:color(display-p3 0.5481 0.5481 0.5481);fill-opacity:1;"/>
</svg>
