<svg width="134" height="40" viewBox="0 0 134 40" fill="none" xmlns="http://www.w3.org/2000/svg">
<rect x="0.441406" width="132.836" height="39.416" rx="19.708" fill="#F9F9F9" style="fill:#F9F9F9;fill:color(display-p3 0.9765 0.9765 0.9765);fill-opacity:1;"/>
<g opacity="0.2">
<rect x="0.40033" y="0.40033" width="132.032" height="38.6156" rx="19.3078" fill="white" style="fill:white;fill-opacity:1;"/>
<rect x="0.40033" y="0.40033" width="132.032" height="38.6156" rx="19.3078" stroke="black" style="stroke:black;stroke-opacity:1;" stroke-width="0.800661"/>
</g>
<path d="M17.7665 25.208V14.0719H21.5293C22.4029 14.0719 23.1171 14.2295 23.6717 14.5449C24.23 14.8567 24.6432 15.279 24.9115 15.8119C25.1797 16.3448 25.3138 16.9393 25.3138 17.5954C25.3138 18.2515 25.1797 18.8479 24.9115 19.3844C24.6468 19.9209 24.2372 20.3486 23.6826 20.6676C23.1279 20.983 22.4174 21.1407 21.551 21.1407H18.854V19.9444H21.5075C22.1057 19.9444 22.586 19.8411 22.9485 19.6345C23.311 19.4279 23.5738 19.1487 23.7369 18.7971C23.9037 18.4419 23.9871 18.0413 23.9871 17.5954C23.9871 17.1495 23.9037 16.7508 23.7369 16.3991C23.5738 16.0475 23.3092 15.772 22.9431 15.5726C22.5769 15.3696 22.0912 15.2681 21.4858 15.2681H19.115V25.208H17.7665ZM29.4637 25.4038C28.9344 25.4038 28.4541 25.3041 28.0227 25.1047C27.5914 24.9017 27.2488 24.6099 26.995 24.2292C26.7413 23.845 26.6144 23.381 26.6144 22.8372C26.6144 22.3587 26.7087 21.9708 26.8972 21.6736C27.0857 21.3727 27.3376 21.1371 27.653 20.9667C27.9684 20.7963 28.3164 20.6694 28.697 20.5861C29.0812 20.4991 29.4673 20.4302 29.8552 20.3794C30.3627 20.3142 30.7741 20.2653 31.0895 20.2326C31.4085 20.1964 31.6405 20.1366 31.7855 20.0532C31.9342 19.9698 32.0085 19.8248 32.0085 19.6182V19.5747C32.0085 19.0382 31.8617 18.6213 31.568 18.324C31.278 18.0268 30.8376 17.8782 30.2467 17.8782C29.6341 17.8782 29.1537 18.0123 28.8057 18.2805C28.4577 18.5488 28.213 18.8352 28.0717 19.1397L26.8537 18.7047C27.0712 18.1972 27.3612 17.802 27.7237 17.5193C28.0898 17.2329 28.4886 17.0335 28.9199 16.9211C29.3549 16.8051 29.7827 16.7471 30.2032 16.7471C30.4715 16.7471 30.7796 16.7798 31.1276 16.845C31.4792 16.9066 31.8182 17.0353 32.1444 17.2311C32.4743 17.4268 32.748 17.7223 32.9655 18.1174C33.183 18.5125 33.2917 19.0418 33.2917 19.7052V25.208H32.0085V24.077H31.9432C31.8562 24.2582 31.7112 24.4522 31.5082 24.6588C31.3052 24.8654 31.0351 25.0413 30.698 25.1863C30.3609 25.3313 29.9494 25.4038 29.4637 25.4038ZM29.6594 24.251C30.167 24.251 30.5947 24.1513 30.9427 23.9519C31.2943 23.7526 31.559 23.4952 31.7366 23.1798C31.9178 22.8644 32.0085 22.5327 32.0085 22.1847V21.0102C31.9541 21.0755 31.8345 21.1353 31.6496 21.1896C31.4683 21.2404 31.2581 21.2857 31.0188 21.3256C30.7832 21.3618 30.553 21.3945 30.3283 21.4235C30.1071 21.4488 29.9277 21.4706 29.7899 21.4887C29.4564 21.5322 29.1447 21.6029 28.8547 21.7008C28.5683 21.795 28.3363 21.9382 28.1587 22.1303C27.9847 22.3188 27.8977 22.5762 27.8977 22.9025C27.8977 23.3484 28.0626 23.6855 28.3925 23.9139C28.726 24.1386 29.1483 24.251 29.6594 24.251ZM35.3277 25.208V16.8559H36.5675V18.1174H36.6545C36.8068 17.7042 37.0823 17.3688 37.481 17.1115C37.8798 16.8541 38.3293 16.7254 38.8295 16.7254C38.9238 16.7254 39.0416 16.7272 39.183 16.7308C39.3244 16.7345 39.4313 16.7399 39.5038 16.7471V18.0522C39.4603 18.0413 39.3606 18.025 39.2047 18.0032C39.0525 17.9778 38.8912 17.9652 38.7208 17.9652C38.3148 17.9652 37.9523 18.0503 37.6333 18.2207C37.3179 18.3875 37.0678 18.6195 36.8829 18.9167C36.7016 19.2104 36.611 19.5457 36.611 19.9227V25.208H35.3277ZM43.8575 25.382C43.0745 25.382 42.4003 25.1971 41.8348 24.8274C41.2693 24.4576 40.8343 23.9483 40.5298 23.2994C40.2252 22.6505 40.073 21.9092 40.073 21.0755C40.073 20.2272 40.2289 19.4786 40.5406 18.8297C40.856 18.1772 41.2946 17.6679 41.8565 17.3018C42.422 16.932 43.0818 16.7471 43.8358 16.7471C44.4231 16.7471 44.9523 16.8559 45.4236 17.0734C45.8948 17.2909 46.2809 17.5954 46.5818 17.9869C46.8827 18.3784 47.0693 18.8352 47.1418 19.3572H45.8586C45.7607 18.9765 45.5432 18.6394 45.2061 18.3458C44.8726 18.0485 44.4231 17.8999 43.8575 17.8999C43.3573 17.8999 42.9187 18.0304 42.5417 18.2914C42.1683 18.5488 41.8765 18.9131 41.6662 19.3844C41.4596 19.852 41.3563 20.4012 41.3563 21.032C41.3563 21.6772 41.4578 22.2391 41.6608 22.7176C41.8674 23.1961 42.1574 23.5677 42.5308 23.8323C42.9078 24.0969 43.35 24.2292 43.8575 24.2292C44.1911 24.2292 44.4937 24.1712 44.7656 24.0552C45.0375 23.9392 45.2677 23.7725 45.4562 23.555C45.6447 23.3375 45.7788 23.0765 45.8586 22.772H47.1418C47.0693 23.265 46.8899 23.709 46.6035 24.1042C46.3208 24.4957 45.9456 24.8074 45.4779 25.0394C45.0139 25.2678 44.4738 25.382 43.8575 25.382ZM52.1046 25.382C51.3506 25.382 50.689 25.2026 50.1199 24.8437C49.5544 24.4848 49.1121 23.9827 48.7931 23.3375C48.4777 22.6922 48.3201 21.9382 48.3201 21.0755C48.3201 20.2054 48.4777 19.446 48.7931 18.7971C49.1121 18.1482 49.5544 17.6443 50.1199 17.2855C50.689 16.9266 51.3506 16.7471 52.1046 16.7471C52.8586 16.7471 53.5184 16.9266 54.0839 17.2855C54.653 17.6443 55.0953 18.1482 55.4107 18.7971C55.7297 19.446 55.8892 20.2054 55.8892 21.0755C55.8892 21.9382 55.7297 22.6922 55.4107 23.3375C55.0953 23.9827 54.653 24.4848 54.0839 24.8437C53.5184 25.2026 52.8586 25.382 52.1046 25.382ZM52.1046 24.2292C52.6774 24.2292 53.1486 24.0824 53.5184 23.7888C53.8881 23.4952 54.1618 23.1091 54.3395 22.6306C54.5171 22.1521 54.6059 21.6337 54.6059 21.0755C54.6059 20.5172 54.5171 19.997 54.3395 19.5149C54.1618 19.0327 53.8881 18.643 53.5184 18.3458C53.1486 18.0485 52.6774 17.8999 52.1046 17.8999C51.5319 17.8999 51.0606 18.0485 50.6908 18.3458C50.3211 18.643 50.0474 19.0327 49.8698 19.5149C49.6921 19.997 49.6033 20.5172 49.6033 21.0755C49.6033 21.6337 49.6921 22.1521 49.8698 22.6306C50.0474 23.1091 50.3211 23.4952 50.6908 23.7888C51.0606 24.0824 51.5319 24.2292 52.1046 24.2292ZM62.8054 21.7932V16.8559H64.0886V25.208H62.8054V23.7942H62.7184C62.5226 24.2184 62.2181 24.5791 61.8049 24.8763C61.3916 25.1699 60.8696 25.3168 60.2388 25.3168C59.7168 25.3168 59.2528 25.2026 58.8468 24.9742C58.4408 24.7422 58.1218 24.3942 57.8898 23.9302C57.6578 23.4625 57.5418 22.8735 57.5418 22.163V16.8559H58.8251V22.076C58.8251 22.685 58.9954 23.1707 59.3362 23.5332C59.6806 23.8957 60.1192 24.077 60.6521 24.077C60.9711 24.077 61.2955 23.9954 61.6254 23.8323C61.9589 23.6692 62.2381 23.419 62.4628 23.0819C62.6912 22.7448 62.8054 22.3152 62.8054 21.7932ZM66.1328 25.208V16.8559H67.3726V18.1174H67.4596C67.6118 17.7042 67.8873 17.3688 68.2861 17.1115C68.6848 16.8541 69.1343 16.7254 69.6346 16.7254C69.7288 16.7254 69.8467 16.7272 69.988 16.7308C70.1294 16.7345 70.2363 16.7399 70.3088 16.7471V18.0522C70.2653 18.0413 70.1657 18.025 70.0098 18.0032C69.8575 17.9778 69.6962 17.9652 69.5258 17.9652C69.1198 17.9652 68.7573 18.0503 68.4383 18.2207C68.1229 18.3875 67.8728 18.6195 67.6879 18.9167C67.5067 19.2104 67.4161 19.5457 67.4161 19.9227V25.208H66.1328ZM77.4398 18.7264L76.2871 19.0527C76.2146 18.8605 76.1076 18.6739 75.9663 18.4926C75.8285 18.3077 75.64 18.1555 75.4008 18.0358C75.1615 17.9162 74.8552 17.8564 74.4818 17.8564C73.9707 17.8564 73.5447 17.9742 73.204 18.2098C72.8668 18.4419 72.6983 18.7373 72.6983 19.0962C72.6983 19.4152 72.8143 19.6671 73.0463 19.852C73.2783 20.0369 73.6408 20.1909 74.1338 20.3142L75.3736 20.6187C76.1203 20.7999 76.6768 21.0773 77.0429 21.4506C77.409 21.8204 77.5921 22.2971 77.5921 22.8807C77.5921 23.3592 77.4543 23.787 77.1788 24.164C76.907 24.541 76.5263 24.8383 76.037 25.0558C75.5476 25.2733 74.9784 25.382 74.3296 25.382C73.4777 25.382 72.7726 25.1971 72.2143 24.8274C71.6561 24.4576 71.3026 23.9175 71.154 23.207L72.372 22.9025C72.488 23.352 72.7073 23.6891 73.03 23.9139C73.3562 24.1386 73.7822 24.251 74.3078 24.251C74.9059 24.251 75.3808 24.1241 75.7324 23.8704C76.0877 23.613 76.2653 23.3049 76.2653 22.946C76.2653 22.656 76.1638 22.4131 75.9608 22.2173C75.7578 22.018 75.4461 21.8693 75.0256 21.7715L73.6335 21.4452C72.8687 21.264 72.3068 20.983 71.9479 20.6024C71.5926 20.2181 71.415 19.7378 71.415 19.1614C71.415 18.6902 71.5473 18.2733 71.812 17.9108C72.0802 17.5483 72.4445 17.2637 72.9049 17.0571C73.3689 16.8505 73.8945 16.7471 74.4818 16.7471C75.3083 16.7471 75.9572 16.9284 76.4285 17.2909C76.9033 17.6534 77.2405 18.1319 77.4398 18.7264ZM92.353 17.5519H91.0045C90.9247 17.164 90.7852 16.8233 90.5858 16.5296C90.39 16.236 90.1508 15.9895 89.868 15.7901C89.5889 15.5871 89.279 15.4349 88.9382 15.3334C88.5974 15.2319 88.2422 15.1811 87.8724 15.1811C87.1982 15.1811 86.5874 15.3515 86.04 15.6923C85.4962 16.033 85.063 16.5351 84.7404 17.1985C84.4214 17.8618 84.2619 18.6757 84.2619 19.6399C84.2619 20.6042 84.4214 21.418 84.7404 22.0814C85.063 22.7448 85.4962 23.2469 86.04 23.5876C86.5874 23.9284 87.1982 24.0987 87.8724 24.0987C88.2422 24.0987 88.5974 24.048 88.9382 23.9465C89.279 23.845 89.5889 23.6945 89.868 23.4952C90.1508 23.2922 90.39 23.0439 90.5858 22.7502C90.7852 22.453 90.9247 22.1122 91.0045 21.728H92.353C92.2515 22.2971 92.0666 22.8064 91.7984 23.2559C91.5301 23.7054 91.1966 24.0879 90.7979 24.4032C90.3991 24.715 89.9514 24.9524 89.4548 25.1156C88.9618 25.2787 88.4343 25.3603 87.8724 25.3603C86.9227 25.3603 86.078 25.1283 85.3385 24.6643C84.599 24.2002 84.0172 23.5405 83.5931 22.685C83.1689 21.8295 82.9569 20.8144 82.9569 19.6399C82.9569 18.4654 83.1689 17.4504 83.5931 16.5949C84.0172 15.7394 84.599 15.0796 85.3385 14.6156C86.078 14.1516 86.9227 13.9196 87.8724 13.9196C88.4343 13.9196 88.9618 14.0012 89.4548 14.1643C89.9514 14.3274 90.3991 14.5667 90.7979 14.8821C91.1966 15.1938 91.5301 15.5744 91.7984 16.0239C92.0666 16.4698 92.2515 16.9791 92.353 17.5519ZM97.4449 25.382C96.6909 25.382 96.0293 25.2026 95.4602 24.8437C94.8947 24.4848 94.4524 23.9827 94.1334 23.3375C93.818 22.6922 93.6604 21.9382 93.6604 21.0755C93.6604 20.2054 93.818 19.446 94.1334 18.7971C94.4524 18.1482 94.8947 17.6443 95.4602 17.2855C96.0293 16.9266 96.6909 16.7471 97.4449 16.7471C98.1989 16.7471 98.8587 16.9266 99.4242 17.2855C99.9933 17.6443 100.436 18.1482 100.751 18.7971C101.07 19.446 101.229 20.2054 101.229 21.0755C101.229 21.9382 101.07 22.6922 100.751 23.3375C100.436 23.9827 99.9933 24.4848 99.4242 24.8437C98.8587 25.2026 98.1989 25.382 97.4449 25.382ZM97.4449 24.2292C98.0177 24.2292 98.4889 24.0824 98.8587 23.7888C99.2284 23.4952 99.5021 23.1091 99.6797 22.6306C99.8574 22.1521 99.9462 21.6337 99.9462 21.0755C99.9462 20.5172 99.8574 19.997 99.6797 19.5149C99.5021 19.0327 99.2284 18.643 98.8587 18.3458C98.4889 18.0485 98.0177 17.8999 97.4449 17.8999C96.8721 17.8999 96.4009 18.0485 96.0311 18.3458C95.6614 18.643 95.3877 19.0327 95.2101 19.5149C95.0324 19.997 94.9436 20.5172 94.9436 21.0755C94.9436 21.6337 95.0324 22.1521 95.2101 22.6306C95.3877 23.1091 95.6614 23.4952 96.0311 23.7888C96.4009 24.0824 96.8721 24.2292 97.4449 24.2292ZM102.882 25.208V16.8559H104.122V18.1174H104.209C104.361 17.7042 104.637 17.3688 105.035 17.1115C105.434 16.8541 105.884 16.7254 106.384 16.7254C106.478 16.7254 106.596 16.7272 106.737 16.7308C106.879 16.7345 106.986 16.7399 107.058 16.7471V18.0522C107.015 18.0413 106.915 18.025 106.759 18.0032C106.607 17.9778 106.446 17.9652 106.275 17.9652C105.869 17.9652 105.507 18.0503 105.188 18.2207C104.872 18.3875 104.622 18.6195 104.437 18.9167C104.256 19.2104 104.165 19.5457 104.165 19.9227V25.208H102.882ZM111.521 25.382C110.716 25.382 110.022 25.2044 109.438 24.8491C108.858 24.4902 108.41 23.99 108.095 23.3484C107.783 22.7031 107.627 21.9527 107.627 21.0972C107.627 20.2417 107.783 19.4877 108.095 18.8352C108.41 18.179 108.849 17.6679 109.411 17.3018C109.976 16.932 110.636 16.7471 111.39 16.7471C111.825 16.7471 112.255 16.8196 112.679 16.9646C113.103 17.1096 113.489 17.3453 113.837 17.6715C114.185 17.9942 114.462 18.4219 114.669 18.9548C114.876 19.4877 114.979 20.1438 114.979 20.9232V21.467H108.541V20.3577H113.674C113.674 19.8864 113.58 19.4659 113.391 19.0962C113.206 18.7264 112.942 18.4346 112.597 18.2207C112.257 18.0068 111.854 17.8999 111.39 17.8999C110.879 17.8999 110.437 18.0268 110.063 18.2805C109.694 18.5307 109.409 18.8569 109.21 19.2593C109.01 19.6617 108.911 20.0931 108.911 20.5534V21.293C108.911 21.9237 109.019 22.4584 109.237 22.897C109.458 23.332 109.764 23.6637 110.156 23.8921C110.547 24.1169 111.002 24.2292 111.521 24.2292C111.858 24.2292 112.162 24.1821 112.434 24.0879C112.71 23.99 112.947 23.845 113.147 23.6529C113.346 23.4571 113.5 23.2142 113.609 22.9242L114.848 23.2722C114.718 23.6927 114.499 24.0625 114.191 24.3815C113.882 24.6969 113.502 24.9434 113.049 25.121C112.595 25.295 112.086 25.382 111.521 25.382Z" fill="#8C8C8C" style="fill:#8C8C8C;fill:color(display-p3 0.5481 0.5481 0.5481);fill-opacity:1;"/>
</svg>
