<svg width="134" height="40" viewBox="0 0 134 40" fill="none" xmlns="http://www.w3.org/2000/svg">
<rect x="0.441406" width="132.836" height="39.416" rx="19.708" fill="#F9F9F9" style="fill:#F9F9F9;fill:color(display-p3 0.9765 0.9765 0.9765);fill-opacity:1;"/>
<g opacity="0.2">
<rect x="0.40033" y="0.40033" width="132.032" height="38.6156" rx="19.3078" fill="white" style="fill:white;fill-opacity:1;"/>
<rect x="0.40033" y="0.40033" width="132.032" height="38.6156" rx="19.3078" stroke="black" style="stroke:black;stroke-opacity:1;" stroke-width="0.800661"/>
</g>
<path d="M18.7626 25.208V14.0719H22.5254C23.399 14.0719 24.1132 14.2295 24.6678 14.5449C25.226 14.8567 25.6393 15.279 25.9076 15.8119C26.1758 16.3448 26.3099 16.9393 26.3099 17.5954C26.3099 18.2515 26.1758 18.8479 25.9076 19.3844C25.6429 19.9209 25.2333 20.3486 24.6787 20.6676C24.124 20.983 23.4135 21.1407 22.5471 21.1407H19.8501V19.9444H22.5036C23.1018 19.9444 23.5821 19.8411 23.9446 19.6345C24.3071 19.4279 24.5699 19.1487 24.733 18.7971C24.8998 18.4419 24.9832 18.0413 24.9832 17.5954C24.9832 17.1495 24.8998 16.7508 24.733 16.3991C24.5699 16.0475 24.3053 15.772 23.9392 15.5726C23.573 15.3696 23.0873 15.2681 22.4819 15.2681H20.1111V25.208H18.7626ZM33.2656 21.7932V16.8559H34.5488V25.208H33.2656V23.7942H33.1786C32.9828 24.2184 32.6783 24.5791 32.2651 24.8763C31.8518 25.1699 31.3298 25.3168 30.699 25.3168C30.177 25.3168 29.713 25.2026 29.307 24.9742C28.901 24.7422 28.582 24.3942 28.35 23.9302C28.118 23.4625 28.002 22.8735 28.002 22.163V16.8559H29.2853V22.076C29.2853 22.685 29.4556 23.1707 29.7964 23.5332C30.1408 23.8957 30.5794 24.077 31.1123 24.077C31.4313 24.077 31.7557 23.9954 32.0856 23.8323C32.4191 23.6692 32.6983 23.419 32.923 23.0819C33.1514 22.7448 33.2656 22.3152 33.2656 21.7932ZM37.8763 14.0719V25.208H36.593V14.0719H37.8763ZM45.8365 18.7264L44.6837 19.0527C44.6112 18.8605 44.5043 18.6739 44.3629 18.4926C44.2251 18.3077 44.0366 18.1555 43.7974 18.0358C43.5581 17.9162 43.2518 17.8564 42.8784 17.8564C42.3673 17.8564 41.9414 17.9742 41.6006 18.2098C41.2635 18.4419 41.0949 18.7373 41.0949 19.0962C41.0949 19.4152 41.2109 19.6671 41.4429 19.852C41.6749 20.0369 42.0374 20.1909 42.5304 20.3142L43.7702 20.6187C44.517 20.7999 45.0734 21.0773 45.4395 21.4506C45.8057 21.8204 45.9887 22.2971 45.9887 22.8807C45.9887 23.3592 45.851 23.787 45.5755 24.164C45.3036 24.541 44.923 24.8383 44.4336 25.0558C43.9442 25.2733 43.3751 25.382 42.7262 25.382C41.8743 25.382 41.1692 25.1971 40.611 24.8274C40.0527 24.4576 39.6993 23.9175 39.5506 23.207L40.7687 22.9025C40.8847 23.352 41.104 23.6891 41.4266 23.9139C41.7529 24.1386 42.1788 24.251 42.7044 24.251C43.3026 24.251 43.7775 24.1241 44.1291 23.8704C44.4843 23.613 44.662 23.3049 44.662 22.946C44.662 22.656 44.5605 22.4131 44.3575 22.2173C44.1545 22.018 43.8427 21.8693 43.4222 21.7715L42.0302 21.4452C41.2653 21.264 40.7034 20.983 40.3445 20.6024C39.9893 20.2181 39.8117 19.7378 39.8117 19.1614C39.8117 18.6902 39.944 18.2733 40.2086 17.9108C40.4768 17.5483 40.8412 17.2637 41.3015 17.0571C41.7656 16.8505 42.2912 16.7471 42.8784 16.7471C43.705 16.7471 44.3538 16.9284 44.8251 17.2909C45.3 17.6534 45.6371 18.1319 45.8365 18.7264ZM51.116 25.382C50.3112 25.382 49.617 25.2044 49.0334 24.8491C48.4534 24.4902 48.0057 23.99 47.6903 23.3484C47.3786 22.7031 47.2227 21.9527 47.2227 21.0972C47.2227 20.2417 47.3786 19.4877 47.6903 18.8352C48.0057 18.179 48.4443 17.6679 49.0062 17.3018C49.5717 16.932 50.2315 16.7471 50.9855 16.7471C51.4205 16.7471 51.8501 16.8196 52.2742 16.9646C52.6983 17.1096 53.0844 17.3453 53.4324 17.6715C53.7804 17.9942 54.0577 18.4219 54.2643 18.9548C54.471 19.4877 54.5743 20.1438 54.5743 20.9232V21.467H48.1362V20.3577H53.2693C53.2693 19.8864 53.175 19.4659 52.9865 19.0962C52.8016 18.7264 52.537 18.4346 52.1926 18.2207C51.8519 18.0068 51.4495 17.8999 50.9855 17.8999C50.4744 17.8999 50.0321 18.0268 49.6587 18.2805C49.289 18.5307 49.0044 18.8569 48.805 19.2593C48.6056 19.6617 48.506 20.0931 48.506 20.5534V21.293C48.506 21.9237 48.6147 22.4584 48.8322 22.897C49.0533 23.332 49.3597 23.6637 49.7512 23.8921C50.1427 24.1169 50.5976 24.2292 51.116 24.2292C51.4531 24.2292 51.7576 24.1821 52.0295 24.0879C52.305 23.99 52.5424 23.845 52.7418 23.6529C52.9412 23.4571 53.0953 23.2142 53.204 22.9242L54.4438 23.2722C54.3133 23.6927 54.094 24.0625 53.7858 24.3815C53.4777 24.6969 53.0971 24.9434 52.6439 25.121C52.1908 25.295 51.6815 25.382 51.116 25.382ZM64.6575 14.0719H66.006V22.0325C66.006 22.743 65.8755 23.3465 65.6145 23.8432C65.3535 24.3398 64.9856 24.7168 64.5107 24.9742C64.0358 25.2316 63.4757 25.3603 62.8305 25.3603C62.2215 25.3603 61.6795 25.2497 61.2047 25.0286C60.7298 24.8038 60.3564 24.4848 60.0845 24.0716C59.8126 23.6583 59.6767 23.1671 59.6767 22.598H61.0035C61.0035 22.9134 61.0814 23.1889 61.2373 23.4245C61.3968 23.6565 61.6143 23.8377 61.8898 23.9682C62.1653 24.0987 62.4789 24.164 62.8305 24.164C63.2184 24.164 63.5482 24.0824 63.8201 23.9193C64.092 23.7562 64.2986 23.5169 64.44 23.2015C64.585 22.8825 64.6575 22.4928 64.6575 22.0325V14.0719ZM71.6213 25.382C70.8673 25.382 70.2057 25.2026 69.6366 24.8437C69.0711 24.4848 68.6288 23.9827 68.3098 23.3375C67.9944 22.6922 67.8367 21.9382 67.8367 21.0755C67.8367 20.2054 67.9944 19.446 68.3098 18.7971C68.6288 18.1482 69.0711 17.6443 69.6366 17.2855C70.2057 16.9266 70.8673 16.7471 71.6213 16.7471C72.3753 16.7471 73.0351 16.9266 73.6006 17.2855C74.1697 17.6443 74.612 18.1482 74.9273 18.7971C75.2464 19.446 75.4059 20.2054 75.4059 21.0755C75.4059 21.9382 75.2464 22.6922 74.9273 23.3375C74.612 23.9827 74.1697 24.4848 73.6006 24.8437C73.0351 25.2026 72.3753 25.382 71.6213 25.382ZM71.6213 24.2292C72.1941 24.2292 72.6653 24.0824 73.0351 23.7888C73.4048 23.4952 73.6785 23.1091 73.8561 22.6306C74.0338 22.1521 74.1226 21.6337 74.1226 21.0755C74.1226 20.5172 74.0338 19.997 73.8561 19.5149C73.6785 19.0327 73.4048 18.643 73.0351 18.3458C72.6653 18.0485 72.1941 17.8999 71.6213 17.8999C71.0485 17.8999 70.5773 18.0485 70.2075 18.3458C69.8378 18.643 69.5641 19.0327 69.3865 19.5149C69.2088 19.997 69.12 20.5172 69.12 21.0755C69.12 21.6337 69.2088 22.1521 69.3865 22.6306C69.5641 23.1091 69.8378 23.4952 70.2075 23.7888C70.5773 24.0824 71.0485 24.2292 71.6213 24.2292ZM82.3221 21.7932V16.8559H83.6053V25.208H82.3221V23.7942H82.2351C82.0393 24.2184 81.7348 24.5791 81.3216 24.8763C80.9083 25.1699 80.3863 25.3168 79.7555 25.3168C79.2335 25.3168 78.7695 25.2026 78.3635 24.9742C77.9575 24.7422 77.6385 24.3942 77.4065 23.9302C77.1745 23.4625 77.0585 22.8735 77.0585 22.163V16.8559H78.3418V22.076C78.3418 22.685 78.5121 23.1707 78.8529 23.5332C79.1973 23.8957 79.6359 24.077 80.1688 24.077C80.4878 24.077 80.8122 23.9954 81.1421 23.8323C81.4756 23.6692 81.7547 23.419 81.9795 23.0819C82.2079 22.7448 82.3221 22.3152 82.3221 21.7932ZM85.6495 25.208V16.8559H86.8893V18.1174H86.9763C87.1285 17.7042 87.404 17.3688 87.8028 17.1115C88.2015 16.8541 88.651 16.7254 89.1513 16.7254C89.2455 16.7254 89.3633 16.7272 89.5047 16.7308C89.6461 16.7345 89.753 16.7399 89.8255 16.7471V18.0522C89.782 18.0413 89.6824 18.025 89.5265 18.0032C89.3742 17.9778 89.2129 17.9652 89.0425 17.9652C88.6365 17.9652 88.274 18.0503 87.955 18.2207C87.6396 18.3875 87.3895 18.6195 87.2046 18.9167C87.0234 19.2104 86.9328 19.5457 86.9328 19.9227V25.208H85.6495ZM92.3237 20.1837V25.208H91.0405V16.8559H92.2802V18.1609H92.389C92.5847 17.7368 92.882 17.396 93.2807 17.1386C93.6795 16.8776 94.1943 16.7471 94.825 16.7471C95.3905 16.7471 95.8853 16.8631 96.3095 17.0951C96.7336 17.3235 97.0635 17.6715 97.2991 18.1392C97.5347 18.6032 97.6526 19.1904 97.6526 19.9009V25.208H96.3693V19.9879C96.3693 19.3318 96.1989 18.8207 95.8582 18.4545C95.5174 18.0848 95.0498 17.8999 94.4553 17.8999C94.0456 17.8999 93.6795 17.9887 93.3569 18.1663C93.0379 18.344 92.7859 18.6032 92.601 18.9439C92.4162 19.2847 92.3237 19.6979 92.3237 20.1837ZM103.193 25.382C102.388 25.382 101.694 25.2044 101.11 24.8491C100.53 24.4902 100.083 23.99 99.7674 23.3484C99.4556 22.7031 99.2998 21.9527 99.2998 21.0972C99.2998 20.2417 99.4556 19.4877 99.7674 18.8352C100.083 18.179 100.521 17.6679 101.083 17.3018C101.649 16.932 102.309 16.7471 103.063 16.7471C103.498 16.7471 103.927 16.8196 104.351 16.9646C104.775 17.1096 105.161 17.3453 105.509 17.6715C105.857 17.9942 106.135 18.4219 106.341 18.9548C106.548 19.4877 106.651 20.1438 106.651 20.9232V21.467H100.213V20.3577H105.346C105.346 19.8864 105.252 19.4659 105.064 19.0962C104.879 18.7264 104.614 18.4346 104.27 18.2207C103.929 18.0068 103.527 17.8999 103.063 17.8999C102.551 17.8999 102.109 18.0268 101.736 18.2805C101.366 18.5307 101.081 18.8569 100.882 19.2593C100.683 19.6617 100.583 20.0931 100.583 20.5534V21.293C100.583 21.9237 100.692 22.4584 100.909 22.897C101.13 23.332 101.437 23.6637 101.828 23.8921C102.22 24.1169 102.675 24.2292 103.193 24.2292C103.53 24.2292 103.835 24.1821 104.107 24.0879C104.382 23.99 104.62 23.845 104.819 23.6529C105.018 23.4571 105.172 23.2142 105.281 22.9242L106.521 23.2722C106.39 23.6927 106.171 24.0625 105.863 24.3815C105.555 24.6969 105.174 24.9434 104.721 25.121C104.268 25.295 103.759 25.382 103.193 25.382ZM108.87 28.3401C108.652 28.3401 108.458 28.3219 108.288 28.2857C108.117 28.253 107.999 28.2204 107.934 28.1878L108.26 27.0568C108.572 27.1365 108.848 27.1655 109.087 27.1438C109.326 27.122 109.538 27.0151 109.723 26.823C109.912 26.6345 110.084 26.3281 110.24 25.904L110.479 25.2515L107.39 16.8559H108.783L111.088 23.5115H111.175L113.481 16.8559H114.873L111.327 26.426C111.168 26.8574 110.97 27.2145 110.735 27.4972C110.499 27.7836 110.225 27.9957 109.914 28.1334C109.605 28.2712 109.257 28.3401 108.87 28.3401Z" fill="#8C8C8C" style="fill:#8C8C8C;fill:color(display-p3 0.5481 0.5481 0.5481);fill-opacity:1;"/>
</svg>
