<svg width="134" height="40" viewBox="0 0 134 40" fill="none" xmlns="http://www.w3.org/2000/svg">
<rect x="0.441406" width="132.836" height="39.416" rx="19.708" fill="#F9F9F9" style="fill:#F9F9F9;fill:color(display-p3 0.9765 0.9765 0.9765);fill-opacity:1;"/>
<g opacity="0.2">
<rect x="0.40033" y="0.40033" width="132.032" height="38.6156" rx="19.3078" fill="white" style="fill:white;fill-opacity:1;"/>
<rect x="0.40033" y="0.40033" width="132.032" height="38.6156" rx="19.3078" stroke="black" style="stroke:black;stroke-opacity:1;" stroke-width="0.800661"/>
</g>
<path d="M15.7665 25.208V14.0719H19.5293C20.4029 14.0719 21.1171 14.2295 21.6717 14.5449C22.23 14.8567 22.6432 15.279 22.9115 15.8119C23.1797 16.3448 23.3138 16.9393 23.3138 17.5954C23.3138 18.2515 23.1797 18.8479 22.9115 19.3844C22.6468 19.9209 22.2372 20.3486 21.6826 20.6676C21.1279 20.983 20.4174 21.1407 19.551 21.1407H16.854V19.9444H19.5075C20.1057 19.9444 20.586 19.8411 20.9485 19.6345C21.311 19.4279 21.5738 19.1487 21.7369 18.7971C21.9037 18.4419 21.9871 18.0413 21.9871 17.5954C21.9871 17.1495 21.9037 16.7508 21.7369 16.3991C21.5738 16.0475 21.3092 15.772 20.9431 15.5726C20.5769 15.3696 20.0912 15.2681 19.4858 15.2681H17.115V25.208H15.7665ZM27.4637 25.4038C26.9344 25.4038 26.4541 25.3041 26.0227 25.1047C25.5914 24.9017 25.2488 24.6099 24.995 24.2292C24.7413 23.845 24.6144 23.381 24.6144 22.8372C24.6144 22.3587 24.7087 21.9708 24.8972 21.6736C25.0857 21.3727 25.3376 21.1371 25.653 20.9667C25.9684 20.7963 26.3164 20.6694 26.697 20.5861C27.0812 20.4991 27.4673 20.4302 27.8552 20.3794C28.3627 20.3142 28.7741 20.2653 29.0895 20.2326C29.4085 20.1964 29.6405 20.1366 29.7855 20.0532C29.9342 19.9698 30.0085 19.8248 30.0085 19.6182V19.5747C30.0085 19.0382 29.8617 18.6213 29.568 18.324C29.278 18.0268 28.8376 17.8782 28.2467 17.8782C27.6341 17.8782 27.1537 18.0123 26.8057 18.2805C26.4577 18.5488 26.213 18.8352 26.0717 19.1397L24.8537 18.7047C25.0712 18.1972 25.3612 17.802 25.7237 17.5193C26.0898 17.2329 26.4886 17.0335 26.9199 16.9211C27.3549 16.8051 27.7827 16.7471 28.2032 16.7471C28.4715 16.7471 28.7796 16.7798 29.1276 16.845C29.4792 16.9066 29.8182 17.0353 30.1444 17.2311C30.4743 17.4268 30.748 17.7223 30.9655 18.1174C31.183 18.5125 31.2917 19.0418 31.2917 19.7052V25.208H30.0085V24.077H29.9432C29.8562 24.2582 29.7112 24.4522 29.5082 24.6588C29.3052 24.8654 29.0351 25.0413 28.698 25.1863C28.3609 25.3313 27.9494 25.4038 27.4637 25.4038ZM27.6594 24.251C28.167 24.251 28.5947 24.1513 28.9427 23.9519C29.2943 23.7526 29.559 23.4952 29.7366 23.1798C29.9178 22.8644 30.0085 22.5327 30.0085 22.1847V21.0102C29.9541 21.0755 29.8345 21.1353 29.6496 21.1896C29.4683 21.2404 29.2581 21.2857 29.0188 21.3256C28.7832 21.3618 28.553 21.3945 28.3283 21.4235C28.1071 21.4488 27.9277 21.4706 27.7899 21.4887C27.4564 21.5322 27.1447 21.6029 26.8547 21.7008C26.5683 21.795 26.3363 21.9382 26.1587 22.1303C25.9847 22.3188 25.8977 22.5762 25.8977 22.9025C25.8977 23.3484 26.0626 23.6855 26.3925 23.9139C26.726 24.1386 27.1483 24.251 27.6594 24.251ZM33.3277 25.208V16.8559H34.5675V18.1174H34.6545C34.8068 17.7042 35.0823 17.3688 35.481 17.1115C35.8798 16.8541 36.3293 16.7254 36.8295 16.7254C36.9238 16.7254 37.0416 16.7272 37.183 16.7308C37.3244 16.7345 37.4313 16.7399 37.5038 16.7471V18.0522C37.4603 18.0413 37.3606 18.025 37.2047 18.0032C37.0525 17.9778 36.8912 17.9652 36.7208 17.9652C36.3148 17.9652 35.9523 18.0503 35.6333 18.2207C35.3179 18.3875 35.0678 18.6195 34.8829 18.9167C34.7016 19.2104 34.611 19.5457 34.611 19.9227V25.208H33.3277ZM41.8575 25.382C41.0745 25.382 40.4003 25.1971 39.8348 24.8274C39.2693 24.4576 38.8343 23.9483 38.5298 23.2994C38.2252 22.6505 38.073 21.9092 38.073 21.0755C38.073 20.2272 38.2289 19.4786 38.5406 18.8297C38.856 18.1772 39.2946 17.6679 39.8565 17.3018C40.422 16.932 41.0818 16.7471 41.8358 16.7471C42.4231 16.7471 42.9523 16.8559 43.4236 17.0734C43.8948 17.2909 44.2809 17.5954 44.5818 17.9869C44.8827 18.3784 45.0693 18.8352 45.1418 19.3572H43.8586C43.7607 18.9765 43.5432 18.6394 43.2061 18.3458C42.8726 18.0485 42.4231 17.8999 41.8575 17.8999C41.3573 17.8999 40.9187 18.0304 40.5417 18.2914C40.1683 18.5488 39.8765 18.9131 39.6662 19.3844C39.4596 19.852 39.3563 20.4012 39.3563 21.032C39.3563 21.6772 39.4578 22.2391 39.6608 22.7176C39.8674 23.1961 40.1574 23.5677 40.5308 23.8323C40.9078 24.0969 41.35 24.2292 41.8575 24.2292C42.1911 24.2292 42.4937 24.1712 42.7656 24.0552C43.0375 23.9392 43.2677 23.7725 43.4562 23.555C43.6447 23.3375 43.7788 23.0765 43.8586 22.772H45.1418C45.0693 23.265 44.8899 23.709 44.6035 24.1042C44.3208 24.4957 43.9456 24.8074 43.4779 25.0394C43.0139 25.2678 42.4738 25.382 41.8575 25.382ZM50.1046 25.382C49.3506 25.382 48.689 25.2026 48.1199 24.8437C47.5544 24.4848 47.1121 23.9827 46.7931 23.3375C46.4777 22.6922 46.3201 21.9382 46.3201 21.0755C46.3201 20.2054 46.4777 19.446 46.7931 18.7971C47.1121 18.1482 47.5544 17.6443 48.1199 17.2855C48.689 16.9266 49.3506 16.7471 50.1046 16.7471C50.8586 16.7471 51.5184 16.9266 52.0839 17.2855C52.653 17.6443 53.0953 18.1482 53.4107 18.7971C53.7297 19.446 53.8892 20.2054 53.8892 21.0755C53.8892 21.9382 53.7297 22.6922 53.4107 23.3375C53.0953 23.9827 52.653 24.4848 52.0839 24.8437C51.5184 25.2026 50.8586 25.382 50.1046 25.382ZM50.1046 24.2292C50.6774 24.2292 51.1486 24.0824 51.5184 23.7888C51.8881 23.4952 52.1618 23.1091 52.3395 22.6306C52.5171 22.1521 52.6059 21.6337 52.6059 21.0755C52.6059 20.5172 52.5171 19.997 52.3395 19.5149C52.1618 19.0327 51.8881 18.643 51.5184 18.3458C51.1486 18.0485 50.6774 17.8999 50.1046 17.8999C49.5319 17.8999 49.0606 18.0485 48.6908 18.3458C48.3211 18.643 48.0474 19.0327 47.8698 19.5149C47.6921 19.997 47.6033 20.5172 47.6033 21.0755C47.6033 21.6337 47.6921 22.1521 47.8698 22.6306C48.0474 23.1091 48.3211 23.4952 48.6908 23.7888C49.0606 24.0824 49.5319 24.2292 50.1046 24.2292ZM60.8054 21.7932V16.8559H62.0886V25.208H60.8054V23.7942H60.7184C60.5226 24.2184 60.2181 24.5791 59.8049 24.8763C59.3916 25.1699 58.8696 25.3168 58.2388 25.3168C57.7168 25.3168 57.2528 25.2026 56.8468 24.9742C56.4408 24.7422 56.1218 24.3942 55.8898 23.9302C55.6578 23.4625 55.5418 22.8735 55.5418 22.163V16.8559H56.8251V22.076C56.8251 22.685 56.9954 23.1707 57.3362 23.5332C57.6806 23.8957 58.1192 24.077 58.6521 24.077C58.9711 24.077 59.2955 23.9954 59.6254 23.8323C59.9589 23.6692 60.2381 23.419 60.4628 23.0819C60.6912 22.7448 60.8054 22.3152 60.8054 21.7932ZM64.1328 25.208V16.8559H65.3726V18.1174H65.4596C65.6118 17.7042 65.8873 17.3688 66.2861 17.1115C66.6848 16.8541 67.1343 16.7254 67.6346 16.7254C67.7288 16.7254 67.8467 16.7272 67.988 16.7308C68.1294 16.7345 68.2363 16.7399 68.3088 16.7471V18.0522C68.2653 18.0413 68.1657 18.025 68.0098 18.0032C67.8575 17.9778 67.6962 17.9652 67.5258 17.9652C67.1198 17.9652 66.7573 18.0503 66.4383 18.2207C66.1229 18.3875 65.8728 18.6195 65.6879 18.9167C65.5067 19.2104 65.4161 19.5457 65.4161 19.9227V25.208H64.1328ZM75.4398 18.7264L74.2871 19.0527C74.2146 18.8605 74.1076 18.6739 73.9663 18.4926C73.8285 18.3077 73.64 18.1555 73.4008 18.0358C73.1615 17.9162 72.8552 17.8564 72.4818 17.8564C71.9707 17.8564 71.5447 17.9742 71.204 18.2098C70.8668 18.4419 70.6983 18.7373 70.6983 19.0962C70.6983 19.4152 70.8143 19.6671 71.0463 19.852C71.2783 20.0369 71.6408 20.1909 72.1338 20.3142L73.3736 20.6187C74.1203 20.7999 74.6768 21.0773 75.0429 21.4506C75.409 21.8204 75.5921 22.2971 75.5921 22.8807C75.5921 23.3592 75.4543 23.787 75.1788 24.164C74.907 24.541 74.5263 24.8383 74.037 25.0558C73.5476 25.2733 72.9784 25.382 72.3296 25.382C71.4777 25.382 70.7726 25.1971 70.2143 24.8274C69.6561 24.4576 69.3026 23.9175 69.154 23.207L70.372 22.9025C70.488 23.352 70.7073 23.6891 71.03 23.9139C71.3562 24.1386 71.7822 24.251 72.3078 24.251C72.9059 24.251 73.3808 24.1241 73.7324 23.8704C74.0877 23.613 74.2653 23.3049 74.2653 22.946C74.2653 22.656 74.1638 22.4131 73.9608 22.2173C73.7578 22.018 73.4461 21.8693 73.0256 21.7715L71.6335 21.4452C70.8687 21.264 70.3068 20.983 69.9479 20.6024C69.5926 20.2181 69.415 19.7378 69.415 19.1614C69.415 18.6902 69.5473 18.2733 69.812 17.9108C70.0802 17.5483 70.4445 17.2637 70.9049 17.0571C71.3689 16.8505 71.8945 16.7471 72.4818 16.7471C73.3083 16.7471 73.9572 16.9284 74.4285 17.2909C74.9033 17.6534 75.2405 18.1319 75.4398 18.7264ZM81.3919 25.208V14.0719H85.1547C86.0283 14.0719 86.7425 14.2295 87.2971 14.5449C87.8553 14.8567 88.2686 15.279 88.5368 15.8119C88.8051 16.3448 88.9392 16.9393 88.9392 17.5954C88.9392 18.2515 88.8051 18.8479 88.5368 19.3844C88.2722 19.9209 87.8626 20.3486 87.308 20.6676C86.7533 20.983 86.0428 21.1407 85.1764 21.1407H82.4794V19.9444H85.1329C85.7311 19.9444 86.2114 19.8411 86.5739 19.6345C86.9364 19.4279 87.1992 19.1487 87.3623 18.7971C87.5291 18.4419 87.6125 18.0413 87.6125 17.5954C87.6125 17.1495 87.5291 16.7508 87.3623 16.3991C87.1992 16.0475 86.9346 15.772 86.5684 15.5726C86.2023 15.3696 85.7166 15.2681 85.1112 15.2681H82.7404V25.208H81.3919ZM95.8949 21.7932V16.8559H97.1781V25.208H95.8949V23.7942H95.8079C95.6121 24.2184 95.3076 24.5791 94.8944 24.8763C94.4811 25.1699 93.9591 25.3168 93.3283 25.3168C92.8063 25.3168 92.3423 25.2026 91.9363 24.9742C91.5303 24.7422 91.2113 24.3942 90.9793 23.9302C90.7473 23.4625 90.6313 22.8735 90.6313 22.163V16.8559H91.9146V22.076C91.9146 22.685 92.0849 23.1707 92.4257 23.5332C92.7701 23.8957 93.2087 24.077 93.7416 24.077C94.0606 24.077 94.385 23.9954 94.7149 23.8323C95.0484 23.6692 95.3275 23.419 95.5523 23.0819C95.7807 22.7448 95.8949 22.3152 95.8949 21.7932ZM100.506 14.0719V25.208H99.2223V14.0719H100.506ZM108.466 18.7264L107.313 19.0527C107.241 18.8605 107.134 18.6739 106.992 18.4926C106.854 18.3077 106.666 18.1555 106.427 18.0358C106.187 17.9162 105.881 17.8564 105.508 17.8564C104.997 17.8564 104.571 17.9742 104.23 18.2098C103.893 18.4419 103.724 18.7373 103.724 19.0962C103.724 19.4152 103.84 19.6671 104.072 19.852C104.304 20.0369 104.667 20.1909 105.16 20.3142L106.399 20.6187C107.146 20.7999 107.703 21.0773 108.069 21.4506C108.435 21.8204 108.618 22.2971 108.618 22.8807C108.618 23.3592 108.48 23.787 108.205 24.164C107.933 24.541 107.552 24.8383 107.063 25.0558C106.573 25.2733 106.004 25.382 105.355 25.382C104.504 25.382 103.799 25.1971 103.24 24.8274C102.682 24.4576 102.329 23.9175 102.18 23.207L103.398 22.9025C103.514 23.352 103.733 23.6891 104.056 23.9139C104.382 24.1386 104.808 24.251 105.334 24.251C105.932 24.251 106.407 24.1241 106.758 23.8704C107.114 23.613 107.291 23.3049 107.291 22.946C107.291 22.656 107.19 22.4131 106.987 22.2173C106.784 22.018 106.472 21.8693 106.051 21.7715L104.659 21.4452C103.895 21.264 103.333 20.983 102.974 20.6024C102.619 20.2181 102.441 19.7378 102.441 19.1614C102.441 18.6902 102.573 18.2733 102.838 17.9108C103.106 17.5483 103.47 17.2637 103.931 17.0571C104.395 16.8505 104.92 16.7471 105.508 16.7471C106.334 16.7471 106.983 16.9284 107.454 17.2909C107.929 17.6534 108.266 18.1319 108.466 18.7264ZM113.745 25.382C112.941 25.382 112.246 25.2044 111.663 24.8491C111.083 24.4902 110.635 23.99 110.32 23.3484C110.008 22.7031 109.852 21.9527 109.852 21.0972C109.852 20.2417 110.008 19.4877 110.32 18.8352C110.635 18.179 111.074 17.6679 111.636 17.3018C112.201 16.932 112.861 16.7471 113.615 16.7471C114.05 16.7471 114.479 16.8196 114.903 16.9646C115.328 17.1096 115.714 17.3453 116.062 17.6715C116.41 17.9942 116.687 18.4219 116.894 18.9548C117.1 19.4877 117.204 20.1438 117.204 20.9232V21.467H110.765V20.3577H115.899C115.899 19.8864 115.804 19.4659 115.616 19.0962C115.431 18.7264 115.166 18.4346 114.822 18.2207C114.481 18.0068 114.079 17.8999 113.615 17.8999C113.104 17.8999 112.661 18.0268 112.288 18.2805C111.918 18.5307 111.634 18.8569 111.434 19.2593C111.235 19.6617 111.135 20.0931 111.135 20.5534V21.293C111.135 21.9237 111.244 22.4584 111.462 22.897C111.683 23.332 111.989 23.6637 112.38 23.8921C112.772 24.1169 113.227 24.2292 113.745 24.2292C114.082 24.2292 114.387 24.1821 114.659 24.0879C114.934 23.99 115.172 23.845 115.371 23.6529C115.57 23.4571 115.725 23.2142 115.833 22.9242L117.073 23.2722C116.943 23.6927 116.723 24.0625 116.415 24.3815C116.107 24.6969 115.726 24.9434 115.273 25.121C114.82 25.295 114.311 25.382 113.745 25.382Z" fill="#8C8C8C" style="fill:#8C8C8C;fill:color(display-p3 0.5481 0.5481 0.5481);fill-opacity:1;"/>
</svg>
