<svg width="134" height="40" viewBox="0 0 134 40" fill="none" xmlns="http://www.w3.org/2000/svg">
<rect x="0.441406" width="132.836" height="39.416" rx="19.708" fill="#F9F9F9" style="fill:#F9F9F9;fill:color(display-p3 0.9765 0.9765 0.9765);fill-opacity:1;"/>
<g opacity="0.2">
<rect x="0.40033" y="0.40033" width="132.032" height="38.6156" rx="19.3078" fill="white" style="fill:white;fill-opacity:1;"/>
<rect x="0.40033" y="0.40033" width="132.032" height="38.6156" rx="19.3078" stroke="black" style="stroke:black;stroke-opacity:1;" stroke-width="0.800661"/>
</g>
<path d="M29.7237 17.5519H28.3752C28.2954 17.164 28.1559 16.8233 27.9565 16.5296C27.7607 16.236 27.5215 15.9895 27.2387 15.7901C26.9596 15.5871 26.6497 15.4349 26.3089 15.3334C25.9682 15.2319 25.6129 15.1811 25.2431 15.1811C24.5689 15.1811 23.9581 15.3515 23.4107 15.6923C22.8669 16.033 22.4337 16.5351 22.1111 17.1985C21.7921 17.8618 21.6326 18.6757 21.6326 19.6399C21.6326 20.6042 21.7921 21.418 22.1111 22.0814C22.4337 22.7448 22.8669 23.2469 23.4107 23.5876C23.9581 23.9284 24.5689 24.0987 25.2431 24.0987C25.6129 24.0987 25.9682 24.048 26.3089 23.9465C26.6497 23.845 26.9596 23.6945 27.2387 23.4952C27.5215 23.2922 27.7607 23.0439 27.9565 22.7502C28.1559 22.453 28.2954 22.1122 28.3752 21.728H29.7237C29.6222 22.2971 29.4373 22.8064 29.1691 23.2559C28.9008 23.7054 28.5673 24.0879 28.1686 24.4032C27.7698 24.715 27.3221 24.9524 26.8255 25.1156C26.3325 25.2787 25.805 25.3603 25.2431 25.3603C24.2934 25.3603 23.4487 25.1283 22.7092 24.6643C21.9697 24.2002 21.3879 23.5405 20.9638 22.685C20.5396 21.8295 20.3276 20.8144 20.3276 19.6399C20.3276 18.4654 20.5396 17.4504 20.9638 16.5949C21.3879 15.7394 21.9697 15.0796 22.7092 14.6156C23.4487 14.1516 24.2934 13.9196 25.2431 13.9196C25.805 13.9196 26.3325 14.0012 26.8255 14.1643C27.3221 14.3274 27.7698 14.5667 28.1686 14.8821C28.5673 15.1938 28.9008 15.5744 29.1691 16.0239C29.4373 16.4698 29.6222 16.9791 29.7237 17.5519ZM34.8156 25.382C34.0616 25.382 33.4 25.2026 32.8309 24.8437C32.2654 24.4848 31.8231 23.9827 31.5041 23.3375C31.1888 22.6922 31.0311 21.9382 31.0311 21.0755C31.0311 20.2054 31.1888 19.446 31.5041 18.7971C31.8231 18.1482 32.2654 17.6443 32.8309 17.2855C33.4 16.9266 34.0616 16.7471 34.8156 16.7471C35.5696 16.7471 36.2294 16.9266 36.7949 17.2855C37.364 17.6443 37.8063 18.1482 38.1217 18.7971C38.4407 19.446 38.6002 20.2054 38.6002 21.0755C38.6002 21.9382 38.4407 22.6922 38.1217 23.3375C37.8063 23.9827 37.364 24.4848 36.7949 24.8437C36.2294 25.2026 35.5696 25.382 34.8156 25.382ZM34.8156 24.2292C35.3884 24.2292 35.8596 24.0824 36.2294 23.7888C36.5991 23.4952 36.8728 23.1091 37.0505 22.6306C37.2281 22.1521 37.3169 21.6337 37.3169 21.0755C37.3169 20.5172 37.2281 19.997 37.0505 19.5149C36.8728 19.0327 36.5991 18.643 36.2294 18.3458C35.8596 18.0485 35.3884 17.8999 34.8156 17.8999C34.2429 17.8999 33.7716 18.0485 33.4018 18.3458C33.0321 18.643 32.7584 19.0327 32.5808 19.5149C32.4031 19.997 32.3143 20.5172 32.3143 21.0755C32.3143 21.6337 32.4031 22.1521 32.5808 22.6306C32.7584 23.1091 33.0321 23.4952 33.4018 23.7888C33.7716 24.0824 34.2429 24.2292 34.8156 24.2292ZM40.2528 25.208V16.8559H41.4926V18.1174H41.5796C41.7318 17.7042 42.0073 17.3688 42.4061 17.1115C42.8048 16.8541 43.2543 16.7254 43.7546 16.7254C43.8489 16.7254 43.9667 16.7272 44.108 16.7308C44.2494 16.7345 44.3564 16.7399 44.4289 16.7471V18.0522C44.3854 18.0413 44.2857 18.025 44.1298 18.0032C43.9775 17.9778 43.8162 17.9652 43.6459 17.9652C43.2398 17.9652 42.8773 18.0503 42.5583 18.2207C42.243 18.3875 41.9928 18.6195 41.808 18.9167C41.6267 19.2104 41.5361 19.5457 41.5361 19.9227V25.208H40.2528ZM48.8914 25.382C48.0866 25.382 47.3924 25.2044 46.8088 24.8491C46.2288 24.4902 45.7811 23.99 45.4657 23.3484C45.1539 22.7031 44.9981 21.9527 44.9981 21.0972C44.9981 20.2417 45.1539 19.4877 45.4657 18.8352C45.7811 18.179 46.2197 17.6679 46.7816 17.3018C47.3471 16.932 48.0069 16.7471 48.7609 16.7471C49.1959 16.7471 49.6254 16.8196 50.0496 16.9646C50.4737 17.1096 50.8598 17.3453 51.2078 17.6715C51.5558 17.9942 51.8331 18.4219 52.0397 18.9548C52.2464 19.4877 52.3497 20.1438 52.3497 20.9232V21.467H45.9116V20.3577H51.0447C51.0447 19.8864 50.9504 19.4659 50.7619 19.0962C50.577 18.7264 50.3124 18.4346 49.968 18.2207C49.6273 18.0068 49.2249 17.8999 48.7609 17.8999C48.2497 17.8999 47.8075 18.0268 47.4341 18.2805C47.0643 18.5307 46.7798 18.8569 46.5804 19.2593C46.381 19.6617 46.2813 20.0931 46.2813 20.5534V21.293C46.2813 21.9237 46.3901 22.4584 46.6076 22.897C46.8287 23.332 47.135 23.6637 47.5265 23.8921C47.918 24.1169 48.373 24.2292 48.8914 24.2292C49.2285 24.2292 49.533 24.1821 49.8049 24.0879C50.0804 23.99 50.3178 23.845 50.5172 23.6529C50.7166 23.4571 50.8707 23.2142 50.9794 22.9242L52.2192 23.2722C52.0887 23.6927 51.8694 24.0625 51.5612 24.3815C51.2531 24.6969 50.8725 24.9434 50.4193 25.121C49.9662 25.295 49.4569 25.382 48.8914 25.382ZM62.4329 14.0719H63.7814V22.0325C63.7814 22.743 63.6509 23.3465 63.3899 23.8432C63.1289 24.3398 62.761 24.7168 62.2861 24.9742C61.8112 25.2316 61.2511 25.3603 60.6059 25.3603C59.9969 25.3603 59.4549 25.2497 58.98 25.0286C58.5052 24.8038 58.1318 24.4848 57.8599 24.0716C57.588 23.6583 57.4521 23.1671 57.4521 22.598H58.7788C58.7788 22.9134 58.8568 23.1889 59.0127 23.4245C59.1722 23.6565 59.3897 23.8377 59.6652 23.9682C59.9407 24.0987 60.2542 24.164 60.6059 24.164C60.9937 24.164 61.3236 24.0824 61.5955 23.9193C61.8674 23.7562 62.074 23.5169 62.2154 23.2015C62.3604 22.8825 62.4329 22.4928 62.4329 22.0325V14.0719ZM69.3967 25.382C68.6427 25.382 67.9811 25.2026 67.412 24.8437C66.8465 24.4848 66.4042 23.9827 66.0852 23.3375C65.7698 22.6922 65.6121 21.9382 65.6121 21.0755C65.6121 20.2054 65.7698 19.446 66.0852 18.7971C66.4042 18.1482 66.8465 17.6443 67.412 17.2855C67.9811 16.9266 68.6427 16.7471 69.3967 16.7471C70.1507 16.7471 70.8105 16.9266 71.376 17.2855C71.9451 17.6443 72.3874 18.1482 72.7027 18.7971C73.0217 19.446 73.1812 20.2054 73.1812 21.0755C73.1812 21.9382 73.0217 22.6922 72.7027 23.3375C72.3874 23.9827 71.9451 24.4848 71.376 24.8437C70.8105 25.2026 70.1507 25.382 69.3967 25.382ZM69.3967 24.2292C69.9694 24.2292 70.4407 24.0824 70.8105 23.7888C71.1802 23.4952 71.4539 23.1091 71.6315 22.6306C71.8092 22.1521 71.898 21.6337 71.898 21.0755C71.898 20.5172 71.8092 19.997 71.6315 19.5149C71.4539 19.0327 71.1802 18.643 70.8105 18.3458C70.4407 18.0485 69.9694 17.8999 69.3967 17.8999C68.8239 17.8999 68.3527 18.0485 67.9829 18.3458C67.6132 18.643 67.3395 19.0327 67.1618 19.5149C66.9842 19.997 66.8954 20.5172 66.8954 21.0755C66.8954 21.6337 66.9842 22.1521 67.1618 22.6306C67.3395 23.1091 67.6132 23.4952 67.9829 23.7888C68.3527 24.0824 68.8239 24.2292 69.3967 24.2292ZM80.0975 21.7932V16.8559H81.3807V25.208H80.0975V23.7942H80.0105C79.8147 24.2184 79.5102 24.5791 79.0969 24.8763C78.6837 25.1699 78.1617 25.3168 77.5309 25.3168C77.0089 25.3168 76.5449 25.2026 76.1389 24.9742C75.7329 24.7422 75.4139 24.3942 75.1819 23.9302C74.9499 23.4625 74.8339 22.8735 74.8339 22.163V16.8559H76.1172V22.076C76.1172 22.685 76.2875 23.1707 76.6283 23.5332C76.9727 23.8957 77.4113 24.077 77.9442 24.077C78.2632 24.077 78.5876 23.9954 78.9175 23.8323C79.251 23.6692 79.5301 23.419 79.7549 23.0819C79.9833 22.7448 80.0975 22.3152 80.0975 21.7932ZM83.4249 25.208V16.8559H84.6646V18.1174H84.7516C84.9039 17.7042 85.1794 17.3688 85.5781 17.1115C85.9769 16.8541 86.4264 16.7254 86.9267 16.7254C87.0209 16.7254 87.1387 16.7272 87.2801 16.7308C87.4215 16.7345 87.5284 16.7399 87.6009 16.7471V18.0522C87.5574 18.0413 87.4577 18.025 87.3019 18.0032C87.1496 17.9778 86.9883 17.9652 86.8179 17.9652C86.4119 17.9652 86.0494 18.0503 85.7304 18.2207C85.415 18.3875 85.1649 18.6195 84.98 18.9167C84.7988 19.2104 84.7081 19.5457 84.7081 19.9227V25.208H83.4249ZM90.0991 20.1837V25.208H88.8158V16.8559H90.0556V18.1609H90.1644C90.3601 17.7368 90.6574 17.396 91.0561 17.1386C91.4549 16.8776 91.9696 16.7471 92.6004 16.7471C93.1659 16.7471 93.6607 16.8631 94.0849 17.0951C94.509 17.3235 94.8389 17.6715 95.0745 18.1392C95.3101 18.6032 95.4279 19.1904 95.4279 19.9009V25.208H94.1447V19.9879C94.1447 19.3318 93.9743 18.8207 93.6335 18.4545C93.2928 18.0848 92.8251 17.8999 92.2306 17.8999C91.821 17.8999 91.4549 17.9887 91.1323 18.1663C90.8132 18.344 90.5613 18.6032 90.3764 18.9439C90.1915 19.2847 90.0991 19.6979 90.0991 20.1837ZM100.968 25.382C100.164 25.382 99.4695 25.2044 98.8859 24.8491C98.3058 24.4902 97.8582 23.99 97.5428 23.3484C97.231 22.7031 97.0751 21.9527 97.0751 21.0972C97.0751 20.2417 97.231 19.4877 97.5428 18.8352C97.8582 18.179 98.2968 17.6679 98.8587 17.3018C99.4242 16.932 100.084 16.7471 100.838 16.7471C101.273 16.7471 101.703 16.8196 102.127 16.9646C102.551 17.1096 102.937 17.3453 103.285 17.6715C103.633 17.9942 103.91 18.4219 104.117 18.9548C104.323 19.4877 104.427 20.1438 104.427 20.9232V21.467H97.9887V20.3577H103.122C103.122 19.8864 103.027 19.4659 102.839 19.0962C102.654 18.7264 102.389 18.4346 102.045 18.2207C101.704 18.0068 101.302 17.8999 100.838 17.8999C100.327 17.8999 99.8846 18.0268 99.5112 18.2805C99.1414 18.5307 98.8569 18.8569 98.6575 19.2593C98.4581 19.6617 98.3584 20.0931 98.3584 20.5534V21.293C98.3584 21.9237 98.4672 22.4584 98.6847 22.897C98.9058 23.332 99.2121 23.6637 99.6036 23.8921C99.9951 24.1169 100.45 24.2292 100.968 24.2292C101.306 24.2292 101.61 24.1821 101.882 24.0879C102.157 23.99 102.395 23.845 102.594 23.6529C102.794 23.4571 102.948 23.2142 103.056 22.9242L104.296 23.2722C104.166 23.6927 103.946 24.0625 103.638 24.3815C103.33 24.6969 102.95 24.9434 102.496 25.121C102.043 25.295 101.534 25.382 100.968 25.382ZM106.645 28.3401C106.427 28.3401 106.233 28.3219 106.063 28.2857C105.893 28.253 105.775 28.2204 105.71 28.1878L106.036 27.0568C106.348 27.1365 106.623 27.1655 106.862 27.1438C107.102 27.122 107.314 27.0151 107.499 26.823C107.687 26.6345 107.859 26.3281 108.015 25.904L108.254 25.2515L105.166 16.8559H106.558L108.863 23.5115H108.95L111.256 16.8559H112.648L109.103 26.426C108.943 26.8574 108.746 27.2145 108.51 27.4972C108.274 27.7836 108.001 27.9957 107.689 28.1334C107.381 28.2712 107.033 28.3401 106.645 28.3401Z" fill="#8C8C8C" style="fill:#8C8C8C;fill:color(display-p3 0.5481 0.5481 0.5481);fill-opacity:1;"/>
</svg>
