<svg width="134" height="40" viewBox="0 0 134 40" fill="none" xmlns="http://www.w3.org/2000/svg">
<rect x="0.441406" width="132.836" height="39.416" rx="19.708" fill="#F9F9F9" style="fill:#F9F9F9;fill:color(display-p3 0.9765 0.9765 0.9765);fill-opacity:1;"/>
<g opacity="0.2">
<rect x="0.40033" y="0.40033" width="132.032" height="38.6156" rx="19.3078" fill="white" style="fill:white;fill-opacity:1;"/>
<rect x="0.40033" y="0.40033" width="132.032" height="38.6156" rx="19.3078" stroke="black" style="stroke:black;stroke-opacity:1;" stroke-width="0.800661"/>
</g>
<path d="M21.7665 25.208V14.0719H25.5293C26.4029 14.0719 27.1171 14.2295 27.6717 14.5449C28.23 14.8567 28.6432 15.279 28.9115 15.8119C29.1797 16.3448 29.3138 16.9393 29.3138 17.5954C29.3138 18.2515 29.1797 18.8479 28.9115 19.3844C28.6468 19.9209 28.2372 20.3486 27.6826 20.6676C27.1279 20.983 26.4174 21.1407 25.551 21.1407H22.854V19.9444H25.5075C26.1057 19.9444 26.586 19.8411 26.9485 19.6345C27.311 19.4279 27.5738 19.1487 27.7369 18.7971C27.9037 18.4419 27.9871 18.0413 27.9871 17.5954C27.9871 17.1495 27.9037 16.7508 27.7369 16.3991C27.5738 16.0475 27.3092 15.772 26.9431 15.5726C26.5769 15.3696 26.0912 15.2681 25.4858 15.2681H23.115V25.208H21.7665ZM33.4637 25.4038C32.9344 25.4038 32.4541 25.3041 32.0227 25.1047C31.5914 24.9017 31.2488 24.6099 30.995 24.2292C30.7413 23.845 30.6144 23.381 30.6144 22.8372C30.6144 22.3587 30.7087 21.9708 30.8972 21.6736C31.0857 21.3727 31.3376 21.1371 31.653 20.9667C31.9684 20.7963 32.3164 20.6694 32.697 20.5861C33.0812 20.4991 33.4673 20.4302 33.8552 20.3794C34.3627 20.3142 34.7741 20.2653 35.0895 20.2326C35.4085 20.1964 35.6405 20.1366 35.7855 20.0532C35.9342 19.9698 36.0085 19.8248 36.0085 19.6182V19.5747C36.0085 19.0382 35.8617 18.6213 35.568 18.324C35.278 18.0268 34.8376 17.8782 34.2467 17.8782C33.6341 17.8782 33.1537 18.0123 32.8057 18.2805C32.4577 18.5488 32.213 18.8352 32.0717 19.1397L30.8537 18.7047C31.0712 18.1972 31.3612 17.802 31.7237 17.5193C32.0898 17.2329 32.4886 17.0335 32.9199 16.9211C33.3549 16.8051 33.7827 16.7471 34.2032 16.7471C34.4715 16.7471 34.7796 16.7798 35.1276 16.845C35.4792 16.9066 35.8182 17.0353 36.1444 17.2311C36.4743 17.4268 36.748 17.7223 36.9655 18.1174C37.183 18.5125 37.2917 19.0418 37.2917 19.7052V25.208H36.0085V24.077H35.9432C35.8562 24.2582 35.7112 24.4522 35.5082 24.6588C35.3052 24.8654 35.0351 25.0413 34.698 25.1863C34.3609 25.3313 33.9494 25.4038 33.4637 25.4038ZM33.6594 24.251C34.167 24.251 34.5947 24.1513 34.9427 23.9519C35.2943 23.7526 35.559 23.4952 35.7366 23.1798C35.9178 22.8644 36.0085 22.5327 36.0085 22.1847V21.0102C35.9541 21.0755 35.8345 21.1353 35.6496 21.1896C35.4683 21.2404 35.2581 21.2857 35.0188 21.3256C34.7832 21.3618 34.553 21.3945 34.3283 21.4235C34.1071 21.4488 33.9277 21.4706 33.7899 21.4887C33.4564 21.5322 33.1447 21.6029 32.8547 21.7008C32.5683 21.795 32.3363 21.9382 32.1587 22.1303C31.9847 22.3188 31.8977 22.5762 31.8977 22.9025C31.8977 23.3484 32.0626 23.6855 32.3925 23.9139C32.726 24.1386 33.1483 24.251 33.6594 24.251ZM39.3277 25.208V16.8559H40.5675V18.1174H40.6545C40.8068 17.7042 41.0823 17.3688 41.481 17.1115C41.8798 16.8541 42.3293 16.7254 42.8295 16.7254C42.9238 16.7254 43.0416 16.7272 43.183 16.7308C43.3244 16.7345 43.4313 16.7399 43.5038 16.7471V18.0522C43.4603 18.0413 43.3606 18.025 43.2047 18.0032C43.0525 17.9778 42.8912 17.9652 42.7208 17.9652C42.3148 17.9652 41.9523 18.0503 41.6333 18.2207C41.3179 18.3875 41.0678 18.6195 40.8829 18.9167C40.7016 19.2104 40.611 19.5457 40.611 19.9227V25.208H39.3277ZM47.8575 25.382C47.0745 25.382 46.4003 25.1971 45.8348 24.8274C45.2693 24.4576 44.8343 23.9483 44.5298 23.2994C44.2252 22.6505 44.073 21.9092 44.073 21.0755C44.073 20.2272 44.2289 19.4786 44.5406 18.8297C44.856 18.1772 45.2946 17.6679 45.8565 17.3018C46.422 16.932 47.0818 16.7471 47.8358 16.7471C48.4231 16.7471 48.9523 16.8559 49.4236 17.0734C49.8948 17.2909 50.2809 17.5954 50.5818 17.9869C50.8827 18.3784 51.0693 18.8352 51.1418 19.3572H49.8586C49.7607 18.9765 49.5432 18.6394 49.2061 18.3458C48.8726 18.0485 48.4231 17.8999 47.8575 17.8999C47.3573 17.8999 46.9187 18.0304 46.5417 18.2914C46.1683 18.5488 45.8765 18.9131 45.6662 19.3844C45.4596 19.852 45.3563 20.4012 45.3563 21.032C45.3563 21.6772 45.4578 22.2391 45.6608 22.7176C45.8674 23.1961 46.1574 23.5677 46.5308 23.8323C46.9078 24.0969 47.35 24.2292 47.8575 24.2292C48.1911 24.2292 48.4937 24.1712 48.7656 24.0552C49.0375 23.9392 49.2677 23.7725 49.4562 23.555C49.6447 23.3375 49.7788 23.0765 49.8586 22.772H51.1418C51.0693 23.265 50.8899 23.709 50.6035 24.1042C50.3208 24.4957 49.9456 24.8074 49.4779 25.0394C49.0139 25.2678 48.4738 25.382 47.8575 25.382ZM56.1046 25.382C55.3506 25.382 54.689 25.2026 54.1199 24.8437C53.5544 24.4848 53.1121 23.9827 52.7931 23.3375C52.4777 22.6922 52.3201 21.9382 52.3201 21.0755C52.3201 20.2054 52.4777 19.446 52.7931 18.7971C53.1121 18.1482 53.5544 17.6443 54.1199 17.2855C54.689 16.9266 55.3506 16.7471 56.1046 16.7471C56.8586 16.7471 57.5184 16.9266 58.0839 17.2855C58.653 17.6443 59.0953 18.1482 59.4107 18.7971C59.7297 19.446 59.8892 20.2054 59.8892 21.0755C59.8892 21.9382 59.7297 22.6922 59.4107 23.3375C59.0953 23.9827 58.653 24.4848 58.0839 24.8437C57.5184 25.2026 56.8586 25.382 56.1046 25.382ZM56.1046 24.2292C56.6774 24.2292 57.1486 24.0824 57.5184 23.7888C57.8881 23.4952 58.1618 23.1091 58.3395 22.6306C58.5171 22.1521 58.6059 21.6337 58.6059 21.0755C58.6059 20.5172 58.5171 19.997 58.3395 19.5149C58.1618 19.0327 57.8881 18.643 57.5184 18.3458C57.1486 18.0485 56.6774 17.8999 56.1046 17.8999C55.5319 17.8999 55.0606 18.0485 54.6908 18.3458C54.3211 18.643 54.0474 19.0327 53.8698 19.5149C53.6921 19.997 53.6033 20.5172 53.6033 21.0755C53.6033 21.6337 53.6921 22.1521 53.8698 22.6306C54.0474 23.1091 54.3211 23.4952 54.6908 23.7888C55.0606 24.0824 55.5319 24.2292 56.1046 24.2292ZM66.8054 21.7932V16.8559H68.0886V25.208H66.8054V23.7942H66.7184C66.5226 24.2184 66.2181 24.5791 65.8049 24.8763C65.3916 25.1699 64.8696 25.3168 64.2388 25.3168C63.7168 25.3168 63.2528 25.2026 62.8468 24.9742C62.4408 24.7422 62.1218 24.3942 61.8898 23.9302C61.6578 23.4625 61.5418 22.8735 61.5418 22.163V16.8559H62.8251V22.076C62.8251 22.685 62.9954 23.1707 63.3362 23.5332C63.6806 23.8957 64.1192 24.077 64.6521 24.077C64.9711 24.077 65.2955 23.9954 65.6254 23.8323C65.9589 23.6692 66.2381 23.419 66.4628 23.0819C66.6912 22.7448 66.8054 22.3152 66.8054 21.7932ZM70.1328 25.208V16.8559H71.3726V18.1174H71.4596C71.6118 17.7042 71.8873 17.3688 72.2861 17.1115C72.6848 16.8541 73.1343 16.7254 73.6346 16.7254C73.7288 16.7254 73.8467 16.7272 73.988 16.7308C74.1294 16.7345 74.2363 16.7399 74.3088 16.7471V18.0522C74.2653 18.0413 74.1657 18.025 74.0098 18.0032C73.8575 17.9778 73.6962 17.9652 73.5258 17.9652C73.1198 17.9652 72.7573 18.0503 72.4383 18.2207C72.1229 18.3875 71.8728 18.6195 71.6879 18.9167C71.5067 19.2104 71.4161 19.5457 71.4161 19.9227V25.208H70.1328ZM81.4398 18.7264L80.2871 19.0527C80.2146 18.8605 80.1076 18.6739 79.9663 18.4926C79.8285 18.3077 79.64 18.1555 79.4008 18.0358C79.1615 17.9162 78.8552 17.8564 78.4818 17.8564C77.9707 17.8564 77.5447 17.9742 77.204 18.2098C76.8668 18.4419 76.6983 18.7373 76.6983 19.0962C76.6983 19.4152 76.8143 19.6671 77.0463 19.852C77.2783 20.0369 77.6408 20.1909 78.1338 20.3142L79.3736 20.6187C80.1203 20.7999 80.6768 21.0773 81.0429 21.4506C81.409 21.8204 81.5921 22.2971 81.5921 22.8807C81.5921 23.3592 81.4543 23.787 81.1788 24.164C80.907 24.541 80.5263 24.8383 80.037 25.0558C79.5476 25.2733 78.9784 25.382 78.3296 25.382C77.4777 25.382 76.7726 25.1971 76.2143 24.8274C75.6561 24.4576 75.3026 23.9175 75.154 23.207L76.372 22.9025C76.488 23.352 76.7073 23.6891 77.03 23.9139C77.3562 24.1386 77.7822 24.251 78.3078 24.251C78.9059 24.251 79.3808 24.1241 79.7324 23.8704C80.0877 23.613 80.2653 23.3049 80.2653 22.946C80.2653 22.656 80.1638 22.4131 79.9608 22.2173C79.7578 22.018 79.4461 21.8693 79.0256 21.7715L77.6335 21.4452C76.8687 21.264 76.3068 20.983 75.9479 20.6024C75.5926 20.2181 75.415 19.7378 75.415 19.1614C75.415 18.6902 75.5473 18.2733 75.812 17.9108C76.0802 17.5483 76.4445 17.2637 76.9049 17.0571C77.3689 16.8505 77.8945 16.7471 78.4818 16.7471C79.3083 16.7471 79.9572 16.9284 80.4285 17.2909C80.9033 17.6534 81.2405 18.1319 81.4398 18.7264ZM87.3919 25.208V14.0719H88.7404V24.0117H93.917V25.208H87.3919ZM95.5247 25.208V16.8559H96.808V25.208H95.5247ZM96.1773 15.4639C95.9271 15.4639 95.7114 15.3787 95.5302 15.2083C95.3526 15.0379 95.2637 14.8331 95.2637 14.5939C95.2637 14.3546 95.3526 14.1498 95.5302 13.9794C95.7114 13.809 95.9271 13.7238 96.1773 13.7238C96.4274 13.7238 96.6413 13.809 96.8189 13.9794C97.0001 14.1498 97.0908 14.3546 97.0908 14.5939C97.0908 14.8331 97.0001 15.0379 96.8189 15.2083C96.6413 15.3787 96.4274 15.4639 96.1773 15.4639ZM102.571 16.8559V17.9434H98.0691V16.8559H102.571ZM99.4177 25.208V15.7031C99.4177 15.2246 99.53 14.8259 99.7548 14.5069C99.9795 14.1879 100.271 13.9486 100.63 13.7891C100.989 13.6296 101.368 13.5498 101.767 13.5498C102.082 13.5498 102.339 13.5752 102.539 13.626C102.738 13.6767 102.887 13.7238 102.985 13.7673L102.615 14.8766C102.55 14.8549 102.459 14.8277 102.343 14.7951C102.231 14.7624 102.082 14.7461 101.897 14.7461C101.473 14.7461 101.167 14.8531 100.978 15.0669C100.793 15.2808 100.701 15.5944 100.701 16.0076V25.208H99.4177ZM107.222 25.382C106.417 25.382 105.723 25.2044 105.139 24.8491C104.559 24.4902 104.111 23.99 103.796 23.3484C103.484 22.7031 103.328 21.9527 103.328 21.0972C103.328 20.2417 103.484 19.4877 103.796 18.8352C104.111 18.179 104.55 17.6679 105.112 17.3018C105.677 16.932 106.337 16.7471 107.091 16.7471C107.526 16.7471 107.956 16.8196 108.38 16.9646C108.804 17.1096 109.19 17.3453 109.538 17.6715C109.886 17.9942 110.163 18.4219 110.37 18.9548C110.577 19.4877 110.68 20.1438 110.68 20.9232V21.467H104.242V20.3577H109.375C109.375 19.8864 109.281 19.4659 109.092 19.0962C108.907 18.7264 108.643 18.4346 108.298 18.2207C107.957 18.0068 107.555 17.8999 107.091 17.8999C106.58 17.8999 106.138 18.0268 105.764 18.2805C105.395 18.5307 105.11 18.8569 104.911 19.2593C104.711 19.6617 104.612 20.0931 104.612 20.5534V21.293C104.612 21.9237 104.72 22.4584 104.938 22.897C105.159 23.332 105.465 23.6637 105.857 23.8921C106.248 24.1169 106.703 24.2292 107.222 24.2292C107.559 24.2292 107.863 24.1821 108.135 24.0879C108.411 23.99 108.648 23.845 108.847 23.6529C109.047 23.4571 109.201 23.2142 109.31 22.9242L110.549 23.2722C110.419 23.6927 110.2 24.0625 109.891 24.3815C109.583 24.6969 109.203 24.9434 108.75 25.121C108.296 25.295 107.787 25.382 107.222 25.382Z" fill="#8C8C8C" style="fill:#8C8C8C;fill:color(display-p3 0.5481 0.5481 0.5481);fill-opacity:1;"/>
</svg>
