<svg width="153" height="61" viewBox="0 0 153 61" fill="none" xmlns="http://www.w3.org/2000/svg">
<path d="M62.4648 50.7676V61H0V50.7676H62.4648ZM62.4648 39.2725L0 48.6279V38.3994L62.4648 29.04V39.2725ZM62.4648 26.9004H0V16.668H62.4648V26.9004ZM62.4648 10.2324H0V0H62.4648V10.2324Z" fill="white" style="fill:white;fill-opacity:1;"/>
<path d="M120.104 21.5146C122.361 20.5797 124.844 20.3351 127.24 20.8115C129.636 21.288 131.837 22.4642 133.564 24.1914C135.291 25.9186 136.468 28.1191 136.944 30.5146C137.421 32.9105 137.175 35.3946 136.24 37.6514C135.305 39.9079 133.722 41.8367 131.69 43.1934C129.659 44.55 127.271 45.274 124.828 45.2734C123.202 45.2921 121.588 44.9849 120.082 44.3711C118.576 43.7572 117.207 42.8485 116.057 41.6982C114.907 40.5481 113.998 39.18 113.384 37.6738C112.77 36.1675 112.464 34.5533 112.482 32.9268C112.482 30.4841 113.205 28.0958 114.562 26.0645C115.918 24.0331 117.848 22.4497 120.104 21.5146ZM106.821 22.6914L93.3877 42.418H107.189V44.834H89.9883V43.1553L103.422 23.4316H90.3936V21.0156H106.821V22.6914ZM148.158 44.833H145.613V21.0771H148.158V44.833ZM124.828 23C119.277 23.0002 115.072 27.3323 115.072 32.9268C115.072 38.5212 119.277 42.8504 124.828 42.8506C130.379 42.8506 134.588 38.512 134.588 32.9268C134.588 27.3414 130.379 23 124.828 23ZM152.179 17.7627H141.593V15.7227H152.179V17.7627Z" fill="white" style="fill:white;fill-opacity:1;"/>
</svg>
