<svg width="185" height="95" viewBox="0 0 185 95" fill="none" xmlns="http://www.w3.org/2000/svg">
<rect x="0.734375" y="0.833984" width="184.242" height="93.6523" fill="black" style="fill:black;fill-opacity:1;"/>
<path d="M78.4648 67.7686V78.002H16V67.7686H78.4648ZM78.4648 56.2744L16 65.6299V55.4014L78.4648 46.041V56.2744ZM78.4648 43.9004H16V33.668H78.4648V43.9004ZM78.4648 27.2324H16V17H78.4648V27.2324Z" fill="white" style="fill:white;fill-opacity:1;"/>
<path d="M136.104 38.5166C138.361 37.5816 140.844 37.3371 143.24 37.8135C145.636 38.2899 147.837 39.4661 149.564 41.1934C151.291 42.9205 152.468 45.121 152.944 47.5166C153.421 49.9125 153.175 52.3966 152.24 54.6533C151.305 56.9099 149.722 58.8386 147.69 60.1953C145.659 61.552 143.271 62.276 140.828 62.2754C139.202 62.294 137.588 61.9868 136.082 61.373C134.576 60.7592 133.207 59.8504 132.057 58.7002C130.907 57.5501 129.998 56.182 129.384 54.6758C128.77 53.1694 128.464 51.5552 128.482 49.9287C128.482 47.486 129.205 45.0977 130.562 43.0664C131.918 41.0351 133.848 39.4517 136.104 38.5166ZM164.158 61.835H161.613V38.0791H164.158V61.835ZM122.821 39.6914L109.388 59.418H123.189V61.834H105.988V60.1553L119.422 40.4316H106.394V38.0156H122.821V39.6914ZM140.828 40.002C135.277 40.0021 131.072 44.3342 131.072 49.9287C131.072 55.5232 135.277 59.8524 140.828 59.8525C146.379 59.8525 150.588 55.514 150.588 49.9287C150.588 44.3434 146.379 40.002 140.828 40.002ZM168.179 34.7646H157.593V32.7246H168.179V34.7646Z" fill="white" style="fill:white;fill-opacity:1;"/>
</svg>
