<svg width="82" height="82" viewBox="0 0 82 82" fill="none" xmlns="http://www.w3.org/2000/svg">
<path d="M76.4617 41.0325C76.4617 21.6514 60.5471 5.73689 41.166 5.73689C21.6274 5.73689 5.87036 21.6514 5.87036 41.0325C5.87036 51.7473 10.4399 61.2015 18.0032 67.6619L23.5182 51.117H58.8138L64.3288 67.6619C71.7346 61.2015 76.4617 51.7473 76.4617 41.0325ZM60.0744 70.9708L55.0322 56.1593H27.1423L22.2576 70.9708C27.615 74.4374 34.0754 76.3282 41.166 76.3282C48.0991 76.3282 54.5595 74.2798 60.0744 70.8133V70.9708ZM0.828125 41.0325C0.828125 26.6937 8.39148 13.4578 20.9971 6.2096C33.4451 -1.03862 48.7294 -1.03862 61.335 6.2096C73.783 13.4578 81.5039 26.6937 81.5039 41.0325C81.5039 55.529 73.783 68.7648 61.335 76.0131C48.7294 83.2613 33.4451 83.2613 20.9971 76.0131C8.39148 68.7648 0.828125 55.529 0.828125 41.0325ZM33.6027 33.4692C33.6027 36.3054 35.0208 38.669 37.3843 40.0871C39.5903 41.5053 42.5841 41.5053 44.9477 40.0871C47.1537 38.669 48.7294 36.3054 48.7294 33.4692C48.7294 30.7905 47.1537 28.427 44.9477 27.0088C42.5841 25.5907 39.5903 25.5907 37.3843 27.0088C35.0208 28.427 33.6027 30.7905 33.6027 33.4692ZM41.166 46.0748C36.5965 46.0748 32.4997 43.7112 30.1361 39.772C27.9301 35.9903 27.9301 31.1056 30.1361 27.1664C32.4997 23.3847 36.5965 20.8636 41.166 20.8636C45.578 20.8636 49.6748 23.3847 52.0383 27.1664C54.2443 31.1056 54.2443 35.9903 52.0383 39.772C49.6748 43.7112 45.578 46.0748 41.166 46.0748Z" fill="#8E9198" style="fill:#8E9198;fill:color(display-p3 0.5556 0.5675 0.5953);fill-opacity:1;"/>
</svg>
