<svg width="119" height="119" viewBox="0 0 119 119" fill="none" xmlns="http://www.w3.org/2000/svg">
<path d="M94.4617 63.0325C94.4617 43.6514 78.5471 27.7369 59.166 27.7369C39.6274 27.7369 23.8704 43.6514 23.8704 63.0325C23.8704 73.7473 28.4399 83.2015 36.0032 89.6619L41.5182 73.117H76.8138L82.3288 89.6619C89.7346 83.2015 94.4617 73.7473 94.4617 63.0325ZM78.0744 92.9708L73.0322 78.1593H45.1423L40.2576 92.9708C45.615 96.4374 52.0754 98.3282 59.166 98.3282C66.0991 98.3282 72.5595 96.2798 78.0744 92.8133V92.9708ZM18.8281 63.0325C18.8281 48.6937 26.3915 35.4578 38.9971 28.2096C51.4451 20.9614 66.7294 20.9614 79.335 28.2096C91.783 35.4578 99.5039 48.6937 99.5039 63.0325C99.5039 77.529 91.783 90.7648 79.335 98.0131C66.7294 105.261 51.4451 105.261 38.9971 98.0131C26.3915 90.7648 18.8281 77.529 18.8281 63.0325ZM51.6027 55.4692C51.6027 58.3054 53.0208 60.669 55.3843 62.0871C57.5903 63.5053 60.5841 63.5053 62.9477 62.0871C65.1537 60.669 66.7294 58.3054 66.7294 55.4692C66.7294 52.7905 65.1537 50.427 62.9477 49.0088C60.5841 47.5907 57.5903 47.5907 55.3843 49.0088C53.0208 50.427 51.6027 52.7905 51.6027 55.4692ZM59.166 68.0748C54.5965 68.0748 50.4997 65.7112 48.1361 61.772C45.9301 57.9903 45.9301 53.1056 48.1361 49.1664C50.4997 45.3847 54.5965 42.8636 59.166 42.8636C63.578 42.8636 67.6748 45.3847 70.0383 49.1664C72.2443 53.1056 72.2443 57.9903 70.0383 61.772C67.6748 65.7112 63.578 68.0748 59.166 68.0748Z" fill="#8E9198" style="fill:#8E9198;fill:color(display-p3 0.5556 0.5675 0.5953);fill-opacity:1;"/>
</svg>
