<svg width="913" height="171" viewBox="0 0 913 171" fill="none" xmlns="http://www.w3.org/2000/svg">
<path d="M23.2656 89.5293H885.27" stroke="#F6F7F8" style="stroke:#F6F7F8;stroke:color(display-p3 0.9647 0.9686 0.9725);stroke-opacity:1;" stroke-width="3.88732" stroke-miterlimit="10" stroke-linejoin="round"/>
<path fill-rule="evenodd" clip-rule="evenodd" d="M357.578 85.6406H549.985V93.4153H357.578V85.6406Z" fill="#DFE2E6" style="fill:#DFE2E6;fill:color(display-p3 0.8745 0.8863 0.9020);fill-opacity:1;"/>
<path d="M24.8164 42.5313V25.5547H30.1311L32.8947 33.3597C33.0162 33.7241 33.1478 34.1999 33.2895 34.7871C33.4313 35.354 33.573 35.9715 33.7147 36.6396C33.8767 37.3077 34.0184 37.9556 34.1399 38.5833C34.2816 39.2109 34.393 39.7576 34.474 40.2232H33.8058C33.8868 39.7576 33.9982 39.2109 34.1399 38.5833C34.2816 37.9556 34.4233 37.3077 34.5651 36.6396C34.727 35.9715 34.8789 35.354 35.0206 34.7871C35.1623 34.1999 35.2939 33.7241 35.4154 33.3597L38.1183 25.5547H43.4634V42.5313H39.9709V34.5441C39.9709 34.1594 39.9709 33.6938 39.9709 33.1471C39.9911 32.6004 40.0114 32.0032 40.0316 31.3553C40.0518 30.7074 40.0721 30.0595 40.0923 29.4116C40.1126 28.7637 40.1227 28.1564 40.1227 27.5895H40.3353C40.1936 28.2171 40.0316 28.865 39.8494 29.5331C39.6874 30.2012 39.5153 30.8491 39.3331 31.4768C39.1509 32.1044 38.9788 32.6814 38.8168 33.2078C38.6548 33.7342 38.5232 34.1797 38.422 34.5441L35.5976 42.5313H32.6821L29.8274 34.5441C29.7059 34.1797 29.5642 33.7444 29.4022 33.2382C29.2403 32.7118 29.0682 32.1348 28.8859 31.5071C28.724 30.8795 28.5519 30.2316 28.3697 29.5635C28.1874 28.8751 28.0153 28.2171 27.8534 27.5895H28.0963C28.1166 28.1361 28.1267 28.7334 28.1267 29.3813C28.1469 30.0089 28.1672 30.6467 28.1874 31.2946C28.2077 31.9424 28.2178 32.5498 28.2178 33.1167C28.2381 33.6836 28.2482 34.1594 28.2482 34.5441V42.5313H24.8164ZM52.1946 42.7743C50.8989 42.7743 49.7752 42.5111 48.8236 41.9847C47.8923 41.4583 47.1735 40.7091 46.6674 39.7373C46.1612 38.7452 45.9081 37.5811 45.9081 36.2448C45.9081 34.9288 46.1612 33.7747 46.6674 32.7827C47.1735 31.7906 47.8822 31.0212 48.7932 30.4746C49.7246 29.9077 50.8078 29.6242 52.0428 29.6242C52.8729 29.6242 53.6423 29.7659 54.3509 30.0494C55.0798 30.3126 55.7175 30.7175 56.2642 31.2642C56.8108 31.7906 57.236 32.4587 57.5397 33.2686C57.8636 34.0582 58.0256 34.9996 58.0256 36.093V37.0648H47.3355V34.9085H56.3553L54.7457 35.4856C54.7457 34.8174 54.6445 34.2404 54.442 33.7545C54.2395 33.2686 53.9358 32.894 53.5309 32.6308C53.1462 32.3474 52.6603 32.2056 52.0732 32.2056C51.486 32.2056 50.9799 32.3474 50.5547 32.6308C50.1498 32.894 49.8359 33.2585 49.6132 33.7241C49.4108 34.1898 49.3095 34.7263 49.3095 35.3337V36.8522C49.3095 37.5811 49.431 38.1986 49.674 38.7047C49.9169 39.2109 50.2611 39.5855 50.7065 39.8284C51.152 40.0714 51.6682 40.1929 52.2554 40.1929C52.6603 40.1929 53.0248 40.1422 53.3487 40.041C53.6726 39.9195 53.946 39.7474 54.1687 39.5247C54.4116 39.302 54.5939 39.0287 54.7153 38.7047L57.813 39.2818C57.6106 39.9904 57.2563 40.6079 56.7501 41.1343C56.2439 41.6607 55.6062 42.0657 54.8368 42.3491C54.0877 42.6326 53.207 42.7743 52.1946 42.7743ZM58.652 42.5313L64.4526 25.5547H69.008L74.9605 42.5313H71.1036L68.3703 34.3315C68.0463 33.2787 67.7123 32.1247 67.3681 30.8694C67.0441 29.6141 66.6898 28.2475 66.3051 26.7695H67.0948C66.7303 28.2475 66.3861 29.6242 66.0622 30.8997C65.7382 32.155 65.4244 33.2989 65.1207 34.3315L62.5089 42.5313H58.652ZM62.2964 38.5833V35.8804H71.3465V38.5833H62.2964ZM82.1505 42.7743C80.8547 42.7743 79.7412 42.501 78.8099 41.9543C77.8785 41.4076 77.1598 40.6484 76.6536 39.6766C76.1474 38.6845 75.8944 37.5305 75.8944 36.2144C75.8944 34.8984 76.1474 33.7545 76.6536 32.7827C77.1598 31.7906 77.8785 31.0212 78.8099 30.4746C79.7412 29.9077 80.8547 29.6242 82.1505 29.6242C82.8996 29.6242 83.588 29.7255 84.2157 29.9279C84.8635 30.1304 85.4304 30.4138 85.9164 30.7783C86.4023 31.1427 86.8072 31.5881 87.1311 32.1145C87.4551 32.6409 87.6778 33.2281 87.7993 33.876L84.6105 34.453C84.5497 34.1291 84.4485 33.8355 84.3068 33.5723C84.165 33.3091 83.9828 33.0864 83.7601 32.9041C83.5576 32.7219 83.3248 32.5802 83.0616 32.479C82.7984 32.3777 82.5048 32.3271 82.1809 32.3271C81.5735 32.3271 81.0572 32.4891 80.632 32.813C80.2271 33.137 79.9133 33.5925 79.6906 34.1797C79.4881 34.7668 79.3869 35.4451 79.3869 36.2144C79.3869 36.9636 79.4881 37.6317 79.6906 38.2188C79.9133 38.806 80.2271 39.2716 80.632 39.6158C81.0572 39.9398 81.5735 40.1018 82.1809 40.1018C82.5048 40.1018 82.7984 40.0511 83.0616 39.9499C83.3451 39.8487 83.588 39.6968 83.7905 39.4944C84.0132 39.2919 84.1954 39.0591 84.3371 38.7959C84.4789 38.5124 84.5801 38.2087 84.6408 37.8848L87.8296 38.4618C87.7082 39.1299 87.4854 39.7272 87.1615 40.2536C86.8376 40.78 86.4225 41.2356 85.9164 41.6202C85.4304 42.0049 84.8635 42.2985 84.2157 42.501C83.588 42.6832 82.8996 42.7743 82.1505 42.7743Z" fill="#B88C63" style="fill:#B88C63;fill:color(display-p3 0.7216 0.5490 0.3882);fill-opacity:1;"/>
<path d="M353.539 110.727V127.703H351.96V112.245H351.839L347.891 115.191V113.429L351.535 110.727H353.539ZM357.282 124.059V122.783L364.814 110.727H365.816V112.913H365.087L359.074 122.51V122.631H369.005V124.059H357.282ZM365.179 127.703V123.664L365.209 123.057V110.727H366.758V127.703H365.179Z" fill="#8E9198" style="fill:#8E9198;fill:color(display-p3 0.5569 0.5686 0.5961);fill-opacity:1;"/>
<path d="M546.461 110.726V127.703H544.882V112.245H544.761L540.812 115.191V113.429L544.457 110.726H546.461ZM555.823 127.946C554.75 127.946 553.788 127.743 552.938 127.338C552.087 126.913 551.419 126.346 550.933 125.638C550.447 124.929 550.204 124.129 550.204 123.239C550.204 122.53 550.346 121.872 550.629 121.265C550.933 120.657 551.338 120.151 551.844 119.746C552.371 119.321 552.958 119.037 553.606 118.896V118.835C552.755 118.592 552.077 118.116 551.571 117.408C551.065 116.679 550.812 115.859 550.812 114.948C550.812 114.097 551.024 113.338 551.449 112.67C551.895 112.002 552.492 111.475 553.241 111.091C554.011 110.706 554.871 110.514 555.823 110.514C556.774 110.514 557.625 110.706 558.374 111.091C559.143 111.475 559.751 112.002 560.196 112.67C560.641 113.338 560.864 114.097 560.864 114.948C560.864 115.859 560.611 116.679 560.105 117.408C559.599 118.116 558.931 118.592 558.1 118.835V118.896C558.728 119.037 559.295 119.321 559.801 119.746C560.328 120.151 560.732 120.657 561.016 121.265C561.32 121.872 561.471 122.53 561.471 123.239C561.471 124.129 561.228 124.929 560.743 125.638C560.257 126.346 559.589 126.913 558.738 127.338C557.888 127.743 556.916 127.946 555.823 127.946ZM555.823 126.518C556.633 126.518 557.331 126.377 557.918 126.093C558.526 125.79 559.001 125.385 559.346 124.879C559.69 124.372 559.862 123.795 559.862 123.147C559.862 122.479 559.68 121.882 559.315 121.356C558.971 120.829 558.495 120.414 557.888 120.11C557.28 119.787 556.592 119.625 555.823 119.625C555.074 119.625 554.395 119.787 553.788 120.11C553.181 120.414 552.695 120.829 552.33 121.356C551.986 121.882 551.814 122.479 551.814 123.147C551.814 123.795 551.976 124.372 552.3 124.879C552.644 125.385 553.12 125.79 553.727 126.093C554.335 126.377 555.033 126.518 555.823 126.518ZM555.823 118.258C556.491 118.258 557.078 118.126 557.584 117.863C558.111 117.58 558.526 117.195 558.829 116.709C559.133 116.223 559.285 115.666 559.285 115.039C559.285 114.431 559.133 113.895 558.829 113.429C558.546 112.963 558.141 112.599 557.615 112.336C557.088 112.073 556.491 111.941 555.823 111.941C555.155 111.941 554.557 112.073 554.031 112.336C553.525 112.599 553.12 112.963 552.816 113.429C552.512 113.895 552.361 114.431 552.361 115.039C552.361 115.666 552.512 116.223 552.816 116.709C553.12 117.195 553.535 117.58 554.061 117.863C554.588 118.126 555.175 118.258 555.823 118.258Z" fill="#8E9198" style="fill:#8E9198;fill:color(display-p3 0.5569 0.5686 0.5961);fill-opacity:1;"/>
</svg>
