<svg width="912" height="171" viewBox="0 0 912 171" fill="none" xmlns="http://www.w3.org/2000/svg">
<path d="M22.5078 89.125H884.512" stroke="#F6F7F8" style="stroke:#F6F7F8;stroke:color(display-p3 0.9647 0.9686 0.9725);stroke-opacity:1;" stroke-width="3.88732" stroke-miterlimit="10" stroke-linejoin="round"/>
<path fill-rule="evenodd" clip-rule="evenodd" d="M400.781 85.2363H508.176V93.011H400.781V85.2363Z" fill="#DFE2E6" style="fill:#DFE2E6;fill:color(display-p3 0.8745 0.8863 0.9020);fill-opacity:1;"/>
<path d="M24.0586 42.127V25.1504H29.3733L32.1369 32.9554C32.2584 33.3198 32.39 33.7956 32.5317 34.3828C32.6735 34.9497 32.8152 35.5672 32.9569 36.2353C33.1189 36.9034 33.2606 37.5513 33.3821 38.179C33.5238 38.8066 33.6352 39.3533 33.7161 39.8189H33.048C33.129 39.3533 33.2404 38.8066 33.3821 38.179C33.5238 37.5513 33.6655 36.9034 33.8073 36.2353C33.9692 35.5672 34.1211 34.9497 34.2628 34.3828C34.4045 33.7956 34.5361 33.3198 34.6576 32.9554L37.3605 25.1504H42.7056V42.127H39.213V34.1398C39.213 33.7551 39.213 33.2895 39.213 32.7428C39.2333 32.1961 39.2535 31.5989 39.2738 30.951C39.294 30.3031 39.3143 29.6552 39.3345 29.0073C39.3548 28.3595 39.3649 27.7521 39.3649 27.1852H39.5775C39.4358 27.8128 39.2738 28.4607 39.0916 29.1288C38.9296 29.7969 38.7575 30.4448 38.5753 31.0725C38.3931 31.7001 38.221 32.2771 38.059 32.8035C37.897 33.33 37.7654 33.7754 37.6642 34.1398L34.8398 42.127H31.9243L29.0696 34.1398C28.9481 33.7754 28.8064 33.3401 28.6444 32.8339C28.4824 32.3075 28.3103 31.7305 28.1281 31.1028C27.9662 30.4752 27.7941 29.8273 27.6118 29.1592C27.4296 28.4708 27.2575 27.8128 27.0956 27.1852H27.3385C27.3588 27.7318 27.3689 28.3291 27.3689 28.977C27.3891 29.6046 27.4094 30.2424 27.4296 30.8903C27.4499 31.5381 27.46 32.1455 27.46 32.7124C27.4802 33.2793 27.4904 33.7551 27.4904 34.1398V42.127H24.0586ZM51.4368 42.37C50.1411 42.37 49.0174 42.1068 48.0658 41.5804C47.1345 41.054 46.4157 40.3048 45.9096 39.333C45.4034 38.3409 45.1503 37.1768 45.1503 35.8405C45.1503 34.5245 45.4034 33.3704 45.9096 32.3784C46.4157 31.3863 47.1243 30.6169 48.0354 30.0703C48.9668 29.5034 50.05 29.2199 51.285 29.2199C52.1151 29.2199 52.8845 29.3616 53.5931 29.6451C54.322 29.9083 54.9597 30.3132 55.5064 30.8599C56.053 31.3863 56.4782 32.0544 56.7819 32.8643C57.1058 33.6539 57.2678 34.5954 57.2678 35.6887V36.6605H46.5777V34.5042H55.5975L53.9879 35.0813C53.9879 34.4131 53.8867 33.8361 53.6842 33.3502C53.4817 32.8643 53.178 32.4897 52.7731 32.2265C52.3884 31.9431 51.9025 31.8013 51.3154 31.8013C50.7282 31.8013 50.222 31.9431 49.7969 32.2265C49.3919 32.4897 49.0781 32.8542 48.8554 33.3198C48.653 33.7855 48.5517 34.322 48.5517 34.9294V36.4479C48.5517 37.1768 48.6732 37.7943 48.9162 38.3005C49.1591 38.8066 49.5033 39.1812 49.9487 39.4241C50.3941 39.6671 50.9104 39.7886 51.4976 39.7886C51.9025 39.7886 52.2669 39.7379 52.5909 39.6367C52.9148 39.5152 53.1882 39.3431 53.4109 39.1204C53.6538 38.8977 53.836 38.6244 53.9575 38.3005L57.0552 38.8775C56.8528 39.5861 56.4984 40.2036 55.9923 40.73C55.4861 41.2564 54.8484 41.6614 54.079 41.9448C53.3299 42.2283 52.4492 42.37 51.4368 42.37ZM57.8942 42.127L63.6948 25.1504H68.2502L74.2027 42.127H70.3457L67.6125 33.9272C67.2885 32.8744 66.9545 31.7204 66.6103 30.4651C66.2863 29.2098 65.932 27.8432 65.5473 26.3652H66.3369C65.9725 27.8432 65.6283 29.2199 65.3044 30.4954C64.9804 31.7507 64.6666 32.8947 64.3629 33.9272L61.7511 42.127H57.8942ZM61.5385 38.179V35.4761H70.5887V38.179H61.5385ZM81.3927 42.37C80.0969 42.37 78.9834 42.0967 78.052 41.55C77.1207 41.0033 76.402 40.2441 75.8958 39.2723C75.3896 38.2802 75.1366 37.1262 75.1366 35.8101C75.1366 34.4941 75.3896 33.3502 75.8958 32.3784C76.402 31.3863 77.1207 30.6169 78.052 30.0703C78.9834 29.5034 80.0969 29.2199 81.3927 29.2199C82.1418 29.2199 82.8302 29.3212 83.4578 29.5236C84.1057 29.7261 84.6726 30.0095 85.1585 30.374C85.6445 30.7384 86.0494 31.1838 86.3733 31.7102C86.6973 32.2366 86.92 32.8238 87.0415 33.4717L83.8526 34.0487C83.7919 33.7248 83.6907 33.4312 83.5489 33.168C83.4072 32.9048 83.225 32.6821 83.0023 32.4998C82.7998 32.3176 82.567 32.1759 82.3038 32.0747C82.0406 31.9734 81.747 31.9228 81.4231 31.9228C80.8157 31.9228 80.2994 32.0848 79.8742 32.4087C79.4693 32.7327 79.1555 33.1882 78.9328 33.7754C78.7303 34.3625 78.6291 35.0408 78.6291 35.8101C78.6291 36.5593 78.7303 37.2274 78.9328 37.8145C79.1555 38.4017 79.4693 38.8674 79.8742 39.2115C80.2994 39.5355 80.8157 39.6975 81.4231 39.6975C81.747 39.6975 82.0406 39.6468 82.3038 39.5456C82.5872 39.4444 82.8302 39.2925 83.0327 39.0901C83.2554 38.8876 83.4376 38.6548 83.5793 38.3916C83.721 38.1081 83.8223 37.8044 83.883 37.4805L87.0718 38.0575C86.9503 38.7256 86.7276 39.3229 86.4037 39.8493C86.0798 40.3757 85.6647 40.8313 85.1585 41.2159C84.6726 41.6006 84.1057 41.8942 83.4578 42.0967C82.8302 42.2789 82.1418 42.37 81.3927 42.37Z" fill="#B88C63" style="fill:#B88C63;fill:color(display-p3 0.7216 0.5490 0.3882);fill-opacity:1;"/>
<path d="M352.782 110.322V127.299H351.202V111.841H351.081L347.133 114.787V113.025L350.777 110.322H352.782ZM356.525 123.655V122.379L364.056 110.322H365.058V112.509H364.33L358.316 122.106V122.227H368.247V123.655H356.525ZM364.421 127.299V123.26L364.451 122.652V110.322H366V127.299H364.421Z" fill="#8E9198" style="fill:#8E9198;fill:color(display-p3 0.5569 0.5686 0.5961);fill-opacity:1;"/>
<path d="M545.703 110.322V127.299H544.124V111.84H544.003L540.055 114.786V113.025L543.699 110.322H545.703ZM555.065 127.542C553.992 127.542 553.03 127.339 552.18 126.934C551.329 126.509 550.661 125.942 550.175 125.233C549.689 124.525 549.447 123.725 549.447 122.834C549.447 122.126 549.588 121.468 549.872 120.86C550.175 120.253 550.58 119.747 551.086 119.342C551.613 118.917 552.2 118.633 552.848 118.491V118.431C551.998 118.188 551.319 117.712 550.813 117.003C550.307 116.274 550.054 115.454 550.054 114.543C550.054 113.693 550.266 112.934 550.692 112.266C551.137 111.597 551.734 111.071 552.483 110.686C553.253 110.302 554.113 110.109 555.065 110.109C556.016 110.109 556.867 110.302 557.616 110.686C558.385 111.071 558.993 111.597 559.438 112.266C559.884 112.934 560.106 113.693 560.106 114.543C560.106 115.454 559.853 116.274 559.347 117.003C558.841 117.712 558.173 118.188 557.343 118.431V118.491C557.97 118.633 558.537 118.917 559.043 119.342C559.57 119.747 559.975 120.253 560.258 120.86C560.562 121.468 560.714 122.126 560.714 122.834C560.714 123.725 560.471 124.525 559.985 125.233C559.499 125.942 558.831 126.509 557.98 126.934C557.13 127.339 556.158 127.542 555.065 127.542ZM555.065 126.114C555.875 126.114 556.573 125.972 557.16 125.689C557.768 125.385 558.244 124.98 558.588 124.474C558.932 123.968 559.104 123.391 559.104 122.743C559.104 122.075 558.922 121.478 558.557 120.951C558.213 120.425 557.737 120.01 557.13 119.706C556.523 119.382 555.834 119.22 555.065 119.22C554.316 119.22 553.638 119.382 553.03 119.706C552.423 120.01 551.937 120.425 551.572 120.951C551.228 121.478 551.056 122.075 551.056 122.743C551.056 123.391 551.218 123.968 551.542 124.474C551.886 124.98 552.362 125.385 552.969 125.689C553.577 125.972 554.275 126.114 555.065 126.114ZM555.065 117.854C555.733 117.854 556.32 117.722 556.826 117.459C557.353 117.175 557.768 116.791 558.071 116.305C558.375 115.819 558.527 115.262 558.527 114.634C558.527 114.027 558.375 113.491 558.071 113.025C557.788 112.559 557.383 112.195 556.857 111.932C556.33 111.668 555.733 111.537 555.065 111.537C554.397 111.537 553.799 111.668 553.273 111.932C552.767 112.195 552.362 112.559 552.058 113.025C551.755 113.491 551.603 114.027 551.603 114.634C551.603 115.262 551.755 115.819 552.058 116.305C552.362 116.791 552.777 117.175 553.303 117.459C553.83 117.722 554.417 117.854 555.065 117.854Z" fill="#8E9198" style="fill:#8E9198;fill:color(display-p3 0.5569 0.5686 0.5961);fill-opacity:1;"/>
</svg>
