<svg width="912" height="171" viewBox="0 0 912 171" fill="none" xmlns="http://www.w3.org/2000/svg">
<path d="M22.5078 89.125H884.512" stroke="#F6F7F8" style="stroke:#F6F7F8;stroke:color(display-p3 0.9647 0.9686 0.9725);stroke-opacity:1;" stroke-width="3.88732" stroke-miterlimit="10" stroke-linejoin="round"/>
<path fill-rule="evenodd" clip-rule="evenodd" d="M400.781 85.2363H508.176V93.011H400.781V85.2363Z" fill="#DFE2E6" style="fill:#DFE2E6;fill:color(display-p3 0.8745 0.8863 0.9020);fill-opacity:1;"/>
<path d="M24.0586 42.127V25.1504H29.3733L32.1369 32.9554C32.2584 33.3198 32.39 33.7956 32.5317 34.3828C32.6735 34.9497 32.8152 35.5672 32.9569 36.2353C33.1189 36.9034 33.2606 37.5513 33.3821 38.179C33.5238 38.8066 33.6352 39.3533 33.7161 39.8189H33.048C33.129 39.3533 33.2404 38.8066 33.3821 38.179C33.5238 37.5513 33.6655 36.9034 33.8073 36.2353C33.9692 35.5672 34.1211 34.9497 34.2628 34.3828C34.4045 33.7956 34.5361 33.3198 34.6576 32.9554L37.3605 25.1504H42.7056V42.127H39.213V34.1398C39.213 33.7551 39.213 33.2895 39.213 32.7428C39.2333 32.1961 39.2535 31.5989 39.2738 30.951C39.294 30.3031 39.3143 29.6552 39.3345 29.0073C39.3548 28.3595 39.3649 27.7521 39.3649 27.1852H39.5775C39.4358 27.8128 39.2738 28.4607 39.0916 29.1288C38.9296 29.7969 38.7575 30.4448 38.5753 31.0725C38.3931 31.7001 38.221 32.2771 38.059 32.8035C37.897 33.33 37.7654 33.7754 37.6642 34.1398L34.8398 42.127H31.9243L29.0696 34.1398C28.9481 33.7754 28.8064 33.3401 28.6444 32.8339C28.4824 32.3075 28.3103 31.7305 28.1281 31.1028C27.9662 30.4752 27.7941 29.8273 27.6118 29.1592C27.4296 28.4708 27.2575 27.8128 27.0956 27.1852H27.3385C27.3588 27.7318 27.3689 28.3291 27.3689 28.977C27.3891 29.6046 27.4094 30.2424 27.4296 30.8903C27.4499 31.5381 27.46 32.1455 27.46 32.7124C27.4802 33.2793 27.4904 33.7551 27.4904 34.1398V42.127H24.0586ZM51.4368 42.37C50.1411 42.37 49.0174 42.1068 48.0658 41.5804C47.1345 41.054 46.4157 40.3048 45.9096 39.333C45.4034 38.3409 45.1503 37.1768 45.1503 35.8405C45.1503 34.5245 45.4034 33.3704 45.9096 32.3784C46.4157 31.3863 47.1243 30.6169 48.0354 30.0703C48.9668 29.5034 50.05 29.2199 51.285 29.2199C52.1151 29.2199 52.8845 29.3616 53.5931 29.6451C54.322 29.9083 54.9597 30.3132 55.5064 30.8599C56.053 31.3863 56.4782 32.0544 56.7819 32.8643C57.1058 33.6539 57.2678 34.5954 57.2678 35.6887V36.6605H46.5777V34.5042H55.5975L53.9879 35.0813C53.9879 34.4131 53.8867 33.8361 53.6842 33.3502C53.4817 32.8643 53.178 32.4897 52.7731 32.2265C52.3884 31.9431 51.9025 31.8013 51.3154 31.8013C50.7282 31.8013 50.222 31.9431 49.7969 32.2265C49.3919 32.4897 49.0781 32.8542 48.8554 33.3198C48.653 33.7855 48.5517 34.322 48.5517 34.9294V36.4479C48.5517 37.1768 48.6732 37.7943 48.9162 38.3005C49.1591 38.8066 49.5033 39.1812 49.9487 39.4241C50.3941 39.6671 50.9104 39.7886 51.4976 39.7886C51.9025 39.7886 52.2669 39.7379 52.5909 39.6367C52.9148 39.5152 53.1882 39.3431 53.4109 39.1204C53.6538 38.8977 53.836 38.6244 53.9575 38.3005L57.0552 38.8775C56.8528 39.5861 56.4984 40.2036 55.9923 40.73C55.4861 41.2564 54.8484 41.6614 54.079 41.9448C53.3299 42.2283 52.4492 42.37 51.4368 42.37ZM57.8942 42.127L63.6948 25.1504H68.2502L74.2027 42.127H70.3457L67.6125 33.9272C67.2885 32.8744 66.9545 31.7204 66.6103 30.4651C66.2863 29.2098 65.932 27.8432 65.5473 26.3652H66.3369C65.9725 27.8432 65.6283 29.2199 65.3044 30.4954C64.9804 31.7507 64.6666 32.8947 64.3629 33.9272L61.7511 42.127H57.8942ZM61.5385 38.179V35.4761H70.5887V38.179H61.5385ZM81.3927 42.37C80.0969 42.37 78.9834 42.0967 78.052 41.55C77.1207 41.0033 76.402 40.2441 75.8958 39.2723C75.3896 38.2802 75.1366 37.1262 75.1366 35.8101C75.1366 34.4941 75.3896 33.3502 75.8958 32.3784C76.402 31.3863 77.1207 30.6169 78.052 30.0703C78.9834 29.5034 80.0969 29.2199 81.3927 29.2199C82.1418 29.2199 82.8302 29.3212 83.4578 29.5236C84.1057 29.7261 84.6726 30.0095 85.1585 30.374C85.6445 30.7384 86.0494 31.1838 86.3733 31.7102C86.6973 32.2366 86.92 32.8238 87.0415 33.4717L83.8526 34.0487C83.7919 33.7248 83.6907 33.4312 83.5489 33.168C83.4072 32.9048 83.225 32.6821 83.0023 32.4998C82.7998 32.3176 82.567 32.1759 82.3038 32.0747C82.0406 31.9734 81.747 31.9228 81.4231 31.9228C80.8157 31.9228 80.2994 32.0848 79.8742 32.4087C79.4693 32.7327 79.1555 33.1882 78.9328 33.7754C78.7303 34.3625 78.6291 35.0408 78.6291 35.8101C78.6291 36.5593 78.7303 37.2274 78.9328 37.8145C79.1555 38.4017 79.4693 38.8674 79.8742 39.2115C80.2994 39.5355 80.8157 39.6975 81.4231 39.6975C81.747 39.6975 82.0406 39.6468 82.3038 39.5456C82.5872 39.4444 82.8302 39.2925 83.0327 39.0901C83.2554 38.8876 83.4376 38.6548 83.5793 38.3916C83.721 38.1081 83.8223 37.8044 83.883 37.4805L87.0718 38.0575C86.9503 38.7256 86.7276 39.3229 86.4037 39.8493C86.0798 40.3757 85.6647 40.8313 85.1585 41.2159C84.6726 41.6006 84.1057 41.8942 83.4578 42.0967C82.8302 42.2789 82.1418 42.37 81.3927 42.37Z" fill="#B88C63" style="fill:#B88C63;fill:color(display-p3 0.7216 0.5490 0.3882);fill-opacity:1;"/>
<path d="M395.871 110.322V127.299H394.292V111.841H394.171L390.223 114.787V113.025L393.867 110.322H395.871ZM399.614 123.655V122.379L407.146 110.322H408.148V112.509H407.419L401.406 122.106V122.227H411.337V123.655H399.614ZM407.511 127.299V123.26L407.541 122.652V110.322H409.09V127.299H407.511Z" fill="#8E9198" style="fill:#8E9198;fill:color(display-p3 0.5569 0.5686 0.5961);fill-opacity:1;"/>
<path d="M503.496 110.322V127.299H501.917V111.84H501.796L497.848 114.786V113.025L501.492 110.322H503.496ZM512.858 127.542C511.785 127.542 510.823 127.339 509.973 126.934C509.122 126.509 508.454 125.942 507.968 125.233C507.482 124.525 507.239 123.725 507.239 122.834C507.239 122.126 507.381 121.468 507.665 120.86C507.968 120.253 508.373 119.747 508.879 119.342C509.406 118.917 509.993 118.633 510.641 118.491V118.431C509.791 118.188 509.112 117.712 508.606 117.003C508.1 116.274 507.847 115.454 507.847 114.543C507.847 113.693 508.059 112.934 508.485 112.266C508.93 111.597 509.527 111.071 510.276 110.686C511.046 110.302 511.906 110.109 512.858 110.109C513.809 110.109 514.66 110.302 515.409 110.686C516.178 111.071 516.786 111.597 517.231 112.266C517.677 112.934 517.899 113.693 517.899 114.543C517.899 115.454 517.646 116.274 517.14 117.003C516.634 117.712 515.966 118.188 515.136 118.431V118.491C515.763 118.633 516.33 118.917 516.836 119.342C517.363 119.747 517.768 120.253 518.051 120.86C518.355 121.468 518.507 122.126 518.507 122.834C518.507 123.725 518.264 124.525 517.778 125.233C517.292 125.942 516.624 126.509 515.773 126.934C514.923 127.339 513.951 127.542 512.858 127.542ZM512.858 126.114C513.668 126.114 514.366 125.972 514.953 125.689C515.561 125.385 516.037 124.98 516.381 124.474C516.725 123.968 516.897 123.391 516.897 122.743C516.897 122.075 516.715 121.478 516.35 120.951C516.006 120.425 515.53 120.01 514.923 119.706C514.316 119.382 513.627 119.22 512.858 119.22C512.109 119.22 511.43 119.382 510.823 119.706C510.216 120.01 509.73 120.425 509.365 120.951C509.021 121.478 508.849 122.075 508.849 122.743C508.849 123.391 509.011 123.968 509.335 124.474C509.679 124.98 510.155 125.385 510.762 125.689C511.37 125.972 512.068 126.114 512.858 126.114ZM512.858 117.854C513.526 117.854 514.113 117.722 514.619 117.459C515.146 117.175 515.561 116.791 515.864 116.305C516.168 115.819 516.32 115.262 516.32 114.634C516.32 114.027 516.168 113.491 515.864 113.025C515.581 112.559 515.176 112.195 514.65 111.932C514.123 111.668 513.526 111.537 512.858 111.537C512.19 111.537 511.592 111.668 511.066 111.932C510.56 112.195 510.155 112.559 509.851 113.025C509.548 113.491 509.396 114.027 509.396 114.634C509.396 115.262 509.548 115.819 509.851 116.305C510.155 116.791 510.57 117.175 511.096 117.459C511.623 117.722 512.21 117.854 512.858 117.854Z" fill="#8E9198" style="fill:#8E9198;fill:color(display-p3 0.5569 0.5686 0.5961);fill-opacity:1;"/>
</svg>
