<svg width="1351" height="637" viewBox="0 0 1351 637" fill="none" xmlns="http://www.w3.org/2000/svg">
<g filter="url(#filter0_d_174_429)">
<rect x="82.5918" y="98.1445" width="1185.02" height="426.492" rx="213.246" fill="#F6F7F8" style="fill:#F6F7F8;fill:color(display-p3 0.9647 0.9686 0.9725);fill-opacity:1;"/>
</g>
<path d="M750.166 366.774L691.018 307.625" stroke="black" style="stroke:black;stroke-opacity:1;" stroke-width="12"/>
<path d="M750.167 256.565L690.82 315.912" stroke="black" style="stroke:black;stroke-opacity:1;" stroke-width="12"/>
<path d="M1020.19 255.159L1079.34 314.309" stroke="black" style="stroke:black;stroke-opacity:1;" stroke-width="12"/>
<path d="M1020.19 365.368L1079.54 306.021" stroke="black" style="stroke:black;stroke-opacity:1;" stroke-width="12"/>
<circle cx="257.326" cy="311.391" r="32.5117" fill="black" style="fill:black;fill-opacity:1;"/>
<path d="M303.569 278.879C321.525 278.879 336.081 293.435 336.081 311.391C336.081 329.346 321.525 343.902 303.569 343.902C298.109 343.902 292.963 342.554 288.445 340.175C295.428 332.608 299.696 322.499 299.696 311.391C299.696 300.282 295.429 290.172 288.445 282.605C292.963 280.227 298.109 278.879 303.569 278.879Z" fill="black" style="fill:black;fill-opacity:1;"/>
<circle cx="283.211" cy="311.391" r="134.322" stroke="black" style="stroke:black;stroke-opacity:1;" stroke-width="12"/>
<circle cx="720.592" cy="311.391" r="134.322" stroke="black" style="stroke:black;stroke-opacity:1;" stroke-width="12"/>
<circle cx="1049.86" cy="311.391" r="134.322" stroke="black" style="stroke:black;stroke-opacity:1;" stroke-width="12"/>
<defs>
<filter id="filter0_d_174_429" x="33.1918" y="48.7445" width="1283.82" height="525.292" filterUnits="userSpaceOnUse" color-interpolation-filters="sRGB">
<feFlood flood-opacity="0" result="BackgroundImageFix"/>
<feColorMatrix in="SourceAlpha" type="matrix" values="0 0 0 0 0 0 0 0 0 0 0 0 0 0 0 0 0 0 127 0" result="hardAlpha"/>
<feMorphology radius="1" operator="erode" in="SourceAlpha" result="effect1_dropShadow_174_429"/>
<feOffset/>
<feGaussianBlur stdDeviation="25.2"/>
<feComposite in2="hardAlpha" operator="out"/>
<feColorMatrix type="matrix" values="0 0 0 0 0 0 0 0 0 0 0 0 0 0 0 0 0 0 0.25 0"/>
<feBlend mode="normal" in2="BackgroundImageFix" result="effect1_dropShadow_174_429"/>
<feBlend mode="normal" in="SourceGraphic" in2="effect1_dropShadow_174_429" result="shape"/>
</filter>
</defs>
</svg>
