<svg width="1351" height="637" viewBox="0 0 1351 637" fill="none" xmlns="http://www.w3.org/2000/svg">
<rect width="1350.51" height="636.668" fill="black" style="fill:black;fill-opacity:1;"/>
<g filter="url(#filter0_d_216_11)">
<rect x="82.3418" y="97.9404" width="1185.02" height="426.492" rx="213.246" fill="#393939" style="fill:#393939;fill:color(display-p3 0.2235 0.2235 0.2235);fill-opacity:1;"/>
<rect x="82.8418" y="98.4404" width="1184.02" height="425.492" rx="212.746" stroke="black" style="stroke:black;stroke-opacity:1;"/>
</g>
<path d="M749.916 366.57L690.768 307.421" stroke="white" style="stroke:white;stroke-opacity:1;" stroke-width="12"/>
<path d="M749.917 256.361L690.57 315.708" stroke="white" style="stroke:white;stroke-opacity:1;" stroke-width="12"/>
<path d="M1019.94 254.955L1079.09 314.104" stroke="white" style="stroke:white;stroke-opacity:1;" stroke-width="12"/>
<path d="M1019.94 365.164L1079.29 305.817" stroke="white" style="stroke:white;stroke-opacity:1;" stroke-width="12"/>
<circle cx="257.076" cy="311.187" r="32.5117" fill="black" style="fill:black;fill-opacity:1;"/>
<circle cx="257.076" cy="311.187" r="32.0117" stroke="black" stroke-opacity="0.8" style="stroke:black;stroke-opacity:0.8;"/>
<path d="M303.319 278.675C321.275 278.675 335.831 293.231 335.831 311.187C335.831 329.142 321.275 343.698 303.319 343.698C297.859 343.698 292.713 342.35 288.195 339.971C295.178 332.404 299.446 322.295 299.446 311.187C299.446 300.078 295.179 289.968 288.195 282.401C292.713 280.023 297.859 278.675 303.319 278.675Z" fill="black" style="fill:black;fill-opacity:1;"/>
<circle cx="282.961" cy="311.187" r="134.322" stroke="black" stroke-opacity="0.8" style="stroke:black;stroke-opacity:0.8;" stroke-width="12"/>
<circle cx="720.342" cy="311.187" r="134.322" stroke="white" style="stroke:white;stroke-opacity:1;" stroke-width="12"/>
<circle cx="1049.61" cy="311.187" r="134.322" stroke="white" style="stroke:white;stroke-opacity:1;" stroke-width="12"/>
<circle cx="289.588" cy="314.104" r="181.973" fill="#393939" fill-opacity="0.88" style="fill:#393939;fill:color(display-p3 0.2235 0.2235 0.2235);fill-opacity:0.88;"/>
<defs>
<filter id="filter0_d_216_11" x="32.9418" y="48.5404" width="1283.82" height="525.292" filterUnits="userSpaceOnUse" color-interpolation-filters="sRGB">
<feFlood flood-opacity="0" result="BackgroundImageFix"/>
<feColorMatrix in="SourceAlpha" type="matrix" values="0 0 0 0 0 0 0 0 0 0 0 0 0 0 0 0 0 0 127 0" result="hardAlpha"/>
<feMorphology radius="1" operator="erode" in="SourceAlpha" result="effect1_dropShadow_216_11"/>
<feOffset/>
<feGaussianBlur stdDeviation="25.2"/>
<feComposite in2="hardAlpha" operator="out"/>
<feColorMatrix type="matrix" values="0 0 0 0 0 0 0 0 0 0 0 0 0 0 0 0 0 0 0.25 0"/>
<feBlend mode="normal" in2="BackgroundImageFix" result="effect1_dropShadow_216_11"/>
<feBlend mode="normal" in="SourceGraphic" in2="effect1_dropShadow_216_11" result="shape"/>
</filter>
</defs>
</svg>
