<svg width="1351" height="637" viewBox="0 0 1351 637" fill="none" xmlns="http://www.w3.org/2000/svg">
<g filter="url(#filter0_d_175_492)">
<rect x="82.5918" y="98.0889" width="1185.02" height="426.492" rx="213.246" fill="#F6F7F8" style="fill:#F6F7F8;fill:color(display-p3 0.9647 0.9686 0.9725);fill-opacity:1;"/>
</g>
<path d="M750.166 366.719L691.018 307.569" stroke="black" style="stroke:black;stroke-opacity:1;" stroke-width="12"/>
<path d="M750.167 256.51L690.82 315.856" stroke="black" style="stroke:black;stroke-opacity:1;" stroke-width="12"/>
<path d="M1020.19 255.104L1079.34 314.253" stroke="black" style="stroke:black;stroke-opacity:1;" stroke-width="12"/>
<path d="M1020.19 365.312L1079.54 305.966" stroke="black" style="stroke:black;stroke-opacity:1;" stroke-width="12"/>
<circle cx="257.326" cy="311.335" r="32.5117" fill="black" style="fill:black;fill-opacity:1;"/>
<path d="M303.569 278.823C321.525 278.823 336.081 293.379 336.081 311.335C336.081 329.291 321.525 343.847 303.569 343.847C298.109 343.847 292.963 342.498 288.445 340.119C295.428 332.553 299.696 322.443 299.696 311.335C299.696 300.227 295.429 290.116 288.445 282.55C292.963 280.171 298.109 278.823 303.569 278.823Z" fill="black" style="fill:black;fill-opacity:1;"/>
<circle cx="283.211" cy="311.335" r="134.322" stroke="black" style="stroke:black;stroke-opacity:1;" stroke-width="12"/>
<circle cx="720.592" cy="311.335" r="134.322" stroke="black" style="stroke:black;stroke-opacity:1;" stroke-width="12"/>
<circle cx="1049.86" cy="311.335" r="134.322" stroke="black" style="stroke:black;stroke-opacity:1;" stroke-width="12"/>
<circle cx="289.838" cy="314.253" r="181.973" fill="#F6F7F8" fill-opacity="0.94" style="fill:#F6F7F8;fill:color(display-p3 0.9647 0.9686 0.9725);fill-opacity:0.94;"/>
<defs>
<filter id="filter0_d_175_492" x="33.1918" y="48.6889" width="1283.82" height="525.292" filterUnits="userSpaceOnUse" color-interpolation-filters="sRGB">
<feFlood flood-opacity="0" result="BackgroundImageFix"/>
<feColorMatrix in="SourceAlpha" type="matrix" values="0 0 0 0 0 0 0 0 0 0 0 0 0 0 0 0 0 0 127 0" result="hardAlpha"/>
<feMorphology radius="1" operator="erode" in="SourceAlpha" result="effect1_dropShadow_175_492"/>
<feOffset/>
<feGaussianBlur stdDeviation="25.2"/>
<feComposite in2="hardAlpha" operator="out"/>
<feColorMatrix type="matrix" values="0 0 0 0 0 0 0 0 0 0 0 0 0 0 0 0 0 0 0.25 0"/>
<feBlend mode="normal" in2="BackgroundImageFix" result="effect1_dropShadow_175_492"/>
<feBlend mode="normal" in="SourceGraphic" in2="effect1_dropShadow_175_492" result="shape"/>
</filter>
</defs>
</svg>
