<svg width="1351" height="638" viewBox="0 0 1351 638" fill="none" xmlns="http://www.w3.org/2000/svg">
<g filter="url(#filter0_d_175_494)">
<rect x="82.5918" y="98.4502" width="1185.02" height="426.492" rx="213.246" fill="#F6F7F8" style="fill:#F6F7F8;fill:color(display-p3 0.9647 0.9686 0.9725);fill-opacity:1;"/>
</g>
<path d="M750.166 367.08L691.018 307.931" stroke="black" style="stroke:black;stroke-opacity:1;" stroke-width="12"/>
<path d="M750.167 256.871L690.82 316.218" stroke="black" style="stroke:black;stroke-opacity:1;" stroke-width="12"/>
<path d="M1020.19 255.465L1079.34 314.614" stroke="black" style="stroke:black;stroke-opacity:1;" stroke-width="12"/>
<path d="M1020.19 365.674L1079.54 306.327" stroke="black" style="stroke:black;stroke-opacity:1;" stroke-width="12"/>
<circle cx="257.326" cy="311.696" r="32.5117" fill="black" style="fill:black;fill-opacity:1;"/>
<path d="M303.569 279.185C321.525 279.185 336.081 293.741 336.081 311.696C336.081 329.652 321.525 344.208 303.569 344.208C298.109 344.208 292.963 342.859 288.445 340.48C295.428 332.914 299.696 322.804 299.696 311.696C299.696 300.588 295.429 290.478 288.445 282.911C292.963 280.532 298.109 279.185 303.569 279.185Z" fill="black" style="fill:black;fill-opacity:1;"/>
<circle cx="283.211" cy="311.696" r="134.322" stroke="black" style="stroke:black;stroke-opacity:1;" stroke-width="12"/>
<circle cx="720.592" cy="311.696" r="134.322" stroke="black" style="stroke:black;stroke-opacity:1;" stroke-width="12"/>
<circle cx="1049.86" cy="311.696" r="134.322" stroke="black" style="stroke:black;stroke-opacity:1;" stroke-width="12"/>
<circle cx="289.838" cy="314.614" r="181.973" fill="#F6F7F8" fill-opacity="0.94" style="fill:#F6F7F8;fill:color(display-p3 0.9647 0.9686 0.9725);fill-opacity:0.94;"/>
<circle cx="1054.96" cy="314.614" r="181.973" fill="#F6F7F8" fill-opacity="0.94" style="fill:#F6F7F8;fill:color(display-p3 0.9647 0.9686 0.9725);fill-opacity:0.94;"/>
<defs>
<filter id="filter0_d_175_494" x="33.1918" y="49.0502" width="1283.82" height="525.292" filterUnits="userSpaceOnUse" color-interpolation-filters="sRGB">
<feFlood flood-opacity="0" result="BackgroundImageFix"/>
<feColorMatrix in="SourceAlpha" type="matrix" values="0 0 0 0 0 0 0 0 0 0 0 0 0 0 0 0 0 0 127 0" result="hardAlpha"/>
<feMorphology radius="1" operator="erode" in="SourceAlpha" result="effect1_dropShadow_175_494"/>
<feOffset/>
<feGaussianBlur stdDeviation="25.2"/>
<feComposite in2="hardAlpha" operator="out"/>
<feColorMatrix type="matrix" values="0 0 0 0 0 0 0 0 0 0 0 0 0 0 0 0 0 0 0.25 0"/>
<feBlend mode="normal" in2="BackgroundImageFix" result="effect1_dropShadow_175_494"/>
<feBlend mode="normal" in="SourceGraphic" in2="effect1_dropShadow_175_494" result="shape"/>
</filter>
</defs>
</svg>
