<svg width="505" height="230" viewBox="0 0 505 230" fill="none" xmlns="http://www.w3.org/2000/svg">
<rect width="504.381" height="211.454" fill="black" style="fill:black;fill-opacity:1;"/>
<path d="M46.7597 170.406V47.2062H83.7197C109.416 47.2062 125.256 65.1582 125.256 85.9262C125.256 106.518 109.416 124.47 83.7197 124.47H64.7117V170.406H46.7597ZM64.7117 107.926H83.5437C97.9757 107.926 106.776 98.2462 106.776 85.9262C106.776 73.4303 97.9757 63.5742 83.5437 63.5742H64.7117V107.926ZM179.106 172.166C155.17 172.166 138.098 155.622 138.098 130.982V47.2062H156.05V131.334C156.05 146.118 165.202 155.622 179.106 155.622C192.658 155.622 201.81 146.118 201.81 131.334V47.2062H219.762V130.982C219.762 155.622 202.866 172.166 179.106 172.166ZM237.376 170.406V47.2062H255.328V154.038H306.016V170.406H237.376ZM343.841 172.166C333.105 172.166 322.897 169.526 314.273 164.774L310.401 162.486V144.182L315.153 146.822C326.241 153.158 335.745 155.622 344.545 155.622C359.329 155.622 367.953 148.23 367.953 138.022C367.953 130.982 364.433 125.878 357.217 122.006L330.289 106.87C319.025 100.886 311.633 91.2062 311.633 78.0062C311.633 58.4702 328.177 45.4462 350.001 45.4462C358.625 45.4462 367.425 47.2062 375.697 50.9022L380.097 52.8382V71.4942L375.345 68.8542C366.897 64.1022 358.625 61.9902 350.705 61.9902C337.505 61.9902 329.585 69.2062 329.585 78.1822C329.585 84.1662 333.105 88.7422 339.441 92.2622L367.777 108.278C380.801 115.318 385.905 126.406 385.905 138.022C385.905 158.614 369.361 172.166 343.841 172.166ZM397.57 170.406V47.2062H464.274V63.5742H415.522V101.238H461.458V117.782H415.522V154.038H464.274V170.406H397.57Z" fill="white" style="fill:white;fill-opacity:1;"/>
</svg>
