<svg width="544" height="16" viewBox="0 0 544 16" fill="none" xmlns="http://www.w3.org/2000/svg">
<rect width="543.086" height="15.1846" fill="#8D51D6" style="fill:#8D51D6;fill:color(display-p3 0.5529 0.3176 0.8392);fill-opacity:1;"/>
<path d="M3.60547 12.0928V4.09277H8.43359V4.95215H4.57422V7.65527H8.18359V8.51465H4.57422V11.2334H8.49609V12.0928H3.60547ZM14.3047 7.43652L13.4766 7.6709C13.4245 7.53288 13.3477 7.39876 13.2461 7.26855C13.1471 7.13574 13.0117 7.02637 12.8398 6.94043C12.668 6.85449 12.4479 6.81152 12.1797 6.81152C11.8125 6.81152 11.5065 6.89616 11.2617 7.06543C11.0195 7.2321 10.8984 7.44434 10.8984 7.70215C10.8984 7.93131 10.9818 8.1123 11.1484 8.24512C11.3151 8.37793 11.5755 8.48861 11.9297 8.57715L12.8203 8.7959C13.3568 8.92611 13.7565 9.12533 14.0195 9.39355C14.2826 9.65918 14.4141 10.0016 14.4141 10.4209C14.4141 10.7646 14.3151 11.0719 14.1172 11.3428C13.9219 11.6136 13.6484 11.8271 13.2969 11.9834C12.9453 12.1396 12.5365 12.2178 12.0703 12.2178C11.4583 12.2178 10.9518 12.085 10.5508 11.8193C10.1497 11.5537 9.89583 11.1657 9.78906 10.6553L10.6641 10.4365C10.7474 10.7594 10.9049 11.0016 11.1367 11.1631C11.3711 11.3245 11.6771 11.4053 12.0547 11.4053C12.4844 11.4053 12.8255 11.3141 13.0781 11.1318C13.3333 10.9469 13.4609 10.7256 13.4609 10.4678C13.4609 10.2594 13.388 10.085 13.2422 9.94434C13.0964 9.80111 12.8724 9.69434 12.5703 9.62402L11.5703 9.38965C11.0208 9.25944 10.6172 9.05762 10.3594 8.78418C10.1042 8.50814 9.97656 8.16309 9.97656 7.74902C9.97656 7.41048 10.0716 7.111 10.2617 6.85059C10.4544 6.59017 10.7161 6.38574 11.0469 6.2373C11.3802 6.08887 11.7578 6.01465 12.1797 6.01465C12.7734 6.01465 13.2396 6.14486 13.5781 6.40527C13.9193 6.66569 14.1615 7.00944 14.3047 7.43652ZM18.4111 6.09277V6.87402H15.3018V6.09277H18.4111ZM16.208 4.65527H17.1299V10.374C17.1299 10.6344 17.1676 10.8298 17.2432 10.96C17.3213 11.0876 17.4202 11.1735 17.54 11.2178C17.6624 11.2594 17.7913 11.2803 17.9268 11.2803C18.0283 11.2803 18.1117 11.2751 18.1768 11.2646C18.2419 11.2516 18.2939 11.2412 18.333 11.2334L18.5205 12.0615C18.458 12.085 18.3708 12.1084 18.2588 12.1318C18.1468 12.1579 18.0049 12.1709 17.833 12.1709C17.5726 12.1709 17.3174 12.1149 17.0674 12.0029C16.82 11.891 16.6143 11.7204 16.4502 11.4912C16.2887 11.262 16.208 10.973 16.208 10.624V4.65527ZM19.7979 12.0928V6.09277H20.7197V12.0928H19.7979ZM20.2666 5.09277C20.0869 5.09277 19.932 5.03158 19.8018 4.90918C19.6742 4.78678 19.6104 4.63965 19.6104 4.46777C19.6104 4.2959 19.6742 4.14876 19.8018 4.02637C19.932 3.90397 20.0869 3.84277 20.2666 3.84277C20.4463 3.84277 20.5999 3.90397 20.7275 4.02637C20.8577 4.14876 20.9229 4.2959 20.9229 4.46777C20.9229 4.63965 20.8577 4.78678 20.7275 4.90918C20.5999 5.03158 20.4463 5.09277 20.2666 5.09277ZM22.4082 12.0928V6.09277H23.2988V7.03027H23.377C23.502 6.70996 23.7038 6.46126 23.9824 6.28418C24.2611 6.10449 24.5957 6.01465 24.9863 6.01465C25.3822 6.01465 25.7116 6.10449 25.9746 6.28418C26.2402 6.46126 26.4473 6.70996 26.5957 7.03027H26.6582C26.8118 6.72038 27.0423 6.47428 27.3496 6.29199C27.6569 6.1071 28.0254 6.01465 28.4551 6.01465C28.9915 6.01465 29.4303 6.18262 29.7715 6.51855C30.1126 6.85189 30.2832 7.37142 30.2832 8.07715V12.0928H29.3613V8.07715C29.3613 7.63444 29.2402 7.31803 28.998 7.12793C28.7559 6.93783 28.4707 6.84277 28.1426 6.84277C27.7207 6.84277 27.3939 6.97038 27.1621 7.22559C26.9303 7.47819 26.8145 7.7985 26.8145 8.18652V12.0928H25.877V7.9834C25.877 7.64225 25.7663 7.36751 25.5449 7.15918C25.3236 6.94824 25.0384 6.84277 24.6895 6.84277C24.4499 6.84277 24.2259 6.90658 24.0176 7.03418C23.8118 7.16178 23.6452 7.33887 23.5176 7.56543C23.3926 7.78939 23.3301 8.0485 23.3301 8.34277V12.0928H22.4082ZM33.7344 12.2334C33.3542 12.2334 33.0091 12.1618 32.6992 12.0186C32.3893 11.8727 32.1432 11.6631 31.9609 11.3896C31.7786 11.1136 31.6875 10.7803 31.6875 10.3896C31.6875 10.0459 31.7552 9.76725 31.8906 9.55371C32.026 9.33756 32.207 9.16829 32.4336 9.0459C32.6602 8.9235 32.9102 8.83236 33.1836 8.77246C33.4596 8.70996 33.737 8.66048 34.0156 8.62402C34.3802 8.57715 34.6758 8.54199 34.9023 8.51855C35.1315 8.49251 35.2982 8.44954 35.4023 8.38965C35.5091 8.32975 35.5625 8.22559 35.5625 8.07715V8.0459C35.5625 7.66048 35.457 7.361 35.2461 7.14746C35.0378 6.93392 34.7214 6.82715 34.2969 6.82715C33.8568 6.82715 33.5117 6.9235 33.2617 7.11621C33.0117 7.30892 32.8359 7.51465 32.7344 7.7334L31.8594 7.4209C32.0156 7.05631 32.224 6.77246 32.4844 6.56934C32.7474 6.36361 33.0339 6.22038 33.3438 6.13965C33.6563 6.05632 33.9635 6.01465 34.2656 6.01465C34.4583 6.01465 34.6797 6.03809 34.9297 6.08496C35.1823 6.12923 35.4258 6.22168 35.6602 6.3623C35.8971 6.50293 36.0938 6.71517 36.25 6.99902C36.4063 7.28288 36.4844 7.66309 36.4844 8.13965V12.0928H35.5625V11.2803H35.5156C35.4531 11.4105 35.349 11.5498 35.2031 11.6982C35.0573 11.8467 34.8633 11.973 34.6211 12.0771C34.3789 12.1813 34.0833 12.2334 33.7344 12.2334ZM33.875 11.4053C34.2396 11.4053 34.5469 11.3337 34.7969 11.1904C35.0495 11.0472 35.2396 10.8623 35.3672 10.6357C35.4974 10.4092 35.5625 10.1709 35.5625 9.9209V9.07715C35.5234 9.12402 35.4375 9.16699 35.3047 9.20605C35.1745 9.24251 35.0234 9.27506 34.8516 9.30371C34.6823 9.32975 34.5169 9.35319 34.3555 9.37402C34.1966 9.39225 34.0677 9.40788 33.9688 9.4209C33.7292 9.45215 33.5052 9.50293 33.2969 9.57324C33.0911 9.64095 32.9245 9.74382 32.7969 9.88184C32.6719 10.0173 32.6094 10.2021 32.6094 10.4365C32.6094 10.7568 32.7279 10.999 32.9648 11.1631C33.2044 11.3245 33.5078 11.4053 33.875 11.4053ZM40.7764 6.09277V6.87402H37.667V6.09277H40.7764ZM38.5732 4.65527H39.4951V10.374C39.4951 10.6344 39.5329 10.8298 39.6084 10.96C39.6865 11.0876 39.7855 11.1735 39.9053 11.2178C40.0277 11.2594 40.1566 11.2803 40.292 11.2803C40.3936 11.2803 40.4769 11.2751 40.542 11.2646C40.6071 11.2516 40.6592 11.2412 40.6982 11.2334L40.8857 12.0615C40.8232 12.085 40.736 12.1084 40.624 12.1318C40.512 12.1579 40.3701 12.1709 40.1982 12.1709C39.9378 12.1709 39.6826 12.1149 39.4326 12.0029C39.1852 11.891 38.9795 11.7204 38.8154 11.4912C38.654 11.262 38.5732 10.973 38.5732 10.624V4.65527ZM44.6143 12.2178C44.0361 12.2178 43.5374 12.0902 43.1182 11.835C42.7015 11.5771 42.3799 11.2178 42.1533 10.7568C41.9294 10.2933 41.8174 9.75423 41.8174 9.13965C41.8174 8.52506 41.9294 7.9834 42.1533 7.51465C42.3799 7.04329 42.695 6.67611 43.0986 6.41309C43.5049 6.14746 43.9788 6.01465 44.5205 6.01465C44.833 6.01465 45.1416 6.06673 45.4463 6.1709C45.751 6.27506 46.0283 6.44434 46.2783 6.67871C46.5283 6.91048 46.7275 7.21777 46.876 7.60059C47.0244 7.9834 47.0986 8.45475 47.0986 9.01465V9.40527H42.4736V8.6084H46.1611C46.1611 8.26986 46.0934 7.96777 45.958 7.70215C45.8252 7.43652 45.6351 7.22689 45.3877 7.07324C45.1429 6.9196 44.8538 6.84277 44.5205 6.84277C44.1533 6.84277 43.8356 6.93392 43.5674 7.11621C43.3018 7.2959 43.0973 7.53027 42.9541 7.81934C42.8109 8.1084 42.7393 8.41829 42.7393 8.74902V9.28027C42.7393 9.7334 42.8174 10.1175 42.9736 10.4326C43.1325 10.7451 43.3525 10.9834 43.6338 11.1475C43.915 11.3089 44.2419 11.3896 44.6143 11.3896C44.8564 11.3896 45.0752 11.3558 45.2705 11.2881C45.4684 11.2178 45.639 11.1136 45.7822 10.9756C45.9255 10.835 46.0361 10.6605 46.1143 10.4521L47.0049 10.7021C46.9111 11.0042 46.7536 11.2699 46.5322 11.499C46.3109 11.7256 46.0374 11.9027 45.7119 12.0303C45.3864 12.1553 45.0205 12.2178 44.6143 12.2178ZM50.7666 12.2178C50.2666 12.2178 49.8252 12.0915 49.4424 11.8389C49.0596 11.5837 48.7601 11.2243 48.5439 10.7607C48.3278 10.2946 48.2197 9.74382 48.2197 9.1084C48.2197 8.47819 48.3278 7.93131 48.5439 7.46777C48.7601 7.00423 49.0609 6.64616 49.4463 6.39355C49.8317 6.14095 50.277 6.01465 50.7822 6.01465C51.1729 6.01465 51.4814 6.07975 51.708 6.20996C51.9372 6.33757 52.1117 6.4834 52.2314 6.64746C52.3538 6.80892 52.4489 6.94173 52.5166 7.0459H52.5947V4.09277H53.5166V12.0928H52.626V11.1709H52.5166C52.4489 11.2803 52.3525 11.4183 52.2275 11.585C52.1025 11.749 51.9242 11.8962 51.6924 12.0264C51.4606 12.154 51.152 12.2178 50.7666 12.2178ZM50.8916 11.3896C51.2614 11.3896 51.5739 11.2933 51.8291 11.1006C52.0843 10.9053 52.2783 10.6357 52.4111 10.292C52.5439 9.94564 52.6104 9.5459 52.6104 9.09277C52.6104 8.64486 52.5452 8.25293 52.415 7.91699C52.2848 7.57845 52.0921 7.31543 51.8369 7.12793C51.5817 6.93783 51.2666 6.84277 50.8916 6.84277C50.501 6.84277 50.1755 6.94303 49.915 7.14355C49.6572 7.34147 49.4632 7.611 49.333 7.95215C49.2054 8.29069 49.1416 8.6709 49.1416 9.09277C49.1416 9.51986 49.2067 9.90788 49.3369 10.2568C49.4697 10.6032 49.665 10.8792 49.9229 11.085C50.1833 11.2881 50.5062 11.3896 50.8916 11.3896ZM63.333 6.09277L61.1143 12.0928H60.1768L57.958 6.09277H58.958L60.6143 10.874H60.6768L62.333 6.09277H63.333ZM64.5498 12.0928V6.09277H65.4717V12.0928H64.5498ZM65.0186 5.09277C64.8389 5.09277 64.6839 5.03158 64.5537 4.90918C64.4261 4.78678 64.3623 4.63965 64.3623 4.46777C64.3623 4.2959 64.4261 4.14876 64.5537 4.02637C64.6839 3.90397 64.8389 3.84277 65.0186 3.84277C65.1982 3.84277 65.3519 3.90397 65.4795 4.02637C65.6097 4.14876 65.6748 4.2959 65.6748 4.46777C65.6748 4.63965 65.6097 4.78678 65.4795 4.90918C65.3519 5.03158 65.1982 5.09277 65.0186 5.09277ZM71.4102 7.43652L70.582 7.6709C70.5299 7.53288 70.4531 7.39876 70.3516 7.26855C70.2526 7.13574 70.1172 7.02637 69.9453 6.94043C69.7734 6.85449 69.5534 6.81152 69.2852 6.81152C68.918 6.81152 68.612 6.89616 68.3672 7.06543C68.125 7.2321 68.0039 7.44434 68.0039 7.70215C68.0039 7.93131 68.0872 8.1123 68.2539 8.24512C68.4206 8.37793 68.681 8.48861 69.0352 8.57715L69.9258 8.7959C70.4622 8.92611 70.862 9.12533 71.125 9.39355C71.388 9.65918 71.5195 10.0016 71.5195 10.4209C71.5195 10.7646 71.4206 11.0719 71.2227 11.3428C71.0273 11.6136 70.7539 11.8271 70.4023 11.9834C70.0508 12.1396 69.6419 12.2178 69.1758 12.2178C68.5638 12.2178 68.0573 12.085 67.6563 11.8193C67.2552 11.5537 67.0013 11.1657 66.8945 10.6553L67.7695 10.4365C67.8529 10.7594 68.0104 11.0016 68.2422 11.1631C68.4766 11.3245 68.7826 11.4053 69.1602 11.4053C69.5898 11.4053 69.931 11.3141 70.1836 11.1318C70.4388 10.9469 70.5664 10.7256 70.5664 10.4678C70.5664 10.2594 70.4935 10.085 70.3477 9.94434C70.2018 9.80111 69.9779 9.69434 69.6758 9.62402L68.6758 9.38965C68.1263 9.25944 67.7227 9.05762 67.4648 8.78418C67.2096 8.50814 67.082 8.16309 67.082 7.74902C67.082 7.41048 67.1771 7.111 67.3672 6.85059C67.5599 6.59017 67.8216 6.38574 68.1523 6.2373C68.4857 6.08887 68.8633 6.01465 69.2852 6.01465C69.8789 6.01465 70.3451 6.14486 70.6836 6.40527C71.0247 6.66569 71.2669 7.00944 71.4102 7.43652ZM75.3447 12.2178C74.7822 12.2178 74.2979 12.085 73.8916 11.8193C73.4854 11.5537 73.1729 11.1878 72.9541 10.7217C72.7354 10.2555 72.626 9.72298 72.626 9.12402C72.626 8.51465 72.738 7.97689 72.9619 7.51074C73.1885 7.04199 73.5036 6.67611 73.9072 6.41309C74.3135 6.14746 74.7874 6.01465 75.3291 6.01465C75.751 6.01465 76.1312 6.09277 76.4697 6.24902C76.8083 6.40527 77.0856 6.62402 77.3018 6.90527C77.5179 7.18652 77.652 7.51465 77.7041 7.88965H76.7822C76.7119 7.61621 76.5557 7.37402 76.3135 7.16309C76.0739 6.94954 75.751 6.84277 75.3447 6.84277C74.9854 6.84277 74.6702 6.93652 74.3994 7.12402C74.1312 7.30892 73.9215 7.57064 73.7705 7.90918C73.6221 8.24512 73.5479 8.63965 73.5479 9.09277C73.5479 9.55632 73.6208 9.95996 73.7666 10.3037C73.915 10.6475 74.1234 10.9144 74.3916 11.1045C74.6624 11.2946 74.9801 11.3896 75.3447 11.3896C75.5843 11.3896 75.8018 11.348 75.9971 11.2646C76.1924 11.1813 76.3577 11.0615 76.4932 10.9053C76.6286 10.749 76.7249 10.5615 76.7822 10.3428H77.7041C77.652 10.6969 77.5231 11.016 77.3174 11.2998C77.1143 11.5811 76.8447 11.805 76.5088 11.9717C76.1755 12.1357 75.7874 12.2178 75.3447 12.2178ZM81.5674 12.2178C80.9893 12.2178 80.4906 12.0902 80.0713 11.835C79.6546 11.5771 79.333 11.2178 79.1064 10.7568C78.8825 10.2933 78.7705 9.75423 78.7705 9.13965C78.7705 8.52506 78.8825 7.9834 79.1064 7.51465C79.333 7.04329 79.6481 6.67611 80.0518 6.41309C80.458 6.14746 80.932 6.01465 81.4736 6.01465C81.7861 6.01465 82.0947 6.06673 82.3994 6.1709C82.7041 6.27506 82.9814 6.44434 83.2314 6.67871C83.4814 6.91048 83.6807 7.21777 83.8291 7.60059C83.9775 7.9834 84.0518 8.45475 84.0518 9.01465V9.40527H79.4268V8.6084H83.1143C83.1143 8.26986 83.0465 7.96777 82.9111 7.70215C82.7783 7.43652 82.5882 7.22689 82.3408 7.07324C82.096 6.9196 81.807 6.84277 81.4736 6.84277C81.1064 6.84277 80.7887 6.93392 80.5205 7.11621C80.2549 7.2959 80.0505 7.53027 79.9072 7.81934C79.764 8.1084 79.6924 8.41829 79.6924 8.74902V9.28027C79.6924 9.7334 79.7705 10.1175 79.9268 10.4326C80.0856 10.7451 80.3057 10.9834 80.5869 11.1475C80.8682 11.3089 81.195 11.3896 81.5674 11.3896C81.8096 11.3896 82.0283 11.3558 82.2236 11.2881C82.4215 11.2178 82.5921 11.1136 82.7354 10.9756C82.8786 10.835 82.9893 10.6605 83.0674 10.4521L83.958 10.7021C83.8643 11.0042 83.7067 11.2699 83.4854 11.499C83.264 11.7256 82.9906 11.9027 82.665 12.0303C82.3395 12.1553 81.9736 12.2178 81.5674 12.2178ZM85.4541 12.0928V6.09277H86.3447V6.99902H86.4072C86.5166 6.70215 86.7145 6.46126 87.001 6.27637C87.2874 6.09147 87.6104 5.99902 87.9697 5.99902C88.0374 5.99902 88.1221 6.00033 88.2236 6.00293C88.3252 6.00553 88.402 6.00944 88.4541 6.01465V6.95215C88.4229 6.94434 88.3512 6.93262 88.2393 6.91699C88.1299 6.89876 88.014 6.88965 87.8916 6.88965C87.5999 6.88965 87.3395 6.95085 87.1104 7.07324C86.8838 7.19303 86.7041 7.3597 86.5713 7.57324C86.4411 7.78418 86.376 8.02506 86.376 8.2959V12.0928H85.4541ZM91.3125 12.2334C90.9323 12.2334 90.5872 12.1618 90.2773 12.0186C89.9674 11.8727 89.7214 11.6631 89.5391 11.3896C89.3568 11.1136 89.2656 10.7803 89.2656 10.3896C89.2656 10.0459 89.3333 9.76725 89.4688 9.55371C89.6042 9.33756 89.7852 9.16829 90.0117 9.0459C90.2383 8.9235 90.4883 8.83236 90.7617 8.77246C91.0378 8.70996 91.3151 8.66048 91.5938 8.62402C91.9583 8.57715 92.2539 8.54199 92.4805 8.51855C92.7096 8.49251 92.8763 8.44954 92.9805 8.38965C93.0872 8.32975 93.1406 8.22559 93.1406 8.07715V8.0459C93.1406 7.66048 93.0352 7.361 92.8242 7.14746C92.6159 6.93392 92.2995 6.82715 91.875 6.82715C91.4349 6.82715 91.0898 6.9235 90.8398 7.11621C90.5898 7.30892 90.4141 7.51465 90.3125 7.7334L89.4375 7.4209C89.5938 7.05631 89.8021 6.77246 90.0625 6.56934C90.3255 6.36361 90.612 6.22038 90.9219 6.13965C91.2344 6.05632 91.5417 6.01465 91.8438 6.01465C92.0365 6.01465 92.2578 6.03809 92.5078 6.08496C92.7604 6.12923 93.0039 6.22168 93.2383 6.3623C93.4753 6.50293 93.6719 6.71517 93.8281 6.99902C93.9844 7.28288 94.0625 7.66309 94.0625 8.13965V12.0928H93.1406V11.2803H93.0938C93.0313 11.4105 92.9271 11.5498 92.7813 11.6982C92.6354 11.8467 92.4414 11.973 92.1992 12.0771C91.957 12.1813 91.6615 12.2334 91.3125 12.2334ZM91.4531 11.4053C91.8177 11.4053 92.125 11.3337 92.375 11.1904C92.6276 11.0472 92.8177 10.8623 92.9453 10.6357C93.0755 10.4092 93.1406 10.1709 93.1406 9.9209V9.07715C93.1016 9.12402 93.0156 9.16699 92.8828 9.20605C92.7526 9.24251 92.6016 9.27506 92.4297 9.30371C92.2604 9.32975 92.0951 9.35319 91.9336 9.37402C91.7747 9.39225 91.6458 9.40788 91.5469 9.4209C91.3073 9.45215 91.0833 9.50293 90.875 9.57324C90.6693 9.64095 90.5026 9.74382 90.375 9.88184C90.25 10.0173 90.1875 10.2021 90.1875 10.4365C90.1875 10.7568 90.306 10.999 90.543 11.1631C90.7826 11.3245 91.0859 11.4053 91.4531 11.4053ZM96.667 4.09277V12.0928H95.7451V4.09277H96.667ZM103.215 12.2334C102.835 12.2334 102.49 12.1618 102.18 12.0186C101.87 11.8727 101.624 11.6631 101.441 11.3896C101.259 11.1136 101.168 10.7803 101.168 10.3896C101.168 10.0459 101.236 9.76725 101.371 9.55371C101.507 9.33756 101.688 9.16829 101.914 9.0459C102.141 8.9235 102.391 8.83236 102.664 8.77246C102.94 8.70996 103.217 8.66048 103.496 8.62402C103.861 8.57715 104.156 8.54199 104.383 8.51855C104.612 8.49251 104.779 8.44954 104.883 8.38965C104.99 8.32975 105.043 8.22559 105.043 8.07715V8.0459C105.043 7.66048 104.938 7.361 104.727 7.14746C104.518 6.93392 104.202 6.82715 103.777 6.82715C103.337 6.82715 102.992 6.9235 102.742 7.11621C102.492 7.30892 102.316 7.51465 102.215 7.7334L101.34 7.4209C101.496 7.05631 101.704 6.77246 101.965 6.56934C102.228 6.36361 102.514 6.22038 102.824 6.13965C103.137 6.05632 103.444 6.01465 103.746 6.01465C103.939 6.01465 104.16 6.03809 104.41 6.08496C104.663 6.12923 104.906 6.22168 105.141 6.3623C105.378 6.50293 105.574 6.71517 105.73 6.99902C105.887 7.28288 105.965 7.66309 105.965 8.13965V12.0928H105.043V11.2803H104.996C104.934 11.4105 104.829 11.5498 104.684 11.6982C104.538 11.8467 104.344 11.973 104.102 12.0771C103.859 12.1813 103.564 12.2334 103.215 12.2334ZM103.355 11.4053C103.72 11.4053 104.027 11.3337 104.277 11.1904C104.53 11.0472 104.72 10.8623 104.848 10.6357C104.978 10.4092 105.043 10.1709 105.043 9.9209V9.07715C105.004 9.12402 104.918 9.16699 104.785 9.20605C104.655 9.24251 104.504 9.27506 104.332 9.30371C104.163 9.32975 103.997 9.35319 103.836 9.37402C103.677 9.39225 103.548 9.40788 103.449 9.4209C103.21 9.45215 102.986 9.50293 102.777 9.57324C102.572 9.64095 102.405 9.74382 102.277 9.88184C102.152 10.0173 102.09 10.2021 102.09 10.4365C102.09 10.7568 102.208 10.999 102.445 11.1631C102.685 11.3245 102.988 11.4053 103.355 11.4053ZM109.913 12.2178C109.413 12.2178 108.972 12.0915 108.589 11.8389C108.206 11.5837 107.907 11.2243 107.69 10.7607C107.474 10.2946 107.366 9.74382 107.366 9.1084C107.366 8.47819 107.474 7.93131 107.69 7.46777C107.907 7.00423 108.207 6.64616 108.593 6.39355C108.978 6.14095 109.424 6.01465 109.929 6.01465C110.319 6.01465 110.628 6.07975 110.854 6.20996C111.084 6.33757 111.258 6.4834 111.378 6.64746C111.5 6.80892 111.595 6.94173 111.663 7.0459H111.741V4.09277H112.663V12.0928H111.772V11.1709H111.663C111.595 11.2803 111.499 11.4183 111.374 11.585C111.249 11.749 111.071 11.8962 110.839 12.0264C110.607 12.154 110.299 12.2178 109.913 12.2178ZM110.038 11.3896C110.408 11.3896 110.72 11.2933 110.976 11.1006C111.231 10.9053 111.425 10.6357 111.558 10.292C111.69 9.94564 111.757 9.5459 111.757 9.09277C111.757 8.64486 111.692 8.25293 111.562 7.91699C111.431 7.57845 111.239 7.31543 110.983 7.12793C110.728 6.93783 110.413 6.84277 110.038 6.84277C109.647 6.84277 109.322 6.94303 109.062 7.14355C108.804 7.34147 108.61 7.611 108.479 7.95215C108.352 8.29069 108.288 8.6709 108.288 9.09277C108.288 9.51986 108.353 9.90788 108.483 10.2568C108.616 10.6032 108.812 10.8792 109.069 11.085C109.33 11.2881 109.653 11.3896 110.038 11.3896ZM114.479 12.0928V6.09277H115.401V12.0928H114.479ZM114.948 5.09277C114.769 5.09277 114.614 5.03158 114.483 4.90918C114.356 4.78678 114.292 4.63965 114.292 4.46777C114.292 4.2959 114.356 4.14876 114.483 4.02637C114.614 3.90397 114.769 3.84277 114.948 3.84277C115.128 3.84277 115.282 3.90397 115.409 4.02637C115.539 4.14876 115.604 4.2959 115.604 4.46777C115.604 4.63965 115.539 4.78678 115.409 4.90918C115.282 5.03158 115.128 5.09277 114.948 5.09277ZM117.09 14.3428V6.09277H117.98V7.0459H118.09C118.158 6.94173 118.251 6.80892 118.371 6.64746C118.493 6.4834 118.668 6.33757 118.895 6.20996C119.124 6.07975 119.434 6.01465 119.824 6.01465C120.329 6.01465 120.775 6.14095 121.16 6.39355C121.546 6.64616 121.846 7.00423 122.063 7.46777C122.279 7.93131 122.387 8.47819 122.387 9.1084C122.387 9.74382 122.279 10.2946 122.063 10.7607C121.846 11.2243 121.547 11.5837 121.164 11.8389C120.781 12.0915 120.34 12.2178 119.84 12.2178C119.454 12.2178 119.146 12.154 118.914 12.0264C118.682 11.8962 118.504 11.749 118.379 11.585C118.254 11.4183 118.158 11.2803 118.09 11.1709H118.012V14.3428H117.09ZM117.996 9.09277C117.996 9.5459 118.062 9.94564 118.195 10.292C118.328 10.6357 118.522 10.9053 118.777 11.1006C119.033 11.2933 119.345 11.3896 119.715 11.3896C120.1 11.3896 120.422 11.2881 120.68 11.085C120.94 10.8792 121.135 10.6032 121.266 10.2568C121.398 9.90788 121.465 9.51986 121.465 9.09277C121.465 8.6709 121.4 8.29069 121.27 7.95215C121.142 7.611 120.948 7.34147 120.688 7.14355C120.43 6.94303 120.105 6.84277 119.715 6.84277C119.34 6.84277 119.025 6.93783 118.77 7.12793C118.514 7.31543 118.322 7.57845 118.191 7.91699C118.061 8.25293 117.996 8.64486 117.996 9.09277ZM126.23 12.2178C125.689 12.2178 125.214 12.0889 124.805 11.8311C124.398 11.5732 124.081 11.2126 123.852 10.749C123.625 10.2855 123.512 9.74381 123.512 9.12402C123.512 8.49902 123.625 7.95345 123.852 7.4873C124.081 7.02116 124.398 6.65918 124.805 6.40137C125.214 6.14355 125.689 6.01465 126.23 6.01465C126.772 6.01465 127.246 6.14355 127.652 6.40137C128.061 6.65918 128.379 7.02116 128.605 7.4873C128.835 7.95345 128.949 8.49902 128.949 9.12402C128.949 9.74381 128.835 10.2855 128.605 10.749C128.379 11.2126 128.061 11.5732 127.652 11.8311C127.246 12.0889 126.772 12.2178 126.23 12.2178ZM126.23 11.3896C126.642 11.3896 126.98 11.2842 127.246 11.0732C127.512 10.8623 127.708 10.585 127.836 10.2412C127.964 9.89746 128.027 9.52506 128.027 9.12402C128.027 8.72298 127.964 8.34928 127.836 8.00293C127.708 7.65658 127.512 7.37663 127.246 7.16309C126.98 6.94954 126.642 6.84277 126.23 6.84277C125.819 6.84277 125.48 6.94954 125.215 7.16309C124.949 7.37663 124.753 7.65658 124.625 8.00293C124.497 8.34928 124.434 8.72298 124.434 9.12402C124.434 9.52506 124.497 9.89746 124.625 10.2412C124.753 10.585 124.949 10.8623 125.215 11.0732C125.48 11.2842 125.819 11.3896 126.23 11.3896ZM134.606 7.43652L133.778 7.6709C133.726 7.53288 133.649 7.39876 133.548 7.26855C133.449 7.13574 133.313 7.02637 133.142 6.94043C132.97 6.85449 132.75 6.81152 132.481 6.81152C132.114 6.81152 131.808 6.89616 131.563 7.06543C131.321 7.2321 131.2 7.44434 131.2 7.70215C131.2 7.93131 131.284 8.1123 131.45 8.24512C131.617 8.37793 131.877 8.48861 132.231 8.57715L133.122 8.7959C133.659 8.92611 134.058 9.12533 134.321 9.39355C134.584 9.65918 134.716 10.0016 134.716 10.4209C134.716 10.7646 134.617 11.0719 134.419 11.3428C134.224 11.6136 133.95 11.8271 133.599 11.9834C133.247 12.1396 132.838 12.2178 132.372 12.2178C131.76 12.2178 131.254 12.085 130.853 11.8193C130.451 11.5537 130.198 11.1657 130.091 10.6553L130.966 10.4365C131.049 10.7594 131.207 11.0016 131.438 11.1631C131.673 11.3245 131.979 11.4053 132.356 11.4053C132.786 11.4053 133.127 11.3141 133.38 11.1318C133.635 10.9469 133.763 10.7256 133.763 10.4678C133.763 10.2594 133.69 10.085 133.544 9.94434C133.398 9.80111 133.174 9.69434 132.872 9.62402L131.872 9.38965C131.323 9.25944 130.919 9.05762 130.661 8.78418C130.406 8.50814 130.278 8.16309 130.278 7.74902C130.278 7.41048 130.373 7.111 130.563 6.85059C130.756 6.59017 131.018 6.38574 131.349 6.2373C131.682 6.08887 132.06 6.01465 132.481 6.01465C133.075 6.01465 133.541 6.14486 133.88 6.40527C134.221 6.66569 134.463 7.00944 134.606 7.43652ZM138.619 12.2178C138.041 12.2178 137.542 12.0902 137.123 11.835C136.706 11.5771 136.385 11.2178 136.158 10.7568C135.934 10.2933 135.822 9.75423 135.822 9.13965C135.822 8.52506 135.934 7.9834 136.158 7.51465C136.385 7.04329 136.7 6.67611 137.104 6.41309C137.51 6.14746 137.984 6.01465 138.525 6.01465C138.838 6.01465 139.146 6.06673 139.451 6.1709C139.756 6.27506 140.033 6.44434 140.283 6.67871C140.533 6.91048 140.732 7.21777 140.881 7.60059C141.029 7.9834 141.104 8.45475 141.104 9.01465V9.40527H136.479V8.6084H140.166C140.166 8.26986 140.098 7.96777 139.963 7.70215C139.83 7.43652 139.64 7.22689 139.393 7.07324C139.148 6.9196 138.859 6.84277 138.525 6.84277C138.158 6.84277 137.84 6.93392 137.572 7.11621C137.307 7.2959 137.102 7.53027 136.959 7.81934C136.816 8.1084 136.744 8.41829 136.744 8.74902V9.28027C136.744 9.7334 136.822 10.1175 136.979 10.4326C137.137 10.7451 137.357 10.9834 137.639 11.1475C137.92 11.3089 138.247 11.3896 138.619 11.3896C138.861 11.3896 139.08 11.3558 139.275 11.2881C139.473 11.2178 139.644 11.1136 139.787 10.9756C139.93 10.835 140.041 10.6605 140.119 10.4521L141.01 10.7021C140.916 11.0042 140.758 11.2699 140.537 11.499C140.316 11.7256 140.042 11.9027 139.717 12.0303C139.391 12.1553 139.025 12.2178 138.619 12.2178ZM148.209 6.09277V6.87402H145.1V6.09277H148.209ZM146.006 4.65527H146.928V10.374C146.928 10.6344 146.965 10.8298 147.041 10.96C147.119 11.0876 147.218 11.1735 147.338 11.2178C147.46 11.2594 147.589 11.2803 147.725 11.2803C147.826 11.2803 147.91 11.2751 147.975 11.2646C148.04 11.2516 148.092 11.2412 148.131 11.2334L148.318 12.0615C148.256 12.085 148.169 12.1084 148.057 12.1318C147.945 12.1579 147.803 12.1709 147.631 12.1709C147.37 12.1709 147.115 12.1149 146.865 12.0029C146.618 11.891 146.412 11.7204 146.248 11.4912C146.087 11.262 146.006 10.973 146.006 10.624V4.65527ZM149.596 12.0928V6.09277H150.518V12.0928H149.596ZM150.064 5.09277C149.885 5.09277 149.73 5.03158 149.6 4.90918C149.472 4.78678 149.408 4.63965 149.408 4.46777C149.408 4.2959 149.472 4.14876 149.6 4.02637C149.73 3.90397 149.885 3.84277 150.064 3.84277C150.244 3.84277 150.398 3.90397 150.525 4.02637C150.656 4.14876 150.721 4.2959 150.721 4.46777C150.721 4.63965 150.656 4.78678 150.525 4.90918C150.398 5.03158 150.244 5.09277 150.064 5.09277ZM156.456 7.43652L155.628 7.6709C155.576 7.53288 155.499 7.39876 155.397 7.26855C155.299 7.13574 155.163 7.02637 154.991 6.94043C154.819 6.85449 154.599 6.81152 154.331 6.81152C153.964 6.81152 153.658 6.89616 153.413 7.06543C153.171 7.2321 153.05 7.44434 153.05 7.70215C153.05 7.93131 153.133 8.1123 153.3 8.24512C153.466 8.37793 153.727 8.48861 154.081 8.57715L154.972 8.7959C155.508 8.92611 155.908 9.12533 156.171 9.39355C156.434 9.65918 156.565 10.0016 156.565 10.4209C156.565 10.7646 156.466 11.0719 156.269 11.3428C156.073 11.6136 155.8 11.8271 155.448 11.9834C155.097 12.1396 154.688 12.2178 154.222 12.2178C153.61 12.2178 153.103 12.085 152.702 11.8193C152.301 11.5537 152.047 11.1657 151.94 10.6553L152.815 10.4365C152.899 10.7594 153.056 11.0016 153.288 11.1631C153.522 11.3245 153.828 11.4053 154.206 11.4053C154.636 11.4053 154.977 11.3141 155.229 11.1318C155.485 10.9469 155.612 10.7256 155.612 10.4678C155.612 10.2594 155.539 10.085 155.394 9.94434C155.248 9.80111 155.024 9.69434 154.722 9.62402L153.722 9.38965C153.172 9.25944 152.769 9.05762 152.511 8.78418C152.256 8.50814 152.128 8.16309 152.128 7.74902C152.128 7.41048 152.223 7.111 152.413 6.85059C152.606 6.59017 152.868 6.38574 153.198 6.2373C153.532 6.08887 153.909 6.01465 154.331 6.01465C154.925 6.01465 155.391 6.14486 155.729 6.40527C156.071 6.66569 156.313 7.00944 156.456 7.43652ZM162.203 7.43652L161.375 7.6709C161.323 7.53288 161.246 7.39876 161.145 7.26855C161.046 7.13574 160.91 7.02637 160.738 6.94043C160.566 6.85449 160.346 6.81152 160.078 6.81152C159.711 6.81152 159.405 6.89616 159.16 7.06543C158.918 7.2321 158.797 7.44434 158.797 7.70215C158.797 7.93131 158.88 8.1123 159.047 8.24512C159.214 8.37793 159.474 8.48861 159.828 8.57715L160.719 8.7959C161.255 8.92611 161.655 9.12533 161.918 9.39355C162.181 9.65918 162.313 10.0016 162.313 10.4209C162.313 10.7646 162.214 11.0719 162.016 11.3428C161.82 11.6136 161.547 11.8271 161.195 11.9834C160.844 12.1396 160.435 12.2178 159.969 12.2178C159.357 12.2178 158.85 12.085 158.449 11.8193C158.048 11.5537 157.794 11.1657 157.688 10.6553L158.563 10.4365C158.646 10.7594 158.803 11.0016 159.035 11.1631C159.27 11.3245 159.576 11.4053 159.953 11.4053C160.383 11.4053 160.724 11.3141 160.977 11.1318C161.232 10.9469 161.359 10.7256 161.359 10.4678C161.359 10.2594 161.286 10.085 161.141 9.94434C160.995 9.80111 160.771 9.69434 160.469 9.62402L159.469 9.38965C158.919 9.25944 158.516 9.05762 158.258 8.78418C158.003 8.50814 157.875 8.16309 157.875 7.74902C157.875 7.41048 157.97 7.111 158.16 6.85059C158.353 6.59017 158.615 6.38574 158.945 6.2373C159.279 6.08887 159.656 6.01465 160.078 6.01465C160.672 6.01465 161.138 6.14486 161.477 6.40527C161.818 6.66569 162.06 7.00944 162.203 7.43652ZM167.481 9.63965V6.09277H168.403V12.0928H167.481V11.0771H167.419C167.278 11.3818 167.06 11.641 166.763 11.8545C166.466 12.0654 166.091 12.1709 165.638 12.1709C165.263 12.1709 164.929 12.0889 164.638 11.9248C164.346 11.7581 164.117 11.5081 163.95 11.1748C163.784 10.8389 163.7 10.4157 163.7 9.90527V6.09277H164.622V9.84277C164.622 10.2803 164.744 10.6292 164.989 10.8896C165.237 11.1501 165.552 11.2803 165.935 11.2803C166.164 11.2803 166.397 11.2217 166.634 11.1045C166.873 10.9873 167.074 10.8076 167.235 10.5654C167.399 10.3232 167.481 10.0146 167.481 9.63965ZM172.607 12.2178C172.029 12.2178 171.531 12.0902 171.111 11.835C170.695 11.5771 170.373 11.2178 170.146 10.7568C169.923 10.2933 169.811 9.75423 169.811 9.13965C169.811 8.52506 169.923 7.9834 170.146 7.51465C170.373 7.04329 170.688 6.67611 171.092 6.41309C171.498 6.14746 171.972 6.01465 172.514 6.01465C172.826 6.01465 173.135 6.06673 173.439 6.1709C173.744 6.27506 174.021 6.44434 174.271 6.67871C174.521 6.91048 174.721 7.21777 174.869 7.60059C175.018 7.9834 175.092 8.45475 175.092 9.01465V9.40527H170.467V8.6084H174.154C174.154 8.26986 174.087 7.96777 173.951 7.70215C173.818 7.43652 173.628 7.22689 173.381 7.07324C173.136 6.9196 172.847 6.84277 172.514 6.84277C172.146 6.84277 171.829 6.93392 171.561 7.11621C171.295 7.2959 171.09 7.53027 170.947 7.81934C170.804 8.1084 170.732 8.41829 170.732 8.74902V9.28027C170.732 9.7334 170.811 10.1175 170.967 10.4326C171.126 10.7451 171.346 10.9834 171.627 11.1475C171.908 11.3089 172.235 11.3896 172.607 11.3896C172.85 11.3896 173.068 11.3558 173.264 11.2881C173.462 11.2178 173.632 11.1136 173.775 10.9756C173.919 10.835 174.029 10.6605 174.107 10.4521L174.998 10.7021C174.904 11.0042 174.747 11.2699 174.525 11.499C174.304 11.7256 174.031 11.9027 173.705 12.0303C173.38 12.1553 173.014 12.2178 172.607 12.2178ZM179.916 8.09277C179.916 7.1084 180.044 6.20345 180.299 5.37793C180.557 4.5498 180.924 3.78809 181.4 3.09277H182.213C182.025 3.35059 181.85 3.66829 181.686 4.0459C181.524 4.4209 181.382 4.83366 181.26 5.28418C181.137 5.7321 181.041 6.19564 180.971 6.6748C180.903 7.15397 180.869 7.62663 180.869 8.09277C180.869 8.71257 180.929 9.34147 181.049 9.97949C181.169 10.6175 181.33 11.21 181.533 11.7568C181.736 12.3037 181.963 12.749 182.213 13.0928H181.4C180.924 12.3975 180.557 11.637 180.299 10.8115C180.044 9.9834 179.916 9.07715 179.916 8.09277ZM184.026 4.09277L186.401 10.8271H186.495L188.87 4.09277H189.886L186.948 12.0928H185.948L183.011 4.09277H184.026ZM190.772 12.0928H189.757L192.694 4.09277H193.694L196.632 12.0928H195.616L193.226 5.3584H193.163L190.772 12.0928ZM191.147 8.96777H195.241V9.82715H191.147V8.96777ZM196.506 4.95215V4.09277H202.506V4.95215H199.99V12.0928H199.021V4.95215H196.506ZM205.845 8.09277C205.845 9.07715 205.716 9.9834 205.458 10.8115C205.203 11.637 204.837 12.3975 204.36 13.0928H203.548C203.735 12.835 203.91 12.5173 204.071 12.1396C204.235 11.7646 204.379 11.3532 204.501 10.9053C204.623 10.4548 204.718 9.98991 204.786 9.51074C204.856 9.02897 204.892 8.55631 204.892 8.09277C204.892 7.47298 204.832 6.84408 204.712 6.20605C204.592 5.56803 204.431 4.97559 204.228 4.42871C204.024 3.88184 203.798 3.43652 203.548 3.09277H204.36C204.837 3.78809 205.203 4.5498 205.458 5.37793C205.716 6.20345 205.845 7.1084 205.845 8.09277Z" fill="white" style="fill:white;fill-opacity:1;"/>
</svg>
