<svg width="544" height="16" viewBox="0 0 544 16" fill="none" xmlns="http://www.w3.org/2000/svg">
<rect width="543.086" height="15.1846" fill="#8D51D6" style="fill:#8D51D6;fill:color(display-p3 0.5529 0.3176 0.8392);fill-opacity:1;"/>
<path d="M3.16797 4.95215V4.09277H9.16797V4.95215H6.65234V12.0928H5.68359V4.95215H3.16797ZM10.5381 12.0928V6.09277H11.46V12.0928H10.5381ZM11.0068 5.09277C10.8271 5.09277 10.6722 5.03158 10.542 4.90918C10.4144 4.78678 10.3506 4.63965 10.3506 4.46777C10.3506 4.2959 10.4144 4.14876 10.542 4.02637C10.6722 3.90397 10.8271 3.84277 11.0068 3.84277C11.1865 3.84277 11.3402 3.90397 11.4678 4.02637C11.598 4.14876 11.6631 4.2959 11.6631 4.46777C11.6631 4.63965 11.598 4.78678 11.4678 4.90918C11.3402 5.03158 11.1865 5.09277 11.0068 5.09277ZM17.3984 7.43652L16.5703 7.6709C16.5182 7.53288 16.4414 7.39876 16.3398 7.26855C16.2409 7.13574 16.1055 7.02637 15.9336 6.94043C15.7617 6.85449 15.5417 6.81152 15.2734 6.81152C14.9063 6.81152 14.6003 6.89616 14.3555 7.06543C14.1133 7.2321 13.9922 7.44434 13.9922 7.70215C13.9922 7.93131 14.0755 8.1123 14.2422 8.24512C14.4089 8.37793 14.6693 8.48861 15.0234 8.57715L15.9141 8.7959C16.4505 8.92611 16.8503 9.12533 17.1133 9.39355C17.3763 9.65918 17.5078 10.0016 17.5078 10.4209C17.5078 10.7646 17.4089 11.0719 17.2109 11.3428C17.0156 11.6136 16.7422 11.8271 16.3906 11.9834C16.0391 12.1396 15.6302 12.2178 15.1641 12.2178C14.5521 12.2178 14.0456 12.085 13.6445 11.8193C13.2435 11.5537 12.9896 11.1657 12.8828 10.6553L13.7578 10.4365C13.8411 10.7594 13.9987 11.0016 14.2305 11.1631C14.4648 11.3245 14.7708 11.4053 15.1484 11.4053C15.5781 11.4053 15.9193 11.3141 16.1719 11.1318C16.4271 10.9469 16.5547 10.7256 16.5547 10.4678C16.5547 10.2594 16.4818 10.085 16.3359 9.94434C16.1901 9.80111 15.9661 9.69434 15.6641 9.62402L14.6641 9.38965C14.1146 9.25944 13.7109 9.05762 13.4531 8.78418C13.1979 8.50814 13.0703 8.16309 13.0703 7.74902C13.0703 7.41048 13.1654 7.111 13.3555 6.85059C13.5482 6.59017 13.8099 6.38574 14.1406 6.2373C14.474 6.08887 14.8516 6.01465 15.2734 6.01465C15.8672 6.01465 16.3333 6.14486 16.6719 6.40527C17.013 6.66569 17.2552 7.00944 17.3984 7.43652ZM23.1455 7.43652L22.3174 7.6709C22.2653 7.53288 22.1885 7.39876 22.0869 7.26855C21.988 7.13574 21.8525 7.02637 21.6807 6.94043C21.5088 6.85449 21.2887 6.81152 21.0205 6.81152C20.6533 6.81152 20.3473 6.89616 20.1025 7.06543C19.8604 7.2321 19.7393 7.44434 19.7393 7.70215C19.7393 7.93131 19.8226 8.1123 19.9893 8.24512C20.1559 8.37793 20.4163 8.48861 20.7705 8.57715L21.6611 8.7959C22.1976 8.92611 22.5973 9.12533 22.8604 9.39355C23.1234 9.65918 23.2549 10.0016 23.2549 10.4209C23.2549 10.7646 23.1559 11.0719 22.958 11.3428C22.7627 11.6136 22.4893 11.8271 22.1377 11.9834C21.7861 12.1396 21.3773 12.2178 20.9111 12.2178C20.2992 12.2178 19.7926 12.085 19.3916 11.8193C18.9906 11.5537 18.7367 11.1657 18.6299 10.6553L19.5049 10.4365C19.5882 10.7594 19.7458 11.0016 19.9775 11.1631C20.2119 11.3245 20.5179 11.4053 20.8955 11.4053C21.3252 11.4053 21.6663 11.3141 21.9189 11.1318C22.1742 10.9469 22.3018 10.7256 22.3018 10.4678C22.3018 10.2594 22.2288 10.085 22.083 9.94434C21.9372 9.80111 21.7132 9.69434 21.4111 9.62402L20.4111 9.38965C19.8617 9.25944 19.458 9.05762 19.2002 8.78418C18.945 8.50814 18.8174 8.16309 18.8174 7.74902C18.8174 7.41048 18.9124 7.111 19.1025 6.85059C19.2952 6.59017 19.557 6.38574 19.8877 6.2373C20.221 6.08887 20.5986 6.01465 21.0205 6.01465C21.6143 6.01465 22.0804 6.14486 22.4189 6.40527C22.7601 6.66569 23.0023 7.00944 23.1455 7.43652ZM28.4238 9.63965V6.09277H29.3457V12.0928H28.4238V11.0771H28.3613C28.2207 11.3818 28.002 11.641 27.7051 11.8545C27.4082 12.0654 27.0332 12.1709 26.5801 12.1709C26.2051 12.1709 25.8717 12.0889 25.5801 11.9248C25.2884 11.7581 25.0592 11.5081 24.8926 11.1748C24.7259 10.8389 24.6426 10.4157 24.6426 9.90527V6.09277H25.5645V9.84277C25.5645 10.2803 25.6868 10.6292 25.9316 10.8896C26.179 11.1501 26.4941 11.2803 26.877 11.2803C27.1061 11.2803 27.3392 11.2217 27.5762 11.1045C27.8158 10.9873 28.0163 10.8076 28.1777 10.5654C28.3418 10.3232 28.4238 10.0146 28.4238 9.63965ZM35.8936 12.2334C35.5133 12.2334 35.1683 12.1618 34.8584 12.0186C34.5485 11.8727 34.3024 11.6631 34.1201 11.3896C33.9378 11.1136 33.8467 10.7803 33.8467 10.3896C33.8467 10.0459 33.9144 9.76725 34.0498 9.55371C34.1852 9.33756 34.3662 9.16829 34.5928 9.0459C34.8193 8.9235 35.0693 8.83236 35.3428 8.77246C35.6188 8.70996 35.8962 8.66048 36.1748 8.62402C36.5394 8.57715 36.835 8.54199 37.0615 8.51855C37.2907 8.49251 37.4574 8.44954 37.5615 8.38965C37.6683 8.32975 37.7217 8.22559 37.7217 8.07715V8.0459C37.7217 7.66048 37.6162 7.361 37.4053 7.14746C37.1969 6.93392 36.8805 6.82715 36.4561 6.82715C36.016 6.82715 35.6709 6.9235 35.4209 7.11621C35.1709 7.30892 34.9951 7.51465 34.8936 7.7334L34.0186 7.4209C34.1748 7.05631 34.3831 6.77246 34.6436 6.56934C34.9066 6.36361 35.193 6.22038 35.5029 6.13965C35.8154 6.05632 36.1227 6.01465 36.4248 6.01465C36.6175 6.01465 36.8389 6.03809 37.0889 6.08496C37.3415 6.12923 37.585 6.22168 37.8193 6.3623C38.0563 6.50293 38.2529 6.71517 38.4092 6.99902C38.5654 7.28288 38.6436 7.66309 38.6436 8.13965V12.0928H37.7217V11.2803H37.6748C37.6123 11.4105 37.5081 11.5498 37.3623 11.6982C37.2165 11.8467 37.0225 11.973 36.7803 12.0771C36.5381 12.1813 36.2425 12.2334 35.8936 12.2334ZM36.0342 11.4053C36.3988 11.4053 36.7061 11.3337 36.9561 11.1904C37.2087 11.0472 37.3988 10.8623 37.5264 10.6357C37.6566 10.4092 37.7217 10.1709 37.7217 9.9209V9.07715C37.6826 9.12402 37.5967 9.16699 37.4639 9.20605C37.3337 9.24251 37.1826 9.27506 37.0107 9.30371C36.8415 9.32975 36.6761 9.35319 36.5146 9.37402C36.3558 9.39225 36.2269 9.40788 36.1279 9.4209C35.8883 9.45215 35.6644 9.50293 35.4561 9.57324C35.2503 9.64095 35.0837 9.74382 34.9561 9.88184C34.8311 10.0173 34.7686 10.2021 34.7686 10.4365C34.7686 10.7568 34.887 10.999 35.124 11.1631C35.3636 11.3245 35.667 11.4053 36.0342 11.4053ZM42.5918 12.2178C42.0918 12.2178 41.6504 12.0915 41.2676 11.8389C40.8848 11.5837 40.5853 11.2243 40.3691 10.7607C40.153 10.2946 40.0449 9.74382 40.0449 9.1084C40.0449 8.47819 40.153 7.93131 40.3691 7.46777C40.5853 7.00423 40.8861 6.64616 41.2715 6.39355C41.6569 6.14095 42.1022 6.01465 42.6074 6.01465C42.998 6.01465 43.3066 6.07975 43.5332 6.20996C43.7624 6.33757 43.9368 6.4834 44.0566 6.64746C44.179 6.80892 44.2741 6.94173 44.3418 7.0459H44.4199V4.09277H45.3418V12.0928H44.4512V11.1709H44.3418C44.2741 11.2803 44.1777 11.4183 44.0527 11.585C43.9277 11.749 43.7493 11.8962 43.5176 12.0264C43.2858 12.154 42.9772 12.2178 42.5918 12.2178ZM42.7168 11.3896C43.0866 11.3896 43.3991 11.2933 43.6543 11.1006C43.9095 10.9053 44.1035 10.6357 44.2363 10.292C44.3691 9.94564 44.4355 9.5459 44.4355 9.09277C44.4355 8.64486 44.3704 8.25293 44.2402 7.91699C44.11 7.57845 43.9173 7.31543 43.6621 7.12793C43.4069 6.93783 43.0918 6.84277 42.7168 6.84277C42.3262 6.84277 42.0007 6.94303 41.7402 7.14355C41.4824 7.34147 41.2884 7.611 41.1582 7.95215C41.0306 8.29069 40.9668 8.6709 40.9668 9.09277C40.9668 9.51986 41.0319 9.90788 41.1621 10.2568C41.2949 10.6032 41.4902 10.8792 41.748 11.085C42.0085 11.2881 42.3314 11.3896 42.7168 11.3896ZM47.1582 12.0928V6.09277H48.0801V12.0928H47.1582ZM47.627 5.09277C47.4473 5.09277 47.2923 5.03158 47.1621 4.90918C47.0345 4.78678 46.9707 4.63965 46.9707 4.46777C46.9707 4.2959 47.0345 4.14876 47.1621 4.02637C47.2923 3.90397 47.4473 3.84277 47.627 3.84277C47.8066 3.84277 47.9603 3.90397 48.0879 4.02637C48.2181 4.14876 48.2832 4.2959 48.2832 4.46777C48.2832 4.63965 48.2181 4.78678 48.0879 4.90918C47.9603 5.03158 47.8066 5.09277 47.627 5.09277ZM49.7686 14.3428V6.09277H50.6592V7.0459H50.7686C50.8363 6.94173 50.93 6.80892 51.0498 6.64746C51.1722 6.4834 51.3467 6.33757 51.5732 6.20996C51.8024 6.07975 52.1123 6.01465 52.5029 6.01465C53.0081 6.01465 53.4535 6.14095 53.8389 6.39355C54.2243 6.64616 54.5251 7.00423 54.7412 7.46777C54.9574 7.93131 55.0654 8.47819 55.0654 9.1084C55.0654 9.74382 54.9574 10.2946 54.7412 10.7607C54.5251 11.2243 54.2256 11.5837 53.8428 11.8389C53.46 12.0915 53.0186 12.2178 52.5186 12.2178C52.1331 12.2178 51.8245 12.154 51.5928 12.0264C51.361 11.8962 51.1826 11.749 51.0576 11.585C50.9326 11.4183 50.8363 11.2803 50.7686 11.1709H50.6904V14.3428H49.7686ZM50.6748 9.09277C50.6748 9.5459 50.7412 9.94564 50.874 10.292C51.0068 10.6357 51.2008 10.9053 51.4561 11.1006C51.7113 11.2933 52.0238 11.3896 52.3936 11.3896C52.779 11.3896 53.1006 11.2881 53.3584 11.085C53.6188 10.8792 53.8141 10.6032 53.9443 10.2568C54.0771 9.90788 54.1436 9.51986 54.1436 9.09277C54.1436 8.6709 54.0785 8.29069 53.9482 7.95215C53.8206 7.611 53.6266 7.34147 53.3662 7.14355C53.1084 6.94303 52.7842 6.84277 52.3936 6.84277C52.0186 6.84277 51.7035 6.93783 51.4482 7.12793C51.193 7.31543 51.0003 7.57845 50.8701 7.91699C50.7399 8.25293 50.6748 8.64486 50.6748 9.09277ZM58.9873 12.2178C58.4092 12.2178 57.9105 12.0902 57.4912 11.835C57.0745 11.5771 56.7529 11.2178 56.5264 10.7568C56.3024 10.2933 56.1904 9.75423 56.1904 9.13965C56.1904 8.52506 56.3024 7.9834 56.5264 7.51465C56.7529 7.04329 57.068 6.67611 57.4717 6.41309C57.8779 6.14746 58.3519 6.01465 58.8936 6.01465C59.2061 6.01465 59.5146 6.06673 59.8193 6.1709C60.124 6.27506 60.4014 6.44434 60.6514 6.67871C60.9014 6.91048 61.1006 7.21777 61.249 7.60059C61.3975 7.9834 61.4717 8.45475 61.4717 9.01465V9.40527H56.8467V8.6084H60.5342C60.5342 8.26986 60.4665 7.96777 60.3311 7.70215C60.1982 7.43652 60.0081 7.22689 59.7607 7.07324C59.516 6.9196 59.2269 6.84277 58.8936 6.84277C58.5264 6.84277 58.2087 6.93392 57.9404 7.11621C57.6748 7.2959 57.4704 7.53027 57.3271 7.81934C57.1839 8.1084 57.1123 8.41829 57.1123 8.74902V9.28027C57.1123 9.7334 57.1904 10.1175 57.3467 10.4326C57.5055 10.7451 57.7256 10.9834 58.0068 11.1475C58.2881 11.3089 58.6149 11.3896 58.9873 11.3896C59.2295 11.3896 59.4482 11.3558 59.6436 11.2881C59.8415 11.2178 60.012 11.1136 60.1553 10.9756C60.2985 10.835 60.4092 10.6605 60.4873 10.4521L61.3779 10.7021C61.2842 11.0042 61.1266 11.2699 60.9053 11.499C60.6839 11.7256 60.4105 11.9027 60.085 12.0303C59.7594 12.1553 59.3936 12.2178 58.9873 12.2178ZM66.6553 9.63965V6.09277H67.5771V12.0928H66.6553V11.0771H66.5928C66.4521 11.3818 66.2334 11.641 65.9365 11.8545C65.6396 12.0654 65.2646 12.1709 64.8115 12.1709C64.4365 12.1709 64.1032 12.0889 63.8115 11.9248C63.5199 11.7581 63.2907 11.5081 63.124 11.1748C62.9574 10.8389 62.874 10.4157 62.874 9.90527V6.09277H63.7959V9.84277C63.7959 10.2803 63.9183 10.6292 64.1631 10.8896C64.4105 11.1501 64.7256 11.2803 65.1084 11.2803C65.3376 11.2803 65.5706 11.2217 65.8076 11.1045C66.0472 10.9873 66.2477 10.8076 66.4092 10.5654C66.5732 10.3232 66.6553 10.0146 66.6553 9.63965ZM69.9531 6.09277L71.3906 8.5459L72.8281 6.09277H73.8906L71.9531 9.09277L73.8906 12.0928H72.8281L71.3906 9.76465L69.9531 12.0928H68.8906L70.7969 9.09277L68.8906 6.09277H69.9531ZM83.2061 6.09277L80.9873 12.0928H80.0498L77.8311 6.09277H78.8311L80.4873 10.874H80.5498L82.2061 6.09277H83.2061ZM84.4229 12.0928V6.09277H85.3447V12.0928H84.4229ZM84.8916 5.09277C84.7119 5.09277 84.557 5.03158 84.4268 4.90918C84.2992 4.78678 84.2354 4.63965 84.2354 4.46777C84.2354 4.2959 84.2992 4.14876 84.4268 4.02637C84.557 3.90397 84.7119 3.84277 84.8916 3.84277C85.0713 3.84277 85.2249 3.90397 85.3525 4.02637C85.4827 4.14876 85.5479 4.2959 85.5479 4.46777C85.5479 4.63965 85.4827 4.78678 85.3525 4.90918C85.2249 5.03158 85.0713 5.09277 84.8916 5.09277ZM91.2832 7.43652L90.4551 7.6709C90.403 7.53288 90.3262 7.39876 90.2246 7.26855C90.1257 7.13574 89.9902 7.02637 89.8184 6.94043C89.6465 6.85449 89.4264 6.81152 89.1582 6.81152C88.791 6.81152 88.485 6.89616 88.2402 7.06543C87.998 7.2321 87.877 7.44434 87.877 7.70215C87.877 7.93131 87.9603 8.1123 88.127 8.24512C88.2936 8.37793 88.554 8.48861 88.9082 8.57715L89.7988 8.7959C90.3353 8.92611 90.735 9.12533 90.998 9.39355C91.2611 9.65918 91.3926 10.0016 91.3926 10.4209C91.3926 10.7646 91.2936 11.0719 91.0957 11.3428C90.9004 11.6136 90.627 11.8271 90.2754 11.9834C89.9238 12.1396 89.515 12.2178 89.0488 12.2178C88.4368 12.2178 87.9303 12.085 87.5293 11.8193C87.1283 11.5537 86.8743 11.1657 86.7676 10.6553L87.6426 10.4365C87.7259 10.7594 87.8835 11.0016 88.1152 11.1631C88.3496 11.3245 88.6556 11.4053 89.0332 11.4053C89.4629 11.4053 89.804 11.3141 90.0566 11.1318C90.3118 10.9469 90.4395 10.7256 90.4395 10.4678C90.4395 10.2594 90.3665 10.085 90.2207 9.94434C90.0749 9.80111 89.8509 9.69434 89.5488 9.62402L88.5488 9.38965C87.9993 9.25944 87.5957 9.05762 87.3379 8.78418C87.0827 8.50814 86.9551 8.16309 86.9551 7.74902C86.9551 7.41048 87.0501 7.111 87.2402 6.85059C87.4329 6.59017 87.6947 6.38574 88.0254 6.2373C88.3587 6.08887 88.7363 6.01465 89.1582 6.01465C89.752 6.01465 90.2181 6.14486 90.5566 6.40527C90.8978 6.66569 91.14 7.00944 91.2832 7.43652ZM95.2178 12.2178C94.6553 12.2178 94.1709 12.085 93.7646 11.8193C93.3584 11.5537 93.0459 11.1878 92.8271 10.7217C92.6084 10.2555 92.499 9.72298 92.499 9.12402C92.499 8.51465 92.611 7.97689 92.835 7.51074C93.0615 7.04199 93.3766 6.67611 93.7803 6.41309C94.1865 6.14746 94.6605 6.01465 95.2021 6.01465C95.624 6.01465 96.0042 6.09277 96.3428 6.24902C96.6813 6.40527 96.9587 6.62402 97.1748 6.90527C97.391 7.18652 97.5251 7.51465 97.5771 7.88965H96.6553C96.585 7.61621 96.4287 7.37402 96.1865 7.16309C95.9469 6.94954 95.624 6.84277 95.2178 6.84277C94.8584 6.84277 94.5433 6.93652 94.2725 7.12402C94.0042 7.30892 93.7946 7.57064 93.6436 7.90918C93.4951 8.24512 93.4209 8.63965 93.4209 9.09277C93.4209 9.55632 93.4938 9.95996 93.6396 10.3037C93.7881 10.6475 93.9964 10.9144 94.2646 11.1045C94.5355 11.2946 94.8532 11.3896 95.2178 11.3896C95.4574 11.3896 95.6748 11.348 95.8701 11.2646C96.0654 11.1813 96.2308 11.0615 96.3662 10.9053C96.5016 10.749 96.598 10.5615 96.6553 10.3428H97.5771C97.5251 10.6969 97.3962 11.016 97.1904 11.2998C96.9873 11.5811 96.7178 11.805 96.3818 11.9717C96.0485 12.1357 95.6605 12.2178 95.2178 12.2178ZM101.44 12.2178C100.862 12.2178 100.364 12.0902 99.9443 11.835C99.5277 11.5771 99.2061 11.2178 98.9795 10.7568C98.7555 10.2933 98.6436 9.75423 98.6436 9.13965C98.6436 8.52506 98.7555 7.9834 98.9795 7.51465C99.2061 7.04329 99.5212 6.67611 99.9248 6.41309C100.331 6.14746 100.805 6.01465 101.347 6.01465C101.659 6.01465 101.968 6.06673 102.272 6.1709C102.577 6.27506 102.854 6.44434 103.104 6.67871C103.354 6.91048 103.554 7.21777 103.702 7.60059C103.851 7.9834 103.925 8.45475 103.925 9.01465V9.40527H99.2998V8.6084H102.987C102.987 8.26986 102.92 7.96777 102.784 7.70215C102.651 7.43652 102.461 7.22689 102.214 7.07324C101.969 6.9196 101.68 6.84277 101.347 6.84277C100.979 6.84277 100.662 6.93392 100.394 7.11621C100.128 7.2959 99.9235 7.53027 99.7803 7.81934C99.637 8.1084 99.5654 8.41829 99.5654 8.74902V9.28027C99.5654 9.7334 99.6436 10.1175 99.7998 10.4326C99.9587 10.7451 100.179 10.9834 100.46 11.1475C100.741 11.3089 101.068 11.3896 101.44 11.3896C101.683 11.3896 101.901 11.3558 102.097 11.2881C102.295 11.2178 102.465 11.1136 102.608 10.9756C102.752 10.835 102.862 10.6605 102.94 10.4521L103.831 10.7021C103.737 11.0042 103.58 11.2699 103.358 11.499C103.137 11.7256 102.864 11.9027 102.538 12.0303C102.213 12.1553 101.847 12.2178 101.44 12.2178ZM100.878 5.28027L101.831 3.46777H102.909L101.69 5.28027H100.878ZM105.327 12.0928V6.09277H106.218V6.99902H106.28C106.39 6.70215 106.588 6.46126 106.874 6.27637C107.16 6.09147 107.483 5.99902 107.843 5.99902C107.91 5.99902 107.995 6.00033 108.097 6.00293C108.198 6.00553 108.275 6.00944 108.327 6.01465V6.95215C108.296 6.94434 108.224 6.93262 108.112 6.91699C108.003 6.89876 107.887 6.88965 107.765 6.88965C107.473 6.88965 107.213 6.95085 106.983 7.07324C106.757 7.19303 106.577 7.3597 106.444 7.57324C106.314 7.78418 106.249 8.02506 106.249 8.2959V12.0928H105.327ZM111.186 12.2334C110.805 12.2334 110.46 12.1618 110.15 12.0186C109.84 11.8727 109.594 11.6631 109.412 11.3896C109.23 11.1136 109.139 10.7803 109.139 10.3896C109.139 10.0459 109.206 9.76725 109.342 9.55371C109.477 9.33756 109.658 9.16829 109.885 9.0459C110.111 8.9235 110.361 8.83236 110.635 8.77246C110.911 8.70996 111.188 8.66048 111.467 8.62402C111.831 8.57715 112.127 8.54199 112.354 8.51855C112.583 8.49251 112.749 8.44954 112.854 8.38965C112.96 8.32975 113.014 8.22559 113.014 8.07715V8.0459C113.014 7.66048 112.908 7.361 112.697 7.14746C112.489 6.93392 112.173 6.82715 111.748 6.82715C111.308 6.82715 110.963 6.9235 110.713 7.11621C110.463 7.30892 110.287 7.51465 110.186 7.7334L109.311 7.4209C109.467 7.05631 109.675 6.77246 109.936 6.56934C110.199 6.36361 110.485 6.22038 110.795 6.13965C111.107 6.05632 111.415 6.01465 111.717 6.01465C111.91 6.01465 112.131 6.03809 112.381 6.08496C112.633 6.12923 112.877 6.22168 113.111 6.3623C113.348 6.50293 113.545 6.71517 113.701 6.99902C113.857 7.28288 113.936 7.66309 113.936 8.13965V12.0928H113.014V11.2803H112.967C112.904 11.4105 112.8 11.5498 112.654 11.6982C112.508 11.8467 112.314 11.973 112.072 12.0771C111.83 12.1813 111.535 12.2334 111.186 12.2334ZM111.326 11.4053C111.691 11.4053 111.998 11.3337 112.248 11.1904C112.501 11.0472 112.691 10.8623 112.818 10.6357C112.949 10.4092 113.014 10.1709 113.014 9.9209V9.07715C112.975 9.12402 112.889 9.16699 112.756 9.20605C112.626 9.24251 112.475 9.27506 112.303 9.30371C112.133 9.32975 111.968 9.35319 111.807 9.37402C111.648 9.39225 111.519 9.40788 111.42 9.4209C111.18 9.45215 110.956 9.50293 110.748 9.57324C110.542 9.64095 110.376 9.74382 110.248 9.88184C110.123 10.0173 110.061 10.2021 110.061 10.4365C110.061 10.7568 110.179 10.999 110.416 11.1631C110.656 11.3245 110.959 11.4053 111.326 11.4053ZM116.54 4.09277V12.0928H115.618V4.09277H116.54ZM123.838 12.2178C123.26 12.2178 122.761 12.0902 122.342 11.835C121.925 11.5771 121.604 11.2178 121.377 10.7568C121.153 10.2933 121.041 9.75423 121.041 9.13965C121.041 8.52506 121.153 7.9834 121.377 7.51465C121.604 7.04329 121.919 6.67611 122.322 6.41309C122.729 6.14746 123.202 6.01465 123.744 6.01465C124.057 6.01465 124.365 6.06673 124.67 6.1709C124.975 6.27506 125.252 6.44434 125.502 6.67871C125.752 6.91048 125.951 7.21777 126.1 7.60059C126.248 7.9834 126.322 8.45475 126.322 9.01465V9.40527H121.697V8.6084H125.385C125.385 8.26986 125.317 7.96777 125.182 7.70215C125.049 7.43652 124.859 7.22689 124.611 7.07324C124.367 6.9196 124.077 6.84277 123.744 6.84277C123.377 6.84277 123.059 6.93392 122.791 7.11621C122.525 7.2959 122.321 7.53027 122.178 7.81934C122.035 8.1084 121.963 8.41829 121.963 8.74902V9.28027C121.963 9.7334 122.041 10.1175 122.197 10.4326C122.356 10.7451 122.576 10.9834 122.857 11.1475C123.139 11.3089 123.465 11.3896 123.838 11.3896C124.08 11.3896 124.299 11.3558 124.494 11.2881C124.692 11.2178 124.863 11.1136 125.006 10.9756C125.149 10.835 125.26 10.6605 125.338 10.4521L126.229 10.7021C126.135 11.0042 125.977 11.2699 125.756 11.499C125.535 11.7256 125.261 11.9027 124.936 12.0303C124.61 12.1553 124.244 12.2178 123.838 12.2178ZM131.975 7.43652L131.146 7.6709C131.094 7.53288 131.018 7.39876 130.916 7.26855C130.817 7.13574 130.682 7.02637 130.51 6.94043C130.338 6.85449 130.118 6.81152 129.85 6.81152C129.482 6.81152 129.176 6.89616 128.932 7.06543C128.689 7.2321 128.568 7.44434 128.568 7.70215C128.568 7.93131 128.652 8.1123 128.818 8.24512C128.985 8.37793 129.245 8.48861 129.6 8.57715L130.49 8.7959C131.027 8.92611 131.426 9.12533 131.689 9.39355C131.952 9.65918 132.084 10.0016 132.084 10.4209C132.084 10.7646 131.985 11.0719 131.787 11.3428C131.592 11.6136 131.318 11.8271 130.967 11.9834C130.615 12.1396 130.206 12.2178 129.74 12.2178C129.128 12.2178 128.622 12.085 128.221 11.8193C127.82 11.5537 127.566 11.1657 127.459 10.6553L128.334 10.4365C128.417 10.7594 128.575 11.0016 128.807 11.1631C129.041 11.3245 129.347 11.4053 129.725 11.4053C130.154 11.4053 130.495 11.3141 130.748 11.1318C131.003 10.9469 131.131 10.7256 131.131 10.4678C131.131 10.2594 131.058 10.085 130.912 9.94434C130.766 9.80111 130.542 9.69434 130.24 9.62402L129.24 9.38965C128.691 9.25944 128.287 9.05762 128.029 8.78418C127.774 8.50814 127.646 8.16309 127.646 7.74902C127.646 7.41048 127.742 7.111 127.932 6.85059C128.124 6.59017 128.386 6.38574 128.717 6.2373C129.05 6.08887 129.428 6.01465 129.85 6.01465C130.443 6.01465 130.91 6.14486 131.248 6.40527C131.589 6.66569 131.831 7.00944 131.975 7.43652ZM136.081 6.09277V6.87402H132.972V6.09277H136.081ZM133.878 4.65527H134.8V10.374C134.8 10.6344 134.838 10.8298 134.913 10.96C134.991 11.0876 135.09 11.1735 135.21 11.2178C135.332 11.2594 135.461 11.2803 135.597 11.2803C135.698 11.2803 135.782 11.2751 135.847 11.2646C135.912 11.2516 135.964 11.2412 136.003 11.2334L136.19 12.0615C136.128 12.085 136.041 12.1084 135.929 12.1318C135.817 12.1579 135.675 12.1709 135.503 12.1709C135.243 12.1709 134.987 12.1149 134.737 12.0029C134.49 11.891 134.284 11.7204 134.12 11.4912C133.959 11.262 133.878 10.973 133.878 10.624V4.65527ZM137.468 12.0928V6.09277H138.39V12.0928H137.468ZM137.937 5.09277C137.757 5.09277 137.602 5.03158 137.472 4.90918C137.344 4.78678 137.28 4.63965 137.28 4.46777C137.28 4.2959 137.344 4.14876 137.472 4.02637C137.602 3.90397 137.757 3.84277 137.937 3.84277C138.116 3.84277 138.27 3.90397 138.397 4.02637C138.528 4.14876 138.593 4.2959 138.593 4.46777C138.593 4.63965 138.528 4.78678 138.397 4.90918C138.27 5.03158 138.116 5.09277 137.937 5.09277ZM140.078 12.0928V6.09277H140.969V7.03027H141.047C141.172 6.70996 141.374 6.46126 141.652 6.28418C141.931 6.10449 142.266 6.01465 142.656 6.01465C143.052 6.01465 143.382 6.10449 143.645 6.28418C143.91 6.46126 144.117 6.70996 144.266 7.03027H144.328C144.482 6.72038 144.712 6.47428 145.02 6.29199C145.327 6.1071 145.695 6.01465 146.125 6.01465C146.661 6.01465 147.1 6.18262 147.441 6.51855C147.783 6.85189 147.953 7.37142 147.953 8.07715V12.0928H147.031V8.07715C147.031 7.63444 146.91 7.31803 146.668 7.12793C146.426 6.93783 146.141 6.84277 145.813 6.84277C145.391 6.84277 145.064 6.97038 144.832 7.22559C144.6 7.47819 144.484 7.7985 144.484 8.18652V12.0928H143.547V7.9834C143.547 7.64225 143.436 7.36751 143.215 7.15918C142.993 6.94824 142.708 6.84277 142.359 6.84277C142.12 6.84277 141.896 6.90658 141.688 7.03418C141.482 7.16178 141.315 7.33887 141.188 7.56543C141.063 7.78939 141 8.0485 141 8.34277V12.0928H140.078ZM152.154 12.2178C151.576 12.2178 151.077 12.0902 150.658 11.835C150.242 11.5771 149.92 11.2178 149.693 10.7568C149.469 10.2933 149.357 9.75423 149.357 9.13965C149.357 8.52506 149.469 7.9834 149.693 7.51465C149.92 7.04329 150.235 6.67611 150.639 6.41309C151.045 6.14746 151.519 6.01465 152.061 6.01465C152.373 6.01465 152.682 6.06673 152.986 6.1709C153.291 6.27506 153.568 6.44434 153.818 6.67871C154.068 6.91048 154.268 7.21777 154.416 7.60059C154.564 7.9834 154.639 8.45475 154.639 9.01465V9.40527H150.014V8.6084H153.701C153.701 8.26986 153.633 7.96777 153.498 7.70215C153.365 7.43652 153.175 7.22689 152.928 7.07324C152.683 6.9196 152.394 6.84277 152.061 6.84277C151.693 6.84277 151.376 6.93392 151.107 7.11621C150.842 7.2959 150.637 7.53027 150.494 7.81934C150.351 8.1084 150.279 8.41829 150.279 8.74902V9.28027C150.279 9.7334 150.357 10.1175 150.514 10.4326C150.673 10.7451 150.893 10.9834 151.174 11.1475C151.455 11.3089 151.782 11.3896 152.154 11.3896C152.396 11.3896 152.615 11.3558 152.811 11.2881C153.008 11.2178 153.179 11.1136 153.322 10.9756C153.465 10.835 153.576 10.6605 153.654 10.4521L154.545 10.7021C154.451 11.0042 154.294 11.2699 154.072 11.499C153.851 11.7256 153.577 11.9027 153.252 12.0303C152.926 12.1553 152.561 12.2178 152.154 12.2178ZM151.592 5.28027L152.545 3.46777H153.623L152.404 5.28027H151.592ZM159.463 8.09277C159.463 7.1084 159.59 6.20345 159.846 5.37793C160.104 4.5498 160.471 3.78809 160.947 3.09277H161.76C161.572 3.35059 161.396 3.66829 161.232 4.0459C161.071 4.4209 160.929 4.83366 160.807 5.28418C160.684 5.7321 160.588 6.19564 160.518 6.6748C160.45 7.15397 160.416 7.62663 160.416 8.09277C160.416 8.71257 160.476 9.34147 160.596 9.97949C160.715 10.6175 160.877 11.21 161.08 11.7568C161.283 12.3037 161.51 12.749 161.76 13.0928H160.947C160.471 12.3975 160.104 11.637 159.846 10.8115C159.59 9.9834 159.463 9.07715 159.463 8.09277ZM163.573 4.09277L165.948 10.8271H166.042L168.417 4.09277H169.433L166.495 12.0928H165.495L162.558 4.09277H163.573ZM170.319 12.0928H169.304L172.241 4.09277H173.241L176.179 12.0928H175.163L172.772 5.3584H172.71L170.319 12.0928ZM170.694 8.96777H174.788V9.82715H170.694V8.96777ZM176.053 4.95215V4.09277H182.053V4.95215H179.537V12.0928H178.568V4.95215H176.053ZM185.392 8.09277C185.392 9.07715 185.263 9.9834 185.005 10.8115C184.75 11.637 184.384 12.3975 183.907 13.0928H183.095C183.282 12.835 183.457 12.5173 183.618 12.1396C183.782 11.7646 183.925 11.3532 184.048 10.9053C184.17 10.4548 184.265 9.98991 184.333 9.51074C184.403 9.02897 184.438 8.55631 184.438 8.09277C184.438 7.47298 184.379 6.84408 184.259 6.20605C184.139 5.56803 183.978 4.97559 183.774 4.42871C183.571 3.88184 183.345 3.43652 183.095 3.09277H183.907C184.384 3.78809 184.75 4.5498 185.005 5.37793C185.263 6.20345 185.392 7.1084 185.392 8.09277Z" fill="white" style="fill:white;fill-opacity:1;"/>
</svg>
