<svg width="150" height="150" viewBox="0 0 150 150" fill="none" xmlns="http://www.w3.org/2000/svg">
<rect x="21.4336" y="15.8594" width="37.5" height="64.2857" transform="rotate(-25 21.4336 15.8594)" fill="#47B6CC" style="fill:#47B6CC;fill:color(display-p3 0.2784 0.7137 0.8000);fill-opacity:1;"/>
<rect width="37.5" height="64.2857" transform="matrix(-0.906308 -0.422618 -0.422618 0.906308 130.785 15.8594)" fill="#47B6CC" style="fill:#47B6CC;fill:color(display-p3 0.2784 0.7137 0.8000);fill-opacity:1;"/>
<circle cx="74.9989" cy="91.0712" r="58.9286" fill="#B5BAC0" style="fill:#B5BAC0;fill:color(display-p3 0.7098 0.7294 0.7529);fill-opacity:1;"/>
<g filter="url(#filter0_d_327_5921)">
<path d="M36.3508 62.6193V56.9091H60.9389V62.6193H52.1178V86H45.186V62.6193H36.3508ZM89.7021 71.4545C89.7021 74.6553 89.0865 77.3684 87.8555 79.5938C86.6244 81.8191 84.9577 83.5095 82.8555 84.6648C80.7627 85.8201 78.4142 86.3977 75.81 86.3977C73.1964 86.3977 70.8432 85.8153 68.7504 84.6506C66.6576 83.4858 64.9956 81.7955 63.7646 79.5795C62.543 77.3542 61.9322 74.6458 61.9322 71.4545C61.9322 68.2538 62.543 65.5407 63.7646 63.3153C64.9956 61.09 66.6576 59.3996 68.7504 58.2443C70.8432 57.089 73.1964 56.5114 75.81 56.5114C78.4142 56.5114 80.7627 57.089 82.8555 58.2443C84.9577 59.3996 86.6244 61.09 87.8555 63.3153C89.0865 65.5407 89.7021 68.2538 89.7021 71.4545ZM82.5146 71.4545C82.5146 69.5606 82.2447 67.9602 81.7049 66.6534C81.1746 65.3466 80.4076 64.357 79.4038 63.6847C78.4094 63.0123 77.2115 62.6761 75.81 62.6761C74.418 62.6761 73.2201 63.0123 72.2163 63.6847C71.2125 64.357 70.4407 65.3466 69.9009 66.6534C69.3706 67.9602 69.1055 69.5606 69.1055 71.4545C69.1055 73.3485 69.3706 74.9489 69.9009 76.2557C70.4407 77.5625 71.2125 78.5521 72.2163 79.2244C73.2201 79.8968 74.418 80.233 75.81 80.233C77.2115 80.233 78.4094 79.8968 79.4038 79.2244C80.4076 78.5521 81.1746 77.5625 81.7049 76.2557C82.2447 74.9489 82.5146 73.3485 82.5146 71.4545ZM93.0072 86V56.9091H105.024C107.202 56.9091 109.082 57.3352 110.663 58.1875C112.254 59.0303 113.481 60.2093 114.342 61.7244C115.204 63.2301 115.635 64.982 115.635 66.9801C115.635 68.9877 115.195 70.7443 114.314 72.25C113.443 73.7462 112.198 74.9062 110.578 75.7301C108.959 76.554 107.037 76.9659 104.811 76.9659H97.3964V71.4261H103.504C104.565 71.4261 105.45 71.2415 106.161 70.8722C106.88 70.5028 107.425 69.9867 107.794 69.3239C108.163 68.6515 108.348 67.8703 108.348 66.9801C108.348 66.0805 108.163 65.304 107.794 64.6506C107.425 63.9877 106.88 63.4763 106.161 63.1165C105.441 62.7566 104.555 62.5767 103.504 62.5767H100.038V86H93.0072Z" fill="white" style="fill:white;fill-opacity:1;"/>
</g>
<g filter="url(#filter1_d_327_5921)">
<path d="M56.6505 96.9091V126H49.6335V103.472H49.463L42.9573 107.449V101.369L50.1306 96.9091H56.6505ZM74.3129 126.71C71.775 126.71 69.5875 126.109 67.7504 124.906C65.9132 123.694 64.4975 121.956 63.5032 119.693C62.5089 117.42 62.0165 114.688 62.0259 111.497C62.0354 108.306 62.5326 105.598 63.5174 103.372C64.5117 101.137 65.9227 99.4375 67.7504 98.2727C69.5875 97.0985 71.775 96.5114 74.3129 96.5114C76.8507 96.5114 79.0382 97.0985 80.8754 98.2727C82.7219 99.4375 84.1424 101.137 85.1367 103.372C86.131 105.607 86.6235 108.315 86.614 111.497C86.614 114.698 86.1168 117.435 85.1225 119.707C84.1282 121.98 82.7125 123.718 80.8754 124.92C79.0477 126.114 76.8602 126.71 74.3129 126.71ZM74.3129 120.957C75.828 120.957 77.0543 120.186 77.9918 118.642C78.9293 117.089 79.3933 114.707 79.3839 111.497C79.3839 109.395 79.1708 107.662 78.7447 106.298C78.3185 104.925 77.7267 103.902 76.9691 103.23C76.2115 102.558 75.3261 102.222 74.3129 102.222C72.8072 102.222 71.5903 102.984 70.6623 104.509C69.7343 106.024 69.2655 108.353 69.256 111.497C69.2466 113.628 69.4502 115.394 69.8668 116.795C70.293 118.197 70.8896 119.243 71.6566 119.935C72.4237 120.616 73.3091 120.957 74.3129 120.957ZM101.524 121.909V120.759C101.524 119.864 101.716 119.036 102.1 118.276C102.49 117.516 103.055 116.906 103.793 116.444C104.532 115.982 105.434 115.751 106.499 115.751C107.586 115.751 108.499 115.982 109.237 116.444C109.983 116.898 110.544 117.506 110.921 118.266C111.304 119.018 111.496 119.849 111.496 120.759V121.909C111.496 122.804 111.304 123.631 110.921 124.391C110.537 125.151 109.972 125.762 109.227 126.224C108.481 126.685 107.572 126.916 106.499 126.916C105.42 126.916 104.511 126.685 103.772 126.224C103.033 125.762 102.472 125.151 102.089 124.391C101.712 123.631 101.524 122.804 101.524 121.909ZM104.923 120.759V121.909C104.923 122.364 105.033 122.8 105.253 123.219C105.48 123.638 105.896 123.848 106.499 123.848C107.117 123.848 107.533 123.646 107.746 123.241C107.959 122.829 108.065 122.385 108.065 121.909V120.759C108.065 120.283 107.962 119.835 107.756 119.416C107.558 118.99 107.139 118.777 106.499 118.777C105.903 118.777 105.491 118.99 105.264 119.416C105.036 119.835 104.923 120.283 104.923 120.759ZM90.2103 109.423V108.273C90.2103 107.364 90.4056 106.533 90.7962 105.78C91.194 105.02 91.7621 104.413 92.5008 103.958C93.2394 103.496 94.1343 103.266 95.1854 103.266C96.2721 103.266 97.1847 103.496 97.9234 103.958C98.6691 104.413 99.2337 105.02 99.6173 105.78C100.001 106.533 100.193 107.364 100.193 108.273V109.423C100.193 110.332 99.9972 111.163 99.6066 111.916C99.2231 112.669 98.6585 113.269 97.9127 113.717C97.167 114.164 96.2579 114.388 95.1854 114.388C94.113 114.388 93.2039 114.161 92.4582 113.706C91.7195 113.251 91.1585 112.648 90.7749 111.895C90.3985 111.142 90.2103 110.318 90.2103 109.423ZM93.6407 108.273V109.423C93.6407 109.899 93.7508 110.343 93.971 110.755C94.1982 111.16 94.6031 111.362 95.1854 111.362C95.8104 111.362 96.2259 111.16 96.4319 110.755C96.645 110.343 96.7515 109.899 96.7515 109.423V108.273C96.7515 107.797 96.6521 107.349 96.4532 106.93C96.2543 106.504 95.8317 106.291 95.1854 106.291C94.5889 106.291 94.1805 106.508 93.9603 106.941C93.7472 107.374 93.6407 107.818 93.6407 108.273ZM91.819 126L106.819 104.182H109.727L94.7273 126H91.819Z" fill="white" style="fill:white;fill-opacity:1;"/>
</g>
<defs>
<filter id="filter0_d_327_5921" x="36.3516" y="56.5117" width="79.2852" height="34.8857" filterUnits="userSpaceOnUse" color-interpolation-filters="sRGB">
<feFlood flood-opacity="0" result="BackgroundImageFix"/>
<feColorMatrix in="SourceAlpha" type="matrix" values="0 0 0 0 0 0 0 0 0 0 0 0 0 0 0 0 0 0 127 0" result="hardAlpha"/>
<feOffset dy="5"/>
<feComposite in2="hardAlpha" operator="out"/>
<feColorMatrix type="matrix" values="0 0 0 0 0 0 0 0 0 0 0 0 0 0 0 0 0 0 0.15 0"/>
<feBlend mode="normal" in2="BackgroundImageFix" result="effect1_dropShadow_327_5921"/>
<feBlend mode="normal" in="SourceGraphic" in2="effect1_dropShadow_327_5921" result="shape"/>
</filter>
<filter id="filter1_d_327_5921" x="42.957" y="96.5117" width="68.5391" height="35.4043" filterUnits="userSpaceOnUse" color-interpolation-filters="sRGB">
<feFlood flood-opacity="0" result="BackgroundImageFix"/>
<feColorMatrix in="SourceAlpha" type="matrix" values="0 0 0 0 0 0 0 0 0 0 0 0 0 0 0 0 0 0 127 0" result="hardAlpha"/>
<feOffset dy="5"/>
<feComposite in2="hardAlpha" operator="out"/>
<feColorMatrix type="matrix" values="0 0 0 0 0 0 0 0 0 0 0 0 0 0 0 0 0 0 0.15 0"/>
<feBlend mode="normal" in2="BackgroundImageFix" result="effect1_dropShadow_327_5921"/>
<feBlend mode="normal" in="SourceGraphic" in2="effect1_dropShadow_327_5921" result="shape"/>
</filter>
</defs>
</svg>
