<svg width="150" height="150" viewBox="0 0 150 150" fill="none" xmlns="http://www.w3.org/2000/svg">
<g clip-path="url(#clip0_327_5928)">
<path d="M32.1445 -10.7139H117.859V21.429L75.0017 37.5004L32.1445 21.429V-10.7139Z" fill="#8878D9" style="fill:#8878D9;fill:color(display-p3 0.5340 0.4720 0.8501);fill-opacity:1;"/>
<path fill-rule="evenodd" clip-rule="evenodd" d="M74.9811 32.215C83.8039 32.5139 82.9246 38.7217 90.2753 40.4953C95.5709 41.0832 99.9774 36.0612 107.042 41.6811C114.392 46.713 110.272 51.4361 115.281 57.0559C119.698 60.3043 125.873 58.8296 128.807 67.1099C132.334 75.3902 126.159 77.1639 127.631 84.5573C129.4 89.8783 135.575 91.6519 133.51 100.231C132.038 109.099 125.863 107.326 123.215 114.43C121.743 119.751 126.159 124.783 119.688 130.991C113.513 137.498 109.393 132.765 103.218 136.91C99.3945 140.756 100.274 147.263 91.7474 149.036C82.9246 151.398 82.0453 144.891 74.6847 145.19C69.0926 146.376 66.4448 152.285 58.2148 149.036C49.6884 146.077 52.3362 140.457 45.8648 136.611C40.5692 134.538 35.2735 138.085 29.9779 130.991C24.3858 123.896 29.6815 120.349 26.4507 113.842C23.2101 109.109 16.4522 109.109 16.1558 100.241C15.2765 91.3729 21.4514 91.3729 22.3308 83.9794C22.0344 78.3596 16.4522 74.5134 20.8586 67.1199C24.9786 58.8395 30.2743 62.3868 34.9771 56.478C37.6249 51.745 34.9771 45.5372 42.9206 41.691C50.5677 36.958 53.2155 42.5778 60.2797 40.5053C64.9826 37.8448 66.1583 31.3381 74.991 32.225L74.9811 32.215Z" fill="#F3C037" style="fill:#F3C037;fill:color(display-p3 0.9510 0.7547 0.2147);fill-opacity:1;"/>
<g filter="url(#filter0_d_327_5928)">
<path d="M37.3508 68.6193V62.9091H61.9389V68.6193H53.1178V92H46.186V68.6193H37.3508ZM90.7021 77.4545C90.7021 80.6553 90.0865 83.3684 88.8555 85.5938C87.6244 87.8191 85.9577 89.5095 83.8555 90.6648C81.7627 91.8201 79.4142 92.3977 76.81 92.3977C74.1964 92.3977 71.8432 91.8153 69.7504 90.6506C67.6576 89.4858 65.9956 87.7955 64.7646 85.5795C63.543 83.3542 62.9322 80.6458 62.9322 77.4545C62.9322 74.2538 63.543 71.5407 64.7646 69.3153C65.9956 67.09 67.6576 65.3996 69.7504 64.2443C71.8432 63.089 74.1964 62.5114 76.81 62.5114C79.4142 62.5114 81.7627 63.089 83.8555 64.2443C85.9577 65.3996 87.6244 67.09 88.8555 69.3153C90.0865 71.5407 90.7021 74.2538 90.7021 77.4545ZM83.5146 77.4545C83.5146 75.5606 83.2447 73.9602 82.7049 72.6534C82.1746 71.3466 81.4076 70.357 80.4038 69.6847C79.4094 69.0123 78.2115 68.6761 76.81 68.6761C75.418 68.6761 74.2201 69.0123 73.2163 69.6847C72.2125 70.357 71.4407 71.3466 70.9009 72.6534C70.3706 73.9602 70.1055 75.5606 70.1055 77.4545C70.1055 79.3485 70.3706 80.9489 70.9009 82.2557C71.4407 83.5625 72.2125 84.5521 73.2163 85.2244C74.2201 85.8968 75.418 86.233 76.81 86.233C78.2115 86.233 79.4094 85.8968 80.4038 85.2244C81.4076 84.5521 82.1746 83.5625 82.7049 82.2557C83.2447 80.9489 83.5146 79.3485 83.5146 77.4545ZM94.0072 92V62.9091H106.024C108.202 62.9091 110.082 63.3352 111.663 64.1875C113.254 65.0303 114.481 66.2093 115.342 67.7244C116.204 69.2301 116.635 70.982 116.635 72.9801C116.635 74.9877 116.195 76.7443 115.314 78.25C114.443 79.7462 113.198 80.9062 111.578 81.7301C109.959 82.554 108.037 82.9659 105.811 82.9659H98.3964V77.4261H104.504C105.565 77.4261 106.45 77.2415 107.161 76.8722C107.88 76.5028 108.425 75.9867 108.794 75.3239C109.163 74.6515 109.348 73.8703 109.348 72.9801C109.348 72.0805 109.163 71.304 108.794 70.6506C108.425 69.9877 107.88 69.4763 107.161 69.1165C106.441 68.7566 105.555 68.5767 104.504 68.5767H101.038V92H94.0072Z" fill="white" style="fill:white;fill-opacity:1;"/>
</g>
<g filter="url(#filter1_d_327_5928)">
<path d="M70.9302 102.909V132H63.9131V109.472H63.7427L57.237 113.449V107.369L64.4103 102.909H70.9302ZM88.2445 127.909V126.759C88.2445 125.864 88.4363 125.036 88.8198 124.276C89.2104 123.516 89.7751 122.906 90.5137 122.444C91.2523 121.982 92.1543 121.751 93.2197 121.751C94.3063 121.751 95.219 121.982 95.9576 122.444C96.7033 122.898 97.2644 123.506 97.6408 124.266C98.0244 125.018 98.2161 125.849 98.2161 126.759V127.909C98.2161 128.804 98.0244 129.631 97.6408 130.391C97.2573 131.151 96.6927 131.762 95.9469 132.224C95.2012 132.685 94.2921 132.916 93.2197 132.916C92.1401 132.916 91.231 132.685 90.4924 132.224C89.7538 131.762 89.1927 131.151 88.8092 130.391C88.4327 129.631 88.2445 128.804 88.2445 127.909ZM91.643 126.759V127.909C91.643 128.364 91.7531 128.8 91.9732 129.219C92.2005 129.638 92.616 129.848 93.2197 129.848C93.8376 129.848 94.2531 129.646 94.4661 129.241C94.6792 128.829 94.7857 128.385 94.7857 127.909V126.759C94.7857 126.283 94.6827 125.835 94.4768 125.416C94.2779 124.99 93.8589 124.777 93.2197 124.777C92.6231 124.777 92.2112 124.99 91.9839 125.416C91.7566 125.835 91.643 126.283 91.643 126.759ZM76.9306 115.423V114.273C76.9306 113.364 77.1259 112.533 77.5165 111.78C77.9143 111.02 78.4825 110.413 79.2211 109.958C79.9597 109.496 80.8546 109.266 81.9058 109.266C82.9924 109.266 83.905 109.496 84.6437 109.958C85.3894 110.413 85.954 111.02 86.3376 111.78C86.7211 112.533 86.9129 113.364 86.9129 114.273V115.423C86.9129 116.332 86.7175 117.163 86.3269 117.916C85.9434 118.669 85.3788 119.269 84.633 119.717C83.8873 120.164 82.9782 120.388 81.9058 120.388C80.8333 120.388 79.9242 120.161 79.1785 119.706C78.4398 119.251 77.8788 118.648 77.4952 117.895C77.1188 117.142 76.9306 116.318 76.9306 115.423ZM80.361 114.273V115.423C80.361 115.899 80.4711 116.343 80.6913 116.755C80.9185 117.16 81.3234 117.362 81.9058 117.362C82.5308 117.362 82.9462 117.16 83.1522 116.755C83.3653 116.343 83.4718 115.899 83.4718 115.423V114.273C83.4718 113.797 83.3724 113.349 83.1735 112.93C82.9746 112.504 82.5521 112.291 81.9058 112.291C81.3092 112.291 80.9008 112.508 80.6806 112.941C80.4675 113.374 80.361 113.818 80.361 114.273ZM78.5393 132L93.5393 110.182H96.4477L81.4477 132H78.5393Z" fill="white" style="fill:white;fill-opacity:1;"/>
</g>
</g>
<defs>
<filter id="filter0_d_327_5928" x="37.3516" y="62.5117" width="79.2852" height="34.8857" filterUnits="userSpaceOnUse" color-interpolation-filters="sRGB">
<feFlood flood-opacity="0" result="BackgroundImageFix"/>
<feColorMatrix in="SourceAlpha" type="matrix" values="0 0 0 0 0 0 0 0 0 0 0 0 0 0 0 0 0 0 127 0" result="hardAlpha"/>
<feOffset dy="5"/>
<feComposite in2="hardAlpha" operator="out"/>
<feColorMatrix type="matrix" values="0 0 0 0 0 0 0 0 0 0 0 0 0 0 0 0 0 0 0.15 0"/>
<feBlend mode="normal" in2="BackgroundImageFix" result="effect1_dropShadow_327_5928"/>
<feBlend mode="normal" in="SourceGraphic" in2="effect1_dropShadow_327_5928" result="shape"/>
</filter>
<filter id="filter1_d_327_5928" x="57.2383" y="102.909" width="40.9766" height="35.0068" filterUnits="userSpaceOnUse" color-interpolation-filters="sRGB">
<feFlood flood-opacity="0" result="BackgroundImageFix"/>
<feColorMatrix in="SourceAlpha" type="matrix" values="0 0 0 0 0 0 0 0 0 0 0 0 0 0 0 0 0 0 127 0" result="hardAlpha"/>
<feOffset dy="5"/>
<feComposite in2="hardAlpha" operator="out"/>
<feColorMatrix type="matrix" values="0 0 0 0 0 0 0 0 0 0 0 0 0 0 0 0 0 0 0.15 0"/>
<feBlend mode="normal" in2="BackgroundImageFix" result="effect1_dropShadow_327_5928"/>
<feBlend mode="normal" in="SourceGraphic" in2="effect1_dropShadow_327_5928" result="shape"/>
</filter>
<clipPath id="clip0_327_5928">
<rect width="150" height="150" fill="white" style="fill:white;fill-opacity:1;"/>
</clipPath>
</defs>
</svg>
