<svg width="150" height="150" viewBox="0 0 150 150" fill="none" xmlns="http://www.w3.org/2000/svg">
<path d="M48.2148 107.143H101.786V150L75.0006 139.285L48.2148 150V107.143Z" fill="#49B8A5" style="fill:#49B8A5;fill:color(display-p3 0.2880 0.7200 0.6461);fill-opacity:1;"/>
<path d="M75.0006 0L120.457 18.8288L139.286 64.2857L120.457 109.743L75.0006 128.571L29.5437 109.743L10.7148 64.2857L29.5437 18.8288L75.0006 0Z" fill="#DB944F" style="fill:#DB944F;fill:color(display-p3 0.8573 0.5817 0.3113);fill-opacity:1;"/>
<g filter="url(#filter0_d_327_5916)">
<path d="M36.3508 36.6193V30.9091H60.9389V36.6193H52.1178V60H45.186V36.6193H36.3508ZM89.7021 45.4545C89.7021 48.6553 89.0865 51.3684 87.8555 53.5938C86.6244 55.8191 84.9577 57.5095 82.8555 58.6648C80.7627 59.8201 78.4142 60.3977 75.81 60.3977C73.1964 60.3977 70.8432 59.8153 68.7504 58.6506C66.6576 57.4858 64.9956 55.7955 63.7646 53.5795C62.543 51.3542 61.9322 48.6458 61.9322 45.4545C61.9322 42.2538 62.543 39.5407 63.7646 37.3153C64.9956 35.09 66.6576 33.3996 68.7504 32.2443C70.8432 31.089 73.1964 30.5114 75.81 30.5114C78.4142 30.5114 80.7627 31.089 82.8555 32.2443C84.9577 33.3996 86.6244 35.09 87.8555 37.3153C89.0865 39.5407 89.7021 42.2538 89.7021 45.4545ZM82.5146 45.4545C82.5146 43.5606 82.2447 41.9602 81.7049 40.6534C81.1746 39.3466 80.4076 38.357 79.4038 37.6847C78.4094 37.0123 77.2115 36.6761 75.81 36.6761C74.418 36.6761 73.2201 37.0123 72.2163 37.6847C71.2125 38.357 70.4407 39.3466 69.9009 40.6534C69.3706 41.9602 69.1055 43.5606 69.1055 45.4545C69.1055 47.3485 69.3706 48.9489 69.9009 50.2557C70.4407 51.5625 71.2125 52.5521 72.2163 53.2244C73.2201 53.8968 74.418 54.233 75.81 54.233C77.2115 54.233 78.4094 53.8968 79.4038 53.2244C80.4076 52.5521 81.1746 51.5625 81.7049 50.2557C82.2447 48.9489 82.5146 47.3485 82.5146 45.4545ZM93.0072 60V30.9091H105.024C107.202 30.9091 109.082 31.3352 110.663 32.1875C112.254 33.0303 113.481 34.2093 114.342 35.7244C115.204 37.2301 115.635 38.982 115.635 40.9801C115.635 42.9877 115.195 44.7443 114.314 46.25C113.443 47.7462 112.198 48.9062 110.578 49.7301C108.959 50.554 107.037 50.9659 104.811 50.9659H97.3964V45.4261H103.504C104.565 45.4261 105.45 45.2415 106.161 44.8722C106.88 44.5028 107.425 43.9867 107.794 43.3239C108.163 42.6515 108.348 41.8703 108.348 40.9801C108.348 40.0805 108.163 39.304 107.794 38.6506C107.425 37.9877 106.88 37.4763 106.161 37.1165C105.441 36.7566 104.555 36.5767 103.504 36.5767H100.038V60H93.0072Z" fill="white" style="fill:white;fill-opacity:1;"/>
</g>
<g filter="url(#filter1_d_327_5916)">
<path d="M38.3863 99V93.9432L48.9971 84.6534C49.7925 83.9337 50.4696 83.2756 51.0283 82.679C51.587 82.0729 52.0132 81.4669 52.3067 80.8608C52.6003 80.2453 52.7471 79.5777 52.7471 78.858C52.7471 78.053 52.5719 77.3665 52.2215 76.7983C51.8711 76.2206 51.3882 75.7756 50.7727 75.4631C50.1571 75.1506 49.4516 74.9943 48.6562 74.9943C47.8513 74.9943 47.1458 75.16 46.5397 75.4915C45.9336 75.8134 45.4602 76.2822 45.1192 76.8977C44.7878 77.5133 44.6221 78.2614 44.6221 79.142H37.9602C37.9602 77.1629 38.4052 75.4536 39.2954 74.0142C40.1855 72.5748 41.4355 71.4669 43.0454 70.6903C44.6647 69.9044 46.5444 69.5114 48.6846 69.5114C50.891 69.5114 52.8086 69.8807 54.4374 70.6193C56.0662 71.358 57.3257 72.3902 58.2158 73.7159C59.1155 75.0322 59.5653 76.5616 59.5653 78.304C59.5653 79.4119 59.3427 80.5104 58.8977 81.5994C58.4526 82.6884 57.6524 83.8911 56.4971 85.2074C55.3513 86.5237 53.7225 88.1004 51.6107 89.9375L48.1306 93.1477V93.3324H59.9204V99H38.3863ZM75.1254 99.7102C72.5875 99.7102 70.4 99.1089 68.5629 97.9062C66.7257 96.6941 65.31 94.9564 64.3157 92.6932C63.3214 90.4205 62.829 87.6884 62.8384 84.4972C62.8479 81.3059 63.3451 78.5975 64.3299 76.3722C65.3242 74.1373 66.7352 72.4375 68.5629 71.2727C70.4 70.0985 72.5875 69.5114 75.1254 69.5114C77.6632 69.5114 79.8507 70.0985 81.6879 71.2727C83.5344 72.4375 84.9549 74.1373 85.9492 76.3722C86.9435 78.607 87.436 81.3153 87.4265 84.4972C87.4265 87.6979 86.9293 90.4347 85.935 92.7074C84.9407 94.9801 83.525 96.7178 81.6879 97.9205C79.8602 99.1136 77.6727 99.7102 75.1254 99.7102ZM75.1254 93.9574C76.6405 93.9574 77.8668 93.1856 78.8043 91.642C79.7418 90.089 80.2058 87.7074 80.1964 84.4972C80.1964 82.3949 79.9833 80.6619 79.5572 79.2983C79.131 77.9252 78.5392 76.9025 77.7816 76.2301C77.024 75.5578 76.1386 75.2216 75.1254 75.2216C73.6197 75.2216 72.4028 75.9839 71.4748 77.5085C70.5468 79.0237 70.078 81.3532 70.0685 84.4972C70.0591 86.6278 70.2627 88.3939 70.6793 89.7955C71.1055 91.197 71.7021 92.2434 72.4691 92.9347C73.2362 93.6165 74.1216 93.9574 75.1254 93.9574ZM102.337 94.9091V93.7585C102.337 92.8636 102.528 92.0362 102.912 91.2763C103.303 90.5163 103.867 89.9055 104.606 89.4439C105.345 88.9822 106.247 88.7514 107.312 88.7514C108.399 88.7514 109.311 88.9822 110.05 89.4439C110.796 89.8984 111.357 90.5057 111.733 91.2656C112.117 92.0185 112.308 92.8494 112.308 93.7585V94.9091C112.308 95.804 112.117 96.6314 111.733 97.3913C111.35 98.1513 110.785 98.7621 110.039 99.2237C109.293 99.6854 108.384 99.9162 107.312 99.9162C106.232 99.9162 105.323 99.6854 104.585 99.2237C103.846 98.7621 103.285 98.1513 102.901 97.3913C102.525 96.6314 102.337 95.804 102.337 94.9091ZM105.735 93.7585V94.9091C105.735 95.3636 105.845 95.8004 106.065 96.2195C106.293 96.6385 106.708 96.848 107.312 96.848C107.93 96.848 108.345 96.6456 108.558 96.2408C108.771 95.8288 108.878 95.3849 108.878 94.9091V93.7585C108.878 93.2827 108.775 92.8352 108.569 92.4162C108.37 91.9901 107.951 91.777 107.312 91.777C106.715 91.777 106.303 91.9901 106.076 92.4162C105.849 92.8352 105.735 93.2827 105.735 93.7585ZM91.0228 82.4233V81.2727C91.0228 80.3636 91.2181 79.5327 91.6087 78.7798C92.0065 78.0199 92.5746 77.4126 93.3133 76.9581C94.0519 76.4964 94.9468 76.2656 95.9979 76.2656C97.0846 76.2656 97.9972 76.4964 98.7359 76.9581C99.4816 77.4126 100.046 78.0199 100.43 78.7798C100.813 79.5327 101.005 80.3636 101.005 81.2727V82.4233C101.005 83.3324 100.81 84.1634 100.419 84.9162C100.036 85.669 99.471 86.2692 98.7252 86.7166C97.9795 87.1641 97.0704 87.3878 95.9979 87.3878C94.9255 87.3878 94.0164 87.1605 93.2707 86.706C92.532 86.2514 91.971 85.6477 91.5874 84.8949C91.211 84.142 91.0228 83.3182 91.0228 82.4233ZM94.4532 81.2727V82.4233C94.4532 82.8991 94.5633 83.343 94.7835 83.755C95.0107 84.1598 95.4156 84.3622 95.9979 84.3622C96.6229 84.3622 97.0384 84.1598 97.2444 83.755C97.4575 83.343 97.564 82.8991 97.564 82.4233V81.2727C97.564 80.7969 97.4646 80.3494 97.2657 79.9304C97.0668 79.5043 96.6442 79.2912 95.9979 79.2912C95.4014 79.2912 94.993 79.5078 94.7728 79.9411C94.5597 80.3743 94.4532 80.8182 94.4532 81.2727ZM92.6315 99L107.631 77.1818H110.54L95.5398 99H92.6315Z" fill="white" style="fill:white;fill-opacity:1;"/>
</g>
<defs>
<filter id="filter0_d_327_5916" x="36.3516" y="30.5117" width="79.2852" height="34.8857" filterUnits="userSpaceOnUse" color-interpolation-filters="sRGB">
<feFlood flood-opacity="0" result="BackgroundImageFix"/>
<feColorMatrix in="SourceAlpha" type="matrix" values="0 0 0 0 0 0 0 0 0 0 0 0 0 0 0 0 0 0 127 0" result="hardAlpha"/>
<feOffset dy="5"/>
<feComposite in2="hardAlpha" operator="out"/>
<feColorMatrix type="matrix" values="0 0 0 0 0 0 0 0 0 0 0 0 0 0 0 0 0 0 0.25 0"/>
<feBlend mode="normal" in2="BackgroundImageFix" result="effect1_dropShadow_327_5916"/>
<feBlend mode="normal" in="SourceGraphic" in2="effect1_dropShadow_327_5916" result="shape"/>
</filter>
<filter id="filter1_d_327_5916" x="37.9609" y="69.5117" width="74.3477" height="35.4043" filterUnits="userSpaceOnUse" color-interpolation-filters="sRGB">
<feFlood flood-opacity="0" result="BackgroundImageFix"/>
<feColorMatrix in="SourceAlpha" type="matrix" values="0 0 0 0 0 0 0 0 0 0 0 0 0 0 0 0 0 0 127 0" result="hardAlpha"/>
<feOffset dy="5"/>
<feComposite in2="hardAlpha" operator="out"/>
<feColorMatrix type="matrix" values="0 0 0 0 0 0 0 0 0 0 0 0 0 0 0 0 0 0 0.25 0"/>
<feBlend mode="normal" in2="BackgroundImageFix" result="effect1_dropShadow_327_5916"/>
<feBlend mode="normal" in="SourceGraphic" in2="effect1_dropShadow_327_5916" result="shape"/>
</filter>
</defs>
</svg>
