<svg width="1586" height="421" viewBox="0 0 1586 421" fill="none" xmlns="http://www.w3.org/2000/svg">
<rect width="1585.21" height="420.171" fill="black" style="fill:black;fill-opacity:1;"/>
<path d="M87.2237 186.873L56.4237 63.673H74.3757L103.768 182.649L133.16 63.673H151.112L120.312 186.873H87.2237ZM198.892 188.633C174.076 188.633 154.716 170.681 154.716 143.929V106.089C154.716 79.865 174.076 61.913 198.892 61.913C223.356 61.913 242.716 79.865 242.716 106.089V143.929C242.716 170.681 223.356 188.633 198.892 188.633ZM172.668 145.865C172.668 161.353 183.756 171.737 198.892 171.737C213.676 171.737 224.764 161.353 224.764 145.865V104.681C224.764 89.193 213.676 78.809 198.892 78.809C183.756 78.809 172.668 89.193 172.668 104.681V145.865ZM284.986 188.633C274.25 188.633 264.042 185.993 255.418 181.241L251.546 178.953V160.649L256.298 163.289C267.386 169.625 276.89 172.089 285.69 172.089C300.474 172.089 309.098 164.697 309.098 154.489C309.098 147.449 305.578 142.345 298.362 138.473L271.434 123.337C260.17 117.353 252.778 107.673 252.778 94.473C252.778 74.937 269.322 61.913 291.146 61.913C299.77 61.913 308.57 63.673 316.842 67.369L321.242 69.305V87.961L316.49 85.321C308.042 80.569 299.77 78.457 291.85 78.457C278.65 78.457 270.73 85.673 270.73 94.649C270.73 100.633 274.25 105.209 280.586 108.729L308.922 124.745C321.946 131.785 327.05 142.873 327.05 154.489C327.05 175.081 310.506 188.633 284.986 188.633ZM421.394 188.633C396.578 188.633 377.218 170.681 377.218 143.929V106.089C377.218 79.865 396.578 61.913 421.394 61.913C445.858 61.913 465.218 79.865 465.218 106.089V143.929C465.218 170.681 445.858 188.633 421.394 188.633ZM395.17 145.865C395.17 161.353 406.258 171.737 421.394 171.737C436.178 171.737 447.266 161.353 447.266 145.865V104.681C447.266 89.193 436.178 78.809 421.394 78.809C406.258 78.809 395.17 89.193 395.17 104.681V145.865ZM479.832 186.873V63.673H519.256C545.128 63.673 556.744 78.105 556.744 96.057C556.744 106.089 552.696 114.537 544.6 119.465C556.92 125.449 563.608 136.713 563.608 151.321C563.608 172.617 548.296 186.873 522.072 186.873H479.832ZM497.784 170.505H521.192C536.152 170.505 544.952 162.409 544.952 150.793C544.952 139.001 536.152 130.905 521.192 130.905H497.784V170.505ZM497.784 115.065H519.256C532.104 115.065 538.968 108.377 538.968 97.465C538.968 86.201 532.104 80.041 519.256 80.041H497.784V115.065ZM570.261 186.873C581.173 174.377 585.925 158.889 585.925 141.993V80.393H567.621V63.673H603.877V143.577C603.877 161.353 598.949 176.841 590.853 186.873H570.261ZM621.463 186.873V63.673H688.167V80.041H639.415V117.705H685.351V134.249H639.415V170.505H688.167V186.873H621.463ZM747.726 188.633C720.622 188.633 699.326 169.449 699.326 140.761V109.785C699.326 81.097 720.622 61.913 747.726 61.913C758.814 61.913 768.318 65.081 775.534 70.009V90.073C768.494 82.857 758.99 78.809 748.254 78.809C729.95 78.809 717.278 91.129 717.278 109.609V140.937C717.278 159.417 729.95 171.737 748.254 171.737C758.99 171.737 768.494 167.689 775.534 160.473V180.537C768.318 185.465 758.814 188.633 747.726 188.633ZM812.452 186.873V80.041H780.068V63.673H862.788V80.041H830.404V186.873H812.452ZM871.982 186.873V63.673H889.934V186.873H871.982ZM908.165 186.873V63.673H973.285V80.041H926.117V120.697H971.701V137.065H926.117V186.873H908.165ZM1013.25 188.633C1002.52 188.633 992.311 185.993 983.687 181.241L979.815 178.953V160.649L984.567 163.289C995.655 169.625 1005.16 172.089 1013.96 172.089C1028.74 172.089 1037.37 164.697 1037.37 154.489C1037.37 147.449 1033.85 142.345 1026.63 138.473L999.703 123.337C988.439 117.353 981.047 107.673 981.047 94.473C981.047 74.937 997.591 61.913 1019.41 61.913C1028.04 61.913 1036.84 63.673 1045.11 67.369L1049.51 69.305V87.961L1044.76 85.321C1036.31 80.569 1028.04 78.457 1020.12 78.457C1006.92 78.457 998.999 85.673 998.999 94.649C998.999 100.633 1002.52 105.209 1008.85 108.729L1037.19 124.745C1050.21 131.785 1055.32 142.873 1055.32 154.489C1055.32 175.081 1038.77 188.633 1013.25 188.633ZM1109.18 186.873V63.673H1146.14C1171.84 63.673 1187.68 81.625 1187.68 102.393C1187.68 122.985 1171.84 140.937 1146.14 140.937H1127.13V186.873H1109.18ZM1127.13 124.393H1145.97C1160.4 124.393 1169.2 114.713 1169.2 102.393C1169.2 89.897 1160.4 80.041 1145.97 80.041H1127.13V124.393ZM1241.71 188.633C1216.89 188.633 1197.53 170.681 1197.53 143.929V106.089C1197.53 79.865 1216.89 61.913 1241.71 61.913C1266.17 61.913 1285.53 79.865 1285.53 106.089V143.929C1285.53 170.681 1266.17 188.633 1241.71 188.633ZM1215.48 145.865C1215.48 161.353 1226.57 171.737 1241.71 171.737C1256.49 171.737 1267.58 161.353 1267.58 145.865V104.681C1267.58 89.193 1256.49 78.809 1241.71 78.809C1226.57 78.809 1215.48 89.193 1215.48 104.681V145.865ZM1340.45 188.633C1316.51 188.633 1299.44 172.089 1299.44 147.449V63.673H1317.39V147.801C1317.39 162.585 1326.54 172.089 1340.45 172.089C1354 172.089 1363.15 162.585 1363.15 147.801V63.673H1381.1V147.449C1381.1 172.089 1364.21 188.633 1340.45 188.633ZM1456.8 186.873L1416.67 125.977V186.873H1398.72V63.673H1437.08C1462.96 63.673 1477.21 80.569 1477.21 100.985V101.337C1477.21 119.113 1465.42 134.425 1443.95 137.065L1477.04 186.873H1456.8ZM1416.67 121.753H1436.91C1449.93 121.753 1458.73 113.305 1458.73 101.161V100.809C1458.73 88.841 1449.93 80.041 1436.91 80.041H1416.67V121.753ZM62.7597 354.873V231.673H80.7117V338.505H131.4V354.873H62.7597ZM121.817 272.681L125.337 231.673H143.817V246.457L130.089 272.681H121.817ZM152.165 354.873L182.965 231.673H216.053L246.853 354.873H228.901L220.277 320.201H178.741L170.117 354.873H152.165ZM182.613 304.009H216.405L199.509 235.897L182.613 304.009ZM258.793 354.873V231.673H289.593L327.257 348.361V231.673H344.505V354.873H313.001L276.041 238.361V354.873H258.793ZM362.867 354.873V231.673H393.667L431.331 348.361V231.673H448.579V354.873H417.075L380.115 238.361V354.873H362.867ZM466.941 354.873V231.673H533.645V248.041H484.893V285.705H530.829V302.249H484.893V338.505H533.645V354.873H466.941ZM483.485 225.513V211.961L516.925 202.281H518.685V216.713L485.069 225.513H483.485ZM548.499 354.873V231.673H615.203V248.041H566.451V285.705H612.387V302.249H566.451V338.505H615.203V354.873H548.499ZM665.92 354.873L696.72 231.673H729.808L760.608 354.873H742.656L734.032 320.201H692.496L683.872 354.873H665.92ZM695.664 216.713V202.281H697.424L730.864 211.961V225.513H729.28L695.664 216.713ZM696.368 304.009H730.16L713.264 235.897L696.368 304.009ZM839.211 354.873L808.411 231.673H826.363L855.755 350.649L885.147 231.673H903.099L872.299 354.873H839.211ZM915.04 354.873V231.673H981.744V248.041H932.992V285.705H978.928V302.249H932.992V338.505H981.744V354.873H915.04ZM996.598 354.873V231.673H1027.4L1065.06 348.361V231.673H1082.31V354.873H1050.81L1013.85 238.361V354.873H996.598ZM1100.67 354.873V231.673H1118.62V354.873H1100.67ZM1194.93 354.873L1154.81 293.977V354.873H1136.85V231.673H1175.22C1201.09 231.673 1215.35 248.569 1215.35 268.985V269.337C1215.35 287.113 1203.56 302.425 1182.09 305.065L1215.17 354.873H1194.93ZM1154.81 289.753H1175.05C1188.07 289.753 1196.87 281.305 1196.87 269.161V268.809C1196.87 256.841 1188.07 248.041 1175.05 248.041H1154.81V289.753Z" fill="white" style="fill:white;fill-opacity:1;"/>
</svg>
