<svg width="1586" height="421" viewBox="0 0 1586 421" fill="none" xmlns="http://www.w3.org/2000/svg">
<rect width="1585.21" height="420.171" fill="black" style="fill:black;fill-opacity:1;"/>
<path d="M102.712 130.905L129.64 63.673H149L121.192 130.905H111.688V186.873H93.7357V130.905H84.2317L56.4237 63.673H75.7837L102.712 130.905ZM194.423 188.633C169.607 188.633 150.247 170.681 150.247 143.929V106.089C150.247 79.865 169.607 61.913 194.423 61.913C218.887 61.913 238.247 79.865 238.247 106.089V143.929C238.247 170.681 218.887 188.633 194.423 188.633ZM168.199 145.865C168.199 161.353 179.287 171.737 194.423 171.737C209.207 171.737 220.295 161.353 220.295 145.865V104.681C220.295 89.193 209.207 78.809 194.423 78.809C179.287 78.809 168.199 89.193 168.199 104.681V145.865ZM293.164 188.633C269.228 188.633 252.156 172.089 252.156 147.449V63.673H270.108V147.801C270.108 162.585 279.26 172.089 293.164 172.089C306.716 172.089 315.868 162.585 315.868 147.801V63.673H333.82V147.449C333.82 172.089 316.924 188.633 293.164 188.633ZM409.514 186.873L369.386 125.977V186.873H351.434V63.673H389.802C415.674 63.673 429.93 80.569 429.93 100.985V101.337C429.93 119.113 418.138 134.425 396.666 137.065L429.754 186.873H409.514ZM369.386 121.753H389.626C402.65 121.753 411.45 113.305 411.45 101.161V100.809C411.45 88.841 402.65 80.041 389.626 80.041H369.386V121.753ZM524.219 187.577C500.459 187.577 481.979 170.505 481.979 144.457V108.025C481.979 80.041 500.987 61.913 528.091 61.913C536.891 61.913 545.691 64.025 553.259 67.369L557.131 69.129V87.785L551.147 84.617C544.459 80.921 536.539 78.809 528.795 78.809C510.667 78.809 499.931 91.129 499.931 108.201V144.809C499.931 160.473 509.963 171.385 526.155 171.385H547.627V135.657H525.275V119.289H565.579V157.833L547.627 175.785L535.659 187.577H524.219ZM619.745 188.633C594.929 188.633 575.569 170.681 575.569 143.929V106.089C575.569 79.865 594.929 61.913 619.745 61.913C644.209 61.913 663.569 79.865 663.569 106.089V143.929C663.569 170.681 644.209 188.633 619.745 188.633ZM593.521 145.865C593.521 161.353 604.609 171.737 619.745 171.737C634.529 171.737 645.617 161.353 645.617 145.865V104.681C645.617 89.193 634.529 78.809 619.745 78.809C604.609 78.809 593.521 89.193 593.521 104.681V145.865ZM668.409 186.873L699.209 63.673H732.297L763.097 186.873H745.145L736.521 152.201H694.985L686.361 186.873H668.409ZM698.857 136.009H732.649L715.753 67.897L698.857 136.009ZM775.037 186.873V63.673H792.989V170.505H843.677V186.873H775.037ZM881.502 188.633C870.766 188.633 860.558 185.993 851.934 181.241L848.062 178.953V160.649L852.814 163.289C863.902 169.625 873.406 172.089 882.206 172.089C896.99 172.089 905.614 164.697 905.614 154.489C905.614 147.449 902.094 142.345 894.878 138.473L867.95 123.337C856.686 117.353 849.294 107.673 849.294 94.473C849.294 74.937 865.838 61.913 887.662 61.913C896.286 61.913 905.086 63.673 913.358 67.369L917.758 69.305V87.961L913.006 85.321C904.558 80.569 896.286 78.457 888.366 78.457C875.166 78.457 867.246 85.673 867.246 94.649C867.246 100.633 870.766 105.209 877.102 108.729L905.438 124.745C918.462 131.785 923.566 142.873 923.566 154.489C923.566 175.081 907.022 188.633 881.502 188.633ZM977.43 186.873V63.673H1042.55V80.041H995.382V120.697H1040.97V137.065H995.382V186.873H977.43ZM1094.83 188.633C1070.01 188.633 1050.65 170.681 1050.65 143.929V106.089C1050.65 79.865 1070.01 61.913 1094.83 61.913C1119.29 61.913 1138.65 79.865 1138.65 106.089V143.929C1138.65 170.681 1119.29 188.633 1094.83 188.633ZM1068.6 145.865C1068.6 161.353 1079.69 171.737 1094.83 171.737C1109.61 171.737 1120.7 161.353 1120.7 145.865V104.681C1120.7 89.193 1109.61 78.809 1094.83 78.809C1079.69 78.809 1068.6 89.193 1068.6 104.681V145.865ZM1211.35 186.873L1171.22 125.977V186.873H1153.27V63.673H1191.63C1217.51 63.673 1231.76 80.569 1231.76 100.985V101.337C1231.76 119.113 1219.97 134.425 1198.5 137.065L1231.59 186.873H1211.35ZM1171.22 121.753H1191.46C1204.48 121.753 1213.28 113.305 1213.28 101.161V100.809C1213.28 88.841 1204.48 80.041 1191.46 80.041H1171.22V121.753ZM1310.74 186.873V80.041H1278.35V63.673H1361.07V80.041H1328.69V186.873H1310.74ZM1436.09 186.873V132.489H1388.22V186.873H1370.27V63.673H1388.22V115.945H1436.09V63.673H1454.04V186.873H1436.09ZM1472.28 186.873V63.673H1538.98V80.041H1490.23V117.705H1536.17V134.249H1490.23V170.505H1538.98V186.873H1472.28ZM107.464 356.633C80.3597 356.633 59.0637 337.449 59.0637 308.761V277.785C59.0637 249.097 80.3597 229.913 107.464 229.913C118.552 229.913 128.056 233.081 135.272 238.009V258.073C128.232 250.857 118.728 246.809 107.992 246.809C89.6877 246.809 77.0157 259.129 77.0157 277.609V308.937C77.0157 327.417 89.6877 339.737 107.992 339.737C118.728 339.737 128.232 335.689 135.272 328.473V348.537C128.056 353.465 118.552 356.633 107.464 356.633ZM186.001 356.633C161.185 356.633 141.825 338.681 141.825 311.929V274.089C141.825 247.865 161.185 229.913 186.001 229.913C210.465 229.913 229.825 247.865 229.825 274.089V311.929C229.825 338.681 210.465 356.633 186.001 356.633ZM159.777 313.865C159.777 329.353 170.865 339.737 186.001 339.737C200.785 339.737 211.873 329.353 211.873 313.865V272.681C211.873 257.193 200.785 246.809 186.001 246.809C170.865 246.809 159.777 257.193 159.777 272.681V313.865ZM244.438 354.873V231.673H276.294L297.414 317.561L318.358 231.673H350.39V354.873H333.142V237.305L311.67 322.313H282.982L261.686 238.009V354.873H244.438ZM368.622 354.873V231.673H386.574V354.873H368.622ZM404.805 354.873V231.673H435.605L473.269 348.361V231.673H490.517V354.873H459.013L422.053 238.361V354.873H404.805ZM547.422 355.577C523.662 355.577 505.182 338.505 505.182 312.457V276.025C505.182 248.041 524.19 229.913 551.294 229.913C560.094 229.913 568.894 232.025 576.462 235.369L580.334 237.129V255.785L574.35 252.617C567.662 248.921 559.742 246.809 551.998 246.809C533.87 246.809 523.134 259.129 523.134 276.201V312.809C523.134 328.473 533.166 339.385 549.358 339.385H570.83V303.657H548.478V287.289H588.782V325.833L570.83 343.785L558.862 355.577H547.422ZM684.619 298.905L711.547 231.673H730.907L703.099 298.905H693.595V354.873H675.643V298.905H666.139L638.331 231.673H657.691L684.619 298.905ZM742.897 354.873V231.673H809.601V248.041H760.849V285.705H806.785V302.249H760.849V338.505H809.601V354.873H742.897ZM818.119 354.873L848.919 231.673H882.007L912.807 354.873H894.855L886.231 320.201H844.695L836.071 354.873H818.119ZM848.567 304.009H882.359L865.463 235.897L848.567 304.009ZM982.827 354.873L942.699 293.977V354.873H924.747V231.673H963.115C988.987 231.673 1003.24 248.569 1003.24 268.985V269.337C1003.24 287.113 991.451 302.425 969.979 305.065L1003.07 354.873H982.827ZM942.699 289.753H962.939C975.963 289.753 984.763 281.305 984.763 269.161V268.809C984.763 256.841 975.963 248.041 962.939 248.041H942.699V289.753Z" fill="white" style="fill:white;fill-opacity:1;"/>
</svg>
