<svg width="1462" height="212" viewBox="0 0 1462 212" fill="none" xmlns="http://www.w3.org/2000/svg">
<rect width="1461.55" height="211.454" fill="black" style="fill:black;fill-opacity:1;"/>
<path d="M71.2237 170.096L40.4237 46.8957H58.3757L87.7677 165.872L117.16 46.8957H135.112L104.312 170.096H71.2237ZM182.892 171.856C158.076 171.856 138.716 153.904 138.716 127.152V89.3117C138.716 63.0877 158.076 45.1357 182.892 45.1357C207.356 45.1357 226.716 63.0877 226.716 89.3117V127.152C226.716 153.904 207.356 171.856 182.892 171.856ZM156.668 129.088C156.668 144.576 167.756 154.96 182.892 154.96C197.676 154.96 208.764 144.576 208.764 129.088V87.9037C208.764 72.4157 197.676 62.0317 182.892 62.0317C167.756 62.0317 156.668 72.4157 156.668 87.9037V129.088ZM259.92 170.096V63.2637H227.536V46.8957H310.256V63.2637H277.872V170.096H259.92ZM377.53 170.096L337.402 109.2V170.096H319.45V46.8957H357.818C383.69 46.8957 397.946 63.7917 397.946 84.2077V84.5597C397.946 102.336 386.154 117.648 364.682 120.288L397.77 170.096H377.53ZM337.402 104.976H357.642C370.666 104.976 379.466 96.5277 379.466 84.3837V84.0317C379.466 72.0637 370.666 63.2637 357.642 63.2637H337.402V104.976ZM411.492 170.096V46.8957H478.196V63.2637H429.444V100.928H475.38V117.472H429.444V153.728H478.196V170.096H411.492ZM535.249 170.096V46.8957H574.673C600.545 46.8957 612.161 61.3277 612.161 79.2797C612.161 89.3117 608.113 97.7597 600.017 102.688C612.337 108.672 619.025 119.936 619.025 134.544C619.025 155.84 603.713 170.096 577.489 170.096H535.249ZM553.201 153.728H576.609C591.569 153.728 600.369 145.632 600.369 134.016C600.369 122.224 591.569 114.128 576.609 114.128H553.201V153.728ZM553.201 98.2877H574.673C587.521 98.2877 594.385 91.5997 594.385 80.6877C594.385 69.4237 587.521 63.2637 574.673 63.2637H553.201V98.2877ZM632.448 170.096V46.8957H650.4V170.096H632.448ZM668.631 170.096V46.8957H686.583V153.728H737.271V170.096H668.631ZM741.447 170.096L772.247 46.8957H805.335L836.135 170.096H818.183L809.559 135.424H768.023L759.399 170.096H741.447ZM771.895 119.232H805.687L788.791 51.1197L771.895 119.232ZM848.075 170.096V46.8957H878.875L916.539 163.584V46.8957H933.787V170.096H902.283L865.323 53.5837V170.096H848.075ZM994.348 170.096V46.8957H1031.31C1057 46.8957 1072.84 64.8477 1072.84 85.6157C1072.84 106.208 1057 124.16 1031.31 124.16H1012.3V170.096H994.348ZM1012.3 107.616H1031.13C1045.56 107.616 1054.36 97.9357 1054.36 85.6157C1054.36 73.1197 1045.56 63.2637 1031.13 63.2637H1012.3V107.616ZM1126.69 171.856C1102.76 171.856 1085.69 155.312 1085.69 130.672V46.8957H1103.64V131.024C1103.64 145.808 1112.79 155.312 1126.69 155.312C1140.25 155.312 1149.4 145.808 1149.4 131.024V46.8957H1167.35V130.672C1167.35 155.312 1150.45 171.856 1126.69 171.856ZM1184.96 170.096V46.8957H1202.92V153.728H1253.6V170.096H1184.96ZM1291.43 171.856C1280.69 171.856 1270.48 169.216 1261.86 164.464L1257.99 162.176V143.872L1262.74 146.512C1273.83 152.848 1283.33 155.312 1292.13 155.312C1306.92 155.312 1315.54 147.92 1315.54 137.712C1315.54 130.672 1312.02 125.568 1304.8 121.696L1277.88 106.56C1266.61 100.576 1259.22 90.8957 1259.22 77.6957C1259.22 58.1597 1275.76 45.1357 1297.59 45.1357C1306.21 45.1357 1315.01 46.8957 1323.28 50.5917L1327.68 52.5277V71.1837L1322.93 68.5437C1314.48 63.7917 1306.21 61.6797 1298.29 61.6797C1285.09 61.6797 1277.17 68.8957 1277.17 77.8717C1277.17 83.8557 1280.69 88.4317 1287.03 91.9517L1315.36 107.968C1328.39 115.008 1333.49 126.096 1333.49 137.712C1333.49 158.304 1316.95 171.856 1291.43 171.856ZM1345.16 170.096V46.8957H1411.86V63.2637H1363.11V100.928H1409.05V117.472H1363.11V153.728H1411.86V170.096H1345.16Z" fill="white" style="fill:white;fill-opacity:1;"/>
</svg>
