<svg width="1578" height="212" viewBox="0 0 1578 212" fill="none" xmlns="http://www.w3.org/2000/svg">
<rect width="1577.99" height="211.454" fill="black" style="fill:black;fill-opacity:1;"/>
<path d="M71.2237 170.342L40.4237 47.1418H58.3757L87.7677 166.118L117.16 47.1418H135.112L104.312 170.342H71.2237ZM182.892 172.102C158.076 172.102 138.716 154.15 138.716 127.398V89.5578C138.716 63.3338 158.076 45.3818 182.892 45.3818C207.356 45.3818 226.716 63.3338 226.716 89.5578V127.398C226.716 154.15 207.356 172.102 182.892 172.102ZM156.668 129.334C156.668 144.822 167.756 155.206 182.892 155.206C197.676 155.206 208.764 144.822 208.764 129.334V88.1498C208.764 72.6618 197.676 62.2778 182.892 62.2778C167.756 62.2778 156.668 72.6618 156.668 88.1498V129.334ZM259.92 170.342V63.5098H227.536V47.1418H310.256V63.5098H277.872V170.342H259.92ZM377.53 170.342L337.402 109.446V170.342H319.45V47.1418H357.818C383.69 47.1418 397.946 64.0378 397.946 84.4538V84.8058C397.946 102.582 386.154 117.894 364.682 120.534L397.77 170.342H377.53ZM337.402 105.222H357.642C370.666 105.222 379.466 96.7738 379.466 84.6298V84.2778C379.466 72.3098 370.666 63.5098 357.642 63.5098H337.402V105.222ZM411.492 170.342V47.1418H478.196V63.5098H429.444V101.174H475.38V117.718H429.444V153.974H478.196V170.342H411.492ZM579.953 172.102C552.849 172.102 531.553 152.918 531.553 124.23V93.2538C531.553 64.5658 552.849 45.3818 579.953 45.3818C591.041 45.3818 600.545 48.5498 607.761 53.4778V73.5418C600.721 66.3258 591.217 62.2778 580.481 62.2778C562.177 62.2778 549.505 74.5978 549.505 93.0778V124.406C549.505 142.886 562.177 155.206 580.481 155.206C591.217 155.206 600.721 151.158 607.761 143.942V164.006C600.545 168.934 591.041 172.102 579.953 172.102ZM687.272 170.342V115.958H639.4V170.342H621.448V47.1418H639.4V99.4138H687.272V47.1418H705.224V170.342H687.272ZM723.459 170.342V47.1418H790.163V63.5098H741.411V101.174H787.347V117.718H741.411V153.974H790.163V170.342H723.459ZM849.721 172.102C822.617 172.102 801.321 152.918 801.321 124.23V93.2538C801.321 64.5658 822.617 45.3818 849.721 45.3818C860.809 45.3818 870.313 48.5498 877.529 53.4778V73.5418C870.489 66.3258 860.985 62.2778 850.249 62.2778C831.945 62.2778 819.273 74.5978 819.273 93.0778V124.406C819.273 142.886 831.945 155.206 850.249 155.206C860.985 155.206 870.489 151.158 877.529 143.942V164.006C870.313 168.934 860.809 172.102 849.721 172.102ZM953.696 170.342L909.168 107.334V170.342H891.216V47.1418H909.168V102.582L952.64 47.1418H975.52L928 105.046L975.52 170.342H953.696ZM968.538 115.43V99.9418H1021.16V115.43H968.538ZM1075.04 172.102C1051.11 172.102 1034.03 155.558 1034.03 130.918V47.1418H1051.99V131.27C1051.99 146.054 1061.14 155.558 1075.04 155.558C1088.59 155.558 1097.75 146.054 1097.75 131.27V47.1418H1115.7V130.918C1115.7 155.558 1098.8 172.102 1075.04 172.102ZM1133.31 170.342V47.1418H1170.27C1195.97 47.1418 1211.81 65.0938 1211.81 85.8618C1211.81 106.454 1195.97 124.406 1170.27 124.406H1151.26V170.342H1133.31ZM1151.26 107.862H1170.1C1184.53 107.862 1193.33 98.1818 1193.33 85.8618C1193.33 73.3658 1184.53 63.5098 1170.1 63.5098H1151.26V107.862ZM1267.55 170.342V47.1418H1285.51V153.974H1336.19V170.342H1267.55ZM1345.33 170.342V47.1418H1363.28V170.342H1345.33ZM1381.51 170.342V47.1418H1446.63V63.5098H1399.47V104.166H1445.05V120.534H1399.47V170.342H1381.51ZM1460.49 170.342V47.1418H1527.2V63.5098H1478.45V101.174H1524.38V117.718H1478.45V153.974H1527.2V170.342H1460.49Z" fill="white" style="fill:white;fill-opacity:1;"/>
</svg>
