<svg width="1089" height="212" viewBox="0 0 1089 212" fill="none" xmlns="http://www.w3.org/2000/svg">
<rect width="1089" height="211.454" fill="black" style="fill:black;fill-opacity:1;"/>
<path d="M86.4812 114.576L113.409 47.3439H132.769L104.961 114.576H95.4572V170.544H77.5052V114.576H68.0012L40.1932 47.3439H59.5532L86.4812 114.576ZM178.192 172.304C153.376 172.304 134.016 154.352 134.016 127.6V89.7599C134.016 63.5359 153.376 45.5839 178.192 45.5839C202.656 45.5839 222.016 63.5359 222.016 89.7599V127.6C222.016 154.352 202.656 172.304 178.192 172.304ZM151.968 129.536C151.968 145.024 163.056 155.408 178.192 155.408C192.976 155.408 204.064 145.024 204.064 129.536V88.3519C204.064 72.8639 192.976 62.4799 178.192 62.4799C163.056 62.4799 151.968 72.8639 151.968 88.3519V129.536ZM276.934 172.304C252.998 172.304 235.926 155.76 235.926 131.12V47.3439H253.878V131.472C253.878 146.256 263.03 155.76 276.934 155.76C290.486 155.76 299.638 146.256 299.638 131.472V47.3439H317.59V131.12C317.59 155.76 300.694 172.304 276.934 172.304ZM393.284 170.544L353.156 109.648V170.544H335.204V47.3439H373.572C399.444 47.3439 413.7 64.2399 413.7 84.6559V85.0079C413.7 102.784 401.908 118.096 380.436 120.736L413.524 170.544H393.284ZM353.156 105.424H373.396C386.42 105.424 395.22 96.9759 395.22 84.8319V84.4799C395.22 72.5119 386.42 63.7119 373.396 63.7119H353.156V105.424ZM527.525 170.544L487.397 109.648V170.544H469.445V47.3439H507.813C533.685 47.3439 547.941 64.2399 547.941 84.6559V85.0079C547.941 102.784 536.149 118.096 514.677 120.736L547.765 170.544H527.525ZM487.397 105.424H507.637C520.661 105.424 529.461 96.9759 529.461 84.8319V84.4799C529.461 72.5119 520.661 63.7119 507.637 63.7119H487.397V105.424ZM561.487 170.544V47.3439H628.191V63.7119H579.439V101.376H625.375V117.92H579.439V154.176H628.191V170.544H561.487ZM671.733 172.304C660.997 172.304 650.789 169.664 642.165 164.912L638.293 162.624V144.32L643.045 146.96C654.133 153.296 663.637 155.76 672.437 155.76C687.221 155.76 695.845 148.368 695.845 138.16C695.845 131.12 692.325 126.016 685.109 122.144L658.181 107.008C646.917 101.024 639.525 91.3439 639.525 78.1439C639.525 58.6079 656.069 45.5839 677.893 45.5839C686.517 45.5839 695.317 47.3439 703.589 51.0399L707.989 52.9759V71.6319L703.237 68.9919C694.789 64.2399 686.517 62.1279 678.597 62.1279C665.397 62.1279 657.477 69.3439 657.477 78.3199C657.477 84.3039 660.997 88.8799 667.333 92.3999L695.669 108.416C708.693 115.456 713.797 126.544 713.797 138.16C713.797 158.752 697.253 172.304 671.733 172.304ZM765.767 172.304C741.831 172.304 724.759 155.76 724.759 131.12V47.3439H742.711V131.472C742.711 146.256 751.863 155.76 765.767 155.76C779.319 155.76 788.471 146.256 788.471 131.472V47.3439H806.423V131.12C806.423 155.76 789.527 172.304 765.767 172.304ZM824.037 170.544V47.3439H841.989V154.176H892.677V170.544H824.037ZM914.217 170.544V63.7119H881.833V47.3439H964.553V63.7119H932.169V170.544H914.217ZM1002.43 172.304C991.699 172.304 981.491 169.664 972.867 164.912L968.995 162.624V144.32L973.747 146.96C984.835 153.296 994.339 155.76 1003.14 155.76C1017.92 155.76 1026.55 148.368 1026.55 138.16C1026.55 131.12 1023.03 126.016 1015.81 122.144L988.883 107.008C977.619 101.024 970.227 91.3439 970.227 78.1439C970.227 58.6079 986.771 45.5839 1008.59 45.5839C1017.22 45.5839 1026.02 47.3439 1034.29 51.0399L1038.69 52.9759V71.6319L1033.94 68.9919C1025.49 64.2399 1017.22 62.1279 1009.3 62.1279C996.099 62.1279 988.179 69.3439 988.179 78.3199C988.179 84.3039 991.699 88.8799 998.035 92.3999L1026.37 108.416C1039.39 115.456 1044.5 126.544 1044.5 138.16C1044.5 158.752 1027.95 172.304 1002.43 172.304Z" fill="white" style="fill:white;fill-opacity:1;"/>
</svg>
