<svg width="1300" height="212" viewBox="0 0 1300 212" fill="none" xmlns="http://www.w3.org/2000/svg">
<rect width="1299.37" height="211.454" fill="black" style="fill:black;fill-opacity:1;"/>
<path d="M71.2237 170.342L40.4237 47.1418H58.3757L87.7677 166.118L117.16 47.1418H135.112L104.312 170.342H71.2237ZM182.892 172.102C158.076 172.102 138.716 154.15 138.716 127.398V89.5578C138.716 63.3338 158.076 45.3818 182.892 45.3818C207.356 45.3818 226.716 63.3338 226.716 89.5578V127.398C226.716 154.15 207.356 172.102 182.892 172.102ZM156.668 129.334C156.668 144.822 167.756 155.206 182.892 155.206C197.676 155.206 208.764 144.822 208.764 129.334V88.1498C208.764 72.6618 197.676 62.2778 182.892 62.2778C167.756 62.2778 156.668 72.6618 156.668 88.1498V129.334ZM259.92 170.342V63.5098H227.536V47.1418H310.256V63.5098H277.872V170.342H259.92ZM377.53 170.342L337.402 109.446V170.342H319.45V47.1418H357.818C383.69 47.1418 397.946 64.0378 397.946 84.4538V84.8058C397.946 102.582 386.154 117.894 364.682 120.534L397.77 170.342H377.53ZM337.402 105.222H357.642C370.666 105.222 379.466 96.7738 379.466 84.6298V84.2778C379.466 72.3098 370.666 63.5098 357.642 63.5098H337.402V105.222ZM411.492 170.342V47.1418H478.196V63.5098H429.444V101.174H475.38V117.718H429.444V153.974H478.196V170.342H411.492ZM535.249 170.342V47.1418H574.673C600.545 47.1418 612.161 61.5738 612.161 79.5258C612.161 89.5578 608.113 98.0058 600.017 102.934C612.337 108.918 619.025 120.182 619.025 134.79C619.025 156.086 603.713 170.342 577.489 170.342H535.249ZM553.201 153.974H576.609C591.569 153.974 600.369 145.878 600.369 134.262C600.369 122.47 591.569 114.374 576.609 114.374H553.201V153.974ZM553.201 98.5338H574.673C587.521 98.5338 594.385 91.8458 594.385 80.9338C594.385 69.6698 587.521 63.5098 574.673 63.5098H553.201V98.5338ZM632.448 170.342V47.1418H650.4V170.342H632.448ZM668.631 170.342V47.1418H686.583V153.974H737.271V170.342H668.631ZM741.447 170.342L772.247 47.1418H805.335L836.135 170.342H818.183L809.559 135.67H768.023L759.399 170.342H741.447ZM771.895 119.478H805.687L788.791 51.3658L771.895 119.478ZM848.075 170.342V47.1418H878.875L916.539 163.83V47.1418H933.787V170.342H902.283L865.323 53.8298V170.342H848.075ZM994.348 170.342V47.1418H1012.3V153.974H1062.99V170.342H994.348ZM1072.12 170.342V47.1418H1090.08V170.342H1072.12ZM1108.31 170.342V47.1418H1173.43V63.5098H1126.26V104.166H1171.84V120.534H1126.26V170.342H1108.31ZM1187.29 170.342V47.1418H1253.99V63.5098H1205.24V101.174H1251.18V117.718H1205.24V153.974H1253.99V170.342H1187.29Z" fill="white" style="fill:white;fill-opacity:1;"/>
</svg>
