<svg width="997" height="209" viewBox="0 0 997 209" fill="none" xmlns="http://www.w3.org/2000/svg">
<rect x="0.976562" y="0.078125" width="995.682" height="208.255" fill="black" style="fill:black;fill-opacity:1;"/>
<path d="M75.376 162L44.576 38.8H62.528L91.92 157.776L121.312 38.8H139.264L108.464 162H75.376ZM187.044 163.76C162.228 163.76 142.868 145.808 142.868 119.056V81.216C142.868 54.992 162.228 37.04 187.044 37.04C211.508 37.04 230.868 54.992 230.868 81.216V119.056C230.868 145.808 211.508 163.76 187.044 163.76ZM160.82 120.992C160.82 136.48 171.908 146.864 187.044 146.864C201.828 146.864 212.916 136.48 212.916 120.992V79.808C212.916 64.32 201.828 53.936 187.044 53.936C171.908 53.936 160.82 64.32 160.82 79.808V120.992ZM264.073 162V55.168H231.689V38.8H314.409V55.168H282.025V162H264.073ZM381.682 162L341.554 101.104V162H323.602V38.8H361.97C387.842 38.8 402.098 55.696 402.098 76.112V76.464C402.098 94.24 390.306 109.552 368.834 112.192L401.922 162H381.682ZM341.554 96.88H361.794C374.818 96.88 383.618 88.432 383.618 76.288V75.936C383.618 63.968 374.818 55.168 361.794 55.168H341.554V96.88ZM415.645 162V38.8H482.349V55.168H433.597V92.832H479.533V109.376H433.597V145.632H482.349V162H415.645ZM539.401 162V38.8H578.825C604.697 38.8 616.313 53.232 616.313 71.184C616.313 81.216 612.265 89.664 604.169 94.592C616.489 100.576 623.177 111.84 623.177 126.448C623.177 147.744 607.865 162 581.641 162H539.401ZM557.353 145.632H580.761C595.721 145.632 604.521 137.536 604.521 125.92C604.521 114.128 595.721 106.032 580.761 106.032H557.353V145.632ZM557.353 90.192H578.825C591.673 90.192 598.537 83.504 598.537 72.592C598.537 61.328 591.673 55.168 578.825 55.168H557.353V90.192ZM636.6 162V38.8H654.552V162H636.6ZM672.783 162V38.8H690.735V145.632H741.423V162H672.783ZM745.599 162L776.399 38.8H809.487L840.287 162H822.335L813.711 127.328H772.175L763.551 162H745.599ZM776.047 111.136H809.839L792.943 43.024L776.047 111.136ZM852.228 162V38.8H883.028L920.692 155.488V38.8H937.94V162H906.436L869.476 45.488V162H852.228Z" fill="white" style="fill:white;fill-opacity:1;"/>
</svg>
