<svg width="1516" height="212" viewBox="0 0 1516 212" fill="none" xmlns="http://www.w3.org/2000/svg">
<rect width="1515.6" height="211.454" fill="black" style="fill:black;fill-opacity:1;"/>
<path d="M98.6648 114.576L125.593 47.3439H144.953L117.145 114.576H107.641V170.544H89.6888V114.576H80.1848L52.3768 47.3439H71.7368L98.6648 114.576ZM190.376 172.304C165.56 172.304 146.2 154.352 146.2 127.6V89.7599C146.2 63.5359 165.56 45.5839 190.376 45.5839C214.84 45.5839 234.2 63.5359 234.2 89.7599V127.6C234.2 154.352 214.84 172.304 190.376 172.304ZM164.152 129.536C164.152 145.024 175.24 155.408 190.376 155.408C205.16 155.408 216.248 145.024 216.248 129.536V88.3519C216.248 72.8639 205.16 62.4799 190.376 62.4799C175.24 62.4799 164.152 72.8639 164.152 88.3519V129.536ZM289.117 172.304C265.181 172.304 248.109 155.76 248.109 131.12V47.3439H266.061V131.472C266.061 146.256 275.213 155.76 289.117 155.76C302.669 155.76 311.821 146.256 311.821 131.472V47.3439H329.773V131.12C329.773 155.76 312.877 172.304 289.117 172.304ZM405.467 170.544L365.339 109.648V170.544H347.387V47.3439H385.755C411.627 47.3439 425.883 64.2399 425.883 84.6559V85.0079C425.883 102.784 414.091 118.096 392.619 120.736L425.707 170.544H405.467ZM365.339 105.424H385.579C398.603 105.424 407.403 96.9759 407.403 84.8319V84.4799C407.403 72.5119 398.603 63.7119 385.579 63.7119H365.339V105.424ZM539.708 170.544L499.58 109.648V170.544H481.628V47.3439H519.996C545.868 47.3439 560.124 64.2399 560.124 84.6559V85.0079C560.124 102.784 548.332 118.096 526.86 120.736L559.948 170.544H539.708ZM499.58 105.424H519.82C532.844 105.424 541.644 96.9759 541.644 84.8319V84.4799C541.644 72.5119 532.844 63.7119 519.82 63.7119H499.58V105.424ZM573.671 170.544V47.3439H640.375V63.7119H591.623V101.376H637.559V117.92H591.623V154.176H640.375V170.544H573.671ZM683.917 172.304C673.181 172.304 662.973 169.664 654.349 164.912L650.477 162.624V144.32L655.229 146.96C666.317 153.296 675.821 155.76 684.621 155.76C699.405 155.76 708.029 148.368 708.029 138.16C708.029 131.12 704.509 126.016 697.293 122.144L670.365 107.008C659.101 101.024 651.709 91.3439 651.709 78.1439C651.709 58.6079 668.253 45.5839 690.077 45.5839C698.701 45.5839 707.501 47.3439 715.773 51.0399L720.173 52.9759V71.6319L715.421 68.9919C706.973 64.2399 698.701 62.1279 690.781 62.1279C677.581 62.1279 669.661 69.3439 669.661 78.3199C669.661 84.3039 673.181 88.8799 679.517 92.3999L707.853 108.416C720.877 115.456 725.981 126.544 725.981 138.16C725.981 158.752 709.437 172.304 683.917 172.304ZM777.951 172.304C754.015 172.304 736.943 155.76 736.943 131.12V47.3439H754.895V131.472C754.895 146.256 764.047 155.76 777.951 155.76C791.503 155.76 800.655 146.256 800.655 131.472V47.3439H818.607V131.12C818.607 155.76 801.711 172.304 777.951 172.304ZM836.22 170.544V47.3439H854.172V154.176H904.86V170.544H836.22ZM926.401 170.544V63.7119H894.017V47.3439H976.737V63.7119H944.353V170.544H926.401ZM1014.62 172.304C1003.88 172.304 993.674 169.664 985.05 164.912L981.178 162.624V144.32L985.93 146.96C997.018 153.296 1006.52 155.76 1015.32 155.76C1030.11 155.76 1038.73 148.368 1038.73 138.16C1038.73 131.12 1035.21 126.016 1027.99 122.144L1001.07 107.008C989.802 101.024 982.41 91.3439 982.41 78.1439C982.41 58.6079 998.954 45.5839 1020.78 45.5839C1029.4 45.5839 1038.2 47.3439 1046.47 51.0399L1050.87 52.9759V71.6319L1046.12 68.9919C1037.67 64.2399 1029.4 62.1279 1021.48 62.1279C1008.28 62.1279 1000.36 69.3439 1000.36 78.3199C1000.36 84.3039 1003.88 88.8799 1010.22 92.3999L1038.55 108.416C1051.58 115.456 1056.68 126.544 1056.68 138.16C1056.68 158.752 1040.14 172.304 1014.62 172.304ZM1155.25 172.304C1128.15 172.304 1106.85 153.12 1106.85 124.432V93.4559C1106.85 64.7679 1128.15 45.5839 1155.25 45.5839C1166.34 45.5839 1175.84 48.7519 1183.06 53.6799V73.7439C1176.02 66.5279 1166.51 62.4799 1155.78 62.4799C1137.47 62.4799 1124.8 74.7999 1124.8 93.2799V124.608C1124.8 143.088 1137.47 155.408 1155.78 155.408C1166.51 155.408 1176.02 151.36 1183.06 144.144V164.208C1175.84 169.136 1166.34 172.304 1155.25 172.304ZM1233.79 172.304C1208.97 172.304 1189.61 154.352 1189.61 127.6V89.7599C1189.61 63.5359 1208.97 45.5839 1233.79 45.5839C1258.25 45.5839 1277.61 63.5359 1277.61 89.7599V127.6C1277.61 154.352 1258.25 172.304 1233.79 172.304ZM1207.56 129.536C1207.56 145.024 1218.65 155.408 1233.79 155.408C1248.57 155.408 1259.66 145.024 1259.66 129.536V88.3519C1259.66 72.8639 1248.57 62.4799 1233.79 62.4799C1218.65 62.4799 1207.56 72.8639 1207.56 88.3519V129.536ZM1350.31 170.544L1310.18 109.648V170.544H1292.23V47.3439H1330.59C1356.47 47.3439 1370.72 64.2399 1370.72 84.6559V85.0079C1370.72 102.784 1358.93 118.096 1337.46 120.736L1370.55 170.544H1350.31ZM1310.18 105.424H1330.42C1343.44 105.424 1352.24 96.9759 1352.24 84.8319V84.4799C1352.24 72.5119 1343.44 63.7119 1330.42 63.7119H1310.18V105.424ZM1384.27 170.544V47.3439H1450.97V63.7119H1402.22V101.376H1448.16V117.92H1402.22V154.176H1450.97V170.544H1384.27Z" fill="white" style="fill:white;fill-opacity:1;"/>
</svg>
