<svg width="1437" height="212" viewBox="0 0 1437 212" fill="none" xmlns="http://www.w3.org/2000/svg">
<rect width="1436.65" height="211.454" fill="black" style="fill:black;fill-opacity:1;"/>
<path d="M98.7117 114.718L125.64 47.4855H145L117.192 114.718H107.688V170.686H89.7357V114.718H80.2317L52.4237 47.4855H71.7837L98.7117 114.718ZM190.423 172.446C165.607 172.446 146.247 154.494 146.247 127.742V89.9015C146.247 63.6775 165.607 45.7255 190.423 45.7255C214.887 45.7255 234.247 63.6775 234.247 89.9015V127.742C234.247 154.494 214.887 172.446 190.423 172.446ZM164.199 129.678C164.199 145.166 175.287 155.55 190.423 155.55C205.207 155.55 216.295 145.166 216.295 129.678V88.4935C216.295 73.0055 205.207 62.6215 190.423 62.6215C175.287 62.6215 164.199 73.0055 164.199 88.4935V129.678ZM289.164 172.446C265.228 172.446 248.156 155.902 248.156 131.262V47.4855H266.108V131.614C266.108 146.398 275.26 155.902 289.164 155.902C302.716 155.902 311.868 146.398 311.868 131.614V47.4855H329.82V131.262C329.82 155.902 312.924 172.446 289.164 172.446ZM405.514 170.686L365.386 109.79V170.686H347.434V47.4855H385.802C411.674 47.4855 425.93 64.3815 425.93 84.7975V85.1495C425.93 102.926 414.138 118.238 392.666 120.878L425.754 170.686H405.514ZM365.386 105.566H385.626C398.65 105.566 407.45 97.1175 407.45 84.9735V84.6215C407.45 72.6535 398.65 63.8535 385.626 63.8535H365.386V105.566ZM539.755 170.686L499.627 109.79V170.686H481.675V47.4855H520.043C545.915 47.4855 560.171 64.3815 560.171 84.7975V85.1495C560.171 102.926 548.379 118.238 526.907 120.878L559.995 170.686H539.755ZM499.627 105.566H519.867C532.891 105.566 541.691 97.1175 541.691 84.9735V84.6215C541.691 72.6535 532.891 63.8535 519.867 63.8535H499.627V105.566ZM573.718 170.686V47.4855H640.422V63.8535H591.67V101.518H637.606V118.062H591.67V154.318H640.422V170.686H573.718ZM683.964 172.446C673.228 172.446 663.02 169.806 654.396 165.054L650.524 162.766V144.462L655.276 147.102C666.364 153.438 675.868 155.902 684.668 155.902C699.452 155.902 708.076 148.51 708.076 138.302C708.076 131.262 704.556 126.158 697.34 122.286L670.412 107.15C659.148 101.166 651.756 91.4855 651.756 78.2855C651.756 58.7495 668.3 45.7255 690.124 45.7255C698.748 45.7255 707.548 47.4855 715.82 51.1815L720.22 53.1175V71.7735L715.468 69.1335C707.02 64.3815 698.748 62.2695 690.828 62.2695C677.628 62.2695 669.708 69.4855 669.708 78.4615C669.708 84.4455 673.228 89.0215 679.564 92.5415L707.9 108.558C720.924 115.598 726.028 126.686 726.028 138.302C726.028 158.894 709.484 172.446 683.964 172.446ZM777.997 172.446C754.061 172.446 736.989 155.902 736.989 131.262V47.4855H754.941V131.614C754.941 146.398 764.093 155.902 777.997 155.902C791.549 155.902 800.701 146.398 800.701 131.614V47.4855H818.653V131.262C818.653 155.902 801.757 172.446 777.997 172.446ZM836.267 170.686V47.4855H854.219V154.318H904.907V170.686H836.267ZM926.448 170.686V63.8535H894.064V47.4855H976.784V63.8535H944.4V170.686H926.448ZM1014.67 172.446C1003.93 172.446 993.721 169.806 985.097 165.054L981.225 162.766V144.462L985.977 147.102C997.065 153.438 1006.57 155.902 1015.37 155.902C1030.15 155.902 1038.78 148.51 1038.78 138.302C1038.78 131.262 1035.26 126.158 1028.04 122.286L1001.11 107.15C989.849 101.166 982.457 91.4855 982.457 78.2855C982.457 58.7495 999.001 45.7255 1020.83 45.7255C1029.45 45.7255 1038.25 47.4855 1046.52 51.1815L1050.92 53.1175V71.7735L1046.17 69.1335C1037.72 64.3815 1029.45 62.2695 1021.53 62.2695C1008.33 62.2695 1000.41 69.4855 1000.41 78.4615C1000.41 84.4455 1003.93 89.0215 1010.27 92.5415L1038.6 108.558C1051.63 115.598 1056.73 126.686 1056.73 138.302C1056.73 158.894 1040.19 172.446 1014.67 172.446ZM1110.59 170.686V47.4855H1128.55V154.318H1179.23V170.686H1110.59ZM1188.37 170.686V47.4855H1206.32V170.686H1188.37ZM1224.55 170.686V47.4855H1289.67V63.8535H1242.51V104.51H1288.09V120.878H1242.51V170.686H1224.55ZM1303.53 170.686V47.4855H1370.24V63.8535H1321.49V101.518H1367.42V118.062H1321.49V154.318H1370.24V170.686H1303.53Z" fill="white" style="fill:white;fill-opacity:1;"/>
</svg>
