<svg width="1596" height="212" viewBox="0 0 1596 212" fill="none" xmlns="http://www.w3.org/2000/svg">
<rect width="1595.85" height="211.454" fill="black" style="fill:black;fill-opacity:1;"/>
<path d="M98.7117 114.224L125.64 46.9924H145L117.192 114.224H107.688V170.192H89.7357V114.224H80.2317L52.4237 46.9924H71.7837L98.7117 114.224ZM190.423 171.952C165.607 171.952 146.247 154 146.247 127.248V89.4084C146.247 63.1844 165.607 45.2324 190.423 45.2324C214.887 45.2324 234.247 63.1844 234.247 89.4084V127.248C234.247 154 214.887 171.952 190.423 171.952ZM164.199 129.184C164.199 144.672 175.287 155.056 190.423 155.056C205.207 155.056 216.295 144.672 216.295 129.184V88.0004C216.295 72.5124 205.207 62.1284 190.423 62.1284C175.287 62.1284 164.199 72.5124 164.199 88.0004V129.184ZM289.164 171.952C265.228 171.952 248.156 155.408 248.156 130.768V46.9924H266.108V131.12C266.108 145.904 275.26 155.408 289.164 155.408C302.716 155.408 311.868 145.904 311.868 131.12V46.9924H329.82V130.768C329.82 155.408 312.924 171.952 289.164 171.952ZM405.514 170.192L365.386 109.296V170.192H347.434V46.9924H385.802C411.674 46.9924 425.93 63.8884 425.93 84.3044V84.6564C425.93 102.432 414.138 117.744 392.666 120.384L425.754 170.192H405.514ZM365.386 105.072H385.626C398.65 105.072 407.45 96.6244 407.45 84.4804V84.1284C407.45 72.1604 398.65 63.3604 385.626 63.3604H365.386V105.072ZM539.755 170.192L499.627 109.296V170.192H481.675V46.9924H520.043C545.915 46.9924 560.171 63.8884 560.171 84.3044V84.6564C560.171 102.432 548.379 117.744 526.907 120.384L559.995 170.192H539.755ZM499.627 105.072H519.867C532.891 105.072 541.691 96.6244 541.691 84.4804V84.1284C541.691 72.1604 532.891 63.3604 519.867 63.3604H499.627V105.072ZM573.718 170.192V46.9924H640.422V63.3604H591.67V101.024H637.606V117.568H591.67V153.824H640.422V170.192H573.718ZM683.964 171.952C673.228 171.952 663.02 169.312 654.396 164.56L650.524 162.272V143.968L655.276 146.608C666.364 152.944 675.868 155.408 684.668 155.408C699.452 155.408 708.076 148.016 708.076 137.808C708.076 130.768 704.556 125.664 697.34 121.792L670.412 106.656C659.148 100.672 651.756 90.9924 651.756 77.7924C651.756 58.2564 668.3 45.2324 690.124 45.2324C698.748 45.2324 707.548 46.9924 715.82 50.6884L720.22 52.6244V71.2804L715.468 68.6404C707.02 63.8884 698.748 61.7764 690.828 61.7764C677.628 61.7764 669.708 68.9924 669.708 77.9684C669.708 83.9524 673.228 88.5284 679.564 92.0484L707.9 108.064C720.924 115.104 726.028 126.192 726.028 137.808C726.028 158.4 709.484 171.952 683.964 171.952ZM777.997 171.952C754.061 171.952 736.989 155.408 736.989 130.768V46.9924H754.941V131.12C754.941 145.904 764.093 155.408 777.997 155.408C791.549 155.408 800.701 145.904 800.701 131.12V46.9924H818.653V130.768C818.653 155.408 801.757 171.952 777.997 171.952ZM836.267 170.192V46.9924H854.219V153.824H904.907V170.192H836.267ZM926.448 170.192V63.3604H894.064V46.9924H976.784V63.3604H944.4V170.192H926.448ZM1014.67 171.952C1003.93 171.952 993.721 169.312 985.097 164.56L981.225 162.272V143.968L985.977 146.608C997.065 152.944 1006.57 155.408 1015.37 155.408C1030.15 155.408 1038.78 148.016 1038.78 137.808C1038.78 130.768 1035.26 125.664 1028.04 121.792L1001.11 106.656C989.849 100.672 982.457 90.9924 982.457 77.7924C982.457 58.2564 999.001 45.2324 1020.83 45.2324C1029.45 45.2324 1038.25 46.9924 1046.52 50.6884L1050.92 52.6244V71.2804L1046.17 68.6404C1037.72 63.8884 1029.45 61.7764 1021.53 61.7764C1008.33 61.7764 1000.41 68.9924 1000.41 77.9684C1000.41 83.9524 1003.93 88.5284 1010.27 92.0484L1038.6 108.064C1051.63 115.104 1056.73 126.192 1056.73 137.808C1056.73 158.4 1040.19 171.952 1014.67 171.952ZM1110.59 170.192V46.9924H1147.55C1173.25 46.9924 1189.09 64.9444 1189.09 85.7124C1189.09 106.304 1173.25 124.256 1147.55 124.256H1128.55V170.192H1110.59ZM1128.55 107.712H1147.38C1161.81 107.712 1170.61 98.0324 1170.61 85.7124C1170.61 73.2164 1161.81 63.3604 1147.38 63.3604H1128.55V107.712ZM1242.94 171.952C1219 171.952 1201.93 155.408 1201.93 130.768V46.9924H1219.88V131.12C1219.88 145.904 1229.04 155.408 1242.94 155.408C1256.49 155.408 1265.64 145.904 1265.64 131.12V46.9924H1283.6V130.768C1283.6 155.408 1266.7 171.952 1242.94 171.952ZM1301.21 170.192V46.9924H1319.16V153.824H1369.85V170.192H1301.21ZM1407.67 171.952C1396.94 171.952 1386.73 169.312 1378.11 164.56L1374.23 162.272V143.968L1378.99 146.608C1390.07 152.944 1399.58 155.408 1408.38 155.408C1423.16 155.408 1431.79 148.016 1431.79 137.808C1431.79 130.768 1428.27 125.664 1421.05 121.792L1394.12 106.656C1382.86 100.672 1375.47 90.9924 1375.47 77.7924C1375.47 58.2564 1392.01 45.2324 1413.83 45.2324C1422.46 45.2324 1431.26 46.9924 1439.53 50.6884L1443.93 52.6244V71.2804L1439.18 68.6404C1430.73 63.8884 1422.46 61.7764 1414.54 61.7764C1401.34 61.7764 1393.42 68.9924 1393.42 77.9684C1393.42 83.9524 1396.94 88.5284 1403.27 92.0484L1431.61 108.064C1444.63 115.104 1449.74 126.192 1449.74 137.808C1449.74 158.4 1433.19 171.952 1407.67 171.952ZM1461.4 170.192V46.9924H1528.11V63.3604H1479.36V101.024H1525.29V117.568H1479.36V153.824H1528.11V170.192H1461.4Z" fill="white" style="fill:white;fill-opacity:1;"/>
</svg>
