<svg width="945" height="169" viewBox="0 0 945 169" fill="none" xmlns="http://www.w3.org/2000/svg">
<path d="M35.376 154.5L4.576 31.3H22.528L51.92 150.276L81.312 31.3H99.264L68.464 154.5H35.376ZM147.044 156.26C122.228 156.26 102.868 138.308 102.868 111.556V73.716C102.868 47.492 122.228 29.54 147.044 29.54C171.508 29.54 190.868 47.492 190.868 73.716V111.556C190.868 138.308 171.508 156.26 147.044 156.26ZM120.82 113.492C120.82 128.98 131.908 139.364 147.044 139.364C161.828 139.364 172.916 128.98 172.916 113.492V72.308C172.916 56.82 161.828 46.436 147.044 46.436C131.908 46.436 120.82 56.82 120.82 72.308V113.492ZM224.073 154.5V47.668H191.689V31.3H274.409V47.668H242.025V154.5H224.073ZM341.682 154.5L301.554 93.604V154.5H283.602V31.3H321.97C347.842 31.3 362.098 48.196 362.098 68.612V68.964C362.098 86.74 350.306 102.052 328.834 104.692L361.922 154.5H341.682ZM301.554 89.38H321.794C334.818 89.38 343.618 80.932 343.618 68.788V68.436C343.618 56.468 334.818 47.668 321.794 47.668H301.554V89.38ZM375.645 154.5V31.3H442.349V47.668H393.597V85.332H439.533V101.876H393.597V138.132H442.349V154.5H375.645ZM499.401 154.5V31.3H538.825C564.697 31.3 576.313 45.732 576.313 63.684C576.313 73.716 572.265 82.164 564.169 87.092C576.489 93.076 583.177 104.34 583.177 118.948C583.177 140.244 567.865 154.5 541.641 154.5H499.401ZM517.353 138.132H540.761C555.721 138.132 564.521 130.036 564.521 118.42C564.521 106.628 555.721 98.532 540.761 98.532H517.353V138.132ZM517.353 82.692H538.825C551.673 82.692 558.537 76.004 558.537 65.092C558.537 53.828 551.673 47.668 538.825 47.668H517.353V82.692ZM596.6 154.5V31.3H614.552V154.5H596.6ZM632.783 154.5V31.3H650.735V138.132H701.423V154.5H632.783ZM705.599 154.5L736.399 31.3H769.487L800.287 154.5H782.335L773.711 119.828H732.175L723.551 154.5H705.599ZM736.047 103.636H769.839L752.943 35.524L736.047 103.636ZM812.228 154.5V31.3H843.028L880.692 147.988V31.3H897.94V154.5H866.436L829.476 37.988V154.5H812.228Z" fill="white" style="fill:white;fill-opacity:1;"/>
</svg>
