<svg width="1372" height="212" viewBox="0 0 1372 212" fill="none" xmlns="http://www.w3.org/2000/svg">
<rect width="1371.85" height="211.454" fill="black" style="fill:black;fill-opacity:1;"/>
<path d="M71.2237 170.406L40.4237 47.2062H58.3757L87.7677 166.182L117.16 47.2062H135.112L104.312 170.406H71.2237ZM182.892 172.166C158.076 172.166 138.716 154.214 138.716 127.462V89.6222C138.716 63.3982 158.076 45.4462 182.892 45.4462C207.356 45.4462 226.716 63.3982 226.716 89.6222V127.462C226.716 154.214 207.356 172.166 182.892 172.166ZM156.668 129.398C156.668 144.886 167.756 155.27 182.892 155.27C197.676 155.27 208.764 144.886 208.764 129.398V88.2142C208.764 72.7262 197.676 62.3422 182.892 62.3422C167.756 62.3422 156.668 72.7262 156.668 88.2142V129.398ZM259.92 170.406V63.5742H227.536V47.2062H310.256V63.5742H277.872V170.406H259.92ZM377.53 170.406L337.402 109.51V170.406H319.45V47.2062H357.818C383.69 47.2062 397.946 64.1022 397.946 84.5182V84.8702C397.946 102.646 386.154 117.958 364.682 120.598L397.77 170.406H377.53ZM337.402 105.286H357.642C370.666 105.286 379.466 96.8382 379.466 84.6942V84.3422C379.466 72.3742 370.666 63.5742 357.642 63.5742H337.402V105.286ZM411.492 170.406V47.2062H478.196V63.5742H429.444V101.238H475.38V117.782H429.444V154.038H478.196V170.406H411.492ZM535.249 170.406V47.2062H574.673C600.545 47.2062 612.161 61.6382 612.161 79.5902C612.161 89.6222 608.113 98.0702 600.017 102.998C612.337 108.982 619.025 120.246 619.025 134.854C619.025 156.15 603.713 170.406 577.489 170.406H535.249ZM553.201 154.038H576.609C591.569 154.038 600.369 145.942 600.369 134.326C600.369 122.534 591.569 114.438 576.609 114.438H553.201V154.038ZM553.201 98.5982H574.673C587.521 98.5982 594.385 91.9102 594.385 80.9982C594.385 69.7342 587.521 63.5742 574.673 63.5742H553.201V98.5982ZM632.448 170.406V47.2062H650.4V170.406H632.448ZM668.631 170.406V47.2062H686.583V154.038H737.271V170.406H668.631ZM741.447 170.406L772.247 47.2062H805.335L836.135 170.406H818.183L809.559 135.734H768.023L759.399 170.406H741.447ZM771.895 119.542H805.687L788.791 51.4302L771.895 119.542ZM848.075 170.406V47.2062H878.875L916.539 163.894V47.2062H933.787V170.406H902.283L865.323 53.8942V170.406H848.075ZM1039.05 172.166C1011.95 172.166 990.652 152.982 990.652 124.294V93.3182C990.652 64.6302 1011.95 45.4462 1039.05 45.4462C1050.14 45.4462 1059.64 48.6142 1066.86 53.5422V73.6062C1059.82 66.3902 1050.32 62.3422 1039.58 62.3422C1021.28 62.3422 1008.6 74.6622 1008.6 93.1422V124.47C1008.6 142.95 1021.28 155.27 1039.58 155.27C1050.32 155.27 1059.82 151.222 1066.86 144.006V164.07C1059.64 168.998 1050.14 172.166 1039.05 172.166ZM1117.59 172.166C1092.77 172.166 1073.41 154.214 1073.41 127.462V89.6222C1073.41 63.3982 1092.77 45.4462 1117.59 45.4462C1142.05 45.4462 1161.41 63.3982 1161.41 89.6222V127.462C1161.41 154.214 1142.05 172.166 1117.59 172.166ZM1091.37 129.398C1091.37 144.886 1102.45 155.27 1117.59 155.27C1132.37 155.27 1143.46 144.886 1143.46 129.398V88.2142C1143.46 72.7262 1132.37 62.3422 1117.59 62.3422C1102.45 62.3422 1091.37 72.7262 1091.37 88.2142V129.398ZM1234.11 170.406L1193.98 109.51V170.406H1176.03V47.2062H1214.39C1240.27 47.2062 1254.52 64.1022 1254.52 84.5182V84.8702C1254.52 102.646 1242.73 117.958 1221.26 120.598L1254.35 170.406H1234.11ZM1193.98 105.286H1214.22C1227.24 105.286 1236.04 96.8382 1236.04 84.6942V84.3422C1236.04 72.3742 1227.24 63.5742 1214.22 63.5742H1193.98V105.286ZM1268.07 170.406V47.2062H1334.77V63.5742H1286.02V101.238H1331.96V117.782H1286.02V154.038H1334.77V170.406H1268.07Z" fill="white" style="fill:white;fill-opacity:1;"/>
</svg>
